<svg xmlns="http://www.w3.org/2000/svg" width="220.094" height="55.208" viewBox="0 0 220.094 55.208">
  <g id="レイヤー_1" data-name="レイヤー 1" transform="translate(10.001 10.002)">
    <path id="Path_10628" data-name="Path 10628" d="M12.138,43.558a2.034,2.034,0,0,1-1.522-.637A2.076,2.076,0,0,1,10,41.42V40.369a2.1,2.1,0,0,1,2.138-2.152H15.6a.256.256,0,0,0,.284-.291V22.815a.256.256,0,0,0-.284-.291H12.829a1.986,1.986,0,0,1-1.446-.6,1.951,1.951,0,0,1-.6-1.432,2.422,2.422,0,0,1,.56-1.557,2.622,2.622,0,0,1,1.418-.865,19.089,19.089,0,0,0,2.968-1.052,9.687,9.687,0,0,1,4-1.024h.581a2.173,2.173,0,0,1,2.138,2.11V37.947q0,.291.249.291h2.574a2.076,2.076,0,0,1,2.131,2.131V41.42a2.076,2.076,0,0,1-.616,1.5,2.027,2.027,0,0,1-1.515.637Z" transform="translate(-9.999 -11.848)" fill="#231815"/>
    <path id="Path_10629" data-name="Path 10629" d="M73.874,14.626a1.764,1.764,0,0,1-.249-.9,2.076,2.076,0,0,1,.1-.65,1.882,1.882,0,0,1,1.086-1.128l1.384-.54a2.768,2.768,0,0,1,.872-.145,2.622,2.622,0,0,1,.83.145A2.38,2.38,0,0,1,79.2,12.5a45.8,45.8,0,0,0,8.3,9.88,1.792,1.792,0,0,1,.616,1.384,1.923,1.923,0,0,1-.581,1.384c-.6.581-1.183,1.183-1.737,1.813a1.806,1.806,0,0,1-1.342.692h-.152a1.681,1.681,0,0,1-1.232-.505q-.076-.076-.125-.042a.131.131,0,0,0-.055.111q-.291,7.9-.692,11.368t-1.266,4.594a4.947,4.947,0,0,1-1.612,1.384,7.424,7.424,0,0,1-2.117.65,19.829,19.829,0,0,1-3.37.221,2.3,2.3,0,0,1-1.557-.616,2.941,2.941,0,0,1-.9-1.522c-.145-.484-.318-.962-.512-1.446a1.812,1.812,0,0,1-.069-.505,1.384,1.384,0,0,1,.214-.692,1.155,1.155,0,0,1,1.017-.54h0c.872.048,1.667.069,2.387.069a1.944,1.944,0,0,0,1.584-.54,6.089,6.089,0,0,0,.775-2.927c.18-1.591.346-4.082.491-7.459A.228.228,0,0,0,77.015,29H71.48a.284.284,0,0,0-.325.256A29.751,29.751,0,0,1,70.463,33,19.677,19.677,0,0,1,69.2,36.49a15.076,15.076,0,0,1-2.007,3.259A17.428,17.428,0,0,1,64.2,42.593,21.732,21.732,0,0,1,60.05,45.07a2.408,2.408,0,0,1-.906.18,2.235,2.235,0,0,1-.761-.145,2.768,2.768,0,0,1-1.335-1.086c-.339-.554-.692-1.072-1.052-1.557a1.481,1.481,0,0,1-.325-.9,2.408,2.408,0,0,1,0-.4,1.384,1.384,0,0,1,.872-1.01,19.56,19.56,0,0,0,3.909-2.193A10.544,10.544,0,0,0,63.018,35.3a13.928,13.928,0,0,0,1.446-2.864,15.914,15.914,0,0,0,.761-3.183c0-.166-.048-.256-.214-.256h-3.19a1.986,1.986,0,0,1-1.481-.65,2.076,2.076,0,0,1-.616-1.5s0-.048-.076-.076-.083,0-.1,0c-.291.27-.554.519-.8.761a2.076,2.076,0,0,1-1.384.547H57.22a2.553,2.553,0,0,1-1.557-.692c-.484-.484-.989-.962-1.522-1.446a1.612,1.612,0,0,1-.581-1.266,1.688,1.688,0,0,1,.692-1.384,30.658,30.658,0,0,0,4.67-4.781,30.928,30.928,0,0,0,3.653-5.86,2.56,2.56,0,0,1,1.2-1.232,2.256,2.256,0,0,1,1.01-.256,2.525,2.525,0,0,1,.692.111l1.737.505a1.882,1.882,0,0,1,1.183,1.045,1.771,1.771,0,0,1,.18.761,1.46,1.46,0,0,1-.214.761A44.233,44.233,0,0,1,62.472,23.5a.18.18,0,0,0,0,.145.125.125,0,0,0,.111.076h17.3a.152.152,0,0,0,.145-.076.125.125,0,0,0-.042-.145,70.72,70.72,0,0,1-6.109-8.877Z" transform="translate(-23.42 -10.357)" fill="#231815"/>
    <path id="Path_10630" data-name="Path 10630" d="M111.753,23.076a2.076,2.076,0,0,1-.4,0,1.785,1.785,0,0,1-1.121-.394,1.827,1.827,0,0,1-.761-1.384l-.18-1.771v-.221A1.924,1.924,0,0,1,109.8,18a1.965,1.965,0,0,1,1.453-.692,11.254,11.254,0,0,0,1.626-.111l6.1-.505q5.639-.477,9.61-.837c2.463-.187,5.314-.374,8.545-.54h.111a1.923,1.923,0,0,1,1.384.581,2.18,2.18,0,0,1,.65,1.481v1.446a2.076,2.076,0,0,1-.616,1.5,2.152,2.152,0,0,1-1.522.692,29.889,29.889,0,0,0-4.889.4,8.912,8.912,0,0,0-5.192,3.459,9.687,9.687,0,0,0-2.186,6.047,6.179,6.179,0,0,0,2.5,5.265,14.53,14.53,0,0,0,6.8,2.442,1.674,1.674,0,0,1,1.232.761,1.6,1.6,0,0,1,.291.906,1.473,1.473,0,0,1-.111.54l-.692,2.138a2.816,2.816,0,0,1-1.086,1.384,2.366,2.366,0,0,1-1.3.394,2.318,2.318,0,0,1-.436,0,20.923,20.923,0,0,1-6.587-2.186,13.008,13.008,0,0,1-4.691-4.29,10.967,10.967,0,0,1-1.792-6.158,13.838,13.838,0,0,1,1.342-6.1,14.827,14.827,0,0,1,3.114-4.435v-.111a.045.045,0,0,0-.076-.035Q116.389,22.211,111.753,23.076Zm20.169,3.785a1.674,1.674,0,0,1-.221-.8,1.335,1.335,0,0,1,.076-.429,1.28,1.28,0,0,1,.8-.906,1.93,1.93,0,0,1,.8-.18,2.131,2.131,0,0,1,.65.1,1.91,1.91,0,0,1,1.121.872c.387.63.761,1.266,1.121,1.917a1.647,1.647,0,0,1,.187.761,2.393,2.393,0,0,1-.076.581,1.64,1.64,0,0,1-.941.976,1.944,1.944,0,0,1-.727.145,1.979,1.979,0,0,1-.65-.111,1.917,1.917,0,0,1-1.045-.941,22.143,22.143,0,0,0-1.086-1.986Zm4.269-1.7a1.522,1.522,0,0,1-.256-.837,1.274,1.274,0,0,1,.076-.394,1.384,1.384,0,0,1,.8-.941,1.91,1.91,0,0,1,.83-.18,2.38,2.38,0,0,1,.581.069,2.076,2.076,0,0,1,1.155.83c.415.609.8,1.211,1.162,1.813a1.681,1.681,0,0,1,.249.83,1.861,1.861,0,0,1-.069.512,1.64,1.64,0,0,1-.872,1.01,1.826,1.826,0,0,1-.8.18,1.674,1.674,0,0,1-.616-.111,1.751,1.751,0,0,1-1.086-.9c-.367-.637-.754-1.259-1.162-1.861Z" transform="translate(-40.591 -11.639)" fill="#231815"/>
    <path id="Path_10631" data-name="Path 10631" d="M186.563,39.931h2.864a1.017,1.017,0,0,0,.92-.415,4.532,4.532,0,0,0,.415-1.716,1.245,1.245,0,0,1,.692-1.052,1.329,1.329,0,0,1,.692-.221,1.46,1.46,0,0,1,.616.145c.291.125.588.242.906.367a2.7,2.7,0,0,1,1.384,1.121,2.339,2.339,0,0,1,.36,1.232,3.085,3.085,0,0,1,0,.436,6.71,6.71,0,0,1-1.723,3.888,5.481,5.481,0,0,1-3.709,1.066h-4.234q-3.549,0-4.76-1.322t-1.211-4.843V32.389c0-.166-.1-.256-.291-.256h-3.328c-.194,0-.291.09-.291.256a24.118,24.118,0,0,1-.581,3.238,14.142,14.142,0,0,1-1.1,2.775,9.935,9.935,0,0,1-1.806,2.518A13.776,13.776,0,0,1,169.57,43a21.726,21.726,0,0,1-4.034,1.75,2.276,2.276,0,0,1-.692.111,2.442,2.442,0,0,1-.982-.214,2.941,2.941,0,0,1-1.3-1.232c-.263-.436-.547-.858-.83-1.266a1.384,1.384,0,0,1-.291-.8,1.107,1.107,0,0,1,.1-.47,1.232,1.232,0,0,1,.906-.865,18.6,18.6,0,0,0,3.6-1.384,6.545,6.545,0,0,0,2.207-1.792,7.348,7.348,0,0,0,1.121-2.027,14,14,0,0,0,.56-2.477c0-.166-.062-.256-.249-.256h-6.013a2.159,2.159,0,0,1-2.138-2.131v-.761a2.159,2.159,0,0,1,2.138-2.131h29.143a2.159,2.159,0,0,1,2.138,2.131v.8a2.159,2.159,0,0,1-2.138,2.131h-7.348a.228.228,0,0,0-.249.256v6.151a1.834,1.834,0,0,0,.235,1.176A1.674,1.674,0,0,0,186.563,39.931ZM167.882,18.482c-.194,0-.291.083-.291.256v1.917a2.076,2.076,0,0,1-.616,1.5,2.034,2.034,0,0,1-1.522.637h-1.19a2.138,2.138,0,0,1-2.138-2.138V15.569a2.076,2.076,0,0,1,2.138-2.138h10.711c.173,0,.256-.1.256-.291v-.9a2.02,2.02,0,0,1,.63-1.515,2.076,2.076,0,0,1,1.508-.616h1.515a2.076,2.076,0,0,1,1.5.616,2.027,2.027,0,0,1,.637,1.515v.906c0,.194.083.291.256.291h10.89a2.076,2.076,0,0,1,2.179,2.131v5.1a2.138,2.138,0,0,1-2.138,2.138h-1.481a2.034,2.034,0,0,1-1.522-.637,2.076,2.076,0,0,1-.616-1.5v-1.91c0-.173-.1-.256-.291-.256Zm19.581,4.636a2.076,2.076,0,0,1-.63,1.522,2.11,2.11,0,0,1-1.481.616H170.891a2.076,2.076,0,0,1-2.145-2.117v-.581a2.126,2.126,0,0,1,2.138-2.131h14.468a2.152,2.152,0,0,1,2.138,2.131Z" transform="translate(-56.658 -10.033)" fill="#231815"/>
    <path id="Path_10632" data-name="Path 10632" d="M249,17.313a2.076,2.076,0,0,1-.616,1.5,2.034,2.034,0,0,1-1.522.63H241.5c-.194,0-.291.09-.291.256v2.678a.256.256,0,0,0,.291.291h4.49a2.076,2.076,0,0,1,1.5.616,2.034,2.034,0,0,1,.63,1.522v.574a2.15,2.15,0,0,1-2.131,2.138H229.56a.208.208,0,0,0-.166.069.159.159,0,0,0,0,.166.99.99,0,0,0,.069.2,1.937,1.937,0,0,1,.145.692,2.02,2.02,0,0,1-.256.983,2.525,2.525,0,0,1-1.266,1.232l-.54.249a1.384,1.384,0,0,1-1.917-.941.235.235,0,0,0-.291-.18l-.983.076c-.194,0-.291.09-.291.284v2.346a.18.18,0,0,0,.09.166.152.152,0,0,0,.159,0l1.017-.325a2.636,2.636,0,0,1,.727-.1,2.325,2.325,0,0,1,.976.215,2.076,2.076,0,0,1,1.121,1.231c.36.989.692,1.951.976,2.892a1.985,1.985,0,0,1,.111.657,2.076,2.076,0,0,1-.256,1.01,2.214,2.214,0,0,1-1.3,1.121l-.111.076a2.131,2.131,0,0,1-.65.1,1.854,1.854,0,0,1-1.847-1.446c-.242-.941-.54-1.951-.9-3.037a.1.1,0,0,0-.076-.042v7.86a2.076,2.076,0,0,1-2.138,2.131h-.471a2.076,2.076,0,0,1-1.5-.616,2.02,2.02,0,0,1-.63-1.515V33.995h-.042a34.49,34.49,0,0,1-1.266,6.628,1.536,1.536,0,0,1-1.01,1.086,1.854,1.854,0,0,1-.692.145,1.91,1.91,0,0,1-.865-.221.388.388,0,0,1-.18-.1,2.269,2.269,0,0,1-1.162-1.162,2.525,2.525,0,0,1-.214-1.01,2.075,2.075,0,0,1,.1-.65,30.38,30.38,0,0,0,.8-4.421,2.131,2.131,0,0,1,.754-1.384,1.944,1.944,0,0,1,1.162-.394,2.11,2.11,0,0,1,.36,0l1.993.36c.166,0,.256-.048.256-.214v-1.9a.228.228,0,0,0-.256-.256l-2.823.214h-.18a2.145,2.145,0,0,1-1.384-.505,2.076,2.076,0,0,1-.761-1.481v-.581a1.827,1.827,0,0,1,.505-1.3,1.861,1.861,0,0,1,1.384-.692h.54a.54.54,0,0,0,.436-.214s.353-.464.976-1.308a.353.353,0,0,0,0-.429,25.083,25.083,0,0,0-2.6-3.224,2.664,2.664,0,0,1-.692-1.626.954.954,0,0,1,0-.256,2.657,2.657,0,0,1,.436-1.446l.83-1.232a.733.733,0,0,1,.526-.346.692.692,0,0,1,.6.2c.076.048.125.035.145-.035q.948-2.076,1.7-4.089a2.076,2.076,0,0,1,1.086-1.232,1.73,1.73,0,0,1,.906-.256,1.847,1.847,0,0,1,.692.145l.692.214a1.889,1.889,0,0,1,1.038,1.052,1.612,1.612,0,0,1,.145.657,1.751,1.751,0,0,1-.256.865q-1.993,3.722-3.079,5.466A.325.325,0,0,0,220,19.5l.214.291c.1.118.166.2.214.249a.221.221,0,0,0,.332,0c.747-1.28,1.418-2.47,2.027-3.584a2.262,2.262,0,0,1,1.225-1.121,2.636,2.636,0,0,1,.837-.145,2.3,2.3,0,0,1,.865.18l.547.221a1.626,1.626,0,0,1,1.01,1.121,1.3,1.3,0,0,1,.111.54,1.647,1.647,0,0,1-.325.941q-1.993,2.968-3.619,5.141v.111c0,.028.055,0,.1,0l1.232-.54a2.152,2.152,0,0,1,.941-.221,2.207,2.207,0,0,1,.761.145,2.076,2.076,0,0,1,1.232,1.086c.554,1.114,1.038,2.193,1.446,3.259h.055c.055,0,.055,0,.055-.055V24.806a2.076,2.076,0,0,1,2.138-2.138h4.02a.256.256,0,0,0,.291-.291V19.686c0-.166-.1-.256-.291-.256H230.4a2.02,2.02,0,0,1-1.515-.63,2.076,2.076,0,0,1-.616-1.5v-.616a2.076,2.076,0,0,1,.616-1.5,2.027,2.027,0,0,1,1.515-.637h5.03q.291,0,.291-.249V12.138A2.138,2.138,0,0,1,237.856,10h1.2a2.027,2.027,0,0,1,1.515.637,2.076,2.076,0,0,1,.616,1.5V14.31q0,.249.291.249h5.355a2.138,2.138,0,0,1,2.138,2.138Zm-27.406,8.4a.125.125,0,0,0,0,.138.076.076,0,0,0,.111.042l2.02-.076a.171.171,0,0,0,.131-.249,14.526,14.526,0,0,0-.692-1.522.187.187,0,0,0-.125-.09.173.173,0,0,0-.166.055A20.936,20.936,0,0,1,221.589,25.713Zm10.932,19.47a2.076,2.076,0,0,1-1.5-.616,2.034,2.034,0,0,1-.637-1.522V32.3a2.138,2.138,0,0,1,2.138-2.138h12.738A2.076,2.076,0,0,1,247.4,32.3V43.045a2.076,2.076,0,0,1-2.138,2.138h-1.806a1.211,1.211,0,0,1-.872-.36,1.183,1.183,0,0,1-.36-.872c0-.118-.048-.18-.145-.18H235.5a.159.159,0,0,0-.18.18,1.19,1.19,0,0,1-.367.872,1.211,1.211,0,0,1-.865.36Zm9.687-9.991q0-.249-.291-.249h-6.338c-.194,0-.284.083-.284.249v3.549c0,.166.09.256.284.256h6.338c.194,0,.291-.09.291-.256Z" transform="translate(-72.831 -9.999)" fill="#231815"/>
    <path id="Path_10633" data-name="Path 10633" d="M294.043,42.778a4.843,4.843,0,0,1-6.269,0,3.771,3.771,0,0,1-1.245-2.913,3.861,3.861,0,0,1,1.245-2.92,4.767,4.767,0,0,1,6.269,0,3.861,3.861,0,0,1,1.245,2.92,3.771,3.771,0,0,1-1.245,2.913Zm-3.28-9.14a2.359,2.359,0,0,1-1.626-.616,2.318,2.318,0,0,1-.8-1.522l-1.232-9.59-.145-4.02a1.965,1.965,0,0,1,.56-1.5,1.924,1.924,0,0,1,1.467-.63h3.868a1.923,1.923,0,0,1,1.467.63,2.11,2.11,0,0,1,.6,1.5l-.187,4.02-1.225,9.59a2.36,2.36,0,0,1-.8,1.522,2.311,2.311,0,0,1-1.591.616Z" transform="translate(-95.199 -11.774)" fill="#231815"/>
    <path id="Path_10634" data-name="Path 10634" d="M12.138,43.558a2.034,2.034,0,0,1-1.522-.637A2.076,2.076,0,0,1,10,41.42V40.369a2.1,2.1,0,0,1,2.138-2.152H15.6a.256.256,0,0,0,.284-.291V22.815a.256.256,0,0,0-.284-.291H12.829a1.986,1.986,0,0,1-1.446-.6,1.951,1.951,0,0,1-.6-1.432,2.422,2.422,0,0,1,.56-1.557,2.622,2.622,0,0,1,1.418-.865,19.089,19.089,0,0,0,2.968-1.052,9.687,9.687,0,0,1,4-1.024h.581a2.173,2.173,0,0,1,2.138,2.11V37.947q0,.291.249.291h2.574a2.076,2.076,0,0,1,2.131,2.131V41.42a2.076,2.076,0,0,1-.616,1.5,2.027,2.027,0,0,1-1.515.637Z" transform="translate(-9.999 -11.848)" fill="none" stroke="#fff" stroke-miterlimit="10" stroke-width="20"/>
    <path id="Path_10635" data-name="Path 10635" d="M73.874,14.626a1.764,1.764,0,0,1-.249-.9,2.076,2.076,0,0,1,.1-.65,1.882,1.882,0,0,1,1.086-1.128l1.384-.54a2.768,2.768,0,0,1,.872-.145,2.622,2.622,0,0,1,.83.145A2.38,2.38,0,0,1,79.2,12.5a45.8,45.8,0,0,0,8.3,9.88,1.792,1.792,0,0,1,.616,1.384,1.923,1.923,0,0,1-.581,1.384c-.6.581-1.183,1.183-1.737,1.813a1.806,1.806,0,0,1-1.342.692h-.152a1.681,1.681,0,0,1-1.232-.505q-.076-.076-.125-.042a.131.131,0,0,0-.055.111q-.291,7.9-.692,11.368t-1.266,4.594a4.947,4.947,0,0,1-1.612,1.384,7.424,7.424,0,0,1-2.117.65,19.829,19.829,0,0,1-3.37.221,2.3,2.3,0,0,1-1.557-.616,2.941,2.941,0,0,1-.9-1.522c-.145-.484-.318-.962-.512-1.446a1.812,1.812,0,0,1-.069-.505,1.384,1.384,0,0,1,.214-.692,1.155,1.155,0,0,1,1.017-.54h0c.872.048,1.667.069,2.387.069a1.944,1.944,0,0,0,1.584-.54,6.089,6.089,0,0,0,.775-2.927c.18-1.591.346-4.082.491-7.459A.228.228,0,0,0,77.015,29H71.48a.284.284,0,0,0-.325.256A29.751,29.751,0,0,1,70.463,33,19.677,19.677,0,0,1,69.2,36.49a15.076,15.076,0,0,1-2.007,3.259A17.428,17.428,0,0,1,64.2,42.593,21.732,21.732,0,0,1,60.05,45.07a2.408,2.408,0,0,1-.906.18,2.235,2.235,0,0,1-.761-.145,2.768,2.768,0,0,1-1.335-1.086c-.339-.554-.692-1.072-1.052-1.557a1.481,1.481,0,0,1-.325-.9,2.408,2.408,0,0,1,0-.4,1.384,1.384,0,0,1,.872-1.01,19.56,19.56,0,0,0,3.909-2.193A10.544,10.544,0,0,0,63.018,35.3a13.928,13.928,0,0,0,1.446-2.864,15.914,15.914,0,0,0,.761-3.183c0-.166-.048-.256-.214-.256h-3.19a1.986,1.986,0,0,1-1.481-.65,2.076,2.076,0,0,1-.616-1.5s0-.048-.076-.076-.083,0-.1,0c-.291.27-.554.519-.8.761a2.076,2.076,0,0,1-1.384.547H57.22a2.553,2.553,0,0,1-1.557-.692c-.484-.484-.989-.962-1.522-1.446a1.612,1.612,0,0,1-.581-1.266,1.688,1.688,0,0,1,.692-1.384,30.658,30.658,0,0,0,4.67-4.781,30.928,30.928,0,0,0,3.653-5.86,2.56,2.56,0,0,1,1.2-1.232,2.256,2.256,0,0,1,1.01-.256,2.525,2.525,0,0,1,.692.111l1.737.505a1.882,1.882,0,0,1,1.183,1.045,1.771,1.771,0,0,1,.18.761,1.46,1.46,0,0,1-.214.761A44.233,44.233,0,0,1,62.472,23.5a.18.18,0,0,0,0,.145.125.125,0,0,0,.111.076h17.3a.152.152,0,0,0,.145-.076.125.125,0,0,0-.042-.145,70.72,70.72,0,0,1-6.109-8.877Z" transform="translate(-23.42 -10.357)" fill="none" stroke="#fff" stroke-miterlimit="10" stroke-width="20"/>
    <path id="Path_10636" data-name="Path 10636" d="M111.753,23.076a2.076,2.076,0,0,1-.4,0,1.785,1.785,0,0,1-1.121-.394,1.827,1.827,0,0,1-.761-1.384l-.18-1.771v-.221A1.924,1.924,0,0,1,109.8,18a1.965,1.965,0,0,1,1.453-.692,11.254,11.254,0,0,0,1.626-.111l6.1-.505q5.639-.477,9.61-.837c2.463-.187,5.314-.374,8.545-.54h.111a1.923,1.923,0,0,1,1.384.581,2.18,2.18,0,0,1,.65,1.481v1.446a2.076,2.076,0,0,1-.616,1.5,2.152,2.152,0,0,1-1.522.692,29.889,29.889,0,0,0-4.889.4,8.912,8.912,0,0,0-5.192,3.459,9.687,9.687,0,0,0-2.186,6.047,6.179,6.179,0,0,0,2.5,5.265,14.53,14.53,0,0,0,6.8,2.442,1.674,1.674,0,0,1,1.232.761,1.6,1.6,0,0,1,.291.906,1.473,1.473,0,0,1-.111.54l-.692,2.138a2.816,2.816,0,0,1-1.086,1.384,2.366,2.366,0,0,1-1.3.394,2.318,2.318,0,0,1-.436,0,20.923,20.923,0,0,1-6.587-2.186,13.008,13.008,0,0,1-4.691-4.29,10.967,10.967,0,0,1-1.792-6.158,13.838,13.838,0,0,1,1.342-6.1,14.827,14.827,0,0,1,3.114-4.435v-.111a.045.045,0,0,0-.076-.035Q116.389,22.211,111.753,23.076Zm20.169,3.785a1.674,1.674,0,0,1-.221-.8,1.335,1.335,0,0,1,.076-.429,1.28,1.28,0,0,1,.8-.906,1.93,1.93,0,0,1,.8-.18,2.131,2.131,0,0,1,.65.1,1.91,1.91,0,0,1,1.121.872c.387.63.761,1.266,1.121,1.917a1.647,1.647,0,0,1,.187.761,2.393,2.393,0,0,1-.076.581,1.64,1.64,0,0,1-.941.976,1.944,1.944,0,0,1-.727.145,1.979,1.979,0,0,1-.65-.111,1.917,1.917,0,0,1-1.045-.941,22.143,22.143,0,0,0-1.086-1.986Zm4.269-1.7a1.522,1.522,0,0,1-.256-.837,1.274,1.274,0,0,1,.076-.394,1.384,1.384,0,0,1,.8-.941,1.91,1.91,0,0,1,.83-.18,2.38,2.38,0,0,1,.581.069,2.076,2.076,0,0,1,1.155.83c.415.609.8,1.211,1.162,1.813a1.681,1.681,0,0,1,.249.83,1.861,1.861,0,0,1-.069.512,1.64,1.64,0,0,1-.872,1.01,1.826,1.826,0,0,1-.8.18,1.674,1.674,0,0,1-.616-.111,1.751,1.751,0,0,1-1.086-.9c-.367-.637-.754-1.259-1.162-1.861Z" transform="translate(-40.591 -11.639)" fill="none" stroke="#fff" stroke-miterlimit="10" stroke-width="20"/>
    <path id="Path_10637" data-name="Path 10637" d="M186.563,39.931h2.864a1.017,1.017,0,0,0,.92-.415,4.532,4.532,0,0,0,.415-1.716,1.245,1.245,0,0,1,.692-1.052,1.329,1.329,0,0,1,.692-.221,1.46,1.46,0,0,1,.616.145c.291.125.588.242.906.367a2.7,2.7,0,0,1,1.384,1.121,2.339,2.339,0,0,1,.36,1.232,3.085,3.085,0,0,1,0,.436,6.71,6.71,0,0,1-1.723,3.888,5.481,5.481,0,0,1-3.709,1.066h-4.234q-3.549,0-4.76-1.322t-1.211-4.843V32.389c0-.166-.1-.256-.291-.256h-3.328c-.194,0-.291.09-.291.256a24.118,24.118,0,0,1-.581,3.238,14.142,14.142,0,0,1-1.1,2.775,9.935,9.935,0,0,1-1.806,2.518A13.776,13.776,0,0,1,169.57,43a21.726,21.726,0,0,1-4.034,1.75,2.276,2.276,0,0,1-.692.111,2.442,2.442,0,0,1-.982-.214,2.941,2.941,0,0,1-1.3-1.232c-.263-.436-.547-.858-.83-1.266a1.384,1.384,0,0,1-.291-.8,1.107,1.107,0,0,1,.1-.47,1.232,1.232,0,0,1,.906-.865,18.6,18.6,0,0,0,3.6-1.384,6.545,6.545,0,0,0,2.207-1.792,7.348,7.348,0,0,0,1.121-2.027,14,14,0,0,0,.56-2.477c0-.166-.062-.256-.249-.256h-6.013a2.159,2.159,0,0,1-2.138-2.131v-.761a2.159,2.159,0,0,1,2.138-2.131h29.143a2.159,2.159,0,0,1,2.138,2.131v.8a2.159,2.159,0,0,1-2.138,2.131h-7.348a.228.228,0,0,0-.249.256v6.151a1.834,1.834,0,0,0,.235,1.176A1.674,1.674,0,0,0,186.563,39.931ZM167.882,18.482c-.194,0-.291.083-.291.256v1.917a2.076,2.076,0,0,1-.616,1.5,2.034,2.034,0,0,1-1.522.637h-1.19a2.138,2.138,0,0,1-2.138-2.138V15.569a2.076,2.076,0,0,1,2.138-2.138h10.711c.173,0,.256-.1.256-.291v-.9a2.02,2.02,0,0,1,.63-1.515,2.076,2.076,0,0,1,1.508-.616h1.515a2.076,2.076,0,0,1,1.5.616,2.027,2.027,0,0,1,.637,1.515v.906c0,.194.083.291.256.291h10.89a2.076,2.076,0,0,1,2.179,2.131v5.1a2.138,2.138,0,0,1-2.138,2.138h-1.481a2.034,2.034,0,0,1-1.522-.637,2.076,2.076,0,0,1-.616-1.5v-1.91c0-.173-.1-.256-.291-.256Zm19.581,4.636a2.076,2.076,0,0,1-.63,1.522,2.11,2.11,0,0,1-1.481.616H170.891a2.076,2.076,0,0,1-2.145-2.117v-.581a2.126,2.126,0,0,1,2.138-2.131h14.468a2.152,2.152,0,0,1,2.138,2.131Z" transform="translate(-56.658 -10.033)" fill="none" stroke="#fff" stroke-miterlimit="10" stroke-width="20"/>
    <path id="Path_10638" data-name="Path 10638" d="M249,17.313a2.076,2.076,0,0,1-.616,1.5,2.034,2.034,0,0,1-1.522.63H241.5c-.194,0-.291.09-.291.256v2.678a.256.256,0,0,0,.291.291h4.49a2.076,2.076,0,0,1,1.5.616,2.034,2.034,0,0,1,.63,1.522v.574a2.15,2.15,0,0,1-2.131,2.138H229.56a.208.208,0,0,0-.166.069.159.159,0,0,0,0,.166.99.99,0,0,0,.069.2,1.937,1.937,0,0,1,.145.692,2.02,2.02,0,0,1-.256.983,2.525,2.525,0,0,1-1.266,1.232l-.54.249a1.384,1.384,0,0,1-1.917-.941.235.235,0,0,0-.291-.18l-.983.076c-.194,0-.291.09-.291.284v2.346a.18.18,0,0,0,.09.166.152.152,0,0,0,.159,0l1.017-.325a2.636,2.636,0,0,1,.727-.1,2.325,2.325,0,0,1,.976.215,2.076,2.076,0,0,1,1.121,1.231c.36.989.692,1.951.976,2.892a1.985,1.985,0,0,1,.111.657,2.076,2.076,0,0,1-.256,1.01,2.214,2.214,0,0,1-1.3,1.121l-.111.076a2.131,2.131,0,0,1-.65.1,1.854,1.854,0,0,1-1.847-1.446c-.242-.941-.54-1.951-.9-3.037a.1.1,0,0,0-.076-.042v7.86a2.076,2.076,0,0,1-2.138,2.131h-.471a2.076,2.076,0,0,1-1.5-.616,2.02,2.02,0,0,1-.63-1.515V33.995h-.042a34.49,34.49,0,0,1-1.266,6.628,1.536,1.536,0,0,1-1.01,1.086,1.854,1.854,0,0,1-.692.145,1.91,1.91,0,0,1-.865-.221.388.388,0,0,1-.18-.1,2.269,2.269,0,0,1-1.162-1.162,2.525,2.525,0,0,1-.214-1.01,2.075,2.075,0,0,1,.1-.65,30.38,30.38,0,0,0,.8-4.421,2.131,2.131,0,0,1,.754-1.384,1.944,1.944,0,0,1,1.162-.394,2.11,2.11,0,0,1,.36,0l1.993.36c.166,0,.256-.048.256-.214v-1.9a.228.228,0,0,0-.256-.256l-2.823.214h-.18a2.145,2.145,0,0,1-1.384-.505,2.076,2.076,0,0,1-.761-1.481v-.581a1.827,1.827,0,0,1,.505-1.3,1.861,1.861,0,0,1,1.384-.692h.54a.54.54,0,0,0,.436-.214s.353-.464.976-1.308a.353.353,0,0,0,0-.429,25.083,25.083,0,0,0-2.6-3.224,2.664,2.664,0,0,1-.692-1.626.954.954,0,0,1,0-.256,2.657,2.657,0,0,1,.436-1.446l.83-1.232a.733.733,0,0,1,.526-.346.692.692,0,0,1,.6.2c.076.048.125.035.145-.035q.948-2.076,1.7-4.089a2.076,2.076,0,0,1,1.086-1.232,1.73,1.73,0,0,1,.906-.256,1.847,1.847,0,0,1,.692.145l.692.214a1.889,1.889,0,0,1,1.038,1.052,1.612,1.612,0,0,1,.145.657,1.751,1.751,0,0,1-.256.865q-1.993,3.722-3.079,5.466A.325.325,0,0,0,220,19.5l.214.291c.1.118.166.2.214.249a.221.221,0,0,0,.332,0c.747-1.28,1.418-2.47,2.027-3.584a2.262,2.262,0,0,1,1.225-1.121,2.636,2.636,0,0,1,.837-.145,2.3,2.3,0,0,1,.865.18l.547.221a1.626,1.626,0,0,1,1.01,1.121,1.3,1.3,0,0,1,.111.54,1.647,1.647,0,0,1-.325.941q-1.993,2.968-3.619,5.141v.111c0,.028.055,0,.1,0l1.232-.54a2.152,2.152,0,0,1,.941-.221,2.207,2.207,0,0,1,.761.145,2.076,2.076,0,0,1,1.232,1.086c.554,1.114,1.038,2.193,1.446,3.259h.055c.055,0,.055,0,.055-.055V24.806a2.076,2.076,0,0,1,2.138-2.138h4.02a.256.256,0,0,0,.291-.291V19.686c0-.166-.1-.256-.291-.256H230.4a2.02,2.02,0,0,1-1.515-.63,2.076,2.076,0,0,1-.616-1.5v-.616a2.076,2.076,0,0,1,.616-1.5,2.027,2.027,0,0,1,1.515-.637h5.03q.291,0,.291-.249V12.138A2.138,2.138,0,0,1,237.856,10h1.2a2.027,2.027,0,0,1,1.515.637,2.076,2.076,0,0,1,.616,1.5V14.31q0,.249.291.249h5.355a2.138,2.138,0,0,1,2.138,2.138Zm-27.406,8.4a.125.125,0,0,0,0,.138.076.076,0,0,0,.111.042l2.02-.076a.171.171,0,0,0,.131-.249,14.526,14.526,0,0,0-.692-1.522.187.187,0,0,0-.125-.09.173.173,0,0,0-.166.055A20.936,20.936,0,0,1,221.589,25.713Zm10.932,19.47a2.076,2.076,0,0,1-1.5-.616,2.034,2.034,0,0,1-.637-1.522V32.3a2.138,2.138,0,0,1,2.138-2.138h12.738A2.076,2.076,0,0,1,247.4,32.3V43.045a2.076,2.076,0,0,1-2.138,2.138h-1.806a1.211,1.211,0,0,1-.872-.36,1.183,1.183,0,0,1-.36-.872c0-.118-.048-.18-.145-.18H235.5a.159.159,0,0,0-.18.18,1.19,1.19,0,0,1-.367.872,1.211,1.211,0,0,1-.865.36Zm9.687-9.991q0-.249-.291-.249h-6.338c-.194,0-.284.083-.284.249v3.549c0,.166.09.256.284.256h6.338c.194,0,.291-.09.291-.256Z" transform="translate(-72.831 -9.999)" fill="none" stroke="#fff" stroke-miterlimit="10" stroke-width="20"/>
    <path id="Path_10639" data-name="Path 10639" d="M294.043,42.778a4.843,4.843,0,0,1-6.269,0,3.771,3.771,0,0,1-1.245-2.913,3.861,3.861,0,0,1,1.245-2.92,4.767,4.767,0,0,1,6.269,0,3.861,3.861,0,0,1,1.245,2.92,3.771,3.771,0,0,1-1.245,2.913Zm-3.28-9.14a2.359,2.359,0,0,1-1.626-.616,2.318,2.318,0,0,1-.8-1.522l-1.232-9.59-.145-4.02a1.965,1.965,0,0,1,.56-1.5,1.924,1.924,0,0,1,1.467-.63h3.868a1.923,1.923,0,0,1,1.467.63,2.11,2.11,0,0,1,.6,1.5l-.187,4.02-1.225,9.59a2.36,2.36,0,0,1-.8,1.522,2.311,2.311,0,0,1-1.591.616Z" transform="translate(-95.199 -11.774)" fill="none" stroke="#fff" stroke-miterlimit="10" stroke-width="20"/>
    <path id="Path_10640" data-name="Path 10640" d="M12.138,43.558a2.034,2.034,0,0,1-1.522-.637A2.076,2.076,0,0,1,10,41.42V40.369a2.1,2.1,0,0,1,2.138-2.152H15.6a.256.256,0,0,0,.284-.291V22.815a.256.256,0,0,0-.284-.291H12.829a1.986,1.986,0,0,1-1.446-.6,1.951,1.951,0,0,1-.6-1.432,2.422,2.422,0,0,1,.56-1.557,2.622,2.622,0,0,1,1.418-.865,19.089,19.089,0,0,0,2.968-1.052,9.687,9.687,0,0,1,4-1.024h.581a2.173,2.173,0,0,1,2.138,2.11V37.947q0,.291.249.291h2.574a2.076,2.076,0,0,1,2.131,2.131V41.42a2.076,2.076,0,0,1-.616,1.5,2.027,2.027,0,0,1-1.515.637Z" transform="translate(-9.999 -11.848)" fill="none" stroke="#034baf" stroke-miterlimit="10" stroke-width="10"/>
    <path id="Path_10641" data-name="Path 10641" d="M73.874,14.626a1.764,1.764,0,0,1-.249-.9,2.076,2.076,0,0,1,.1-.65,1.882,1.882,0,0,1,1.086-1.128l1.384-.54a2.768,2.768,0,0,1,.872-.145,2.622,2.622,0,0,1,.83.145A2.38,2.38,0,0,1,79.2,12.5a45.8,45.8,0,0,0,8.3,9.88,1.792,1.792,0,0,1,.616,1.384,1.923,1.923,0,0,1-.581,1.384c-.6.581-1.183,1.183-1.737,1.813a1.806,1.806,0,0,1-1.342.692h-.152a1.681,1.681,0,0,1-1.232-.505q-.076-.076-.125-.042a.131.131,0,0,0-.055.111q-.291,7.9-.692,11.368t-1.266,4.594a4.947,4.947,0,0,1-1.612,1.384,7.424,7.424,0,0,1-2.117.65,19.829,19.829,0,0,1-3.37.221,2.3,2.3,0,0,1-1.557-.616,2.941,2.941,0,0,1-.9-1.522c-.145-.484-.318-.962-.512-1.446a1.812,1.812,0,0,1-.069-.505,1.384,1.384,0,0,1,.214-.692,1.155,1.155,0,0,1,1.017-.54h0c.872.048,1.667.069,2.387.069a1.944,1.944,0,0,0,1.584-.54,6.089,6.089,0,0,0,.775-2.927c.18-1.591.346-4.082.491-7.459A.228.228,0,0,0,77.015,29H71.48a.284.284,0,0,0-.325.256A29.751,29.751,0,0,1,70.463,33,19.677,19.677,0,0,1,69.2,36.49a15.076,15.076,0,0,1-2.007,3.259A17.428,17.428,0,0,1,64.2,42.593,21.732,21.732,0,0,1,60.05,45.07a2.408,2.408,0,0,1-.906.18,2.235,2.235,0,0,1-.761-.145,2.768,2.768,0,0,1-1.335-1.086c-.339-.554-.692-1.072-1.052-1.557a1.481,1.481,0,0,1-.325-.9,2.408,2.408,0,0,1,0-.4,1.384,1.384,0,0,1,.872-1.01,19.56,19.56,0,0,0,3.909-2.193A10.544,10.544,0,0,0,63.018,35.3a13.928,13.928,0,0,0,1.446-2.864,15.914,15.914,0,0,0,.761-3.183c0-.166-.048-.256-.214-.256h-3.19a1.986,1.986,0,0,1-1.481-.65,2.076,2.076,0,0,1-.616-1.5s0-.048-.076-.076-.083,0-.1,0c-.291.27-.554.519-.8.761a2.076,2.076,0,0,1-1.384.547H57.22a2.553,2.553,0,0,1-1.557-.692c-.484-.484-.989-.962-1.522-1.446a1.612,1.612,0,0,1-.581-1.266,1.688,1.688,0,0,1,.692-1.384,30.658,30.658,0,0,0,4.67-4.781,30.928,30.928,0,0,0,3.653-5.86,2.56,2.56,0,0,1,1.2-1.232,2.256,2.256,0,0,1,1.01-.256,2.525,2.525,0,0,1,.692.111l1.737.505a1.882,1.882,0,0,1,1.183,1.045,1.771,1.771,0,0,1,.18.761,1.46,1.46,0,0,1-.214.761A44.233,44.233,0,0,1,62.472,23.5a.18.18,0,0,0,0,.145.125.125,0,0,0,.111.076h17.3a.152.152,0,0,0,.145-.076.125.125,0,0,0-.042-.145,70.72,70.72,0,0,1-6.109-8.877Z" transform="translate(-23.42 -10.357)" fill="none" stroke="#034baf" stroke-miterlimit="10" stroke-width="10"/>
    <path id="Path_10642" data-name="Path 10642" d="M111.753,23.076a2.076,2.076,0,0,1-.4,0,1.785,1.785,0,0,1-1.121-.394,1.827,1.827,0,0,1-.761-1.384l-.18-1.771v-.221A1.924,1.924,0,0,1,109.8,18a1.965,1.965,0,0,1,1.453-.692,11.254,11.254,0,0,0,1.626-.111l6.1-.505q5.639-.477,9.61-.837c2.463-.187,5.314-.374,8.545-.54h.111a1.923,1.923,0,0,1,1.384.581,2.18,2.18,0,0,1,.65,1.481v1.446a2.076,2.076,0,0,1-.616,1.5,2.152,2.152,0,0,1-1.522.692,29.889,29.889,0,0,0-4.889.4,8.912,8.912,0,0,0-5.192,3.459,9.687,9.687,0,0,0-2.186,6.047,6.179,6.179,0,0,0,2.5,5.265,14.53,14.53,0,0,0,6.8,2.442,1.674,1.674,0,0,1,1.232.761,1.6,1.6,0,0,1,.291.906,1.473,1.473,0,0,1-.111.54l-.692,2.138a2.816,2.816,0,0,1-1.086,1.384,2.366,2.366,0,0,1-1.3.394,2.318,2.318,0,0,1-.436,0,20.923,20.923,0,0,1-6.587-2.186,13.008,13.008,0,0,1-4.691-4.29,10.967,10.967,0,0,1-1.792-6.158,13.838,13.838,0,0,1,1.342-6.1,14.827,14.827,0,0,1,3.114-4.435v-.111a.045.045,0,0,0-.076-.035Q116.389,22.211,111.753,23.076Zm20.169,3.785a1.674,1.674,0,0,1-.221-.8,1.335,1.335,0,0,1,.076-.429,1.28,1.28,0,0,1,.8-.906,1.93,1.93,0,0,1,.8-.18,2.131,2.131,0,0,1,.65.1,1.91,1.91,0,0,1,1.121.872c.387.63.761,1.266,1.121,1.917a1.647,1.647,0,0,1,.187.761,2.393,2.393,0,0,1-.076.581,1.64,1.64,0,0,1-.941.976,1.944,1.944,0,0,1-.727.145,1.979,1.979,0,0,1-.65-.111,1.917,1.917,0,0,1-1.045-.941,22.143,22.143,0,0,0-1.086-1.986Zm4.269-1.7a1.522,1.522,0,0,1-.256-.837,1.274,1.274,0,0,1,.076-.394,1.384,1.384,0,0,1,.8-.941,1.91,1.91,0,0,1,.83-.18,2.38,2.38,0,0,1,.581.069,2.076,2.076,0,0,1,1.155.83c.415.609.8,1.211,1.162,1.813a1.681,1.681,0,0,1,.249.83,1.861,1.861,0,0,1-.069.512,1.64,1.64,0,0,1-.872,1.01,1.826,1.826,0,0,1-.8.18,1.674,1.674,0,0,1-.616-.111,1.751,1.751,0,0,1-1.086-.9c-.367-.637-.754-1.259-1.162-1.861Z" transform="translate(-40.591 -11.639)" fill="none" stroke="#034baf" stroke-miterlimit="10" stroke-width="10"/>
    <path id="Path_10643" data-name="Path 10643" d="M186.563,39.931h2.864a1.017,1.017,0,0,0,.92-.415,4.532,4.532,0,0,0,.415-1.716,1.245,1.245,0,0,1,.692-1.052,1.329,1.329,0,0,1,.692-.221,1.46,1.46,0,0,1,.616.145c.291.125.588.242.906.367a2.7,2.7,0,0,1,1.384,1.121,2.339,2.339,0,0,1,.36,1.232,3.085,3.085,0,0,1,0,.436,6.71,6.71,0,0,1-1.723,3.888,5.481,5.481,0,0,1-3.709,1.066h-4.234q-3.549,0-4.76-1.322t-1.211-4.843V32.389c0-.166-.1-.256-.291-.256h-3.328c-.194,0-.291.09-.291.256a24.118,24.118,0,0,1-.581,3.238,14.142,14.142,0,0,1-1.1,2.775,9.935,9.935,0,0,1-1.806,2.518A13.776,13.776,0,0,1,169.57,43a21.726,21.726,0,0,1-4.034,1.75,2.276,2.276,0,0,1-.692.111,2.442,2.442,0,0,1-.982-.214,2.941,2.941,0,0,1-1.3-1.232c-.263-.436-.547-.858-.83-1.266a1.384,1.384,0,0,1-.291-.8,1.107,1.107,0,0,1,.1-.47,1.232,1.232,0,0,1,.906-.865,18.6,18.6,0,0,0,3.6-1.384,6.545,6.545,0,0,0,2.207-1.792,7.348,7.348,0,0,0,1.121-2.027,14,14,0,0,0,.56-2.477c0-.166-.062-.256-.249-.256h-6.013a2.159,2.159,0,0,1-2.138-2.131v-.761a2.159,2.159,0,0,1,2.138-2.131h29.143a2.159,2.159,0,0,1,2.138,2.131v.8a2.159,2.159,0,0,1-2.138,2.131h-7.348a.228.228,0,0,0-.249.256v6.151a1.834,1.834,0,0,0,.235,1.176A1.674,1.674,0,0,0,186.563,39.931ZM167.882,18.482c-.194,0-.291.083-.291.256v1.917a2.076,2.076,0,0,1-.616,1.5,2.034,2.034,0,0,1-1.522.637h-1.19a2.138,2.138,0,0,1-2.138-2.138V15.569a2.076,2.076,0,0,1,2.138-2.138h10.711c.173,0,.256-.1.256-.291v-.9a2.02,2.02,0,0,1,.63-1.515,2.076,2.076,0,0,1,1.508-.616h1.515a2.076,2.076,0,0,1,1.5.616,2.027,2.027,0,0,1,.637,1.515v.906c0,.194.083.291.256.291h10.89a2.076,2.076,0,0,1,2.179,2.131v5.1a2.138,2.138,0,0,1-2.138,2.138h-1.481a2.034,2.034,0,0,1-1.522-.637,2.076,2.076,0,0,1-.616-1.5v-1.91c0-.173-.1-.256-.291-.256Zm19.581,4.636a2.076,2.076,0,0,1-.63,1.522,2.11,2.11,0,0,1-1.481.616H170.891a2.076,2.076,0,0,1-2.145-2.117v-.581a2.126,2.126,0,0,1,2.138-2.131h14.468a2.152,2.152,0,0,1,2.138,2.131Z" transform="translate(-56.658 -10.033)" fill="none" stroke="#034baf" stroke-miterlimit="10" stroke-width="10"/>
    <path id="Path_10644" data-name="Path 10644" d="M249,17.313a2.076,2.076,0,0,1-.616,1.5,2.034,2.034,0,0,1-1.522.63H241.5c-.194,0-.291.09-.291.256v2.678a.256.256,0,0,0,.291.291h4.49a2.076,2.076,0,0,1,1.5.616,2.034,2.034,0,0,1,.63,1.522v.574a2.15,2.15,0,0,1-2.131,2.138H229.56a.208.208,0,0,0-.166.069.159.159,0,0,0,0,.166.99.99,0,0,0,.069.2,1.937,1.937,0,0,1,.145.692,2.02,2.02,0,0,1-.256.983,2.525,2.525,0,0,1-1.266,1.232l-.54.249a1.384,1.384,0,0,1-1.917-.941.235.235,0,0,0-.291-.18l-.983.076c-.194,0-.291.09-.291.284v2.346a.18.18,0,0,0,.09.166.152.152,0,0,0,.159,0l1.017-.325a2.636,2.636,0,0,1,.727-.1,2.325,2.325,0,0,1,.976.215,2.076,2.076,0,0,1,1.121,1.231c.36.989.692,1.951.976,2.892a1.985,1.985,0,0,1,.111.657,2.076,2.076,0,0,1-.256,1.01,2.214,2.214,0,0,1-1.3,1.121l-.111.076a2.131,2.131,0,0,1-.65.1,1.854,1.854,0,0,1-1.847-1.446c-.242-.941-.54-1.951-.9-3.037a.1.1,0,0,0-.076-.042v7.86a2.076,2.076,0,0,1-2.138,2.131h-.471a2.076,2.076,0,0,1-1.5-.616,2.02,2.02,0,0,1-.63-1.515V33.995h-.042a34.49,34.49,0,0,1-1.266,6.628,1.536,1.536,0,0,1-1.01,1.086,1.854,1.854,0,0,1-.692.145,1.91,1.91,0,0,1-.865-.221.388.388,0,0,1-.18-.1,2.269,2.269,0,0,1-1.162-1.162,2.525,2.525,0,0,1-.214-1.01,2.075,2.075,0,0,1,.1-.65,30.38,30.38,0,0,0,.8-4.421,2.131,2.131,0,0,1,.754-1.384,1.944,1.944,0,0,1,1.162-.394,2.11,2.11,0,0,1,.36,0l1.993.36c.166,0,.256-.048.256-.214v-1.9a.228.228,0,0,0-.256-.256l-2.823.214h-.18a2.145,2.145,0,0,1-1.384-.505,2.076,2.076,0,0,1-.761-1.481v-.581a1.827,1.827,0,0,1,.505-1.3,1.861,1.861,0,0,1,1.384-.692h.54a.54.54,0,0,0,.436-.214s.353-.464.976-1.308a.353.353,0,0,0,0-.429,25.083,25.083,0,0,0-2.6-3.224,2.664,2.664,0,0,1-.692-1.626.954.954,0,0,1,0-.256,2.657,2.657,0,0,1,.436-1.446l.83-1.232a.733.733,0,0,1,.526-.346.692.692,0,0,1,.6.2c.076.048.125.035.145-.035q.948-2.076,1.7-4.089a2.076,2.076,0,0,1,1.086-1.232,1.73,1.73,0,0,1,.906-.256,1.847,1.847,0,0,1,.692.145l.692.214a1.889,1.889,0,0,1,1.038,1.052,1.612,1.612,0,0,1,.145.657,1.751,1.751,0,0,1-.256.865q-1.993,3.722-3.079,5.466A.325.325,0,0,0,220,19.5l.214.291c.1.118.166.2.214.249a.221.221,0,0,0,.332,0c.747-1.28,1.418-2.47,2.027-3.584a2.262,2.262,0,0,1,1.225-1.121,2.636,2.636,0,0,1,.837-.145,2.3,2.3,0,0,1,.865.18l.547.221a1.626,1.626,0,0,1,1.01,1.121,1.3,1.3,0,0,1,.111.54,1.647,1.647,0,0,1-.325.941q-1.993,2.968-3.619,5.141v.111c0,.028.055,0,.1,0l1.232-.54a2.152,2.152,0,0,1,.941-.221,2.207,2.207,0,0,1,.761.145,2.076,2.076,0,0,1,1.232,1.086c.554,1.114,1.038,2.193,1.446,3.259h.055c.055,0,.055,0,.055-.055V24.806a2.076,2.076,0,0,1,2.138-2.138h4.02a.256.256,0,0,0,.291-.291V19.686c0-.166-.1-.256-.291-.256H230.4a2.02,2.02,0,0,1-1.515-.63,2.076,2.076,0,0,1-.616-1.5v-.616a2.076,2.076,0,0,1,.616-1.5,2.027,2.027,0,0,1,1.515-.637h5.03q.291,0,.291-.249V12.138A2.138,2.138,0,0,1,237.856,10h1.2a2.027,2.027,0,0,1,1.515.637,2.076,2.076,0,0,1,.616,1.5V14.31q0,.249.291.249h5.355a2.138,2.138,0,0,1,2.138,2.138Zm-27.406,8.4a.125.125,0,0,0,0,.138.076.076,0,0,0,.111.042l2.02-.076a.171.171,0,0,0,.131-.249,14.526,14.526,0,0,0-.692-1.522.187.187,0,0,0-.125-.09.173.173,0,0,0-.166.055A20.936,20.936,0,0,1,221.589,25.713Zm10.932,19.47a2.076,2.076,0,0,1-1.5-.616,2.034,2.034,0,0,1-.637-1.522V32.3a2.138,2.138,0,0,1,2.138-2.138h12.738A2.076,2.076,0,0,1,247.4,32.3V43.045a2.076,2.076,0,0,1-2.138,2.138h-1.806a1.211,1.211,0,0,1-.872-.36,1.183,1.183,0,0,1-.36-.872c0-.118-.048-.18-.145-.18H235.5a.159.159,0,0,0-.18.18,1.19,1.19,0,0,1-.367.872,1.211,1.211,0,0,1-.865.36Zm9.687-9.991q0-.249-.291-.249h-6.338c-.194,0-.284.083-.284.249v3.549c0,.166.09.256.284.256h6.338c.194,0,.291-.09.291-.256Z" transform="translate(-72.831 -9.999)" fill="none" stroke="#034baf" stroke-miterlimit="10" stroke-width="10"/>
    <path id="Path_10645" data-name="Path 10645" d="M294.043,42.778a4.843,4.843,0,0,1-6.269,0,3.771,3.771,0,0,1-1.245-2.913,3.861,3.861,0,0,1,1.245-2.92,4.767,4.767,0,0,1,6.269,0,3.861,3.861,0,0,1,1.245,2.92,3.771,3.771,0,0,1-1.245,2.913Zm-3.28-9.14a2.359,2.359,0,0,1-1.626-.616,2.318,2.318,0,0,1-.8-1.522l-1.232-9.59-.145-4.02a1.965,1.965,0,0,1,.56-1.5,1.924,1.924,0,0,1,1.467-.63h3.868a1.923,1.923,0,0,1,1.467.63,2.11,2.11,0,0,1,.6,1.5l-.187,4.02-1.225,9.59a2.36,2.36,0,0,1-.8,1.522,2.311,2.311,0,0,1-1.591.616Z" transform="translate(-95.199 -11.774)" fill="none" stroke="#034baf" stroke-miterlimit="10" stroke-width="10"/>
    <path id="Path_10646" data-name="Path 10646" d="M12.138,43.558a2.034,2.034,0,0,1-1.522-.637A2.076,2.076,0,0,1,10,41.42V40.369a2.1,2.1,0,0,1,2.138-2.152H15.6a.256.256,0,0,0,.284-.291V22.815a.256.256,0,0,0-.284-.291H12.829a1.986,1.986,0,0,1-1.446-.6,1.951,1.951,0,0,1-.6-1.432,2.422,2.422,0,0,1,.56-1.557,2.622,2.622,0,0,1,1.418-.865,19.089,19.089,0,0,0,2.968-1.052,9.687,9.687,0,0,1,4-1.024h.581a2.173,2.173,0,0,1,2.138,2.11V37.947q0,.291.249.291h2.574a2.076,2.076,0,0,1,2.131,2.131V41.42a2.076,2.076,0,0,1-.616,1.5,2.027,2.027,0,0,1-1.515.637Z" transform="translate(-9.999 -11.848)" fill="#efea3a"/>
    <path id="Path_10647" data-name="Path 10647" d="M73.874,14.626a1.764,1.764,0,0,1-.249-.9,2.076,2.076,0,0,1,.1-.65,1.882,1.882,0,0,1,1.086-1.128l1.384-.54a2.768,2.768,0,0,1,.872-.145,2.622,2.622,0,0,1,.83.145A2.38,2.38,0,0,1,79.2,12.5a45.8,45.8,0,0,0,8.3,9.88,1.792,1.792,0,0,1,.616,1.384,1.923,1.923,0,0,1-.581,1.384c-.6.581-1.183,1.183-1.737,1.813a1.806,1.806,0,0,1-1.342.692h-.152a1.681,1.681,0,0,1-1.232-.505q-.076-.076-.125-.042a.131.131,0,0,0-.055.111q-.291,7.9-.692,11.368t-1.266,4.594a4.947,4.947,0,0,1-1.612,1.384,7.424,7.424,0,0,1-2.117.65,19.829,19.829,0,0,1-3.37.221,2.3,2.3,0,0,1-1.557-.616,2.941,2.941,0,0,1-.9-1.522c-.145-.484-.318-.962-.512-1.446a1.812,1.812,0,0,1-.069-.505,1.384,1.384,0,0,1,.214-.692,1.155,1.155,0,0,1,1.017-.54h0c.872.048,1.667.069,2.387.069a1.944,1.944,0,0,0,1.584-.54,6.089,6.089,0,0,0,.775-2.927c.18-1.591.346-4.082.491-7.459A.228.228,0,0,0,77.015,29H71.48a.284.284,0,0,0-.325.256A29.751,29.751,0,0,1,70.463,33,19.677,19.677,0,0,1,69.2,36.49a15.076,15.076,0,0,1-2.007,3.259A17.428,17.428,0,0,1,64.2,42.593,21.732,21.732,0,0,1,60.05,45.07a2.408,2.408,0,0,1-.906.18,2.235,2.235,0,0,1-.761-.145,2.768,2.768,0,0,1-1.335-1.086c-.339-.554-.692-1.072-1.052-1.557a1.481,1.481,0,0,1-.325-.9,2.408,2.408,0,0,1,0-.4,1.384,1.384,0,0,1,.872-1.01,19.56,19.56,0,0,0,3.909-2.193A10.544,10.544,0,0,0,63.018,35.3a13.928,13.928,0,0,0,1.446-2.864,15.914,15.914,0,0,0,.761-3.183c0-.166-.048-.256-.214-.256h-3.19a1.986,1.986,0,0,1-1.481-.65,2.076,2.076,0,0,1-.616-1.5s0-.048-.076-.076-.083,0-.1,0c-.291.27-.554.519-.8.761a2.076,2.076,0,0,1-1.384.547H57.22a2.553,2.553,0,0,1-1.557-.692c-.484-.484-.989-.962-1.522-1.446a1.612,1.612,0,0,1-.581-1.266,1.688,1.688,0,0,1,.692-1.384,30.658,30.658,0,0,0,4.67-4.781,30.928,30.928,0,0,0,3.653-5.86,2.56,2.56,0,0,1,1.2-1.232,2.256,2.256,0,0,1,1.01-.256,2.525,2.525,0,0,1,.692.111l1.737.505a1.882,1.882,0,0,1,1.183,1.045,1.771,1.771,0,0,1,.18.761,1.46,1.46,0,0,1-.214.761A44.233,44.233,0,0,1,62.472,23.5a.18.18,0,0,0,0,.145.125.125,0,0,0,.111.076h17.3a.152.152,0,0,0,.145-.076.125.125,0,0,0-.042-.145,70.72,70.72,0,0,1-6.109-8.877Z" transform="translate(-23.42 -10.357)" fill="#efea3a"/>
    <path id="Path_10648" data-name="Path 10648" d="M111.753,23.076a2.076,2.076,0,0,1-.4,0,1.785,1.785,0,0,1-1.121-.394,1.827,1.827,0,0,1-.761-1.384l-.18-1.771v-.221A1.924,1.924,0,0,1,109.8,18a1.965,1.965,0,0,1,1.453-.692,11.254,11.254,0,0,0,1.626-.111l6.1-.505q5.639-.477,9.61-.837c2.463-.187,5.314-.374,8.545-.54h.111a1.923,1.923,0,0,1,1.384.581,2.18,2.18,0,0,1,.65,1.481v1.446a2.076,2.076,0,0,1-.616,1.5,2.152,2.152,0,0,1-1.522.692,29.889,29.889,0,0,0-4.889.4,8.912,8.912,0,0,0-5.192,3.459,9.687,9.687,0,0,0-2.186,6.047,6.179,6.179,0,0,0,2.5,5.265,14.53,14.53,0,0,0,6.8,2.442,1.674,1.674,0,0,1,1.232.761,1.6,1.6,0,0,1,.291.906,1.473,1.473,0,0,1-.111.54l-.692,2.138a2.816,2.816,0,0,1-1.086,1.384,2.366,2.366,0,0,1-1.3.394,2.318,2.318,0,0,1-.436,0,20.923,20.923,0,0,1-6.587-2.186,13.008,13.008,0,0,1-4.691-4.29,10.967,10.967,0,0,1-1.792-6.158,13.838,13.838,0,0,1,1.342-6.1,14.827,14.827,0,0,1,3.114-4.435v-.111a.045.045,0,0,0-.076-.035Q116.389,22.211,111.753,23.076Zm20.169,3.785a1.674,1.674,0,0,1-.221-.8,1.335,1.335,0,0,1,.076-.429,1.28,1.28,0,0,1,.8-.906,1.93,1.93,0,0,1,.8-.18,2.131,2.131,0,0,1,.65.1,1.91,1.91,0,0,1,1.121.872c.387.63.761,1.266,1.121,1.917a1.647,1.647,0,0,1,.187.761,2.393,2.393,0,0,1-.076.581,1.64,1.64,0,0,1-.941.976,1.944,1.944,0,0,1-.727.145,1.979,1.979,0,0,1-.65-.111,1.917,1.917,0,0,1-1.045-.941,22.143,22.143,0,0,0-1.086-1.986Zm4.269-1.7a1.522,1.522,0,0,1-.256-.837,1.274,1.274,0,0,1,.076-.394,1.384,1.384,0,0,1,.8-.941,1.91,1.91,0,0,1,.83-.18,2.38,2.38,0,0,1,.581.069,2.076,2.076,0,0,1,1.155.83c.415.609.8,1.211,1.162,1.813a1.681,1.681,0,0,1,.249.83,1.861,1.861,0,0,1-.069.512,1.64,1.64,0,0,1-.872,1.01,1.826,1.826,0,0,1-.8.18,1.674,1.674,0,0,1-.616-.111,1.751,1.751,0,0,1-1.086-.9c-.367-.637-.754-1.259-1.162-1.861Z" transform="translate(-40.591 -11.639)" fill="#efea3a"/>
    <path id="Path_10649" data-name="Path 10649" d="M186.563,39.931h2.864a1.017,1.017,0,0,0,.92-.415,4.532,4.532,0,0,0,.415-1.716,1.245,1.245,0,0,1,.692-1.052,1.329,1.329,0,0,1,.692-.221,1.46,1.46,0,0,1,.616.145c.291.125.588.242.906.367a2.7,2.7,0,0,1,1.384,1.121,2.339,2.339,0,0,1,.36,1.232,3.085,3.085,0,0,1,0,.436,6.71,6.71,0,0,1-1.723,3.888,5.481,5.481,0,0,1-3.709,1.066h-4.234q-3.549,0-4.76-1.322t-1.211-4.843V32.389c0-.166-.1-.256-.291-.256h-3.328c-.194,0-.291.09-.291.256a24.118,24.118,0,0,1-.581,3.238,14.142,14.142,0,0,1-1.1,2.775,9.935,9.935,0,0,1-1.806,2.518A13.776,13.776,0,0,1,169.57,43a21.726,21.726,0,0,1-4.034,1.75,2.276,2.276,0,0,1-.692.111,2.442,2.442,0,0,1-.982-.214,2.941,2.941,0,0,1-1.3-1.232c-.263-.436-.547-.858-.83-1.266a1.384,1.384,0,0,1-.291-.8,1.107,1.107,0,0,1,.1-.47,1.232,1.232,0,0,1,.906-.865,18.6,18.6,0,0,0,3.6-1.384,6.545,6.545,0,0,0,2.207-1.792,7.348,7.348,0,0,0,1.121-2.027,14,14,0,0,0,.56-2.477c0-.166-.062-.256-.249-.256h-6.013a2.159,2.159,0,0,1-2.138-2.131v-.761a2.159,2.159,0,0,1,2.138-2.131h29.143a2.159,2.159,0,0,1,2.138,2.131v.8a2.159,2.159,0,0,1-2.138,2.131h-7.348a.228.228,0,0,0-.249.256v6.151a1.834,1.834,0,0,0,.235,1.176A1.674,1.674,0,0,0,186.563,39.931ZM167.882,18.482c-.194,0-.291.083-.291.256v1.917a2.076,2.076,0,0,1-.616,1.5,2.034,2.034,0,0,1-1.522.637h-1.19a2.138,2.138,0,0,1-2.138-2.138V15.569a2.076,2.076,0,0,1,2.138-2.138h10.711c.173,0,.256-.1.256-.291v-.9a2.02,2.02,0,0,1,.63-1.515,2.076,2.076,0,0,1,1.508-.616h1.515a2.076,2.076,0,0,1,1.5.616,2.027,2.027,0,0,1,.637,1.515v.906c0,.194.083.291.256.291h10.89a2.076,2.076,0,0,1,2.179,2.131v5.1a2.138,2.138,0,0,1-2.138,2.138h-1.481a2.034,2.034,0,0,1-1.522-.637,2.076,2.076,0,0,1-.616-1.5v-1.91c0-.173-.1-.256-.291-.256Zm19.581,4.636a2.076,2.076,0,0,1-.63,1.522,2.11,2.11,0,0,1-1.481.616H170.891a2.076,2.076,0,0,1-2.145-2.117v-.581a2.126,2.126,0,0,1,2.138-2.131h14.468a2.152,2.152,0,0,1,2.138,2.131Z" transform="translate(-56.658 -10.033)" fill="#efea3a"/>
    <path id="Path_10650" data-name="Path 10650" d="M249,17.313a2.076,2.076,0,0,1-.616,1.5,2.034,2.034,0,0,1-1.522.63H241.5c-.194,0-.291.09-.291.256v2.678a.256.256,0,0,0,.291.291h4.49a2.076,2.076,0,0,1,1.5.616,2.034,2.034,0,0,1,.63,1.522v.574a2.15,2.15,0,0,1-2.131,2.138H229.56a.208.208,0,0,0-.166.069.159.159,0,0,0,0,.166.99.99,0,0,0,.069.2,1.937,1.937,0,0,1,.145.692,2.02,2.02,0,0,1-.256.983,2.525,2.525,0,0,1-1.266,1.232l-.54.249a1.384,1.384,0,0,1-1.917-.941.235.235,0,0,0-.291-.18l-.983.076c-.194,0-.291.09-.291.284v2.346a.18.18,0,0,0,.09.166.152.152,0,0,0,.159,0l1.017-.325a2.636,2.636,0,0,1,.727-.1,2.325,2.325,0,0,1,.976.215,2.076,2.076,0,0,1,1.121,1.231c.36.989.692,1.951.976,2.892a1.985,1.985,0,0,1,.111.657,2.076,2.076,0,0,1-.256,1.01,2.214,2.214,0,0,1-1.3,1.121l-.111.076a2.131,2.131,0,0,1-.65.1,1.854,1.854,0,0,1-1.847-1.446c-.242-.941-.54-1.951-.9-3.037a.1.1,0,0,0-.076-.042v7.86a2.076,2.076,0,0,1-2.138,2.131h-.471a2.076,2.076,0,0,1-1.5-.616,2.02,2.02,0,0,1-.63-1.515V33.995h-.042a34.49,34.49,0,0,1-1.266,6.628,1.536,1.536,0,0,1-1.01,1.086,1.854,1.854,0,0,1-.692.145,1.91,1.91,0,0,1-.865-.221.388.388,0,0,1-.18-.1,2.269,2.269,0,0,1-1.162-1.162,2.525,2.525,0,0,1-.214-1.01,2.075,2.075,0,0,1,.1-.65,30.38,30.38,0,0,0,.8-4.421,2.131,2.131,0,0,1,.754-1.384,1.944,1.944,0,0,1,1.162-.394,2.11,2.11,0,0,1,.36,0l1.993.36c.166,0,.256-.048.256-.214v-1.9a.228.228,0,0,0-.256-.256l-2.823.214h-.18a2.145,2.145,0,0,1-1.384-.505,2.076,2.076,0,0,1-.761-1.481v-.581a1.827,1.827,0,0,1,.505-1.3,1.861,1.861,0,0,1,1.384-.692h.54a.54.54,0,0,0,.436-.214s.353-.464.976-1.308a.353.353,0,0,0,0-.429,25.083,25.083,0,0,0-2.6-3.224,2.664,2.664,0,0,1-.692-1.626.954.954,0,0,1,0-.256,2.657,2.657,0,0,1,.436-1.446l.83-1.232a.733.733,0,0,1,.526-.346.692.692,0,0,1,.6.2c.076.048.125.035.145-.035q.948-2.076,1.7-4.089a2.076,2.076,0,0,1,1.086-1.232,1.73,1.73,0,0,1,.906-.256,1.847,1.847,0,0,1,.692.145l.692.214a1.889,1.889,0,0,1,1.038,1.052,1.612,1.612,0,0,1,.145.657,1.751,1.751,0,0,1-.256.865q-1.993,3.722-3.079,5.466A.325.325,0,0,0,220,19.5l.214.291c.1.118.166.2.214.249a.221.221,0,0,0,.332,0c.747-1.28,1.418-2.47,2.027-3.584a2.262,2.262,0,0,1,1.225-1.121,2.636,2.636,0,0,1,.837-.145,2.3,2.3,0,0,1,.865.18l.547.221a1.626,1.626,0,0,1,1.01,1.121,1.3,1.3,0,0,1,.111.54,1.647,1.647,0,0,1-.325.941q-1.993,2.968-3.619,5.141v.111c0,.028.055,0,.1,0l1.232-.54a2.152,2.152,0,0,1,.941-.221,2.207,2.207,0,0,1,.761.145,2.076,2.076,0,0,1,1.232,1.086c.554,1.114,1.038,2.193,1.446,3.259h.055c.055,0,.055,0,.055-.055V24.806a2.076,2.076,0,0,1,2.138-2.138h4.02a.256.256,0,0,0,.291-.291V19.686c0-.166-.1-.256-.291-.256H230.4a2.02,2.02,0,0,1-1.515-.63,2.076,2.076,0,0,1-.616-1.5v-.616a2.076,2.076,0,0,1,.616-1.5,2.027,2.027,0,0,1,1.515-.637h5.03q.291,0,.291-.249V12.138A2.138,2.138,0,0,1,237.856,10h1.2a2.027,2.027,0,0,1,1.515.637,2.076,2.076,0,0,1,.616,1.5V14.31q0,.249.291.249h5.355a2.138,2.138,0,0,1,2.138,2.138Zm-27.406,8.4a.125.125,0,0,0,0,.138.076.076,0,0,0,.111.042l2.02-.076a.171.171,0,0,0,.131-.249,14.526,14.526,0,0,0-.692-1.522.187.187,0,0,0-.125-.09.173.173,0,0,0-.166.055A20.936,20.936,0,0,1,221.589,25.713Zm10.932,19.47a2.076,2.076,0,0,1-1.5-.616,2.034,2.034,0,0,1-.637-1.522V32.3a2.138,2.138,0,0,1,2.138-2.138h12.738A2.076,2.076,0,0,1,247.4,32.3V43.045a2.076,2.076,0,0,1-2.138,2.138h-1.806a1.211,1.211,0,0,1-.872-.36,1.183,1.183,0,0,1-.36-.872c0-.118-.048-.18-.145-.18H235.5a.159.159,0,0,0-.18.18,1.19,1.19,0,0,1-.367.872,1.211,1.211,0,0,1-.865.36Zm9.687-9.991q0-.249-.291-.249h-6.338c-.194,0-.284.083-.284.249v3.549c0,.166.09.256.284.256h6.338c.194,0,.291-.09.291-.256Z" transform="translate(-72.831 -9.999)" fill="#efea3a"/>
    <path id="Path_10651" data-name="Path 10651" d="M294.043,42.778a4.843,4.843,0,0,1-6.269,0,3.771,3.771,0,0,1-1.245-2.913,3.861,3.861,0,0,1,1.245-2.92,4.767,4.767,0,0,1,6.269,0,3.861,3.861,0,0,1,1.245,2.92,3.771,3.771,0,0,1-1.245,2.913Zm-3.28-9.14a2.359,2.359,0,0,1-1.626-.616,2.318,2.318,0,0,1-.8-1.522l-1.232-9.59-.145-4.02a1.965,1.965,0,0,1,.56-1.5,1.924,1.924,0,0,1,1.467-.63h3.868a1.923,1.923,0,0,1,1.467.63,2.11,2.11,0,0,1,.6,1.5l-.187,4.02-1.225,9.59a2.36,2.36,0,0,1-.8,1.522,2.311,2.311,0,0,1-1.591.616Z" transform="translate(-95.199 -11.774)" fill="#efea3a"/>
  </g>
</svg>
