<svg xmlns="http://www.w3.org/2000/svg" width="340.711" height="103.674" viewBox="0 0 340.711 103.674">
  <g id="Group_3073" data-name="Group 3073" transform="translate(-512.644 -934.916)">
    <g id="レイヤー_2" data-name="レイヤー 2" transform="translate(519.519 979.602)">
      <g id="レイヤー_1" data-name="レイヤー 1">
        <path id="Path_11024" data-name="Path 11024" d="M18.49,49a15.94,15.94,0,0,1-10-3,2.35,2.35,0,0,1-1-1.87.8.8,0,0,1,0-.23A3.1,3.1,0,0,1,8.14,42l.68-.869a2.29,2.29,0,0,1,1.69-1h.37a2.7,2.7,0,0,1,1.59.5,9.34,9.34,0,0,0,5.16,1.69,6.63,6.63,0,0,0,3.9-1A3.39,3.39,0,0,0,23,38.34a4,4,0,0,0-1.32-3.24q-1.36-1.1-4.92-1.42a2.9,2.9,0,0,1-1.89-.89,2.59,2.59,0,0,1-.8-1.93V30.4a2.55,2.55,0,0,1,.8-1.89,3.11,3.11,0,0,1,1.89-.94,7.06,7.06,0,0,0,3.92-1.48,3.87,3.87,0,0,0,1.19-2.94,3.64,3.64,0,0,0-1-2.74,4.14,4.14,0,0,0-3-1,7.51,7.51,0,0,0-4.06,1.28,3.09,3.09,0,0,1-1.69.5h-.36a2.66,2.66,0,0,1-1.78-1l-.78-.91a2.52,2.52,0,0,1-.64-1.69v-.32a2.28,2.28,0,0,1,1.05-1.68A15.54,15.54,0,0,1,18.31,13q5.48,0,8.69,2.49a8.42,8.42,0,0,1,3.22,7.09q0,5.34-5.52,7.62a.17.17,0,0,0-.09.16.16.16,0,0,0,.09.16,9.86,9.86,0,0,1,4.81,3.06,8,8,0,0,1,1.8,5.33,8.82,8.82,0,0,1-1.78,5.5,10.52,10.52,0,0,1-4.65,3.49A17.22,17.22,0,0,1,18.49,49Z" fill="#231815"/>
        <path id="Path_11025" data-name="Path 11025" d="M53.39,28.89a2.56,2.56,0,0,1-1,.23,2.28,2.28,0,0,1-1-.23,2.49,2.49,0,0,1-1.42-1.41l-1.14-2.87a2.06,2.06,0,0,1-.18-.82,2.16,2.16,0,0,1,.27-1.05,2.4,2.4,0,0,1,1.56-1.19c1.15-.27,2.28-.56,3.37-.87l1.76-.57c1-.32,1.81-.57,2.48-.75s1.59-.45,2.76-.8,2.25-.63,3.22-.84l3.19-.66q1.74-.35,3.36-.51,1.6-.15,3-.15A19.21,19.21,0,0,1,81.49,18a12.68,12.68,0,0,1,5.59,4.81,13.85,13.85,0,0,1,2.07,7.62q0,7.35-6.29,12.27T65,48.65a1,1,0,0,1-.32,0,3.64,3.64,0,0,1-1.92-.55,3.83,3.83,0,0,1-1.5-1.77l-1.1-2.56a1.61,1.61,0,0,1-.18-.73,1.89,1.89,0,0,1,.27-1,1.85,1.85,0,0,1,1.51-.86A43.63,43.63,0,0,0,71.8,39.64a16.67,16.67,0,0,0,6.77-3.7,7.59,7.59,0,0,0,2.51-5.68,6.85,6.85,0,0,0-2-5.15,8,8,0,0,0-5.82-2Q66.7,23.15,53.39,28.89Z" fill="#231815"/>
        <path id="Path_11026" data-name="Path 11026" d="M120.72,50.15a3,3,0,0,1-.87.14,3.37,3.37,0,0,1-1.41-.32,4.21,4.21,0,0,1-1.82-1.51l-1.33-2.14a1.54,1.54,0,0,1-.27-.87,2.21,2.21,0,0,1,.14-.77,1.81,1.81,0,0,1,1.32-1c.55-.12,1.17-.27,1.87-.45a13.29,13.29,0,0,0,7.18-4.13,11.05,11.05,0,0,0,2.63-7.5,13,13,0,0,0-2-7.42,9.84,9.84,0,0,0-5.82-4c-.24-.06-.38,0-.41.28a101.69,101.69,0,0,1-2.65,11.72,36.16,36.16,0,0,1-5.31,11.36c-2.08,2.73-4.45,4.1-7.09,4.1q-4.25,0-7.17-4.1a16.91,16.91,0,0,1-2.91-10,18.72,18.72,0,0,1,1.68-7.78A20.82,20.82,0,0,1,101,19.25a21.76,21.76,0,0,1,7-4.41,23,23,0,0,1,8.64-1.64,21.43,21.43,0,0,1,7.94,1.44,17.19,17.19,0,0,1,6.09,3.94,18.1,18.1,0,0,1,3.81,5.91,19.6,19.6,0,0,1,1.37,7.37,18.05,18.05,0,0,1-3.81,11.65Q128.25,48.28,120.72,50.15ZM110,30.72a64.81,64.81,0,0,0,2.32-10.13v-.2a.23.23,0,0,0-.23,0,13.48,13.48,0,0,0-5.5,3.11,13.94,13.94,0,0,0-3.4,4.6,11.8,11.8,0,0,0-1,4.7,9.62,9.62,0,0,0,.87,4.5,2.51,2.51,0,0,0,2.14,1.61c.89,0,1.71-.66,2.47-2A32.129,32.129,0,0,0,110,30.72Z" fill="#231815"/>
        <path id="Path_11027" data-name="Path 11027" d="M147.68,31.18a2.86,2.86,0,0,1,1.64-1.33,2.51,2.51,0,0,1,.92-.18,2.81,2.81,0,0,1,1.18.27l1.55.73a2.53,2.53,0,0,1,1.33,1.51,2.44,2.44,0,0,1,.13.77,2.37,2.37,0,0,1-.36,1.24,82,82,0,0,1-5.93,8.71,2.73,2.73,0,0,1-1.87,1.1,2.17,2.17,0,0,1-.41,0,2.9,2.9,0,0,1-1.69-.54l-1.69-1.14a2.32,2.32,0,0,1-1-1.65v-.22a2.34,2.34,0,0,1,.6-1.6,46.17,46.17,0,0,0,5.6-7.67Zm28.69-5.71h-9.71a.32.32,0,0,0-.37.37V46.69a4.54,4.54,0,0,1-1.37,3.48,5.59,5.59,0,0,1-4,1.3q-3.06,0-5.43-.18a3.08,3.08,0,0,1-2-.91,3.33,3.33,0,0,1-.95-2l-.14-1.64a.52.52,0,0,1,0-.23,1.88,1.88,0,0,1,.67-1.43,2.18,2.18,0,0,1,1.52-.62h.23c.91.09,1.72.14,2.42.14a1.78,1.78,0,0,0,1.25-.34,1.91,1.91,0,0,0,.39-1.26q0-1.27.05-17.15c0-.25-.11-.37-.32-.37h-10.9c-.7,0-1.4,0-2.1.05h-.09a2.58,2.58,0,0,1-1.83-.73,2.4,2.4,0,0,1-.77-1.83V21a2.48,2.48,0,0,1,2.46-2.47.8.8,0,0,1,.23.05q1.23.09,2.1.09h10.9c.21,0,.32-.12.32-.36V15.48a14.133,14.133,0,0,0-.09-1.82v-.23a2.45,2.45,0,0,1,.63-1.64,2.22,2.22,0,0,1,1.74-.78h3a2.22,2.22,0,0,1,1.74.78,2.37,2.37,0,0,1,.59,1.59v.28c-.09.82-.14,1.44-.14,1.87v2.74a.32.32,0,0,0,.37.36h10.49a5.35,5.35,0,0,1-3.35-1.89,5.41,5.41,0,0,1-1.35-3.62,5.57,5.57,0,1,1,11.13,0,5.36,5.36,0,0,1-1.18,3.44,5.52,5.52,0,0,1-3.06,1.94h.18a1.77,1.77,0,0,1,1.23.46,1.72,1.72,0,0,1,.64,1.37V23a2.35,2.35,0,0,1-.82,1.83,2.41,2.41,0,0,1-1.78.73h-.09c-.9-.07-1.68-.09-2.44-.09Zm-5.24,8.67a2.44,2.44,0,0,1-.41-1.37A2.58,2.58,0,0,1,172,30.63l1.41-.78a3.28,3.28,0,0,1,1.46-.36,4.881,4.881,0,0,1,.68,0,3.18,3.18,0,0,1,1.83,1.19q2.46,3.56,5,7.85a2.56,2.56,0,0,1,.36,1.27,2.06,2.06,0,0,1-.14.73,2.45,2.45,0,0,1-1.27,1.64l-1.92,1a2.48,2.48,0,0,1-1.23.32,2.54,2.54,0,0,1-.78-.13,2.67,2.67,0,0,1-1.59-1.28q-2.41-4.47-4.68-7.94Zm5.27-22.69a2.288,2.288,0,1,0,3.24,0,2.31,2.31,0,0,0-3.24,0Z" fill="#231815"/>
        <path id="Path_11028" data-name="Path 11028" d="M215.7,25.2a.58.58,0,0,0-.32.55V44l.13,4.29a2.52,2.52,0,0,1-.63,1.69,2.19,2.19,0,0,1-1.69.77h-3.61A2.29,2.29,0,0,1,207.8,50a2.49,2.49,0,0,1-.68-1.74l.14-4.24V30.31a.18.18,0,0,0-.09-.18.3.3,0,0,0-.23,0,85.58,85.58,0,0,1-12.36,5,3,3,0,0,1-1,.18,3.19,3.19,0,0,1-1.23-.27,3.68,3.68,0,0,1-1.73-1.46l-1.28-2.24a2,2,0,0,1-.27-1,2.06,2.06,0,0,1,.18-.82,1.8,1.8,0,0,1,1.37-1.14,65,65,0,0,0,18.79-7.8A50.89,50.89,0,0,0,219.89,12a2.71,2.71,0,0,1,1.83-.92H222a2.48,2.48,0,0,1,1.64.64l2.1,1.87a2.42,2.42,0,0,1,.82,1.87,2.34,2.34,0,0,1-.78,1.78A79.509,79.509,0,0,1,215.7,25.2Z" fill="#231815"/>
        <path id="Path_11029" data-name="Path 11029" d="M244.57,50.11a3.809,3.809,0,0,1-.82.09,3.71,3.71,0,0,1-1.5-.32,4.28,4.28,0,0,1-1.78-1.51l-1.92-3a1.8,1.8,0,0,1-.27-.91,1.61,1.61,0,0,1,.18-.73,1.67,1.67,0,0,1,1.32-1.05,44.77,44.77,0,0,0,14.78-5.3,44.53,44.53,0,0,0,9.67-7.36,43.71,43.71,0,0,0,6.94-8.92,1.53,1.53,0,0,1,1.27-.78h.05a1.33,1.33,0,0,1,1.23.73l1.78,3.29a4.51,4.51,0,0,1,.59,2.28,4.21,4.21,0,0,1-.68,2.37,46.4,46.4,0,0,1-7.28,8.39,54.39,54.39,0,0,1-9.51,7,49,49,0,0,1-14.05,5.73ZM240.79,19.5a2.47,2.47,0,0,1-.92-1.74.84.84,0,0,1,0-.27,2.22,2.22,0,0,1,.68-1.6l1.69-1.82a3,3,0,0,1,1.92-1h.36a2.91,2.91,0,0,1,1.73.59,99.073,99.073,0,0,1,8,6.57,2.53,2.53,0,0,1,.82,1.92,2.66,2.66,0,0,1-.77,1.91l-2,2.06a2.44,2.44,0,0,1-1.83.77,2.65,2.65,0,0,1-1.91-.73,94.464,94.464,0,0,0-7.77-6.66Z" fill="#231815"/>
        <path id="Path_11030" data-name="Path 11030" d="M317.79,29.4a2.48,2.48,0,0,1,1.46,1.46,2.73,2.73,0,0,1,.23,1.05,2.5,2.5,0,0,1-.23,1l-1.19,2.92a2.49,2.49,0,0,1-1.46,1.42,2.46,2.46,0,0,1-.91.18,2.16,2.16,0,0,1-1.05-.27q-5.43-2.52-13.37-5.39a.19.19,0,0,0-.2,0,.21.21,0,0,0-.12.2V43.72c0,.79.1,2.24.28,4.33v.28a2.42,2.42,0,0,1-2.46,2.42H295.3a2.34,2.34,0,0,1-1.78-.78,2.51,2.51,0,0,1-.59-1.64V48.1c.15-1.67.22-3.13.22-4.38V17a34.128,34.128,0,0,0-.18-3.42v-.27a2.51,2.51,0,0,1,.59-1.6A2.25,2.25,0,0,1,295.3,11h3.42a2.4,2.4,0,0,1,1.82.77,2.54,2.54,0,0,1,.6,1.64v.23A29.043,29.043,0,0,0,301,17v6.1a.4.4,0,0,0,.32.41,147.686,147.686,0,0,1,16.47,5.89Z" fill="#231815"/>
        <path id="Path_11031" data-name="Path 11031" d="M18.49,49a15.94,15.94,0,0,1-10-3,2.35,2.35,0,0,1-1-1.87.8.8,0,0,1,0-.23A3.1,3.1,0,0,1,8.14,42l.68-.869a2.29,2.29,0,0,1,1.69-1h.37a2.7,2.7,0,0,1,1.59.5,9.34,9.34,0,0,0,5.16,1.69,6.63,6.63,0,0,0,3.9-1A3.39,3.39,0,0,0,23,38.34a4,4,0,0,0-1.32-3.24q-1.36-1.1-4.92-1.42a2.9,2.9,0,0,1-1.89-.89,2.59,2.59,0,0,1-.8-1.93V30.4a2.55,2.55,0,0,1,.8-1.89,3.11,3.11,0,0,1,1.89-.94,7.06,7.06,0,0,0,3.92-1.48,3.87,3.87,0,0,0,1.19-2.94,3.64,3.64,0,0,0-1-2.74,4.14,4.14,0,0,0-3-1,7.51,7.51,0,0,0-4.06,1.28,3.09,3.09,0,0,1-1.69.5h-.36a2.66,2.66,0,0,1-1.78-1l-.78-.91a2.52,2.52,0,0,1-.64-1.69v-.32a2.28,2.28,0,0,1,1.05-1.68A15.54,15.54,0,0,1,18.31,13q5.48,0,8.69,2.49a8.42,8.42,0,0,1,3.22,7.09q0,5.34-5.52,7.62a.17.17,0,0,0-.09.16.16.16,0,0,0,.09.16,9.86,9.86,0,0,1,4.81,3.06,8,8,0,0,1,1.8,5.33,8.82,8.82,0,0,1-1.78,5.5,10.52,10.52,0,0,1-4.65,3.49A17.22,17.22,0,0,1,18.49,49Z" fill="none" stroke="#0154ac" stroke-miterlimit="10" stroke-width="15"/>
        <path id="Path_11032" data-name="Path 11032" d="M53.39,28.89a2.56,2.56,0,0,1-1,.23,2.28,2.28,0,0,1-1-.23,2.49,2.49,0,0,1-1.42-1.41l-1.14-2.87a2.06,2.06,0,0,1-.18-.82,2.16,2.16,0,0,1,.27-1.05,2.4,2.4,0,0,1,1.56-1.19c1.15-.27,2.28-.56,3.37-.87l1.76-.57c1-.32,1.81-.57,2.48-.75s1.59-.45,2.76-.8,2.25-.63,3.22-.84l3.19-.66q1.74-.35,3.36-.51,1.6-.15,3-.15A19.21,19.21,0,0,1,81.49,18a12.68,12.68,0,0,1,5.59,4.81,13.85,13.85,0,0,1,2.07,7.62q0,7.35-6.29,12.27T65,48.65a1,1,0,0,1-.32,0,3.64,3.64,0,0,1-1.92-.55,3.83,3.83,0,0,1-1.5-1.77l-1.1-2.56a1.61,1.61,0,0,1-.18-.73,1.89,1.89,0,0,1,.27-1,1.85,1.85,0,0,1,1.51-.86A43.63,43.63,0,0,0,71.8,39.64a16.67,16.67,0,0,0,6.77-3.7,7.59,7.59,0,0,0,2.51-5.68,6.85,6.85,0,0,0-2-5.15,8,8,0,0,0-5.82-2Q66.7,23.15,53.39,28.89Z" fill="none" stroke="#0154ac" stroke-miterlimit="10" stroke-width="15"/>
        <path id="Path_11033" data-name="Path 11033" d="M120.72,50.15a3,3,0,0,1-.87.14,3.37,3.37,0,0,1-1.41-.32,4.21,4.21,0,0,1-1.82-1.51l-1.33-2.14a1.54,1.54,0,0,1-.27-.87,2.21,2.21,0,0,1,.14-.77,1.81,1.81,0,0,1,1.32-1c.55-.12,1.17-.27,1.87-.45a13.29,13.29,0,0,0,7.18-4.13,11.05,11.05,0,0,0,2.63-7.5,13,13,0,0,0-2-7.42,9.84,9.84,0,0,0-5.82-4c-.24-.06-.38,0-.41.28a101.69,101.69,0,0,1-2.65,11.72,36.16,36.16,0,0,1-5.31,11.36c-2.08,2.73-4.45,4.1-7.09,4.1q-4.25,0-7.17-4.1a16.91,16.91,0,0,1-2.91-10,18.72,18.72,0,0,1,1.68-7.78A20.82,20.82,0,0,1,101,19.25a21.76,21.76,0,0,1,7-4.41,23,23,0,0,1,8.64-1.64,21.43,21.43,0,0,1,7.94,1.44,17.19,17.19,0,0,1,6.09,3.94,18.1,18.1,0,0,1,3.81,5.91,19.6,19.6,0,0,1,1.37,7.37,18.05,18.05,0,0,1-3.81,11.65Q128.25,48.28,120.72,50.15ZM110,30.72a64.81,64.81,0,0,0,2.32-10.13v-.2a.23.23,0,0,0-.23,0,13.48,13.48,0,0,0-5.5,3.11,13.94,13.94,0,0,0-3.4,4.6,11.8,11.8,0,0,0-1,4.7,9.62,9.62,0,0,0,.87,4.5,2.51,2.51,0,0,0,2.14,1.61c.89,0,1.71-.66,2.47-2A32.129,32.129,0,0,0,110,30.72Z" fill="none" stroke="#0154ac" stroke-miterlimit="10" stroke-width="15"/>
        <path id="Path_11034" data-name="Path 11034" d="M147.68,31.18a2.86,2.86,0,0,1,1.64-1.33,2.51,2.51,0,0,1,.92-.18,2.81,2.81,0,0,1,1.18.27l1.55.73a2.53,2.53,0,0,1,1.33,1.51,2.44,2.44,0,0,1,.13.77,2.37,2.37,0,0,1-.36,1.24,82,82,0,0,1-5.93,8.71,2.73,2.73,0,0,1-1.87,1.1,2.17,2.17,0,0,1-.41,0,2.9,2.9,0,0,1-1.69-.54l-1.69-1.14a2.32,2.32,0,0,1-1-1.65v-.22a2.34,2.34,0,0,1,.6-1.6,46.17,46.17,0,0,0,5.6-7.67Zm28.69-5.71h-9.71a.32.32,0,0,0-.37.37V46.69a4.54,4.54,0,0,1-1.37,3.48,5.59,5.59,0,0,1-4,1.3q-3.06,0-5.43-.18a3.08,3.08,0,0,1-2-.91,3.33,3.33,0,0,1-.95-2l-.14-1.64a.52.52,0,0,1,0-.23,1.88,1.88,0,0,1,.67-1.43,2.18,2.18,0,0,1,1.52-.62h.23c.91.09,1.72.14,2.42.14a1.78,1.78,0,0,0,1.25-.34,1.91,1.91,0,0,0,.39-1.26q0-1.27.05-17.15c0-.25-.11-.37-.32-.37h-10.9c-.7,0-1.4,0-2.1.05h-.09a2.58,2.58,0,0,1-1.83-.73,2.4,2.4,0,0,1-.77-1.83V21a2.48,2.48,0,0,1,2.46-2.47.8.8,0,0,1,.23.05q1.23.09,2.1.09h10.9c.21,0,.32-.12.32-.36V15.48a14.133,14.133,0,0,0-.09-1.82v-.23a2.45,2.45,0,0,1,.63-1.64,2.22,2.22,0,0,1,1.74-.78h3a2.22,2.22,0,0,1,1.74.78,2.37,2.37,0,0,1,.59,1.59v.28c-.09.82-.14,1.44-.14,1.87v2.74a.32.32,0,0,0,.37.36h10.49a5.35,5.35,0,0,1-3.35-1.89,5.41,5.41,0,0,1-1.35-3.62,5.57,5.57,0,1,1,11.13,0,5.36,5.36,0,0,1-1.18,3.44,5.52,5.52,0,0,1-3.06,1.94h.18a1.77,1.77,0,0,1,1.23.46,1.72,1.72,0,0,1,.64,1.37V23a2.35,2.35,0,0,1-.82,1.83,2.41,2.41,0,0,1-1.78.73h-.09c-.9-.07-1.68-.09-2.44-.09Zm-5.24,8.67a2.44,2.44,0,0,1-.41-1.37A2.58,2.58,0,0,1,172,30.63l1.41-.78a3.28,3.28,0,0,1,1.46-.36,4.881,4.881,0,0,1,.68,0,3.18,3.18,0,0,1,1.83,1.19q2.46,3.56,5,7.85a2.56,2.56,0,0,1,.36,1.27,2.06,2.06,0,0,1-.14.73,2.45,2.45,0,0,1-1.27,1.64l-1.92,1a2.48,2.48,0,0,1-1.23.32,2.54,2.54,0,0,1-.78-.13,2.67,2.67,0,0,1-1.59-1.28q-2.41-4.47-4.68-7.94Zm5.27-22.69a2.288,2.288,0,1,0,3.24,0,2.31,2.31,0,0,0-3.24,0Z" fill="none" stroke="#0154ac" stroke-miterlimit="10" stroke-width="15"/>
        <path id="Path_11035" data-name="Path 11035" d="M215.7,25.2a.58.58,0,0,0-.32.55V44l.13,4.29a2.52,2.52,0,0,1-.63,1.69,2.19,2.19,0,0,1-1.69.77h-3.61A2.29,2.29,0,0,1,207.8,50a2.49,2.49,0,0,1-.68-1.74l.14-4.24V30.31a.18.18,0,0,0-.09-.18.3.3,0,0,0-.23,0,85.58,85.58,0,0,1-12.36,5,3,3,0,0,1-1,.18,3.19,3.19,0,0,1-1.23-.27,3.68,3.68,0,0,1-1.73-1.46l-1.28-2.24a2,2,0,0,1-.27-1,2.06,2.06,0,0,1,.18-.82,1.8,1.8,0,0,1,1.37-1.14,65,65,0,0,0,18.79-7.8A50.89,50.89,0,0,0,219.89,12a2.71,2.71,0,0,1,1.83-.92H222a2.48,2.48,0,0,1,1.64.64l2.1,1.87a2.42,2.42,0,0,1,.82,1.87,2.34,2.34,0,0,1-.78,1.78A79.509,79.509,0,0,1,215.7,25.2Z" fill="none" stroke="#0154ac" stroke-miterlimit="10" stroke-width="15"/>
        <path id="Path_11036" data-name="Path 11036" d="M244.57,50.11a3.809,3.809,0,0,1-.82.09,3.71,3.71,0,0,1-1.5-.32,4.28,4.28,0,0,1-1.78-1.51l-1.92-3a1.8,1.8,0,0,1-.27-.91,1.61,1.61,0,0,1,.18-.73,1.67,1.67,0,0,1,1.32-1.05,44.77,44.77,0,0,0,14.78-5.3,44.53,44.53,0,0,0,9.67-7.36,43.71,43.71,0,0,0,6.94-8.92,1.53,1.53,0,0,1,1.27-.78h.05a1.33,1.33,0,0,1,1.23.73l1.78,3.29a4.51,4.51,0,0,1,.59,2.28,4.21,4.21,0,0,1-.68,2.37,46.4,46.4,0,0,1-7.28,8.39,54.39,54.39,0,0,1-9.51,7,49,49,0,0,1-14.05,5.73ZM240.79,19.5a2.47,2.47,0,0,1-.92-1.74.84.84,0,0,1,0-.27,2.22,2.22,0,0,1,.68-1.6l1.69-1.82a3,3,0,0,1,1.92-1h.36a2.91,2.91,0,0,1,1.73.59,99.073,99.073,0,0,1,8,6.57,2.53,2.53,0,0,1,.82,1.92,2.66,2.66,0,0,1-.77,1.91l-2,2.06a2.44,2.44,0,0,1-1.83.77,2.65,2.65,0,0,1-1.91-.73,94.464,94.464,0,0,0-7.77-6.66Z" fill="none" stroke="#0154ac" stroke-miterlimit="10" stroke-width="15"/>
        <path id="Path_11037" data-name="Path 11037" d="M317.79,29.4a2.48,2.48,0,0,1,1.46,1.46,2.73,2.73,0,0,1,.23,1.05,2.5,2.5,0,0,1-.23,1l-1.19,2.92a2.49,2.49,0,0,1-1.46,1.42,2.46,2.46,0,0,1-.91.18,2.16,2.16,0,0,1-1.05-.27q-5.43-2.52-13.37-5.39a.19.19,0,0,0-.2,0,.21.21,0,0,0-.12.2V43.72c0,.79.1,2.24.28,4.33v.28a2.42,2.42,0,0,1-2.46,2.42H295.3a2.34,2.34,0,0,1-1.78-.78,2.51,2.51,0,0,1-.59-1.64V48.1c.15-1.67.22-3.13.22-4.38V17a34.128,34.128,0,0,0-.18-3.42v-.27a2.51,2.51,0,0,1,.59-1.6A2.25,2.25,0,0,1,295.3,11h3.42a2.4,2.4,0,0,1,1.82.77,2.54,2.54,0,0,1,.6,1.64v.23A29.043,29.043,0,0,0,301,17v6.1a.4.4,0,0,0,.32.41,147.686,147.686,0,0,1,16.47,5.89Z" fill="none" stroke="#0154ac" stroke-miterlimit="10" stroke-width="15"/>
        <path id="Path_11038" data-name="Path 11038" d="M18.49,49a15.94,15.94,0,0,1-10-3,2.35,2.35,0,0,1-1-1.87.8.8,0,0,1,0-.23A3.1,3.1,0,0,1,8.14,42l.68-.869a2.29,2.29,0,0,1,1.69-1h.37a2.7,2.7,0,0,1,1.59.5,9.34,9.34,0,0,0,5.16,1.69,6.63,6.63,0,0,0,3.9-1A3.39,3.39,0,0,0,23,38.34a4,4,0,0,0-1.32-3.24q-1.36-1.1-4.92-1.42a2.9,2.9,0,0,1-1.89-.89,2.59,2.59,0,0,1-.8-1.93V30.4a2.55,2.55,0,0,1,.8-1.89,3.11,3.11,0,0,1,1.89-.94,7.06,7.06,0,0,0,3.92-1.48,3.87,3.87,0,0,0,1.19-2.94,3.64,3.64,0,0,0-1-2.74,4.14,4.14,0,0,0-3-1,7.51,7.51,0,0,0-4.06,1.28,3.09,3.09,0,0,1-1.69.5h-.36a2.66,2.66,0,0,1-1.78-1l-.78-.91a2.52,2.52,0,0,1-.64-1.69v-.32a2.28,2.28,0,0,1,1.05-1.68A15.54,15.54,0,0,1,18.31,13q5.48,0,8.69,2.49a8.42,8.42,0,0,1,3.22,7.09q0,5.34-5.52,7.62a.17.17,0,0,0-.09.16.16.16,0,0,0,.09.16,9.86,9.86,0,0,1,4.81,3.06,8,8,0,0,1,1.8,5.33,8.82,8.82,0,0,1-1.78,5.5,10.52,10.52,0,0,1-4.65,3.49A17.22,17.22,0,0,1,18.49,49Z" fill="#fff"/>
        <path id="Path_11039" data-name="Path 11039" d="M53.39,28.89a2.56,2.56,0,0,1-1,.23,2.28,2.28,0,0,1-1-.23,2.49,2.49,0,0,1-1.42-1.41l-1.14-2.87a2.06,2.06,0,0,1-.18-.82,2.16,2.16,0,0,1,.27-1.05,2.4,2.4,0,0,1,1.56-1.19c1.15-.27,2.28-.56,3.37-.87l1.76-.57c1-.32,1.81-.57,2.48-.75s1.59-.45,2.76-.8,2.25-.63,3.22-.84l3.19-.66q1.74-.35,3.36-.51,1.6-.15,3-.15A19.21,19.21,0,0,1,81.49,18a12.68,12.68,0,0,1,5.59,4.81,13.85,13.85,0,0,1,2.07,7.62q0,7.35-6.29,12.27T65,48.65a1,1,0,0,1-.32,0,3.64,3.64,0,0,1-1.92-.55,3.83,3.83,0,0,1-1.5-1.77l-1.1-2.56a1.61,1.61,0,0,1-.18-.73,1.89,1.89,0,0,1,.27-1,1.85,1.85,0,0,1,1.51-.86A43.63,43.63,0,0,0,71.8,39.64a16.67,16.67,0,0,0,6.77-3.7,7.59,7.59,0,0,0,2.51-5.68,6.85,6.85,0,0,0-2-5.15,8,8,0,0,0-5.82-2Q66.7,23.15,53.39,28.89Z" fill="#fff"/>
        <path id="Path_11040" data-name="Path 11040" d="M120.72,50.15a3,3,0,0,1-.87.14,3.37,3.37,0,0,1-1.41-.32,4.21,4.21,0,0,1-1.82-1.51l-1.33-2.14a1.54,1.54,0,0,1-.27-.87,2.21,2.21,0,0,1,.14-.77,1.81,1.81,0,0,1,1.32-1c.55-.12,1.17-.27,1.87-.45a13.29,13.29,0,0,0,7.18-4.13,11.05,11.05,0,0,0,2.63-7.5,13,13,0,0,0-2-7.42,9.84,9.84,0,0,0-5.82-4c-.24-.06-.38,0-.41.28a101.69,101.69,0,0,1-2.65,11.72,36.16,36.16,0,0,1-5.31,11.36c-2.08,2.73-4.45,4.1-7.09,4.1q-4.25,0-7.17-4.1a16.91,16.91,0,0,1-2.91-10,18.72,18.72,0,0,1,1.68-7.78A20.82,20.82,0,0,1,101,19.25a21.76,21.76,0,0,1,7-4.41,23,23,0,0,1,8.64-1.64,21.43,21.43,0,0,1,7.94,1.44,17.19,17.19,0,0,1,6.09,3.94,18.1,18.1,0,0,1,3.81,5.91,19.6,19.6,0,0,1,1.37,7.37,18.05,18.05,0,0,1-3.81,11.65Q128.25,48.28,120.72,50.15ZM110,30.72a64.81,64.81,0,0,0,2.32-10.13v-.2a.23.23,0,0,0-.23,0,13.48,13.48,0,0,0-5.5,3.11,13.94,13.94,0,0,0-3.4,4.6,11.8,11.8,0,0,0-1,4.7,9.62,9.62,0,0,0,.87,4.5,2.51,2.51,0,0,0,2.14,1.61c.89,0,1.71-.66,2.47-2A32.129,32.129,0,0,0,110,30.72Z" fill="#fff"/>
        <path id="Path_11041" data-name="Path 11041" d="M147.68,31.18a2.86,2.86,0,0,1,1.64-1.33,2.51,2.51,0,0,1,.92-.18,2.81,2.81,0,0,1,1.18.27l1.55.73a2.53,2.53,0,0,1,1.33,1.51,2.44,2.44,0,0,1,.13.77,2.37,2.37,0,0,1-.36,1.24,82,82,0,0,1-5.93,8.71,2.73,2.73,0,0,1-1.87,1.1,2.17,2.17,0,0,1-.41,0,2.9,2.9,0,0,1-1.69-.54l-1.69-1.14a2.32,2.32,0,0,1-1-1.65v-.22a2.34,2.34,0,0,1,.6-1.6,46.17,46.17,0,0,0,5.6-7.67Zm28.69-5.71h-9.71a.32.32,0,0,0-.37.37V46.69a4.54,4.54,0,0,1-1.37,3.48,5.59,5.59,0,0,1-4,1.3q-3.06,0-5.43-.18a3.08,3.08,0,0,1-2-.91,3.33,3.33,0,0,1-.95-2l-.14-1.64a.52.52,0,0,1,0-.23,1.88,1.88,0,0,1,.67-1.43,2.18,2.18,0,0,1,1.52-.62h.23c.91.09,1.72.14,2.42.14a1.78,1.78,0,0,0,1.25-.34,1.91,1.91,0,0,0,.39-1.26q0-1.27.05-17.15c0-.25-.11-.37-.32-.37h-10.9c-.7,0-1.4,0-2.1.05h-.09a2.58,2.58,0,0,1-1.83-.73,2.4,2.4,0,0,1-.77-1.83V21a2.48,2.48,0,0,1,2.46-2.47.8.8,0,0,1,.23.05q1.23.09,2.1.09h10.9c.21,0,.32-.12.32-.36V15.48a14.133,14.133,0,0,0-.09-1.82v-.23a2.45,2.45,0,0,1,.63-1.64,2.22,2.22,0,0,1,1.74-.78h3a2.22,2.22,0,0,1,1.74.78,2.37,2.37,0,0,1,.59,1.59v.28c-.09.82-.14,1.44-.14,1.87v2.74a.32.32,0,0,0,.37.36h10.49a5.35,5.35,0,0,1-3.35-1.89,5.41,5.41,0,0,1-1.35-3.62,5.57,5.57,0,1,1,11.13,0,5.36,5.36,0,0,1-1.18,3.44,5.52,5.52,0,0,1-3.06,1.94h.18a1.77,1.77,0,0,1,1.23.46,1.72,1.72,0,0,1,.64,1.37V23a2.35,2.35,0,0,1-.82,1.83,2.41,2.41,0,0,1-1.78.73h-.09c-.9-.07-1.68-.09-2.44-.09Zm-5.24,8.67a2.44,2.44,0,0,1-.41-1.37A2.58,2.58,0,0,1,172,30.63l1.41-.78a3.28,3.28,0,0,1,1.46-.36,4.881,4.881,0,0,1,.68,0,3.18,3.18,0,0,1,1.83,1.19q2.46,3.56,5,7.85a2.56,2.56,0,0,1,.36,1.27,2.06,2.06,0,0,1-.14.73,2.45,2.45,0,0,1-1.27,1.64l-1.92,1a2.48,2.48,0,0,1-1.23.32,2.54,2.54,0,0,1-.78-.13,2.67,2.67,0,0,1-1.59-1.28q-2.41-4.47-4.68-7.94Zm5.27-22.69a2.288,2.288,0,1,0,3.24,0,2.31,2.31,0,0,0-3.24,0Z" fill="#fff"/>
        <path id="Path_11042" data-name="Path 11042" d="M215.7,25.2a.58.58,0,0,0-.32.55V44l.13,4.29a2.52,2.52,0,0,1-.63,1.69,2.19,2.19,0,0,1-1.69.77h-3.61A2.29,2.29,0,0,1,207.8,50a2.49,2.49,0,0,1-.68-1.74l.14-4.24V30.31a.18.18,0,0,0-.09-.18.3.3,0,0,0-.23,0,85.58,85.58,0,0,1-12.36,5,3,3,0,0,1-1,.18,3.19,3.19,0,0,1-1.23-.27,3.68,3.68,0,0,1-1.73-1.46l-1.28-2.24a2,2,0,0,1-.27-1,2.06,2.06,0,0,1,.18-.82,1.8,1.8,0,0,1,1.37-1.14,65,65,0,0,0,18.79-7.8A50.89,50.89,0,0,0,219.89,12a2.71,2.71,0,0,1,1.83-.92H222a2.48,2.48,0,0,1,1.64.64l2.1,1.87a2.42,2.42,0,0,1,.82,1.87,2.34,2.34,0,0,1-.78,1.78A79.509,79.509,0,0,1,215.7,25.2Z" fill="#fff"/>
        <path id="Path_11043" data-name="Path 11043" d="M244.57,50.11a3.809,3.809,0,0,1-.82.09,3.71,3.71,0,0,1-1.5-.32,4.28,4.28,0,0,1-1.78-1.51l-1.92-3a1.8,1.8,0,0,1-.27-.91,1.61,1.61,0,0,1,.18-.73,1.67,1.67,0,0,1,1.32-1.05,44.77,44.77,0,0,0,14.78-5.3,44.53,44.53,0,0,0,9.67-7.36,43.71,43.71,0,0,0,6.94-8.92,1.53,1.53,0,0,1,1.27-.78h.05a1.33,1.33,0,0,1,1.23.73l1.78,3.29a4.51,4.51,0,0,1,.59,2.28,4.21,4.21,0,0,1-.68,2.37,46.4,46.4,0,0,1-7.28,8.39,54.39,54.39,0,0,1-9.51,7,49,49,0,0,1-14.05,5.73ZM240.79,19.5a2.47,2.47,0,0,1-.92-1.74.84.84,0,0,1,0-.27,2.22,2.22,0,0,1,.68-1.6l1.69-1.82a3,3,0,0,1,1.92-1h.36a2.91,2.91,0,0,1,1.73.59,99.073,99.073,0,0,1,8,6.57,2.53,2.53,0,0,1,.82,1.92,2.66,2.66,0,0,1-.77,1.91l-2,2.06a2.44,2.44,0,0,1-1.83.77,2.65,2.65,0,0,1-1.91-.73,94.464,94.464,0,0,0-7.77-6.66Z" fill="#fff"/>
        <path id="Path_11044" data-name="Path 11044" d="M317.79,29.4a2.48,2.48,0,0,1,1.46,1.46,2.73,2.73,0,0,1,.23,1.05,2.5,2.5,0,0,1-.23,1l-1.19,2.92a2.49,2.49,0,0,1-1.46,1.42,2.46,2.46,0,0,1-.91.18,2.16,2.16,0,0,1-1.05-.27q-5.43-2.52-13.37-5.39a.19.19,0,0,0-.2,0,.21.21,0,0,0-.12.2V43.72c0,.79.1,2.24.28,4.33v.28a2.42,2.42,0,0,1-2.46,2.42H295.3a2.34,2.34,0,0,1-1.78-.78,2.51,2.51,0,0,1-.59-1.64V48.1c.15-1.67.22-3.13.22-4.38V17a34.128,34.128,0,0,0-.18-3.42v-.27a2.51,2.51,0,0,1,.59-1.6A2.25,2.25,0,0,1,295.3,11h3.42a2.4,2.4,0,0,1,1.82.77,2.54,2.54,0,0,1,.6,1.64v.23A29.043,29.043,0,0,0,301,17v6.1a.4.4,0,0,0,.32.41,147.686,147.686,0,0,1,16.47,5.89Z" fill="#fff"/>
      </g>
    </g>
    <g id="レイヤー_2-2" data-name="レイヤー 2" transform="translate(512.645 934.946)">
      <g id="レイヤー_1-2" data-name="レイヤー 1">
        <path id="Path_11045" data-name="Path 11045" d="M10.94,2.64a1.16,1.16,0,0,1,1.15,1.15V9.36c0,.1.05.15.14.15h5a1.13,1.13,0,0,1,.81.33,1.15,1.15,0,0,1,.34.82v9.81a1.14,1.14,0,0,1-1.15,1.15H16a.68.68,0,0,1-.69-.68c0-.07,0-.1-.09-.1H3.65a1.13,1.13,0,0,1-.81-.33,1.09,1.09,0,0,1-.34-.82V19.1a1.09,1.09,0,0,1,.34-.82A1.13,1.13,0,0,1,3.65,18H15.14c.1,0,.15-.05.15-.16V16.62a.14.14,0,0,0-.15-.16H4.84a1.128,1.128,0,0,1-1.17-1.15v-.49A1.14,1.14,0,0,1,4,14a1.12,1.12,0,0,1,.82-.33h10.3a.13.13,0,0,0,.15-.15v-.94c0-.11,0-.16-.15-.16h-11a1.13,1.13,0,0,1-.81-.33A1.09,1.09,0,0,1,3,11.27v-.61a1.11,1.11,0,0,1,.34-.82,1.13,1.13,0,0,1,.81-.33H8.73c.09,0,.14,0,.14-.15V3.79A1.16,1.16,0,0,1,10,2.64ZM7,6.82a1.26,1.26,0,0,1,.08.43A1.12,1.12,0,0,1,7,7.7a1.18,1.18,0,0,1-.64.64l-.71.27a.81.81,0,0,1-.39.1.9.9,0,0,1-.43-.12A1.07,1.07,0,0,1,4.26,8,20.17,20.17,0,0,0,3,5.39a1,1,0,0,1-.14-.49,1.05,1.05,0,0,1,.06-.33A.94.94,0,0,1,3.48,4L4,3.79a1.56,1.56,0,0,1,.55-.1A1.31,1.31,0,0,1,5,3.77a1.25,1.25,0,0,1,.76.57A18.49,18.49,0,0,1,7,6.82ZM15.18,4.3a1.22,1.22,0,0,1,.56-.71,1.25,1.25,0,0,1,.57-.13,1.1,1.1,0,0,1,.31,0l1.06.29a1,1,0,0,1,.62.55.81.81,0,0,1,.1.39.78.78,0,0,1-.12.41c-.55,1.13-1.07,2.13-1.58,3a1.4,1.4,0,0,1-.74.61,1.62,1.62,0,0,1-.49.08A1.55,1.55,0,0,1,15,8.73l-.41-.14A.94.94,0,0,1,14,8a1.09,1.09,0,0,1,0-.82A27.3,27.3,0,0,0,15.18,4.3Z" fill="#231815"/>
        <path id="Path_11046" data-name="Path 11046" d="M35.74,7.34c0,.09,0,.14.16.14h2.26a1.08,1.08,0,0,1,.73.27,1,1,0,0,1,.35.75v.9a1,1,0,0,1-.35.78,1.15,1.15,0,0,1-.78.31H35.9c-.11,0-.16,0-.16.14v.5a18.61,18.61,0,0,1-.22,3.06,9.9,9.9,0,0,1-.8,2.56,7.74,7.74,0,0,1-1.6,2.21,10.55,10.55,0,0,1-2.53,1.76,1.61,1.61,0,0,1-.73.18h-.25a1.61,1.61,0,0,1-.9-.45l-.92-.86a.65.65,0,0,1-.23-.49.39.39,0,0,1,0-.15.7.7,0,0,1,.45-.53,7.3,7.3,0,0,0,3.5-2.59,8.35,8.35,0,0,0,1-4.6v-.58c0-.1,0-.14-.16-.14h-3.9c-.11,0-.16,0-.16.14v3.43a1.07,1.07,0,0,1-1.08,1.1h-.96a1.07,1.07,0,0,1-1.07-1.08V10.61c0-.1-.05-.14-.15-.14H22.66a1.144,1.144,0,0,1-1.12-1.1v-1a.9.9,0,0,1,.36-.74,1,1,0,0,1,.68-.26H25.1c.1,0,.15-.05.15-.14V4.88a1.08,1.08,0,0,1,.27-.72,1,1,0,0,1,.78-.33h1.13a1,1,0,0,1,.76.33,1.07,1.07,0,0,1,.28.74V7.34c0,.09.05.14.16.14h3.9c.11,0,.16-.05.16-.14V4.73A1.21,1.21,0,0,1,32.83,4a1,1,0,0,1,.76-.33h1.16a1,1,0,0,1,.76.33,1.08,1.08,0,0,1,.27.73v.92Z" fill="#231815"/>
        <path id="Path_11047" data-name="Path 11047" d="M53.32,9.82a.27.27,0,0,0-.14.24v7.83l.06,1.84a1.08,1.08,0,0,1-.27.72.94.94,0,0,1-.72.33H50.7a1,1,0,0,1-.76-.33,1.08,1.08,0,0,1-.29-.74l.06-1.82V12a.1.1,0,0,0,0-.08h-.1a35.25,35.25,0,0,1-5.29,2.13,1.35,1.35,0,0,1-.43.08,1.31,1.31,0,0,1-.53-.12,1.6,1.6,0,0,1-.74-.62l-.55-1a.83.83,0,0,1-.12-.41.89.89,0,0,1,.08-.35.8.8,0,0,1,.59-.49,27.67,27.67,0,0,0,8-3.34,21.8,21.8,0,0,0,4.5-3.67,1.18,1.18,0,0,1,.78-.39H56a1,1,0,0,1,.7.27l.9.8a1,1,0,0,1,.35.8,1,1,0,0,1-.33.77,33.439,33.439,0,0,1-4.3,3.44Z" fill="#231815"/>
        <path id="Path_11048" data-name="Path 11048" d="M77,11.62a1.09,1.09,0,0,1,.63.63,1.2,1.2,0,0,1,.09.45,1.12,1.12,0,0,1-.09.44l-.51,1.25a1.15,1.15,0,0,1-1,.69,1,1,0,0,1-.45-.12c-1.55-.71-3.45-1.48-5.72-2.3h-.09a.09.09,0,0,0-.05.08v5q0,.51.12,1.86v.12a1,1,0,0,1-1,1H67.4a1,1,0,0,1-.76-.33,1.07,1.07,0,0,1-.25-.7v-.1c.06-.72.09-1.34.09-1.88V6.33a10.338,10.338,0,0,0-.07-1.47V4.75a1.07,1.07,0,0,1,.25-.69,1,1,0,0,1,.74-.33h1.47a1,1,0,0,1,.78.33,1.08,1.08,0,0,1,.25.71v.09c-.05.55-.08,1-.08,1.47v2.6A.16.16,0,0,0,70,9.1a63.8,63.8,0,0,1,7,2.52Z" fill="#231815"/>
        <path id="Path_11049" data-name="Path 11049" d="M86.41,4.69a1.07,1.07,0,0,1,.35-.78.93.93,0,0,1,.68-.28h.12l1.27.14a1.023,1.023,0,0,1,.92,1,1,1,0,0,1,0,.23,3.732,3.732,0,0,1-.16.78c-.07.29-.18.89-.31,1.47a.14.14,0,0,0,0,.09.1.1,0,0,0,.09,0c.45,0,.85-.06,1.19-.06,2.52,0,3.79,1.35,3.79,4.05a30.349,30.349,0,0,1-.27,4,10.58,10.58,0,0,1-.85,3.22,3.07,3.07,0,0,1-1.34,1.47,4.45,4.45,0,0,1-2.11.45,12,12,0,0,1-1.27-.08,1.47,1.47,0,0,1-.87-.45,1.6,1.6,0,0,1-.44-.9l-.2-.78v-.14a.73.73,0,0,1,.24-.54.72.72,0,0,1,.52-.22h.18a7.63,7.63,0,0,0,1.31.16,1.35,1.35,0,0,0,1.33-.76,7.19,7.19,0,0,0,.54-2.13,22.149,22.149,0,0,0,.2-3,1.61,1.61,0,0,0-.41-1.32,2.53,2.53,0,0,0-1.43-.3H88.7a.18.18,0,0,0-.18.15c-.43,1.63-.93,3.29-1.52,5a35,35,0,0,1-1.83,4.43,1.24,1.24,0,0,1-.71.58,1.06,1.06,0,0,1-.43.08,1.32,1.32,0,0,1-.51-.1l-1-.39a.88.88,0,0,1-.53-.58A.84.84,0,0,1,82,19a.83.83,0,0,1,.16-.5,30.5,30.5,0,0,0,3.22-7.86.05.05,0,0,0,0-.07.09.09,0,0,0-.08,0l-1.11.15-1.29.18h-.17a1.08,1.08,0,0,1-.67-.24,1.06,1.06,0,0,1-.39-.74L81.54,9a1,1,0,0,1,.28-.78,1.1,1.1,0,0,1,.78-.34h1.15c.33,0,1-.06,2.13-.13a.16.16,0,0,0,.17-.16,27.05,27.05,0,0,0,.36-2.9Zm8.14,3.06a1,1,0,0,1-.14-.5,1.77,1.77,0,0,1,0-.3A.84.84,0,0,1,95,6.37l.76-.32a1.4,1.4,0,0,1,.53-.11A1.51,1.51,0,0,1,96.7,6a1.16,1.16,0,0,1,.72.6,37,37,0,0,1,2.44,5.45,1.09,1.09,0,0,1,.08.43,1.14,1.14,0,0,1-.12.49,1.25,1.25,0,0,1-.64.66l-1,.45a.91.91,0,0,1-.41.1.81.81,0,0,1-.39-.1.92.92,0,0,1-.52-.62,23.42,23.42,0,0,0-2.31-5.71Z" fill="#231815"/>
        <path id="Path_11050" data-name="Path 11050" d="M104.32,8.36a1.108,1.108,0,0,1,1.05-1.02h.16l.93.12a1.12,1.12,0,0,1,.73.45,1.08,1.08,0,0,1,.19.62.86.86,0,0,1,0,.22c-.21,1.05-.36,2-.45,2.87a.1.1,0,0,0,0,.07.05.05,0,0,0,.08,0,10.1,10.1,0,0,1,5.35-1.5,7.38,7.38,0,0,1,2.46.39,4.89,4.89,0,0,1,1.82,1.06,4.77,4.77,0,0,1,1.08,1.51,4.13,4.13,0,0,1,.38,1.76,6.14,6.14,0,0,1-.31,2,4.91,4.91,0,0,1-1,1.73A5.79,5.79,0,0,1,114.85,20a10.92,10.92,0,0,1-2.94.78,19.45,19.45,0,0,1-2.63.16h-1.43a1.52,1.52,0,0,1-.92-.35,1.6,1.6,0,0,1-.54-.82l-.3-.94a1,1,0,0,1,0-.24.62.62,0,0,1,.2-.44.7.7,0,0,1,.57-.28h.09a20.539,20.539,0,0,0,2.25.14,9.44,9.44,0,0,0,3.54-.57,2.7,2.7,0,0,0,2-2.54,1.67,1.67,0,0,0-.75-1.39,3.09,3.09,0,0,0-1.91-.56,7.57,7.57,0,0,0-2.9.56A5.58,5.58,0,0,0,107,15.06l-.21.27a2,2,0,0,1-.8.61,1.4,1.4,0,0,1-.59.13,1.69,1.69,0,0,1-.33,0l-.51-.14a1.24,1.24,0,0,1-.94-1.19v-.22Q104.09,11.46,104.32,8.36Zm3.22-1.74a1.14,1.14,0,0,1-.72-.53,1.06,1.06,0,0,1-.16-.56,1.13,1.13,0,0,1,0-.3l.18-.64a1,1,0,0,1,.52-.7,1.11,1.11,0,0,1,.59-.16,1,1,0,0,1,.29,0q2.44.59,5.82,1.09a1.013,1.013,0,0,1,.9,1,2.45,2.45,0,0,1,0,.27l-.18.73a1.25,1.25,0,0,1-1.19.95.71.71,0,0,1-.21,0Q110.7,7.33,107.54,6.62Z" fill="#231815"/>
        <path id="Path_11051" data-name="Path 11051" d="M132.66,20.51a1.29,1.29,0,0,1-.37.06,1.47,1.47,0,0,1-.61-.14,1.76,1.76,0,0,1-.78-.64l-.57-.92a.65.65,0,0,1-.12-.37,1.06,1.06,0,0,1,.06-.34.81.81,0,0,1,.57-.43l.8-.19a5.67,5.67,0,0,0,3.08-1.77,4.72,4.72,0,0,0,1.12-3.21A5.56,5.56,0,0,0,135,9.38a4.16,4.16,0,0,0-2.49-1.7.13.13,0,0,0-.18.11,42.718,42.718,0,0,1-1.13,5,15.48,15.48,0,0,1-2.27,4.87,3.82,3.82,0,0,1-3,1.75,3.69,3.69,0,0,1-3.07-1.75,7.28,7.28,0,0,1-1.25-4.3,7.84,7.84,0,0,1,.73-3.33,8.66,8.66,0,0,1,2-2.77,9.3,9.3,0,0,1,3-1.89,9.78,9.78,0,0,1,3.7-.7,9.25,9.25,0,0,1,3.4.61A7.32,7.32,0,0,1,136.92,7a7.7,7.7,0,0,1,1.63,2.53,8.19,8.19,0,0,1,.59,3.16,7.74,7.74,0,0,1-1.63,5,8.7,8.7,0,0,1-4.85,2.82Zm-4.61-8.32a28.1,28.1,0,0,0,1-4.34.06.06,0,0,0,0-.09.09.09,0,0,0-.09,0,5.81,5.81,0,0,0-2.36,1.33,6,6,0,0,0-1.45,2,5.11,5.11,0,0,0-.45,2A4.07,4.07,0,0,0,125,15a1.07,1.07,0,0,0,.92.69c.37,0,.73-.28,1.05-.85a13.281,13.281,0,0,0,1.08-2.65Z" fill="#231815"/>
        <path id="Path_11052" data-name="Path 11052" d="M149.12,10.49v.6c0,.11,0,.15.16.12a16,16,0,0,1,3.34-.39,7.47,7.47,0,0,1,2.86.52,4.67,4.67,0,0,1,2.06,1.56,4,4,0,0,1,.78,2.47,5,5,0,0,1-1,3.17,6,6,0,0,1-3.43,1.91,12.4,12.4,0,0,1-1.53.23.52.52,0,0,1-.17,0,1.36,1.36,0,0,1-.76-.23,1.61,1.61,0,0,1-.61-.76l-.33-.94a.84.84,0,0,1,0-.27.86.86,0,0,1,.14-.47.78.78,0,0,1,.68-.35,12.14,12.14,0,0,0,1.33-.14,4.21,4.21,0,0,0,1.91-.75,1.74,1.74,0,0,0,.72-1.44A1.61,1.61,0,0,0,154.5,14a3.29,3.29,0,0,0-1.92-.5,13.08,13.08,0,0,0-3.24.41.136.136,0,0,0-.14.17c.05,1.9.08,3,.08,3.34a4.37,4.37,0,0,1-.63,2.73,2.19,2.19,0,0,1-1.79.75,5.33,5.33,0,0,1-2.24-.52,5.26,5.26,0,0,1-1.93-1.46,3.11,3.11,0,0,1-.8-2,3.71,3.71,0,0,1,1.23-2.56,9.63,9.63,0,0,1,3.11-2.11.22.22,0,0,0,.14-.22V9.65a.13.13,0,0,0-.14-.14h-2.46a1.12,1.12,0,0,1-.82-.38,1.28,1.28,0,0,1-.35-.85V7.64a.91.91,0,0,1,.31-.76,1,1,0,0,1,.72-.3h2.6a.14.14,0,0,0,.14-.16V4.47a1,1,0,0,1,.29-.72,1,1,0,0,1,.76-.35h1a1.037,1.037,0,0,1,1.02,1.03v.12a4.418,4.418,0,0,1-.06.78l-.06.86a.13.13,0,0,0,0,.1.12.12,0,0,0,.1,0c.75-.11,1.47-.24,2.14-.39a1,1,0,0,1,.24,0,.85.85,0,0,1,.54.19.94.94,0,0,1,.38.71v.7a1.33,1.33,0,0,1-.3.89,1.21,1.21,0,0,1-.8.48c-.68.11-1.44.22-2.28.31a.16.16,0,0,0-.16.18A6.592,6.592,0,0,0,149.12,10.49Zm-3.22,7.09a.57.57,0,0,0,.42-.15.94.94,0,0,0,.14-.63V15.1a.09.09,0,0,0,0-.08h-.08c-1,.59-1.47,1.15-1.47,1.7a.72.72,0,0,0,.37.59A1.16,1.16,0,0,0,145.9,17.58Zm8.69-9.2a1.06,1.06,0,0,1-.57-.67,1,1,0,0,1-.06-.33,1.07,1.07,0,0,1,.14-.52l.2-.32A1.18,1.18,0,0,1,155,6a1.24,1.24,0,0,1,.37-.06,1,1,0,0,1,.53.14c1.14.55,2.16,1.1,3.05,1.62a1.12,1.12,0,0,1,.52.72.92.92,0,0,1,0,.29,1.2,1.2,0,0,1-.15.59l-.28.45a1,1,0,0,1-.68.5,1.06,1.06,0,0,1-.26,0,1,1,0,0,1-.58-.17C156.67,9.51,155.68,9,154.59,8.38Z" fill="#231815"/>
        <path id="Path_11053" data-name="Path 11053" d="M171.93,5.18c0,.1,0,.15.14.15h5.59a1.13,1.13,0,0,1,.81.33,1.15,1.15,0,0,1,.34.82v9.93a1.15,1.15,0,0,1-.34.82,1.13,1.13,0,0,1-.81.33h-1.1a.74.74,0,0,1-.56-.24.71.71,0,0,1-.24-.54c0-.08,0-.12-.1-.12h-3.59c-.09,0-.14.05-.14.16v3.67a1.09,1.09,0,0,1-.34.82,1.13,1.13,0,0,1-.81.33H170a1.13,1.13,0,0,1-.81-.33,1.09,1.09,0,0,1-.34-.82V16.82c0-.11,0-.16-.14-.16h-3.48c-.07,0-.11,0-.11.12a.9.9,0,0,1-.28.64.88.88,0,0,1-.64.28h-.84a1.11,1.11,0,0,1-.81-.35,1.07,1.07,0,0,1-.34-.81V6.48a1.11,1.11,0,0,1,.34-.82,1.13,1.13,0,0,1,.81-.33h5.35c.09,0,.14,0,.14-.15V3.79A1.16,1.16,0,0,1,170,2.64h.74a1.16,1.16,0,0,1,1.15,1.15Zm-3,3.08c0-.1,0-.15-.14-.15h-3.46c-.09,0-.13.05-.13.15V9.49c0,.11,0,.16.13.16h3.46c.09,0,.14-.05.14-.16Zm-3.73,5.47c0,.1,0,.16.13.16h3.46c.09,0,.14-.06.14-.16V12.46c0-.1,0-.16-.14-.16h-3.46c-.09,0-.13.06-.13.16Zm10.6-5.47c0-.1,0-.15-.14-.15h-3.55c-.09,0-.14.05-.14.15V9.49c0,.11,0,.16.14.16h3.55c.1,0,.14-.05.14-.16Zm-3.83,5.47c0,.1,0,.16.14.16h3.55c.1,0,.14-.06.14-.16V12.46c0-.1,0-.16-.14-.16h-3.55c-.09,0-.14.06-.14.16Z" fill="#231815"/>
        <path id="Path_11054" data-name="Path 11054" d="M184.59,4.88V4.75a1,1,0,0,1,.23-.65.93.93,0,0,1,.73-.35h1.54a1.019,1.019,0,0,1,1.01,1.03V4.9c-.07.7-.13,1.32-.15,1.86q-.24,5-.24,8.55a2.19,2.19,0,0,0,2.45,2.5,7.28,7.28,0,0,0,5.91-3.08.86.86,0,0,1,.71-.36h0a.84.84,0,0,1,.66.32l.72.88a1.42,1.42,0,0,1,.35.95,1.26,1.26,0,0,1-.31.86,9.66,9.66,0,0,1-1.37,1.34,11.689,11.689,0,0,1-1.76,1.17,9.33,9.33,0,0,1-2.3.88,10.73,10.73,0,0,1-2.67.32,6.18,6.18,0,0,1-4.1-1.23,4.64,4.64,0,0,1-1.48-3.77q0-1.38.09-5c.06-2.43.09-3.86.09-4.27a14.8,14.8,0,0,0-.11-1.94Z" fill="#231815"/>
        <path id="Path_11055" data-name="Path 11055" d="M205,10.39a1.13,1.13,0,0,1,.81.33,1.09,1.09,0,0,1,.34.82v5a.51.51,0,0,0,.08.28c.69,1,2,1.6,4,1.68,1,.05,2,.07,3,.07,1.84,0,3.74-.06,5.72-.19H219a.68.68,0,0,1,.57.29.72.72,0,0,1,.16.43.65.65,0,0,1-.06.26l-.24.76a1.61,1.61,0,0,1-.52.84,1.36,1.36,0,0,1-.88.33c-1.53.06-2.95.1-4.28.1s-2.49,0-3.59-.08a10,10,0,0,1-3-.53,5.29,5.29,0,0,1-2.16-1.5c-.07-.08-.13-.09-.2,0-.62.55-1.2,1-1.73,1.48a.91.91,0,0,1-.55.2h-.22a.91.91,0,0,1-.62-.51l-.43-.94a1.2,1.2,0,0,1-.12-.52,1.431,1.431,0,0,1,.06-.39,1.33,1.33,0,0,1,.57-.71c.53-.32,1-.64,1.46-.95a.31.31,0,0,0,.12-.24V13.2c0-.09-.05-.13-.14-.13h-.76a1.11,1.11,0,0,1-.81-.35,1.07,1.07,0,0,1-.34-.81v-.37a1.09,1.09,0,0,1,.34-.82,1.13,1.13,0,0,1,.81-.33Zm.84-5.18a1,1,0,0,1,.31.73.581.581,0,0,1,0,.1,1.08,1.08,0,0,1-.41.78l-.55.45a1.08,1.08,0,0,1-.68.25h-.14a1.1,1.1,0,0,1-.76-.41,17.09,17.09,0,0,0-1.54-1.5,1,1,0,0,1-.33-.73.9.9,0,0,1,.35-.74l.37-.29a1.46,1.46,0,0,1,.9-.33h0a1.3,1.3,0,0,1,.86.31,18.568,18.568,0,0,1,1.66,1.38Zm5.25,3.27a.75.75,0,0,1,.33-.5.78.78,0,0,1,.57-.15.09.09,0,0,0,.07,0h0c-.07-.48-.12-1-.16-1.48,0-.09,0-.14-.15-.14h-2.09a1.08,1.08,0,0,1-.82-.34,1.14,1.14,0,0,1-.34-.81V4.53a1.14,1.14,0,0,1,.34-.81,1.08,1.08,0,0,1,.82-.34h3.57a1.13,1.13,0,0,1,.82.34,1.2,1.2,0,0,1,.39.81,30.008,30.008,0,0,0,.36,3.31,19.27,19.27,0,0,0,.76,2.92,9.12,9.12,0,0,0,1.32,2.56,8.43,8.43,0,0,0,2,1.93.81.81,0,0,1,.39.71.78.78,0,0,1-.28.6l-.62.63a1.56,1.56,0,0,1-.82.45h-.2a1.15,1.15,0,0,1-.68-.22,11,11,0,0,1-3.52-5,961.1,961.1,0,0,1-.11,0,12.85,12.85,0,0,1-3.4,5,1.16,1.16,0,0,1-.72.26h-.14a1.4,1.4,0,0,1-.82-.41l-.59-.59a.87.87,0,0,1-.29-.64.93.93,0,0,1,.37-.77,10.69,10.69,0,0,0,3.68-6.79Z" fill="#231815"/>
        <path id="Path_11056" data-name="Path 11056" d="M238.71,13.44a1.39,1.39,0,0,1,.59.74,1.59,1.59,0,0,1,.06.43,1.76,1.76,0,0,1-.1.53l-.51,1.21a.77.77,0,0,1-.57.49h-.21a.81.81,0,0,1-.53-.2l-.53-.43c-.07-.05-.13,0-.17.06a9.75,9.75,0,0,1-3.83,4.32,1.61,1.61,0,0,1-.82.23h-.16a1.63,1.63,0,0,1-.91-.37l-.79-.65a.65.65,0,0,1-.25-.52v-.12a.74.74,0,0,1,.41-.57,8.4,8.4,0,0,0,3.85-4,.16.16,0,0,0-.08-.22,13.63,13.63,0,0,0-3.81-1.36.16.16,0,0,0-.19.11,40.644,40.644,0,0,1-2.11,4.36A4.48,4.48,0,0,1,226.58,19a3.78,3.78,0,0,1-2,.48,3.19,3.19,0,0,1-2.37-.93,3.44,3.44,0,0,1-.93-2.56,5,5,0,0,1,1.88-3.93A8.16,8.16,0,0,1,228,10.22a.22.22,0,0,0,.19-.13c.71-1.64,1.11-2.57,1.21-2.78a.07.07,0,0,0,0-.09.09.09,0,0,0-.08,0c-1.23,0-2.18.08-2.86.12h-.54a.25.25,0,0,1-.12,0,1.09,1.09,0,0,1-1.07-1.03V5.57a.93.93,0,0,1,.31-.78,1,1,0,0,1,.74-.3h.65a37.272,37.272,0,0,0,4-.13l.45-.06a3.64,3.64,0,0,1,.57,0,2.29,2.29,0,0,1,1.44.45l.1.07a1.12,1.12,0,0,1,.39.75v.11a1.32,1.32,0,0,1-.22.75h0a38.9,38.9,0,0,0-1.73,3.84c0,.09,0,.15.07.16a18,18,0,0,1,3.34,1c.1,0,.15,0,.16-.08v-.08q.06-.63.06-1.17a1.05,1.05,0,0,1,.31-.8A.86.86,0,0,1,236,9h.11l.86.1a1.14,1.14,0,0,1,.78.43,1.08,1.08,0,0,1,.3.74.3.3,0,0,1,0,.1,22.213,22.213,0,0,1-.26,2.29.19.19,0,0,0,.1.21Zm-14,2.79c.32,0,.64-.23.93-.68a19.439,19.439,0,0,0,1.27-2.41v-.07h-.08a4.09,4.09,0,0,0-2,1,2.07,2.07,0,0,0-.71,1.46.86.86,0,0,0,.16.53.46.46,0,0,0,.41.17Z" fill="#231815"/>
        <path id="Path_11057" data-name="Path 11057" d="M246.33,4.86a1.15,1.15,0,0,1,.37-.78,1,1,0,0,1,.68-.25h.12l1.27.13a1.059,1.059,0,0,1,.92,1.02.85.85,0,0,1,0,.23,3.653,3.653,0,0,1-.16.77c-.07.29-.18.89-.31,1.46a.09.09,0,0,0,0,.1.13.13,0,0,0,.1,0c.45,0,.85-.06,1.19-.06,2.52,0,3.79,1.35,3.79,4a30.5,30.5,0,0,1-.27,4,10.58,10.58,0,0,1-.85,3.22,3,3,0,0,1-1.33,1.47,4.53,4.53,0,0,1-2.12.44,9.93,9.93,0,0,1-1.27-.08,1.36,1.36,0,0,1-.87-.44,1.61,1.61,0,0,1-.44-.88l-.16-.9V18.3a.77.77,0,0,1,.76-.76h.18a7.06,7.06,0,0,0,1.29.17,1.37,1.37,0,0,0,1.35-.76,7.35,7.35,0,0,0,.54-2.15,21.849,21.849,0,0,0,.2-2.93,1.59,1.59,0,0,0-.41-1.31,2.42,2.42,0,0,0-1.43-.31h-.78a.2.2,0,0,0-.17.16,47.5,47.5,0,0,1-3.36,9.41,1.3,1.3,0,0,1-.71.61,1.26,1.26,0,0,1-.43.08,1.15,1.15,0,0,1-.5-.12l-1-.39a.89.89,0,0,1-.53-.59.79.79,0,0,1-.06-.29,1,1,0,0,1,.16-.51,30,30,0,0,0,3.22-7.85s0-.05,0-.08a.15.15,0,0,0-.09,0c-.11,0-.47.08-1.1.16l-1.29.18h-.17a1.068,1.068,0,0,1-1.06-.98l-.08-.92a1,1,0,0,1,.28-.78,1.09,1.09,0,0,1,.78-.35h1.15c.31,0,1-.06,2.13-.14A.17.17,0,0,0,246,7.7a23.439,23.439,0,0,0,.33-2.84Zm11,.43a.6.6,0,0,1,0,.52.55.55,0,0,1-.35.36.09.09,0,0,0,0,.12,24.8,24.8,0,0,1,1.49,2.8c.52,1.13.95,2.17,1.31,3.14a1.25,1.25,0,0,1,.07.43,1.129,1.129,0,0,1-.11.48,1.29,1.29,0,0,1-.65.67l-1,.45a.94.94,0,0,1-.39.1,1.11,1.11,0,0,1-.41-.1.91.91,0,0,1-.5-.63,22,22,0,0,0-2.33-5.58,1.12,1.12,0,0,1-.13-.53,1.239,1.239,0,0,1,0-.27.9.9,0,0,1,.53-.61l.53-.21a.14.14,0,0,0,.08-.2c-.33-.62-.59-1.11-.78-1.44a.9.9,0,0,1-.12-.43.84.84,0,0,1,.06-.3.8.8,0,0,1,.49-.51,1.12,1.12,0,0,1,.44-.09,1.31,1.31,0,0,1,.38.06,1.11,1.11,0,0,1,.64.5,9.076,9.076,0,0,1,.76,1.27ZM259.67,4a.85.85,0,0,1,.06.75.94.94,0,0,1-.53.56,1.13,1.13,0,0,1-.78,0,1.07,1.07,0,0,1-.61-.53c-.19-.36-.38-.7-.56-1a.67.67,0,0,1-.14-.43.84.84,0,0,1,0-.27.81.81,0,0,1,.49-.53,1.33,1.33,0,0,1,.45-.08,1.15,1.15,0,0,1,.37.06,1.2,1.2,0,0,1,.66.51C259.3,3.37,259.49,3.68,259.67,4Z" fill="#231815"/>
        <path id="Path_11058" data-name="Path 11058" d="M278.83,17.15a.54.54,0,0,1-.12,1l-1.48.51h0a13.264,13.264,0,0,0,1.83-.08h.06a.67.67,0,0,1,.57.3.68.68,0,0,1,.15.43.861.861,0,0,1,0,.27c-.06.17-.11.34-.16.51a1.81,1.81,0,0,1-.55.81,1.44,1.44,0,0,1-.88.34c-1.7.07-3.29.1-4.76.1s-2.71,0-3.91-.08a8.72,8.72,0,0,1-2.92-.55,5,5,0,0,1-2-1.52q-.07-.12-.18,0-.62.66-1.44,1.44a.81.81,0,0,1-.57.24h-.17a.81.81,0,0,1-.61-.47l-.33-.7a1.42,1.42,0,0,1-.14-.59,1.22,1.22,0,0,1,.06-.35,1.27,1.27,0,0,1,.53-.76l1.11-.86a.32.32,0,0,0,.12-.26V13.2c0-.09-.05-.13-.16-.13h-.54a1.09,1.09,0,0,1-.82-.35,1.07,1.07,0,0,1-.34-.81v-.37a1.09,1.09,0,0,1,.34-.82,1.11,1.11,0,0,1,.82-.33h2.24a1.127,1.127,0,0,1,1.15,1.15v5.12a.48.48,0,0,0,.08.27A3.48,3.48,0,0,0,268,18.5h0c-.24-.22-.5-.45-.8-.69a.51.51,0,0,1-.22-.43v-.13a.6.6,0,0,1,.41-.45,12.859,12.859,0,0,0,2-.8h-2.11a1.06,1.06,0,0,1-.76-.3,1.075,1.075,0,0,1,0-1.49,1.06,1.06,0,0,1,.76-.3h1.85a.14.14,0,0,0,.16-.16v-.72c0-.09-.05-.14-.16-.14H267.8a1.008,1.008,0,0,1-1.01-1.03.936.936,0,0,1,.93-1.17h1.39c.07,0,.1,0,.1-.09a.76.76,0,0,1,.21-.54.75.75,0,0,1,.55-.23h1.19a.74.74,0,0,1,.54.23.73.73,0,0,1,.22.54c0,.06,0,.09.1.09h1.58c.07,0,.1,0,.1-.09a.74.74,0,0,1,.23-.54.7.7,0,0,1,.53-.23h1.23a.74.74,0,0,1,.54.23.73.73,0,0,1,.22.54c0,.06,0,.09.1.09h1.47a1.035,1.035,0,0,1,0,2.07h-1.41c-.1,0-.16.05-.16.14v.72a.14.14,0,0,0,.16.16h2a1.045,1.045,0,1,1,0,2.09h-2.17C277.38,16.39,278.18,16.8,278.83,17.15ZM265.21,5.41a1.12,1.12,0,0,1,.2.63,2.008,2.008,0,0,1,0,.23,1.2,1.2,0,0,1-.53.74l-.54.37a1.1,1.1,0,0,1-.57.16.84.84,0,0,1-.27,0,1.07,1.07,0,0,1-.69-.51,16.754,16.754,0,0,0-1.19-1.58,1,1,0,0,1-.23-.62.41.41,0,0,1,0-.16.94.94,0,0,1,.43-.7l.35-.22a1.45,1.45,0,0,1,.76-.21h.18a1.32,1.32,0,0,1,.84.43,14.938,14.938,0,0,1,1.26,1.44Zm4.54.1c.09,0,.13,0,.13-.16V5.1c0-.11,0-.16-.13-.16h-2.5a.89.89,0,0,1-.64-.25.86.86,0,0,1-.26-.63.9.9,0,0,1,.9-.9h3.9a1.09,1.09,0,0,1,.82.35,1.1,1.1,0,0,1,.33.81V6.41a.89.89,0,0,1-.89.89h0a3.41,3.41,0,0,0,.66.3,1.26,1.26,0,0,1,.74.58.8.8,0,0,1,.14.41.69.69,0,0,1-.14.39,2,2,0,0,1-1.81.73h-1.9a2.9,2.9,0,0,1-2-.5,2.59,2.59,0,0,1-.52-1.89V6.66a1.144,1.144,0,0,1,1.15-1.15Zm1.3,10.35h0l.4.13a.65.65,0,0,1,.43.49v.14a.54.54,0,0,1-.26.45,15.061,15.061,0,0,1-2.71,1.46h0l.62.06c1,0,2,.06,3.2.06s2.43,0,3.81-.06h0v-.06a18.722,18.722,0,0,0-2.13-1.38.6.6,0,0,1-.33-.57.59.59,0,0,1,.31-.53l.36-.19h-3.7Zm-1.56-8h1.17A.56.56,0,0,0,271,7.8a.55.55,0,0,0,.14-.36c0-.09,0-.14-.11-.14h-1.92a.15.15,0,0,0-.16.16.56.56,0,0,0,.12.35.74.74,0,0,0,.42.08Zm2.6,4.86a.13.13,0,0,0-.14.14v.72c0,.11.05.16.14.16h1.48a.14.14,0,0,0,.16-.16v-.72c0-.09-.05-.14-.16-.14Zm4.28-7.24c.09,0,.13,0,.13-.16V5.1c0-.11,0-.16-.13-.16h-2.66a.89.89,0,0,1-.88-.88.85.85,0,0,1,.27-.63.82.82,0,0,1,.61-.27h4.1a1.09,1.09,0,0,1,.82.35,1.1,1.1,0,0,1,.33.81v2a1,1,0,0,1-1,1v.06a3.41,3.41,0,0,0,.66.3,1.38,1.38,0,0,1,.75.58.78.78,0,0,1,.13.41.67.67,0,0,1-.13.39,2.06,2.06,0,0,1-1.84.73h-1.86a2.93,2.93,0,0,1-2-.5,2.64,2.64,0,0,1-.52-1.89V6.66a1.161,1.161,0,0,1,1.16-1.15Zm-.3,2.38h1.18a.5.5,0,0,0,.33-.09.68.68,0,0,0,.15-.36c0-.09,0-.14-.11-.14H275.7a.14.14,0,0,0-.15.16.51.51,0,0,0,.11.35.77.77,0,0,0,.41.11Z" fill="#231815"/>
        <path id="Path_11059" data-name="Path 11059" d="M282.5,5.37a1.25,1.25,0,0,1,.41-.78,1.08,1.08,0,0,1,.72-.27h.1l1,.09a.94.94,0,0,1,.68.39,1,1,0,0,1,.18.55,1.09,1.09,0,0,1,0,.26c-.08.3-.15.6-.22.91-.14.63-.33,1.82-.56,3.59a32.123,32.123,0,0,0-.36,3.89v.32h.05a4.922,4.922,0,0,1,.28-.57.69.69,0,0,1,.5-.41h.18a.72.72,0,0,1,.45.18,1.22,1.22,0,0,1,.45.64,1.321,1.321,0,0,1,.06.39,1.15,1.15,0,0,1-.08.41c-.56,1.76-.94,3.11-1.14,4a4.535,4.535,0,0,0-.11.69,1.48,1.48,0,0,1-.36.85,1.08,1.08,0,0,1-.78.38h-.5a1.29,1.29,0,0,1-.82-.28,1.26,1.26,0,0,1-.53-.78,24.388,24.388,0,0,1-.53-5.21,58.533,58.533,0,0,1,.78-8.23C282.43,6,282.47,5.64,282.5,5.37Zm14.55,1.82h.18a.915.915,0,0,1,.95.95v.67a1.28,1.28,0,0,1-.32.88,1.25,1.25,0,0,1-.81.43l-1.62.15a.15.15,0,0,0-.14.16c0,.68.08,2,.2,4.08a.21.21,0,0,0,.13.22,10.85,10.85,0,0,1,2.8,1.73,1.21,1.21,0,0,1,.45.83,1.113,1.113,0,0,1,0,.17,1.42,1.42,0,0,1-.22.74l-.37.57a1,1,0,0,1-.7.45h-.14a1,1,0,0,1-.64-.26c-.41-.35-.79-.66-1.16-.93a.06.06,0,0,0-.08,0,.053.053,0,0,0-.05.06C295.2,20,293.85,21,291.46,21a5.67,5.67,0,0,1-3.36-.89,2.93,2.93,0,0,1-1.24-2.55,3.18,3.18,0,0,1,1.25-2.65,5.25,5.25,0,0,1,3.32-1h.86c.09,0,.13-.06.13-.16-.06-1.21-.11-2.28-.13-3.2a.13.13,0,0,0-.14-.14h-1c-.79,0-1.59,0-2.38-.06A1.18,1.18,0,0,1,288,10a1.15,1.15,0,0,1-.34-.84V8.61a1.058,1.058,0,0,1,1.05-1.05h.08c.79.05,1.59.08,2.4.08h1c.09,0,.14-.06.14-.16V6.03a4.191,4.191,0,0,0,0-.42V5.29a1,1,0,0,1,.27-.7.94.94,0,0,1,.74-.35h1.12a1,1,0,0,1,.76.35,1.08,1.08,0,0,1,.27.72v.26c0,.32,0,.89-.06,1.72,0,.09.05.13.14.11C296,7.35,296.5,7.28,297.05,7.19Zm-4.53,9.33a.16.16,0,0,0-.14-.17,5.3,5.3,0,0,0-1.19-.14,2.24,2.24,0,0,0-1.12.25.81.81,0,0,0-.42.73c0,.62.51.93,1.54.93a1.21,1.21,0,0,0,1-.39,1.91,1.91,0,0,0,.33-1.21ZM297.87,5.2a.84.84,0,0,1,0,.27.71.71,0,0,1-.1.37.87.87,0,0,1-.51.43.77.77,0,0,1-.25,0,.71.71,0,0,1-.37-.1.83.83,0,0,1-.43-.49Q296,5,295.86,4.55a.921.921,0,0,1,0-.29A.68.68,0,0,1,295.9,4a.67.67,0,0,1,.45-.4.86.86,0,0,1,.27,0,.78.78,0,0,1,.37.09.84.84,0,0,1,.47.47A9.04,9.04,0,0,1,297.87,5.2ZM300,4.55a.841.841,0,0,1,0,.27.8.8,0,0,1-.1.38.87.87,0,0,1-.49.41,1,1,0,0,1-.25,0,.81.81,0,0,1-.37-.09.86.86,0,0,1-.43-.49c-.15-.44-.28-.83-.41-1.15a.81.81,0,0,1,0-.61.7.7,0,0,1,.45-.41.92.92,0,0,1,.29,0,1,1,0,0,1,.37.08.83.83,0,0,1,.45.47A8.163,8.163,0,0,1,300,4.55Z" fill="#231815"/>
        <path id="Path_11060" data-name="Path 11060" d="M318.63,16.23a.61.61,0,0,1,.37-.14.65.65,0,0,1,.26.06.54.54,0,0,1,.37.49l.14,1.07V18a2.3,2.3,0,0,1-.16.82,1.47,1.47,0,0,1-.65.74,5.46,5.46,0,0,1-2.85.74,2.33,2.33,0,0,1-1.92-.88,3.65,3.65,0,0,1-.71-2.4,25.753,25.753,0,0,1,.34-3.43,25.6,25.6,0,0,0,.34-3.13,1.5,1.5,0,0,0-.31-1,1.13,1.13,0,0,0-.88-.35,4,4,0,0,0-2.22,1,18.071,18.071,0,0,0-2.59,2.38.37.37,0,0,0-.09.26v1.09c0,2.29,0,4.07.13,5.33v.57a.15.15,0,0,1,0,.1,1,1,0,0,1-1.05,1h-1a1.09,1.09,0,0,1-1.11-1.11V19.2c0-1.31,0-2.43.06-3.34v-.05h-.06c-.17.26-.41.62-.73,1.08l-.62.91a.74.74,0,0,1-.65.36.79.79,0,0,1-.68-.34l-.53-.76a1.5,1.5,0,0,1-.27-.88,1.46,1.46,0,0,1,.33-.95q2-2.58,3.36-4.48a.46.46,0,0,0,.08-.25l.06-.78a.14.14,0,0,0-.05-.1.08.08,0,0,0-.09,0l-2.19.27H303a1.08,1.08,0,0,1-1.1-1l-.07-.78V8a1,1,0,0,1,.27-.68,1.08,1.08,0,0,1,.76-.36h.82q1.09-.09,1.86-.21a.16.16,0,0,0,.15-.16V4.53a1,1,0,0,1,.31-.77.91.91,0,0,1,.71-.32h1.17a.89.89,0,0,1,.74.37,1,1,0,0,1,.22.6.9.9,0,0,1,0,.18c-.07.45-.14,1-.22,1.56a.4.4,0,0,0,.06.26,1.39,1.39,0,0,1,.31.91,1.5,1.5,0,0,1-.27.88l-.43.63a.08.08,0,0,0,0,.05h0c2.17-1.81,4-2.72,5.53-2.72a3.33,3.33,0,0,1,2.48.86,3,3,0,0,1,.84,2.21,29.466,29.466,0,0,1-.32,3.41,30.925,30.925,0,0,0-.31,3.4.69.69,0,0,0,.17.49.59.59,0,0,0,.46.18,2.76,2.76,0,0,0,1.49-.48Z" fill="#231815"/>
        <path id="Path_11061" data-name="Path 11061" d="M333.57,4.18h.24a1.91,1.91,0,0,1,.78.16,1.68,1.68,0,0,1,.78.6l.16.24a1,1,0,0,1,.19.6.958.958,0,0,1-.49.96l-.54.35c-.33.22-.69.49-1.1.79l-1.64,1.27c-.69.54-1.05.83-1.09.87h0a.06.06,0,0,0,.05,0,7.18,7.18,0,0,1,5.56,1.38,4.63,4.63,0,0,1,1.74,3.68,5.424,5.424,0,0,1-1.74,4.07,6.07,6.07,0,0,1-2.31,1.27,11.07,11.07,0,0,1-3.31.46,6.7,6.7,0,0,1-3.64-.94,2.86,2.86,0,0,1-1.48-2.54,3.08,3.08,0,0,1,1.11-2.35,3.91,3.91,0,0,1,2.74-1,4.52,4.52,0,0,1,2.85.87,3.83,3.83,0,0,1,1.45,2.28v.05a.06.06,0,0,0,.08,0,2.62,2.62,0,0,0,1-2.2,2.31,2.31,0,0,0-1.11-2,4.86,4.86,0,0,0-2.8-.77,6.61,6.61,0,0,0-3.26.83A11.56,11.56,0,0,0,325,15.53a1,1,0,0,1-.76.37h-.06a1,1,0,0,1-.72-.31l-.59-.61a1.07,1.07,0,0,1,.1-1.56l2-1.69,1.83-1.5,1.79-1.46,2-1.64a.2.2,0,0,0,0-.07.05.05,0,0,0-.05,0c-1.57,0-2.89.1-4,.18h-.74a1.11,1.11,0,0,1-1.07-1.04V5.4a.92.92,0,0,1,.31-.76,1,1,0,0,1,.74-.29h.94a57.58,57.58,0,0,0,6.19-.17,5.67,5.67,0,0,0,.66,0Zm-3.36,14h.75c.1,0,.15-.06.13-.15a2.13,2.13,0,0,0-.5-1.21,1.34,1.34,0,0,0-1-.45,1.08,1.08,0,0,0-.74.23.73.73,0,0,0-.28.55.9.9,0,0,0,.46.76,2.27,2.27,0,0,0,1.18.31Z" fill="#231815"/>
        <path id="Path_11062" data-name="Path 11062" d="M10.94,2.64a1.16,1.16,0,0,1,1.15,1.15V9.36c0,.1.05.15.14.15h5a1.13,1.13,0,0,1,.81.33,1.15,1.15,0,0,1,.34.82v9.81a1.14,1.14,0,0,1-1.15,1.15H16a.68.68,0,0,1-.69-.68c0-.07,0-.1-.09-.1H3.65a1.13,1.13,0,0,1-.81-.33,1.09,1.09,0,0,1-.34-.82V19.1a1.09,1.09,0,0,1,.34-.82A1.13,1.13,0,0,1,3.65,18H15.14c.1,0,.15-.05.15-.16V16.62a.14.14,0,0,0-.15-.16H4.84a1.128,1.128,0,0,1-1.17-1.15v-.49A1.14,1.14,0,0,1,4,14a1.12,1.12,0,0,1,.82-.33h10.3a.13.13,0,0,0,.15-.15v-.94c0-.11,0-.16-.15-.16h-11a1.13,1.13,0,0,1-.81-.33A1.09,1.09,0,0,1,3,11.27v-.61a1.11,1.11,0,0,1,.34-.82,1.13,1.13,0,0,1,.81-.33H8.73c.09,0,.14,0,.14-.15V3.79A1.16,1.16,0,0,1,10,2.64ZM7,6.82a1.26,1.26,0,0,1,.08.43A1.12,1.12,0,0,1,7,7.7a1.18,1.18,0,0,1-.64.64l-.71.27a.81.81,0,0,1-.39.1.9.9,0,0,1-.43-.12A1.07,1.07,0,0,1,4.26,8,20.17,20.17,0,0,0,3,5.39a1,1,0,0,1-.14-.49,1.05,1.05,0,0,1,.06-.33A.94.94,0,0,1,3.48,4L4,3.79a1.56,1.56,0,0,1,.55-.1A1.31,1.31,0,0,1,5,3.77a1.25,1.25,0,0,1,.76.57A18.49,18.49,0,0,1,7,6.82ZM15.18,4.3a1.22,1.22,0,0,1,.56-.71,1.25,1.25,0,0,1,.57-.13,1.1,1.1,0,0,1,.31,0l1.06.29a1,1,0,0,1,.62.55.81.81,0,0,1,.1.39.78.78,0,0,1-.12.41c-.55,1.13-1.07,2.13-1.58,3a1.4,1.4,0,0,1-.74.61,1.62,1.62,0,0,1-.49.08A1.55,1.55,0,0,1,15,8.73l-.41-.14A.94.94,0,0,1,14,8a1.09,1.09,0,0,1,0-.82A27.3,27.3,0,0,0,15.18,4.3Z" fill="none" stroke="#0154ac" stroke-miterlimit="10" stroke-width="5"/>
        <path id="Path_11063" data-name="Path 11063" d="M35.74,7.34c0,.09,0,.14.16.14h2.26a1.08,1.08,0,0,1,.73.27,1,1,0,0,1,.35.75v.9a1,1,0,0,1-.35.78,1.15,1.15,0,0,1-.78.31H35.9c-.11,0-.16,0-.16.14v.5a18.61,18.61,0,0,1-.22,3.06,9.9,9.9,0,0,1-.8,2.56,7.74,7.74,0,0,1-1.6,2.21,10.55,10.55,0,0,1-2.53,1.76,1.61,1.61,0,0,1-.73.18h-.25a1.61,1.61,0,0,1-.9-.45l-.92-.86a.65.65,0,0,1-.23-.49.39.39,0,0,1,0-.15.7.7,0,0,1,.45-.53,7.3,7.3,0,0,0,3.5-2.59,8.35,8.35,0,0,0,1-4.6v-.58c0-.1,0-.14-.16-.14h-3.9c-.11,0-.16,0-.16.14v3.43a1.07,1.07,0,0,1-1.08,1.1h-.96a1.07,1.07,0,0,1-1.07-1.08V10.61c0-.1-.05-.14-.15-.14H22.66a1.144,1.144,0,0,1-1.12-1.1v-1a.9.9,0,0,1,.36-.74,1,1,0,0,1,.68-.26H25.1c.1,0,.15-.05.15-.14V4.88a1.08,1.08,0,0,1,.27-.72,1,1,0,0,1,.78-.33h1.13a1,1,0,0,1,.76.33,1.07,1.07,0,0,1,.28.74V7.34c0,.09.05.14.16.14h3.9c.11,0,.16-.05.16-.14V4.73A1.21,1.21,0,0,1,32.83,4a1,1,0,0,1,.76-.33h1.16a1,1,0,0,1,.76.33,1.08,1.08,0,0,1,.27.73v.92Z" fill="none" stroke="#0154ac" stroke-miterlimit="10" stroke-width="5"/>
        <path id="Path_11064" data-name="Path 11064" d="M53.32,9.82a.27.27,0,0,0-.14.24v7.83l.06,1.84a1.08,1.08,0,0,1-.27.72.94.94,0,0,1-.72.33H50.7a1,1,0,0,1-.76-.33,1.08,1.08,0,0,1-.29-.74l.06-1.82V12a.1.1,0,0,0,0-.08h-.1a35.25,35.25,0,0,1-5.29,2.13,1.35,1.35,0,0,1-.43.08,1.31,1.31,0,0,1-.53-.12,1.6,1.6,0,0,1-.74-.62l-.55-1a.83.83,0,0,1-.12-.41.89.89,0,0,1,.08-.35.8.8,0,0,1,.59-.49,27.67,27.67,0,0,0,8-3.34,21.8,21.8,0,0,0,4.5-3.67,1.18,1.18,0,0,1,.78-.39H56a1,1,0,0,1,.7.27l.9.8a1,1,0,0,1,.35.8,1,1,0,0,1-.33.77,33.439,33.439,0,0,1-4.3,3.44Z" fill="none" stroke="#0154ac" stroke-miterlimit="10" stroke-width="5"/>
        <path id="Path_11065" data-name="Path 11065" d="M77,11.62a1.09,1.09,0,0,1,.63.63,1.2,1.2,0,0,1,.09.45,1.12,1.12,0,0,1-.09.44l-.51,1.25a1.15,1.15,0,0,1-1,.69,1,1,0,0,1-.45-.12c-1.55-.71-3.45-1.48-5.72-2.3h-.09a.09.09,0,0,0-.05.08v5q0,.51.12,1.86v.12a1,1,0,0,1-1,1H67.4a1,1,0,0,1-.76-.33,1.07,1.07,0,0,1-.25-.7v-.1c.06-.72.09-1.34.09-1.88V6.33a10.338,10.338,0,0,0-.07-1.47V4.75a1.07,1.07,0,0,1,.25-.69,1,1,0,0,1,.74-.33h1.47a1,1,0,0,1,.78.33,1.08,1.08,0,0,1,.25.71v.09c-.05.55-.08,1-.08,1.47v2.6A.16.16,0,0,0,70,9.1a63.8,63.8,0,0,1,7,2.52Z" fill="none" stroke="#0154ac" stroke-miterlimit="10" stroke-width="5"/>
        <path id="Path_11066" data-name="Path 11066" d="M86.41,4.69a1.07,1.07,0,0,1,.35-.78.93.93,0,0,1,.68-.28h.12l1.27.14a1.023,1.023,0,0,1,.92,1,1,1,0,0,1,0,.23,3.732,3.732,0,0,1-.16.78c-.07.29-.18.89-.31,1.47a.14.14,0,0,0,0,.09.1.1,0,0,0,.09,0c.45,0,.85-.06,1.19-.06,2.52,0,3.79,1.35,3.79,4.05a30.349,30.349,0,0,1-.27,4,10.58,10.58,0,0,1-.85,3.22,3.07,3.07,0,0,1-1.34,1.47,4.45,4.45,0,0,1-2.11.45,12,12,0,0,1-1.27-.08,1.47,1.47,0,0,1-.87-.45,1.6,1.6,0,0,1-.44-.9l-.2-.78v-.14a.73.73,0,0,1,.24-.54.72.72,0,0,1,.52-.22h.18a7.63,7.63,0,0,0,1.31.16,1.35,1.35,0,0,0,1.33-.76,7.19,7.19,0,0,0,.54-2.13,22.149,22.149,0,0,0,.2-3,1.61,1.61,0,0,0-.41-1.32,2.53,2.53,0,0,0-1.43-.3H88.7a.18.18,0,0,0-.18.15c-.43,1.63-.93,3.29-1.52,5a35,35,0,0,1-1.83,4.43,1.24,1.24,0,0,1-.71.58,1.06,1.06,0,0,1-.43.08,1.32,1.32,0,0,1-.51-.1l-1-.39a.88.88,0,0,1-.53-.58A.84.84,0,0,1,82,19a.83.83,0,0,1,.16-.5,30.5,30.5,0,0,0,3.22-7.86.05.05,0,0,0,0-.07.09.09,0,0,0-.08,0l-1.11.15-1.29.18h-.17a1.08,1.08,0,0,1-.67-.24,1.06,1.06,0,0,1-.39-.74L81.54,9a1,1,0,0,1,.28-.78,1.1,1.1,0,0,1,.78-.34h1.15c.33,0,1-.06,2.13-.13a.16.16,0,0,0,.17-.16,27.05,27.05,0,0,0,.36-2.9Zm8.14,3.06a1,1,0,0,1-.14-.5,1.77,1.77,0,0,1,0-.3A.84.84,0,0,1,95,6.37l.76-.32a1.4,1.4,0,0,1,.53-.11A1.51,1.51,0,0,1,96.7,6a1.16,1.16,0,0,1,.72.6,37,37,0,0,1,2.44,5.45,1.09,1.09,0,0,1,.08.43,1.14,1.14,0,0,1-.12.49,1.25,1.25,0,0,1-.64.66l-1,.45a.91.91,0,0,1-.41.1.81.81,0,0,1-.39-.1.92.92,0,0,1-.52-.62,23.42,23.42,0,0,0-2.31-5.71Z" fill="none" stroke="#0154ac" stroke-miterlimit="10" stroke-width="5"/>
        <path id="Path_11067" data-name="Path 11067" d="M104.32,8.36a1.108,1.108,0,0,1,1.05-1.02h.16l.93.12a1.12,1.12,0,0,1,.73.45,1.08,1.08,0,0,1,.19.62.86.86,0,0,1,0,.22c-.21,1.05-.36,2-.45,2.87a.1.1,0,0,0,0,.07.05.05,0,0,0,.08,0,10.1,10.1,0,0,1,5.35-1.5,7.38,7.38,0,0,1,2.46.39,4.89,4.89,0,0,1,1.82,1.06,4.77,4.77,0,0,1,1.08,1.51,4.13,4.13,0,0,1,.38,1.76,6.14,6.14,0,0,1-.31,2,4.91,4.91,0,0,1-1,1.73A5.79,5.79,0,0,1,114.85,20a10.92,10.92,0,0,1-2.94.78,19.45,19.45,0,0,1-2.63.16h-1.43a1.52,1.52,0,0,1-.92-.35,1.6,1.6,0,0,1-.54-.82l-.3-.94a1,1,0,0,1,0-.24.62.62,0,0,1,.2-.44.7.7,0,0,1,.57-.28h.09a20.539,20.539,0,0,0,2.25.14,9.44,9.44,0,0,0,3.54-.57,2.7,2.7,0,0,0,2-2.54,1.67,1.67,0,0,0-.75-1.39,3.09,3.09,0,0,0-1.91-.56,7.57,7.57,0,0,0-2.9.56A5.58,5.58,0,0,0,107,15.06l-.21.27a2,2,0,0,1-.8.61,1.4,1.4,0,0,1-.59.13,1.69,1.69,0,0,1-.33,0l-.51-.14a1.24,1.24,0,0,1-.94-1.19v-.22Q104.09,11.46,104.32,8.36Zm3.22-1.74a1.14,1.14,0,0,1-.72-.53,1.06,1.06,0,0,1-.16-.56,1.13,1.13,0,0,1,0-.3l.18-.64a1,1,0,0,1,.52-.7,1.11,1.11,0,0,1,.59-.16,1,1,0,0,1,.29,0q2.44.59,5.82,1.09a1.013,1.013,0,0,1,.9,1,2.45,2.45,0,0,1,0,.27l-.18.73a1.25,1.25,0,0,1-1.19.95.71.71,0,0,1-.21,0Q110.7,7.33,107.54,6.62Z" fill="none" stroke="#0154ac" stroke-miterlimit="10" stroke-width="5"/>
        <path id="Path_11068" data-name="Path 11068" d="M132.66,20.51a1.29,1.29,0,0,1-.37.06,1.47,1.47,0,0,1-.61-.14,1.76,1.76,0,0,1-.78-.64l-.57-.92a.65.65,0,0,1-.12-.37,1.06,1.06,0,0,1,.06-.34.81.81,0,0,1,.57-.43l.8-.19a5.67,5.67,0,0,0,3.08-1.77,4.72,4.72,0,0,0,1.12-3.21A5.56,5.56,0,0,0,135,9.38a4.16,4.16,0,0,0-2.49-1.7.13.13,0,0,0-.18.11,42.718,42.718,0,0,1-1.13,5,15.48,15.48,0,0,1-2.27,4.87,3.82,3.82,0,0,1-3,1.75,3.69,3.69,0,0,1-3.07-1.75,7.28,7.28,0,0,1-1.25-4.3,7.84,7.84,0,0,1,.73-3.33,8.66,8.66,0,0,1,2-2.77,9.3,9.3,0,0,1,3-1.89,9.78,9.78,0,0,1,3.7-.7,9.25,9.25,0,0,1,3.4.61A7.32,7.32,0,0,1,136.92,7a7.7,7.7,0,0,1,1.63,2.53,8.19,8.19,0,0,1,.59,3.16,7.74,7.74,0,0,1-1.63,5,8.7,8.7,0,0,1-4.85,2.82Zm-4.61-8.32a28.1,28.1,0,0,0,1-4.34.06.06,0,0,0,0-.09.09.09,0,0,0-.09,0,5.81,5.81,0,0,0-2.36,1.33,6,6,0,0,0-1.45,2,5.11,5.11,0,0,0-.45,2A4.07,4.07,0,0,0,125,15a1.07,1.07,0,0,0,.92.69c.37,0,.73-.28,1.05-.85a13.281,13.281,0,0,0,1.08-2.65Z" fill="none" stroke="#0154ac" stroke-miterlimit="10" stroke-width="5"/>
        <path id="Path_11069" data-name="Path 11069" d="M149.12,10.49v.6c0,.11,0,.15.16.12a16,16,0,0,1,3.34-.39,7.47,7.47,0,0,1,2.86.52,4.67,4.67,0,0,1,2.06,1.56,4,4,0,0,1,.78,2.47,5,5,0,0,1-1,3.17,6,6,0,0,1-3.43,1.91,12.4,12.4,0,0,1-1.53.23.52.52,0,0,1-.17,0,1.36,1.36,0,0,1-.76-.23,1.61,1.61,0,0,1-.61-.76l-.33-.94a.84.84,0,0,1,0-.27.86.86,0,0,1,.14-.47.78.78,0,0,1,.68-.35,12.14,12.14,0,0,0,1.33-.14,4.21,4.21,0,0,0,1.91-.75,1.74,1.74,0,0,0,.72-1.44A1.61,1.61,0,0,0,154.5,14a3.29,3.29,0,0,0-1.92-.5,13.08,13.08,0,0,0-3.24.41.136.136,0,0,0-.14.17c.05,1.9.08,3,.08,3.34a4.37,4.37,0,0,1-.63,2.73,2.19,2.19,0,0,1-1.79.75,5.33,5.33,0,0,1-2.24-.52,5.26,5.26,0,0,1-1.93-1.46,3.11,3.11,0,0,1-.8-2,3.71,3.71,0,0,1,1.23-2.56,9.63,9.63,0,0,1,3.11-2.11.22.22,0,0,0,.14-.22V9.65a.13.13,0,0,0-.14-.14h-2.46a1.12,1.12,0,0,1-.82-.38,1.28,1.28,0,0,1-.35-.85V7.64a.91.91,0,0,1,.31-.76,1,1,0,0,1,.72-.3h2.6a.14.14,0,0,0,.14-.16V4.47a1,1,0,0,1,.29-.72,1,1,0,0,1,.76-.35h1a1.037,1.037,0,0,1,1.02,1.03v.12a4.418,4.418,0,0,1-.06.78l-.06.86a.13.13,0,0,0,0,.1.12.12,0,0,0,.1,0c.75-.11,1.47-.24,2.14-.39a1,1,0,0,1,.24,0,.85.85,0,0,1,.54.19.94.94,0,0,1,.38.71v.7a1.33,1.33,0,0,1-.3.89,1.21,1.21,0,0,1-.8.48c-.68.11-1.44.22-2.28.31a.16.16,0,0,0-.16.18A6.592,6.592,0,0,0,149.12,10.49Zm-3.22,7.09a.57.57,0,0,0,.42-.15.94.94,0,0,0,.14-.63V15.1a.09.09,0,0,0,0-.08h-.08c-1,.59-1.47,1.15-1.47,1.7a.72.72,0,0,0,.37.59A1.16,1.16,0,0,0,145.9,17.58Zm8.69-9.2a1.06,1.06,0,0,1-.57-.67,1,1,0,0,1-.06-.33,1.07,1.07,0,0,1,.14-.52l.2-.32A1.18,1.18,0,0,1,155,6a1.24,1.24,0,0,1,.37-.06,1,1,0,0,1,.53.14c1.14.55,2.16,1.1,3.05,1.62a1.12,1.12,0,0,1,.52.72.92.92,0,0,1,0,.29,1.2,1.2,0,0,1-.15.59l-.28.45a1,1,0,0,1-.68.5,1.06,1.06,0,0,1-.26,0,1,1,0,0,1-.58-.17C156.67,9.51,155.68,9,154.59,8.38Z" fill="none" stroke="#0154ac" stroke-miterlimit="10" stroke-width="5"/>
        <path id="Path_11070" data-name="Path 11070" d="M171.93,5.18c0,.1,0,.15.14.15h5.59a1.13,1.13,0,0,1,.81.33,1.15,1.15,0,0,1,.34.82v9.93a1.15,1.15,0,0,1-.34.82,1.13,1.13,0,0,1-.81.33h-1.1a.74.74,0,0,1-.56-.24.71.71,0,0,1-.24-.54c0-.08,0-.12-.1-.12h-3.59c-.09,0-.14.05-.14.16v3.67a1.09,1.09,0,0,1-.34.82,1.13,1.13,0,0,1-.81.33H170a1.13,1.13,0,0,1-.81-.33,1.09,1.09,0,0,1-.34-.82V16.82c0-.11,0-.16-.14-.16h-3.48c-.07,0-.11,0-.11.12a.9.9,0,0,1-.28.64.88.88,0,0,1-.64.28h-.84a1.11,1.11,0,0,1-.81-.35,1.07,1.07,0,0,1-.34-.81V6.48a1.11,1.11,0,0,1,.34-.82,1.13,1.13,0,0,1,.81-.33h5.35c.09,0,.14,0,.14-.15V3.79A1.16,1.16,0,0,1,170,2.64h.74a1.16,1.16,0,0,1,1.15,1.15Zm-3,3.08c0-.1,0-.15-.14-.15h-3.46c-.09,0-.13.05-.13.15V9.49c0,.11,0,.16.13.16h3.46c.09,0,.14-.05.14-.16Zm-3.73,5.47c0,.1,0,.16.13.16h3.46c.09,0,.14-.06.14-.16V12.46c0-.1,0-.16-.14-.16h-3.46c-.09,0-.13.06-.13.16Zm10.6-5.47c0-.1,0-.15-.14-.15h-3.55c-.09,0-.14.05-.14.15V9.49c0,.11,0,.16.14.16h3.55c.1,0,.14-.05.14-.16Zm-3.83,5.47c0,.1,0,.16.14.16h3.55c.1,0,.14-.06.14-.16V12.46c0-.1,0-.16-.14-.16h-3.55c-.09,0-.14.06-.14.16Z" fill="none" stroke="#0154ac" stroke-miterlimit="10" stroke-width="5"/>
        <path id="Path_11071" data-name="Path 11071" d="M184.59,4.88V4.75a1,1,0,0,1,.23-.65.93.93,0,0,1,.73-.35h1.54a1.019,1.019,0,0,1,1.01,1.03V4.9c-.07.7-.13,1.32-.15,1.86q-.24,5-.24,8.55a2.19,2.19,0,0,0,2.45,2.5,7.28,7.28,0,0,0,5.91-3.08.86.86,0,0,1,.71-.36h0a.84.84,0,0,1,.66.32l.72.88a1.42,1.42,0,0,1,.35.95,1.26,1.26,0,0,1-.31.86,9.66,9.66,0,0,1-1.37,1.34,11.689,11.689,0,0,1-1.76,1.17,9.33,9.33,0,0,1-2.3.88,10.73,10.73,0,0,1-2.67.32,6.18,6.18,0,0,1-4.1-1.23,4.64,4.64,0,0,1-1.48-3.77q0-1.38.09-5c.06-2.43.09-3.86.09-4.27a14.8,14.8,0,0,0-.11-1.94Z" fill="none" stroke="#0154ac" stroke-miterlimit="10" stroke-width="5"/>
        <path id="Path_11072" data-name="Path 11072" d="M205,10.39a1.13,1.13,0,0,1,.81.33,1.09,1.09,0,0,1,.34.82v5a.51.51,0,0,0,.08.28c.69,1,2,1.6,4,1.68,1,.05,2,.07,3,.07,1.84,0,3.74-.06,5.72-.19H219a.68.68,0,0,1,.57.29.72.72,0,0,1,.16.43.65.65,0,0,1-.06.26l-.24.76a1.61,1.61,0,0,1-.52.84,1.36,1.36,0,0,1-.88.33c-1.53.06-2.95.1-4.28.1s-2.49,0-3.59-.08a10,10,0,0,1-3-.53,5.29,5.29,0,0,1-2.16-1.5c-.07-.08-.13-.09-.2,0-.62.55-1.2,1-1.73,1.48a.91.91,0,0,1-.55.2h-.22a.91.91,0,0,1-.62-.51l-.43-.94a1.2,1.2,0,0,1-.12-.52,1.431,1.431,0,0,1,.06-.39,1.33,1.33,0,0,1,.57-.71c.53-.32,1-.64,1.46-.95a.31.31,0,0,0,.12-.24V13.2c0-.09-.05-.13-.14-.13h-.76a1.11,1.11,0,0,1-.81-.35,1.07,1.07,0,0,1-.34-.81v-.37a1.09,1.09,0,0,1,.34-.82,1.13,1.13,0,0,1,.81-.33Zm.84-5.18a1,1,0,0,1,.31.73.581.581,0,0,1,0,.1,1.08,1.08,0,0,1-.41.78l-.55.45a1.08,1.08,0,0,1-.68.25h-.14a1.1,1.1,0,0,1-.76-.41,17.09,17.09,0,0,0-1.54-1.5,1,1,0,0,1-.33-.73.9.9,0,0,1,.35-.74l.37-.29a1.46,1.46,0,0,1,.9-.33h0a1.3,1.3,0,0,1,.86.31,18.568,18.568,0,0,1,1.66,1.38Zm5.25,3.27a.75.75,0,0,1,.33-.5.78.78,0,0,1,.57-.15.09.09,0,0,0,.07,0h0c-.07-.48-.12-1-.16-1.48,0-.09,0-.14-.15-.14h-2.09a1.08,1.08,0,0,1-.82-.34,1.14,1.14,0,0,1-.34-.81V4.53a1.14,1.14,0,0,1,.34-.81,1.08,1.08,0,0,1,.82-.34h3.57a1.13,1.13,0,0,1,.82.34,1.2,1.2,0,0,1,.39.81,30.008,30.008,0,0,0,.36,3.31,19.27,19.27,0,0,0,.76,2.92,9.12,9.12,0,0,0,1.32,2.56,8.43,8.43,0,0,0,2,1.93.81.81,0,0,1,.39.71.78.78,0,0,1-.28.6l-.62.63a1.56,1.56,0,0,1-.82.45h-.2a1.15,1.15,0,0,1-.68-.22,11,11,0,0,1-3.52-5,961.1,961.1,0,0,1-.11,0,12.85,12.85,0,0,1-3.4,5,1.16,1.16,0,0,1-.72.26h-.14a1.4,1.4,0,0,1-.82-.41l-.59-.59a.87.87,0,0,1-.29-.64.93.93,0,0,1,.37-.77,10.69,10.69,0,0,0,3.68-6.79Z" fill="none" stroke="#0154ac" stroke-miterlimit="10" stroke-width="5"/>
        <path id="Path_11073" data-name="Path 11073" d="M238.71,13.44a1.39,1.39,0,0,1,.59.74,1.59,1.59,0,0,1,.06.43,1.76,1.76,0,0,1-.1.53l-.51,1.21a.77.77,0,0,1-.57.49h-.21a.81.81,0,0,1-.53-.2l-.53-.43c-.07-.05-.13,0-.17.06a9.75,9.75,0,0,1-3.83,4.32,1.61,1.61,0,0,1-.82.23h-.16a1.63,1.63,0,0,1-.91-.37l-.79-.65a.65.65,0,0,1-.25-.52v-.12a.74.74,0,0,1,.41-.57,8.4,8.4,0,0,0,3.85-4,.16.16,0,0,0-.08-.22,13.63,13.63,0,0,0-3.81-1.36.16.16,0,0,0-.19.11,40.644,40.644,0,0,1-2.11,4.36A4.48,4.48,0,0,1,226.58,19a3.78,3.78,0,0,1-2,.48,3.19,3.19,0,0,1-2.37-.93,3.44,3.44,0,0,1-.93-2.56,5,5,0,0,1,1.88-3.93A8.16,8.16,0,0,1,228,10.22a.22.22,0,0,0,.19-.13c.71-1.64,1.11-2.57,1.21-2.78a.07.07,0,0,0,0-.09.09.09,0,0,0-.08,0c-1.23,0-2.18.08-2.86.12h-.54a.25.25,0,0,1-.12,0,1.09,1.09,0,0,1-1.07-1.03V5.57a.93.93,0,0,1,.31-.78,1,1,0,0,1,.74-.3h.65a37.272,37.272,0,0,0,4-.13l.45-.06a3.64,3.64,0,0,1,.57,0,2.29,2.29,0,0,1,1.44.45l.1.07a1.12,1.12,0,0,1,.39.75v.11a1.32,1.32,0,0,1-.22.75h0a38.9,38.9,0,0,0-1.73,3.84c0,.09,0,.15.07.16a18,18,0,0,1,3.34,1c.1,0,.15,0,.16-.08v-.08q.06-.63.06-1.17a1.05,1.05,0,0,1,.31-.8A.86.86,0,0,1,236,9h.11l.86.1a1.14,1.14,0,0,1,.78.43,1.08,1.08,0,0,1,.3.74.3.3,0,0,1,0,.1,22.213,22.213,0,0,1-.26,2.29.19.19,0,0,0,.1.21Zm-14,2.79c.32,0,.64-.23.93-.68a19.439,19.439,0,0,0,1.27-2.41v-.07h-.08a4.09,4.09,0,0,0-2,1,2.07,2.07,0,0,0-.71,1.46.86.86,0,0,0,.16.53.46.46,0,0,0,.41.17Z" fill="none" stroke="#0154ac" stroke-miterlimit="10" stroke-width="5"/>
        <path id="Path_11074" data-name="Path 11074" d="M246.33,4.86a1.15,1.15,0,0,1,.37-.78,1,1,0,0,1,.68-.25h.12l1.27.13a1.059,1.059,0,0,1,.92,1.02.85.85,0,0,1,0,.23,3.653,3.653,0,0,1-.16.77c-.07.29-.18.89-.31,1.46a.09.09,0,0,0,0,.1.13.13,0,0,0,.1,0c.45,0,.85-.06,1.19-.06,2.52,0,3.79,1.35,3.79,4a30.5,30.5,0,0,1-.27,4,10.58,10.58,0,0,1-.85,3.22,3,3,0,0,1-1.33,1.47,4.53,4.53,0,0,1-2.12.44,9.93,9.93,0,0,1-1.27-.08,1.36,1.36,0,0,1-.87-.44,1.61,1.61,0,0,1-.44-.88l-.16-.9V18.3a.77.77,0,0,1,.76-.76h.18a7.06,7.06,0,0,0,1.29.17,1.37,1.37,0,0,0,1.35-.76,7.35,7.35,0,0,0,.54-2.15,21.849,21.849,0,0,0,.2-2.93,1.59,1.59,0,0,0-.41-1.31,2.42,2.42,0,0,0-1.43-.31h-.78a.2.2,0,0,0-.17.16,47.5,47.5,0,0,1-3.36,9.41,1.3,1.3,0,0,1-.71.61,1.26,1.26,0,0,1-.43.08,1.15,1.15,0,0,1-.5-.12l-1-.39a.89.89,0,0,1-.53-.59.79.79,0,0,1-.06-.29,1,1,0,0,1,.16-.51,30,30,0,0,0,3.22-7.85s0-.05,0-.08a.15.15,0,0,0-.09,0c-.11,0-.47.08-1.1.16l-1.29.18h-.17a1.068,1.068,0,0,1-1.06-.98l-.08-.92a1,1,0,0,1,.28-.78,1.09,1.09,0,0,1,.78-.35h1.15c.31,0,1-.06,2.13-.14A.17.17,0,0,0,246,7.7a23.439,23.439,0,0,0,.33-2.84Zm11,.43a.6.6,0,0,1,0,.52.55.55,0,0,1-.35.36.09.09,0,0,0,0,.12,24.8,24.8,0,0,1,1.49,2.8c.52,1.13.95,2.17,1.31,3.14a1.25,1.25,0,0,1,.07.43,1.129,1.129,0,0,1-.11.48,1.29,1.29,0,0,1-.65.67l-1,.45a.94.94,0,0,1-.39.1,1.11,1.11,0,0,1-.41-.1.91.91,0,0,1-.5-.63,22,22,0,0,0-2.33-5.58,1.12,1.12,0,0,1-.13-.53,1.239,1.239,0,0,1,0-.27.9.9,0,0,1,.53-.61l.53-.21a.14.14,0,0,0,.08-.2c-.33-.62-.59-1.11-.78-1.44a.9.9,0,0,1-.12-.43.84.84,0,0,1,.06-.3.8.8,0,0,1,.49-.51,1.12,1.12,0,0,1,.44-.09,1.31,1.31,0,0,1,.38.06,1.11,1.11,0,0,1,.64.5,9.076,9.076,0,0,1,.76,1.27ZM259.67,4a.85.85,0,0,1,.06.75.94.94,0,0,1-.53.56,1.13,1.13,0,0,1-.78,0,1.07,1.07,0,0,1-.61-.53c-.19-.36-.38-.7-.56-1a.67.67,0,0,1-.14-.43.84.84,0,0,1,0-.27.81.81,0,0,1,.49-.53,1.33,1.33,0,0,1,.45-.08,1.15,1.15,0,0,1,.37.06,1.2,1.2,0,0,1,.66.51C259.3,3.37,259.49,3.68,259.67,4Z" fill="none" stroke="#0154ac" stroke-miterlimit="10" stroke-width="5"/>
        <path id="Path_11075" data-name="Path 11075" d="M278.83,17.15a.54.54,0,0,1-.12,1l-1.48.51h0a13.264,13.264,0,0,0,1.83-.08h.06a.67.67,0,0,1,.57.3.68.68,0,0,1,.15.43.861.861,0,0,1,0,.27c-.06.17-.11.34-.16.51a1.81,1.81,0,0,1-.55.81,1.44,1.44,0,0,1-.88.34c-1.7.07-3.29.1-4.76.1s-2.71,0-3.91-.08a8.72,8.72,0,0,1-2.92-.55,5,5,0,0,1-2-1.52q-.07-.12-.18,0-.62.66-1.44,1.44a.81.81,0,0,1-.57.24h-.17a.81.81,0,0,1-.61-.47l-.33-.7a1.42,1.42,0,0,1-.14-.59,1.22,1.22,0,0,1,.06-.35,1.27,1.27,0,0,1,.53-.76l1.11-.86a.32.32,0,0,0,.12-.26V13.2c0-.09-.05-.13-.16-.13h-.54a1.09,1.09,0,0,1-.82-.35,1.07,1.07,0,0,1-.34-.81v-.37a1.09,1.09,0,0,1,.34-.82,1.11,1.11,0,0,1,.82-.33h2.24a1.127,1.127,0,0,1,1.15,1.15v5.12a.48.48,0,0,0,.08.27A3.48,3.48,0,0,0,268,18.5h0c-.24-.22-.5-.45-.8-.69a.51.51,0,0,1-.22-.43v-.13a.6.6,0,0,1,.41-.45,12.859,12.859,0,0,0,2-.8h-2.11a1.06,1.06,0,0,1-.76-.3,1.075,1.075,0,0,1,0-1.49,1.06,1.06,0,0,1,.76-.3h1.85a.14.14,0,0,0,.16-.16v-.72c0-.09-.05-.14-.16-.14H267.8a1.008,1.008,0,0,1-1.01-1.03.936.936,0,0,1,.93-1.17h1.39c.07,0,.1,0,.1-.09a.76.76,0,0,1,.21-.54.75.75,0,0,1,.55-.23h1.19a.74.74,0,0,1,.54.23.73.73,0,0,1,.22.54c0,.06,0,.09.1.09h1.58c.07,0,.1,0,.1-.09a.74.74,0,0,1,.23-.54.7.7,0,0,1,.53-.23h1.23a.74.74,0,0,1,.54.23.73.73,0,0,1,.22.54c0,.06,0,.09.1.09h1.47a1.035,1.035,0,0,1,0,2.07h-1.41c-.1,0-.16.05-.16.14v.72a.14.14,0,0,0,.16.16h2a1.045,1.045,0,1,1,0,2.09h-2.17C277.38,16.39,278.18,16.8,278.83,17.15ZM265.21,5.41a1.12,1.12,0,0,1,.2.63,2.008,2.008,0,0,1,0,.23,1.2,1.2,0,0,1-.53.74l-.54.37a1.1,1.1,0,0,1-.57.16.84.84,0,0,1-.27,0,1.07,1.07,0,0,1-.69-.51,16.754,16.754,0,0,0-1.19-1.58,1,1,0,0,1-.23-.62.41.41,0,0,1,0-.16.94.94,0,0,1,.43-.7l.35-.22a1.45,1.45,0,0,1,.76-.21h.18a1.32,1.32,0,0,1,.84.43,14.938,14.938,0,0,1,1.26,1.44Zm4.54.1c.09,0,.13,0,.13-.16V5.1c0-.11,0-.16-.13-.16h-2.5a.89.89,0,0,1-.64-.25.86.86,0,0,1-.26-.63.9.9,0,0,1,.9-.9h3.9a1.09,1.09,0,0,1,.82.35,1.1,1.1,0,0,1,.33.81V6.41a.89.89,0,0,1-.89.89h0a3.41,3.41,0,0,0,.66.3,1.26,1.26,0,0,1,.74.58.8.8,0,0,1,.14.41.69.69,0,0,1-.14.39,2,2,0,0,1-1.81.73h-1.9a2.9,2.9,0,0,1-2-.5,2.59,2.59,0,0,1-.52-1.89V6.66a1.144,1.144,0,0,1,1.15-1.15Zm1.3,10.35h0l.4.13a.65.65,0,0,1,.43.49v.14a.54.54,0,0,1-.26.45,15.061,15.061,0,0,1-2.71,1.46h0l.62.06c1,0,2,.06,3.2.06s2.43,0,3.81-.06h0v-.06a18.722,18.722,0,0,0-2.13-1.38.6.6,0,0,1-.33-.57.59.59,0,0,1,.31-.53l.36-.19h-3.7Zm-1.56-8h1.17A.56.56,0,0,0,271,7.8a.55.55,0,0,0,.14-.36c0-.09,0-.14-.11-.14h-1.92a.15.15,0,0,0-.16.16.56.56,0,0,0,.12.35.74.74,0,0,0,.42.08Zm2.6,4.86a.13.13,0,0,0-.14.14v.72c0,.11.05.16.14.16h1.48a.14.14,0,0,0,.16-.16v-.72c0-.09-.05-.14-.16-.14Zm4.28-7.24c.09,0,.13,0,.13-.16V5.1c0-.11,0-.16-.13-.16h-2.66a.89.89,0,0,1-.88-.88.85.85,0,0,1,.27-.63.82.82,0,0,1,.61-.27h4.1a1.09,1.09,0,0,1,.82.35,1.1,1.1,0,0,1,.33.81v2a1,1,0,0,1-1,1v.06a3.41,3.41,0,0,0,.66.3,1.38,1.38,0,0,1,.75.58.78.78,0,0,1,.13.41.67.67,0,0,1-.13.39,2.06,2.06,0,0,1-1.84.73h-1.86a2.93,2.93,0,0,1-2-.5,2.64,2.64,0,0,1-.52-1.89V6.66a1.161,1.161,0,0,1,1.16-1.15Zm-.3,2.38h1.18a.5.5,0,0,0,.33-.09.68.68,0,0,0,.15-.36c0-.09,0-.14-.11-.14H275.7a.14.14,0,0,0-.15.16.51.51,0,0,0,.11.35.77.77,0,0,0,.41.11Z" fill="none" stroke="#0154ac" stroke-miterlimit="10" stroke-width="5"/>
        <path id="Path_11076" data-name="Path 11076" d="M282.5,5.37a1.25,1.25,0,0,1,.41-.78,1.08,1.08,0,0,1,.72-.27h.1l1,.09a.94.94,0,0,1,.68.39,1,1,0,0,1,.18.55,1.09,1.09,0,0,1,0,.26c-.08.3-.15.6-.22.91-.14.63-.33,1.82-.56,3.59a32.123,32.123,0,0,0-.36,3.89v.32h.05a4.922,4.922,0,0,1,.28-.57.69.69,0,0,1,.5-.41h.18a.72.72,0,0,1,.45.18,1.22,1.22,0,0,1,.45.64,1.321,1.321,0,0,1,.06.39,1.15,1.15,0,0,1-.08.41c-.56,1.76-.94,3.11-1.14,4a4.535,4.535,0,0,0-.11.69,1.48,1.48,0,0,1-.36.85,1.08,1.08,0,0,1-.78.38h-.5a1.29,1.29,0,0,1-.82-.28,1.26,1.26,0,0,1-.53-.78,24.388,24.388,0,0,1-.53-5.21,58.533,58.533,0,0,1,.78-8.23C282.43,6,282.47,5.64,282.5,5.37Zm14.55,1.82h.18a.915.915,0,0,1,.95.95v.67a1.28,1.28,0,0,1-.32.88,1.25,1.25,0,0,1-.81.43l-1.62.15a.15.15,0,0,0-.14.16c0,.68.08,2,.2,4.08a.21.21,0,0,0,.13.22,10.85,10.85,0,0,1,2.8,1.73,1.21,1.21,0,0,1,.45.83,1.113,1.113,0,0,1,0,.17,1.42,1.42,0,0,1-.22.74l-.37.57a1,1,0,0,1-.7.45h-.14a1,1,0,0,1-.64-.26c-.41-.35-.79-.66-1.16-.93a.06.06,0,0,0-.08,0,.053.053,0,0,0-.05.06C295.2,20,293.85,21,291.46,21a5.67,5.67,0,0,1-3.36-.89,2.93,2.93,0,0,1-1.24-2.55,3.18,3.18,0,0,1,1.25-2.65,5.25,5.25,0,0,1,3.32-1h.86c.09,0,.13-.06.13-.16-.06-1.21-.11-2.28-.13-3.2a.13.13,0,0,0-.14-.14h-1c-.79,0-1.59,0-2.38-.06A1.18,1.18,0,0,1,288,10a1.15,1.15,0,0,1-.34-.84V8.61a1.058,1.058,0,0,1,1.05-1.05h.08c.79.05,1.59.08,2.4.08h1c.09,0,.14-.06.14-.16V6.03a4.191,4.191,0,0,0,0-.42V5.29a1,1,0,0,1,.27-.7.94.94,0,0,1,.74-.35h1.12a1,1,0,0,1,.76.35,1.08,1.08,0,0,1,.27.72v.26c0,.32,0,.89-.06,1.72,0,.09.05.13.14.11C296,7.35,296.5,7.28,297.05,7.19Zm-4.53,9.33a.16.16,0,0,0-.14-.17,5.3,5.3,0,0,0-1.19-.14,2.24,2.24,0,0,0-1.12.25.81.81,0,0,0-.42.73c0,.62.51.93,1.54.93a1.21,1.21,0,0,0,1-.39,1.91,1.91,0,0,0,.33-1.21ZM297.87,5.2a.84.84,0,0,1,0,.27.71.71,0,0,1-.1.37.87.87,0,0,1-.51.43.77.77,0,0,1-.25,0,.71.71,0,0,1-.37-.1.83.83,0,0,1-.43-.49Q296,5,295.86,4.55a.921.921,0,0,1,0-.29A.68.68,0,0,1,295.9,4a.67.67,0,0,1,.45-.4.86.86,0,0,1,.27,0,.78.78,0,0,1,.37.09.84.84,0,0,1,.47.47A9.04,9.04,0,0,1,297.87,5.2ZM300,4.55a.841.841,0,0,1,0,.27.8.8,0,0,1-.1.38.87.87,0,0,1-.49.41,1,1,0,0,1-.25,0,.81.81,0,0,1-.37-.09.86.86,0,0,1-.43-.49c-.15-.44-.28-.83-.41-1.15a.81.81,0,0,1,0-.61.7.7,0,0,1,.45-.41.92.92,0,0,1,.29,0,1,1,0,0,1,.37.08.83.83,0,0,1,.45.47A8.163,8.163,0,0,1,300,4.55Z" fill="none" stroke="#0154ac" stroke-miterlimit="10" stroke-width="5"/>
        <path id="Path_11077" data-name="Path 11077" d="M318.63,16.23a.61.61,0,0,1,.37-.14.65.65,0,0,1,.26.06.54.54,0,0,1,.37.49l.14,1.07V18a2.3,2.3,0,0,1-.16.82,1.47,1.47,0,0,1-.65.74,5.46,5.46,0,0,1-2.85.74,2.33,2.33,0,0,1-1.92-.88,3.65,3.65,0,0,1-.71-2.4,25.753,25.753,0,0,1,.34-3.43,25.6,25.6,0,0,0,.34-3.13,1.5,1.5,0,0,0-.31-1,1.13,1.13,0,0,0-.88-.35,4,4,0,0,0-2.22,1,18.071,18.071,0,0,0-2.59,2.38.37.37,0,0,0-.09.26v1.09c0,2.29,0,4.07.13,5.33v.57a.15.15,0,0,1,0,.1,1,1,0,0,1-1.05,1h-1a1.09,1.09,0,0,1-1.11-1.11V19.2c0-1.31,0-2.43.06-3.34v-.05h-.06c-.17.26-.41.62-.73,1.08l-.62.91a.74.74,0,0,1-.65.36.79.79,0,0,1-.68-.34l-.53-.76a1.5,1.5,0,0,1-.27-.88,1.46,1.46,0,0,1,.33-.95q2-2.58,3.36-4.48a.46.46,0,0,0,.08-.25l.06-.78a.14.14,0,0,0-.05-.1.08.08,0,0,0-.09,0l-2.19.27H303a1.08,1.08,0,0,1-1.1-1l-.07-.78V8a1,1,0,0,1,.27-.68,1.08,1.08,0,0,1,.76-.36h.82q1.09-.09,1.86-.21a.16.16,0,0,0,.15-.16V4.53a1,1,0,0,1,.31-.77.91.91,0,0,1,.71-.32h1.17a.89.89,0,0,1,.74.37,1,1,0,0,1,.22.6.9.9,0,0,1,0,.18c-.07.45-.14,1-.22,1.56a.4.4,0,0,0,.06.26,1.39,1.39,0,0,1,.31.91,1.5,1.5,0,0,1-.27.88l-.43.63a.08.08,0,0,0,0,.05h0c2.17-1.81,4-2.72,5.53-2.72a3.33,3.33,0,0,1,2.48.86,3,3,0,0,1,.84,2.21,29.466,29.466,0,0,1-.32,3.41,30.925,30.925,0,0,0-.31,3.4.69.69,0,0,0,.17.49.59.59,0,0,0,.46.18,2.76,2.76,0,0,0,1.49-.48Z" fill="none" stroke="#0154ac" stroke-miterlimit="10" stroke-width="5"/>
        <path id="Path_11078" data-name="Path 11078" d="M333.57,4.18h.24a1.91,1.91,0,0,1,.78.16,1.68,1.68,0,0,1,.78.6l.16.24a1,1,0,0,1,.19.6.958.958,0,0,1-.49.96l-.54.35c-.33.22-.69.49-1.1.79l-1.64,1.27c-.69.54-1.05.83-1.09.87h0a.06.06,0,0,0,.05,0,7.18,7.18,0,0,1,5.56,1.38,4.63,4.63,0,0,1,1.74,3.68,5.424,5.424,0,0,1-1.74,4.07,6.07,6.07,0,0,1-2.31,1.27,11.07,11.07,0,0,1-3.31.46,6.7,6.7,0,0,1-3.64-.94,2.86,2.86,0,0,1-1.48-2.54,3.08,3.08,0,0,1,1.11-2.35,3.91,3.91,0,0,1,2.74-1,4.52,4.52,0,0,1,2.85.87,3.83,3.83,0,0,1,1.45,2.28v.05a.06.06,0,0,0,.08,0,2.62,2.62,0,0,0,1-2.2,2.31,2.31,0,0,0-1.11-2,4.86,4.86,0,0,0-2.8-.77,6.61,6.61,0,0,0-3.26.83A11.56,11.56,0,0,0,325,15.53a1,1,0,0,1-.76.37h-.06a1,1,0,0,1-.72-.31l-.59-.61a1.07,1.07,0,0,1,.1-1.56l2-1.69,1.83-1.5,1.79-1.46,2-1.64a.2.2,0,0,0,0-.07.05.05,0,0,0-.05,0c-1.57,0-2.89.1-4,.18h-.74a1.11,1.11,0,0,1-1.07-1.04V5.4a.92.92,0,0,1,.31-.76,1,1,0,0,1,.74-.29h.94a57.58,57.58,0,0,0,6.19-.17,5.67,5.67,0,0,0,.66,0Zm-3.36,14h.75c.1,0,.15-.06.13-.15a2.13,2.13,0,0,0-.5-1.21,1.34,1.34,0,0,0-1-.45,1.08,1.08,0,0,0-.74.23.73.73,0,0,0-.28.55.9.9,0,0,0,.46.76,2.27,2.27,0,0,0,1.18.31Z" fill="none" stroke="#0154ac" stroke-miterlimit="10" stroke-width="5"/>
        <path id="Path_11079" data-name="Path 11079" d="M10.94,2.64a1.16,1.16,0,0,1,1.15,1.15V9.36c0,.1.05.15.14.15h5a1.13,1.13,0,0,1,.81.33,1.15,1.15,0,0,1,.34.82v9.81a1.14,1.14,0,0,1-1.15,1.15H16a.68.68,0,0,1-.69-.68c0-.07,0-.1-.09-.1H3.65a1.13,1.13,0,0,1-.81-.33,1.09,1.09,0,0,1-.34-.82V19.1a1.09,1.09,0,0,1,.34-.82A1.13,1.13,0,0,1,3.65,18H15.14c.1,0,.15-.05.15-.16V16.62a.14.14,0,0,0-.15-.16H4.84a1.128,1.128,0,0,1-1.17-1.15v-.49A1.14,1.14,0,0,1,4,14a1.12,1.12,0,0,1,.82-.33h10.3a.13.13,0,0,0,.15-.15v-.94c0-.11,0-.16-.15-.16h-11a1.13,1.13,0,0,1-.81-.33A1.09,1.09,0,0,1,3,11.27v-.61a1.11,1.11,0,0,1,.34-.82,1.13,1.13,0,0,1,.81-.33H8.73c.09,0,.14,0,.14-.15V3.79A1.16,1.16,0,0,1,10,2.64ZM7,6.82a1.26,1.26,0,0,1,.08.43A1.12,1.12,0,0,1,7,7.7a1.18,1.18,0,0,1-.64.64l-.71.27a.81.81,0,0,1-.39.1.9.9,0,0,1-.43-.12A1.07,1.07,0,0,1,4.26,8,20.17,20.17,0,0,0,3,5.39a1,1,0,0,1-.14-.49,1.05,1.05,0,0,1,.06-.33A.94.94,0,0,1,3.48,4L4,3.79a1.56,1.56,0,0,1,.55-.1A1.31,1.31,0,0,1,5,3.77a1.25,1.25,0,0,1,.76.57A18.49,18.49,0,0,1,7,6.82ZM15.18,4.3a1.22,1.22,0,0,1,.56-.71,1.25,1.25,0,0,1,.57-.13,1.1,1.1,0,0,1,.31,0l1.06.29a1,1,0,0,1,.62.55.81.81,0,0,1,.1.39.78.78,0,0,1-.12.41c-.55,1.13-1.07,2.13-1.58,3a1.4,1.4,0,0,1-.74.61,1.62,1.62,0,0,1-.49.08A1.55,1.55,0,0,1,15,8.73l-.41-.14A.94.94,0,0,1,14,8a1.09,1.09,0,0,1,0-.82A27.3,27.3,0,0,0,15.18,4.3Z" fill="#fff"/>
        <path id="Path_11080" data-name="Path 11080" d="M35.74,7.34c0,.09,0,.14.16.14h2.26a1.08,1.08,0,0,1,.73.27,1,1,0,0,1,.35.75v.9a1,1,0,0,1-.35.78,1.15,1.15,0,0,1-.78.31H35.9c-.11,0-.16,0-.16.14v.5a18.61,18.61,0,0,1-.22,3.06,9.9,9.9,0,0,1-.8,2.56,7.74,7.74,0,0,1-1.6,2.21,10.55,10.55,0,0,1-2.53,1.76,1.61,1.61,0,0,1-.73.18h-.25a1.61,1.61,0,0,1-.9-.45l-.92-.86a.65.65,0,0,1-.23-.49.39.39,0,0,1,0-.15.7.7,0,0,1,.45-.53,7.3,7.3,0,0,0,3.5-2.59,8.35,8.35,0,0,0,1-4.6v-.58c0-.1,0-.14-.16-.14h-3.9c-.11,0-.16,0-.16.14v3.43a1.07,1.07,0,0,1-1.08,1.1h-.96a1.07,1.07,0,0,1-1.07-1.08V10.61c0-.1-.05-.14-.15-.14H22.66a1.144,1.144,0,0,1-1.12-1.1v-1a.9.9,0,0,1,.36-.74,1,1,0,0,1,.68-.26H25.1c.1,0,.15-.05.15-.14V4.88a1.08,1.08,0,0,1,.27-.72,1,1,0,0,1,.78-.33h1.13a1,1,0,0,1,.76.33,1.07,1.07,0,0,1,.28.74V7.34c0,.09.05.14.16.14h3.9c.11,0,.16-.05.16-.14V4.73A1.21,1.21,0,0,1,32.83,4a1,1,0,0,1,.76-.33h1.16a1,1,0,0,1,.76.33,1.08,1.08,0,0,1,.27.73v.92Z" fill="#fff"/>
        <path id="Path_11081" data-name="Path 11081" d="M53.32,9.82a.27.27,0,0,0-.14.24v7.83l.06,1.84a1.08,1.08,0,0,1-.27.72.94.94,0,0,1-.72.33H50.7a1,1,0,0,1-.76-.33,1.08,1.08,0,0,1-.29-.74l.06-1.82V12a.1.1,0,0,0,0-.08h-.1a35.25,35.25,0,0,1-5.29,2.13,1.35,1.35,0,0,1-.43.08,1.31,1.31,0,0,1-.53-.12,1.6,1.6,0,0,1-.74-.62l-.55-1a.83.83,0,0,1-.12-.41.89.89,0,0,1,.08-.35.8.8,0,0,1,.59-.49,27.67,27.67,0,0,0,8-3.34,21.8,21.8,0,0,0,4.5-3.67,1.18,1.18,0,0,1,.78-.39H56a1,1,0,0,1,.7.27l.9.8a1,1,0,0,1,.35.8,1,1,0,0,1-.33.77,33.439,33.439,0,0,1-4.3,3.44Z" fill="#fff"/>
        <path id="Path_11082" data-name="Path 11082" d="M77,11.62a1.09,1.09,0,0,1,.63.63,1.2,1.2,0,0,1,.09.45,1.12,1.12,0,0,1-.09.44l-.51,1.25a1.15,1.15,0,0,1-1,.69,1,1,0,0,1-.45-.12c-1.55-.71-3.45-1.48-5.72-2.3h-.09a.09.09,0,0,0-.05.08v5q0,.51.12,1.86v.12a1,1,0,0,1-1,1H67.4a1,1,0,0,1-.76-.33,1.07,1.07,0,0,1-.25-.7v-.1c.06-.72.09-1.34.09-1.88V6.33a10.338,10.338,0,0,0-.07-1.47V4.75a1.07,1.07,0,0,1,.25-.69,1,1,0,0,1,.74-.33h1.47a1,1,0,0,1,.78.33,1.08,1.08,0,0,1,.25.71v.09c-.05.55-.08,1-.08,1.47v2.6A.16.16,0,0,0,70,9.1a63.8,63.8,0,0,1,7,2.52Z" fill="#fff"/>
        <path id="Path_11083" data-name="Path 11083" d="M86.41,4.69a1.07,1.07,0,0,1,.35-.78.93.93,0,0,1,.68-.28h.12l1.27.14a1.023,1.023,0,0,1,.92,1,1,1,0,0,1,0,.23,3.732,3.732,0,0,1-.16.78c-.07.29-.18.89-.31,1.47a.14.14,0,0,0,0,.09.1.1,0,0,0,.09,0c.45,0,.85-.06,1.19-.06,2.52,0,3.79,1.35,3.79,4.05a30.349,30.349,0,0,1-.27,4,10.58,10.58,0,0,1-.85,3.22,3.07,3.07,0,0,1-1.34,1.47,4.45,4.45,0,0,1-2.11.45,12,12,0,0,1-1.27-.08,1.47,1.47,0,0,1-.87-.45,1.6,1.6,0,0,1-.44-.9l-.2-.78v-.14a.73.73,0,0,1,.24-.54.72.72,0,0,1,.52-.22h.18a7.63,7.63,0,0,0,1.31.16,1.35,1.35,0,0,0,1.33-.76,7.19,7.19,0,0,0,.54-2.13,22.149,22.149,0,0,0,.2-3,1.61,1.61,0,0,0-.41-1.32,2.53,2.53,0,0,0-1.43-.3H88.7a.18.18,0,0,0-.18.15c-.43,1.63-.93,3.29-1.52,5a35,35,0,0,1-1.83,4.43,1.24,1.24,0,0,1-.71.58,1.06,1.06,0,0,1-.43.08,1.32,1.32,0,0,1-.51-.1l-1-.39a.88.88,0,0,1-.53-.58A.84.84,0,0,1,82,19a.83.83,0,0,1,.16-.5,30.5,30.5,0,0,0,3.22-7.86.05.05,0,0,0,0-.07.09.09,0,0,0-.08,0l-1.11.15-1.29.18h-.17a1.08,1.08,0,0,1-.67-.24,1.06,1.06,0,0,1-.39-.74L81.54,9a1,1,0,0,1,.28-.78,1.1,1.1,0,0,1,.78-.34h1.15c.33,0,1-.06,2.13-.13a.16.16,0,0,0,.17-.16,27.05,27.05,0,0,0,.36-2.9Zm8.14,3.06a1,1,0,0,1-.14-.5,1.77,1.77,0,0,1,0-.3A.84.84,0,0,1,95,6.37l.76-.32a1.4,1.4,0,0,1,.53-.11A1.51,1.51,0,0,1,96.7,6a1.16,1.16,0,0,1,.72.6,37,37,0,0,1,2.44,5.45,1.09,1.09,0,0,1,.08.43,1.14,1.14,0,0,1-.12.49,1.25,1.25,0,0,1-.64.66l-1,.45a.91.91,0,0,1-.41.1.81.81,0,0,1-.39-.1.92.92,0,0,1-.52-.62,23.42,23.42,0,0,0-2.31-5.71Z" fill="#fff"/>
        <path id="Path_11084" data-name="Path 11084" d="M104.32,8.36a1.108,1.108,0,0,1,1.05-1.02h.16l.93.12a1.12,1.12,0,0,1,.73.45,1.08,1.08,0,0,1,.19.62.86.86,0,0,1,0,.22c-.21,1.05-.36,2-.45,2.87a.1.1,0,0,0,0,.07.05.05,0,0,0,.08,0,10.1,10.1,0,0,1,5.35-1.5,7.38,7.38,0,0,1,2.46.39,4.89,4.89,0,0,1,1.82,1.06,4.77,4.77,0,0,1,1.08,1.51,4.13,4.13,0,0,1,.38,1.76,6.14,6.14,0,0,1-.31,2,4.91,4.91,0,0,1-1,1.73A5.79,5.79,0,0,1,114.85,20a10.92,10.92,0,0,1-2.94.78,19.45,19.45,0,0,1-2.63.16h-1.43a1.52,1.52,0,0,1-.92-.35,1.6,1.6,0,0,1-.54-.82l-.3-.94a1,1,0,0,1,0-.24.62.62,0,0,1,.2-.44.7.7,0,0,1,.57-.28h.09a20.539,20.539,0,0,0,2.25.14,9.44,9.44,0,0,0,3.54-.57,2.7,2.7,0,0,0,2-2.54,1.67,1.67,0,0,0-.75-1.39,3.09,3.09,0,0,0-1.91-.56,7.57,7.57,0,0,0-2.9.56A5.58,5.58,0,0,0,107,15.06l-.21.27a2,2,0,0,1-.8.61,1.4,1.4,0,0,1-.59.13,1.69,1.69,0,0,1-.33,0l-.51-.14a1.24,1.24,0,0,1-.94-1.19v-.22Q104.09,11.46,104.32,8.36Zm3.22-1.74a1.14,1.14,0,0,1-.72-.53,1.06,1.06,0,0,1-.16-.56,1.13,1.13,0,0,1,0-.3l.18-.64a1,1,0,0,1,.52-.7,1.11,1.11,0,0,1,.59-.16,1,1,0,0,1,.29,0q2.44.59,5.82,1.09a1.013,1.013,0,0,1,.9,1,2.45,2.45,0,0,1,0,.27l-.18.73a1.25,1.25,0,0,1-1.19.95.71.71,0,0,1-.21,0Q110.7,7.33,107.54,6.62Z" fill="#fff"/>
        <path id="Path_11085" data-name="Path 11085" d="M132.66,20.51a1.29,1.29,0,0,1-.37.06,1.47,1.47,0,0,1-.61-.14,1.76,1.76,0,0,1-.78-.64l-.57-.92a.65.65,0,0,1-.12-.37,1.06,1.06,0,0,1,.06-.34.81.81,0,0,1,.57-.43l.8-.19a5.67,5.67,0,0,0,3.08-1.77,4.72,4.72,0,0,0,1.12-3.21A5.56,5.56,0,0,0,135,9.38a4.16,4.16,0,0,0-2.49-1.7.13.13,0,0,0-.18.11,42.718,42.718,0,0,1-1.13,5,15.48,15.48,0,0,1-2.27,4.87,3.82,3.82,0,0,1-3,1.75,3.69,3.69,0,0,1-3.07-1.75,7.28,7.28,0,0,1-1.25-4.3,7.84,7.84,0,0,1,.73-3.33,8.66,8.66,0,0,1,2-2.77,9.3,9.3,0,0,1,3-1.89,9.78,9.78,0,0,1,3.7-.7,9.25,9.25,0,0,1,3.4.61A7.32,7.32,0,0,1,136.92,7a7.7,7.7,0,0,1,1.63,2.53,8.19,8.19,0,0,1,.59,3.16,7.74,7.74,0,0,1-1.63,5,8.7,8.7,0,0,1-4.85,2.82Zm-4.61-8.32a28.1,28.1,0,0,0,1-4.34.06.06,0,0,0,0-.09.09.09,0,0,0-.09,0,5.81,5.81,0,0,0-2.36,1.33,6,6,0,0,0-1.45,2,5.11,5.11,0,0,0-.45,2A4.07,4.07,0,0,0,125,15a1.07,1.07,0,0,0,.92.69c.37,0,.73-.28,1.05-.85a13.281,13.281,0,0,0,1.08-2.65Z" fill="#fff"/>
        <path id="Path_11086" data-name="Path 11086" d="M149.12,10.49v.6c0,.11,0,.15.16.12a16,16,0,0,1,3.34-.39,7.47,7.47,0,0,1,2.86.52,4.67,4.67,0,0,1,2.06,1.56,4,4,0,0,1,.78,2.47,5,5,0,0,1-1,3.17,6,6,0,0,1-3.43,1.91,12.4,12.4,0,0,1-1.53.23.52.52,0,0,1-.17,0,1.36,1.36,0,0,1-.76-.23,1.61,1.61,0,0,1-.61-.76l-.33-.94a.84.84,0,0,1,0-.27.86.86,0,0,1,.14-.47.78.78,0,0,1,.68-.35,12.14,12.14,0,0,0,1.33-.14,4.21,4.21,0,0,0,1.91-.75,1.74,1.74,0,0,0,.72-1.44A1.61,1.61,0,0,0,154.5,14a3.29,3.29,0,0,0-1.92-.5,13.08,13.08,0,0,0-3.24.41.136.136,0,0,0-.14.17c.05,1.9.08,3,.08,3.34a4.37,4.37,0,0,1-.63,2.73,2.19,2.19,0,0,1-1.79.75,5.33,5.33,0,0,1-2.24-.52,5.26,5.26,0,0,1-1.93-1.46,3.11,3.11,0,0,1-.8-2,3.71,3.71,0,0,1,1.23-2.56,9.63,9.63,0,0,1,3.11-2.11.22.22,0,0,0,.14-.22V9.65a.13.13,0,0,0-.14-.14h-2.46a1.12,1.12,0,0,1-.82-.38,1.28,1.28,0,0,1-.35-.85V7.64a.91.91,0,0,1,.31-.76,1,1,0,0,1,.72-.3h2.6a.14.14,0,0,0,.14-.16V4.47a1,1,0,0,1,.29-.72,1,1,0,0,1,.76-.35h1a1.037,1.037,0,0,1,1.02,1.03v.12a4.418,4.418,0,0,1-.06.78l-.06.86a.13.13,0,0,0,0,.1.12.12,0,0,0,.1,0c.75-.11,1.47-.24,2.14-.39a1,1,0,0,1,.24,0,.85.85,0,0,1,.54.19.94.94,0,0,1,.38.71v.7a1.33,1.33,0,0,1-.3.89,1.21,1.21,0,0,1-.8.48c-.68.11-1.44.22-2.28.31a.16.16,0,0,0-.16.18A6.592,6.592,0,0,0,149.12,10.49Zm-3.22,7.09a.57.57,0,0,0,.42-.15.94.94,0,0,0,.14-.63V15.1a.09.09,0,0,0,0-.08h-.08c-1,.59-1.47,1.15-1.47,1.7a.72.72,0,0,0,.37.59A1.16,1.16,0,0,0,145.9,17.58Zm8.69-9.2a1.06,1.06,0,0,1-.57-.67,1,1,0,0,1-.06-.33,1.07,1.07,0,0,1,.14-.52l.2-.32A1.18,1.18,0,0,1,155,6a1.24,1.24,0,0,1,.37-.06,1,1,0,0,1,.53.14c1.14.55,2.16,1.1,3.05,1.62a1.12,1.12,0,0,1,.52.72.92.92,0,0,1,0,.29,1.2,1.2,0,0,1-.15.59l-.28.45a1,1,0,0,1-.68.5,1.06,1.06,0,0,1-.26,0,1,1,0,0,1-.58-.17C156.67,9.51,155.68,9,154.59,8.38Z" fill="#fff"/>
        <path id="Path_11087" data-name="Path 11087" d="M171.93,5.18c0,.1,0,.15.14.15h5.59a1.13,1.13,0,0,1,.81.33,1.15,1.15,0,0,1,.34.82v9.93a1.15,1.15,0,0,1-.34.82,1.13,1.13,0,0,1-.81.33h-1.1a.74.74,0,0,1-.56-.24.71.71,0,0,1-.24-.54c0-.08,0-.12-.1-.12h-3.59c-.09,0-.14.05-.14.16v3.67a1.09,1.09,0,0,1-.34.82,1.13,1.13,0,0,1-.81.33H170a1.13,1.13,0,0,1-.81-.33,1.09,1.09,0,0,1-.34-.82V16.82c0-.11,0-.16-.14-.16h-3.48c-.07,0-.11,0-.11.12a.9.9,0,0,1-.28.64.88.88,0,0,1-.64.28h-.84a1.11,1.11,0,0,1-.81-.35,1.07,1.07,0,0,1-.34-.81V6.48a1.11,1.11,0,0,1,.34-.82,1.13,1.13,0,0,1,.81-.33h5.35c.09,0,.14,0,.14-.15V3.79A1.16,1.16,0,0,1,170,2.64h.74a1.16,1.16,0,0,1,1.15,1.15Zm-3,3.08c0-.1,0-.15-.14-.15h-3.46c-.09,0-.13.05-.13.15V9.49c0,.11,0,.16.13.16h3.46c.09,0,.14-.05.14-.16Zm-3.73,5.47c0,.1,0,.16.13.16h3.46c.09,0,.14-.06.14-.16V12.46c0-.1,0-.16-.14-.16h-3.46c-.09,0-.13.06-.13.16Zm10.6-5.47c0-.1,0-.15-.14-.15h-3.55c-.09,0-.14.05-.14.15V9.49c0,.11,0,.16.14.16h3.55c.1,0,.14-.05.14-.16Zm-3.83,5.47c0,.1,0,.16.14.16h3.55c.1,0,.14-.06.14-.16V12.46c0-.1,0-.16-.14-.16h-3.55c-.09,0-.14.06-.14.16Z" fill="#fff"/>
        <path id="Path_11088" data-name="Path 11088" d="M184.59,4.88V4.75a1,1,0,0,1,.23-.65.93.93,0,0,1,.73-.35h1.54a1.019,1.019,0,0,1,1.01,1.03V4.9c-.07.7-.13,1.32-.15,1.86q-.24,5-.24,8.55a2.19,2.19,0,0,0,2.45,2.5,7.28,7.28,0,0,0,5.91-3.08.86.86,0,0,1,.71-.36h0a.84.84,0,0,1,.66.32l.72.88a1.42,1.42,0,0,1,.35.95,1.26,1.26,0,0,1-.31.86,9.66,9.66,0,0,1-1.37,1.34,11.689,11.689,0,0,1-1.76,1.17,9.33,9.33,0,0,1-2.3.88,10.73,10.73,0,0,1-2.67.32,6.18,6.18,0,0,1-4.1-1.23,4.64,4.64,0,0,1-1.48-3.77q0-1.38.09-5c.06-2.43.09-3.86.09-4.27a14.8,14.8,0,0,0-.11-1.94Z" fill="#fff"/>
        <path id="Path_11089" data-name="Path 11089" d="M205,10.39a1.13,1.13,0,0,1,.81.33,1.09,1.09,0,0,1,.34.82v5a.51.51,0,0,0,.08.28c.69,1,2,1.6,4,1.68,1,.05,2,.07,3,.07,1.84,0,3.74-.06,5.72-.19H219a.68.68,0,0,1,.57.29.72.72,0,0,1,.16.43.65.65,0,0,1-.06.26l-.24.76a1.61,1.61,0,0,1-.52.84,1.36,1.36,0,0,1-.88.33c-1.53.06-2.95.1-4.28.1s-2.49,0-3.59-.08a10,10,0,0,1-3-.53,5.29,5.29,0,0,1-2.16-1.5c-.07-.08-.13-.09-.2,0-.62.55-1.2,1-1.73,1.48a.91.91,0,0,1-.55.2h-.22a.91.91,0,0,1-.62-.51l-.43-.94a1.2,1.2,0,0,1-.12-.52,1.431,1.431,0,0,1,.06-.39,1.33,1.33,0,0,1,.57-.71c.53-.32,1-.64,1.46-.95a.31.31,0,0,0,.12-.24V13.2c0-.09-.05-.13-.14-.13h-.76a1.11,1.11,0,0,1-.81-.35,1.07,1.07,0,0,1-.34-.81v-.37a1.09,1.09,0,0,1,.34-.82,1.13,1.13,0,0,1,.81-.33Zm.84-5.18a1,1,0,0,1,.31.73.581.581,0,0,1,0,.1,1.08,1.08,0,0,1-.41.78l-.55.45a1.08,1.08,0,0,1-.68.25h-.14a1.1,1.1,0,0,1-.76-.41,17.09,17.09,0,0,0-1.54-1.5,1,1,0,0,1-.33-.73.9.9,0,0,1,.35-.74l.37-.29a1.46,1.46,0,0,1,.9-.33h0a1.3,1.3,0,0,1,.86.31,18.568,18.568,0,0,1,1.66,1.38Zm5.25,3.27a.75.75,0,0,1,.33-.5.78.78,0,0,1,.57-.15.09.09,0,0,0,.07,0h0c-.07-.48-.12-1-.16-1.48,0-.09,0-.14-.15-.14h-2.09a1.08,1.08,0,0,1-.82-.34,1.14,1.14,0,0,1-.34-.81V4.53a1.14,1.14,0,0,1,.34-.81,1.08,1.08,0,0,1,.82-.34h3.57a1.13,1.13,0,0,1,.82.34,1.2,1.2,0,0,1,.39.81,30.008,30.008,0,0,0,.36,3.31,19.27,19.27,0,0,0,.76,2.92,9.12,9.12,0,0,0,1.32,2.56,8.43,8.43,0,0,0,2,1.93.81.81,0,0,1,.39.71.78.78,0,0,1-.28.6l-.62.63a1.56,1.56,0,0,1-.82.45h-.2a1.15,1.15,0,0,1-.68-.22,11,11,0,0,1-3.52-5,961.1,961.1,0,0,1-.11,0,12.85,12.85,0,0,1-3.4,5,1.16,1.16,0,0,1-.72.26h-.14a1.4,1.4,0,0,1-.82-.41l-.59-.59a.87.87,0,0,1-.29-.64.93.93,0,0,1,.37-.77,10.69,10.69,0,0,0,3.68-6.79Z" fill="#fff"/>
        <path id="Path_11090" data-name="Path 11090" d="M238.71,13.44a1.39,1.39,0,0,1,.59.74,1.59,1.59,0,0,1,.06.43,1.76,1.76,0,0,1-.1.53l-.51,1.21a.77.77,0,0,1-.57.49h-.21a.81.81,0,0,1-.53-.2l-.53-.43c-.07-.05-.13,0-.17.06a9.75,9.75,0,0,1-3.83,4.32,1.61,1.61,0,0,1-.82.23h-.16a1.63,1.63,0,0,1-.91-.37l-.79-.65a.65.65,0,0,1-.25-.52v-.12a.74.74,0,0,1,.41-.57,8.4,8.4,0,0,0,3.85-4,.16.16,0,0,0-.08-.22,13.63,13.63,0,0,0-3.81-1.36.16.16,0,0,0-.19.11,40.644,40.644,0,0,1-2.11,4.36A4.48,4.48,0,0,1,226.58,19a3.78,3.78,0,0,1-2,.48,3.19,3.19,0,0,1-2.37-.93,3.44,3.44,0,0,1-.93-2.56,5,5,0,0,1,1.88-3.93A8.16,8.16,0,0,1,228,10.22a.22.22,0,0,0,.19-.13c.71-1.64,1.11-2.57,1.21-2.78a.07.07,0,0,0,0-.09.09.09,0,0,0-.08,0c-1.23,0-2.18.08-2.86.12h-.54a.25.25,0,0,1-.12,0,1.09,1.09,0,0,1-1.07-1.03V5.57a.93.93,0,0,1,.31-.78,1,1,0,0,1,.74-.3h.65a37.272,37.272,0,0,0,4-.13l.45-.06a3.64,3.64,0,0,1,.57,0,2.29,2.29,0,0,1,1.44.45l.1.07a1.12,1.12,0,0,1,.39.75v.11a1.32,1.32,0,0,1-.22.75h0a38.9,38.9,0,0,0-1.73,3.84c0,.09,0,.15.07.16a18,18,0,0,1,3.34,1c.1,0,.15,0,.16-.08v-.08q.06-.63.06-1.17a1.05,1.05,0,0,1,.31-.8A.86.86,0,0,1,236,9h.11l.86.1a1.14,1.14,0,0,1,.78.43,1.08,1.08,0,0,1,.3.74.3.3,0,0,1,0,.1,22.213,22.213,0,0,1-.26,2.29.19.19,0,0,0,.1.21Zm-14,2.79c.32,0,.64-.23.93-.68a19.439,19.439,0,0,0,1.27-2.41v-.07h-.08a4.09,4.09,0,0,0-2,1,2.07,2.07,0,0,0-.71,1.46.86.86,0,0,0,.16.53.46.46,0,0,0,.41.17Z" fill="#fff"/>
        <path id="Path_11091" data-name="Path 11091" d="M246.33,4.86a1.15,1.15,0,0,1,.37-.78,1,1,0,0,1,.68-.25h.12l1.27.13a1.059,1.059,0,0,1,.92,1.02.85.85,0,0,1,0,.23,3.653,3.653,0,0,1-.16.77c-.07.29-.18.89-.31,1.46a.09.09,0,0,0,0,.1.13.13,0,0,0,.1,0c.45,0,.85-.06,1.19-.06,2.52,0,3.79,1.35,3.79,4a30.5,30.5,0,0,1-.27,4,10.58,10.58,0,0,1-.85,3.22,3,3,0,0,1-1.33,1.47,4.53,4.53,0,0,1-2.12.44,9.93,9.93,0,0,1-1.27-.08,1.36,1.36,0,0,1-.87-.44,1.61,1.61,0,0,1-.44-.88l-.16-.9V18.3a.77.77,0,0,1,.76-.76h.18a7.06,7.06,0,0,0,1.29.17,1.37,1.37,0,0,0,1.35-.76,7.35,7.35,0,0,0,.54-2.15,21.849,21.849,0,0,0,.2-2.93,1.59,1.59,0,0,0-.41-1.31,2.42,2.42,0,0,0-1.43-.31h-.78a.2.2,0,0,0-.17.16,47.5,47.5,0,0,1-3.36,9.41,1.3,1.3,0,0,1-.71.61,1.26,1.26,0,0,1-.43.08,1.15,1.15,0,0,1-.5-.12l-1-.39a.89.89,0,0,1-.53-.59.79.79,0,0,1-.06-.29,1,1,0,0,1,.16-.51,30,30,0,0,0,3.22-7.85s0-.05,0-.08a.15.15,0,0,0-.09,0c-.11,0-.47.08-1.1.16l-1.29.18h-.17a1.068,1.068,0,0,1-1.06-.98l-.08-.92a1,1,0,0,1,.28-.78,1.09,1.09,0,0,1,.78-.35h1.15c.31,0,1-.06,2.13-.14A.17.17,0,0,0,246,7.7a23.439,23.439,0,0,0,.33-2.84Zm11,.43a.6.6,0,0,1,0,.52.55.55,0,0,1-.35.36.09.09,0,0,0,0,.12,24.8,24.8,0,0,1,1.49,2.8c.52,1.13.95,2.17,1.31,3.14a1.25,1.25,0,0,1,.07.43,1.129,1.129,0,0,1-.11.48,1.29,1.29,0,0,1-.65.67l-1,.45a.94.94,0,0,1-.39.1,1.11,1.11,0,0,1-.41-.1.91.91,0,0,1-.5-.63,22,22,0,0,0-2.33-5.58,1.12,1.12,0,0,1-.13-.53,1.239,1.239,0,0,1,0-.27.9.9,0,0,1,.53-.61l.53-.21a.14.14,0,0,0,.08-.2c-.33-.62-.59-1.11-.78-1.44a.9.9,0,0,1-.12-.43.84.84,0,0,1,.06-.3.8.8,0,0,1,.49-.51,1.12,1.12,0,0,1,.44-.09,1.31,1.31,0,0,1,.38.06,1.11,1.11,0,0,1,.64.5,9.076,9.076,0,0,1,.76,1.27ZM259.67,4a.85.85,0,0,1,.06.75.94.94,0,0,1-.53.56,1.13,1.13,0,0,1-.78,0,1.07,1.07,0,0,1-.61-.53c-.19-.36-.38-.7-.56-1a.67.67,0,0,1-.14-.43.84.84,0,0,1,0-.27.81.81,0,0,1,.49-.53,1.33,1.33,0,0,1,.45-.08,1.15,1.15,0,0,1,.37.06,1.2,1.2,0,0,1,.66.51C259.3,3.37,259.49,3.68,259.67,4Z" fill="#fff"/>
        <path id="Path_11092" data-name="Path 11092" d="M278.83,17.15a.54.54,0,0,1-.12,1l-1.48.51h0a13.264,13.264,0,0,0,1.83-.08h.06a.67.67,0,0,1,.57.3.68.68,0,0,1,.15.43.861.861,0,0,1,0,.27c-.06.17-.11.34-.16.51a1.81,1.81,0,0,1-.55.81,1.44,1.44,0,0,1-.88.34c-1.7.07-3.29.1-4.76.1s-2.71,0-3.91-.08a8.72,8.72,0,0,1-2.92-.55,5,5,0,0,1-2-1.52q-.07-.12-.18,0-.62.66-1.44,1.44a.81.81,0,0,1-.57.24h-.17a.81.81,0,0,1-.61-.47l-.33-.7a1.42,1.42,0,0,1-.14-.59,1.22,1.22,0,0,1,.06-.35,1.27,1.27,0,0,1,.53-.76l1.11-.86a.32.32,0,0,0,.12-.26V13.2c0-.09-.05-.13-.16-.13h-.54a1.09,1.09,0,0,1-.82-.35,1.07,1.07,0,0,1-.34-.81v-.37a1.09,1.09,0,0,1,.34-.82,1.11,1.11,0,0,1,.82-.33h2.24a1.127,1.127,0,0,1,1.15,1.15v5.12a.48.48,0,0,0,.08.27A3.48,3.48,0,0,0,268,18.5h0c-.24-.22-.5-.45-.8-.69a.51.51,0,0,1-.22-.43v-.13a.6.6,0,0,1,.41-.45,12.859,12.859,0,0,0,2-.8h-2.11a1.06,1.06,0,0,1-.76-.3,1.075,1.075,0,0,1,0-1.49,1.06,1.06,0,0,1,.76-.3h1.85a.14.14,0,0,0,.16-.16v-.72c0-.09-.05-.14-.16-.14H267.8a1.008,1.008,0,0,1-1.01-1.03.936.936,0,0,1,.93-1.17h1.39c.07,0,.1,0,.1-.09a.76.76,0,0,1,.21-.54.75.75,0,0,1,.55-.23h1.19a.74.74,0,0,1,.54.23.73.73,0,0,1,.22.54c0,.06,0,.09.1.09h1.58c.07,0,.1,0,.1-.09a.74.74,0,0,1,.23-.54.7.7,0,0,1,.53-.23h1.23a.74.74,0,0,1,.54.23.73.73,0,0,1,.22.54c0,.06,0,.09.1.09h1.47a1.035,1.035,0,0,1,0,2.07h-1.41c-.1,0-.16.05-.16.14v.72a.14.14,0,0,0,.16.16h2a1.045,1.045,0,1,1,0,2.09h-2.17C277.38,16.39,278.18,16.8,278.83,17.15ZM265.21,5.41a1.12,1.12,0,0,1,.2.63,2.008,2.008,0,0,1,0,.23,1.2,1.2,0,0,1-.53.74l-.54.37a1.1,1.1,0,0,1-.57.16.84.84,0,0,1-.27,0,1.07,1.07,0,0,1-.69-.51,16.754,16.754,0,0,0-1.19-1.58,1,1,0,0,1-.23-.62.41.41,0,0,1,0-.16.94.94,0,0,1,.43-.7l.35-.22a1.45,1.45,0,0,1,.76-.21h.18a1.32,1.32,0,0,1,.84.43,14.938,14.938,0,0,1,1.26,1.44Zm4.54.1c.09,0,.13,0,.13-.16V5.1c0-.11,0-.16-.13-.16h-2.5a.89.89,0,0,1-.64-.25.86.86,0,0,1-.26-.63.9.9,0,0,1,.9-.9h3.9a1.09,1.09,0,0,1,.82.35,1.1,1.1,0,0,1,.33.81V6.41a.89.89,0,0,1-.89.89h0a3.41,3.41,0,0,0,.66.3,1.26,1.26,0,0,1,.74.58.8.8,0,0,1,.14.41.69.69,0,0,1-.14.39,2,2,0,0,1-1.81.73h-1.9a2.9,2.9,0,0,1-2-.5,2.59,2.59,0,0,1-.52-1.89V6.66a1.144,1.144,0,0,1,1.15-1.15Zm1.3,10.35h0l.4.13a.65.65,0,0,1,.43.49v.14a.54.54,0,0,1-.26.45,15.061,15.061,0,0,1-2.71,1.46h0l.62.06c1,0,2,.06,3.2.06s2.43,0,3.81-.06h0v-.06a18.722,18.722,0,0,0-2.13-1.38.6.6,0,0,1-.33-.57.59.59,0,0,1,.31-.53l.36-.19h-3.7Zm-1.56-8h1.17A.56.56,0,0,0,271,7.8a.55.55,0,0,0,.14-.36c0-.09,0-.14-.11-.14h-1.92a.15.15,0,0,0-.16.16.56.56,0,0,0,.12.35.74.74,0,0,0,.42.08Zm2.6,4.86a.13.13,0,0,0-.14.14v.72c0,.11.05.16.14.16h1.48a.14.14,0,0,0,.16-.16v-.72c0-.09-.05-.14-.16-.14Zm4.28-7.24c.09,0,.13,0,.13-.16V5.1c0-.11,0-.16-.13-.16h-2.66a.89.89,0,0,1-.88-.88.85.85,0,0,1,.27-.63.82.82,0,0,1,.61-.27h4.1a1.09,1.09,0,0,1,.82.35,1.1,1.1,0,0,1,.33.81v2a1,1,0,0,1-1,1v.06a3.41,3.41,0,0,0,.66.3,1.38,1.38,0,0,1,.75.58.78.78,0,0,1,.13.41.67.67,0,0,1-.13.39,2.06,2.06,0,0,1-1.84.73h-1.86a2.93,2.93,0,0,1-2-.5,2.64,2.64,0,0,1-.52-1.89V6.66a1.161,1.161,0,0,1,1.16-1.15Zm-.3,2.38h1.18a.5.5,0,0,0,.33-.09.68.68,0,0,0,.15-.36c0-.09,0-.14-.11-.14H275.7a.14.14,0,0,0-.15.16.51.51,0,0,0,.11.35.77.77,0,0,0,.41.11Z" fill="#fff"/>
        <path id="Path_11093" data-name="Path 11093" d="M282.5,5.37a1.25,1.25,0,0,1,.41-.78,1.08,1.08,0,0,1,.72-.27h.1l1,.09a.94.94,0,0,1,.68.39,1,1,0,0,1,.18.55,1.09,1.09,0,0,1,0,.26c-.08.3-.15.6-.22.91-.14.63-.33,1.82-.56,3.59a32.123,32.123,0,0,0-.36,3.89v.32h.05a4.922,4.922,0,0,1,.28-.57.69.69,0,0,1,.5-.41h.18a.72.72,0,0,1,.45.18,1.22,1.22,0,0,1,.45.64,1.321,1.321,0,0,1,.06.39,1.15,1.15,0,0,1-.08.41c-.56,1.76-.94,3.11-1.14,4a4.535,4.535,0,0,0-.11.69,1.48,1.48,0,0,1-.36.85,1.08,1.08,0,0,1-.78.38h-.5a1.29,1.29,0,0,1-.82-.28,1.26,1.26,0,0,1-.53-.78,24.388,24.388,0,0,1-.53-5.21,58.533,58.533,0,0,1,.78-8.23C282.43,6,282.47,5.64,282.5,5.37Zm14.55,1.82h.18a.915.915,0,0,1,.95.95v.67a1.28,1.28,0,0,1-.32.88,1.25,1.25,0,0,1-.81.43l-1.62.15a.15.15,0,0,0-.14.16c0,.68.08,2,.2,4.08a.21.21,0,0,0,.13.22,10.85,10.85,0,0,1,2.8,1.73,1.21,1.21,0,0,1,.45.83,1.113,1.113,0,0,1,0,.17,1.42,1.42,0,0,1-.22.74l-.37.57a1,1,0,0,1-.7.45h-.14a1,1,0,0,1-.64-.26c-.41-.35-.79-.66-1.16-.93a.06.06,0,0,0-.08,0,.053.053,0,0,0-.05.06C295.2,20,293.85,21,291.46,21a5.67,5.67,0,0,1-3.36-.89,2.93,2.93,0,0,1-1.24-2.55,3.18,3.18,0,0,1,1.25-2.65,5.25,5.25,0,0,1,3.32-1h.86c.09,0,.13-.06.13-.16-.06-1.21-.11-2.28-.13-3.2a.13.13,0,0,0-.14-.14h-1c-.79,0-1.59,0-2.38-.06A1.18,1.18,0,0,1,288,10a1.15,1.15,0,0,1-.34-.84V8.61a1.058,1.058,0,0,1,1.05-1.05h.08c.79.05,1.59.08,2.4.08h1c.09,0,.14-.06.14-.16V6.03a4.191,4.191,0,0,0,0-.42V5.29a1,1,0,0,1,.27-.7.94.94,0,0,1,.74-.35h1.12a1,1,0,0,1,.76.35,1.08,1.08,0,0,1,.27.72v.26c0,.32,0,.89-.06,1.72,0,.09.05.13.14.11C296,7.35,296.5,7.28,297.05,7.19Zm-4.53,9.33a.16.16,0,0,0-.14-.17,5.3,5.3,0,0,0-1.19-.14,2.24,2.24,0,0,0-1.12.25.81.81,0,0,0-.42.73c0,.62.51.93,1.54.93a1.21,1.21,0,0,0,1-.39,1.91,1.91,0,0,0,.33-1.21ZM297.87,5.2a.84.84,0,0,1,0,.27.71.71,0,0,1-.1.37.87.87,0,0,1-.51.43.77.77,0,0,1-.25,0,.71.71,0,0,1-.37-.1.83.83,0,0,1-.43-.49Q296,5,295.86,4.55a.921.921,0,0,1,0-.29A.68.68,0,0,1,295.9,4a.67.67,0,0,1,.45-.4.86.86,0,0,1,.27,0,.78.78,0,0,1,.37.09.84.84,0,0,1,.47.47A9.04,9.04,0,0,1,297.87,5.2ZM300,4.55a.841.841,0,0,1,0,.27.8.8,0,0,1-.1.38.87.87,0,0,1-.49.41,1,1,0,0,1-.25,0,.81.81,0,0,1-.37-.09.86.86,0,0,1-.43-.49c-.15-.44-.28-.83-.41-1.15a.81.81,0,0,1,0-.61.7.7,0,0,1,.45-.41.92.92,0,0,1,.29,0,1,1,0,0,1,.37.08.83.83,0,0,1,.45.47A8.163,8.163,0,0,1,300,4.55Z" fill="#fff"/>
        <path id="Path_11094" data-name="Path 11094" d="M318.63,16.23a.61.61,0,0,1,.37-.14.65.65,0,0,1,.26.06.54.54,0,0,1,.37.49l.14,1.07V18a2.3,2.3,0,0,1-.16.82,1.47,1.47,0,0,1-.65.74,5.46,5.46,0,0,1-2.85.74,2.33,2.33,0,0,1-1.92-.88,3.65,3.65,0,0,1-.71-2.4,25.753,25.753,0,0,1,.34-3.43,25.6,25.6,0,0,0,.34-3.13,1.5,1.5,0,0,0-.31-1,1.13,1.13,0,0,0-.88-.35,4,4,0,0,0-2.22,1,18.071,18.071,0,0,0-2.59,2.38.37.37,0,0,0-.09.26v1.09c0,2.29,0,4.07.13,5.33v.57a.15.15,0,0,1,0,.1,1,1,0,0,1-1.05,1h-1a1.09,1.09,0,0,1-1.11-1.11V19.2c0-1.31,0-2.43.06-3.34v-.05h-.06c-.17.26-.41.62-.73,1.08l-.62.91a.74.74,0,0,1-.65.36.79.79,0,0,1-.68-.34l-.53-.76a1.5,1.5,0,0,1-.27-.88,1.46,1.46,0,0,1,.33-.95q2-2.58,3.36-4.48a.46.46,0,0,0,.08-.25l.06-.78a.14.14,0,0,0-.05-.1.08.08,0,0,0-.09,0l-2.19.27H303a1.08,1.08,0,0,1-1.1-1l-.07-.78V8a1,1,0,0,1,.27-.68,1.08,1.08,0,0,1,.76-.36h.82q1.09-.09,1.86-.21a.16.16,0,0,0,.15-.16V4.53a1,1,0,0,1,.31-.77.91.91,0,0,1,.71-.32h1.17a.89.89,0,0,1,.74.37,1,1,0,0,1,.22.6.9.9,0,0,1,0,.18c-.07.45-.14,1-.22,1.56a.4.4,0,0,0,.06.26,1.39,1.39,0,0,1,.31.91,1.5,1.5,0,0,1-.27.88l-.43.63a.08.08,0,0,0,0,.05h0c2.17-1.81,4-2.72,5.53-2.72a3.33,3.33,0,0,1,2.48.86,3,3,0,0,1,.84,2.21,29.466,29.466,0,0,1-.32,3.41,30.925,30.925,0,0,0-.31,3.4.69.69,0,0,0,.17.49.59.59,0,0,0,.46.18,2.76,2.76,0,0,0,1.49-.48Z" fill="#fff"/>
        <path id="Path_11095" data-name="Path 11095" d="M333.57,4.18h.24a1.91,1.91,0,0,1,.78.16,1.68,1.68,0,0,1,.78.6l.16.24a1,1,0,0,1,.19.6.958.958,0,0,1-.49.96l-.54.35c-.33.22-.69.49-1.1.79l-1.64,1.27c-.69.54-1.05.83-1.09.87h0a.06.06,0,0,0,.05,0,7.18,7.18,0,0,1,5.56,1.38,4.63,4.63,0,0,1,1.74,3.68,5.424,5.424,0,0,1-1.74,4.07,6.07,6.07,0,0,1-2.31,1.27,11.07,11.07,0,0,1-3.31.46,6.7,6.7,0,0,1-3.64-.94,2.86,2.86,0,0,1-1.48-2.54,3.08,3.08,0,0,1,1.11-2.35,3.91,3.91,0,0,1,2.74-1,4.52,4.52,0,0,1,2.85.87,3.83,3.83,0,0,1,1.45,2.28v.05a.06.06,0,0,0,.08,0,2.62,2.62,0,0,0,1-2.2,2.31,2.31,0,0,0-1.11-2,4.86,4.86,0,0,0-2.8-.77,6.61,6.61,0,0,0-3.26.83A11.56,11.56,0,0,0,325,15.53a1,1,0,0,1-.76.37h-.06a1,1,0,0,1-.72-.31l-.59-.61a1.07,1.07,0,0,1,.1-1.56l2-1.69,1.83-1.5,1.79-1.46,2-1.64a.2.2,0,0,0,0-.07.05.05,0,0,0-.05,0c-1.57,0-2.89.1-4,.18h-.74a1.11,1.11,0,0,1-1.07-1.04V5.4a.92.92,0,0,1,.31-.76,1,1,0,0,1,.74-.29h.94a57.58,57.58,0,0,0,6.19-.17,5.67,5.67,0,0,0,.66,0Zm-3.36,14h.75c.1,0,.15-.06.13-.15a2.13,2.13,0,0,0-.5-1.21,1.34,1.34,0,0,0-1-.45,1.08,1.08,0,0,0-.74.23.73.73,0,0,0-.28.55.9.9,0,0,0,.46.76,2.27,2.27,0,0,0,1.18.31Z" fill="#fff"/>
      </g>
    </g>
  </g>
</svg>
