<svg xmlns="http://www.w3.org/2000/svg" width="51.971" height="51.955" viewBox="0 0 51.971 51.955">
  <path id="Icon_awesome-city" data-name="Icon awesome-city" d="M50.023,19.483H38.979V2.435A2.233,2.233,0,0,0,37.03,0H25.336a2.233,2.233,0,0,0-1.949,2.435V9.741h-5.2V1.624A1.488,1.488,0,0,0,16.891,0h-1.3a1.488,1.488,0,0,0-1.3,1.624V9.741H9.1V1.624A1.488,1.488,0,0,0,7.8,0H6.5A1.488,1.488,0,0,0,5.2,1.624V9.741H1.949A2.233,2.233,0,0,0,0,12.177V48.707c0,1.793,1.164,3.247,2.6,3.247H49.373c1.435,0,2.6-1.454,2.6-3.247V21.918A2.233,2.233,0,0,0,50.023,19.483ZM10.394,41a1.116,1.116,0,0,1-.974,1.218H6.172A1.116,1.116,0,0,1,5.2,41V36.936a1.116,1.116,0,0,1,.974-1.218H9.42a1.116,1.116,0,0,1,.974,1.218Zm0-9.741a1.116,1.116,0,0,1-.974,1.218H6.172A1.116,1.116,0,0,1,5.2,31.254V27.195a1.116,1.116,0,0,1,.974-1.218H9.42a1.116,1.116,0,0,1,.974,1.218Zm0-9.741A1.116,1.116,0,0,1,9.42,22.73H6.172A1.116,1.116,0,0,1,5.2,21.512V17.453a1.116,1.116,0,0,1,.974-1.218H9.42a1.116,1.116,0,0,1,.974,1.218ZM20.789,41a1.116,1.116,0,0,1-.974,1.218H16.566A1.116,1.116,0,0,1,15.591,41V36.936a1.116,1.116,0,0,1,.974-1.218h3.248a1.116,1.116,0,0,1,.974,1.218Zm0-9.741a1.116,1.116,0,0,1-.974,1.218H16.566a1.116,1.116,0,0,1-.974-1.218V27.195a1.116,1.116,0,0,1,.974-1.218h3.248a1.116,1.116,0,0,1,.974,1.218Zm0-9.741a1.116,1.116,0,0,1-.974,1.218H16.566a1.116,1.116,0,0,1-.974-1.218V17.453a1.116,1.116,0,0,1,.974-1.218h3.248a1.116,1.116,0,0,1,.974,1.218Zm12.993,9.741a1.116,1.116,0,0,1-.974,1.218H29.559a1.116,1.116,0,0,1-.974-1.218V27.195a1.116,1.116,0,0,1,.974-1.218h3.248a1.116,1.116,0,0,1,.974,1.218Zm0-9.741a1.116,1.116,0,0,1-.974,1.218H29.559a1.116,1.116,0,0,1-.974-1.218V17.453a1.116,1.116,0,0,1,.974-1.218h3.248a1.116,1.116,0,0,1,.974,1.218Zm0-9.741a1.116,1.116,0,0,1-.974,1.218H29.559a1.116,1.116,0,0,1-.974-1.218V7.712a1.116,1.116,0,0,1,.974-1.218h3.248a1.116,1.116,0,0,1,.974,1.218ZM46.774,41a1.116,1.116,0,0,1-.974,1.218H42.552A1.116,1.116,0,0,1,41.577,41V36.936a1.116,1.116,0,0,1,.974-1.218H45.8a1.116,1.116,0,0,1,.974,1.218Zm0-9.741a1.116,1.116,0,0,1-.974,1.218H42.552a1.116,1.116,0,0,1-.974-1.218V27.195a1.116,1.116,0,0,1,.974-1.218H45.8a1.116,1.116,0,0,1,.974,1.218Z" fill="#fff"/>
</svg>
