<svg id="Icon_ionic-ios-home" data-name="Icon ionic-ios-home" xmlns="http://www.w3.org/2000/svg" width="51.971" height="51.955" viewBox="0 0 51.971 51.955">
  <path id="Path_5712" data-name="Path 5712" d="M27.045,7.369a.49.49,0,0,0-.624,0L6.937,22.955a.525.525,0,0,0-.187.387V52.067a.251.251,0,0,0,.25.25H20.488a.251.251,0,0,0,.25-.25V34.582a.251.251,0,0,1,.25-.25h11.49a.251.251,0,0,1,.25.25V52.067a.251.251,0,0,0,.25.25H46.465a.251.251,0,0,0,.25-.25V23.342a.5.5,0,0,0-.187-.387Z" transform="translate(-0.753 -0.362)" fill="#fff"/>
  <path id="Path_5713" data-name="Path 5713" d="M54.669,22.883,31.064,3.974a2.741,2.741,0,0,0-3.422,0L17.364,12.33V7.059a.251.251,0,0,0-.25-.25H9.621a.251.251,0,0,0-.25.25V18.574L4.038,22.958a1.748,1.748,0,0,0-.15,2.61,1.737,1.737,0,0,0,1.236.512,1.76,1.76,0,0,0,1.1-.387L29.191,7.209a.224.224,0,0,1,.162-.05.3.3,0,0,1,.162.05L52.483,25.618a1.76,1.76,0,0,0,1.1.387,1.772,1.772,0,0,0,1.761-1.848A1.775,1.775,0,0,0,54.669,22.883Z" transform="translate(-3.374 -3.375)" fill="#fff"/>
</svg>
