<svg xmlns="http://www.w3.org/2000/svg" width="287.623" height="58.938" viewBox="0 0 287.623 58.938">
  <g id="レイヤー_2" data-name="レイヤー 2" transform="translate(0.003 0.09)">
    <g id="レイヤー_1" data-name="レイヤー 1">
      <path id="Path_11305" data-name="Path 11305" d="M42.21,39.16a3,3,0,0,1,1,1.91,2.49,2.49,0,0,1,.05.46,3,3,0,0,1-.55,1.69l-1.37,2.14a2.12,2.12,0,0,1-1.59,1h-.32a2.25,2.25,0,0,1-1.51-.6,41.75,41.75,0,0,0-6.93-5,.23.23,0,0,0-.21,0,.21.21,0,0,0-.11.16v.32q0,8.58-10.63,8.58a22.68,22.68,0,0,1-4.84-.48,13.63,13.63,0,0,1-4-1.51,7.27,7.27,0,0,1-2.7-2.76,8.67,8.67,0,0,1-1-4.27,8,8,0,0,1,3.42-6.68q3.42-2.58,9.76-2.58.69,0,1.83.09a.28.28,0,0,0,.32-.32c-.22-4-.32-7.11-.32-9.3q0-3-.09-6.94c-.06-1.34-.13-2.42-.19-3.24v-.22a2.54,2.54,0,0,1,.6-1.65,2.21,2.21,0,0,1,1.73-.77h3a2.38,2.38,0,0,1,1.78.77A2.48,2.48,0,0,1,30,11.65l-.18,3.42v2.24c0,.24.11.36.32.36q5.61-.14,9.49-.41a.74.74,0,0,1,.23,0,2.53,2.53,0,0,1,1.73.68,2.5,2.5,0,0,1,.87,1.83v1.27a2.74,2.74,0,0,1-.7,2,2.61,2.61,0,0,1-1.9.89c-2.67.18-5.9.32-9.67.41-.21,0-.32.12-.32.36.09,1.92.25,4.59.46,8a.43.43,0,0,0,.32.46,36.1,36.1,0,0,1,11.56,6Zm-19.15-.28v-.5a.36.36,0,0,0-.32-.41,21.071,21.071,0,0,0-3.11-.23,7.44,7.44,0,0,0-3.53.71,2.17,2.17,0,0,0-1.3,2q0,2.6,4.74,2.6a3.39,3.39,0,0,0,2.76-.94,5.22,5.22,0,0,0,.76-3.23Z" fill="#231815"/>
      <path id="Path_11306" data-name="Path 11306" d="M76.38,10.05a2.77,2.77,0,0,1,1.83-.86.74.74,0,0,1,.22,0,2.51,2.51,0,0,1,1.69.64L82.63,12a2,2,0,0,1,.73,1.59,2.08,2.08,0,0,1-.87,1.78c-.79.58-1.59,1.2-2.41,1.87q-8.31,6.25-11.59,9.13A6.68,6.68,0,0,0,67,28a1.15,1.15,0,0,0,0,1.15,7.23,7.23,0,0,0,1.56,1.61q.94.82,6.47,5.34T83.32,43a2.43,2.43,0,0,1,0,3.64l-2.6,2.42a2.62,2.62,0,0,1-1.78.69H78.8a2.64,2.64,0,0,1-1.87-.87c-.58-.61-1.48-1.54-2.69-2.78q-2.74-2.84-13.41-12c-2.25-2-3.38-3.72-3.38-5.25s1.28-3.51,3.83-5.61Q70.22,16,74.06,12.38Z" fill="#231815"/>
      <path id="Path_11307" data-name="Path 11307" d="M124.74,22.14a2.11,2.11,0,0,1,2.09-1.82,3.16,3.16,0,0,1,.51,0l2.51.6a1.77,1.77,0,0,1,1.41,1.73,1.64,1.64,0,0,1-.14.64.22.22,0,0,0,.14.32,13.72,13.72,0,0,1,6.25,4.47,11.1,11.1,0,0,1,2.33,7,15.48,15.48,0,0,1-.64,4.47,14,14,0,0,1-2.06,4.08,12.64,12.64,0,0,1-3.94,3.49,21.52,21.52,0,0,1-6,2.33,2.6,2.6,0,0,1-.82.13,3.62,3.62,0,0,1-1.46-.31,4.25,4.25,0,0,1-1.78-1.56l-.82-1.32a1.55,1.55,0,0,1-.28-.87,1.93,1.93,0,0,1,.19-.77,1.79,1.79,0,0,1,1.32-1.05A17.33,17.33,0,0,0,128,42.17a9.45,9.45,0,0,0,2.92-2.26,9.06,9.06,0,0,0,1.5-2.53,7.34,7.34,0,0,0,.48-2.6,5.81,5.81,0,0,0-3.51-5.48c-.18-.09-.32,0-.41.19a33.59,33.59,0,0,1-9,12.91.48.48,0,0,0-.18.54,1.66,1.66,0,0,0,.14.37,2.93,2.93,0,0,1,0,1.41,2.68,2.68,0,0,1-.64,1.21,2.38,2.38,0,0,1-1.16.71l-2.47.73a1.51,1.51,0,0,1-1.14-.09,1.38,1.38,0,0,1-.73-.87.16.16,0,0,0-.22-.14A16.56,16.56,0,0,1,107,47.78a6.67,6.67,0,0,1-4.77-1.8q-1.89-1.8-1.89-5.45A14.54,14.54,0,0,1,103.41,32a21.56,21.56,0,0,1,7.87-6.66.5.5,0,0,0,.32-.5q.14-2.33.36-4.47c0-.24-.06-.37-.27-.37h-.41q-1.92,0-5.93-.18a2.76,2.76,0,0,1-1.94-.87,2.71,2.71,0,0,1-.8-2v-1a2.34,2.34,0,0,1,2.32-2.42h.28a61.878,61.878,0,0,0,6.34.37h.77a.33.33,0,0,0,.37-.32l.13-1.55a1.77,1.77,0,0,0,0-.41,3.13,3.13,0,0,1,.91-1.87A2.59,2.59,0,0,1,115.57,9h0l1.87.05a2,2,0,0,1,1.64.87,2,2,0,0,1,.46,1.28,1.7,1.7,0,0,1-.09.54v.09a15,15,0,0,0-.32,1.6q0,.09,0,.21a.28.28,0,0,0,.22.11,79.38,79.38,0,0,0,12.41-1.42,3.75,3.75,0,0,1,.5,0,2.11,2.11,0,0,1,1.33.46,2,2,0,0,1,.82,1.68v1a3.19,3.19,0,0,1-.73,2.07,3,3,0,0,1-1.92,1.07q-6.06.87-13.27,1.19a.32.32,0,0,0-.37.37L118,22.78a.2.2,0,0,0,.07.23.26.26,0,0,0,.25,0,28.09,28.09,0,0,1,6.07-.64.32.32,0,0,0,.35-.23ZM108.72,41a7.68,7.68,0,0,0,3.33-.91.43.43,0,0,0,.28-.5,69.578,69.578,0,0,1-.78-7.3.18.18,0,0,0-.09-.18.14.14,0,0,0-.18,0,13.77,13.77,0,0,0-3.17,3.47A6.59,6.59,0,0,0,106.9,39C106.9,40.33,107.51,41,108.72,41Zm9.4-6a.24.24,0,0,0,.14.12.13.13,0,0,0,.14-.07,26.22,26.22,0,0,0,4.33-6.57.17.17,0,0,0,0-.18.27.27,0,0,0-.21-.1,23.84,23.84,0,0,0-4.42.73.4.4,0,0,0-.32.41Q117.85,32.36,118.12,35Z" fill="#231815"/>
      <path id="Path_11308" data-name="Path 11308" d="M173.68,10.56h.55a4.74,4.74,0,0,1,1.83.36,4.18,4.18,0,0,1,1.82,1.41l.37.55a2.56,2.56,0,0,1,.45,1.42,3.269,3.269,0,0,1,0,.54,2.6,2.6,0,0,1-1.14,1.69c-.46.28-.89.55-1.28.82-.76.52-1.61,1.14-2.56,1.85s-2.22,1.7-3.83,3-2.46,1.93-2.55,2a.09.09,0,0,0,0,.09h.12a16.6,16.6,0,0,1,2.87-.23,15.14,15.14,0,0,1,10.11,3.45,10.79,10.79,0,0,1,4.08,8.6,13,13,0,0,1-1,5.22,12.57,12.57,0,0,1-3,4.29,14,14,0,0,1-5.39,3,25.19,25.19,0,0,1-7.73,1.08,15.58,15.58,0,0,1-8.51-2.19,6.74,6.74,0,0,1-3.44-5.93,7.23,7.23,0,0,1,2.58-5.5,9.12,9.12,0,0,1,6.41-2.35,10.67,10.67,0,0,1,6.66,2,9,9,0,0,1,3.37,5.31c0,.07,0,.11.12.14a.23.23,0,0,0,.2,0,6.16,6.16,0,0,0,2.42-5.15,5.43,5.43,0,0,0-2.6-4.66,11.33,11.33,0,0,0-6.52-1.78,15.37,15.37,0,0,0-7.62,1.94,27.31,27.31,0,0,0-6.71,5.5,2.44,2.44,0,0,1-1.78.87h-.13a2.24,2.24,0,0,1-1.85-.7l-1.37-1.42a2.36,2.36,0,0,1-.68-1.69,2.46,2.46,0,0,1,.91-2l4.76-3.94q3.23-2.67,4.27-3.49.87-.73,4.2-3.42c2.22-1.8,3.77-3.07,4.65-3.84a.17.17,0,0,0,0-.15c0-.05-.05-.07-.11-.07-3.65.09-6.74.22-9.26.41l-1.46.09a.86.86,0,0,1-.28,0,2.43,2.43,0,0,1-1.64-.64,2.33,2.33,0,0,1-.86-1.77V13.4a2.19,2.19,0,0,1,.73-1.78,2.43,2.43,0,0,1,1.73-.69h.14c.7.06,1.38.09,2,.09q10,0,14.46-.41A6.546,6.546,0,0,0,173.68,10.56Zm-7.84,32.79h1.73a.294.294,0,0,0,.32-.37,5,5,0,0,0-1.19-2.82,3.07,3.07,0,0,0-2.37-1,2.58,2.58,0,0,0-1.73.54,1.65,1.65,0,0,0-.64,1.28A2.06,2.06,0,0,0,163,42.67,5.13,5.13,0,0,0,165.84,43.35Z" fill="#231815"/>
      <path id="Path_11309" data-name="Path 11309" d="M229.43,40.53a2.66,2.66,0,0,1-2.69,2.69h-3.93a.12.12,0,0,0,.05.09c4,1.62,7.13,2.95,9.44,4a1,1,0,0,1,.64,1.07,1.09,1.09,0,0,1-.73,1l-3,1.09a5.24,5.24,0,0,1-1.92.37,6,6,0,0,1-2.92-.82c-2.06-1.16-4.35-2.28-6.84-3.38a1.2,1.2,0,0,1-.77-1.23,1.17,1.17,0,0,1,.68-1.1l1.78-1a.09.09,0,0,0,0-.11.069.069,0,0,0-.07-.07h-11.8v.13l1.46.69a1.41,1.41,0,0,1,.18,2.51,61.521,61.521,0,0,1-9.94,4.2,4.76,4.76,0,0,1-1.28.18,4.61,4.61,0,0,1-1.1-.14,4.31,4.31,0,0,1-2-1.23l-1.18-1.19a1.26,1.26,0,0,1-.37-.64,1.38,1.38,0,0,1,0-.7,1.51,1.51,0,0,1,.34-.62,1,1,0,0,1,.66-.32,50.09,50.09,0,0,0,8.9-2.74.053.053,0,0,0,.05-.06c0-.06,0-.07-.1-.07h-2.69a2.61,2.61,0,0,1-1.89-.78,2.55,2.55,0,0,1-.8-1.91V26.75a2.73,2.73,0,0,1,2.69-2.69h13.09a.14.14,0,0,0,.14-.09.19.19,0,0,0,0-.18,16.089,16.089,0,0,0-2.05-2.38,1.5,1.5,0,0,1-.48-1.18,1.53,1.53,0,0,1,.52-1.14.09.09,0,0,0,0-.09s0-.05-.07-.05h-1.87a.29.29,0,0,0-.32.32v1.28a2.73,2.73,0,0,1-2.69,2.69h-.6a2.57,2.57,0,0,1-1.91-.8,2.61,2.61,0,0,1-.78-1.89V19.27c0-.21-.12-.32-.36-.32h-2.6a.42.42,0,0,0-.46.32,16.76,16.76,0,0,1-2.6,5.11,2.09,2.09,0,0,1-1.64.77h-.09a2.82,2.82,0,0,1-1.87-.82,3.94,3.94,0,0,0-.5-.5,2.68,2.68,0,0,1-.87-1.78v-.27a2.74,2.74,0,0,1,.55-1.64A13.8,13.8,0,0,0,195,12V10.6a2.08,2.08,0,0,1,.78-1.69,2.05,2.05,0,0,1,1.27-.45,1.71,1.71,0,0,1,.55.09l1.1.27a2.58,2.58,0,0,0,.68,0,59.11,59.11,0,0,0,6.25-1.14A6.86,6.86,0,0,1,207,7.55a4.48,4.48,0,0,1,3.2,1.32l.13.13a1.43,1.43,0,0,1,.51,1.1,2.17,2.17,0,0,1,0,.41,1.46,1.46,0,0,1-1.14,1.1,77,77,0,0,1-8.44,1.32.39.39,0,0,0-.36.36v.46c0,.21.07.32.32.32h9.16a2.73,2.73,0,0,1,2.7,2.69v.36c0,.07,0,.1.06.12a.12.12,0,0,0,.12,0,8.75,8.75,0,0,0,1.32-5V10.6a2.08,2.08,0,0,1,.78-1.69,2.11,2.11,0,0,1,1.32-.45,3,3,0,0,1,.5,0l1.37.32a4.48,4.48,0,0,0,.64,0c2.67-.37,5-.76,6.89-1.19a5.11,5.11,0,0,1,1.32-.18,4.39,4.39,0,0,1,3.19,1.37l.18.13a1.44,1.44,0,0,1,.46,1.05,2.32,2.32,0,0,1,0,.46,1.35,1.35,0,0,1-1.1,1.05A72.79,72.79,0,0,1,220.67,13a.41.41,0,0,0-.37.37v.41c0,.21.08.32.32.32h11.23a2.44,2.44,0,0,1,1.71,4.15,2.31,2.31,0,0,1-1.71.73h-2.6c-.25,0-.37.11-.37.32v1.28a2.61,2.61,0,0,1-.78,1.89,2.55,2.55,0,0,1-1.91.8h-.64a2.59,2.59,0,0,1-1.89-.8,2.55,2.55,0,0,1-.8-1.89V19.27c0-.21-.12-.32-.37-.32h-3.1a.51.51,0,0,0-.5.27,12.67,12.67,0,0,1-3.7,4.66c-.06,0-.07.07,0,.11s.06.07.09.07h11.5a2.57,2.57,0,0,1,1.91.8,2.61,2.61,0,0,1,.78,1.89ZM204.43,28a.33.33,0,0,0-.37.37v.59a.33.33,0,0,0,.37.36h17.79a.32.32,0,0,0,.36-.36v-.59a.32.32,0,0,0-.36-.37Zm0,5c-.24,0-.37.11-.37.32V34a.33.33,0,0,0,.37.36h17.79a.32.32,0,0,0,.36-.36v-.64c0-.21-.12-.32-.36-.32Zm0,5a.33.33,0,0,0-.37.37V39c0,.21.13.32.37.32h17.79c.24,0,.36-.11.36-.32v-.68a.32.32,0,0,0-.36-.37Z" fill="#231815"/>
      <path id="Path_11310" data-name="Path 11310" d="M258.49,24.06a2.7,2.7,0,0,1-2.7,2.69H247c-.24,0-.37.11-.37.32V48.65a2.58,2.58,0,0,1-.77,1.91,2.61,2.61,0,0,1-1.92.78h-1.32a2.65,2.65,0,0,1-2.69-2.69V11.33a2.64,2.64,0,0,1,.77-1.89,2.59,2.59,0,0,1,1.92-.8H255.8a2.7,2.7,0,0,1,2.7,2.69Zm-6.35-10a.28.28,0,0,0-.31-.32H247c-.24,0-.37.11-.37.32v1a.33.33,0,0,0,.37.37h4.84c.21,0,.31-.12.31-.37Zm-5.52,7.25c0,.22.13.32.37.32h4.84c.21,0,.31-.1.31-.32V20.27c0-.24-.1-.36-.31-.36H247a.33.33,0,0,0-.37.36Zm30.8-12.68a2.57,2.57,0,0,1,1.91.8,2.61,2.61,0,0,1,.78,1.89V43.49a11.79,11.79,0,0,1-.62,4.27,4.51,4.51,0,0,1-2.21,2.35,17.67,17.67,0,0,1-7,1.23h-.09a3,3,0,0,1-2-.73A3.55,3.55,0,0,1,267,48.74,25.851,25.851,0,0,0,265.6,45a.5.5,0,0,0-.5-.32H257c-.22,0-.32.09-.32.28a2.17,2.17,0,0,1-.67,1.62,2.2,2.2,0,0,1-1.61.66h-1.28a2.61,2.61,0,0,1-1.89-.78,2.52,2.52,0,0,1-.8-1.91V32.09a2.71,2.71,0,0,1,2.69-2.69H266.3a2.71,2.71,0,0,1,2.7,2.69V44.22c0,.25.11.37.32.37H272a1.3,1.3,0,0,0,1-.28,1.25,1.25,0,0,0,.28-.91V27.12c0-.22-.13-.32-.37-.32h-9.12a2.59,2.59,0,0,1-1.92-.8,2.62,2.62,0,0,1-.77-1.9V11.33a2.68,2.68,0,0,1,2.69-2.69ZM262.32,39.2a.28.28,0,0,0,.32-.32V35.24a.28.28,0,0,0-.32-.32h-5.25c-.24,0-.36.1-.36.32v3.64c0,.22.12.32.36.32ZM273.27,14c0-.21-.13-.32-.37-.32h-5.06a.28.28,0,0,0-.32.32v1.05c0,.25.1.37.32.37h5.06a.33.33,0,0,0,.37-.37Zm-5.75,7.39a.28.28,0,0,0,.32.32h5.06c.24,0,.37-.1.37-.32V20.27a.33.33,0,0,0-.37-.36h-5.06c-.22,0-.32.12-.32.36Z" fill="#231815"/>
      <path id="Path_11311" data-name="Path 11311" d="M42.21,39.16a3,3,0,0,1,1,1.91,2.49,2.49,0,0,1,.05.46,3,3,0,0,1-.55,1.69l-1.37,2.14a2.12,2.12,0,0,1-1.59,1h-.32a2.25,2.25,0,0,1-1.51-.6,41.75,41.75,0,0,0-6.93-5,.23.23,0,0,0-.21,0,.21.21,0,0,0-.11.16v.32q0,8.58-10.63,8.58a22.68,22.68,0,0,1-4.84-.48,13.63,13.63,0,0,1-4-1.51,7.27,7.27,0,0,1-2.7-2.76,8.67,8.67,0,0,1-1-4.27,8,8,0,0,1,3.42-6.68q3.42-2.58,9.76-2.58.69,0,1.83.09a.28.28,0,0,0,.32-.32c-.22-4-.32-7.11-.32-9.3q0-3-.09-6.94c-.06-1.34-.13-2.42-.19-3.24v-.22a2.54,2.54,0,0,1,.6-1.65,2.21,2.21,0,0,1,1.73-.77h3a2.38,2.38,0,0,1,1.78.77A2.48,2.48,0,0,1,30,11.65l-.18,3.42v2.24c0,.24.11.36.32.36q5.61-.14,9.49-.41a.74.74,0,0,1,.23,0,2.53,2.53,0,0,1,1.73.68,2.5,2.5,0,0,1,.87,1.83v1.27a2.74,2.74,0,0,1-.7,2,2.61,2.61,0,0,1-1.9.89c-2.67.18-5.9.32-9.67.41-.21,0-.32.12-.32.36.09,1.92.25,4.59.46,8a.43.43,0,0,0,.32.46,36.1,36.1,0,0,1,11.56,6Zm-19.15-.28v-.5a.36.36,0,0,0-.32-.41,21.071,21.071,0,0,0-3.11-.23,7.44,7.44,0,0,0-3.53.71,2.17,2.17,0,0,0-1.3,2q0,2.6,4.74,2.6a3.39,3.39,0,0,0,2.76-.94,5.22,5.22,0,0,0,.76-3.23Z" fill="none" stroke="#034baf" stroke-linejoin="round" stroke-width="15"/>
      <path id="Path_11312" data-name="Path 11312" d="M76.38,10.05a2.77,2.77,0,0,1,1.83-.86.74.74,0,0,1,.22,0,2.51,2.51,0,0,1,1.69.64L82.63,12a2,2,0,0,1,.73,1.59,2.08,2.08,0,0,1-.87,1.78c-.79.58-1.59,1.2-2.41,1.87q-8.31,6.25-11.59,9.13A6.68,6.68,0,0,0,67,28a1.15,1.15,0,0,0,0,1.15,7.23,7.23,0,0,0,1.56,1.61q.94.82,6.47,5.34T83.32,43a2.43,2.43,0,0,1,0,3.64l-2.6,2.42a2.62,2.62,0,0,1-1.78.69H78.8a2.64,2.64,0,0,1-1.87-.87c-.58-.61-1.48-1.54-2.69-2.78q-2.74-2.84-13.41-12c-2.25-2-3.38-3.72-3.38-5.25s1.28-3.51,3.83-5.61Q70.22,16,74.06,12.38Z" fill="none" stroke="#034baf" stroke-linejoin="round" stroke-width="15"/>
      <path id="Path_11313" data-name="Path 11313" d="M124.74,22.14a2.11,2.11,0,0,1,2.09-1.82,3.16,3.16,0,0,1,.51,0l2.51.6a1.77,1.77,0,0,1,1.41,1.73,1.64,1.64,0,0,1-.14.64.22.22,0,0,0,.14.32,13.72,13.72,0,0,1,6.25,4.47,11.1,11.1,0,0,1,2.33,7,15.48,15.48,0,0,1-.64,4.47,14,14,0,0,1-2.06,4.08,12.64,12.64,0,0,1-3.94,3.49,21.52,21.52,0,0,1-6,2.33,2.6,2.6,0,0,1-.82.13,3.62,3.62,0,0,1-1.46-.31,4.25,4.25,0,0,1-1.78-1.56l-.82-1.32a1.55,1.55,0,0,1-.28-.87,1.93,1.93,0,0,1,.19-.77,1.79,1.79,0,0,1,1.32-1.05A17.33,17.33,0,0,0,128,42.17a9.45,9.45,0,0,0,2.92-2.26,9.06,9.06,0,0,0,1.5-2.53,7.34,7.34,0,0,0,.48-2.6,5.81,5.81,0,0,0-3.51-5.48c-.18-.09-.32,0-.41.19a33.59,33.59,0,0,1-9,12.91.48.48,0,0,0-.18.54,1.66,1.66,0,0,0,.14.37,2.93,2.93,0,0,1,0,1.41,2.68,2.68,0,0,1-.64,1.21,2.38,2.38,0,0,1-1.16.71l-2.47.73a1.51,1.51,0,0,1-1.14-.09,1.38,1.38,0,0,1-.73-.87.16.16,0,0,0-.22-.14A16.56,16.56,0,0,1,107,47.78a6.67,6.67,0,0,1-4.77-1.8q-1.89-1.8-1.89-5.45A14.54,14.54,0,0,1,103.41,32a21.56,21.56,0,0,1,7.87-6.66.5.5,0,0,0,.32-.5q.14-2.33.36-4.47c0-.24-.06-.37-.27-.37h-.41q-1.92,0-5.93-.18a2.76,2.76,0,0,1-1.94-.87,2.71,2.71,0,0,1-.8-2v-1a2.34,2.34,0,0,1,2.32-2.42h.28a61.878,61.878,0,0,0,6.34.37h.77a.33.33,0,0,0,.37-.32l.13-1.55a1.77,1.77,0,0,0,0-.41,3.13,3.13,0,0,1,.91-1.87A2.59,2.59,0,0,1,115.57,9h0l1.87.05a2,2,0,0,1,1.64.87,2,2,0,0,1,.46,1.28,1.7,1.7,0,0,1-.09.54v.09a15,15,0,0,0-.32,1.6q0,.09,0,.21a.28.28,0,0,0,.22.11,79.38,79.38,0,0,0,12.41-1.42,3.75,3.75,0,0,1,.5,0,2.11,2.11,0,0,1,1.33.46,2,2,0,0,1,.82,1.68v1a3.19,3.19,0,0,1-.73,2.07,3,3,0,0,1-1.92,1.07q-6.06.87-13.27,1.19a.32.32,0,0,0-.37.37L118,22.78a.2.2,0,0,0,.07.23.26.26,0,0,0,.25,0,28.09,28.09,0,0,1,6.07-.64.32.32,0,0,0,.35-.23ZM108.72,41a7.68,7.68,0,0,0,3.33-.91.43.43,0,0,0,.28-.5,69.578,69.578,0,0,1-.78-7.3.18.18,0,0,0-.09-.18.14.14,0,0,0-.18,0,13.77,13.77,0,0,0-3.17,3.47A6.59,6.59,0,0,0,106.9,39C106.9,40.33,107.51,41,108.72,41Zm9.4-6a.24.24,0,0,0,.14.12.13.13,0,0,0,.14-.07,26.22,26.22,0,0,0,4.33-6.57.17.17,0,0,0,0-.18.27.27,0,0,0-.21-.1,23.84,23.84,0,0,0-4.42.73.4.4,0,0,0-.32.41Q117.85,32.36,118.12,35Z" fill="none" stroke="#034baf" stroke-linejoin="round" stroke-width="15"/>
      <path id="Path_11314" data-name="Path 11314" d="M173.68,10.56h.55a4.74,4.74,0,0,1,1.83.36,4.18,4.18,0,0,1,1.82,1.41l.37.55a2.56,2.56,0,0,1,.45,1.42,3.269,3.269,0,0,1,0,.54,2.6,2.6,0,0,1-1.14,1.69c-.46.28-.89.55-1.28.82-.76.52-1.61,1.14-2.56,1.85s-2.22,1.7-3.83,3-2.46,1.93-2.55,2a.09.09,0,0,0,0,.09h.12a16.6,16.6,0,0,1,2.87-.23,15.14,15.14,0,0,1,10.11,3.45,10.79,10.79,0,0,1,4.08,8.6,13,13,0,0,1-1,5.22,12.57,12.57,0,0,1-3,4.29,14,14,0,0,1-5.39,3,25.19,25.19,0,0,1-7.73,1.08,15.58,15.58,0,0,1-8.51-2.19,6.74,6.74,0,0,1-3.44-5.93,7.23,7.23,0,0,1,2.58-5.5,9.12,9.12,0,0,1,6.41-2.35,10.67,10.67,0,0,1,6.66,2,9,9,0,0,1,3.37,5.31c0,.07,0,.11.12.14a.23.23,0,0,0,.2,0,6.16,6.16,0,0,0,2.42-5.15,5.43,5.43,0,0,0-2.6-4.66,11.33,11.33,0,0,0-6.52-1.78,15.37,15.37,0,0,0-7.62,1.94,27.31,27.31,0,0,0-6.71,5.5,2.44,2.44,0,0,1-1.78.87h-.13a2.24,2.24,0,0,1-1.85-.7l-1.37-1.42a2.36,2.36,0,0,1-.68-1.69,2.46,2.46,0,0,1,.91-2l4.76-3.94q3.23-2.67,4.27-3.49.87-.73,4.2-3.42c2.22-1.8,3.77-3.07,4.65-3.84a.17.17,0,0,0,0-.15c0-.05-.05-.07-.11-.07-3.65.09-6.74.22-9.26.41l-1.46.09a.86.86,0,0,1-.28,0,2.43,2.43,0,0,1-1.64-.64,2.33,2.33,0,0,1-.86-1.77V13.4a2.19,2.19,0,0,1,.73-1.78,2.43,2.43,0,0,1,1.73-.69h.14c.7.06,1.38.09,2,.09q10,0,14.46-.41A6.546,6.546,0,0,0,173.68,10.56Zm-7.84,32.79h1.73a.294.294,0,0,0,.32-.37,5,5,0,0,0-1.19-2.82,3.07,3.07,0,0,0-2.37-1,2.58,2.58,0,0,0-1.73.54,1.65,1.65,0,0,0-.64,1.28A2.06,2.06,0,0,0,163,42.67,5.13,5.13,0,0,0,165.84,43.35Z" fill="none" stroke="#034baf" stroke-linejoin="round" stroke-width="15"/>
      <path id="Path_11315" data-name="Path 11315" d="M229.43,40.53a2.66,2.66,0,0,1-2.69,2.69h-3.93a.12.12,0,0,0,.05.09c4,1.62,7.13,2.95,9.44,4a1,1,0,0,1,.64,1.07,1.09,1.09,0,0,1-.73,1l-3,1.09a5.24,5.24,0,0,1-1.92.37,6,6,0,0,1-2.92-.82c-2.06-1.16-4.35-2.28-6.84-3.38a1.2,1.2,0,0,1-.77-1.23,1.17,1.17,0,0,1,.68-1.1l1.78-1a.09.09,0,0,0,0-.11.069.069,0,0,0-.07-.07h-11.8v.13l1.46.69a1.41,1.41,0,0,1,.18,2.51,61.521,61.521,0,0,1-9.94,4.2,4.76,4.76,0,0,1-1.28.18,4.61,4.61,0,0,1-1.1-.14,4.31,4.31,0,0,1-2-1.23l-1.18-1.19a1.26,1.26,0,0,1-.37-.64,1.38,1.38,0,0,1,0-.7,1.51,1.51,0,0,1,.34-.62,1,1,0,0,1,.66-.32,50.09,50.09,0,0,0,8.9-2.74.053.053,0,0,0,.05-.06c0-.06,0-.07-.1-.07h-2.69a2.61,2.61,0,0,1-1.89-.78,2.55,2.55,0,0,1-.8-1.91V26.75a2.73,2.73,0,0,1,2.69-2.69h13.09a.14.14,0,0,0,.14-.09.19.19,0,0,0,0-.18,16.089,16.089,0,0,0-2.05-2.38,1.5,1.5,0,0,1-.48-1.18,1.53,1.53,0,0,1,.52-1.14.09.09,0,0,0,0-.09s0-.05-.07-.05h-1.87a.29.29,0,0,0-.32.32v1.28a2.73,2.73,0,0,1-2.69,2.69h-.6a2.57,2.57,0,0,1-1.91-.8,2.61,2.61,0,0,1-.78-1.89V19.27c0-.21-.12-.32-.36-.32h-2.6a.42.42,0,0,0-.46.32,16.76,16.76,0,0,1-2.6,5.11,2.09,2.09,0,0,1-1.64.77h-.09a2.82,2.82,0,0,1-1.87-.82,3.94,3.94,0,0,0-.5-.5,2.68,2.68,0,0,1-.87-1.78v-.27a2.74,2.74,0,0,1,.55-1.64A13.8,13.8,0,0,0,195,12V10.6a2.08,2.08,0,0,1,.78-1.69,2.05,2.05,0,0,1,1.27-.45,1.71,1.71,0,0,1,.55.09l1.1.27a2.58,2.58,0,0,0,.68,0,59.11,59.11,0,0,0,6.25-1.14A6.86,6.86,0,0,1,207,7.55a4.48,4.48,0,0,1,3.2,1.32l.13.13a1.43,1.43,0,0,1,.51,1.1,2.17,2.17,0,0,1,0,.41,1.46,1.46,0,0,1-1.14,1.1,77,77,0,0,1-8.44,1.32.39.39,0,0,0-.36.36v.46c0,.21.07.32.32.32h9.16a2.73,2.73,0,0,1,2.7,2.69v.36c0,.07,0,.1.06.12a.12.12,0,0,0,.12,0,8.75,8.75,0,0,0,1.32-5V10.6a2.08,2.08,0,0,1,.78-1.69,2.11,2.11,0,0,1,1.32-.45,3,3,0,0,1,.5,0l1.37.32a4.48,4.48,0,0,0,.64,0c2.67-.37,5-.76,6.89-1.19a5.11,5.11,0,0,1,1.32-.18,4.39,4.39,0,0,1,3.19,1.37l.18.13a1.44,1.44,0,0,1,.46,1.05,2.32,2.32,0,0,1,0,.46,1.35,1.35,0,0,1-1.1,1.05A72.79,72.79,0,0,1,220.67,13a.41.41,0,0,0-.37.37v.41c0,.21.08.32.32.32h11.23a2.44,2.44,0,0,1,1.71,4.15,2.31,2.31,0,0,1-1.71.73h-2.6c-.25,0-.37.11-.37.32v1.28a2.61,2.61,0,0,1-.78,1.89,2.55,2.55,0,0,1-1.91.8h-.64a2.59,2.59,0,0,1-1.89-.8,2.55,2.55,0,0,1-.8-1.89V19.27c0-.21-.12-.32-.37-.32h-3.1a.51.51,0,0,0-.5.27,12.67,12.67,0,0,1-3.7,4.66c-.06,0-.07.07,0,.11s.06.07.09.07h11.5a2.57,2.57,0,0,1,1.91.8,2.61,2.61,0,0,1,.78,1.89ZM204.43,28a.33.33,0,0,0-.37.37v.59a.33.33,0,0,0,.37.36h17.79a.32.32,0,0,0,.36-.36v-.59a.32.32,0,0,0-.36-.37Zm0,5c-.24,0-.37.11-.37.32V34a.33.33,0,0,0,.37.36h17.79a.32.32,0,0,0,.36-.36v-.64c0-.21-.12-.32-.36-.32Zm0,5a.33.33,0,0,0-.37.37V39c0,.21.13.32.37.32h17.79c.24,0,.36-.11.36-.32v-.68a.32.32,0,0,0-.36-.37Z" fill="none" stroke="#034baf" stroke-linejoin="round" stroke-width="15"/>
      <path id="Path_11316" data-name="Path 11316" d="M258.49,24.06a2.7,2.7,0,0,1-2.7,2.69H247c-.24,0-.37.11-.37.32V48.65a2.58,2.58,0,0,1-.77,1.91,2.61,2.61,0,0,1-1.92.78h-1.32a2.65,2.65,0,0,1-2.69-2.69V11.33a2.64,2.64,0,0,1,.77-1.89,2.59,2.59,0,0,1,1.92-.8H255.8a2.7,2.7,0,0,1,2.7,2.69Zm-6.35-10a.28.28,0,0,0-.31-.32H247c-.24,0-.37.11-.37.32v1a.33.33,0,0,0,.37.37h4.84c.21,0,.31-.12.31-.37Zm-5.52,7.25c0,.22.13.32.37.32h4.84c.21,0,.31-.1.31-.32V20.27c0-.24-.1-.36-.31-.36H247a.33.33,0,0,0-.37.36Zm30.8-12.68a2.57,2.57,0,0,1,1.91.8,2.61,2.61,0,0,1,.78,1.89V43.49a11.79,11.79,0,0,1-.62,4.27,4.51,4.51,0,0,1-2.21,2.35,17.67,17.67,0,0,1-7,1.23h-.09a3,3,0,0,1-2-.73A3.55,3.55,0,0,1,267,48.74,25.851,25.851,0,0,0,265.6,45a.5.5,0,0,0-.5-.32H257c-.22,0-.32.09-.32.28a2.17,2.17,0,0,1-.67,1.62,2.2,2.2,0,0,1-1.61.66h-1.28a2.61,2.61,0,0,1-1.89-.78,2.52,2.52,0,0,1-.8-1.91V32.09a2.71,2.71,0,0,1,2.69-2.69H266.3a2.71,2.71,0,0,1,2.7,2.69V44.22c0,.25.11.37.32.37H272a1.3,1.3,0,0,0,1-.28,1.25,1.25,0,0,0,.28-.91V27.12c0-.22-.13-.32-.37-.32h-9.12a2.59,2.59,0,0,1-1.92-.8,2.62,2.62,0,0,1-.77-1.9V11.33a2.68,2.68,0,0,1,2.69-2.69ZM262.32,39.2a.28.28,0,0,0,.32-.32V35.24a.28.28,0,0,0-.32-.32h-5.25c-.24,0-.36.1-.36.32v3.64c0,.22.12.32.36.32ZM273.27,14c0-.21-.13-.32-.37-.32h-5.06a.28.28,0,0,0-.32.32v1.05c0,.25.1.37.32.37h5.06a.33.33,0,0,0,.37-.37Zm-5.75,7.39a.28.28,0,0,0,.32.32h5.06c.24,0,.37-.1.37-.32V20.27a.33.33,0,0,0-.37-.36h-5.06c-.22,0-.32.12-.32.36Z" fill="none" stroke="#034baf" stroke-linejoin="round" stroke-width="15"/>
      <path id="Path_11317" data-name="Path 11317" d="M42.21,39.16a3,3,0,0,1,1,1.91,2.49,2.49,0,0,1,.05.46,3,3,0,0,1-.55,1.69l-1.37,2.14a2.12,2.12,0,0,1-1.59,1h-.32a2.25,2.25,0,0,1-1.51-.6,41.75,41.75,0,0,0-6.93-5,.23.23,0,0,0-.21,0,.21.21,0,0,0-.11.16v.32q0,8.58-10.63,8.58a22.68,22.68,0,0,1-4.84-.48,13.63,13.63,0,0,1-4-1.51,7.27,7.27,0,0,1-2.7-2.76,8.67,8.67,0,0,1-1-4.27,8,8,0,0,1,3.42-6.68q3.42-2.58,9.76-2.58.69,0,1.83.09a.28.28,0,0,0,.32-.32c-.22-4-.32-7.11-.32-9.3q0-3-.09-6.94c-.06-1.34-.13-2.42-.19-3.24v-.22a2.54,2.54,0,0,1,.6-1.65,2.21,2.21,0,0,1,1.73-.77h3a2.38,2.38,0,0,1,1.78.77A2.48,2.48,0,0,1,30,11.65l-.18,3.42v2.24c0,.24.11.36.32.36q5.61-.14,9.49-.41a.74.74,0,0,1,.23,0,2.53,2.53,0,0,1,1.73.68,2.5,2.5,0,0,1,.87,1.83v1.27a2.74,2.74,0,0,1-.7,2,2.61,2.61,0,0,1-1.9.89c-2.67.18-5.9.32-9.67.41-.21,0-.32.12-.32.36.09,1.92.25,4.59.46,8a.43.43,0,0,0,.32.46,36.1,36.1,0,0,1,11.56,6Zm-19.15-.28v-.5a.36.36,0,0,0-.32-.41,21.071,21.071,0,0,0-3.11-.23,7.44,7.44,0,0,0-3.53.71,2.17,2.17,0,0,0-1.3,2q0,2.6,4.74,2.6a3.39,3.39,0,0,0,2.76-.94,5.22,5.22,0,0,0,.76-3.23Z" fill="#fff"/>
      <path id="Path_11318" data-name="Path 11318" d="M76.38,10.05a2.77,2.77,0,0,1,1.83-.86.74.74,0,0,1,.22,0,2.51,2.51,0,0,1,1.69.64L82.63,12a2,2,0,0,1,.73,1.59,2.08,2.08,0,0,1-.87,1.78c-.79.58-1.59,1.2-2.41,1.87q-8.31,6.25-11.59,9.13A6.68,6.68,0,0,0,67,28a1.15,1.15,0,0,0,0,1.15,7.23,7.23,0,0,0,1.56,1.61q.94.82,6.47,5.34T83.32,43a2.43,2.43,0,0,1,0,3.64l-2.6,2.42a2.62,2.62,0,0,1-1.78.69H78.8a2.64,2.64,0,0,1-1.87-.87c-.58-.61-1.48-1.54-2.69-2.78q-2.74-2.84-13.41-12c-2.25-2-3.38-3.72-3.38-5.25s1.28-3.51,3.83-5.61Q70.22,16,74.06,12.38Z" fill="#fff"/>
      <path id="Path_11319" data-name="Path 11319" d="M124.74,22.14a2.11,2.11,0,0,1,2.09-1.82,3.16,3.16,0,0,1,.51,0l2.51.6a1.77,1.77,0,0,1,1.41,1.73,1.64,1.64,0,0,1-.14.64.22.22,0,0,0,.14.32,13.72,13.72,0,0,1,6.25,4.47,11.1,11.1,0,0,1,2.33,7,15.48,15.48,0,0,1-.64,4.47,14,14,0,0,1-2.06,4.08,12.64,12.64,0,0,1-3.94,3.49,21.52,21.52,0,0,1-6,2.33,2.6,2.6,0,0,1-.82.13,3.62,3.62,0,0,1-1.46-.31,4.25,4.25,0,0,1-1.78-1.56l-.82-1.32a1.55,1.55,0,0,1-.28-.87,1.93,1.93,0,0,1,.19-.77,1.79,1.79,0,0,1,1.32-1.05A17.33,17.33,0,0,0,128,42.17a9.45,9.45,0,0,0,2.92-2.26,9.06,9.06,0,0,0,1.5-2.53,7.34,7.34,0,0,0,.48-2.6,5.81,5.81,0,0,0-3.51-5.48c-.18-.09-.32,0-.41.19a33.59,33.59,0,0,1-9,12.91.48.48,0,0,0-.18.54,1.66,1.66,0,0,0,.14.37,2.93,2.93,0,0,1,0,1.41,2.68,2.68,0,0,1-.64,1.21,2.38,2.38,0,0,1-1.16.71l-2.47.73a1.51,1.51,0,0,1-1.14-.09,1.38,1.38,0,0,1-.73-.87.16.16,0,0,0-.22-.14A16.56,16.56,0,0,1,107,47.78a6.67,6.67,0,0,1-4.77-1.8q-1.89-1.8-1.89-5.45A14.54,14.54,0,0,1,103.41,32a21.56,21.56,0,0,1,7.87-6.66.5.5,0,0,0,.32-.5q.14-2.33.36-4.47c0-.24-.06-.37-.27-.37h-.41q-1.92,0-5.93-.18a2.76,2.76,0,0,1-1.94-.87,2.71,2.71,0,0,1-.8-2v-1a2.34,2.34,0,0,1,2.32-2.42h.28a61.878,61.878,0,0,0,6.34.37h.77a.33.33,0,0,0,.37-.32l.13-1.55a1.77,1.77,0,0,0,0-.41,3.13,3.13,0,0,1,.91-1.87A2.59,2.59,0,0,1,115.57,9h0l1.87.05a2,2,0,0,1,1.64.87,2,2,0,0,1,.46,1.28,1.7,1.7,0,0,1-.09.54v.09a15,15,0,0,0-.32,1.6q0,.09,0,.21a.28.28,0,0,0,.22.11,79.38,79.38,0,0,0,12.41-1.42,3.75,3.75,0,0,1,.5,0,2.11,2.11,0,0,1,1.33.46,2,2,0,0,1,.82,1.68v1a3.19,3.19,0,0,1-.73,2.07,3,3,0,0,1-1.92,1.07q-6.06.87-13.27,1.19a.32.32,0,0,0-.37.37L118,22.78a.2.2,0,0,0,.07.23.26.26,0,0,0,.25,0,28.09,28.09,0,0,1,6.07-.64.32.32,0,0,0,.35-.23ZM108.72,41a7.68,7.68,0,0,0,3.33-.91.43.43,0,0,0,.28-.5,69.578,69.578,0,0,1-.78-7.3.18.18,0,0,0-.09-.18.14.14,0,0,0-.18,0,13.77,13.77,0,0,0-3.17,3.47A6.59,6.59,0,0,0,106.9,39C106.9,40.33,107.51,41,108.72,41Zm9.4-6a.24.24,0,0,0,.14.12.13.13,0,0,0,.14-.07,26.22,26.22,0,0,0,4.33-6.57.17.17,0,0,0,0-.18.27.27,0,0,0-.21-.1,23.84,23.84,0,0,0-4.42.73.4.4,0,0,0-.32.41Q117.85,32.36,118.12,35Z" fill="#fff"/>
      <path id="Path_11320" data-name="Path 11320" d="M173.68,10.56h.55a4.74,4.74,0,0,1,1.83.36,4.18,4.18,0,0,1,1.82,1.41l.37.55a2.56,2.56,0,0,1,.45,1.42,3.269,3.269,0,0,1,0,.54,2.6,2.6,0,0,1-1.14,1.69c-.46.28-.89.55-1.28.82-.76.52-1.61,1.14-2.56,1.85s-2.22,1.7-3.83,3-2.46,1.93-2.55,2a.09.09,0,0,0,0,.09h.12a16.6,16.6,0,0,1,2.87-.23,15.14,15.14,0,0,1,10.11,3.45,10.79,10.79,0,0,1,4.08,8.6,13,13,0,0,1-1,5.22,12.57,12.57,0,0,1-3,4.29,14,14,0,0,1-5.39,3,25.19,25.19,0,0,1-7.73,1.08,15.58,15.58,0,0,1-8.51-2.19,6.74,6.74,0,0,1-3.44-5.93,7.23,7.23,0,0,1,2.58-5.5,9.12,9.12,0,0,1,6.41-2.35,10.67,10.67,0,0,1,6.66,2,9,9,0,0,1,3.37,5.31c0,.07,0,.11.12.14a.23.23,0,0,0,.2,0,6.16,6.16,0,0,0,2.42-5.15,5.43,5.43,0,0,0-2.6-4.66,11.33,11.33,0,0,0-6.52-1.78,15.37,15.37,0,0,0-7.62,1.94,27.31,27.31,0,0,0-6.71,5.5,2.44,2.44,0,0,1-1.78.87h-.13a2.24,2.24,0,0,1-1.85-.7l-1.37-1.42a2.36,2.36,0,0,1-.68-1.69,2.46,2.46,0,0,1,.91-2l4.76-3.94q3.23-2.67,4.27-3.49.87-.73,4.2-3.42c2.22-1.8,3.77-3.07,4.65-3.84a.17.17,0,0,0,0-.15c0-.05-.05-.07-.11-.07-3.65.09-6.74.22-9.26.41l-1.46.09a.86.86,0,0,1-.28,0,2.43,2.43,0,0,1-1.64-.64,2.33,2.33,0,0,1-.86-1.77V13.4a2.19,2.19,0,0,1,.73-1.78,2.43,2.43,0,0,1,1.73-.69h.14c.7.06,1.38.09,2,.09q10,0,14.46-.41A6.546,6.546,0,0,0,173.68,10.56Zm-7.84,32.79h1.73a.294.294,0,0,0,.32-.37,5,5,0,0,0-1.19-2.82,3.07,3.07,0,0,0-2.37-1,2.58,2.58,0,0,0-1.73.54,1.65,1.65,0,0,0-.64,1.28A2.06,2.06,0,0,0,163,42.67,5.13,5.13,0,0,0,165.84,43.35Z" fill="#fff"/>
      <path id="Path_11321" data-name="Path 11321" d="M229.43,40.53a2.66,2.66,0,0,1-2.69,2.69h-3.93a.12.12,0,0,0,.05.09c4,1.62,7.13,2.95,9.44,4a1,1,0,0,1,.64,1.07,1.09,1.09,0,0,1-.73,1l-3,1.09a5.24,5.24,0,0,1-1.92.37,6,6,0,0,1-2.92-.82c-2.06-1.16-4.35-2.28-6.84-3.38a1.2,1.2,0,0,1-.77-1.23,1.17,1.17,0,0,1,.68-1.1l1.78-1a.09.09,0,0,0,0-.11.069.069,0,0,0-.07-.07h-11.8v.13l1.46.69a1.41,1.41,0,0,1,.18,2.51,61.521,61.521,0,0,1-9.94,4.2,4.76,4.76,0,0,1-1.28.18,4.61,4.61,0,0,1-1.1-.14,4.31,4.31,0,0,1-2-1.23l-1.18-1.19a1.26,1.26,0,0,1-.37-.64,1.38,1.38,0,0,1,0-.7,1.51,1.51,0,0,1,.34-.62,1,1,0,0,1,.66-.32,50.09,50.09,0,0,0,8.9-2.74.053.053,0,0,0,.05-.06c0-.06,0-.07-.1-.07h-2.69a2.61,2.61,0,0,1-1.89-.78,2.55,2.55,0,0,1-.8-1.91V26.75a2.73,2.73,0,0,1,2.69-2.69h13.09a.14.14,0,0,0,.14-.09.19.19,0,0,0,0-.18,16.089,16.089,0,0,0-2.05-2.38,1.5,1.5,0,0,1-.48-1.18,1.53,1.53,0,0,1,.52-1.14.09.09,0,0,0,0-.09s0-.05-.07-.05h-1.87a.29.29,0,0,0-.32.32v1.28a2.73,2.73,0,0,1-2.69,2.69h-.6a2.57,2.57,0,0,1-1.91-.8,2.61,2.61,0,0,1-.78-1.89V19.27c0-.21-.12-.32-.36-.32h-2.6a.42.42,0,0,0-.46.32,16.76,16.76,0,0,1-2.6,5.11,2.09,2.09,0,0,1-1.64.77h-.09a2.82,2.82,0,0,1-1.87-.82,3.94,3.94,0,0,0-.5-.5,2.68,2.68,0,0,1-.87-1.78v-.27a2.74,2.74,0,0,1,.55-1.64A13.8,13.8,0,0,0,195,12V10.6a2.08,2.08,0,0,1,.78-1.69,2.05,2.05,0,0,1,1.27-.45,1.71,1.71,0,0,1,.55.09l1.1.27a2.58,2.58,0,0,0,.68,0,59.11,59.11,0,0,0,6.25-1.14A6.86,6.86,0,0,1,207,7.55a4.48,4.48,0,0,1,3.2,1.32l.13.13a1.43,1.43,0,0,1,.51,1.1,2.17,2.17,0,0,1,0,.41,1.46,1.46,0,0,1-1.14,1.1,77,77,0,0,1-8.44,1.32.39.39,0,0,0-.36.36v.46c0,.21.07.32.32.32h9.16a2.73,2.73,0,0,1,2.7,2.69v.36c0,.07,0,.1.06.12a.12.12,0,0,0,.12,0,8.75,8.75,0,0,0,1.32-5V10.6a2.08,2.08,0,0,1,.78-1.69,2.11,2.11,0,0,1,1.32-.45,3,3,0,0,1,.5,0l1.37.32a4.48,4.48,0,0,0,.64,0c2.67-.37,5-.76,6.89-1.19a5.11,5.11,0,0,1,1.32-.18,4.39,4.39,0,0,1,3.19,1.37l.18.13a1.44,1.44,0,0,1,.46,1.05,2.32,2.32,0,0,1,0,.46,1.35,1.35,0,0,1-1.1,1.05A72.79,72.79,0,0,1,220.67,13a.41.41,0,0,0-.37.37v.41c0,.21.08.32.32.32h11.23a2.44,2.44,0,0,1,1.71,4.15,2.31,2.31,0,0,1-1.71.73h-2.6c-.25,0-.37.11-.37.32v1.28a2.61,2.61,0,0,1-.78,1.89,2.55,2.55,0,0,1-1.91.8h-.64a2.59,2.59,0,0,1-1.89-.8,2.55,2.55,0,0,1-.8-1.89V19.27c0-.21-.12-.32-.37-.32h-3.1a.51.51,0,0,0-.5.27,12.67,12.67,0,0,1-3.7,4.66c-.06,0-.07.07,0,.11s.06.07.09.07h11.5a2.57,2.57,0,0,1,1.91.8,2.61,2.61,0,0,1,.78,1.89ZM204.43,28a.33.33,0,0,0-.37.37v.59a.33.33,0,0,0,.37.36h17.79a.32.32,0,0,0,.36-.36v-.59a.32.32,0,0,0-.36-.37Zm0,5c-.24,0-.37.11-.37.32V34a.33.33,0,0,0,.37.36h17.79a.32.32,0,0,0,.36-.36v-.64c0-.21-.12-.32-.36-.32Zm0,5a.33.33,0,0,0-.37.37V39c0,.21.13.32.37.32h17.79c.24,0,.36-.11.36-.32v-.68a.32.32,0,0,0-.36-.37Z" fill="#fff"/>
      <path id="Path_11322" data-name="Path 11322" d="M258.49,24.06a2.7,2.7,0,0,1-2.7,2.69H247c-.24,0-.37.11-.37.32V48.65a2.58,2.58,0,0,1-.77,1.91,2.61,2.61,0,0,1-1.92.78h-1.32a2.65,2.65,0,0,1-2.69-2.69V11.33a2.64,2.64,0,0,1,.77-1.89,2.59,2.59,0,0,1,1.92-.8H255.8a2.7,2.7,0,0,1,2.7,2.69Zm-6.35-10a.28.28,0,0,0-.31-.32H247c-.24,0-.37.11-.37.32v1a.33.33,0,0,0,.37.37h4.84c.21,0,.31-.12.31-.37Zm-5.52,7.25c0,.22.13.32.37.32h4.84c.21,0,.31-.1.31-.32V20.27c0-.24-.1-.36-.31-.36H247a.33.33,0,0,0-.37.36Zm30.8-12.68a2.57,2.57,0,0,1,1.91.8,2.61,2.61,0,0,1,.78,1.89V43.49a11.79,11.79,0,0,1-.62,4.27,4.51,4.51,0,0,1-2.21,2.35,17.67,17.67,0,0,1-7,1.23h-.09a3,3,0,0,1-2-.73A3.55,3.55,0,0,1,267,48.74,25.851,25.851,0,0,0,265.6,45a.5.5,0,0,0-.5-.32H257c-.22,0-.32.09-.32.28a2.17,2.17,0,0,1-.67,1.62,2.2,2.2,0,0,1-1.61.66h-1.28a2.61,2.61,0,0,1-1.89-.78,2.52,2.52,0,0,1-.8-1.91V32.09a2.71,2.71,0,0,1,2.69-2.69H266.3a2.71,2.71,0,0,1,2.7,2.69V44.22c0,.25.11.37.32.37H272a1.3,1.3,0,0,0,1-.28,1.25,1.25,0,0,0,.28-.91V27.12c0-.22-.13-.32-.37-.32h-9.12a2.59,2.59,0,0,1-1.92-.8,2.62,2.62,0,0,1-.77-1.9V11.33a2.68,2.68,0,0,1,2.69-2.69ZM262.32,39.2a.28.28,0,0,0,.32-.32V35.24a.28.28,0,0,0-.32-.32h-5.25c-.24,0-.36.1-.36.32v3.64c0,.22.12.32.36.32ZM273.27,14c0-.21-.13-.32-.37-.32h-5.06a.28.28,0,0,0-.32.32v1.05c0,.25.1.37.32.37h5.06a.33.33,0,0,0,.37-.37Zm-5.75,7.39a.28.28,0,0,0,.32.32h5.06c.24,0,.37-.1.37-.32V20.27a.33.33,0,0,0-.37-.36h-5.06c-.22,0-.32.12-.32.36Z" fill="#fff"/>
    </g>
  </g>
</svg>
