<svg id="ハテナの白抜きアイコン" xmlns="http://www.w3.org/2000/svg" width="203.367" height="203.367" viewBox="0 0 203.367 203.367">
  <path id="Path_11382" data-name="Path 11382" d="M101.683,0A101.683,101.683,0,1,0,203.367,101.683,101.683,101.683,0,0,0,101.683,0ZM82.49,150.457a12.665,12.665,0,1,1,12.668,12.664A12.669,12.669,0,0,1,82.49,150.457Zm54-63.529A34.12,34.12,0,0,1,130.651,97a49.656,49.656,0,0,1-14.872,11.535c-3.066,1.658-5.773,2.935-7.455,3.88a7.968,7.968,0,0,0-2.088,1.52,2.51,2.51,0,0,0-.594,1.122,7.729,7.729,0,0,0-.222,2.022v4.97a4.659,4.659,0,0,1-4.656,4.658H89.543a4.662,4.662,0,0,1-4.66-4.658v-4.97a28.182,28.182,0,0,1,.955-7.458,23.074,23.074,0,0,1,2.982-6.631,26.436,26.436,0,0,1,9.526-8.532c2.94-1.618,5.848-2.961,8.546-4.481a31.59,31.59,0,0,0,6.872-4.914,14.808,14.808,0,0,0,2.815-3.781,15.469,15.469,0,0,0,1.586-7.3,8.177,8.177,0,0,0-1.045-3.736,15.631,15.631,0,0,0-3.68-4.484,21.463,21.463,0,0,0-13.923-4.973,27.687,27.687,0,0,0-14.135,3.424A11.72,11.72,0,0,0,81,68.02a4.662,4.662,0,0,1-5.968.125l-8.623-6.91a4.655,4.655,0,0,1-.133-7.16,27.172,27.172,0,0,1,8.918-7.7,48.315,48.315,0,0,1,24.323-6.128,42.414,42.414,0,0,1,21.555,5.823,37.435,37.435,0,0,1,14.24,14.647A28.611,28.611,0,0,1,138.7,73.978,37.211,37.211,0,0,1,136.488,86.928Z" fill="#fff"/>
</svg>
