<svg xmlns="http://www.w3.org/2000/svg" width="120.5" height="199.553" viewBox="0 0 120.5 199.553">
  <g id="フラッシュのマーク" transform="translate(-101.415 0.001)">
    <path id="Path_11287" data-name="Path 11287" d="M221.592,61.355a3.142,3.142,0,0,0-3-1.772l-28.494,1.5a3.169,3.169,0,0,1-2.917-4.726L215.734,5.712a3.157,3.157,0,0,0-2.71-4.72L140.829,0A3.175,3.175,0,0,0,137.7,2.448l-22.77,97.438a3.165,3.165,0,0,0,3.9,3.776l28.184-7.588a3.161,3.161,0,0,1,3.684,4.4L124.568,155.6l-14.116-19.311-9.037,63.268,58.25-33.135-23.951-3.2,85.429-98.406A3.162,3.162,0,0,0,221.592,61.355Z" transform="translate(0 0)" fill="#fff"/>
  </g>
</svg>
