<svg xmlns="http://www.w3.org/2000/svg" width="342.12" height="120.064" viewBox="0 0 342.12 120.064">
  <g id="レイヤー_1" data-name="レイヤー 1" transform="translate(7.533 7.5)">
    <path id="Path_11471" data-name="Path 11471" d="M33.247,41.233c-.214,0-.333.119-.333.38v3.85c0,.238.119.356.333.356H47.173a2.59,2.59,0,0,1,1.949.808,2.638,2.638,0,0,1,.784,1.949v.594a2.685,2.685,0,0,1-.784,1.925,2.59,2.59,0,0,1-1.949.808H11.978A2.638,2.638,0,0,1,10.03,51.1a2.685,2.685,0,0,1-.784-1.925v-.642a2.709,2.709,0,0,1,2.733-2.757H25.31c.214,0,.333-.119.333-.356v-3.8c0-.261,0-.38-.333-.38H15.8a2.638,2.638,0,0,1-1.949-.784,2.59,2.59,0,0,1-.808-1.949v-.475a2.614,2.614,0,0,1,.808-1.925,2.567,2.567,0,0,1,1.949-.808H25.31a.309.309,0,0,0,.333-.333V31.252c0-.238,0-.38-.333-.38H18.347a2.685,2.685,0,0,1-1.925-.784,2.567,2.567,0,0,1-.808-1.949v-.784a.214.214,0,0,0,0-.19h-.285l-2.376,1.545a3.137,3.137,0,0,1-1.4.356,2.091,2.091,0,0,1-.689,0,3.066,3.066,0,0,1-1.83-1.188c-.333-.475-.665-.927-1.022-1.355a2,2,0,0,1-.452-1.759,2.02,2.02,0,0,1,1.117-1.735,47.1,47.1,0,0,0,8.531-6.084,46.364,46.364,0,0,0,6.7-7.129A5.038,5.038,0,0,1,28.162,7.44H29.92a5.347,5.347,0,0,1,4.373,2.234A44.677,44.677,0,0,0,50.405,22.625,2,2,0,0,1,51.522,24a4.279,4.279,0,0,1,0,.523,1.877,1.877,0,0,1-.475,1.236c-.428.57-.856,1.188-1.307,1.877a2.828,2.828,0,0,1-1.759,1.236,2.186,2.186,0,0,1-.689,0,3.066,3.066,0,0,1-1.4-.356c-.76-.475-1.545-.974-2.376-1.5h-.19V27.9a2.718,2.718,0,0,1-2.733,2.733H33.247c-.214,0-.333.143-.333.38v3.9a.309.309,0,0,0,.333.333h9.506a2.567,2.567,0,0,1,1.949.808,2.709,2.709,0,0,1,.808,1.925v.475A2.685,2.685,0,0,1,44.7,40.4a2.638,2.638,0,0,1-1.949.784ZM18.989,24.6v.119H39.9V24.6A52.614,52.614,0,0,1,29.516,14.569h-.19a.309.309,0,0,0-.238,0,48.527,48.527,0,0,1-10.195,10.1Z" transform="translate(-7.51 -7.44)" fill="#231815"/>
    <path id="Path_11472" data-name="Path 11472" d="M44.066,17.441h0l2.733.57a2.21,2.21,0,0,1,1.568,1.164,2.376,2.376,0,0,1,.285,1.117,2.21,2.21,0,0,1-.19.832c-.618,1.592-1.046,2.709-1.307,3.327a.261.261,0,0,0,0,.238.214.214,0,0,0,.166,0h1.806a2.567,2.567,0,0,1,1.949.808,2.709,2.709,0,0,1,.808,1.925v.76a2.733,2.733,0,0,1-.808,1.949,2.638,2.638,0,0,1-1.949.784H30.117a2.709,2.709,0,0,1-2.757-2.733v-.76a2.614,2.614,0,0,1,.808-1.925,2.567,2.567,0,0,1,1.949-.808H31.97c.214,0,.309-.119.309-.333a26.761,26.761,0,0,0-.594-3.279,2.685,2.685,0,0,1,0-.713,2.519,2.519,0,0,1,.38-1.331,2.21,2.21,0,0,1,1.568-1.164l2.376-.523H30.9a2.614,2.614,0,0,1-1.925-.832,2.543,2.543,0,0,1-.808-1.925v-.452a2.567,2.567,0,0,1,.713-1.854,2.662,2.662,0,0,1,1.925-.784h5.2c.214,0,.309-.143.309-.38V10.6a2.757,2.757,0,0,1,.808-1.972,2.685,2.685,0,0,1,1.925-.784h1.259A2.883,2.883,0,0,1,43.14,10.6v.642c0,.238,0,.38.333.38h5.109a2.685,2.685,0,0,1,1.925.784,2.567,2.567,0,0,1,.808,1.949V14.8a2.543,2.543,0,0,1-.808,1.925,2.638,2.638,0,0,1-1.925.832Zm-11.6,35.029a2.685,2.685,0,0,1-1.925-.784,2.59,2.59,0,0,1-.808-1.949V36.357a2.638,2.638,0,0,1,.808-2,2.685,2.685,0,0,1,1.925-.784H47.275a2.638,2.638,0,0,1,1.949.784,2.709,2.709,0,0,1,.784,1.949V49.546a2.685,2.685,0,0,1-2.733,2.733H45.088a1.711,1.711,0,0,1-1.236-.5,1.687,1.687,0,0,1-.523-1.259c0-.166,0-.238-.238-.238H36.319c-.143,0-.214,0-.214.238a1.854,1.854,0,0,1-.57,1.355,1.877,1.877,0,0,1-1.355.547Zm10.5-34.743c0-.214,0-.309-.285-.309H36.795a.285.285,0,0,0-.214,0,.261.261,0,0,0,0,.238,23.1,23.1,0,0,1,1.164,3.493,2.994,2.994,0,0,1,0,.642,2.638,2.638,0,0,1-.475,1.45,2.852,2.852,0,0,1-1.759,1.188l-.927.238h9.981L44,24.523a2.567,2.567,0,0,1-1.616-1.236A2.614,2.614,0,0,1,42,21.98a3.682,3.682,0,0,1,0-.737A35.837,35.837,0,0,0,42.973,17.726Zm.356,22.148c0-.214,0-.333-.356-.333H36.462c-.238,0-.356,0-.356.333v4.183c0,.214.119.309.356.309h6.511c.238,0,.356,0,.356-.309ZM66.31,9.908h.547a2.376,2.376,0,0,1,1.164.333l1.949,1.212a3.588,3.588,0,0,1,1.687,2.875,3.8,3.8,0,0,1-.19,1.117q-2.376,7.129-4.135,11.122a.547.547,0,0,0,0,.618,16.3,16.3,0,0,1,3.8,10.67c0,3.731-.9,6.274-2.733,7.557A7.343,7.343,0,0,1,65,46.718a2.971,2.971,0,0,1-.832,0h-.19a2.733,2.733,0,0,1-1.806-.689,3.826,3.826,0,0,1-1.069-1.972,13.376,13.376,0,0,0-.333-1.473,2.376,2.376,0,0,1,0-.547,2.044,2.044,0,0,1,1.806-2,3.113,3.113,0,0,0,.974-.333c.665-.4,1.022-1.378,1.022-2.923A12.167,12.167,0,0,0,62.2,29.656a5.537,5.537,0,0,1-1.117-3.208,4.539,4.539,0,0,1,.238-1.473c.689-2.21,1.473-5.014,2.376-8.413a.151.151,0,1,0-.214-.214H60.131a.309.309,0,0,0-.356.356V49.689a2.59,2.59,0,0,1-.808,1.949,2.638,2.638,0,0,1-1.949.784H55.782a2.638,2.638,0,0,1-1.949-.784,2.59,2.59,0,0,1-.808-1.949v-37a2.59,2.59,0,0,1,.808-1.949,2.638,2.638,0,0,1,1.949-.784h10.29Z" transform="translate(19.813 -6.889)" fill="#231815"/>
    <path id="Path_11473" data-name="Path 11473" d="M84.981,43.325a2.59,2.59,0,0,1-2.59,2.59H78.874a1.9,1.9,0,0,1-1.45-.642,1.949,1.949,0,0,1-.594-1.45h0q0-.214-.285-.214h-24.5a2.682,2.682,0,0,1-2.614-2.519V38.406a2.5,2.5,0,0,1,.856-1.9,2.376,2.376,0,0,1,1.759-.713h.143c1.259,0,2.376.143,3.517.143H76.545c.214,0,.333-.119.333-.356V18.206c0-.214,0-.309-.333-.309H52.733a2.543,2.543,0,0,1-1.806-.76,2.376,2.376,0,0,1-.784-1.854V12.907a2.555,2.555,0,0,1,2.543-2.567h.143q2.091.143,3.565.143h26a2.567,2.567,0,0,1,2.567,2.567h0V39.737Z" transform="translate(50.191 -3.449)" fill="#231815"/>
    <path id="Path_11474" data-name="Path 11474" d="M71.464,42.693a2.186,2.186,0,0,1-1.521-1.069,1.877,1.877,0,0,1-.333-1.069,2.02,2.02,0,0,1,.19-.832l.879-2.186A3.208,3.208,0,0,1,72.153,35.8a3.636,3.636,0,0,1,1.64-.4h.594c3.755.642,7.961,1.521,12.666,2.614s8.7,2.139,11.882,3.137a2.376,2.376,0,0,1,1.5,1.355,2.568,2.568,0,0,1,.238,1.022,2.781,2.781,0,0,1-.238,1.022l-.974,2.163a2.9,2.9,0,0,1-1.545,1.545,3.636,3.636,0,0,1-1.188.238,3.754,3.754,0,0,1-1-.143q-4.539-1.5-11.526-3.089T71.464,42.693Zm2.59-13.76a2.067,2.067,0,0,1-1.521-1.093,2.377,2.377,0,0,1-.333-1.117,2.519,2.519,0,0,1,.143-.808l.737-1.854A3.351,3.351,0,0,1,76.145,21.9h.618q11.407,2.091,20.01,4.563a2.638,2.638,0,0,1,1.806,2.4,2.59,2.59,0,0,1-.19.927l-.832,2.139a2.59,2.59,0,0,1-1.45,1.545,2.828,2.828,0,0,1-1.212.285,3.137,3.137,0,0,1-.927-.143,170.913,170.913,0,0,0-19.914-4.682ZM76.24,15.815a2.162,2.162,0,0,1-1.568-1.069,2.233,2.233,0,0,1-.333-1.069,2.02,2.02,0,0,1,.19-.832l.76-1.735a3.731,3.731,0,0,1,1.5-1.759A3.422,3.422,0,0,1,78.5,8.9a2.044,2.044,0,0,1,.523,0c3.184.475,6.8,1.164,10.884,2.02s7.51,1.663,10.314,2.376a2.376,2.376,0,0,1,1.545,1.307,2.852,2.852,0,0,1,.214,1.069,2.71,2.71,0,0,1-.166.974l-.9,2.139a2.59,2.59,0,0,1-1.473,1.521,2.875,2.875,0,0,1-2.139.143Q93.16,19.19,87.1,17.811c-4.159-.808-7.723-1.521-10.86-2Z" transform="translate(77.967 -5.454)" fill="#231815"/>
    <path id="Path_11475" data-name="Path 11475" d="M124.981,43.325a2.59,2.59,0,0,1-2.59,2.59h-3.517a1.9,1.9,0,0,1-1.45-.642,1.949,1.949,0,0,1-.594-1.45h0q0-.214-.285-.214h-24.5a2.682,2.682,0,0,1-2.614-2.519V38.406a2.5,2.5,0,0,1,.855-1.9,2.377,2.377,0,0,1,1.759-.713h.143c1.259,0,2.376.143,3.517.143h20.841c.214,0,.333-.119.333-.356V18.206c0-.214,0-.309-.333-.309H92.733a2.543,2.543,0,0,1-1.806-.76,2.376,2.376,0,0,1-.784-1.854V12.907a2.555,2.555,0,0,1,2.543-2.567h.143q2.115.143,3.565.143h26a2.567,2.567,0,0,1,2.567,2.567h0V39.737Z" transform="translate(105.248 -3.449)" fill="#231815"/>
    <path id="Path_11476" data-name="Path 11476" d="M111.464,42.693a2.186,2.186,0,0,1-1.521-1.069,1.877,1.877,0,0,1-.333-1.069,2.02,2.02,0,0,1,.19-.832l.879-2.186a3.208,3.208,0,0,1,1.473-1.735,3.636,3.636,0,0,1,1.64-.4h.594c3.755.642,7.961,1.521,12.666,2.614s8.7,2.139,11.882,3.137a2.377,2.377,0,0,1,1.5,1.355,2.566,2.566,0,0,1,.238,1.022,2.781,2.781,0,0,1-.238,1.022l-.974,2.163a2.9,2.9,0,0,1-1.545,1.545,3.636,3.636,0,0,1-1.188.238,3.755,3.755,0,0,1-1-.143q-4.539-1.5-11.526-3.089T111.464,42.693Zm2.59-13.76a2.068,2.068,0,0,1-1.521-1.093,2.376,2.376,0,0,1-.333-1.117,2.519,2.519,0,0,1,.143-.808l.737-1.854a3.351,3.351,0,0,1,3.066-2.163h.618q11.407,2.091,20.01,4.563a2.638,2.638,0,0,1,1.806,2.4,2.591,2.591,0,0,1-.19.927l-.832,2.139a2.59,2.59,0,0,1-1.45,1.545,2.828,2.828,0,0,1-1.212.285,3.136,3.136,0,0,1-.927-.143,170.912,170.912,0,0,0-19.914-4.682Zm2.186-13.118a2.163,2.163,0,0,1-1.568-1.069,2.234,2.234,0,0,1-.333-1.069,2.02,2.02,0,0,1,.19-.832l.642-1.735a3.731,3.731,0,0,1,1.5-1.759,3.422,3.422,0,0,1,1.711-.452,2.043,2.043,0,0,1,.523,0c3.184.475,6.8,1.164,10.884,2.02S137.3,12.583,140.1,13.3a2.376,2.376,0,0,1,1.545,1.307,2.853,2.853,0,0,1,.214,1.069,2.71,2.71,0,0,1-.166.974l-.9,2.139a2.59,2.59,0,0,1-1.473,1.521,2.876,2.876,0,0,1-2.139.143q-4.135-1.259-10.195-2.638c-4.04-.808-7.6-1.521-10.741-2Z" transform="translate(133.024 -5.454)" fill="#231815"/>
    <path id="Path_11477" data-name="Path 11477" d="M131.341,19.524h-.5a2.234,2.234,0,0,1-1.45-.523,2.376,2.376,0,0,1-.974-1.759l-.238-2.258V14.7a2.376,2.376,0,0,1,.665-1.687,2.638,2.638,0,0,1,1.854-.879,17.446,17.446,0,0,0,2.091-.143l7.818-.642,12.31-1.069c3.161-.238,6.82-.475,10.955-.689h.143a2.376,2.376,0,0,1,1.806.737,2.875,2.875,0,0,1,.856,1.9v1.854a2.638,2.638,0,0,1-.808,1.925,2.8,2.8,0,0,1-1.949.879,36.644,36.644,0,0,0-6.25.5,11.336,11.336,0,0,0-6.678,4.468,12.476,12.476,0,0,0-2.8,7.723,7.937,7.937,0,0,0,3.327,6.82,18.607,18.607,0,0,0,8.721,3.137,2.163,2.163,0,0,1,1.592.974,2.091,2.091,0,0,1,.356,1.164,1.972,1.972,0,0,1-.143.689l-1.022,2.733a3.541,3.541,0,0,1-1.378,1.806,2.994,2.994,0,0,1-1.687.523h-.547a27.282,27.282,0,0,1-8.46-2.8,16.635,16.635,0,0,1-5.989-5.537,14.021,14.021,0,0,1-2.376-7.89,17.776,17.776,0,0,1,1.711-7.818,18.821,18.821,0,0,1,4.087-5.68v-.143h0C140.276,18.1,135.309,18.788,131.341,19.524ZM157.2,24.4a2.092,2.092,0,0,1-.285-1.022,2.021,2.021,0,0,1,0-.547,1.687,1.687,0,0,1,1.022-1.164,2.376,2.376,0,0,1,1.022-.238,2.78,2.78,0,0,1,2.376,1.26c.5.808.974,1.616,1.426,2.376a2.044,2.044,0,0,1,.238.974,2.785,2.785,0,0,1,0,.76,2.091,2.091,0,0,1-1.188,1.236,2.828,2.828,0,0,1-.951.19,2.662,2.662,0,0,1-.832-.143,2.376,2.376,0,0,1-1.331-1.212,27.18,27.18,0,0,0-1.5-2.471Zm5.49-2.186a1.782,1.782,0,0,1-.333-1.069,1.4,1.4,0,0,1,0-.5,1.759,1.759,0,0,1,1.022-1.212,2.709,2.709,0,0,1,1.069-.238,4.182,4.182,0,0,1,.737,0,2.686,2.686,0,0,1,1.473,1.069c.547.784,1.022,1.545,1.5,2.376a2.091,2.091,0,0,1,.333,1.069,2.991,2.991,0,0,1,0,.642,2.186,2.186,0,0,1-1.117,1.307,2.709,2.709,0,0,1-1.022.214,2.092,2.092,0,0,1-.784-.119,2.377,2.377,0,0,1-1.4-1.164c-.475-.784-.951-1.592-1.473-2.376Z" transform="translate(158.585 -4.481)" fill="#231815"/>
    <path id="Path_11478" data-name="Path 11478" d="M35.239,50.209v1.45c0,.238.119.333.38.261a38.021,38.021,0,0,1,7.937-.927,17.752,17.752,0,0,1,6.8,1.236,11.264,11.264,0,0,1,4.9,3.707,9.506,9.506,0,0,1,1.854,5.87,11.882,11.882,0,0,1-2.376,7.557,14.4,14.4,0,0,1-8.151,4.515,29.251,29.251,0,0,1-3.636.57h-.4a3.066,3.066,0,0,1-1.806-.547,3.826,3.826,0,0,1-1.45-1.806l-.784-2.234a2,2,0,0,1,0-.642,2.044,2.044,0,0,1,.333-1.117,1.854,1.854,0,0,1,1.616-.832,23.96,23.96,0,0,0,3.161-.333,10,10,0,0,0,4.539-1.782,4.135,4.135,0,0,0,1.711-3.422,3.8,3.8,0,0,0-1.687-3.279A7.652,7.652,0,0,0,43.6,57.243a32.248,32.248,0,0,0-7.7.974.323.323,0,0,0-.333.4c.119,4.539.19,7.129.19,7.937a10.385,10.385,0,0,1-1.5,6.488,5.2,5.2,0,0,1-4.254,1.782,12.666,12.666,0,0,1-5.323-1.236,12.5,12.5,0,0,1-4.587-3.47,7.391,7.391,0,0,1-1.9-4.753,8.817,8.817,0,0,1,2.923-6.084,22.885,22.885,0,0,1,7.391-5.014.523.523,0,0,0,.333-.523V48.094a.309.309,0,0,0-.333-.333H22.668a2.662,2.662,0,0,1-1.949-.9,3.042,3.042,0,0,1-.832-2.02v-1.4a2.163,2.163,0,0,1,.737-1.806,2.376,2.376,0,0,1,1.711-.713h6.179a.333.333,0,0,0,.333-.356V35.9a2.6,2.6,0,0,1,2.5-2.543h2.376a2.464,2.464,0,0,1,2.424,2.448v.285A10.5,10.5,0,0,1,36,37.946l-.143,2.044a.309.309,0,0,0,0,.238.261.261,0,0,0,.214,0c1.806-.261,3.517-.57,5.109-.927h.57a2.02,2.02,0,0,1,1.283.452,2.234,2.234,0,0,1,.9,1.687v1.616a3.161,3.161,0,0,1-.713,2.115,2.876,2.876,0,0,1-1.9,1.141c-1.616.285-3.422.523-5.418.737a.38.38,0,0,0-.38.428A7.7,7.7,0,0,0,35.239,50.209ZM27.587,67.058a1.355,1.355,0,0,0,1-.356,2.186,2.186,0,0,0,.333-1.5v-4.04a.214.214,0,0,0,0-.19h-.19c-2.376,1.4-3.493,2.733-3.493,4.04a1.782,1.782,0,0,0,.879,1.426,2.876,2.876,0,0,0,1.473.618ZM48.238,45.195a2.376,2.376,0,0,1-1.355-1.568,2.519,2.519,0,0,1-.143-.808,2.614,2.614,0,0,1,.333-1.236l.475-.76a2.8,2.8,0,0,1,1.616-1.378,2.947,2.947,0,0,1,.879-.143,2.685,2.685,0,0,1,1.26.333c2.709,1.331,5.133,2.614,7.129,3.85a2.757,2.757,0,0,1,1.236,1.711,2.187,2.187,0,0,1,0,.689,2.852,2.852,0,0,1-.356,1.4l-.665,1.069a2.543,2.543,0,0,1-1.616,1.212h-.594a2.376,2.376,0,0,1-1.4-.428A71.326,71.326,0,0,0,48.238,45.195Z" transform="translate(7.205 28.237)" fill="#231815"/>
    <path id="Path_11479" data-name="Path 11479" d="M46.334,44.882a4.04,4.04,0,0,1,1.877-1.307,3.445,3.445,0,0,1,.974-.143,2.852,2.852,0,0,1,1.236.285l1.022.428a2.163,2.163,0,0,1,1.307,1.426,2,2,0,0,1,.143.713,2.115,2.115,0,0,1-.428,1.236c-.832,1.236-1.687,2.376-2.543,3.493a.927.927,0,0,0-.238.642V74.587a2.59,2.59,0,0,1-.808,1.949,2.685,2.685,0,0,1-1.925.784H45.74a2.679,2.679,0,0,1-2.733-2.733V58.879h0a.261.261,0,0,0-.19,0c-.4.4-.808.76-1.212,1.117a1.64,1.64,0,0,1-1.164.452,1.568,1.568,0,0,1-.547,0A1.949,1.949,0,0,1,38.54,59.26c-.309-.76-.618-1.473-.927-2.186a3.469,3.469,0,0,1-.309-1.45,3.208,3.208,0,0,1,0-.784,3.137,3.137,0,0,1,1.141-1.854,42.776,42.776,0,0,0,7.89-8.1ZM44.766,34.4a3.969,3.969,0,0,1,1.949-1.26A3.589,3.589,0,0,1,47.689,33,3.327,3.327,0,0,1,49,33.285l1.473.594a1.925,1.925,0,0,1,1.259,1.4,3.893,3.893,0,0,1,0,.547,1.9,1.9,0,0,1-.475,1.212,54.8,54.8,0,0,1-9.03,8.579,2.377,2.377,0,0,1-1.355.475,3.279,3.279,0,0,1-.618,0,2.638,2.638,0,0,1-1.568-1.212l-.642-1.164a2.685,2.685,0,0,1-.428-1.426,2.139,2.139,0,0,1,0-.665,3.042,3.042,0,0,1,1.378-1.972,33.817,33.817,0,0,0,5.775-5.371ZM78.7,59.331a2.709,2.709,0,0,1,1.925.808,2.614,2.614,0,0,1,.808,1.925V62.4a2.566,2.566,0,0,1-.808,1.949,2.685,2.685,0,0,1-1.925.784H75.588c-.214,0-.333.143-.333.38v5.109a9.506,9.506,0,0,1-.618,3.588,3.945,3.945,0,0,1-2,1.972,11.882,11.882,0,0,1-4.753.927h-.143a2.971,2.971,0,0,1-1.949-.689,3.731,3.731,0,0,1-1.355-1.9c-.333-1-.713-1.925-1.117-2.828,0-.214-.238-.261-.4,0l-1.164.784a2.709,2.709,0,0,1-1.5.475h-.5a2.828,2.828,0,0,1-1.806-1.117c-.547-.689-1.164-1.4-1.877-2.186a2.376,2.376,0,0,1-.452-1.711,1.855,1.855,0,0,1,0-.333,2.115,2.115,0,0,1,.974-1.664l.927-.618V65.2H54.414a2.685,2.685,0,0,1-1.925-.784,2.567,2.567,0,0,1-.808-1.949v-.333a2.614,2.614,0,0,1,.808-1.925,2.709,2.709,0,0,1,1.925-.808H67.936c.214,0,.309,0,.309-.309V57.881c0-.261,0-.38-.309-.38H55.626a2.679,2.679,0,0,1-2.733-2.733v-.143a2.685,2.685,0,0,1,.784-1.925,2.567,2.567,0,0,1,1.949-.808H77.537a2.59,2.59,0,0,1,1.949.808,2.685,2.685,0,0,1,.784,1.925v.143A2.685,2.685,0,0,1,77.537,57.5H75.588c-.214,0-.333,0-.333.38v1.26c0,.214.119.309.333.309ZM76.515,33.38a2.638,2.638,0,0,1,1.925.832,2.543,2.543,0,0,1,.808,1.925V47.686a2.757,2.757,0,0,1-2.733,2.733h-18.7a2.567,2.567,0,0,1-1.949-.784,2.685,2.685,0,0,1-.784-1.925V36.137a2.758,2.758,0,0,1,2.733-2.757Zm-8.27,37.049V65.51c0-.238,0-.38-.309-.38h-7.7v.143a54.182,54.182,0,0,1,3.731,4.04,1.141,1.141,0,0,1,.19.832,1.069,1.069,0,0,1-.428.737h3.612a1.45,1.45,0,0,0,.665-.166A.666.666,0,0,0,68.245,70.429Zm3.683-30.894c.214,0,.309,0,.309-.333v-.832c0-.214,0-.309-.309-.309H62.066c-.238,0-.356,0-.356.309V39.2c0,.214,0,.333.356.333Zm0,5.989c.214,0,.309,0,.309-.333v-.879c0-.214,0-.309-.309-.309H62.066c-.238,0-.356,0-.356.309v.879c0,.214,0,.333.356.333Z" transform="translate(33.467 27.742)" fill="#231815"/>
    <path id="Path_11480" data-name="Path 11480" d="M79.149,39.146h.57A2.186,2.186,0,0,1,81,39.574a1.949,1.949,0,0,1,.832,1.664v1.069a3.327,3.327,0,0,1-.665,2.186A3.089,3.089,0,0,1,79.244,45.7c-1.616.333-3.256.642-4.967.927a.57.57,0,0,0-.475.356,80.793,80.793,0,0,1-3.66,9.007,79.356,79.356,0,0,1-4.753,8.65,2.947,2.947,0,0,1-1.759,1.283,3.255,3.255,0,0,1-.808,0,2.8,2.8,0,0,1-1.378-.333l-2-1.022a2.139,2.139,0,0,1-1.164-1.521,1.568,1.568,0,0,1,0-.547,2.377,2.377,0,0,1,.475-1.355,71.934,71.934,0,0,0,7.557-13.593.214.214,0,0,0-.19-.285H61.587a3.089,3.089,0,0,1-2.947-2.8V43.4a2.115,2.115,0,0,1,.642-1.806,2.376,2.376,0,0,1,1.687-.713h7.319a.475.475,0,0,0,.428-.356,48.142,48.142,0,0,0,.879-4.753,2.852,2.852,0,0,1,.974-1.877,2.685,2.685,0,0,1,1.664-.594h.285l2.376.238a2.377,2.377,0,0,1,2.186,2.305,1.948,1.948,0,0,1,0,.618c-.238,1.022-.5,2.02-.784,2.971a.214.214,0,0,0,0,.238.19.19,0,0,0,.19,0A20.262,20.262,0,0,0,79.149,39.146Zm2.376,12.025a2.567,2.567,0,0,1,.689-1.806,2.376,2.376,0,0,1,1.9-.784h1.663a2.376,2.376,0,0,1,1.877.808,2.971,2.971,0,0,1,.832,1.925v3.85c0,.285,0,1.806.214,4.539a.523.523,0,0,0,.333.523,29.278,29.278,0,0,1,7.343,4.23,2.733,2.733,0,0,1,1.093,1.9,1.616,1.616,0,0,1,0,.5,3.161,3.161,0,0,1-.5,1.687l-.879,1.473A2.139,2.139,0,0,1,94.5,71.038h-.356a2.377,2.377,0,0,1-1.5-.594c-1.188-1.069-2.376-1.972-3.375-2.757h-.214v.143c-.285,5.157-3.446,7.533-9.482,7.533a13.45,13.45,0,0,1-7.985-2.21,7.129,7.129,0,0,1-3.113-6.2,7.937,7.937,0,0,1,2.875-6.226,12.048,12.048,0,0,1,8.127-2.5,20.223,20.223,0,0,1,2.091,0c.238,0,.356,0,.309-.285-.214-4.183-.309-6.488-.309-6.773Zm.594,13.546a.333.333,0,0,0-.333-.356,16.11,16.11,0,0,0-2.757-.285,5.347,5.347,0,0,0-2.733.618,1.877,1.877,0,0,0-1.022,1.664,2.376,2.376,0,0,0,.9,1.854,3.945,3.945,0,0,0,2.376.689,3.4,3.4,0,0,0,2.852-1.069,5.014,5.014,0,0,0,.76-3.113ZM97.566,44.3a2.376,2.376,0,0,1,1.212,1.664,5.853,5.853,0,0,1,0,.618,2.566,2.566,0,0,1-.452,1.473l-.974,1.45a2.733,2.733,0,0,1-1.735,1.117h-.5a2.638,2.638,0,0,1-1.545-.523,69.229,69.229,0,0,0-6.915-3.992,2.377,2.377,0,0,1-1.236-1.521,2.688,2.688,0,0,1,0-.713,2.376,2.376,0,0,1,.356-1.236l.713-1.069a3.018,3.018,0,0,1,1.759-1.355,3.825,3.825,0,0,1,.879,0,3.327,3.327,0,0,1,1.307.285,80.493,80.493,0,0,1,7.177,3.8Z" transform="translate(62.345 28.155)" fill="#231815"/>
    <path id="Path_11481" data-name="Path 11481" d="M122.176,61.407v.452a2.828,2.828,0,0,1-2.376,2.757l-2.376.452a.356.356,0,0,0-.333.38v9.506a2.567,2.567,0,0,1-.808,1.949,2.685,2.685,0,0,1-1.925.784h-.974a2.685,2.685,0,0,1-2.733-2.733V66.635c0-.238-.143-.333-.38-.261l-9.506,1.664h-.523a2.376,2.376,0,0,1-1.473-.5,2.614,2.614,0,0,1-1.117-1.782l-.475-2.875a.119.119,0,0,0,0-.119h-.19l-2,2.567a1.545,1.545,0,0,1-1.283.689h-.238a1.758,1.758,0,0,1-1.4-.927c-.333-.642-.76-1.4-1.236-2.234h0V74.739A2.718,2.718,0,0,1,88.1,77.471h-.927a2.709,2.709,0,0,1-1.949-.784,2.662,2.662,0,0,1-.808-1.949v-12.1h0a59.7,59.7,0,0,1-3.327,8.032,1.188,1.188,0,0,1-1.212.618,1.259,1.259,0,0,1-1.069-.832c-.285-.689-.594-1.426-.974-2.186a4.7,4.7,0,0,1,.38-4.681A47.979,47.979,0,0,0,82.2,55.181a.285.285,0,0,0,0-.238H80.4a2.718,2.718,0,0,1-2.757-2.733v-.974A2.718,2.718,0,0,1,80.4,48.5h3.85c.214,0,.309-.119.309-.333V35.694a2.757,2.757,0,0,1,2.757-2.757h.927a2.614,2.614,0,0,1,1.925.808,2.662,2.662,0,0,1,.808,1.949V45.889h0c.665-2.376,1.26-5.157,1.759-8.056A2.662,2.662,0,0,1,95.274,35.6a1.426,1.426,0,0,1,.523,0h.4a2.543,2.543,0,0,1,2,2.376,2.377,2.377,0,0,1,0,.784c-.856,2.709-1.521,4.753-2,6.226a2.852,2.852,0,0,1-1.45,1.616,2.543,2.543,0,0,1-1.355.38,2.377,2.377,0,0,1-.784-.143l-1.26-.309H91.14a.238.238,0,0,0,0,.214v1.117c0,.214,0,.333.309.333h3.541a2.757,2.757,0,0,1,2.733,2.733V51.9a2.757,2.757,0,0,1-3.161,3.066H90.736v.143c.642.57,1.64,1.568,3.018,3.018s2.376,2.685,3.279,3.66a.642.642,0,0,0,.57.19L110.27,59.6a.344.344,0,0,0,.38-.356V35.314a2.686,2.686,0,0,1,.784-1.925,2.567,2.567,0,0,1,1.949-.808H114.5a2.757,2.757,0,0,1,2.733,2.733V58.151c0,.238.119.333.333.285l1.426-.238h.523a2.685,2.685,0,0,1,1.521.475,2.59,2.59,0,0,1,1.069,1.759ZM83.8,44.035a3.358,3.358,0,0,1,0,.428,2.686,2.686,0,0,1-.523,1.616,3.018,3.018,0,0,1-1.806,1.259,1.568,1.568,0,0,1-.547,0,1.925,1.925,0,0,1-1.212-.428,2.091,2.091,0,0,1-.856-1.45,48.453,48.453,0,0,0-1.117-6.369,1.829,1.829,0,0,1,0-.594,2.377,2.377,0,0,1,.38-1.307,2.519,2.519,0,0,1,1.473-1.117,2.994,2.994,0,0,1,.665,0,2.614,2.614,0,0,1,1.236.333,2.376,2.376,0,0,1,1.164,1.545A44.773,44.773,0,0,1,83.8,44.035Zm15.827,8.912a2.733,2.733,0,0,1-1.164-1.759q-.015-.3,0-.594a2.59,2.59,0,0,1,.428-1.45l.214-.38a2.97,2.97,0,0,1,1.782-1.236,2.377,2.377,0,0,1,.689,0,2.828,2.828,0,0,1,1.426.4c1.331.856,2.543,1.64,3.588,2.376a2.9,2.9,0,0,1,1.117,1.9v.38a2.971,2.971,0,0,1-.523,1.711l-.547.879a2.139,2.139,0,0,1-1.592,1.022h-.309a2.376,2.376,0,0,1-1.545-.594,43.489,43.489,0,0,0-3.565-2.662Zm8.626-14.259a2.519,2.519,0,0,1,1.022,1.9,1.829,1.829,0,0,1,0,.356,3.066,3.066,0,0,1-.594,1.83l-.475.642a1.972,1.972,0,0,1-1.616.927h-.19a2.376,2.376,0,0,1-1.616-.642,41.918,41.918,0,0,0-3.256-2.662,2.685,2.685,0,0,1-1.117-1.759,4.342,4.342,0,0,1,0-.5,2.376,2.376,0,0,1,.523-1.545v-.19a2.875,2.875,0,0,1,1.83-1.188,2.613,2.613,0,0,1,.594,0,2.567,2.567,0,0,1,1.473.452,32.344,32.344,0,0,1,3.422,2.353Z" transform="translate(88.662 27.163)" fill="#231815"/>
    <path id="Path_11482" data-name="Path 11482" d="M130.188,62.2h0l1.592.689a1.949,1.949,0,0,1,1.307,1.307,2.988,2.988,0,0,1,0,.642,2.186,2.186,0,0,1-.38,1.164c-1.568,2.163-2.59,3.517-3.018,4.087a.261.261,0,0,0,0,.19.142.142,0,0,0,.143,0h6.7a2.852,2.852,0,0,1,2.757,2.757v.4a2.852,2.852,0,0,1-2.757,2.875H101.861a2.8,2.8,0,0,1-2.733-2.757v-.4a2.8,2.8,0,0,1,2.733-2.757h5.394a.285.285,0,0,0,.214,0,.261.261,0,0,0,0-.238,33.1,33.1,0,0,0-2-4.135,2.376,2.376,0,0,1-.333-1.212,2.02,2.02,0,0,1,.143-.737,2.091,2.091,0,0,1,1.307-1.4l.642-.261H104.4a2.709,2.709,0,0,1-1.925-.808,2.614,2.614,0,0,1-.808-1.925v-.428a2.757,2.757,0,0,1,2.733-2.733h10.48c.261,0,.38,0,.38-.333V52.818c0-.214-.119-.309-.38-.309h-5.941a1.877,1.877,0,0,1-1.854-1.877h0c-1.164.832-2.543,1.711-4.111,2.638a2.78,2.78,0,0,1-1.307.356,1.925,1.925,0,0,1-.737,0,3.28,3.28,0,0,1-1.782-1.212,16.347,16.347,0,0,0-1.022-1.307,2,2,0,0,1-.451-1.759,2.02,2.02,0,0,1,1.022-1.5,46.175,46.175,0,0,0,8.46-6.345,46.411,46.411,0,0,0,6.464-7.129A5.038,5.038,0,0,1,117.878,32h1.759a5.323,5.323,0,0,1,4.373,2.186,48.642,48.642,0,0,0,7.557,7.6,41.635,41.635,0,0,0,8.46,5.347,1.949,1.949,0,0,1,1.117,1.378,3.572,3.572,0,0,1,0,.523,2.091,2.091,0,0,1-.475,1.259c-.428.547-.855,1.141-1.307,1.806a2.876,2.876,0,0,1-1.759,1.26h-.689a2.923,2.923,0,0,1-1.4-.356c-1.473-.9-2.923-1.854-4.3-2.828h0a1.925,1.925,0,0,1-.57,1.4,2.044,2.044,0,0,1-1.426.594h-6.131c-.214,0-.333,0-.333.309v3.161a.309.309,0,0,0,.333.333h10.67a2.543,2.543,0,0,1,1.925.808,2.638,2.638,0,0,1,.832,1.925v.428a2.8,2.8,0,0,1-2.757,2.733Zm-14.948.356c0-.238-.119-.356-.38-.356h-4.444v.166a39.558,39.558,0,0,1,2.376,3.921,2.377,2.377,0,0,1,.285,1.093,2.637,2.637,0,0,1-.19.974,2.852,2.852,0,0,1-1.521,1.545l-.618.285h3.992c.261,0,.38,0,.38-.309Zm-2.971-16.3V46.4a.166.166,0,0,0,.143,0h13.546a.166.166,0,0,0,.143,0v-.143a50.5,50.5,0,0,1-6.773-7.129c0-.19-.261-.19-.38,0a46.007,46.007,0,0,1-6.678,7.129ZM127.407,62.49a.135.135,0,1,0-.166-.214h-4.278c-.214,0-.333,0-.333.356v7.391c0,.214,0,.309.333.309h2.9a1.973,1.973,0,0,1-1.164-1.26,3,3,0,0,1,0-.642,1.949,1.949,0,0,1,.333-1.069,43.657,43.657,0,0,0,2.376-4.848Z" transform="translate(116.534 26.365)" fill="#231815"/>
    <path id="Path_11483" data-name="Path 11483" d="M133.987,69.4a6.3,6.3,0,0,1-8.032,0,4.753,4.753,0,0,1-1.592-3.755,4.9,4.9,0,0,1,1.592-3.731,6.131,6.131,0,0,1,8.032,0,4.9,4.9,0,0,1,1.592,3.731,4.753,4.753,0,0,1-1.592,3.755Zm-4.206-11.716a3.065,3.065,0,0,1-2.091-.808,2.971,2.971,0,0,1-1.022-1.949L125.1,42.641l-.19-5.157a2.638,2.638,0,0,1,.713-1.925,2.376,2.376,0,0,1,1.877-.808h4.967a2.376,2.376,0,0,1,1.877.808,2.685,2.685,0,0,1,.784,1.925l-.238,5.157L133.3,54.927a2.947,2.947,0,0,1-1,1.949,3.042,3.042,0,0,1-2.044.808Z" transform="translate(153.324 30.149)" fill="#231815"/>
    <path id="Path_11484" data-name="Path 11484" d="M33.247,41.233c-.214,0-.333.119-.333.38v3.85c0,.238.119.356.333.356H47.173a2.59,2.59,0,0,1,1.949.808,2.638,2.638,0,0,1,.784,1.949v.594a2.685,2.685,0,0,1-.784,1.925,2.59,2.59,0,0,1-1.949.808H11.978A2.638,2.638,0,0,1,10.03,51.1a2.685,2.685,0,0,1-.784-1.925v-.642a2.709,2.709,0,0,1,2.733-2.757H25.31c.214,0,.333-.119.333-.356v-3.8c0-.261,0-.38-.333-.38H15.8a2.638,2.638,0,0,1-1.949-.784,2.59,2.59,0,0,1-.808-1.949v-.475a2.614,2.614,0,0,1,.808-1.925,2.567,2.567,0,0,1,1.949-.808H25.31a.309.309,0,0,0,.333-.333V31.252c0-.238,0-.38-.333-.38H18.347a2.685,2.685,0,0,1-1.925-.784,2.567,2.567,0,0,1-.808-1.949v-.784a.214.214,0,0,0,0-.19h-.285l-2.376,1.545a3.137,3.137,0,0,1-1.4.356,2.091,2.091,0,0,1-.689,0,3.066,3.066,0,0,1-1.83-1.188c-.333-.475-.665-.927-1.022-1.355a2,2,0,0,1-.452-1.759,2.02,2.02,0,0,1,1.117-1.735,47.1,47.1,0,0,0,8.531-6.084,46.364,46.364,0,0,0,6.7-7.129A5.038,5.038,0,0,1,28.162,7.44H29.92a5.347,5.347,0,0,1,4.373,2.234A44.677,44.677,0,0,0,50.405,22.625,2,2,0,0,1,51.522,24a4.279,4.279,0,0,1,0,.523,1.877,1.877,0,0,1-.475,1.236c-.428.57-.856,1.188-1.307,1.877a2.828,2.828,0,0,1-1.759,1.236,2.186,2.186,0,0,1-.689,0,3.066,3.066,0,0,1-1.4-.356c-.76-.475-1.545-.974-2.376-1.5h-.19V27.9a2.718,2.718,0,0,1-2.733,2.733H33.247c-.214,0-.333.143-.333.38v3.9a.309.309,0,0,0,.333.333h9.506a2.567,2.567,0,0,1,1.949.808,2.709,2.709,0,0,1,.808,1.925v.475A2.685,2.685,0,0,1,44.7,40.4a2.638,2.638,0,0,1-1.949.784ZM18.989,24.6v.119H39.9V24.6A52.614,52.614,0,0,1,29.516,14.569h-.19a.309.309,0,0,0-.238,0,48.527,48.527,0,0,1-10.195,10.1Z" transform="translate(-7.51 -7.44)" fill="none" stroke="#034baf" stroke-linejoin="round" stroke-width="15"/>
    <path id="Path_11485" data-name="Path 11485" d="M44.066,17.441h0l2.733.57a2.21,2.21,0,0,1,1.568,1.164,2.376,2.376,0,0,1,.285,1.117,2.21,2.21,0,0,1-.19.832c-.618,1.592-1.046,2.709-1.307,3.327a.261.261,0,0,0,0,.238.214.214,0,0,0,.166,0h1.806a2.567,2.567,0,0,1,1.949.808,2.709,2.709,0,0,1,.808,1.925v.76a2.733,2.733,0,0,1-.808,1.949,2.638,2.638,0,0,1-1.949.784H30.117a2.709,2.709,0,0,1-2.757-2.733v-.76a2.614,2.614,0,0,1,.808-1.925,2.567,2.567,0,0,1,1.949-.808H31.97c.214,0,.309-.119.309-.333a26.761,26.761,0,0,0-.594-3.279,2.685,2.685,0,0,1,0-.713,2.519,2.519,0,0,1,.38-1.331,2.21,2.21,0,0,1,1.568-1.164l2.376-.523H30.9a2.614,2.614,0,0,1-1.925-.832,2.543,2.543,0,0,1-.808-1.925v-.452a2.567,2.567,0,0,1,.713-1.854,2.662,2.662,0,0,1,1.925-.784h5.2c.214,0,.309-.143.309-.38V10.6a2.757,2.757,0,0,1,.808-1.972,2.685,2.685,0,0,1,1.925-.784h1.259A2.883,2.883,0,0,1,43.14,10.6v.642c0,.238,0,.38.333.38h5.109a2.685,2.685,0,0,1,1.925.784,2.567,2.567,0,0,1,.808,1.949V14.8a2.543,2.543,0,0,1-.808,1.925,2.638,2.638,0,0,1-1.925.832Zm-11.6,35.029a2.685,2.685,0,0,1-1.925-.784,2.59,2.59,0,0,1-.808-1.949V36.357a2.638,2.638,0,0,1,.808-2,2.685,2.685,0,0,1,1.925-.784H47.275a2.638,2.638,0,0,1,1.949.784,2.709,2.709,0,0,1,.784,1.949V49.546a2.685,2.685,0,0,1-2.733,2.733H45.088a1.711,1.711,0,0,1-1.236-.5,1.687,1.687,0,0,1-.523-1.259c0-.166,0-.238-.238-.238H36.319c-.143,0-.214,0-.214.238a1.854,1.854,0,0,1-.57,1.355,1.877,1.877,0,0,1-1.355.547Zm10.5-34.743c0-.214,0-.309-.285-.309H36.795a.285.285,0,0,0-.214,0,.261.261,0,0,0,0,.238,23.1,23.1,0,0,1,1.164,3.493,2.994,2.994,0,0,1,0,.642,2.638,2.638,0,0,1-.475,1.45,2.852,2.852,0,0,1-1.759,1.188l-.927.238h9.981L44,24.523a2.567,2.567,0,0,1-1.616-1.236A2.614,2.614,0,0,1,42,21.98a3.682,3.682,0,0,1,0-.737A35.837,35.837,0,0,0,42.973,17.726Zm.356,22.148c0-.214,0-.333-.356-.333H36.462c-.238,0-.356,0-.356.333v4.183c0,.214.119.309.356.309h6.511c.238,0,.356,0,.356-.309ZM66.31,9.908h.547a2.376,2.376,0,0,1,1.164.333l1.949,1.212a3.588,3.588,0,0,1,1.687,2.875,3.8,3.8,0,0,1-.19,1.117q-2.376,7.129-4.135,11.122a.547.547,0,0,0,0,.618,16.3,16.3,0,0,1,3.8,10.67c0,3.731-.9,6.274-2.733,7.557A7.343,7.343,0,0,1,65,46.718a2.971,2.971,0,0,1-.832,0h-.19a2.733,2.733,0,0,1-1.806-.689,3.826,3.826,0,0,1-1.069-1.972,13.376,13.376,0,0,0-.333-1.473,2.376,2.376,0,0,1,0-.547,2.044,2.044,0,0,1,1.806-2,3.113,3.113,0,0,0,.974-.333c.665-.4,1.022-1.378,1.022-2.923A12.167,12.167,0,0,0,62.2,29.656a5.537,5.537,0,0,1-1.117-3.208,4.539,4.539,0,0,1,.238-1.473c.689-2.21,1.473-5.014,2.376-8.413a.151.151,0,1,0-.214-.214H60.131a.309.309,0,0,0-.356.356V49.689a2.59,2.59,0,0,1-.808,1.949,2.638,2.638,0,0,1-1.949.784H55.782a2.638,2.638,0,0,1-1.949-.784,2.59,2.59,0,0,1-.808-1.949v-37a2.59,2.59,0,0,1,.808-1.949,2.638,2.638,0,0,1,1.949-.784h10.29Z" transform="translate(19.813 -6.889)" fill="none" stroke="#034baf" stroke-linejoin="round" stroke-width="15"/>
    <path id="Path_11486" data-name="Path 11486" d="M84.981,43.325a2.59,2.59,0,0,1-2.59,2.59H78.874a1.9,1.9,0,0,1-1.45-.642,1.949,1.949,0,0,1-.594-1.45h0q0-.214-.285-.214h-24.5a2.682,2.682,0,0,1-2.614-2.519V38.406a2.5,2.5,0,0,1,.856-1.9,2.376,2.376,0,0,1,1.759-.713h.143c1.259,0,2.376.143,3.517.143H76.545c.214,0,.333-.119.333-.356V18.206c0-.214,0-.309-.333-.309H52.733a2.543,2.543,0,0,1-1.806-.76,2.376,2.376,0,0,1-.784-1.854V12.907a2.555,2.555,0,0,1,2.543-2.567h.143q2.091.143,3.565.143h26a2.567,2.567,0,0,1,2.567,2.567h0V39.737Z" transform="translate(50.191 -3.449)" fill="#efea3a" stroke="#034baf" stroke-linejoin="round" stroke-width="15"/>
    <path id="Path_11487" data-name="Path 11487" d="M71.464,42.693a2.186,2.186,0,0,1-1.521-1.069,1.877,1.877,0,0,1-.333-1.069,2.02,2.02,0,0,1,.19-.832l.879-2.186A3.208,3.208,0,0,1,72.153,35.8a3.636,3.636,0,0,1,1.64-.4h.594c3.755.642,7.961,1.521,12.666,2.614s8.7,2.139,11.882,3.137a2.376,2.376,0,0,1,1.5,1.355,2.568,2.568,0,0,1,.238,1.022,2.781,2.781,0,0,1-.238,1.022l-.974,2.163a2.9,2.9,0,0,1-1.545,1.545,3.636,3.636,0,0,1-1.188.238,3.754,3.754,0,0,1-1-.143q-4.539-1.5-11.526-3.089T71.464,42.693Zm2.59-13.76a2.067,2.067,0,0,1-1.521-1.093,2.377,2.377,0,0,1-.333-1.117,2.519,2.519,0,0,1,.143-.808l.737-1.854A3.351,3.351,0,0,1,76.145,21.9h.618q11.407,2.091,20.01,4.563a2.638,2.638,0,0,1,1.806,2.4,2.59,2.59,0,0,1-.19.927l-.832,2.139a2.59,2.59,0,0,1-1.45,1.545,2.828,2.828,0,0,1-1.212.285,3.137,3.137,0,0,1-.927-.143,170.913,170.913,0,0,0-19.914-4.682ZM76.24,15.815a2.162,2.162,0,0,1-1.568-1.069,2.233,2.233,0,0,1-.333-1.069,2.02,2.02,0,0,1,.19-.832l.76-1.735a3.731,3.731,0,0,1,1.5-1.759A3.422,3.422,0,0,1,78.5,8.9a2.044,2.044,0,0,1,.523,0c3.184.475,6.8,1.164,10.884,2.02s7.51,1.663,10.314,2.376a2.376,2.376,0,0,1,1.545,1.307,2.852,2.852,0,0,1,.214,1.069,2.71,2.71,0,0,1-.166.974l-.9,2.139a2.59,2.59,0,0,1-1.473,1.521,2.875,2.875,0,0,1-2.139.143Q93.16,19.19,87.1,17.811c-4.159-.808-7.723-1.521-10.86-2Z" transform="translate(77.967 -5.454)" fill="none" stroke="#034baf" stroke-linejoin="round" stroke-width="15"/>
    <path id="Path_11488" data-name="Path 11488" d="M124.981,43.325a2.59,2.59,0,0,1-2.59,2.59h-3.517a1.9,1.9,0,0,1-1.45-.642,1.949,1.949,0,0,1-.594-1.45h0q0-.214-.285-.214h-24.5a2.682,2.682,0,0,1-2.614-2.519V38.406a2.5,2.5,0,0,1,.855-1.9,2.377,2.377,0,0,1,1.759-.713h.143c1.259,0,2.376.143,3.517.143h20.841c.214,0,.333-.119.333-.356V18.206c0-.214,0-.309-.333-.309H92.733a2.543,2.543,0,0,1-1.806-.76,2.376,2.376,0,0,1-.784-1.854V12.907a2.555,2.555,0,0,1,2.543-2.567h.143q2.115.143,3.565.143h26a2.567,2.567,0,0,1,2.567,2.567h0V39.737Z" transform="translate(105.248 -3.449)" fill="#efea3a" stroke="#034baf" stroke-linejoin="round" stroke-width="15"/>
    <path id="Path_11489" data-name="Path 11489" d="M111.464,42.693a2.186,2.186,0,0,1-1.521-1.069,1.877,1.877,0,0,1-.333-1.069,2.02,2.02,0,0,1,.19-.832l.879-2.186a3.208,3.208,0,0,1,1.473-1.735,3.636,3.636,0,0,1,1.64-.4h.594c3.755.642,7.961,1.521,12.666,2.614s8.7,2.139,11.882,3.137a2.377,2.377,0,0,1,1.5,1.355,2.566,2.566,0,0,1,.238,1.022,2.781,2.781,0,0,1-.238,1.022l-.974,2.163a2.9,2.9,0,0,1-1.545,1.545,3.636,3.636,0,0,1-1.188.238,3.755,3.755,0,0,1-1-.143q-4.539-1.5-11.526-3.089T111.464,42.693Zm2.59-13.76a2.068,2.068,0,0,1-1.521-1.093,2.376,2.376,0,0,1-.333-1.117,2.519,2.519,0,0,1,.143-.808l.737-1.854a3.351,3.351,0,0,1,3.066-2.163h.618q11.407,2.091,20.01,4.563a2.638,2.638,0,0,1,1.806,2.4,2.591,2.591,0,0,1-.19.927l-.832,2.139a2.59,2.59,0,0,1-1.45,1.545,2.828,2.828,0,0,1-1.212.285,3.136,3.136,0,0,1-.927-.143,170.912,170.912,0,0,0-19.914-4.682Zm2.186-13.118a2.163,2.163,0,0,1-1.568-1.069,2.234,2.234,0,0,1-.333-1.069,2.02,2.02,0,0,1,.19-.832l.642-1.735a3.731,3.731,0,0,1,1.5-1.759,3.422,3.422,0,0,1,1.711-.452,2.043,2.043,0,0,1,.523,0c3.184.475,6.8,1.164,10.884,2.02S137.3,12.583,140.1,13.3a2.376,2.376,0,0,1,1.545,1.307,2.853,2.853,0,0,1,.214,1.069,2.71,2.71,0,0,1-.166.974l-.9,2.139a2.59,2.59,0,0,1-1.473,1.521,2.876,2.876,0,0,1-2.139.143q-4.135-1.259-10.195-2.638c-4.04-.808-7.6-1.521-10.741-2Z" transform="translate(133.024 -5.454)" fill="none" stroke="#034baf" stroke-linejoin="round" stroke-width="15"/>
    <path id="Path_11490" data-name="Path 11490" d="M131.341,19.524h-.5a2.234,2.234,0,0,1-1.45-.523,2.376,2.376,0,0,1-.974-1.759l-.238-2.258V14.7a2.376,2.376,0,0,1,.665-1.687,2.638,2.638,0,0,1,1.854-.879,17.446,17.446,0,0,0,2.091-.143l7.818-.642,12.31-1.069c3.161-.238,6.82-.475,10.955-.689h.143a2.376,2.376,0,0,1,1.806.737,2.875,2.875,0,0,1,.856,1.9v1.854a2.638,2.638,0,0,1-.808,1.925,2.8,2.8,0,0,1-1.949.879,36.644,36.644,0,0,0-6.25.5,11.336,11.336,0,0,0-6.678,4.468,12.476,12.476,0,0,0-2.8,7.723,7.937,7.937,0,0,0,3.327,6.82,18.607,18.607,0,0,0,8.721,3.137,2.163,2.163,0,0,1,1.592.974,2.091,2.091,0,0,1,.356,1.164,1.972,1.972,0,0,1-.143.689l-1.022,2.733a3.541,3.541,0,0,1-1.378,1.806,2.994,2.994,0,0,1-1.687.523h-.547a27.282,27.282,0,0,1-8.46-2.8,16.635,16.635,0,0,1-5.989-5.537,14.021,14.021,0,0,1-2.376-7.89,17.776,17.776,0,0,1,1.711-7.818,18.821,18.821,0,0,1,4.087-5.68v-.143h0C140.276,18.1,135.309,18.788,131.341,19.524ZM157.2,24.4a2.092,2.092,0,0,1-.285-1.022,2.021,2.021,0,0,1,0-.547,1.687,1.687,0,0,1,1.022-1.164,2.376,2.376,0,0,1,1.022-.238,2.78,2.78,0,0,1,2.376,1.26c.5.808.974,1.616,1.426,2.376a2.044,2.044,0,0,1,.238.974,2.785,2.785,0,0,1,0,.76,2.091,2.091,0,0,1-1.188,1.236,2.828,2.828,0,0,1-.951.19,2.662,2.662,0,0,1-.832-.143,2.376,2.376,0,0,1-1.331-1.212,27.18,27.18,0,0,0-1.5-2.471Zm5.49-2.186a1.782,1.782,0,0,1-.333-1.069,1.4,1.4,0,0,1,0-.5,1.759,1.759,0,0,1,1.022-1.212,2.709,2.709,0,0,1,1.069-.238,4.182,4.182,0,0,1,.737,0,2.686,2.686,0,0,1,1.473,1.069c.547.784,1.022,1.545,1.5,2.376a2.091,2.091,0,0,1,.333,1.069,2.991,2.991,0,0,1,0,.642,2.186,2.186,0,0,1-1.117,1.307,2.709,2.709,0,0,1-1.022.214,2.092,2.092,0,0,1-.784-.119,2.377,2.377,0,0,1-1.4-1.164c-.475-.784-.951-1.592-1.473-2.376Z" transform="translate(158.585 -4.481)" fill="none" stroke="#034baf" stroke-linejoin="round" stroke-width="15"/>
    <path id="Path_11491" data-name="Path 11491" d="M35.239,50.209v1.45c0,.238.119.333.38.261a38.021,38.021,0,0,1,7.937-.927,17.752,17.752,0,0,1,6.8,1.236,11.264,11.264,0,0,1,4.9,3.707,9.506,9.506,0,0,1,1.854,5.87,11.882,11.882,0,0,1-2.376,7.557,14.4,14.4,0,0,1-8.151,4.515,29.251,29.251,0,0,1-3.636.57h-.4a3.066,3.066,0,0,1-1.806-.547,3.826,3.826,0,0,1-1.45-1.806l-.784-2.234a2,2,0,0,1,0-.642,2.044,2.044,0,0,1,.333-1.117,1.854,1.854,0,0,1,1.616-.832,23.96,23.96,0,0,0,3.161-.333,10,10,0,0,0,4.539-1.782,4.135,4.135,0,0,0,1.711-3.422,3.8,3.8,0,0,0-1.687-3.279A7.652,7.652,0,0,0,43.6,57.243a32.248,32.248,0,0,0-7.7.974.323.323,0,0,0-.333.4c.119,4.539.19,7.129.19,7.937a10.385,10.385,0,0,1-1.5,6.488,5.2,5.2,0,0,1-4.254,1.782,12.666,12.666,0,0,1-5.323-1.236,12.5,12.5,0,0,1-4.587-3.47,7.391,7.391,0,0,1-1.9-4.753,8.817,8.817,0,0,1,2.923-6.084,22.885,22.885,0,0,1,7.391-5.014.523.523,0,0,0,.333-.523V48.094a.309.309,0,0,0-.333-.333H22.668a2.662,2.662,0,0,1-1.949-.9,3.042,3.042,0,0,1-.832-2.02v-1.4a2.163,2.163,0,0,1,.737-1.806,2.376,2.376,0,0,1,1.711-.713h6.179a.333.333,0,0,0,.333-.356V35.9a2.6,2.6,0,0,1,2.5-2.543h2.376a2.464,2.464,0,0,1,2.424,2.448v.285A10.5,10.5,0,0,1,36,37.946l-.143,2.044a.309.309,0,0,0,0,.238.261.261,0,0,0,.214,0c1.806-.261,3.517-.57,5.109-.927h.57a2.02,2.02,0,0,1,1.283.452,2.234,2.234,0,0,1,.9,1.687v1.616a3.161,3.161,0,0,1-.713,2.115,2.876,2.876,0,0,1-1.9,1.141c-1.616.285-3.422.523-5.418.737a.38.38,0,0,0-.38.428A7.7,7.7,0,0,0,35.239,50.209ZM27.587,67.058a1.355,1.355,0,0,0,1-.356,2.186,2.186,0,0,0,.333-1.5v-4.04a.214.214,0,0,0,0-.19h-.19c-2.376,1.4-3.493,2.733-3.493,4.04a1.782,1.782,0,0,0,.879,1.426,2.876,2.876,0,0,0,1.473.618ZM48.238,45.195a2.376,2.376,0,0,1-1.355-1.568,2.519,2.519,0,0,1-.143-.808,2.614,2.614,0,0,1,.333-1.236l.475-.76a2.8,2.8,0,0,1,1.616-1.378,2.947,2.947,0,0,1,.879-.143,2.685,2.685,0,0,1,1.26.333c2.709,1.331,5.133,2.614,7.129,3.85a2.757,2.757,0,0,1,1.236,1.711,2.187,2.187,0,0,1,0,.689,2.852,2.852,0,0,1-.356,1.4l-.665,1.069a2.543,2.543,0,0,1-1.616,1.212h-.594a2.376,2.376,0,0,1-1.4-.428A71.326,71.326,0,0,0,48.238,45.195Z" transform="translate(7.205 28.237)" fill="none" stroke="#034baf" stroke-linejoin="round" stroke-width="15"/>
    <path id="Path_11492" data-name="Path 11492" d="M46.334,44.882a4.04,4.04,0,0,1,1.877-1.307,3.445,3.445,0,0,1,.974-.143,2.852,2.852,0,0,1,1.236.285l1.022.428a2.163,2.163,0,0,1,1.307,1.426,2,2,0,0,1,.143.713,2.115,2.115,0,0,1-.428,1.236c-.832,1.236-1.687,2.376-2.543,3.493a.927.927,0,0,0-.238.642V74.587a2.59,2.59,0,0,1-.808,1.949,2.685,2.685,0,0,1-1.925.784H45.74a2.679,2.679,0,0,1-2.733-2.733V58.879h0a.261.261,0,0,0-.19,0c-.4.4-.808.76-1.212,1.117a1.64,1.64,0,0,1-1.164.452,1.568,1.568,0,0,1-.547,0A1.949,1.949,0,0,1,38.54,59.26c-.309-.76-.618-1.473-.927-2.186a3.469,3.469,0,0,1-.309-1.45,3.208,3.208,0,0,1,0-.784,3.137,3.137,0,0,1,1.141-1.854,42.776,42.776,0,0,0,7.89-8.1ZM44.766,34.4a3.969,3.969,0,0,1,1.949-1.26A3.589,3.589,0,0,1,47.689,33,3.327,3.327,0,0,1,49,33.285l1.473.594a1.925,1.925,0,0,1,1.259,1.4,3.893,3.893,0,0,1,0,.547,1.9,1.9,0,0,1-.475,1.212,54.8,54.8,0,0,1-9.03,8.579,2.377,2.377,0,0,1-1.355.475,3.279,3.279,0,0,1-.618,0,2.638,2.638,0,0,1-1.568-1.212l-.642-1.164a2.685,2.685,0,0,1-.428-1.426,2.139,2.139,0,0,1,0-.665,3.042,3.042,0,0,1,1.378-1.972,33.817,33.817,0,0,0,5.775-5.371ZM78.7,59.331a2.709,2.709,0,0,1,1.925.808,2.614,2.614,0,0,1,.808,1.925V62.4a2.566,2.566,0,0,1-.808,1.949,2.685,2.685,0,0,1-1.925.784H75.588c-.214,0-.333.143-.333.38v5.109a9.506,9.506,0,0,1-.618,3.588,3.945,3.945,0,0,1-2,1.972,11.882,11.882,0,0,1-4.753.927h-.143a2.971,2.971,0,0,1-1.949-.689,3.731,3.731,0,0,1-1.355-1.9c-.333-1-.713-1.925-1.117-2.828,0-.214-.238-.261-.4,0l-1.164.784a2.709,2.709,0,0,1-1.5.475h-.5a2.828,2.828,0,0,1-1.806-1.117c-.547-.689-1.164-1.4-1.877-2.186a2.376,2.376,0,0,1-.452-1.711,1.855,1.855,0,0,1,0-.333,2.115,2.115,0,0,1,.974-1.664l.927-.618V65.2H54.414a2.685,2.685,0,0,1-1.925-.784,2.567,2.567,0,0,1-.808-1.949v-.333a2.614,2.614,0,0,1,.808-1.925,2.709,2.709,0,0,1,1.925-.808H67.936c.214,0,.309,0,.309-.309V57.881c0-.261,0-.38-.309-.38H55.626a2.679,2.679,0,0,1-2.733-2.733v-.143a2.685,2.685,0,0,1,.784-1.925,2.567,2.567,0,0,1,1.949-.808H77.537a2.59,2.59,0,0,1,1.949.808,2.685,2.685,0,0,1,.784,1.925v.143A2.685,2.685,0,0,1,77.537,57.5H75.588c-.214,0-.333,0-.333.38v1.26c0,.214.119.309.333.309ZM76.515,33.38a2.638,2.638,0,0,1,1.925.832,2.543,2.543,0,0,1,.808,1.925V47.686a2.757,2.757,0,0,1-2.733,2.733h-18.7a2.567,2.567,0,0,1-1.949-.784,2.685,2.685,0,0,1-.784-1.925V36.137a2.758,2.758,0,0,1,2.733-2.757Zm-8.27,37.049V65.51c0-.238,0-.38-.309-.38h-7.7v.143a54.182,54.182,0,0,1,3.731,4.04,1.141,1.141,0,0,1,.19.832,1.069,1.069,0,0,1-.428.737h3.612a1.45,1.45,0,0,0,.665-.166A.666.666,0,0,0,68.245,70.429Zm3.683-30.894c.214,0,.309,0,.309-.333v-.832c0-.214,0-.309-.309-.309H62.066c-.238,0-.356,0-.356.309V39.2c0,.214,0,.333.356.333Zm0,5.989c.214,0,.309,0,.309-.333v-.879c0-.214,0-.309-.309-.309H62.066c-.238,0-.356,0-.356.309v.879c0,.214,0,.333.356.333Z" transform="translate(33.467 27.742)" fill="none" stroke="#034baf" stroke-linejoin="round" stroke-width="15"/>
    <path id="Path_11493" data-name="Path 11493" d="M79.149,39.146h.57A2.186,2.186,0,0,1,81,39.574a1.949,1.949,0,0,1,.832,1.664v1.069a3.327,3.327,0,0,1-.665,2.186A3.089,3.089,0,0,1,79.244,45.7c-1.616.333-3.256.642-4.967.927a.57.57,0,0,0-.475.356,80.793,80.793,0,0,1-3.66,9.007,79.356,79.356,0,0,1-4.753,8.65,2.947,2.947,0,0,1-1.759,1.283,3.255,3.255,0,0,1-.808,0,2.8,2.8,0,0,1-1.378-.333l-2-1.022a2.139,2.139,0,0,1-1.164-1.521,1.568,1.568,0,0,1,0-.547,2.377,2.377,0,0,1,.475-1.355,71.934,71.934,0,0,0,7.557-13.593.214.214,0,0,0-.19-.285H61.587a3.089,3.089,0,0,1-2.947-2.8V43.4a2.115,2.115,0,0,1,.642-1.806,2.376,2.376,0,0,1,1.687-.713h7.319a.475.475,0,0,0,.428-.356,48.142,48.142,0,0,0,.879-4.753,2.852,2.852,0,0,1,.974-1.877,2.685,2.685,0,0,1,1.664-.594h.285l2.376.238a2.377,2.377,0,0,1,2.186,2.305,1.948,1.948,0,0,1,0,.618c-.238,1.022-.5,2.02-.784,2.971a.214.214,0,0,0,0,.238.19.19,0,0,0,.19,0A20.262,20.262,0,0,0,79.149,39.146Zm2.376,12.025a2.567,2.567,0,0,1,.689-1.806,2.376,2.376,0,0,1,1.9-.784h1.663a2.376,2.376,0,0,1,1.877.808,2.971,2.971,0,0,1,.832,1.925v3.85c0,.285,0,1.806.214,4.539a.523.523,0,0,0,.333.523,29.278,29.278,0,0,1,7.343,4.23,2.733,2.733,0,0,1,1.093,1.9,1.616,1.616,0,0,1,0,.5,3.161,3.161,0,0,1-.5,1.687l-.879,1.473A2.139,2.139,0,0,1,94.5,71.038h-.356a2.377,2.377,0,0,1-1.5-.594c-1.188-1.069-2.376-1.972-3.375-2.757h-.214v.143c-.285,5.157-3.446,7.533-9.482,7.533a13.45,13.45,0,0,1-7.985-2.21,7.129,7.129,0,0,1-3.113-6.2,7.937,7.937,0,0,1,2.875-6.226,12.048,12.048,0,0,1,8.127-2.5,20.223,20.223,0,0,1,2.091,0c.238,0,.356,0,.309-.285-.214-4.183-.309-6.488-.309-6.773Zm.594,13.546a.333.333,0,0,0-.333-.356,16.11,16.11,0,0,0-2.757-.285,5.347,5.347,0,0,0-2.733.618,1.877,1.877,0,0,0-1.022,1.664,2.376,2.376,0,0,0,.9,1.854,3.945,3.945,0,0,0,2.376.689,3.4,3.4,0,0,0,2.852-1.069,5.014,5.014,0,0,0,.76-3.113ZM97.566,44.3a2.376,2.376,0,0,1,1.212,1.664,5.853,5.853,0,0,1,0,.618,2.566,2.566,0,0,1-.452,1.473l-.974,1.45a2.733,2.733,0,0,1-1.735,1.117h-.5a2.638,2.638,0,0,1-1.545-.523,69.229,69.229,0,0,0-6.915-3.992,2.377,2.377,0,0,1-1.236-1.521,2.688,2.688,0,0,1,0-.713,2.376,2.376,0,0,1,.356-1.236l.713-1.069a3.018,3.018,0,0,1,1.759-1.355,3.825,3.825,0,0,1,.879,0,3.327,3.327,0,0,1,1.307.285,80.493,80.493,0,0,1,7.177,3.8Z" transform="translate(62.345 28.155)" fill="none" stroke="#034baf" stroke-linejoin="round" stroke-width="15"/>
    <path id="Path_11494" data-name="Path 11494" d="M122.176,61.407v.452a2.828,2.828,0,0,1-2.376,2.757l-2.376.452a.356.356,0,0,0-.333.38v9.506a2.567,2.567,0,0,1-.808,1.949,2.685,2.685,0,0,1-1.925.784h-.974a2.685,2.685,0,0,1-2.733-2.733V66.635c0-.238-.143-.333-.38-.261l-9.506,1.664h-.523a2.376,2.376,0,0,1-1.473-.5,2.614,2.614,0,0,1-1.117-1.782l-.475-2.875a.119.119,0,0,0,0-.119h-.19l-2,2.567a1.545,1.545,0,0,1-1.283.689h-.238a1.758,1.758,0,0,1-1.4-.927c-.333-.642-.76-1.4-1.236-2.234h0V74.739A2.718,2.718,0,0,1,88.1,77.471h-.927a2.709,2.709,0,0,1-1.949-.784,2.662,2.662,0,0,1-.808-1.949v-12.1h0a59.7,59.7,0,0,1-3.327,8.032,1.188,1.188,0,0,1-1.212.618,1.259,1.259,0,0,1-1.069-.832c-.285-.689-.594-1.426-.974-2.186a4.7,4.7,0,0,1,.38-4.681A47.979,47.979,0,0,0,82.2,55.181a.285.285,0,0,0,0-.238H80.4a2.718,2.718,0,0,1-2.757-2.733v-.974A2.718,2.718,0,0,1,80.4,48.5h3.85c.214,0,.309-.119.309-.333V35.694a2.757,2.757,0,0,1,2.757-2.757h.927a2.614,2.614,0,0,1,1.925.808,2.662,2.662,0,0,1,.808,1.949V45.889h0c.665-2.376,1.26-5.157,1.759-8.056A2.662,2.662,0,0,1,95.274,35.6a1.426,1.426,0,0,1,.523,0h.4a2.543,2.543,0,0,1,2,2.376,2.377,2.377,0,0,1,0,.784c-.856,2.709-1.521,4.753-2,6.226a2.852,2.852,0,0,1-1.45,1.616,2.543,2.543,0,0,1-1.355.38,2.377,2.377,0,0,1-.784-.143l-1.26-.309H91.14a.238.238,0,0,0,0,.214v1.117c0,.214,0,.333.309.333h3.541a2.757,2.757,0,0,1,2.733,2.733V51.9a2.757,2.757,0,0,1-3.161,3.066H90.736v.143c.642.57,1.64,1.568,3.018,3.018s2.376,2.685,3.279,3.66a.642.642,0,0,0,.57.19L110.27,59.6a.344.344,0,0,0,.38-.356V35.314a2.686,2.686,0,0,1,.784-1.925,2.567,2.567,0,0,1,1.949-.808H114.5a2.757,2.757,0,0,1,2.733,2.733V58.151c0,.238.119.333.333.285l1.426-.238h.523a2.685,2.685,0,0,1,1.521.475,2.59,2.59,0,0,1,1.069,1.759ZM83.8,44.035a3.358,3.358,0,0,1,0,.428,2.686,2.686,0,0,1-.523,1.616,3.018,3.018,0,0,1-1.806,1.259,1.568,1.568,0,0,1-.547,0,1.925,1.925,0,0,1-1.212-.428,2.091,2.091,0,0,1-.856-1.45,48.453,48.453,0,0,0-1.117-6.369,1.829,1.829,0,0,1,0-.594,2.377,2.377,0,0,1,.38-1.307,2.519,2.519,0,0,1,1.473-1.117,2.994,2.994,0,0,1,.665,0,2.614,2.614,0,0,1,1.236.333,2.376,2.376,0,0,1,1.164,1.545A44.773,44.773,0,0,1,83.8,44.035Zm15.827,8.912a2.733,2.733,0,0,1-1.164-1.759q-.015-.3,0-.594a2.59,2.59,0,0,1,.428-1.45l.214-.38a2.97,2.97,0,0,1,1.782-1.236,2.377,2.377,0,0,1,.689,0,2.828,2.828,0,0,1,1.426.4c1.331.856,2.543,1.64,3.588,2.376a2.9,2.9,0,0,1,1.117,1.9v.38a2.971,2.971,0,0,1-.523,1.711l-.547.879a2.139,2.139,0,0,1-1.592,1.022h-.309a2.376,2.376,0,0,1-1.545-.594,43.489,43.489,0,0,0-3.565-2.662Zm8.626-14.259a2.519,2.519,0,0,1,1.022,1.9,1.829,1.829,0,0,1,0,.356,3.066,3.066,0,0,1-.594,1.83l-.475.642a1.972,1.972,0,0,1-1.616.927h-.19a2.376,2.376,0,0,1-1.616-.642,41.918,41.918,0,0,0-3.256-2.662,2.685,2.685,0,0,1-1.117-1.759,4.342,4.342,0,0,1,0-.5,2.376,2.376,0,0,1,.523-1.545v-.19a2.875,2.875,0,0,1,1.83-1.188,2.613,2.613,0,0,1,.594,0,2.567,2.567,0,0,1,1.473.452,32.344,32.344,0,0,1,3.422,2.353Z" transform="translate(88.662 27.163)" fill="none" stroke="#034baf" stroke-linejoin="round" stroke-width="15"/>
    <path id="Path_11495" data-name="Path 11495" d="M130.188,62.2h0l1.592.689a1.949,1.949,0,0,1,1.307,1.307,2.988,2.988,0,0,1,0,.642,2.186,2.186,0,0,1-.38,1.164c-1.568,2.163-2.59,3.517-3.018,4.087a.261.261,0,0,0,0,.19.142.142,0,0,0,.143,0h6.7a2.852,2.852,0,0,1,2.757,2.757v.4a2.852,2.852,0,0,1-2.757,2.875H101.861a2.8,2.8,0,0,1-2.733-2.757v-.4a2.8,2.8,0,0,1,2.733-2.757h5.394a.285.285,0,0,0,.214,0,.261.261,0,0,0,0-.238,33.1,33.1,0,0,0-2-4.135,2.376,2.376,0,0,1-.333-1.212,2.02,2.02,0,0,1,.143-.737,2.091,2.091,0,0,1,1.307-1.4l.642-.261H104.4a2.709,2.709,0,0,1-1.925-.808,2.614,2.614,0,0,1-.808-1.925v-.428a2.757,2.757,0,0,1,2.733-2.733h10.48c.261,0,.38,0,.38-.333V52.818c0-.214-.119-.309-.38-.309h-5.941a1.877,1.877,0,0,1-1.854-1.877h0c-1.164.832-2.543,1.711-4.111,2.638a2.78,2.78,0,0,1-1.307.356,1.925,1.925,0,0,1-.737,0,3.28,3.28,0,0,1-1.782-1.212,16.347,16.347,0,0,0-1.022-1.307,2,2,0,0,1-.451-1.759,2.02,2.02,0,0,1,1.022-1.5,46.175,46.175,0,0,0,8.46-6.345,46.411,46.411,0,0,0,6.464-7.129A5.038,5.038,0,0,1,117.878,32h1.759a5.323,5.323,0,0,1,4.373,2.186,48.642,48.642,0,0,0,7.557,7.6,41.635,41.635,0,0,0,8.46,5.347,1.949,1.949,0,0,1,1.117,1.378,3.572,3.572,0,0,1,0,.523,2.091,2.091,0,0,1-.475,1.259c-.428.547-.855,1.141-1.307,1.806a2.876,2.876,0,0,1-1.759,1.26h-.689a2.923,2.923,0,0,1-1.4-.356c-1.473-.9-2.923-1.854-4.3-2.828h0a1.925,1.925,0,0,1-.57,1.4,2.044,2.044,0,0,1-1.426.594h-6.131c-.214,0-.333,0-.333.309v3.161a.309.309,0,0,0,.333.333h10.67a2.543,2.543,0,0,1,1.925.808,2.638,2.638,0,0,1,.832,1.925v.428a2.8,2.8,0,0,1-2.757,2.733Zm-14.948.356c0-.238-.119-.356-.38-.356h-4.444v.166a39.558,39.558,0,0,1,2.376,3.921,2.377,2.377,0,0,1,.285,1.093,2.637,2.637,0,0,1-.19.974,2.852,2.852,0,0,1-1.521,1.545l-.618.285h3.992c.261,0,.38,0,.38-.309Zm-2.971-16.3V46.4a.166.166,0,0,0,.143,0h13.546a.166.166,0,0,0,.143,0v-.143a50.5,50.5,0,0,1-6.773-7.129c0-.19-.261-.19-.38,0a46.007,46.007,0,0,1-6.678,7.129ZM127.407,62.49a.135.135,0,1,0-.166-.214h-4.278c-.214,0-.333,0-.333.356v7.391c0,.214,0,.309.333.309h2.9a1.973,1.973,0,0,1-1.164-1.26,3,3,0,0,1,0-.642,1.949,1.949,0,0,1,.333-1.069,43.657,43.657,0,0,0,2.376-4.848Z" transform="translate(116.534 26.365)" fill="none" stroke="#034baf" stroke-linejoin="round" stroke-width="15"/>
    <path id="Path_11496" data-name="Path 11496" d="M133.987,69.4a6.3,6.3,0,0,1-8.032,0,4.753,4.753,0,0,1-1.592-3.755,4.9,4.9,0,0,1,1.592-3.731,6.131,6.131,0,0,1,8.032,0,4.9,4.9,0,0,1,1.592,3.731,4.753,4.753,0,0,1-1.592,3.755Zm-4.206-11.716a3.065,3.065,0,0,1-2.091-.808,2.971,2.971,0,0,1-1.022-1.949L125.1,42.641l-.19-5.157a2.638,2.638,0,0,1,.713-1.925,2.376,2.376,0,0,1,1.877-.808h4.967a2.376,2.376,0,0,1,1.877.808,2.685,2.685,0,0,1,.784,1.925l-.238,5.157L133.3,54.927a2.947,2.947,0,0,1-1,1.949,3.042,3.042,0,0,1-2.044.808Z" transform="translate(153.324 30.149)" fill="none" stroke="#034baf" stroke-linejoin="round" stroke-width="15"/>
    <path id="Path_11497" data-name="Path 11497" d="M33.247,41.233c-.214,0-.333.119-.333.38v3.85c0,.238.119.356.333.356H47.173a2.59,2.59,0,0,1,1.949.808,2.638,2.638,0,0,1,.784,1.949v.594a2.685,2.685,0,0,1-.784,1.925,2.59,2.59,0,0,1-1.949.808H11.978A2.638,2.638,0,0,1,10.03,51.1a2.685,2.685,0,0,1-.784-1.925v-.642a2.709,2.709,0,0,1,2.733-2.757H25.31c.214,0,.333-.119.333-.356v-3.8c0-.261,0-.38-.333-.38H15.8a2.638,2.638,0,0,1-1.949-.784,2.59,2.59,0,0,1-.808-1.949v-.475a2.614,2.614,0,0,1,.808-1.925,2.567,2.567,0,0,1,1.949-.808H25.31a.309.309,0,0,0,.333-.333V31.252c0-.238,0-.38-.333-.38H18.347a2.685,2.685,0,0,1-1.925-.784,2.567,2.567,0,0,1-.808-1.949v-.784a.214.214,0,0,0,0-.19h-.285l-2.376,1.545a3.137,3.137,0,0,1-1.4.356,2.091,2.091,0,0,1-.689,0,3.066,3.066,0,0,1-1.83-1.188c-.333-.475-.665-.927-1.022-1.355a2,2,0,0,1-.452-1.759,2.02,2.02,0,0,1,1.117-1.735,47.1,47.1,0,0,0,8.531-6.084,46.364,46.364,0,0,0,6.7-7.129A5.038,5.038,0,0,1,28.162,7.44H29.92a5.347,5.347,0,0,1,4.373,2.234A44.677,44.677,0,0,0,50.405,22.625,2,2,0,0,1,51.522,24a4.279,4.279,0,0,1,0,.523,1.877,1.877,0,0,1-.475,1.236c-.428.57-.856,1.188-1.307,1.877a2.828,2.828,0,0,1-1.759,1.236,2.186,2.186,0,0,1-.689,0,3.066,3.066,0,0,1-1.4-.356c-.76-.475-1.545-.974-2.376-1.5h-.19V27.9a2.718,2.718,0,0,1-2.733,2.733H33.247c-.214,0-.333.143-.333.38v3.9a.309.309,0,0,0,.333.333h9.506a2.567,2.567,0,0,1,1.949.808,2.709,2.709,0,0,1,.808,1.925v.475A2.685,2.685,0,0,1,44.7,40.4a2.638,2.638,0,0,1-1.949.784ZM18.989,24.6v.119H39.9V24.6A52.614,52.614,0,0,1,29.516,14.569h-.19a.309.309,0,0,0-.238,0,48.527,48.527,0,0,1-10.195,10.1Z" transform="translate(-7.51 -7.44)" fill="#efea3a"/>
    <path id="Path_11498" data-name="Path 11498" d="M44.066,17.441h0l2.733.57a2.21,2.21,0,0,1,1.568,1.164,2.376,2.376,0,0,1,.285,1.117,2.21,2.21,0,0,1-.19.832c-.618,1.592-1.046,2.709-1.307,3.327a.261.261,0,0,0,0,.238.214.214,0,0,0,.166,0h1.806a2.567,2.567,0,0,1,1.949.808,2.709,2.709,0,0,1,.808,1.925v.76a2.733,2.733,0,0,1-.808,1.949,2.638,2.638,0,0,1-1.949.784H30.117a2.709,2.709,0,0,1-2.757-2.733v-.76a2.614,2.614,0,0,1,.808-1.925,2.567,2.567,0,0,1,1.949-.808H31.97c.214,0,.309-.119.309-.333a26.761,26.761,0,0,0-.594-3.279,2.685,2.685,0,0,1,0-.713,2.519,2.519,0,0,1,.38-1.331,2.21,2.21,0,0,1,1.568-1.164l2.376-.523H30.9a2.614,2.614,0,0,1-1.925-.832,2.543,2.543,0,0,1-.808-1.925v-.452a2.567,2.567,0,0,1,.713-1.854,2.662,2.662,0,0,1,1.925-.784h5.2c.214,0,.309-.143.309-.38V10.6a2.757,2.757,0,0,1,.808-1.972,2.685,2.685,0,0,1,1.925-.784h1.259A2.883,2.883,0,0,1,43.14,10.6v.642c0,.238,0,.38.333.38h5.109a2.685,2.685,0,0,1,1.925.784,2.567,2.567,0,0,1,.808,1.949V14.8a2.543,2.543,0,0,1-.808,1.925,2.638,2.638,0,0,1-1.925.832Zm-11.6,35.029a2.685,2.685,0,0,1-1.925-.784,2.59,2.59,0,0,1-.808-1.949V36.357a2.638,2.638,0,0,1,.808-2,2.685,2.685,0,0,1,1.925-.784H47.275a2.638,2.638,0,0,1,1.949.784,2.709,2.709,0,0,1,.784,1.949V49.546a2.685,2.685,0,0,1-2.733,2.733H45.088a1.711,1.711,0,0,1-1.236-.5,1.687,1.687,0,0,1-.523-1.259c0-.166,0-.238-.238-.238H36.319c-.143,0-.214,0-.214.238a1.854,1.854,0,0,1-.57,1.355,1.877,1.877,0,0,1-1.355.547Zm10.5-34.743c0-.214,0-.309-.285-.309H36.795a.285.285,0,0,0-.214,0,.261.261,0,0,0,0,.238,23.1,23.1,0,0,1,1.164,3.493,2.994,2.994,0,0,1,0,.642,2.638,2.638,0,0,1-.475,1.45,2.852,2.852,0,0,1-1.759,1.188l-.927.238h9.981L44,24.523a2.567,2.567,0,0,1-1.616-1.236A2.614,2.614,0,0,1,42,21.98a3.682,3.682,0,0,1,0-.737A35.837,35.837,0,0,0,42.973,17.726Zm.356,22.148c0-.214,0-.333-.356-.333H36.462c-.238,0-.356,0-.356.333v4.183c0,.214.119.309.356.309h6.511c.238,0,.356,0,.356-.309ZM66.31,9.908h.547a2.376,2.376,0,0,1,1.164.333l1.949,1.212a3.588,3.588,0,0,1,1.687,2.875,3.8,3.8,0,0,1-.19,1.117q-2.376,7.129-4.135,11.122a.547.547,0,0,0,0,.618,16.3,16.3,0,0,1,3.8,10.67c0,3.731-.9,6.274-2.733,7.557A7.343,7.343,0,0,1,65,46.718a2.971,2.971,0,0,1-.832,0h-.19a2.733,2.733,0,0,1-1.806-.689,3.826,3.826,0,0,1-1.069-1.972,13.376,13.376,0,0,0-.333-1.473,2.376,2.376,0,0,1,0-.547,2.044,2.044,0,0,1,1.806-2,3.113,3.113,0,0,0,.974-.333c.665-.4,1.022-1.378,1.022-2.923A12.167,12.167,0,0,0,62.2,29.656a5.537,5.537,0,0,1-1.117-3.208,4.539,4.539,0,0,1,.238-1.473c.689-2.21,1.473-5.014,2.376-8.413a.151.151,0,1,0-.214-.214H60.131a.309.309,0,0,0-.356.356V49.689a2.59,2.59,0,0,1-.808,1.949,2.638,2.638,0,0,1-1.949.784H55.782a2.638,2.638,0,0,1-1.949-.784,2.59,2.59,0,0,1-.808-1.949v-37a2.59,2.59,0,0,1,.808-1.949,2.638,2.638,0,0,1,1.949-.784h10.29Z" transform="translate(19.813 -6.889)" fill="#efea3a"/>
    <path id="Path_11499" data-name="Path 11499" d="M84.981,43.325a2.59,2.59,0,0,1-2.59,2.59H78.874a1.9,1.9,0,0,1-1.45-.642,1.949,1.949,0,0,1-.594-1.45h0q0-.214-.285-.214h-24.5a2.682,2.682,0,0,1-2.614-2.519V38.406a2.5,2.5,0,0,1,.856-1.9,2.376,2.376,0,0,1,1.759-.713h.143c1.259,0,2.376.143,3.517.143H76.545c.214,0,.333-.119.333-.356V18.206c0-.214,0-.309-.333-.309H52.733a2.543,2.543,0,0,1-1.806-.76,2.376,2.376,0,0,1-.784-1.854V12.907a2.555,2.555,0,0,1,2.543-2.567h.143q2.091.143,3.565.143h26a2.567,2.567,0,0,1,2.567,2.567h0V39.737Z" transform="translate(50.191 -3.449)" fill="#efea3a"/>
    <path id="Path_11500" data-name="Path 11500" d="M71.464,42.693a2.186,2.186,0,0,1-1.521-1.069,1.877,1.877,0,0,1-.333-1.069,2.02,2.02,0,0,1,.19-.832l.879-2.186A3.208,3.208,0,0,1,72.153,35.8a3.636,3.636,0,0,1,1.64-.4h.594c3.755.642,7.961,1.521,12.666,2.614s8.7,2.139,11.882,3.137a2.376,2.376,0,0,1,1.5,1.355,2.568,2.568,0,0,1,.238,1.022,2.781,2.781,0,0,1-.238,1.022l-.974,2.163a2.9,2.9,0,0,1-1.545,1.545,3.636,3.636,0,0,1-1.188.238,3.754,3.754,0,0,1-1-.143q-4.539-1.5-11.526-3.089T71.464,42.693Zm2.59-13.76a2.067,2.067,0,0,1-1.521-1.093,2.377,2.377,0,0,1-.333-1.117,2.519,2.519,0,0,1,.143-.808l.737-1.854A3.351,3.351,0,0,1,76.145,21.9h.618q11.407,2.091,20.01,4.563a2.638,2.638,0,0,1,1.806,2.4,2.59,2.59,0,0,1-.19.927l-.832,2.139a2.59,2.59,0,0,1-1.45,1.545,2.828,2.828,0,0,1-1.212.285,3.137,3.137,0,0,1-.927-.143,170.913,170.913,0,0,0-19.914-4.682ZM76.24,15.815a2.162,2.162,0,0,1-1.568-1.069,2.233,2.233,0,0,1-.333-1.069,2.02,2.02,0,0,1,.19-.832l.76-1.735a3.731,3.731,0,0,1,1.5-1.759A3.422,3.422,0,0,1,78.5,8.9a2.044,2.044,0,0,1,.523,0c3.184.475,6.8,1.164,10.884,2.02s7.51,1.663,10.314,2.376a2.376,2.376,0,0,1,1.545,1.307,2.852,2.852,0,0,1,.214,1.069,2.71,2.71,0,0,1-.166.974l-.9,2.139a2.59,2.59,0,0,1-1.473,1.521,2.875,2.875,0,0,1-2.139.143Q93.16,19.19,87.1,17.811c-4.159-.808-7.723-1.521-10.86-2Z" transform="translate(77.967 -5.454)" fill="#efea3a"/>
    <path id="Path_11501" data-name="Path 11501" d="M124.981,43.325a2.59,2.59,0,0,1-2.59,2.59h-3.517a1.9,1.9,0,0,1-1.45-.642,1.949,1.949,0,0,1-.594-1.45h0q0-.214-.285-.214h-24.5a2.682,2.682,0,0,1-2.614-2.519V38.406a2.5,2.5,0,0,1,.855-1.9,2.377,2.377,0,0,1,1.759-.713h.143c1.259,0,2.376.143,3.517.143h20.841c.214,0,.333-.119.333-.356V18.206c0-.214,0-.309-.333-.309H92.733a2.543,2.543,0,0,1-1.806-.76,2.376,2.376,0,0,1-.784-1.854V12.907a2.555,2.555,0,0,1,2.543-2.567h.143q2.115.143,3.565.143h26a2.567,2.567,0,0,1,2.567,2.567h0V39.737Z" transform="translate(105.248 -3.449)" fill="#efea3a"/>
    <path id="Path_11502" data-name="Path 11502" d="M111.464,42.693a2.186,2.186,0,0,1-1.521-1.069,1.877,1.877,0,0,1-.333-1.069,2.02,2.02,0,0,1,.19-.832l.879-2.186a3.208,3.208,0,0,1,1.473-1.735,3.636,3.636,0,0,1,1.64-.4h.594c3.755.642,7.961,1.521,12.666,2.614s8.7,2.139,11.882,3.137a2.377,2.377,0,0,1,1.5,1.355,2.566,2.566,0,0,1,.238,1.022,2.781,2.781,0,0,1-.238,1.022l-.974,2.163a2.9,2.9,0,0,1-1.545,1.545,3.636,3.636,0,0,1-1.188.238,3.755,3.755,0,0,1-1-.143q-4.539-1.5-11.526-3.089T111.464,42.693Zm2.59-13.76a2.068,2.068,0,0,1-1.521-1.093,2.376,2.376,0,0,1-.333-1.117,2.519,2.519,0,0,1,.143-.808l.737-1.854a3.351,3.351,0,0,1,3.066-2.163h.618q11.407,2.091,20.01,4.563a2.638,2.638,0,0,1,1.806,2.4,2.591,2.591,0,0,1-.19.927l-.832,2.139a2.59,2.59,0,0,1-1.45,1.545,2.828,2.828,0,0,1-1.212.285,3.136,3.136,0,0,1-.927-.143,170.912,170.912,0,0,0-19.914-4.682Zm2.186-13.118a2.163,2.163,0,0,1-1.568-1.069,2.234,2.234,0,0,1-.333-1.069,2.02,2.02,0,0,1,.19-.832l.642-1.735a3.731,3.731,0,0,1,1.5-1.759,3.422,3.422,0,0,1,1.711-.452,2.043,2.043,0,0,1,.523,0c3.184.475,6.8,1.164,10.884,2.02S137.3,12.583,140.1,13.3a2.376,2.376,0,0,1,1.545,1.307,2.853,2.853,0,0,1,.214,1.069,2.71,2.71,0,0,1-.166.974l-.9,2.139a2.59,2.59,0,0,1-1.473,1.521,2.876,2.876,0,0,1-2.139.143q-4.135-1.259-10.195-2.638c-4.04-.808-7.6-1.521-10.741-2Z" transform="translate(133.024 -5.454)" fill="#efea3a"/>
    <path id="Path_11503" data-name="Path 11503" d="M131.341,19.524h-.5a2.234,2.234,0,0,1-1.45-.523,2.376,2.376,0,0,1-.974-1.759l-.238-2.258V14.7a2.376,2.376,0,0,1,.665-1.687,2.638,2.638,0,0,1,1.854-.879,17.446,17.446,0,0,0,2.091-.143l7.818-.642,12.31-1.069c3.161-.238,6.82-.475,10.955-.689h.143a2.376,2.376,0,0,1,1.806.737,2.875,2.875,0,0,1,.856,1.9v1.854a2.638,2.638,0,0,1-.808,1.925,2.8,2.8,0,0,1-1.949.879,36.644,36.644,0,0,0-6.25.5,11.336,11.336,0,0,0-6.678,4.468,12.476,12.476,0,0,0-2.8,7.723,7.937,7.937,0,0,0,3.327,6.82,18.607,18.607,0,0,0,8.721,3.137,2.163,2.163,0,0,1,1.592.974,2.091,2.091,0,0,1,.356,1.164,1.972,1.972,0,0,1-.143.689l-1.022,2.733a3.541,3.541,0,0,1-1.378,1.806,2.994,2.994,0,0,1-1.687.523h-.547a27.282,27.282,0,0,1-8.46-2.8,16.635,16.635,0,0,1-5.989-5.537,14.021,14.021,0,0,1-2.376-7.89,17.776,17.776,0,0,1,1.711-7.818,18.821,18.821,0,0,1,4.087-5.68v-.143h0C140.276,18.1,135.309,18.788,131.341,19.524ZM157.2,24.4a2.092,2.092,0,0,1-.285-1.022,2.021,2.021,0,0,1,0-.547,1.687,1.687,0,0,1,1.022-1.164,2.376,2.376,0,0,1,1.022-.238,2.78,2.78,0,0,1,2.376,1.26c.5.808.974,1.616,1.426,2.376a2.044,2.044,0,0,1,.238.974,2.785,2.785,0,0,1,0,.76,2.091,2.091,0,0,1-1.188,1.236,2.828,2.828,0,0,1-.951.19,2.662,2.662,0,0,1-.832-.143,2.376,2.376,0,0,1-1.331-1.212,27.18,27.18,0,0,0-1.5-2.471Zm5.49-2.186a1.782,1.782,0,0,1-.333-1.069,1.4,1.4,0,0,1,0-.5,1.759,1.759,0,0,1,1.022-1.212,2.709,2.709,0,0,1,1.069-.238,4.182,4.182,0,0,1,.737,0,2.686,2.686,0,0,1,1.473,1.069c.547.784,1.022,1.545,1.5,2.376a2.091,2.091,0,0,1,.333,1.069,2.991,2.991,0,0,1,0,.642,2.186,2.186,0,0,1-1.117,1.307,2.709,2.709,0,0,1-1.022.214,2.092,2.092,0,0,1-.784-.119,2.377,2.377,0,0,1-1.4-1.164c-.475-.784-.951-1.592-1.473-2.376Z" transform="translate(158.585 -4.481)" fill="#fff"/>
    <path id="Path_11504" data-name="Path 11504" d="M35.239,50.209v1.45c0,.238.119.333.38.261a38.021,38.021,0,0,1,7.937-.927,17.752,17.752,0,0,1,6.8,1.236,11.264,11.264,0,0,1,4.9,3.707,9.506,9.506,0,0,1,1.854,5.87,11.882,11.882,0,0,1-2.376,7.557,14.4,14.4,0,0,1-8.151,4.515,29.251,29.251,0,0,1-3.636.57h-.4a3.066,3.066,0,0,1-1.806-.547,3.826,3.826,0,0,1-1.45-1.806l-.784-2.234a2,2,0,0,1,0-.642,2.044,2.044,0,0,1,.333-1.117,1.854,1.854,0,0,1,1.616-.832,23.96,23.96,0,0,0,3.161-.333,10,10,0,0,0,4.539-1.782,4.135,4.135,0,0,0,1.711-3.422,3.8,3.8,0,0,0-1.687-3.279A7.652,7.652,0,0,0,43.6,57.243a32.248,32.248,0,0,0-7.7.974.323.323,0,0,0-.333.4c.119,4.539.19,7.129.19,7.937a10.385,10.385,0,0,1-1.5,6.488,5.2,5.2,0,0,1-4.254,1.782,12.666,12.666,0,0,1-5.323-1.236,12.5,12.5,0,0,1-4.587-3.47,7.391,7.391,0,0,1-1.9-4.753,8.817,8.817,0,0,1,2.923-6.084,22.885,22.885,0,0,1,7.391-5.014.523.523,0,0,0,.333-.523V48.094a.309.309,0,0,0-.333-.333H22.668a2.662,2.662,0,0,1-1.949-.9,3.042,3.042,0,0,1-.832-2.02v-1.4a2.163,2.163,0,0,1,.737-1.806,2.376,2.376,0,0,1,1.711-.713h6.179a.333.333,0,0,0,.333-.356V35.9a2.6,2.6,0,0,1,2.5-2.543h2.376a2.464,2.464,0,0,1,2.424,2.448v.285A10.5,10.5,0,0,1,36,37.946l-.143,2.044a.309.309,0,0,0,0,.238.261.261,0,0,0,.214,0c1.806-.261,3.517-.57,5.109-.927h.57a2.02,2.02,0,0,1,1.283.452,2.234,2.234,0,0,1,.9,1.687v1.616a3.161,3.161,0,0,1-.713,2.115,2.876,2.876,0,0,1-1.9,1.141c-1.616.285-3.422.523-5.418.737a.38.38,0,0,0-.38.428A7.7,7.7,0,0,0,35.239,50.209ZM27.587,67.058a1.355,1.355,0,0,0,1-.356,2.186,2.186,0,0,0,.333-1.5v-4.04a.214.214,0,0,0,0-.19h-.19c-2.376,1.4-3.493,2.733-3.493,4.04a1.782,1.782,0,0,0,.879,1.426,2.876,2.876,0,0,0,1.473.618ZM48.238,45.195a2.376,2.376,0,0,1-1.355-1.568,2.519,2.519,0,0,1-.143-.808,2.614,2.614,0,0,1,.333-1.236l.475-.76a2.8,2.8,0,0,1,1.616-1.378,2.947,2.947,0,0,1,.879-.143,2.685,2.685,0,0,1,1.26.333c2.709,1.331,5.133,2.614,7.129,3.85a2.757,2.757,0,0,1,1.236,1.711,2.187,2.187,0,0,1,0,.689,2.852,2.852,0,0,1-.356,1.4l-.665,1.069a2.543,2.543,0,0,1-1.616,1.212h-.594a2.376,2.376,0,0,1-1.4-.428A71.326,71.326,0,0,0,48.238,45.195Z" transform="translate(7.205 28.237)" fill="#fff"/>
    <path id="Path_11505" data-name="Path 11505" d="M46.334,44.882a4.04,4.04,0,0,1,1.877-1.307,3.445,3.445,0,0,1,.974-.143,2.852,2.852,0,0,1,1.236.285l1.022.428a2.163,2.163,0,0,1,1.307,1.426,2,2,0,0,1,.143.713,2.115,2.115,0,0,1-.428,1.236c-.832,1.236-1.687,2.376-2.543,3.493a.927.927,0,0,0-.238.642V74.587a2.59,2.59,0,0,1-.808,1.949,2.685,2.685,0,0,1-1.925.784H45.74a2.679,2.679,0,0,1-2.733-2.733V58.879h0a.261.261,0,0,0-.19,0c-.4.4-.808.76-1.212,1.117a1.64,1.64,0,0,1-1.164.452,1.568,1.568,0,0,1-.547,0A1.949,1.949,0,0,1,38.54,59.26c-.309-.76-.618-1.473-.927-2.186a3.469,3.469,0,0,1-.309-1.45,3.208,3.208,0,0,1,0-.784,3.137,3.137,0,0,1,1.141-1.854,42.776,42.776,0,0,0,7.89-8.1ZM44.766,34.4a3.969,3.969,0,0,1,1.949-1.26A3.589,3.589,0,0,1,47.689,33,3.327,3.327,0,0,1,49,33.285l1.473.594a1.925,1.925,0,0,1,1.259,1.4,3.893,3.893,0,0,1,0,.547,1.9,1.9,0,0,1-.475,1.212,54.8,54.8,0,0,1-9.03,8.579,2.377,2.377,0,0,1-1.355.475,3.279,3.279,0,0,1-.618,0,2.638,2.638,0,0,1-1.568-1.212l-.642-1.164a2.685,2.685,0,0,1-.428-1.426,2.139,2.139,0,0,1,0-.665,3.042,3.042,0,0,1,1.378-1.972,33.817,33.817,0,0,0,5.775-5.371ZM78.7,59.331a2.709,2.709,0,0,1,1.925.808,2.614,2.614,0,0,1,.808,1.925V62.4a2.566,2.566,0,0,1-.808,1.949,2.685,2.685,0,0,1-1.925.784H75.588c-.214,0-.333.143-.333.38v5.109a9.506,9.506,0,0,1-.618,3.588,3.945,3.945,0,0,1-2,1.972,11.882,11.882,0,0,1-4.753.927h-.143a2.971,2.971,0,0,1-1.949-.689,3.731,3.731,0,0,1-1.355-1.9c-.333-1-.713-1.925-1.117-2.828,0-.214-.238-.261-.4,0l-1.164.784a2.709,2.709,0,0,1-1.5.475h-.5a2.828,2.828,0,0,1-1.806-1.117c-.547-.689-1.164-1.4-1.877-2.186a2.376,2.376,0,0,1-.452-1.711,1.855,1.855,0,0,1,0-.333,2.115,2.115,0,0,1,.974-1.664l.927-.618V65.2H54.414a2.685,2.685,0,0,1-1.925-.784,2.567,2.567,0,0,1-.808-1.949v-.333a2.614,2.614,0,0,1,.808-1.925,2.709,2.709,0,0,1,1.925-.808H67.936c.214,0,.309,0,.309-.309V57.881c0-.261,0-.38-.309-.38H55.626a2.679,2.679,0,0,1-2.733-2.733v-.143a2.685,2.685,0,0,1,.784-1.925,2.567,2.567,0,0,1,1.949-.808H77.537a2.59,2.59,0,0,1,1.949.808,2.685,2.685,0,0,1,.784,1.925v.143A2.685,2.685,0,0,1,77.537,57.5H75.588c-.214,0-.333,0-.333.38v1.26c0,.214.119.309.333.309ZM76.515,33.38a2.638,2.638,0,0,1,1.925.832,2.543,2.543,0,0,1,.808,1.925V47.686a2.757,2.757,0,0,1-2.733,2.733h-18.7a2.567,2.567,0,0,1-1.949-.784,2.685,2.685,0,0,1-.784-1.925V36.137a2.758,2.758,0,0,1,2.733-2.757Zm-8.27,37.049V65.51c0-.238,0-.38-.309-.38h-7.7v.143a54.182,54.182,0,0,1,3.731,4.04,1.141,1.141,0,0,1,.19.832,1.069,1.069,0,0,1-.428.737h3.612a1.45,1.45,0,0,0,.665-.166A.666.666,0,0,0,68.245,70.429Zm3.683-30.894c.214,0,.309,0,.309-.333v-.832c0-.214,0-.309-.309-.309H62.066c-.238,0-.356,0-.356.309V39.2c0,.214,0,.333.356.333Zm0,5.989c.214,0,.309,0,.309-.333v-.879c0-.214,0-.309-.309-.309H62.066c-.238,0-.356,0-.356.309v.879c0,.214,0,.333.356.333Z" transform="translate(33.467 27.742)" fill="#fff"/>
    <path id="Path_11506" data-name="Path 11506" d="M79.149,39.146h.57A2.186,2.186,0,0,1,81,39.574a1.949,1.949,0,0,1,.832,1.664v1.069a3.327,3.327,0,0,1-.665,2.186A3.089,3.089,0,0,1,79.244,45.7c-1.616.333-3.256.642-4.967.927a.57.57,0,0,0-.475.356,80.793,80.793,0,0,1-3.66,9.007,79.356,79.356,0,0,1-4.753,8.65,2.947,2.947,0,0,1-1.759,1.283,3.255,3.255,0,0,1-.808,0,2.8,2.8,0,0,1-1.378-.333l-2-1.022a2.139,2.139,0,0,1-1.164-1.521,1.568,1.568,0,0,1,0-.547,2.377,2.377,0,0,1,.475-1.355,71.934,71.934,0,0,0,7.557-13.593.214.214,0,0,0-.19-.285H61.587a3.089,3.089,0,0,1-2.947-2.8V43.4a2.115,2.115,0,0,1,.642-1.806,2.376,2.376,0,0,1,1.687-.713h7.319a.475.475,0,0,0,.428-.356,48.142,48.142,0,0,0,.879-4.753,2.852,2.852,0,0,1,.974-1.877,2.685,2.685,0,0,1,1.664-.594h.285l2.376.238a2.377,2.377,0,0,1,2.186,2.305,1.948,1.948,0,0,1,0,.618c-.238,1.022-.5,2.02-.784,2.971a.214.214,0,0,0,0,.238.19.19,0,0,0,.19,0A20.262,20.262,0,0,0,79.149,39.146Zm2.376,12.025a2.567,2.567,0,0,1,.689-1.806,2.376,2.376,0,0,1,1.9-.784h1.663a2.376,2.376,0,0,1,1.877.808,2.971,2.971,0,0,1,.832,1.925v3.85c0,.285,0,1.806.214,4.539a.523.523,0,0,0,.333.523,29.278,29.278,0,0,1,7.343,4.23,2.733,2.733,0,0,1,1.093,1.9,1.616,1.616,0,0,1,0,.5,3.161,3.161,0,0,1-.5,1.687l-.879,1.473A2.139,2.139,0,0,1,94.5,71.038h-.356a2.377,2.377,0,0,1-1.5-.594c-1.188-1.069-2.376-1.972-3.375-2.757h-.214v.143c-.285,5.157-3.446,7.533-9.482,7.533a13.45,13.45,0,0,1-7.985-2.21,7.129,7.129,0,0,1-3.113-6.2,7.937,7.937,0,0,1,2.875-6.226,12.048,12.048,0,0,1,8.127-2.5,20.223,20.223,0,0,1,2.091,0c.238,0,.356,0,.309-.285-.214-4.183-.309-6.488-.309-6.773Zm.594,13.546a.333.333,0,0,0-.333-.356,16.11,16.11,0,0,0-2.757-.285,5.347,5.347,0,0,0-2.733.618,1.877,1.877,0,0,0-1.022,1.664,2.376,2.376,0,0,0,.9,1.854,3.945,3.945,0,0,0,2.376.689,3.4,3.4,0,0,0,2.852-1.069,5.014,5.014,0,0,0,.76-3.113ZM97.566,44.3a2.376,2.376,0,0,1,1.212,1.664,5.853,5.853,0,0,1,0,.618,2.566,2.566,0,0,1-.452,1.473l-.974,1.45a2.733,2.733,0,0,1-1.735,1.117h-.5a2.638,2.638,0,0,1-1.545-.523,69.229,69.229,0,0,0-6.915-3.992,2.377,2.377,0,0,1-1.236-1.521,2.688,2.688,0,0,1,0-.713,2.376,2.376,0,0,1,.356-1.236l.713-1.069a3.018,3.018,0,0,1,1.759-1.355,3.825,3.825,0,0,1,.879,0,3.327,3.327,0,0,1,1.307.285,80.493,80.493,0,0,1,7.177,3.8Z" transform="translate(62.345 28.155)" fill="#fff"/>
    <path id="Path_11507" data-name="Path 11507" d="M122.176,61.407v.452a2.828,2.828,0,0,1-2.376,2.757l-2.376.452a.356.356,0,0,0-.333.38v9.506a2.567,2.567,0,0,1-.808,1.949,2.685,2.685,0,0,1-1.925.784h-.974a2.685,2.685,0,0,1-2.733-2.733V66.635c0-.238-.143-.333-.38-.261l-9.506,1.664h-.523a2.376,2.376,0,0,1-1.473-.5,2.614,2.614,0,0,1-1.117-1.782l-.475-2.875a.119.119,0,0,0,0-.119h-.19l-2,2.567a1.545,1.545,0,0,1-1.283.689h-.238a1.758,1.758,0,0,1-1.4-.927c-.333-.642-.76-1.4-1.236-2.234h0V74.739A2.718,2.718,0,0,1,88.1,77.471h-.927a2.709,2.709,0,0,1-1.949-.784,2.662,2.662,0,0,1-.808-1.949v-12.1h0a59.7,59.7,0,0,1-3.327,8.032,1.188,1.188,0,0,1-1.212.618,1.259,1.259,0,0,1-1.069-.832c-.285-.689-.594-1.426-.974-2.186a4.7,4.7,0,0,1,.38-4.681A47.979,47.979,0,0,0,82.2,55.181a.285.285,0,0,0,0-.238H80.4a2.718,2.718,0,0,1-2.757-2.733v-.974A2.718,2.718,0,0,1,80.4,48.5h3.85c.214,0,.309-.119.309-.333V35.694a2.757,2.757,0,0,1,2.757-2.757h.927a2.614,2.614,0,0,1,1.925.808,2.662,2.662,0,0,1,.808,1.949V45.889h0c.665-2.376,1.26-5.157,1.759-8.056A2.662,2.662,0,0,1,95.274,35.6a1.426,1.426,0,0,1,.523,0h.4a2.543,2.543,0,0,1,2,2.376,2.377,2.377,0,0,1,0,.784c-.856,2.709-1.521,4.753-2,6.226a2.852,2.852,0,0,1-1.45,1.616,2.543,2.543,0,0,1-1.355.38,2.377,2.377,0,0,1-.784-.143l-1.26-.309H91.14a.238.238,0,0,0,0,.214v1.117c0,.214,0,.333.309.333h3.541a2.757,2.757,0,0,1,2.733,2.733V51.9a2.757,2.757,0,0,1-3.161,3.066H90.736v.143c.642.57,1.64,1.568,3.018,3.018s2.376,2.685,3.279,3.66a.642.642,0,0,0,.57.19L110.27,59.6a.344.344,0,0,0,.38-.356V35.314a2.686,2.686,0,0,1,.784-1.925,2.567,2.567,0,0,1,1.949-.808H114.5a2.757,2.757,0,0,1,2.733,2.733V58.151c0,.238.119.333.333.285l1.426-.238h.523a2.685,2.685,0,0,1,1.521.475,2.59,2.59,0,0,1,1.069,1.759ZM83.8,44.035a3.358,3.358,0,0,1,0,.428,2.686,2.686,0,0,1-.523,1.616,3.018,3.018,0,0,1-1.806,1.259,1.568,1.568,0,0,1-.547,0,1.925,1.925,0,0,1-1.212-.428,2.091,2.091,0,0,1-.856-1.45,48.453,48.453,0,0,0-1.117-6.369,1.829,1.829,0,0,1,0-.594,2.377,2.377,0,0,1,.38-1.307,2.519,2.519,0,0,1,1.473-1.117,2.994,2.994,0,0,1,.665,0,2.614,2.614,0,0,1,1.236.333,2.376,2.376,0,0,1,1.164,1.545A44.773,44.773,0,0,1,83.8,44.035Zm15.827,8.912a2.733,2.733,0,0,1-1.164-1.759q-.015-.3,0-.594a2.59,2.59,0,0,1,.428-1.45l.214-.38a2.97,2.97,0,0,1,1.782-1.236,2.377,2.377,0,0,1,.689,0,2.828,2.828,0,0,1,1.426.4c1.331.856,2.543,1.64,3.588,2.376a2.9,2.9,0,0,1,1.117,1.9v.38a2.971,2.971,0,0,1-.523,1.711l-.547.879a2.139,2.139,0,0,1-1.592,1.022h-.309a2.376,2.376,0,0,1-1.545-.594,43.489,43.489,0,0,0-3.565-2.662Zm8.626-14.259a2.519,2.519,0,0,1,1.022,1.9,1.829,1.829,0,0,1,0,.356,3.066,3.066,0,0,1-.594,1.83l-.475.642a1.972,1.972,0,0,1-1.616.927h-.19a2.376,2.376,0,0,1-1.616-.642,41.918,41.918,0,0,0-3.256-2.662,2.685,2.685,0,0,1-1.117-1.759,4.342,4.342,0,0,1,0-.5,2.376,2.376,0,0,1,.523-1.545v-.19a2.875,2.875,0,0,1,1.83-1.188,2.613,2.613,0,0,1,.594,0,2.567,2.567,0,0,1,1.473.452,32.344,32.344,0,0,1,3.422,2.353Z" transform="translate(88.662 27.163)" fill="#fff"/>
    <path id="Path_11508" data-name="Path 11508" d="M130.188,62.2h0l1.592.689a1.949,1.949,0,0,1,1.307,1.307,2.988,2.988,0,0,1,0,.642,2.186,2.186,0,0,1-.38,1.164c-1.568,2.163-2.59,3.517-3.018,4.087a.261.261,0,0,0,0,.19.142.142,0,0,0,.143,0h6.7a2.852,2.852,0,0,1,2.757,2.757v.4a2.852,2.852,0,0,1-2.757,2.875H101.861a2.8,2.8,0,0,1-2.733-2.757v-.4a2.8,2.8,0,0,1,2.733-2.757h5.394a.285.285,0,0,0,.214,0,.261.261,0,0,0,0-.238,33.1,33.1,0,0,0-2-4.135,2.376,2.376,0,0,1-.333-1.212,2.02,2.02,0,0,1,.143-.737,2.091,2.091,0,0,1,1.307-1.4l.642-.261H104.4a2.709,2.709,0,0,1-1.925-.808,2.614,2.614,0,0,1-.808-1.925v-.428a2.757,2.757,0,0,1,2.733-2.733h10.48c.261,0,.38,0,.38-.333V52.818c0-.214-.119-.309-.38-.309h-5.941a1.877,1.877,0,0,1-1.854-1.877h0c-1.164.832-2.543,1.711-4.111,2.638a2.78,2.78,0,0,1-1.307.356,1.925,1.925,0,0,1-.737,0,3.28,3.28,0,0,1-1.782-1.212,16.347,16.347,0,0,0-1.022-1.307,2,2,0,0,1-.451-1.759,2.02,2.02,0,0,1,1.022-1.5,46.175,46.175,0,0,0,8.46-6.345,46.411,46.411,0,0,0,6.464-7.129A5.038,5.038,0,0,1,117.878,32h1.759a5.323,5.323,0,0,1,4.373,2.186,48.642,48.642,0,0,0,7.557,7.6,41.635,41.635,0,0,0,8.46,5.347,1.949,1.949,0,0,1,1.117,1.378,3.572,3.572,0,0,1,0,.523,2.091,2.091,0,0,1-.475,1.259c-.428.547-.855,1.141-1.307,1.806a2.876,2.876,0,0,1-1.759,1.26h-.689a2.923,2.923,0,0,1-1.4-.356c-1.473-.9-2.923-1.854-4.3-2.828h0a1.925,1.925,0,0,1-.57,1.4,2.044,2.044,0,0,1-1.426.594h-6.131c-.214,0-.333,0-.333.309v3.161a.309.309,0,0,0,.333.333h10.67a2.543,2.543,0,0,1,1.925.808,2.638,2.638,0,0,1,.832,1.925v.428a2.8,2.8,0,0,1-2.757,2.733Zm-14.948.356c0-.238-.119-.356-.38-.356h-4.444v.166a39.558,39.558,0,0,1,2.376,3.921,2.377,2.377,0,0,1,.285,1.093,2.637,2.637,0,0,1-.19.974,2.852,2.852,0,0,1-1.521,1.545l-.618.285h3.992c.261,0,.38,0,.38-.309Zm-2.971-16.3V46.4a.166.166,0,0,0,.143,0h13.546a.166.166,0,0,0,.143,0v-.143a50.5,50.5,0,0,1-6.773-7.129c0-.19-.261-.19-.38,0a46.007,46.007,0,0,1-6.678,7.129ZM127.407,62.49a.135.135,0,1,0-.166-.214h-4.278c-.214,0-.333,0-.333.356v7.391c0,.214,0,.309.333.309h2.9a1.973,1.973,0,0,1-1.164-1.26,3,3,0,0,1,0-.642,1.949,1.949,0,0,1,.333-1.069,43.657,43.657,0,0,0,2.376-4.848Z" transform="translate(116.534 26.365)" fill="#fff"/>
    <path id="Path_11509" data-name="Path 11509" d="M133.987,69.4a6.3,6.3,0,0,1-8.032,0,4.753,4.753,0,0,1-1.592-3.755,4.9,4.9,0,0,1,1.592-3.731,6.131,6.131,0,0,1,8.032,0,4.9,4.9,0,0,1,1.592,3.731,4.753,4.753,0,0,1-1.592,3.755Zm-4.206-11.716a3.065,3.065,0,0,1-2.091-.808,2.971,2.971,0,0,1-1.022-1.949L125.1,42.641l-.19-5.157a2.638,2.638,0,0,1,.713-1.925,2.376,2.376,0,0,1,1.877-.808h4.967a2.376,2.376,0,0,1,1.877.808,2.685,2.685,0,0,1,.784,1.925l-.238,5.157L133.3,54.927a2.947,2.947,0,0,1-1,1.949,3.042,3.042,0,0,1-2.044.808Z" transform="translate(153.324 30.149)" fill="#fff"/>
  </g>
</svg>
