<svg xmlns="http://www.w3.org/2000/svg" width="425.278" height="387.159" viewBox="0 0 425.278 387.159">
  <g id="Group_3063" data-name="Group 3063" transform="translate(-802.982 -4041.903)">
    <path id="Path_11324" data-name="Path 11324" d="M6150.841-9521.571c0-7.217-45.593-19.479-89.95-19.325s-88.9,12.7-88.9,19.918,24.228,21.414,88.9,21.414S6150.841-9514.354,6150.841-9521.571Z" transform="translate(-4932.563 13699)" fill="#2016b7"/>
    <g id="Group_3062" data-name="Group 3062">
      <text id="他社回線の場合" transform="translate(822.5 4427.063)" fill="#d93f2b" font-size="20" font-family="HiraginoSans-W7, Hiragino Sans"><tspan x="0" y="0">他社回線の場合</tspan></text>
      <text id="ビッグローブ光の場合" transform="translate(1029.26 4427.063)" fill="#2b8cd7" font-size="20" font-family="HiraginoSans-W7, Hiragino Sans"><tspan x="0" y="0">ビッグローブ光の場合</tspan></text>
      <path id="Path_10487" data-name="Path 10487" d="M0,0,64.59,55.541" transform="translate(1004.261 4095.806)" fill="none" stroke="#333" stroke-linecap="round" stroke-width="2" stroke-dasharray="5 9"/>
      <g id="Group_2894" data-name="Group 2894" transform="translate(-5295.823 13683)">
        <path id="Path_11289" data-name="Path 11289" d="M0,80s19.992,20,87.664,20,91.371-20,91.371-20V190.737s-17.235,20-91.371,20S0,190.737,0,190.737" transform="translate(6098.806 -9505.062)" fill="#0388da"/>
        <path id="Path_11326" data-name="Path 11326" d="M0-10S19.992,10,87.664,10s91.371-20,91.371-20V190.737s-17.235,20-91.371,20S0,190.737,0,190.737" transform="translate(6098.806 -9610.43)" fill="#e90002"/>
        <path id="Path_11327" data-name="Path 11327" d="M6150.841-9521.571c0-7.217-45.593-19.479-89.95-19.325s-88.9,12.7-88.9,19.918,24.228,21.414,88.9,21.414S6150.841-9514.354,6150.841-9521.571Z" transform="translate(127 -100.199)" fill="#8b2518"/>
        <text id="回線料金" transform="translate(6148.415 -9497.062)" fill="#fff" font-size="20" font-family="HiraginoSans-W6, Hiragino Sans"><tspan x="0" y="0">回線料金</tspan></text>
        <text id="プロバイダ料金" transform="translate(6119.415 -9351.693)" fill="#fff" font-size="20" font-family="HiraginoSans-W6, Hiragino Sans"><tspan x="0" y="0">プロバイダ料金</tspan></text>
      </g>
      <path id="Path_11325" data-name="Path 11325" d="M0,0S19.992,20,87.664,20,179.036,0,179.036,0V190.737s-17.235,20-91.371,20S0,190.737,0,190.737" transform="translate(1039.242 4177.938)" fill="#0388da"/>
      <g id="レイヤー_2" data-name="レイヤー 2" transform="translate(1062.51 4047.938)">
        <g id="レイヤー_1" data-name="レイヤー 1">
          <path id="Path_11328" data-name="Path 11328" d="M54.41,22.77a1.1,1.1,0,0,1-.34.81,1.12,1.12,0,0,1-.82.34h-1q1.89.66,3.42,1.29a.43.43,0,0,1,.29.44.42.42,0,0,1-.29.43l-1.16.49a2.4,2.4,0,0,1-.93.2,2.59,2.59,0,0,1-1.16-.29c-.92-.45-1.94-.88-3-1.29a.52.52,0,0,1-.35-.47.49.49,0,0,1,.25-.53l.41-.25H45.21l.35.15a.57.57,0,0,1,.35.55.52.52,0,0,1-.31.49,27.131,27.131,0,0,1-4.2,1.62,2,2,0,0,1-.49.06,1.81,1.81,0,0,1-.51-.08,1.87,1.87,0,0,1-.88-.53c-.15-.17-.31-.32-.46-.47a.5.5,0,0,1-.16-.56.51.51,0,0,1,.43-.39,24.72,24.72,0,0,0,3.4-.86H42a1.16,1.16,0,0,1-1.16-1.15V18.29c0-.09,0-.13-.13-.11h-.26a1.41,1.41,0,0,1-.68-.18,1.78,1.78,0,0,1-.74-.7,2.2,2.2,0,0,0-.18-.28.7.7,0,0,1-.12-.37.78.78,0,0,1,.59-.7,8.89,8.89,0,0,0,3.4-1,.05.05,0,0,0,0-.05h-1a.16.16,0,0,1-.19.1L40,14.93a.76.76,0,0,1-.66-.37.82.82,0,0,1-.14-.45.89.89,0,0,1,.06-.31c.19-.52.39-1.08.59-1.68a1.51,1.51,0,0,1,.54-.8,1.48,1.48,0,0,1,.92-.31h2.42c.11,0,.16,0,.16-.14v-.31a.14.14,0,0,0-.16-.16H40.34a.81.81,0,0,1-.57-.23.83.83,0,0,1,.57-1.41h3.48c.07,0,.1,0,.1-.08a.64.64,0,0,1,.19-.47A.62.62,0,0,1,44.58,8h1.27a.64.64,0,0,1,.49.21.65.65,0,0,1,.2.47c0,.06,0,.08.07.08h1.6c.06,0,.08,0,.08-.08a.65.65,0,0,1,.2-.47A.64.64,0,0,1,49,8h1.38a.61.61,0,0,1,.47.21.65.65,0,0,1,.2.47c0,.06,0,.08.09.08H54a1.15,1.15,0,0,1,.82.34,1.13,1.13,0,0,1,.33.81V11.5a1.13,1.13,0,0,1-.33.81,1.15,1.15,0,0,1-.82.34H51.18a.13.13,0,0,0-.15.15v.3a.13.13,0,0,0,.15.15h4.14a1.05,1.05,0,0,1,.8.34,1,1,0,0,1,.3.72,3.47,3.47,0,0,1-.53,2.19,1.86,1.86,0,0,1-1.25.54h-.08c-.1,0-.15.05-.15.16ZM42.49,12.65a.16.16,0,0,0-.17.14l-.12.33a.064.064,0,0,0,.09.09h1.38a.16.16,0,0,0,.18-.15v-.3c0-.12,0-.15-.14-.15Zm9,5.17a.14.14,0,0,0-.16-.15H43.76a.13.13,0,0,0-.15.15v.26a.13.13,0,0,0,.15.15H51.3a.14.14,0,0,0,.16-.15Zm0,2c0-.1-.06-.14-.16-.14H43.76c-.1,0-.15,0-.15.14v.27c0,.09,0,.14.15.14H51.3c.1,0,.16-.05.16-.14Zm0,2c0-.09-.06-.14-.16-.14H43.76c-.1,0-.15.05-.15.14v.29a.14.14,0,0,0,.15.16H51.3a.15.15,0,0,0,.16-.16ZM48.29,15c0-.09,0-.14-.13-.14H46.3a.24.24,0,0,0-.21.14,4.66,4.66,0,0,1-.59,1s0,0,0,.06a.07.07,0,0,0,.06,0h2.62c.09,0,.13-.05.13-.14Zm-.13-1.78c.09,0,.13-.05.13-.15v-.3c0-.1,0-.15-.13-.15H46.67c-.09,0-.13,0-.13.14v.16a1,1,0,0,0,0,.15c0,.1,0,.15.13.15ZM46.67,10.4c-.09,0-.13,0-.13.16v.31c0,.09,0,.14.13.14h1.49c.09,0,.13,0,.13-.14v-.31c0-.11,0-.16-.13-.16Zm5.88.16c0-.11,0-.16-.14-.16H51.18c-.1,0-.15,0-.15.16v.31c0,.09,0,.14.15.14h1.23a.13.13,0,0,0,.14-.14ZM53.62,15a.09.09,0,0,0,0-.1.18.18,0,0,0-.1,0H51.18c-.1,0-.15,0-.15.14V16c0,.09,0,.14.15.14h1.2s.07,0,0-.08a.41.41,0,0,1,.06-.4.39.39,0,0,1,.37-.17h.28a.75.75,0,0,0,.29,0,.42.42,0,0,0,.16-.23Z" fill="#231815"/>
          <path id="Path_11329" data-name="Path 11329" d="M74.5,8.86a1.07,1.07,0,0,1,.81.34,1.11,1.11,0,0,1,.35.81V23.29A4.34,4.34,0,0,1,75.38,25a1.93,1.93,0,0,1-.92.95,7.23,7.23,0,0,1-2.77.49h0a1.21,1.21,0,0,1-.82-.32,1.56,1.56,0,0,1-.54-.82c-.06-.19-.12-.39-.2-.58a.66.66,0,0,1-.06-.27.7.7,0,0,1,.14-.41.65.65,0,0,1,.58-.34h1.49c.32,0,.49-.15.49-.47V21c0-.11,0-.16-.14-.16h-3.3c-.09,0-.14,0-.14.16v4.12A1.16,1.16,0,0,1,68,26.28h-.63a1.1,1.1,0,0,1-.81-.34,1.14,1.14,0,0,1-.34-.81V21c0-.11,0-.16-.14-.16H62.8a.15.15,0,0,0-.17.14,12.12,12.12,0,0,1-1.8,4.78.87.87,0,0,1-.74.39h0a1,1,0,0,1-.76-.29l-.33-.2-.26-.22a1.13,1.13,0,0,1-.43-.72,1.359,1.359,0,0,1,0-.2,1.09,1.09,0,0,1,.2-.62,7.5,7.5,0,0,0,.58-1,9.88,9.88,0,0,0,.71-2.35c.14-.84.23-1.58.28-2.23s.07-1.4.07-2.27V10A1.16,1.16,0,0,1,61.3,8.86ZM63,18c0,.11.05.16.14.16h3c.1,0,.14-.05.14-.16V16.28a.12.12,0,0,0-.14-.14H63.2a.14.14,0,0,0-.16.16C63,16.82,63,17.38,63,18Zm3.28-6.21a.12.12,0,0,0-.14-.14H63.2c-.11,0-.16.05-.16.14v1.56c0,.09.05.14.16.14h2.92a.12.12,0,0,0,.14-.14Zm6.35,1.7a.13.13,0,0,0,.14-.14v-1.6a.13.13,0,0,0-.14-.14h-3.3a.13.13,0,0,0-.14.14v1.56a.13.13,0,0,0,.14.14ZM69.19,18c0,.11,0,.16.14.16h3.28c.09,0,.14-.05.14-.16V16.28a.13.13,0,0,0-.14-.14H69.33a.13.13,0,0,0-.14.14Z" fill="#231815"/>
          <path id="Path_11330" data-name="Path 11330" d="M90.23,21a1.11,1.11,0,0,1-1.14,1.11h-.54a1.11,1.11,0,0,1-1.1-1.09v-.7a.05.05,0,0,0,0-.06h-.07a4.41,4.41,0,0,0-1.27,1,1.69,1.69,0,0,0-.4,1.09.93.93,0,0,0,.55.89,4.64,4.64,0,0,0,1.94.28,28,28,0,0,0,4.62-.41H93a.91.91,0,0,1,.59.21.88.88,0,0,1,.33.73v.8a1.34,1.34,0,0,1-.36.87,1.28,1.28,0,0,1-.83.4c-1.63.14-3.15.21-4.57.21q-5.61,0-5.61-3.48a4.05,4.05,0,0,1,.37-1.71A4.75,4.75,0,0,1,84,19.63a11.84,11.84,0,0,1,1.38-1.15,16.439,16.439,0,0,1,1.62-1c.1,0,.1-.09,0-.15A1.49,1.49,0,0,0,86,17a3.68,3.68,0,0,0-1.55.4,5.42,5.42,0,0,0-1.36.93c-.34.35-.72.8-1.15,1.33a1.12,1.12,0,0,1-.77.43H81a1.11,1.11,0,0,1-.69-.24l-.7-.52a.92.92,0,0,1-.39-.73v-.05a.93.93,0,0,1,.31-.71,17.28,17.28,0,0,0,3.32-4.18.053.053,0,1,0-.07-.08c-.66,0-1.33,0-2-.06a1.11,1.11,0,0,1-.8-.38,1.23,1.23,0,0,1-.33-.85v-.47a1.04,1.04,0,0,1,1.04-1.04h.09c.82.07,1.63.1,2.43.1h.62a.2.2,0,0,0,.2-.14c.06-.3.12-.59.17-.87a1.32,1.32,0,0,1,.43-.79,1.15,1.15,0,0,1,.74-.27h.1l.86.08a1,1,0,0,1,.74.41.89.89,0,0,1,.2.55,1,1,0,0,1,0,.25,2.341,2.341,0,0,1-.14.55.08.08,0,0,0,0,.08.06.06,0,0,0,.09,0c1.56-.09,2.92-.21,4.06-.37h.14a.93.93,0,0,1,.64.24.86.86,0,0,1,.34.74v.47a1.29,1.29,0,0,1-.34.88,1.23,1.23,0,0,1-.82.41c-1.61.17-3.31.29-5.09.37a.21.21,0,0,0-.22.13,8.7,8.7,0,0,1-.62,1.14v.07a.07.07,0,0,0,.06,0,8.6,8.6,0,0,1,1.82-.16A2.83,2.83,0,0,1,89.72,16a.15.15,0,0,0,.21.06c.28-.13.63-.3,1.08-.49l.92-.41,1.48-.67a1.15,1.15,0,0,1,.47-.11,1,1,0,0,1,.41.08,1.08,1.08,0,0,1,.62.6l.28.65a1.11,1.11,0,0,1,.08.41,1.17,1.17,0,0,1-.1.43,1.06,1.06,0,0,1-.63.56l-1.6.61q-1.31.48-2.64,1.05a.21.21,0,0,0-.13.22Z" fill="#231815"/>
          <path id="Path_11331" data-name="Path 11331" d="M12.88,40.71a.86.86,0,0,1,.28,0,.92.92,0,0,1,.54.18,1,1,0,0,1,.45.72l.06.31a1.8,1.8,0,0,1,0,.22,1.3,1.3,0,0,1-.21.7,1.34,1.34,0,0,1-.75.55l-.47.11a.19.19,0,0,0-.13.2V48a4.87,4.87,0,0,1-.2,1.54,1.8,1.8,0,0,1-.68.9A3.79,3.79,0,0,1,10,51a.25.25,0,0,1-.12,0,1.07,1.07,0,0,1-.74-.29,1.56,1.56,0,0,1-.51-.82l-.11-.47a.72.72,0,0,1,0-.5.8.8,0,0,1,.28-.4.81.81,0,0,1,.48-.15h.39a.3.3,0,0,0,.24-.07A.33.33,0,0,0,10,48V44.38a.1.1,0,0,0,0-.09.07.07,0,0,0-.09,0l-.38.09a1,1,0,0,1-.29,0,1.21,1.21,0,0,1-.57-.15,1,1,0,0,1-.48-.71L8,43a.87.87,0,0,1,0-.26,1,1,0,0,1,.2-.6,1.15,1.15,0,0,1,.72-.51l.44-.1.52-.12c.09,0,.13-.07.13-.17V38.48c0-.1,0-.15-.13-.15H9.29A1.11,1.11,0,0,1,8.47,38a1.14,1.14,0,0,1-.33-.82v-.36A1.14,1.14,0,0,1,8.47,36a1.11,1.11,0,0,1,.82-.33h.59c.09,0,.13-.05.13-.15V33.19A1.14,1.14,0,0,1,11.16,32h.36a1.14,1.14,0,0,1,.82.33,1.12,1.12,0,0,1,.33.82v2.33a.13.13,0,0,0,.15.15h.3a1.12,1.12,0,0,1,.82.33,1.14,1.14,0,0,1,.33.82v.36a1.14,1.14,0,0,1-.33.82,1.12,1.12,0,0,1-.82.33h-.3a.13.13,0,0,0-.15.15v2.13a.11.11,0,0,0,.05.1.1.1,0,0,0,.1,0Zm12.29-6.13a1.13,1.13,0,0,1,.81.33,1.09,1.09,0,0,1,.34.82V46a5,5,0,0,1-.19,1.53,1.69,1.69,0,0,1-.67.92,2.91,2.91,0,0,1-1.35.5H24a1.16,1.16,0,0,1-.71-.25,1.51,1.51,0,0,1-.52-.82c-.07-.21-.14-.42-.22-.63a.69.69,0,0,1,.08-.7.73.73,0,0,1,.61-.31h.07c.11,0,.18,0,.21-.07a.48.48,0,0,0,.05-.24V37.25c0-.09-.05-.13-.14-.13H22.08c-.1,0-.15,0-.15.13v12.6A1.14,1.14,0,0,1,20.77,51H20.3a1.144,1.144,0,0,1-1.15-1.15v-3a.064.064,0,0,0-.09-.09c-1.07.52-2.26,1.06-3.56,1.62a1.31,1.31,0,0,1-.47.09,1.33,1.33,0,0,1-.43-.07,1.2,1.2,0,0,1-.66-.63l-.26-.53a1.13,1.13,0,0,1-.09-.45,1.07,1.07,0,0,1,.07-.39,1,1,0,0,1,.63-.58l.12-.06a.18.18,0,0,0,.13-.2V35a.82.82,0,0,1,.8-.8.48.48,0,0,1,.2,0,.34.34,0,0,0,.23,0,20.34,20.34,0,0,0,2.11-1.51,1.47,1.47,0,0,1,.88-.29,1.32,1.32,0,0,1,.88.31l.69.61a.75.75,0,0,1,.25.55.65.65,0,0,1-.37.62h0Zm-7.62,10a1,1,0,0,1,.37-.08.89.89,0,0,1,.45.12,1,1,0,0,1,.53.64l.21.88h0V35.12a.07.07,0,0,0-.09,0c-.6.32-1.15.6-1.64.84a.22.22,0,0,0-.14.22v8.38a.1.1,0,0,0,0,.09.11.11,0,0,0,.1,0Z" fill="#231815"/>
          <path id="Path_11332" data-name="Path 11332" d="M40,37.62h.37a2,2,0,0,1,1.53.64l.19.23a1,1,0,0,1,.28.69.5.5,0,0,1,0,.12,1.09,1.09,0,0,1-.41.76l-.28.21a.81.81,0,0,0-.19.18,34.544,34.544,0,0,0-2.87,2.56.06.06,0,0,0,0,.07l.07.06a2.64,2.64,0,0,1,.6.2,2.15,2.15,0,0,1,1,1.31c.06.17.15.43.26.79s.19.61.24.75A1.15,1.15,0,0,0,42,47a23.088,23.088,0,0,0,2.83-.16h.11a.92.92,0,0,1,.65.26.82.82,0,0,1,.29.74v.84a1.34,1.34,0,0,1-.38.87,1.29,1.29,0,0,1-.85.4c-1.08.09-2,.14-2.83.14a5.71,5.71,0,0,1-2.37-.39,2.26,2.26,0,0,1-1.2-1.31,19,19,0,0,1-.55-1.84c-.18-.6-.51-.9-1-.9-.24,0-.64.28-1.17.84-.74.78-1.59,1.76-2.54,2.93a1.17,1.17,0,0,1-.8.45H32a1.27,1.27,0,0,1-.69-.21l-.92-.65a.86.86,0,0,1-.39-.74.88.88,0,0,1,.32-.67c.24-.22.48-.44.7-.68q4.54-4.53,6.05-6.19v-.06a.05.05,0,0,0-.06,0c-.89,0-2.24.12-4,.28l-.64.07H32.1a1.17,1.17,0,0,1-.66-.21,1,1,0,0,1-.41-.74l-.08-1a.89.89,0,0,1,.27-.76A1,1,0,0,1,32,38h.88c.61,0,1.74,0,3.38-.11s2.85-.16,3.62-.27Zm-5.54-2a1,1,0,0,1-.75-.45,1.07,1.07,0,0,1-.21-.64,1.8,1.8,0,0,1,0-.22l.08-.48a1.09,1.09,0,0,1,.47-.77,1.16,1.16,0,0,1,.68-.21h.18q2.74.39,5.93.66a1.11,1.11,0,0,1,.76.41,1,1,0,0,1,.24.67.77.77,0,0,1,0,.15l-.06.51a1.17,1.17,0,0,1-.45.8,1.19,1.19,0,0,1-.74.26h-.12c-2.11-.16-4.11-.38-6.06-.66Z" fill="#231815"/>
          <path id="Path_11333" data-name="Path 11333" d="M51.3,37.72a1.11,1.11,0,0,1,.39-.76,1,1,0,0,1,.67-.25.39.39,0,0,1,.15,0l.94.11a1.09,1.09,0,0,1,.92,1.08,1.83,1.83,0,0,1,0,.21c-.21,1.06-.36,2-.45,2.87a.08.08,0,0,0,0,.07H54a10.08,10.08,0,0,1,5.35-1.5,7.38,7.38,0,0,1,2.46.39A4.85,4.85,0,0,1,63.64,41a5,5,0,0,1,1.09,1.52,4.25,4.25,0,0,1,.38,1.76,6.51,6.51,0,0,1-.31,2A4.88,4.88,0,0,1,63.74,48a5.72,5.72,0,0,1-1.9,1.33,10.75,10.75,0,0,1-2.94.78,19.709,19.709,0,0,1-2.64.16H54.84a1.5,1.5,0,0,1-.92-.35,1.52,1.52,0,0,1-.55-.82l-.29-.94a.62.62,0,0,1,0-.23.61.61,0,0,1,.19-.45.74.74,0,0,1,.57-.27h.1a20.221,20.221,0,0,0,2.24.13,9.62,9.62,0,0,0,3.54-.56,2.7,2.7,0,0,0,2-2.54,1.7,1.7,0,0,0-.74-1.4,3.12,3.12,0,0,0-1.92-.56,7.64,7.64,0,0,0-2.9.56A5.54,5.54,0,0,0,54,44.42l-.22.28a2,2,0,0,1-.8.6,1.37,1.37,0,0,1-.58.14,1.86,1.86,0,0,1-.34,0l-.5-.14a1.213,1.213,0,0,1-.94-1.19V43.9Q51.06,40.83,51.3,37.72ZM54.52,36a1.12,1.12,0,0,1-.72-.52,1.2,1.2,0,0,1-.16-.57,1.55,1.55,0,0,1,0-.29l.18-.65a1.07,1.07,0,0,1,.53-.7,1.18,1.18,0,0,1,.58-.16,1.77,1.77,0,0,1,.3,0q2.43.59,5.82,1.1a.99.99,0,0,1,.89.99,1.32,1.32,0,0,1,0,.28l-.17.72a1.2,1.2,0,0,1-.53.74,1.18,1.18,0,0,1-.66.22h-.22C58.59,36.84,56.63,36.45,54.52,36Z" fill="#231815"/>
          <path id="Path_11334" data-name="Path 11334" d="M85.62,45.59a.58.58,0,0,1,.37-.13.61.61,0,0,1,.25.06.52.52,0,0,1,.37.48l.14,1.08v.25a2.07,2.07,0,0,1-.16.82,1.38,1.38,0,0,1-.64.74,5.52,5.52,0,0,1-2.85.75,2.38,2.38,0,0,1-1.93-.88,3.75,3.75,0,0,1-.71-2.4,25.45,25.45,0,0,1,.34-3.43,25.889,25.889,0,0,0,.34-3.14,1.45,1.45,0,0,0-.31-1,1.1,1.1,0,0,0-.88-.35,4,4,0,0,0-2.21,1,17.661,17.661,0,0,0-2.59,2.39.32.32,0,0,0-.1.25c0,.25,0,.61,0,1.09,0,2.3,0,4.07.14,5.34v.56a.3.3,0,0,1,0,.1,1.04,1.04,0,0,1-1.06,1.03h-1a1.11,1.11,0,0,1-.8-.33A1.13,1.13,0,0,1,72.1,49v-.53c0-1.31,0-2.42.06-3.34H72.1c-.17.27-.41.62-.72,1.08l-.63.92a.74.74,0,0,1-.65.35.79.79,0,0,1-.67-.33l-.53-.76a1.56,1.56,0,0,1-.28-.88,1.48,1.48,0,0,1,.34-1q2-2.58,3.36-4.47a.48.48,0,0,0,.07-.26l.06-.78a.11.11,0,0,0,0-.1.09.09,0,0,0-.08,0l-2.19.28H70a1.11,1.11,0,0,1-.68-.24,1,1,0,0,1-.41-.76l-.08-.78v-.1a1,1,0,0,1,.27-.68,1.09,1.09,0,0,1,.77-.35h.82c.73-.07,1.34-.14,1.85-.22a.17.17,0,0,0,.16-.15v-2a1.1,1.1,0,0,1,.3-.77,1,1,0,0,1,.71-.32h1.17a.92.92,0,0,1,.75.37,1,1,0,0,1,.21.61.88.88,0,0,1,0,.17c-.06.46-.14,1-.21,1.56a.34.34,0,0,0,0,.26,1.43,1.43,0,0,1,.32.92,1.49,1.49,0,0,1-.28.88c-.2.31-.35.52-.43.62a.08.08,0,0,0,0,.05h0q3.27-2.72,5.53-2.72a3.33,3.33,0,0,1,2.48.86,3,3,0,0,1,.84,2.21,28.881,28.881,0,0,1-.31,3.41,28.7,28.7,0,0,0-.31,3.41.69.69,0,0,0,.16.49.64.64,0,0,0,.46.17A2.73,2.73,0,0,0,85.62,45.59Z" fill="#231815"/>
          <path id="Path_11335" data-name="Path 11335" d="M100.56,33.54h.23a1.85,1.85,0,0,1,.78.16,1.76,1.76,0,0,1,.79.6l.15.24a1.08,1.08,0,0,1,.2.6,1.939,1.939,0,0,1,0,.24,1.12,1.12,0,0,1-.49.72l-.55.35c-.32.22-.69.49-1.09.79l-1.64,1.27-1.1.87h0a7.649,7.649,0,0,1,1.23-.1,6.46,6.46,0,0,1,4.33,1.48,4.64,4.64,0,0,1,1.75,3.68,5.7,5.7,0,0,1-.44,2.24,5.38,5.38,0,0,1-1.31,1.83,6,6,0,0,1-2.3,1.27,10.83,10.83,0,0,1-3.32.46,6.64,6.64,0,0,1-3.64-.94,2.87,2.87,0,0,1-1.47-2.54,3.11,3.11,0,0,1,1.1-2.35,3.94,3.94,0,0,1,2.75-1,4.56,4.56,0,0,1,2.85.87,3.86,3.86,0,0,1,1.44,2.28.06.06,0,0,0,0,.06H101a2.64,2.64,0,0,0,1-2.21,2.32,2.32,0,0,0-1.11-2,4.8,4.8,0,0,0-2.79-.76,6.48,6.48,0,0,0-3.26.83A11.73,11.73,0,0,0,92,44.89a1,1,0,0,1-.76.37h-.06a1,1,0,0,1-.72-.31l-.58-.61a1,1,0,0,1-.3-.72,1.05,1.05,0,0,1,.39-.84c.45-.36,1.13-.93,2-1.69s1.53-1.26,1.83-1.49l1.8-1.47c1-.77,1.61-1.31,2-1.64a.09.09,0,0,0,0-.07q-2.34.06-4,.18h-.75a1.089,1.089,0,0,1-1.07-1.04v-.8a1,1,0,0,1,.31-.76,1.08,1.08,0,0,1,.74-.29h.94q4.31,0,6.19-.18.3.02.6.01ZM97.2,47.59h.74a.129.129,0,0,0,.14-.16,2.2,2.2,0,0,0-.51-1.21,1.31,1.31,0,0,0-1-.45,1.13,1.13,0,0,0-.74.23.71.71,0,0,0-.27.55.86.86,0,0,0,.46.76,2.13,2.13,0,0,0,1.18.28Z" fill="#231815"/>
          <path id="Path_11336" data-name="Path 11336" d="M119.14,48.73a2.65,2.65,0,0,1-3.38,0,2,2,0,0,1-.67-1.57,2.09,2.09,0,0,1,.67-1.58,2.58,2.58,0,0,1,3.38,0,2.1,2.1,0,0,1,.68,1.58,2,2,0,0,1-.68,1.57Zm-1.76-4.93a1.23,1.23,0,0,1-.88-.34,1.25,1.25,0,0,1-.43-.82l-.67-5.17-.08-2.17a1.08,1.08,0,0,1,.31-.81,1,1,0,0,1,.79-.34h2.09a1,1,0,0,1,.79.34,1.17,1.17,0,0,1,.32.81l-.1,2.17-.66,5.17a1.25,1.25,0,0,1-.43.82,1.22,1.22,0,0,1-.86.34Z" fill="#231815"/>
          <path id="Path_11337" data-name="Path 11337" d="M54.41,22.77a1.1,1.1,0,0,1-.34.81,1.12,1.12,0,0,1-.82.34h-1q1.89.66,3.42,1.29a.43.43,0,0,1,.29.44.42.42,0,0,1-.29.43l-1.16.49a2.4,2.4,0,0,1-.93.2,2.59,2.59,0,0,1-1.16-.29c-.92-.45-1.94-.88-3-1.29a.52.52,0,0,1-.35-.47.49.49,0,0,1,.25-.53l.41-.25H45.21l.35.15a.57.57,0,0,1,.35.55.52.52,0,0,1-.31.49,27.131,27.131,0,0,1-4.2,1.62,2,2,0,0,1-.49.06,1.81,1.81,0,0,1-.51-.08,1.87,1.87,0,0,1-.88-.53c-.15-.17-.31-.32-.46-.47a.5.5,0,0,1-.16-.56.51.51,0,0,1,.43-.39,24.72,24.72,0,0,0,3.4-.86H42a1.16,1.16,0,0,1-1.16-1.15V18.29c0-.09,0-.13-.13-.11h-.26a1.41,1.41,0,0,1-.68-.18,1.78,1.78,0,0,1-.74-.7,2.2,2.2,0,0,0-.18-.28.7.7,0,0,1-.12-.37.78.78,0,0,1,.59-.7,8.89,8.89,0,0,0,3.4-1,.05.05,0,0,0,0-.05h-1a.16.16,0,0,1-.19.1L40,14.93a.76.76,0,0,1-.66-.37.82.82,0,0,1-.14-.45.89.89,0,0,1,.06-.31c.19-.52.39-1.08.59-1.68a1.51,1.51,0,0,1,.54-.8,1.48,1.48,0,0,1,.92-.31h2.42c.11,0,.16,0,.16-.14v-.31a.14.14,0,0,0-.16-.16H40.34a.81.81,0,0,1-.57-.23.83.83,0,0,1,.57-1.41h3.48c.07,0,.1,0,.1-.08a.64.64,0,0,1,.19-.47A.62.62,0,0,1,44.58,8h1.27a.64.64,0,0,1,.49.21.65.65,0,0,1,.2.47c0,.06,0,.08.07.08h1.6c.06,0,.08,0,.08-.08a.65.65,0,0,1,.2-.47A.64.64,0,0,1,49,8h1.38a.61.61,0,0,1,.47.21.65.65,0,0,1,.2.47c0,.06,0,.08.09.08H54a1.15,1.15,0,0,1,.82.34,1.13,1.13,0,0,1,.33.81V11.5a1.13,1.13,0,0,1-.33.81,1.15,1.15,0,0,1-.82.34H51.18a.13.13,0,0,0-.15.15v.3a.13.13,0,0,0,.15.15h4.14a1.05,1.05,0,0,1,.8.34,1,1,0,0,1,.3.72,3.47,3.47,0,0,1-.53,2.19,1.86,1.86,0,0,1-1.25.54h-.08c-.1,0-.15.05-.15.16ZM42.49,12.65a.16.16,0,0,0-.17.14l-.12.33a.064.064,0,0,0,.09.09h1.38a.16.16,0,0,0,.18-.15v-.3c0-.12,0-.15-.14-.15Zm9,5.17a.14.14,0,0,0-.16-.15H43.76a.13.13,0,0,0-.15.15v.26a.13.13,0,0,0,.15.15H51.3a.14.14,0,0,0,.16-.15Zm0,2c0-.1-.06-.14-.16-.14H43.76c-.1,0-.15,0-.15.14v.27c0,.09,0,.14.15.14H51.3c.1,0,.16-.05.16-.14Zm0,2c0-.09-.06-.14-.16-.14H43.76c-.1,0-.15.05-.15.14v.29a.14.14,0,0,0,.15.16H51.3a.15.15,0,0,0,.16-.16ZM48.29,15c0-.09,0-.14-.13-.14H46.3a.24.24,0,0,0-.21.14,4.66,4.66,0,0,1-.59,1s0,0,0,.06a.07.07,0,0,0,.06,0h2.62c.09,0,.13-.05.13-.14Zm-.13-1.78c.09,0,.13-.05.13-.15v-.3c0-.1,0-.15-.13-.15H46.67c-.09,0-.13,0-.13.14v.16a1,1,0,0,0,0,.15c0,.1,0,.15.13.15ZM46.67,10.4c-.09,0-.13,0-.13.16v.31c0,.09,0,.14.13.14h1.49c.09,0,.13,0,.13-.14v-.31c0-.11,0-.16-.13-.16Zm5.88.16c0-.11,0-.16-.14-.16H51.18c-.1,0-.15,0-.15.16v.31c0,.09,0,.14.15.14h1.23a.13.13,0,0,0,.14-.14ZM53.62,15a.09.09,0,0,0,0-.1.18.18,0,0,0-.1,0H51.18c-.1,0-.15,0-.15.14V16c0,.09,0,.14.15.14h1.2s.07,0,0-.08a.41.41,0,0,1,.06-.4.39.39,0,0,1,.37-.17h.28a.75.75,0,0,0,.29,0,.42.42,0,0,0,.16-.23Z" fill="none" stroke="#fff" stroke-linejoin="round" stroke-width="16"/>
          <path id="Path_11338" data-name="Path 11338" d="M74.5,8.86a1.07,1.07,0,0,1,.81.34,1.11,1.11,0,0,1,.35.81V23.29A4.34,4.34,0,0,1,75.38,25a1.93,1.93,0,0,1-.92.95,7.23,7.23,0,0,1-2.77.49h0a1.21,1.21,0,0,1-.82-.32,1.56,1.56,0,0,1-.54-.82c-.06-.19-.12-.39-.2-.58a.66.66,0,0,1-.06-.27.7.7,0,0,1,.14-.41.65.65,0,0,1,.58-.34h1.49c.32,0,.49-.15.49-.47V21c0-.11,0-.16-.14-.16h-3.3c-.09,0-.14,0-.14.16v4.12A1.16,1.16,0,0,1,68,26.28h-.63a1.1,1.1,0,0,1-.81-.34,1.14,1.14,0,0,1-.34-.81V21c0-.11,0-.16-.14-.16H62.8a.15.15,0,0,0-.17.14,12.12,12.12,0,0,1-1.8,4.78.87.87,0,0,1-.74.39h0a1,1,0,0,1-.76-.29l-.33-.2-.26-.22a1.13,1.13,0,0,1-.43-.72,1.359,1.359,0,0,1,0-.2,1.09,1.09,0,0,1,.2-.62,7.5,7.5,0,0,0,.58-1,9.88,9.88,0,0,0,.71-2.35c.14-.84.23-1.58.28-2.23s.07-1.4.07-2.27V10A1.16,1.16,0,0,1,61.3,8.86ZM63,18c0,.11.05.16.14.16h3c.1,0,.14-.05.14-.16V16.28a.12.12,0,0,0-.14-.14H63.2a.14.14,0,0,0-.16.16C63,16.82,63,17.38,63,18Zm3.28-6.21a.12.12,0,0,0-.14-.14H63.2c-.11,0-.16.05-.16.14v1.56c0,.09.05.14.16.14h2.92a.12.12,0,0,0,.14-.14Zm6.35,1.7a.13.13,0,0,0,.14-.14v-1.6a.13.13,0,0,0-.14-.14h-3.3a.13.13,0,0,0-.14.14v1.56a.13.13,0,0,0,.14.14ZM69.19,18c0,.11,0,.16.14.16h3.28c.09,0,.14-.05.14-.16V16.28a.13.13,0,0,0-.14-.14H69.33a.13.13,0,0,0-.14.14Z" fill="none" stroke="#fff" stroke-linejoin="round" stroke-width="16"/>
          <path id="Path_11339" data-name="Path 11339" d="M90.23,21a1.11,1.11,0,0,1-1.14,1.11h-.54a1.11,1.11,0,0,1-1.1-1.09v-.7a.05.05,0,0,0,0-.06h-.07a4.41,4.41,0,0,0-1.27,1,1.69,1.69,0,0,0-.4,1.09.93.93,0,0,0,.55.89,4.64,4.64,0,0,0,1.94.28,28,28,0,0,0,4.62-.41H93a.91.91,0,0,1,.59.21.88.88,0,0,1,.33.73v.8a1.34,1.34,0,0,1-.36.87,1.28,1.28,0,0,1-.83.4c-1.63.14-3.15.21-4.57.21q-5.61,0-5.61-3.48a4.05,4.05,0,0,1,.37-1.71A4.75,4.75,0,0,1,84,19.63a11.84,11.84,0,0,1,1.38-1.15,16.439,16.439,0,0,1,1.62-1c.1,0,.1-.09,0-.15A1.49,1.49,0,0,0,86,17a3.68,3.68,0,0,0-1.55.4,5.42,5.42,0,0,0-1.36.93c-.34.35-.72.8-1.15,1.33a1.12,1.12,0,0,1-.77.43H81a1.11,1.11,0,0,1-.69-.24l-.7-.52a.92.92,0,0,1-.39-.73v-.05a.93.93,0,0,1,.31-.71,17.28,17.28,0,0,0,3.32-4.18.053.053,0,1,0-.07-.08c-.66,0-1.33,0-2-.06a1.11,1.11,0,0,1-.8-.38,1.23,1.23,0,0,1-.33-.85v-.47a1.04,1.04,0,0,1,1.04-1.04h.09c.82.07,1.63.1,2.43.1h.62a.2.2,0,0,0,.2-.14c.06-.3.12-.59.17-.87a1.32,1.32,0,0,1,.43-.79,1.15,1.15,0,0,1,.74-.27h.1l.86.08a1,1,0,0,1,.74.41.89.89,0,0,1,.2.55,1,1,0,0,1,0,.25,2.341,2.341,0,0,1-.14.55.08.08,0,0,0,0,.08.06.06,0,0,0,.09,0c1.56-.09,2.92-.21,4.06-.37h.14a.93.93,0,0,1,.64.24.86.86,0,0,1,.34.74v.47a1.29,1.29,0,0,1-.34.88,1.23,1.23,0,0,1-.82.41c-1.61.17-3.31.29-5.09.37a.21.21,0,0,0-.22.13,8.7,8.7,0,0,1-.62,1.14v.07a.07.07,0,0,0,.06,0,8.6,8.6,0,0,1,1.82-.16A2.83,2.83,0,0,1,89.72,16a.15.15,0,0,0,.21.06c.28-.13.63-.3,1.08-.49l.92-.41,1.48-.67a1.15,1.15,0,0,1,.47-.11,1,1,0,0,1,.41.08,1.08,1.08,0,0,1,.62.6l.28.65a1.11,1.11,0,0,1,.08.41,1.17,1.17,0,0,1-.1.43,1.06,1.06,0,0,1-.63.56l-1.6.61q-1.31.48-2.64,1.05a.21.21,0,0,0-.13.22Z" fill="none" stroke="#fff" stroke-linejoin="round" stroke-width="16"/>
          <path id="Path_11340" data-name="Path 11340" d="M12.88,40.71a.86.86,0,0,1,.28,0,.92.92,0,0,1,.54.18,1,1,0,0,1,.45.72l.06.31a1.8,1.8,0,0,1,0,.22,1.3,1.3,0,0,1-.21.7,1.34,1.34,0,0,1-.75.55l-.47.11a.19.19,0,0,0-.13.2V48a4.87,4.87,0,0,1-.2,1.54,1.8,1.8,0,0,1-.68.9A3.79,3.79,0,0,1,10,51a.25.25,0,0,1-.12,0,1.07,1.07,0,0,1-.74-.29,1.56,1.56,0,0,1-.51-.82l-.11-.47a.72.72,0,0,1,0-.5.8.8,0,0,1,.28-.4.81.81,0,0,1,.48-.15h.39a.3.3,0,0,0,.24-.07A.33.33,0,0,0,10,48V44.38a.1.1,0,0,0,0-.09.07.07,0,0,0-.09,0l-.38.09a1,1,0,0,1-.29,0,1.21,1.21,0,0,1-.57-.15,1,1,0,0,1-.48-.71L8,43a.87.87,0,0,1,0-.26,1,1,0,0,1,.2-.6,1.15,1.15,0,0,1,.72-.51l.44-.1.52-.12c.09,0,.13-.07.13-.17V38.48c0-.1,0-.15-.13-.15H9.29A1.11,1.11,0,0,1,8.47,38a1.14,1.14,0,0,1-.33-.82v-.36A1.14,1.14,0,0,1,8.47,36a1.11,1.11,0,0,1,.82-.33h.59c.09,0,.13-.05.13-.15V33.19A1.14,1.14,0,0,1,11.16,32h.36a1.14,1.14,0,0,1,.82.33,1.12,1.12,0,0,1,.33.82v2.33a.13.13,0,0,0,.15.15h.3a1.12,1.12,0,0,1,.82.33,1.14,1.14,0,0,1,.33.82v.36a1.14,1.14,0,0,1-.33.82,1.12,1.12,0,0,1-.82.33h-.3a.13.13,0,0,0-.15.15v2.13a.11.11,0,0,0,.05.1.1.1,0,0,0,.1,0Zm12.29-6.13a1.13,1.13,0,0,1,.81.33,1.09,1.09,0,0,1,.34.82V46a5,5,0,0,1-.19,1.53,1.69,1.69,0,0,1-.67.92,2.91,2.91,0,0,1-1.35.5H24a1.16,1.16,0,0,1-.71-.25,1.51,1.51,0,0,1-.52-.82c-.07-.21-.14-.42-.22-.63a.69.69,0,0,1,.08-.7.73.73,0,0,1,.61-.31h.07c.11,0,.18,0,.21-.07a.48.48,0,0,0,.05-.24V37.25c0-.09-.05-.13-.14-.13H22.08c-.1,0-.15,0-.15.13v12.6A1.14,1.14,0,0,1,20.77,51H20.3a1.144,1.144,0,0,1-1.15-1.15v-3a.064.064,0,0,0-.09-.09c-1.07.52-2.26,1.06-3.56,1.62a1.31,1.31,0,0,1-.47.09,1.33,1.33,0,0,1-.43-.07,1.2,1.2,0,0,1-.66-.63l-.26-.53a1.13,1.13,0,0,1-.09-.45,1.07,1.07,0,0,1,.07-.39,1,1,0,0,1,.63-.58l.12-.06a.18.18,0,0,0,.13-.2V35a.82.82,0,0,1,.8-.8.48.48,0,0,1,.2,0,.34.34,0,0,0,.23,0,20.34,20.34,0,0,0,2.11-1.51,1.47,1.47,0,0,1,.88-.29,1.32,1.32,0,0,1,.88.31l.69.61a.75.75,0,0,1,.25.55.65.65,0,0,1-.37.62h0Zm-7.62,10a1,1,0,0,1,.37-.08.89.89,0,0,1,.45.12,1,1,0,0,1,.53.64l.21.88h0V35.12a.07.07,0,0,0-.09,0c-.6.32-1.15.6-1.64.84a.22.22,0,0,0-.14.22v8.38a.1.1,0,0,0,0,.09.11.11,0,0,0,.1,0Z" fill="none" stroke="#fff" stroke-linejoin="round" stroke-width="16"/>
          <path id="Path_11341" data-name="Path 11341" d="M40,37.62h.37a2,2,0,0,1,1.53.64l.19.23a1,1,0,0,1,.28.69.5.5,0,0,1,0,.12,1.09,1.09,0,0,1-.41.76l-.28.21a.81.81,0,0,0-.19.18,34.544,34.544,0,0,0-2.87,2.56.06.06,0,0,0,0,.07l.07.06a2.64,2.64,0,0,1,.6.2,2.15,2.15,0,0,1,1,1.31c.06.17.15.43.26.79s.19.61.24.75A1.15,1.15,0,0,0,42,47a23.088,23.088,0,0,0,2.83-.16h.11a.92.92,0,0,1,.65.26.82.82,0,0,1,.29.74v.84a1.34,1.34,0,0,1-.38.87,1.29,1.29,0,0,1-.85.4c-1.08.09-2,.14-2.83.14a5.71,5.71,0,0,1-2.37-.39,2.26,2.26,0,0,1-1.2-1.31,19,19,0,0,1-.55-1.84c-.18-.6-.51-.9-1-.9-.24,0-.64.28-1.17.84-.74.78-1.59,1.76-2.54,2.93a1.17,1.17,0,0,1-.8.45H32a1.27,1.27,0,0,1-.69-.21l-.92-.65a.86.86,0,0,1-.39-.74.88.88,0,0,1,.32-.67c.24-.22.48-.44.7-.68q4.54-4.53,6.05-6.19v-.06a.05.05,0,0,0-.06,0c-.89,0-2.24.12-4,.28l-.64.07H32.1a1.17,1.17,0,0,1-.66-.21,1,1,0,0,1-.41-.74l-.08-1a.89.89,0,0,1,.27-.76A1,1,0,0,1,32,38h.88c.61,0,1.74,0,3.38-.11s2.85-.16,3.62-.27Zm-5.54-2a1,1,0,0,1-.75-.45,1.07,1.07,0,0,1-.21-.64,1.8,1.8,0,0,1,0-.22l.08-.48a1.09,1.09,0,0,1,.47-.77,1.16,1.16,0,0,1,.68-.21h.18q2.74.39,5.93.66a1.11,1.11,0,0,1,.76.41,1,1,0,0,1,.24.67.77.77,0,0,1,0,.15l-.06.51a1.17,1.17,0,0,1-.45.8,1.19,1.19,0,0,1-.74.26h-.12c-2.11-.16-4.11-.38-6.06-.66Z" fill="none" stroke="#fff" stroke-linejoin="round" stroke-width="16"/>
          <path id="Path_11342" data-name="Path 11342" d="M51.3,37.72a1.11,1.11,0,0,1,.39-.76,1,1,0,0,1,.67-.25.39.39,0,0,1,.15,0l.94.11a1.09,1.09,0,0,1,.92,1.08,1.83,1.83,0,0,1,0,.21c-.21,1.06-.36,2-.45,2.87a.08.08,0,0,0,0,.07H54a10.08,10.08,0,0,1,5.35-1.5,7.38,7.38,0,0,1,2.46.39A4.85,4.85,0,0,1,63.64,41a5,5,0,0,1,1.09,1.52,4.25,4.25,0,0,1,.38,1.76,6.51,6.51,0,0,1-.31,2A4.88,4.88,0,0,1,63.74,48a5.72,5.72,0,0,1-1.9,1.33,10.75,10.75,0,0,1-2.94.78,19.709,19.709,0,0,1-2.64.16H54.84a1.5,1.5,0,0,1-.92-.35,1.52,1.52,0,0,1-.55-.82l-.29-.94a.62.62,0,0,1,0-.23.61.61,0,0,1,.19-.45.74.74,0,0,1,.57-.27h.1a20.221,20.221,0,0,0,2.24.13,9.62,9.62,0,0,0,3.54-.56,2.7,2.7,0,0,0,2-2.54,1.7,1.7,0,0,0-.74-1.4,3.12,3.12,0,0,0-1.92-.56,7.64,7.64,0,0,0-2.9.56A5.54,5.54,0,0,0,54,44.42l-.22.28a2,2,0,0,1-.8.6,1.37,1.37,0,0,1-.58.14,1.86,1.86,0,0,1-.34,0l-.5-.14a1.213,1.213,0,0,1-.94-1.19V43.9Q51.06,40.83,51.3,37.72ZM54.52,36a1.12,1.12,0,0,1-.72-.52,1.2,1.2,0,0,1-.16-.57,1.55,1.55,0,0,1,0-.29l.18-.65a1.07,1.07,0,0,1,.53-.7,1.18,1.18,0,0,1,.58-.16,1.77,1.77,0,0,1,.3,0q2.43.59,5.82,1.1a.99.99,0,0,1,.89.99,1.32,1.32,0,0,1,0,.28l-.17.72a1.2,1.2,0,0,1-.53.74,1.18,1.18,0,0,1-.66.22h-.22C58.59,36.84,56.63,36.45,54.52,36Z" fill="none" stroke="#fff" stroke-linejoin="round" stroke-width="16"/>
          <path id="Path_11343" data-name="Path 11343" d="M85.62,45.59a.58.58,0,0,1,.37-.13.61.61,0,0,1,.25.06.52.52,0,0,1,.37.48l.14,1.08v.25a2.07,2.07,0,0,1-.16.82,1.38,1.38,0,0,1-.64.74,5.52,5.52,0,0,1-2.85.75,2.38,2.38,0,0,1-1.93-.88,3.75,3.75,0,0,1-.71-2.4,25.45,25.45,0,0,1,.34-3.43,25.889,25.889,0,0,0,.34-3.14,1.45,1.45,0,0,0-.31-1,1.1,1.1,0,0,0-.88-.35,4,4,0,0,0-2.21,1,17.661,17.661,0,0,0-2.59,2.39.32.32,0,0,0-.1.25c0,.25,0,.61,0,1.09,0,2.3,0,4.07.14,5.34v.56a.3.3,0,0,1,0,.1,1.04,1.04,0,0,1-1.06,1.03h-1a1.11,1.11,0,0,1-.8-.33A1.13,1.13,0,0,1,72.1,49v-.53c0-1.31,0-2.42.06-3.34H72.1c-.17.27-.41.62-.72,1.08l-.63.92a.74.74,0,0,1-.65.35.79.79,0,0,1-.67-.33l-.53-.76a1.56,1.56,0,0,1-.28-.88,1.48,1.48,0,0,1,.34-1q2-2.58,3.36-4.47a.48.48,0,0,0,.07-.26l.06-.78a.11.11,0,0,0,0-.1.09.09,0,0,0-.08,0l-2.19.28H70a1.11,1.11,0,0,1-.68-.24,1,1,0,0,1-.41-.76l-.08-.78v-.1a1,1,0,0,1,.27-.68,1.09,1.09,0,0,1,.77-.35h.82c.73-.07,1.34-.14,1.85-.22a.17.17,0,0,0,.16-.15v-2a1.1,1.1,0,0,1,.3-.77,1,1,0,0,1,.71-.32h1.17a.92.92,0,0,1,.75.37,1,1,0,0,1,.21.61.88.88,0,0,1,0,.17c-.06.46-.14,1-.21,1.56a.34.34,0,0,0,0,.26,1.43,1.43,0,0,1,.32.92,1.49,1.49,0,0,1-.28.88c-.2.31-.35.52-.43.62a.08.08,0,0,0,0,.05h0q3.27-2.72,5.53-2.72a3.33,3.33,0,0,1,2.48.86,3,3,0,0,1,.84,2.21,28.881,28.881,0,0,1-.31,3.41,28.7,28.7,0,0,0-.31,3.41.69.69,0,0,0,.16.49.64.64,0,0,0,.46.17A2.73,2.73,0,0,0,85.62,45.59Z" fill="none" stroke="#fff" stroke-linejoin="round" stroke-width="16"/>
          <path id="Path_11344" data-name="Path 11344" d="M100.56,33.54h.23a1.85,1.85,0,0,1,.78.16,1.76,1.76,0,0,1,.79.6l.15.24a1.08,1.08,0,0,1,.2.6,1.939,1.939,0,0,1,0,.24,1.12,1.12,0,0,1-.49.72l-.55.35c-.32.22-.69.49-1.09.79l-1.64,1.27-1.1.87h0a7.649,7.649,0,0,1,1.23-.1,6.46,6.46,0,0,1,4.33,1.48,4.64,4.64,0,0,1,1.75,3.68,5.7,5.7,0,0,1-.44,2.24,5.38,5.38,0,0,1-1.31,1.83,6,6,0,0,1-2.3,1.27,10.83,10.83,0,0,1-3.32.46,6.64,6.64,0,0,1-3.64-.94,2.87,2.87,0,0,1-1.47-2.54,3.11,3.11,0,0,1,1.1-2.35,3.94,3.94,0,0,1,2.75-1,4.56,4.56,0,0,1,2.85.87,3.86,3.86,0,0,1,1.44,2.28.06.06,0,0,0,0,.06H101a2.64,2.64,0,0,0,1-2.21,2.32,2.32,0,0,0-1.11-2,4.8,4.8,0,0,0-2.79-.76,6.48,6.48,0,0,0-3.26.83A11.73,11.73,0,0,0,92,44.89a1,1,0,0,1-.76.37h-.06a1,1,0,0,1-.72-.31l-.58-.61a1,1,0,0,1-.3-.72,1.05,1.05,0,0,1,.39-.84c.45-.36,1.13-.93,2-1.69s1.53-1.26,1.83-1.49l1.8-1.47c1-.77,1.61-1.31,2-1.64a.09.09,0,0,0,0-.07q-2.34.06-4,.18h-.75a1.089,1.089,0,0,1-1.07-1.04v-.8a1,1,0,0,1,.31-.76,1.08,1.08,0,0,1,.74-.29h.94q4.31,0,6.19-.18.3.02.6.01ZM97.2,47.59h.74a.129.129,0,0,0,.14-.16,2.2,2.2,0,0,0-.51-1.21,1.31,1.31,0,0,0-1-.45,1.13,1.13,0,0,0-.74.23.71.71,0,0,0-.27.55.86.86,0,0,0,.46.76,2.13,2.13,0,0,0,1.18.28Z" fill="none" stroke="#fff" stroke-linejoin="round" stroke-width="16"/>
          <path id="Path_11345" data-name="Path 11345" d="M119.14,48.73a2.65,2.65,0,0,1-3.38,0,2,2,0,0,1-.67-1.57,2.09,2.09,0,0,1,.67-1.58,2.58,2.58,0,0,1,3.38,0,2.1,2.1,0,0,1,.68,1.58,2,2,0,0,1-.68,1.57Zm-1.76-4.93a1.23,1.23,0,0,1-.88-.34,1.25,1.25,0,0,1-.43-.82l-.67-5.17-.08-2.17a1.08,1.08,0,0,1,.31-.81,1,1,0,0,1,.79-.34h2.09a1,1,0,0,1,.79.34,1.17,1.17,0,0,1,.32.81l-.1,2.17-.66,5.17a1.25,1.25,0,0,1-.43.82,1.22,1.22,0,0,1-.86.34Z" fill="none" stroke="#fff" stroke-linejoin="round" stroke-width="16"/>
          <path id="Path_11346" data-name="Path 11346" d="M54.41,22.77a1.1,1.1,0,0,1-.34.81,1.12,1.12,0,0,1-.82.34h-1q1.89.66,3.42,1.29a.43.43,0,0,1,.29.44.42.42,0,0,1-.29.43l-1.16.49a2.4,2.4,0,0,1-.93.2,2.59,2.59,0,0,1-1.16-.29c-.92-.45-1.94-.88-3-1.29a.52.52,0,0,1-.35-.47.49.49,0,0,1,.25-.53l.41-.25H45.21l.35.15a.57.57,0,0,1,.35.55.52.52,0,0,1-.31.49,27.131,27.131,0,0,1-4.2,1.62,2,2,0,0,1-.49.06,1.81,1.81,0,0,1-.51-.08,1.87,1.87,0,0,1-.88-.53c-.15-.17-.31-.32-.46-.47a.5.5,0,0,1-.16-.56.51.51,0,0,1,.43-.39,24.72,24.72,0,0,0,3.4-.86H42a1.16,1.16,0,0,1-1.16-1.15V18.29c0-.09,0-.13-.13-.11h-.26a1.41,1.41,0,0,1-.68-.18,1.78,1.78,0,0,1-.74-.7,2.2,2.2,0,0,0-.18-.28.7.7,0,0,1-.12-.37.78.78,0,0,1,.59-.7,8.89,8.89,0,0,0,3.4-1,.05.05,0,0,0,0-.05h-1a.16.16,0,0,1-.19.1L40,14.93a.76.76,0,0,1-.66-.37.82.82,0,0,1-.14-.45.89.89,0,0,1,.06-.31c.19-.52.39-1.08.59-1.68a1.51,1.51,0,0,1,.54-.8,1.48,1.48,0,0,1,.92-.31h2.42c.11,0,.16,0,.16-.14v-.31a.14.14,0,0,0-.16-.16H40.34a.81.81,0,0,1-.57-.23.83.83,0,0,1,.57-1.41h3.48c.07,0,.1,0,.1-.08a.64.64,0,0,1,.19-.47A.62.62,0,0,1,44.58,8h1.27a.64.64,0,0,1,.49.21.65.65,0,0,1,.2.47c0,.06,0,.08.07.08h1.6c.06,0,.08,0,.08-.08a.65.65,0,0,1,.2-.47A.64.64,0,0,1,49,8h1.38a.61.61,0,0,1,.47.21.65.65,0,0,1,.2.47c0,.06,0,.08.09.08H54a1.15,1.15,0,0,1,.82.34,1.13,1.13,0,0,1,.33.81V11.5a1.13,1.13,0,0,1-.33.81,1.15,1.15,0,0,1-.82.34H51.18a.13.13,0,0,0-.15.15v.3a.13.13,0,0,0,.15.15h4.14a1.05,1.05,0,0,1,.8.34,1,1,0,0,1,.3.72,3.47,3.47,0,0,1-.53,2.19,1.86,1.86,0,0,1-1.25.54h-.08c-.1,0-.15.05-.15.16ZM42.49,12.65a.16.16,0,0,0-.17.14l-.12.33a.064.064,0,0,0,.09.09h1.38a.16.16,0,0,0,.18-.15v-.3c0-.12,0-.15-.14-.15Zm9,5.17a.14.14,0,0,0-.16-.15H43.76a.13.13,0,0,0-.15.15v.26a.13.13,0,0,0,.15.15H51.3a.14.14,0,0,0,.16-.15Zm0,2c0-.1-.06-.14-.16-.14H43.76c-.1,0-.15,0-.15.14v.27c0,.09,0,.14.15.14H51.3c.1,0,.16-.05.16-.14Zm0,2c0-.09-.06-.14-.16-.14H43.76c-.1,0-.15.05-.15.14v.29a.14.14,0,0,0,.15.16H51.3a.15.15,0,0,0,.16-.16ZM48.29,15c0-.09,0-.14-.13-.14H46.3a.24.24,0,0,0-.21.14,4.66,4.66,0,0,1-.59,1s0,0,0,.06a.07.07,0,0,0,.06,0h2.62c.09,0,.13-.05.13-.14Zm-.13-1.78c.09,0,.13-.05.13-.15v-.3c0-.1,0-.15-.13-.15H46.67c-.09,0-.13,0-.13.14v.16a1,1,0,0,0,0,.15c0,.1,0,.15.13.15ZM46.67,10.4c-.09,0-.13,0-.13.16v.31c0,.09,0,.14.13.14h1.49c.09,0,.13,0,.13-.14v-.31c0-.11,0-.16-.13-.16Zm5.88.16c0-.11,0-.16-.14-.16H51.18c-.1,0-.15,0-.15.16v.31c0,.09,0,.14.15.14h1.23a.13.13,0,0,0,.14-.14ZM53.62,15a.09.09,0,0,0,0-.1.18.18,0,0,0-.1,0H51.18c-.1,0-.15,0-.15.14V16c0,.09,0,.14.15.14h1.2s.07,0,0-.08a.41.41,0,0,1,.06-.4.39.39,0,0,1,.37-.17h.28a.75.75,0,0,0,.29,0,.42.42,0,0,0,.16-.23Z" fill="none" stroke="#e90002" stroke-linejoin="round" stroke-width="8"/>
          <path id="Path_11347" data-name="Path 11347" d="M74.5,8.86a1.07,1.07,0,0,1,.81.34,1.11,1.11,0,0,1,.35.81V23.29A4.34,4.34,0,0,1,75.38,25a1.93,1.93,0,0,1-.92.95,7.23,7.23,0,0,1-2.77.49h0a1.21,1.21,0,0,1-.82-.32,1.56,1.56,0,0,1-.54-.82c-.06-.19-.12-.39-.2-.58a.66.66,0,0,1-.06-.27.7.7,0,0,1,.14-.41.65.65,0,0,1,.58-.34h1.49c.32,0,.49-.15.49-.47V21c0-.11,0-.16-.14-.16h-3.3c-.09,0-.14,0-.14.16v4.12A1.16,1.16,0,0,1,68,26.28h-.63a1.1,1.1,0,0,1-.81-.34,1.14,1.14,0,0,1-.34-.81V21c0-.11,0-.16-.14-.16H62.8a.15.15,0,0,0-.17.14,12.12,12.12,0,0,1-1.8,4.78.87.87,0,0,1-.74.39h0a1,1,0,0,1-.76-.29l-.33-.2-.26-.22a1.13,1.13,0,0,1-.43-.72,1.359,1.359,0,0,1,0-.2,1.09,1.09,0,0,1,.2-.62,7.5,7.5,0,0,0,.58-1,9.88,9.88,0,0,0,.71-2.35c.14-.84.23-1.58.28-2.23s.07-1.4.07-2.27V10A1.16,1.16,0,0,1,61.3,8.86ZM63,18c0,.11.05.16.14.16h3c.1,0,.14-.05.14-.16V16.28a.12.12,0,0,0-.14-.14H63.2a.14.14,0,0,0-.16.16C63,16.82,63,17.38,63,18Zm3.28-6.21a.12.12,0,0,0-.14-.14H63.2c-.11,0-.16.05-.16.14v1.56c0,.09.05.14.16.14h2.92a.12.12,0,0,0,.14-.14Zm6.35,1.7a.13.13,0,0,0,.14-.14v-1.6a.13.13,0,0,0-.14-.14h-3.3a.13.13,0,0,0-.14.14v1.56a.13.13,0,0,0,.14.14ZM69.19,18c0,.11,0,.16.14.16h3.28c.09,0,.14-.05.14-.16V16.28a.13.13,0,0,0-.14-.14H69.33a.13.13,0,0,0-.14.14Z" fill="none" stroke="#e90002" stroke-linejoin="round" stroke-width="8"/>
          <path id="Path_11348" data-name="Path 11348" d="M90.23,21a1.11,1.11,0,0,1-1.14,1.11h-.54a1.11,1.11,0,0,1-1.1-1.09v-.7a.05.05,0,0,0,0-.06h-.07a4.41,4.41,0,0,0-1.27,1,1.69,1.69,0,0,0-.4,1.09.93.93,0,0,0,.55.89,4.64,4.64,0,0,0,1.94.28,28,28,0,0,0,4.62-.41H93a.91.91,0,0,1,.59.21.88.88,0,0,1,.33.73v.8a1.34,1.34,0,0,1-.36.87,1.28,1.28,0,0,1-.83.4c-1.63.14-3.15.21-4.57.21q-5.61,0-5.61-3.48a4.05,4.05,0,0,1,.37-1.71A4.75,4.75,0,0,1,84,19.63a11.84,11.84,0,0,1,1.38-1.15,16.439,16.439,0,0,1,1.62-1c.1,0,.1-.09,0-.15A1.49,1.49,0,0,0,86,17a3.68,3.68,0,0,0-1.55.4,5.42,5.42,0,0,0-1.36.93c-.34.35-.72.8-1.15,1.33a1.12,1.12,0,0,1-.77.43H81a1.11,1.11,0,0,1-.69-.24l-.7-.52a.92.92,0,0,1-.39-.73v-.05a.93.93,0,0,1,.31-.71,17.28,17.28,0,0,0,3.32-4.18.053.053,0,1,0-.07-.08c-.66,0-1.33,0-2-.06a1.11,1.11,0,0,1-.8-.38,1.23,1.23,0,0,1-.33-.85v-.47a1.04,1.04,0,0,1,1.04-1.04h.09c.82.07,1.63.1,2.43.1h.62a.2.2,0,0,0,.2-.14c.06-.3.12-.59.17-.87a1.32,1.32,0,0,1,.43-.79,1.15,1.15,0,0,1,.74-.27h.1l.86.08a1,1,0,0,1,.74.41.89.89,0,0,1,.2.55,1,1,0,0,1,0,.25,2.341,2.341,0,0,1-.14.55.08.08,0,0,0,0,.08.06.06,0,0,0,.09,0c1.56-.09,2.92-.21,4.06-.37h.14a.93.93,0,0,1,.64.24.86.86,0,0,1,.34.74v.47a1.29,1.29,0,0,1-.34.88,1.23,1.23,0,0,1-.82.41c-1.61.17-3.31.29-5.09.37a.21.21,0,0,0-.22.13,8.7,8.7,0,0,1-.62,1.14v.07a.07.07,0,0,0,.06,0,8.6,8.6,0,0,1,1.82-.16A2.83,2.83,0,0,1,89.72,16a.15.15,0,0,0,.21.06c.28-.13.63-.3,1.08-.49l.92-.41,1.48-.67a1.15,1.15,0,0,1,.47-.11,1,1,0,0,1,.41.08,1.08,1.08,0,0,1,.62.6l.28.65a1.11,1.11,0,0,1,.08.41,1.17,1.17,0,0,1-.1.43,1.06,1.06,0,0,1-.63.56l-1.6.61q-1.31.48-2.64,1.05a.21.21,0,0,0-.13.22Z" fill="none" stroke="#e90002" stroke-linejoin="round" stroke-width="8"/>
          <path id="Path_11349" data-name="Path 11349" d="M12.88,40.71a.86.86,0,0,1,.28,0,.92.92,0,0,1,.54.18,1,1,0,0,1,.45.72l.06.31a1.8,1.8,0,0,1,0,.22,1.3,1.3,0,0,1-.21.7,1.34,1.34,0,0,1-.75.55l-.47.11a.19.19,0,0,0-.13.2V48a4.87,4.87,0,0,1-.2,1.54,1.8,1.8,0,0,1-.68.9A3.79,3.79,0,0,1,10,51a.25.25,0,0,1-.12,0,1.07,1.07,0,0,1-.74-.29,1.56,1.56,0,0,1-.51-.82l-.11-.47a.72.72,0,0,1,0-.5.8.8,0,0,1,.28-.4.81.81,0,0,1,.48-.15h.39a.3.3,0,0,0,.24-.07A.33.33,0,0,0,10,48V44.38a.1.1,0,0,0,0-.09.07.07,0,0,0-.09,0l-.38.09a1,1,0,0,1-.29,0,1.21,1.21,0,0,1-.57-.15,1,1,0,0,1-.48-.71L8,43a.87.87,0,0,1,0-.26,1,1,0,0,1,.2-.6,1.15,1.15,0,0,1,.72-.51l.44-.1.52-.12c.09,0,.13-.07.13-.17V38.48c0-.1,0-.15-.13-.15H9.29A1.11,1.11,0,0,1,8.47,38a1.14,1.14,0,0,1-.33-.82v-.36A1.14,1.14,0,0,1,8.47,36a1.11,1.11,0,0,1,.82-.33h.59c.09,0,.13-.05.13-.15V33.19A1.14,1.14,0,0,1,11.16,32h.36a1.14,1.14,0,0,1,.82.33,1.12,1.12,0,0,1,.33.82v2.33a.13.13,0,0,0,.15.15h.3a1.12,1.12,0,0,1,.82.33,1.14,1.14,0,0,1,.33.82v.36a1.14,1.14,0,0,1-.33.82,1.12,1.12,0,0,1-.82.33h-.3a.13.13,0,0,0-.15.15v2.13a.11.11,0,0,0,.05.1.1.1,0,0,0,.1,0Zm12.29-6.13a1.13,1.13,0,0,1,.81.33,1.09,1.09,0,0,1,.34.82V46a5,5,0,0,1-.19,1.53,1.69,1.69,0,0,1-.67.92,2.91,2.91,0,0,1-1.35.5H24a1.16,1.16,0,0,1-.71-.25,1.51,1.51,0,0,1-.52-.82c-.07-.21-.14-.42-.22-.63a.69.69,0,0,1,.08-.7.73.73,0,0,1,.61-.31h.07c.11,0,.18,0,.21-.07a.48.48,0,0,0,.05-.24V37.25c0-.09-.05-.13-.14-.13H22.08c-.1,0-.15,0-.15.13v12.6A1.14,1.14,0,0,1,20.77,51H20.3a1.144,1.144,0,0,1-1.15-1.15v-3a.064.064,0,0,0-.09-.09c-1.07.52-2.26,1.06-3.56,1.62a1.31,1.31,0,0,1-.47.09,1.33,1.33,0,0,1-.43-.07,1.2,1.2,0,0,1-.66-.63l-.26-.53a1.13,1.13,0,0,1-.09-.45,1.07,1.07,0,0,1,.07-.39,1,1,0,0,1,.63-.58l.12-.06a.18.18,0,0,0,.13-.2V35a.82.82,0,0,1,.8-.8.48.48,0,0,1,.2,0,.34.34,0,0,0,.23,0,20.34,20.34,0,0,0,2.11-1.51,1.47,1.47,0,0,1,.88-.29,1.32,1.32,0,0,1,.88.31l.69.61a.75.75,0,0,1,.25.55.65.65,0,0,1-.37.62h0Zm-7.62,10a1,1,0,0,1,.37-.08.89.89,0,0,1,.45.12,1,1,0,0,1,.53.64l.21.88h0V35.12a.07.07,0,0,0-.09,0c-.6.32-1.15.6-1.64.84a.22.22,0,0,0-.14.22v8.38a.1.1,0,0,0,0,.09.11.11,0,0,0,.1,0Z" fill="none" stroke="#e90002" stroke-linejoin="round" stroke-width="8"/>
          <path id="Path_11350" data-name="Path 11350" d="M40,37.62h.37a2,2,0,0,1,1.53.64l.19.23a1,1,0,0,1,.28.69.5.5,0,0,1,0,.12,1.09,1.09,0,0,1-.41.76l-.28.21a.81.81,0,0,0-.19.18,34.544,34.544,0,0,0-2.87,2.56.06.06,0,0,0,0,.07l.07.06a2.64,2.64,0,0,1,.6.2,2.15,2.15,0,0,1,1,1.31c.06.17.15.43.26.79s.19.61.24.75A1.15,1.15,0,0,0,42,47a23.088,23.088,0,0,0,2.83-.16h.11a.92.92,0,0,1,.65.26.82.82,0,0,1,.29.74v.84a1.34,1.34,0,0,1-.38.87,1.29,1.29,0,0,1-.85.4c-1.08.09-2,.14-2.83.14a5.71,5.71,0,0,1-2.37-.39,2.26,2.26,0,0,1-1.2-1.31,19,19,0,0,1-.55-1.84c-.18-.6-.51-.9-1-.9-.24,0-.64.28-1.17.84-.74.78-1.59,1.76-2.54,2.93a1.17,1.17,0,0,1-.8.45H32a1.27,1.27,0,0,1-.69-.21l-.92-.65a.86.86,0,0,1-.39-.74.88.88,0,0,1,.32-.67c.24-.22.48-.44.7-.68q4.54-4.53,6.05-6.19v-.06a.05.05,0,0,0-.06,0c-.89,0-2.24.12-4,.28l-.64.07H32.1a1.17,1.17,0,0,1-.66-.21,1,1,0,0,1-.41-.74l-.08-1a.89.89,0,0,1,.27-.76A1,1,0,0,1,32,38h.88c.61,0,1.74,0,3.38-.11s2.85-.16,3.62-.27Zm-5.54-2a1,1,0,0,1-.75-.45,1.07,1.07,0,0,1-.21-.64,1.8,1.8,0,0,1,0-.22l.08-.48a1.09,1.09,0,0,1,.47-.77,1.16,1.16,0,0,1,.68-.21h.18q2.74.39,5.93.66a1.11,1.11,0,0,1,.76.41,1,1,0,0,1,.24.67.77.77,0,0,1,0,.15l-.06.51a1.17,1.17,0,0,1-.45.8,1.19,1.19,0,0,1-.74.26h-.12c-2.11-.16-4.11-.38-6.06-.66Z" fill="none" stroke="#e90002" stroke-linejoin="round" stroke-width="8"/>
          <path id="Path_11351" data-name="Path 11351" d="M51.3,37.72a1.11,1.11,0,0,1,.39-.76,1,1,0,0,1,.67-.25.39.39,0,0,1,.15,0l.94.11a1.09,1.09,0,0,1,.92,1.08,1.83,1.83,0,0,1,0,.21c-.21,1.06-.36,2-.45,2.87a.08.08,0,0,0,0,.07H54a10.08,10.08,0,0,1,5.35-1.5,7.38,7.38,0,0,1,2.46.39A4.85,4.85,0,0,1,63.64,41a5,5,0,0,1,1.09,1.52,4.25,4.25,0,0,1,.38,1.76,6.51,6.51,0,0,1-.31,2A4.88,4.88,0,0,1,63.74,48a5.72,5.72,0,0,1-1.9,1.33,10.75,10.75,0,0,1-2.94.78,19.709,19.709,0,0,1-2.64.16H54.84a1.5,1.5,0,0,1-.92-.35,1.52,1.52,0,0,1-.55-.82l-.29-.94a.62.62,0,0,1,0-.23.61.61,0,0,1,.19-.45.74.74,0,0,1,.57-.27h.1a20.221,20.221,0,0,0,2.24.13,9.62,9.62,0,0,0,3.54-.56,2.7,2.7,0,0,0,2-2.54,1.7,1.7,0,0,0-.74-1.4,3.12,3.12,0,0,0-1.92-.56,7.64,7.64,0,0,0-2.9.56A5.54,5.54,0,0,0,54,44.42l-.22.28a2,2,0,0,1-.8.6,1.37,1.37,0,0,1-.58.14,1.86,1.86,0,0,1-.34,0l-.5-.14a1.213,1.213,0,0,1-.94-1.19V43.9Q51.06,40.83,51.3,37.72ZM54.52,36a1.12,1.12,0,0,1-.72-.52,1.2,1.2,0,0,1-.16-.57,1.55,1.55,0,0,1,0-.29l.18-.65a1.07,1.07,0,0,1,.53-.7,1.18,1.18,0,0,1,.58-.16,1.77,1.77,0,0,1,.3,0q2.43.59,5.82,1.1a.99.99,0,0,1,.89.99,1.32,1.32,0,0,1,0,.28l-.17.72a1.2,1.2,0,0,1-.53.74,1.18,1.18,0,0,1-.66.22h-.22C58.59,36.84,56.63,36.45,54.52,36Z" fill="none" stroke="#e90002" stroke-linejoin="round" stroke-width="8"/>
          <path id="Path_11352" data-name="Path 11352" d="M85.62,45.59a.58.58,0,0,1,.37-.13.61.61,0,0,1,.25.06.52.52,0,0,1,.37.48l.14,1.08v.25a2.07,2.07,0,0,1-.16.82,1.38,1.38,0,0,1-.64.74,5.52,5.52,0,0,1-2.85.75,2.38,2.38,0,0,1-1.93-.88,3.75,3.75,0,0,1-.71-2.4,25.45,25.45,0,0,1,.34-3.43,25.889,25.889,0,0,0,.34-3.14,1.45,1.45,0,0,0-.31-1,1.1,1.1,0,0,0-.88-.35,4,4,0,0,0-2.21,1,17.661,17.661,0,0,0-2.59,2.39.32.32,0,0,0-.1.25c0,.25,0,.61,0,1.09,0,2.3,0,4.07.14,5.34v.56a.3.3,0,0,1,0,.1,1.04,1.04,0,0,1-1.06,1.03h-1a1.11,1.11,0,0,1-.8-.33A1.13,1.13,0,0,1,72.1,49v-.53c0-1.31,0-2.42.06-3.34H72.1c-.17.27-.41.62-.72,1.08l-.63.92a.74.74,0,0,1-.65.35.79.79,0,0,1-.67-.33l-.53-.76a1.56,1.56,0,0,1-.28-.88,1.48,1.48,0,0,1,.34-1q2-2.58,3.36-4.47a.48.48,0,0,0,.07-.26l.06-.78a.11.11,0,0,0,0-.1.09.09,0,0,0-.08,0l-2.19.28H70a1.11,1.11,0,0,1-.68-.24,1,1,0,0,1-.41-.76l-.08-.78v-.1a1,1,0,0,1,.27-.68,1.09,1.09,0,0,1,.77-.35h.82c.73-.07,1.34-.14,1.85-.22a.17.17,0,0,0,.16-.15v-2a1.1,1.1,0,0,1,.3-.77,1,1,0,0,1,.71-.32h1.17a.92.92,0,0,1,.75.37,1,1,0,0,1,.21.61.88.88,0,0,1,0,.17c-.06.46-.14,1-.21,1.56a.34.34,0,0,0,0,.26,1.43,1.43,0,0,1,.32.92,1.49,1.49,0,0,1-.28.88c-.2.31-.35.52-.43.62a.08.08,0,0,0,0,.05h0q3.27-2.72,5.53-2.72a3.33,3.33,0,0,1,2.48.86,3,3,0,0,1,.84,2.21,28.881,28.881,0,0,1-.31,3.41,28.7,28.7,0,0,0-.31,3.41.69.69,0,0,0,.16.49.64.64,0,0,0,.46.17A2.73,2.73,0,0,0,85.62,45.59Z" fill="none" stroke="#e90002" stroke-linejoin="round" stroke-width="8"/>
          <path id="Path_11353" data-name="Path 11353" d="M100.56,33.54h.23a1.85,1.85,0,0,1,.78.16,1.76,1.76,0,0,1,.79.6l.15.24a1.08,1.08,0,0,1,.2.6,1.939,1.939,0,0,1,0,.24,1.12,1.12,0,0,1-.49.72l-.55.35c-.32.22-.69.49-1.09.79l-1.64,1.27-1.1.87h0a7.649,7.649,0,0,1,1.23-.1,6.46,6.46,0,0,1,4.33,1.48,4.64,4.64,0,0,1,1.75,3.68,5.7,5.7,0,0,1-.44,2.24,5.38,5.38,0,0,1-1.31,1.83,6,6,0,0,1-2.3,1.27,10.83,10.83,0,0,1-3.32.46,6.64,6.64,0,0,1-3.64-.94,2.87,2.87,0,0,1-1.47-2.54,3.11,3.11,0,0,1,1.1-2.35,3.94,3.94,0,0,1,2.75-1,4.56,4.56,0,0,1,2.85.87,3.86,3.86,0,0,1,1.44,2.28.06.06,0,0,0,0,.06H101a2.64,2.64,0,0,0,1-2.21,2.32,2.32,0,0,0-1.11-2,4.8,4.8,0,0,0-2.79-.76,6.48,6.48,0,0,0-3.26.83A11.73,11.73,0,0,0,92,44.89a1,1,0,0,1-.76.37h-.06a1,1,0,0,1-.72-.31l-.58-.61a1,1,0,0,1-.3-.72,1.05,1.05,0,0,1,.39-.84c.45-.36,1.13-.93,2-1.69s1.53-1.26,1.83-1.49l1.8-1.47c1-.77,1.61-1.31,2-1.64a.09.09,0,0,0,0-.07q-2.34.06-4,.18h-.75a1.089,1.089,0,0,1-1.07-1.04v-.8a1,1,0,0,1,.31-.76,1.08,1.08,0,0,1,.74-.29h.94q4.31,0,6.19-.18.3.02.6.01ZM97.2,47.59h.74a.129.129,0,0,0,.14-.16,2.2,2.2,0,0,0-.51-1.21,1.31,1.31,0,0,0-1-.45,1.13,1.13,0,0,0-.74.23.71.71,0,0,0-.27.55.86.86,0,0,0,.46.76,2.13,2.13,0,0,0,1.18.28Z" fill="none" stroke="#e90002" stroke-linejoin="round" stroke-width="8"/>
          <path id="Path_11354" data-name="Path 11354" d="M119.14,48.73a2.65,2.65,0,0,1-3.38,0,2,2,0,0,1-.67-1.57,2.09,2.09,0,0,1,.67-1.58,2.58,2.58,0,0,1,3.38,0,2.1,2.1,0,0,1,.68,1.58,2,2,0,0,1-.68,1.57Zm-1.76-4.93a1.23,1.23,0,0,1-.88-.34,1.25,1.25,0,0,1-.43-.82l-.67-5.17-.08-2.17a1.08,1.08,0,0,1,.31-.81,1,1,0,0,1,.79-.34h2.09a1,1,0,0,1,.79.34,1.17,1.17,0,0,1,.32.81l-.1,2.17-.66,5.17a1.25,1.25,0,0,1-.43.82,1.22,1.22,0,0,1-.86.34Z" fill="none" stroke="#e90002" stroke-linejoin="round" stroke-width="8"/>
          <path id="Path_11355" data-name="Path 11355" d="M54.41,22.77a1.1,1.1,0,0,1-.34.81,1.12,1.12,0,0,1-.82.34h-1q1.89.66,3.42,1.29a.43.43,0,0,1,.29.44.42.42,0,0,1-.29.43l-1.16.49a2.4,2.4,0,0,1-.93.2,2.59,2.59,0,0,1-1.16-.29c-.92-.45-1.94-.88-3-1.29a.52.52,0,0,1-.35-.47.49.49,0,0,1,.25-.53l.41-.25H45.21l.35.15a.57.57,0,0,1,.35.55.52.52,0,0,1-.31.49,27.131,27.131,0,0,1-4.2,1.62,2,2,0,0,1-.49.06,1.81,1.81,0,0,1-.51-.08,1.87,1.87,0,0,1-.88-.53c-.15-.17-.31-.32-.46-.47a.5.5,0,0,1-.16-.56.51.51,0,0,1,.43-.39,24.72,24.72,0,0,0,3.4-.86H42a1.16,1.16,0,0,1-1.16-1.15V18.29c0-.09,0-.13-.13-.11h-.26a1.41,1.41,0,0,1-.68-.18,1.78,1.78,0,0,1-.74-.7,2.2,2.2,0,0,0-.18-.28.7.7,0,0,1-.12-.37.78.78,0,0,1,.59-.7,8.89,8.89,0,0,0,3.4-1,.05.05,0,0,0,0-.05h-1a.16.16,0,0,1-.19.1L40,14.93a.76.76,0,0,1-.66-.37.82.82,0,0,1-.14-.45.89.89,0,0,1,.06-.31c.19-.52.39-1.08.59-1.68a1.51,1.51,0,0,1,.54-.8,1.48,1.48,0,0,1,.92-.31h2.42c.11,0,.16,0,.16-.14v-.31a.14.14,0,0,0-.16-.16H40.34a.81.81,0,0,1-.57-.23.83.83,0,0,1,.57-1.41h3.48c.07,0,.1,0,.1-.08a.64.64,0,0,1,.19-.47A.62.62,0,0,1,44.58,8h1.27a.64.64,0,0,1,.49.21.65.65,0,0,1,.2.47c0,.06,0,.08.07.08h1.6c.06,0,.08,0,.08-.08a.65.65,0,0,1,.2-.47A.64.64,0,0,1,49,8h1.38a.61.61,0,0,1,.47.21.65.65,0,0,1,.2.47c0,.06,0,.08.09.08H54a1.15,1.15,0,0,1,.82.34,1.13,1.13,0,0,1,.33.81V11.5a1.13,1.13,0,0,1-.33.81,1.15,1.15,0,0,1-.82.34H51.18a.13.13,0,0,0-.15.15v.3a.13.13,0,0,0,.15.15h4.14a1.05,1.05,0,0,1,.8.34,1,1,0,0,1,.3.72,3.47,3.47,0,0,1-.53,2.19,1.86,1.86,0,0,1-1.25.54h-.08c-.1,0-.15.05-.15.16ZM42.49,12.65a.16.16,0,0,0-.17.14l-.12.33a.064.064,0,0,0,.09.09h1.38a.16.16,0,0,0,.18-.15v-.3c0-.12,0-.15-.14-.15Zm9,5.17a.14.14,0,0,0-.16-.15H43.76a.13.13,0,0,0-.15.15v.26a.13.13,0,0,0,.15.15H51.3a.14.14,0,0,0,.16-.15Zm0,2c0-.1-.06-.14-.16-.14H43.76c-.1,0-.15,0-.15.14v.27c0,.09,0,.14.15.14H51.3c.1,0,.16-.05.16-.14Zm0,2c0-.09-.06-.14-.16-.14H43.76c-.1,0-.15.05-.15.14v.29a.14.14,0,0,0,.15.16H51.3a.15.15,0,0,0,.16-.16ZM48.29,15c0-.09,0-.14-.13-.14H46.3a.24.24,0,0,0-.21.14,4.66,4.66,0,0,1-.59,1s0,0,0,.06a.07.07,0,0,0,.06,0h2.62c.09,0,.13-.05.13-.14Zm-.13-1.78c.09,0,.13-.05.13-.15v-.3c0-.1,0-.15-.13-.15H46.67c-.09,0-.13,0-.13.14v.16a1,1,0,0,0,0,.15c0,.1,0,.15.13.15ZM46.67,10.4c-.09,0-.13,0-.13.16v.31c0,.09,0,.14.13.14h1.49c.09,0,.13,0,.13-.14v-.31c0-.11,0-.16-.13-.16Zm5.88.16c0-.11,0-.16-.14-.16H51.18c-.1,0-.15,0-.15.16v.31c0,.09,0,.14.15.14h1.23a.13.13,0,0,0,.14-.14ZM53.62,15a.09.09,0,0,0,0-.1.18.18,0,0,0-.1,0H51.18c-.1,0-.15,0-.15.14V16c0,.09,0,.14.15.14h1.2s.07,0,0-.08a.41.41,0,0,1,.06-.4.39.39,0,0,1,.37-.17h.28a.75.75,0,0,0,.29,0,.42.42,0,0,0,.16-.23Z" fill="#fff"/>
          <path id="Path_11356" data-name="Path 11356" d="M74.5,8.86a1.07,1.07,0,0,1,.81.34,1.11,1.11,0,0,1,.35.81V23.29A4.34,4.34,0,0,1,75.38,25a1.93,1.93,0,0,1-.92.95,7.23,7.23,0,0,1-2.77.49h0a1.21,1.21,0,0,1-.82-.32,1.56,1.56,0,0,1-.54-.82c-.06-.19-.12-.39-.2-.58a.66.66,0,0,1-.06-.27.7.7,0,0,1,.14-.41.65.65,0,0,1,.58-.34h1.49c.32,0,.49-.15.49-.47V21c0-.11,0-.16-.14-.16h-3.3c-.09,0-.14,0-.14.16v4.12A1.16,1.16,0,0,1,68,26.28h-.63a1.1,1.1,0,0,1-.81-.34,1.14,1.14,0,0,1-.34-.81V21c0-.11,0-.16-.14-.16H62.8a.15.15,0,0,0-.17.14,12.12,12.12,0,0,1-1.8,4.78.87.87,0,0,1-.74.39h0a1,1,0,0,1-.76-.29l-.33-.2-.26-.22a1.13,1.13,0,0,1-.43-.72,1.359,1.359,0,0,1,0-.2,1.09,1.09,0,0,1,.2-.62,7.5,7.5,0,0,0,.58-1,9.88,9.88,0,0,0,.71-2.35c.14-.84.23-1.58.28-2.23s.07-1.4.07-2.27V10A1.16,1.16,0,0,1,61.3,8.86ZM63,18c0,.11.05.16.14.16h3c.1,0,.14-.05.14-.16V16.28a.12.12,0,0,0-.14-.14H63.2a.14.14,0,0,0-.16.16C63,16.82,63,17.38,63,18Zm3.28-6.21a.12.12,0,0,0-.14-.14H63.2c-.11,0-.16.05-.16.14v1.56c0,.09.05.14.16.14h2.92a.12.12,0,0,0,.14-.14Zm6.35,1.7a.13.13,0,0,0,.14-.14v-1.6a.13.13,0,0,0-.14-.14h-3.3a.13.13,0,0,0-.14.14v1.56a.13.13,0,0,0,.14.14ZM69.19,18c0,.11,0,.16.14.16h3.28c.09,0,.14-.05.14-.16V16.28a.13.13,0,0,0-.14-.14H69.33a.13.13,0,0,0-.14.14Z" fill="#fff"/>
          <path id="Path_11357" data-name="Path 11357" d="M90.23,21a1.11,1.11,0,0,1-1.14,1.11h-.54a1.11,1.11,0,0,1-1.1-1.09v-.7a.05.05,0,0,0,0-.06h-.07a4.41,4.41,0,0,0-1.27,1,1.69,1.69,0,0,0-.4,1.09.93.93,0,0,0,.55.89,4.64,4.64,0,0,0,1.94.28,28,28,0,0,0,4.62-.41H93a.91.91,0,0,1,.59.21.88.88,0,0,1,.33.73v.8a1.34,1.34,0,0,1-.36.87,1.28,1.28,0,0,1-.83.4c-1.63.14-3.15.21-4.57.21q-5.61,0-5.61-3.48a4.05,4.05,0,0,1,.37-1.71A4.75,4.75,0,0,1,84,19.63a11.84,11.84,0,0,1,1.38-1.15,16.439,16.439,0,0,1,1.62-1c.1,0,.1-.09,0-.15A1.49,1.49,0,0,0,86,17a3.68,3.68,0,0,0-1.55.4,5.42,5.42,0,0,0-1.36.93c-.34.35-.72.8-1.15,1.33a1.12,1.12,0,0,1-.77.43H81a1.11,1.11,0,0,1-.69-.24l-.7-.52a.92.92,0,0,1-.39-.73v-.05a.93.93,0,0,1,.31-.71,17.28,17.28,0,0,0,3.32-4.18.053.053,0,1,0-.07-.08c-.66,0-1.33,0-2-.06a1.11,1.11,0,0,1-.8-.38,1.23,1.23,0,0,1-.33-.85v-.47a1.04,1.04,0,0,1,1.04-1.04h.09c.82.07,1.63.1,2.43.1h.62a.2.2,0,0,0,.2-.14c.06-.3.12-.59.17-.87a1.32,1.32,0,0,1,.43-.79,1.15,1.15,0,0,1,.74-.27h.1l.86.08a1,1,0,0,1,.74.41.89.89,0,0,1,.2.55,1,1,0,0,1,0,.25,2.341,2.341,0,0,1-.14.55.08.08,0,0,0,0,.08.06.06,0,0,0,.09,0c1.56-.09,2.92-.21,4.06-.37h.14a.93.93,0,0,1,.64.24.86.86,0,0,1,.34.74v.47a1.29,1.29,0,0,1-.34.88,1.23,1.23,0,0,1-.82.41c-1.61.17-3.31.29-5.09.37a.21.21,0,0,0-.22.13,8.7,8.7,0,0,1-.62,1.14v.07a.07.07,0,0,0,.06,0,8.6,8.6,0,0,1,1.82-.16A2.83,2.83,0,0,1,89.72,16a.15.15,0,0,0,.21.06c.28-.13.63-.3,1.08-.49l.92-.41,1.48-.67a1.15,1.15,0,0,1,.47-.11,1,1,0,0,1,.41.08,1.08,1.08,0,0,1,.62.6l.28.65a1.11,1.11,0,0,1,.08.41,1.17,1.17,0,0,1-.1.43,1.06,1.06,0,0,1-.63.56l-1.6.61q-1.31.48-2.64,1.05a.21.21,0,0,0-.13.22Z" fill="#fff"/>
          <path id="Path_11358" data-name="Path 11358" d="M12.88,40.71a.86.86,0,0,1,.28,0,.92.92,0,0,1,.54.18,1,1,0,0,1,.45.72l.06.31a1.8,1.8,0,0,1,0,.22,1.3,1.3,0,0,1-.21.7,1.34,1.34,0,0,1-.75.55l-.47.11a.19.19,0,0,0-.13.2V48a4.87,4.87,0,0,1-.2,1.54,1.8,1.8,0,0,1-.68.9A3.79,3.79,0,0,1,10,51a.25.25,0,0,1-.12,0,1.07,1.07,0,0,1-.74-.29,1.56,1.56,0,0,1-.51-.82l-.11-.47a.72.72,0,0,1,0-.5.8.8,0,0,1,.28-.4.81.81,0,0,1,.48-.15h.39a.3.3,0,0,0,.24-.07A.33.33,0,0,0,10,48V44.38a.1.1,0,0,0,0-.09.07.07,0,0,0-.09,0l-.38.09a1,1,0,0,1-.29,0,1.21,1.21,0,0,1-.57-.15,1,1,0,0,1-.48-.71L8,43a.87.87,0,0,1,0-.26,1,1,0,0,1,.2-.6,1.15,1.15,0,0,1,.72-.51l.44-.1.52-.12c.09,0,.13-.07.13-.17V38.48c0-.1,0-.15-.13-.15H9.29A1.11,1.11,0,0,1,8.47,38a1.14,1.14,0,0,1-.33-.82v-.36A1.14,1.14,0,0,1,8.47,36a1.11,1.11,0,0,1,.82-.33h.59c.09,0,.13-.05.13-.15V33.19A1.14,1.14,0,0,1,11.16,32h.36a1.14,1.14,0,0,1,.82.33,1.12,1.12,0,0,1,.33.82v2.33a.13.13,0,0,0,.15.15h.3a1.12,1.12,0,0,1,.82.33,1.14,1.14,0,0,1,.33.82v.36a1.14,1.14,0,0,1-.33.82,1.12,1.12,0,0,1-.82.33h-.3a.13.13,0,0,0-.15.15v2.13a.11.11,0,0,0,.05.1.1.1,0,0,0,.1,0Zm12.29-6.13a1.13,1.13,0,0,1,.81.33,1.09,1.09,0,0,1,.34.82V46a5,5,0,0,1-.19,1.53,1.69,1.69,0,0,1-.67.92,2.91,2.91,0,0,1-1.35.5H24a1.16,1.16,0,0,1-.71-.25,1.51,1.51,0,0,1-.52-.82c-.07-.21-.14-.42-.22-.63a.69.69,0,0,1,.08-.7.73.73,0,0,1,.61-.31h.07c.11,0,.18,0,.21-.07a.48.48,0,0,0,.05-.24V37.25c0-.09-.05-.13-.14-.13H22.08c-.1,0-.15,0-.15.13v12.6A1.14,1.14,0,0,1,20.77,51H20.3a1.144,1.144,0,0,1-1.15-1.15v-3a.064.064,0,0,0-.09-.09c-1.07.52-2.26,1.06-3.56,1.62a1.31,1.31,0,0,1-.47.09,1.33,1.33,0,0,1-.43-.07,1.2,1.2,0,0,1-.66-.63l-.26-.53a1.13,1.13,0,0,1-.09-.45,1.07,1.07,0,0,1,.07-.39,1,1,0,0,1,.63-.58l.12-.06a.18.18,0,0,0,.13-.2V35a.82.82,0,0,1,.8-.8.48.48,0,0,1,.2,0,.34.34,0,0,0,.23,0,20.34,20.34,0,0,0,2.11-1.51,1.47,1.47,0,0,1,.88-.29,1.32,1.32,0,0,1,.88.31l.69.61a.75.75,0,0,1,.25.55.65.65,0,0,1-.37.62h0Zm-7.62,10a1,1,0,0,1,.37-.08.89.89,0,0,1,.45.12,1,1,0,0,1,.53.64l.21.88h0V35.12a.07.07,0,0,0-.09,0c-.6.32-1.15.6-1.64.84a.22.22,0,0,0-.14.22v8.38a.1.1,0,0,0,0,.09.11.11,0,0,0,.1,0Z" fill="#fff"/>
          <path id="Path_11359" data-name="Path 11359" d="M40,37.62h.37a2,2,0,0,1,1.53.64l.19.23a1,1,0,0,1,.28.69.5.5,0,0,1,0,.12,1.09,1.09,0,0,1-.41.76l-.28.21a.81.81,0,0,0-.19.18,34.544,34.544,0,0,0-2.87,2.56.06.06,0,0,0,0,.07l.07.06a2.64,2.64,0,0,1,.6.2,2.15,2.15,0,0,1,1,1.31c.06.17.15.43.26.79s.19.61.24.75A1.15,1.15,0,0,0,42,47a23.088,23.088,0,0,0,2.83-.16h.11a.92.92,0,0,1,.65.26.82.82,0,0,1,.29.74v.84a1.34,1.34,0,0,1-.38.87,1.29,1.29,0,0,1-.85.4c-1.08.09-2,.14-2.83.14a5.71,5.71,0,0,1-2.37-.39,2.26,2.26,0,0,1-1.2-1.31,19,19,0,0,1-.55-1.84c-.18-.6-.51-.9-1-.9-.24,0-.64.28-1.17.84-.74.78-1.59,1.76-2.54,2.93a1.17,1.17,0,0,1-.8.45H32a1.27,1.27,0,0,1-.69-.21l-.92-.65a.86.86,0,0,1-.39-.74.88.88,0,0,1,.32-.67c.24-.22.48-.44.7-.68q4.54-4.53,6.05-6.19v-.06a.05.05,0,0,0-.06,0c-.89,0-2.24.12-4,.28l-.64.07H32.1a1.17,1.17,0,0,1-.66-.21,1,1,0,0,1-.41-.74l-.08-1a.89.89,0,0,1,.27-.76A1,1,0,0,1,32,38h.88c.61,0,1.74,0,3.38-.11s2.85-.16,3.62-.27Zm-5.54-2a1,1,0,0,1-.75-.45,1.07,1.07,0,0,1-.21-.64,1.8,1.8,0,0,1,0-.22l.08-.48a1.09,1.09,0,0,1,.47-.77,1.16,1.16,0,0,1,.68-.21h.18q2.74.39,5.93.66a1.11,1.11,0,0,1,.76.41,1,1,0,0,1,.24.67.77.77,0,0,1,0,.15l-.06.51a1.17,1.17,0,0,1-.45.8,1.19,1.19,0,0,1-.74.26h-.12c-2.11-.16-4.11-.38-6.06-.66Z" fill="#fff"/>
          <path id="Path_11360" data-name="Path 11360" d="M51.3,37.72a1.11,1.11,0,0,1,.39-.76,1,1,0,0,1,.67-.25.39.39,0,0,1,.15,0l.94.11a1.09,1.09,0,0,1,.92,1.08,1.83,1.83,0,0,1,0,.21c-.21,1.06-.36,2-.45,2.87a.08.08,0,0,0,0,.07H54a10.08,10.08,0,0,1,5.35-1.5,7.38,7.38,0,0,1,2.46.39A4.85,4.85,0,0,1,63.64,41a5,5,0,0,1,1.09,1.52,4.25,4.25,0,0,1,.38,1.76,6.51,6.51,0,0,1-.31,2A4.88,4.88,0,0,1,63.74,48a5.72,5.72,0,0,1-1.9,1.33,10.75,10.75,0,0,1-2.94.78,19.709,19.709,0,0,1-2.64.16H54.84a1.5,1.5,0,0,1-.92-.35,1.52,1.52,0,0,1-.55-.82l-.29-.94a.62.62,0,0,1,0-.23.61.61,0,0,1,.19-.45.74.74,0,0,1,.57-.27h.1a20.221,20.221,0,0,0,2.24.13,9.62,9.62,0,0,0,3.54-.56,2.7,2.7,0,0,0,2-2.54,1.7,1.7,0,0,0-.74-1.4,3.12,3.12,0,0,0-1.92-.56,7.64,7.64,0,0,0-2.9.56A5.54,5.54,0,0,0,54,44.42l-.22.28a2,2,0,0,1-.8.6,1.37,1.37,0,0,1-.58.14,1.86,1.86,0,0,1-.34,0l-.5-.14a1.213,1.213,0,0,1-.94-1.19V43.9Q51.06,40.83,51.3,37.72ZM54.52,36a1.12,1.12,0,0,1-.72-.52,1.2,1.2,0,0,1-.16-.57,1.55,1.55,0,0,1,0-.29l.18-.65a1.07,1.07,0,0,1,.53-.7,1.18,1.18,0,0,1,.58-.16,1.77,1.77,0,0,1,.3,0q2.43.59,5.82,1.1a.99.99,0,0,1,.89.99,1.32,1.32,0,0,1,0,.28l-.17.72a1.2,1.2,0,0,1-.53.74,1.18,1.18,0,0,1-.66.22h-.22C58.59,36.84,56.63,36.45,54.52,36Z" fill="#fff"/>
          <path id="Path_11361" data-name="Path 11361" d="M85.62,45.59a.58.58,0,0,1,.37-.13.61.61,0,0,1,.25.06.52.52,0,0,1,.37.48l.14,1.08v.25a2.07,2.07,0,0,1-.16.82,1.38,1.38,0,0,1-.64.74,5.52,5.52,0,0,1-2.85.75,2.38,2.38,0,0,1-1.93-.88,3.75,3.75,0,0,1-.71-2.4,25.45,25.45,0,0,1,.34-3.43,25.889,25.889,0,0,0,.34-3.14,1.45,1.45,0,0,0-.31-1,1.1,1.1,0,0,0-.88-.35,4,4,0,0,0-2.21,1,17.661,17.661,0,0,0-2.59,2.39.32.32,0,0,0-.1.25c0,.25,0,.61,0,1.09,0,2.3,0,4.07.14,5.34v.56a.3.3,0,0,1,0,.1,1.04,1.04,0,0,1-1.06,1.03h-1a1.11,1.11,0,0,1-.8-.33A1.13,1.13,0,0,1,72.1,49v-.53c0-1.31,0-2.42.06-3.34H72.1c-.17.27-.41.62-.72,1.08l-.63.92a.74.74,0,0,1-.65.35.79.79,0,0,1-.67-.33l-.53-.76a1.56,1.56,0,0,1-.28-.88,1.48,1.48,0,0,1,.34-1q2-2.58,3.36-4.47a.48.48,0,0,0,.07-.26l.06-.78a.11.11,0,0,0,0-.1.09.09,0,0,0-.08,0l-2.19.28H70a1.11,1.11,0,0,1-.68-.24,1,1,0,0,1-.41-.76l-.08-.78v-.1a1,1,0,0,1,.27-.68,1.09,1.09,0,0,1,.77-.35h.82c.73-.07,1.34-.14,1.85-.22a.17.17,0,0,0,.16-.15v-2a1.1,1.1,0,0,1,.3-.77,1,1,0,0,1,.71-.32h1.17a.92.92,0,0,1,.75.37,1,1,0,0,1,.21.61.88.88,0,0,1,0,.17c-.06.46-.14,1-.21,1.56a.34.34,0,0,0,0,.26,1.43,1.43,0,0,1,.32.92,1.49,1.49,0,0,1-.28.88c-.2.31-.35.52-.43.62a.08.08,0,0,0,0,.05h0q3.27-2.72,5.53-2.72a3.33,3.33,0,0,1,2.48.86,3,3,0,0,1,.84,2.21,28.881,28.881,0,0,1-.31,3.41,28.7,28.7,0,0,0-.31,3.41.69.69,0,0,0,.16.49.64.64,0,0,0,.46.17A2.73,2.73,0,0,0,85.62,45.59Z" fill="#fff"/>
          <path id="Path_11362" data-name="Path 11362" d="M100.56,33.54h.23a1.85,1.85,0,0,1,.78.16,1.76,1.76,0,0,1,.79.6l.15.24a1.08,1.08,0,0,1,.2.6,1.939,1.939,0,0,1,0,.24,1.12,1.12,0,0,1-.49.72l-.55.35c-.32.22-.69.49-1.09.79l-1.64,1.27-1.1.87h0a7.649,7.649,0,0,1,1.23-.1,6.46,6.46,0,0,1,4.33,1.48,4.64,4.64,0,0,1,1.75,3.68,5.7,5.7,0,0,1-.44,2.24,5.38,5.38,0,0,1-1.31,1.83,6,6,0,0,1-2.3,1.27,10.83,10.83,0,0,1-3.32.46,6.64,6.64,0,0,1-3.64-.94,2.87,2.87,0,0,1-1.47-2.54,3.11,3.11,0,0,1,1.1-2.35,3.94,3.94,0,0,1,2.75-1,4.56,4.56,0,0,1,2.85.87,3.86,3.86,0,0,1,1.44,2.28.06.06,0,0,0,0,.06H101a2.64,2.64,0,0,0,1-2.21,2.32,2.32,0,0,0-1.11-2,4.8,4.8,0,0,0-2.79-.76,6.48,6.48,0,0,0-3.26.83A11.73,11.73,0,0,0,92,44.89a1,1,0,0,1-.76.37h-.06a1,1,0,0,1-.72-.31l-.58-.61a1,1,0,0,1-.3-.72,1.05,1.05,0,0,1,.39-.84c.45-.36,1.13-.93,2-1.69s1.53-1.26,1.83-1.49l1.8-1.47c1-.77,1.61-1.31,2-1.64a.09.09,0,0,0,0-.07q-2.34.06-4,.18h-.75a1.089,1.089,0,0,1-1.07-1.04v-.8a1,1,0,0,1,.31-.76,1.08,1.08,0,0,1,.74-.29h.94q4.31,0,6.19-.18.3.02.6.01ZM97.2,47.59h.74a.129.129,0,0,0,.14-.16,2.2,2.2,0,0,0-.51-1.21,1.31,1.31,0,0,0-1-.45,1.13,1.13,0,0,0-.74.23.71.71,0,0,0-.27.55.86.86,0,0,0,.46.76,2.13,2.13,0,0,0,1.18.28Z" fill="#fff"/>
          <path id="Path_11363" data-name="Path 11363" d="M119.14,48.73a2.65,2.65,0,0,1-3.38,0,2,2,0,0,1-.67-1.57,2.09,2.09,0,0,1,.67-1.58,2.58,2.58,0,0,1,3.38,0,2.1,2.1,0,0,1,.68,1.58,2,2,0,0,1-.68,1.57Zm-1.76-4.93a1.23,1.23,0,0,1-.88-.34,1.25,1.25,0,0,1-.43-.82l-.67-5.17-.08-2.17a1.08,1.08,0,0,1,.31-.81,1,1,0,0,1,.79-.34h2.09a1,1,0,0,1,.79.34,1.17,1.17,0,0,1,.32.81l-.1,2.17-.66,5.17a1.25,1.25,0,0,1-.43.82,1.22,1.22,0,0,1-.86.34Z" fill="#fff"/>
        </g>
      </g>
    </g>
  </g>
</svg>
