<svg xmlns="http://www.w3.org/2000/svg" width="53.387" height="53.971" viewBox="0 0 53.387 53.971">
  <g id="Group_2907" data-name="Group 2907" transform="translate(-1129.512 -4115.081)">
    <path id="Path_10871" data-name="Path 10871" d="M1211.242,3177.747a.677.677,0,0,1-.676-.677v-1.948a17.7,17.7,0,0,0-35.393,0v1.948a.676.676,0,1,1-1.353,0v-1.948a19.022,19.022,0,0,1,38.045,0v1.948A.676.676,0,0,1,1211.242,3177.747Z" transform="translate(-36.65 958.98)" fill="#e22726"/>
    <path id="Path_10872" data-name="Path 10872" d="M1188.813,3225.072c-8.226,0-14.882-6.271-14.882-13.976a.676.676,0,1,1,1.353,0c0,6.974,6.088,12.65,13.59,12.65a.677.677,0,0,1,0,1.353Z" transform="translate(-36.686 941.406)" fill="#e22726"/>
    <path id="Path_10873" data-name="Path 10873" d="M1231.935,3203.891h-3.119a.676.676,0,0,1-.676-.676v-16.438a.677.677,0,0,1,.676-.677h3.119a5.243,5.243,0,0,1,5.243,5.243v7.279a5.249,5.249,0,0,1-5.243,5.27Zm-2.456-1.353h2.456a3.917,3.917,0,0,0,3.917-3.91v-7.279a3.924,3.924,0,0,0-3.917-3.917h-2.456Z" transform="translate(-54.278 949.119)" fill="#e22726"/>
    <path id="Path_10874" data-name="Path 10874" d="M1170.861,3203.9h-3.118a5.249,5.249,0,0,1-5.243-5.242v-7.279a5.249,5.249,0,0,1,5.243-5.243h3.118a.677.677,0,0,1,.677.677v16.438A.676.676,0,0,1,1170.861,3203.9Zm-3.118-16.438a3.924,3.924,0,0,0-3.917,3.917v7.279a3.917,3.917,0,0,0,3.917,3.91h2.456v-15.105Z" transform="translate(-32.988 949.261)" fill="#e22726"/>
    <path id="Path_10875" data-name="Path 10875" d="M1201.242,3232.782h-3.382a3.24,3.24,0,1,1,0-6.474h3.382a3.24,3.24,0,1,1,0,6.473Zm-3.382-5.148a1.914,1.914,0,0,0,0,3.822h3.382a1.914,1.914,0,1,0,0-3.822Z" transform="translate(-43.332 936.266)" fill="#e22726"/>
  </g>
</svg>
