<svg xmlns="http://www.w3.org/2000/svg" width="174.75" height="196.176" viewBox="0 0 174.75 196.176">
  <g id="豆電球のアイコン素材_その2" data-name="豆電球のアイコン素材 その2" transform="translate(-27.96)">
    <path id="Path_11276" data-name="Path 11276" d="M172.84,108.1a55.991,55.991,0,0,0-30.279,30.279,9.555,9.555,0,0,0,5.171,12.506,9.444,9.444,0,0,0,3.668.721,9.56,9.56,0,0,0,8.839-5.924,37.134,37.134,0,0,1,19.9-19.9,9.564,9.564,0,1,0-7.3-17.678Z" transform="translate(-70.235 -66.231)" fill="#fff"/>
    <path id="Path_11277" data-name="Path 11277" d="M194.191,450.984h45.231l2.225-11.629H191.934Z" transform="translate(-101.146 -271.013)" fill="#fff"/>
    <path id="Path_11278" data-name="Path 11278" d="M231.559,494.329c8.16,0,14.776-4.914,14.776-10.977H216.783C216.783,489.414,223.4,494.329,231.559,494.329Z" transform="translate(-116.474 -298.152)" fill="#fff"/>
    <path id="Path_11279" data-name="Path 11279" d="M88.7,360.408c1.31,1.413,2.676,2.792,4.081,4.121l9.59-10.5q-1.579-1.5-3.071-3.1Z" transform="translate(-37.466 -216.466)" fill="#fff"/>
    <path id="Path_11280" data-name="Path 11280" d="M28.021,212.084q-.06,1.616-.061,3.243,0,1.3.039,2.6l10.145-.526h4.065c-.018-.694-.03-1.385-.03-2.076q0-1.228.039-2.446Z" transform="translate(0 -130.823)" fill="#fff"/>
    <path id="Path_11281" data-name="Path 11281" d="M103.729,64.159l-9.5-10.584q-2.135,1.988-4.114,4.083l10.515,9.578Q102.139,65.65,103.729,64.159Z" transform="translate(-38.339 -33.047)" fill="#fff"/>
    <path id="Path_11282" data-name="Path 11282" d="M251.858,14.22q1.2,0,2.388.037L255,.055C253.949.018,252.887,0,251.84,0c-.9,0-1.788.014-2.651.04l.882,14.2Q250.966,14.219,251.858,14.22Z" transform="translate(-136.464)" fill="#fff"/>
    <path id="Path_11283" data-name="Path 11283" d="M461.024,213.649l-14.2.73c.018.681.027,1.362.027,2.038q0,1.3-.046,2.6l14.2.822q.069-1.7.067-3.417C461.071,215.506,461.056,214.589,461.024,213.649Z" transform="translate(-258.36 -131.788)" fill="#fff"/>
    <path id="Path_11284" data-name="Path 11284" d="M387.341,65.192q1.59,1.506,3.07,3.087L401,58.782c-1.316-1.414-2.687-2.793-4.1-4.12Z" transform="translate(-221.682 -33.718)" fill="#fff"/>
    <path id="Path_11285" data-name="Path 11285" d="M386.081,355.55l9.467,10.613c1.415-1.307,2.795-2.674,4.129-4.083l-10.5-9.593C388.177,353.537,387.14,354.563,386.081,355.55Z" transform="translate(-220.904 -217.429)" fill="#fff"/>
    <path id="Path_11286" data-name="Path 11286" d="M205.7,98.682a55.746,55.746,0,0,0-95.162,39.431c0,16.174,8.087,35.169,18.211,45.011,8.369,8.15,12.726,13.98,14.982,18.054h-5.986l2.507,12.945h52.691l2.477-12.945h-6.614c2.257-4.075,6.614-9.9,14.983-18.054C213.913,173.282,222,154.288,222,138.113A55.705,55.705,0,0,0,205.7,98.682Zm-44.6,94.9a2.169,2.169,0,0,1-.547.141,1.8,1.8,0,0,1-1.8-.772l-14.667-26.1a1.4,1.4,0,0,1,.905-1.94,1.908,1.908,0,0,1,2.351.631l14.667,26.1A1.4,1.4,0,0,1,161.1,193.585Zm-.254-83.244a37.134,37.134,0,0,0-19.9,19.9,9.561,9.561,0,0,1-8.839,5.924,9.439,9.439,0,0,1-3.668-.721,9.555,9.555,0,0,1-5.171-12.506,55.991,55.991,0,0,1,30.279-30.279,9.564,9.564,0,1,1,7.3,17.678Zm27.58,55.46-16.221,26.833a2.085,2.085,0,0,1-2.391.744,1.282,1.282,0,0,1-.792-1.9l16.219-26.833a2.057,2.057,0,0,1,2.391-.744A1.283,1.283,0,0,1,188.427,165.8Z" transform="translate(-50.938 -50.798)" fill="#fff"/>
  </g>
</svg>
