<svg xmlns="http://www.w3.org/2000/svg" width="346.533" height="54.97" viewBox="0 0 346.533 54.97">
  <g id="レイヤー_1" data-name="レイヤー 1" transform="translate(9.999 10)">
    <path id="Path_10652" data-name="Path 10652" d="M23.3,25.006v1.115c0,.194.093.266.288.216a29.251,29.251,0,0,1,6.148-.719,13.95,13.95,0,0,1,5.264.949,8.744,8.744,0,0,1,3.789,2.876,7.4,7.4,0,0,1,1.438,4.544,9.225,9.225,0,0,1-1.87,5.846q-1.862,2.366-6.321,3.5a22.19,22.19,0,0,1-2.8.431,1.926,1.926,0,0,1-.324,0,2.481,2.481,0,0,1-1.4-.431A2.912,2.912,0,0,1,26.387,41.9l-.611-1.726a1.74,1.74,0,0,1-.072-.5,1.611,1.611,0,0,1,.252-.863,1.474,1.474,0,0,1,1.258-.647,17.739,17.739,0,0,0,2.445-.252,7.687,7.687,0,0,0,3.516-1.381,3.185,3.185,0,0,0,1.33-2.646A2.948,2.948,0,0,0,33.2,31.413a5.983,5.983,0,0,0-3.538-.935,24.822,24.822,0,0,0-6,.748c-.194.043-.273.151-.252.324q.137,5.242.144,6.141,0,3.638-1.15,5.033A4.048,4.048,0,0,1,19.1,44.112a9.865,9.865,0,0,1-4.063-.978,9.9,9.9,0,0,1-3.6-2.689A5.709,5.709,0,0,1,10,36.72a6.85,6.85,0,0,1,2.243-4.7A17.883,17.883,0,0,1,18,28.134a.388.388,0,0,0,.252-.4c0-.575-.036-1.438-.036-2.553V23.353a.223.223,0,0,0-.244-.252h-4.53a2.078,2.078,0,0,1-1.51-.719,2.366,2.366,0,0,1-.647-1.568V19.736a1.754,1.754,0,0,1,.575-1.4,1.905,1.905,0,0,1,1.33-.532h.144c.834.043,1.891.072,3.164.072h1.474a.259.259,0,0,0,.244-.288V15.594l-.072-1.618a1.884,1.884,0,0,1,.489-1.366A1.74,1.74,0,0,1,20.067,12h1.8a1.8,1.8,0,0,1,1.438.647A1.87,1.87,0,0,1,23.77,13.9v.216c-.05.546-.086,1.028-.108,1.438l-.108,1.582a.237.237,0,0,0,.072.18.266.266,0,0,0,.18.072c1.388-.194,2.711-.431,3.955-.719a2.157,2.157,0,0,1,.431-.036A1.6,1.6,0,0,1,29.2,17a1.668,1.668,0,0,1,.719,1.294v1.251a2.452,2.452,0,0,1-.539,1.639,2.279,2.279,0,0,1-1.474.877q-1.862.324-4.206.575a.295.295,0,0,0-.288.324A10.489,10.489,0,0,0,23.3,25.006ZM17.37,38.05a1.043,1.043,0,0,0,.769-.266,1.747,1.747,0,0,0,.266-1.172c0-.288,0-1.33-.072-3.128a.137.137,0,0,0-.072-.137.129.129,0,0,0-.144,0q-2.682,1.611-2.689,3.1a1.359,1.359,0,0,0,.662,1.1,2.157,2.157,0,0,0,1.28.5ZM33.355,21.123a2.157,2.157,0,0,1-1.143-1.834,1.949,1.949,0,0,1,.252-.964l.36-.575a2.157,2.157,0,0,1,1.251-1.079,2.4,2.4,0,0,1,.719-.108,1.956,1.956,0,0,1,.971.252q3.157,1.539,5.609,2.977a2.157,2.157,0,0,1,.971,1.33,1.913,1.913,0,0,1,.072.539,2.092,2.092,0,0,1-.288,1.079l-.5.827a1.985,1.985,0,0,1-1.258.935,3.164,3.164,0,0,1-.467.036,1.97,1.97,0,0,1-1.136-.316Q36.375,22.705,33.355,21.123Z" transform="translate(-10 -10.596)" fill="#231815"/>
    <path id="Path_10653" data-name="Path 10653" d="M65.07,19.876c-.187,0-.288.086-.288.252v1.841a2.085,2.085,0,0,1-2.157,2.121h-.431a2.064,2.064,0,0,1-1.438-.582A2.013,2.013,0,0,1,60.13,22V18.51A2.157,2.157,0,0,1,62.287,16.4H73.7a.223.223,0,0,0,.252-.252v-.36a.223.223,0,0,0-.252-.252H64.76a1.862,1.862,0,0,1-1.381-.575,1.941,1.941,0,0,1,0-2.732,1.862,1.862,0,0,1,1.381-.575H88.41a1.934,1.934,0,0,1,1.366,3.308,1.884,1.884,0,0,1-1.366.575H79.451a.223.223,0,0,0-.252.252v.36a.223.223,0,0,0,.252.252H91.207a2.157,2.157,0,0,1,2.114,2.114v3.459a2.013,2.013,0,0,1-.626,1.51,2.049,2.049,0,0,1-1.488.611h-.719a2.085,2.085,0,0,1-2.157-2.121V20.1c0-.165-.1-.252-.288-.252H79.451a.223.223,0,0,0-.252.252v4.89a2.114,2.114,0,0,1-2.114,2.121H76.078a2.064,2.064,0,0,1-1.5-.611,2.035,2.035,0,0,1-.626-1.51V20.1a.223.223,0,0,0-.252-.252ZM81.313,41.448h6.328a2.948,2.948,0,0,0,1.381-.252,1.575,1.575,0,0,0,.719-.971,1.841,1.841,0,0,1,.884-1.079,1.335,1.335,0,0,1,1.33-.072c.144.05.295.1.467.144a2.783,2.783,0,0,1,1.409,1.035,1.97,1.97,0,0,1,.324,1.079,1.74,1.74,0,0,1-.072.5,4.429,4.429,0,0,1-1.9,2.819,8.305,8.305,0,0,1-4.106.777H80.824c-2.661,0-4.494-.345-5.515-1.028s-1.575-1.97-1.668-3.861a.223.223,0,0,0-.252-.252h-4.53c-.093,0-.144.058-.144.18a1.237,1.237,0,0,1-.374.913,1.309,1.309,0,0,1-.956.381H65.7a2.013,2.013,0,0,1-1.488-.633,2.042,2.042,0,0,1-.633-1.488v-9.52a2.021,2.021,0,0,1,.633-1.51A2.049,2.049,0,0,1,65.7,28H87.44A2.085,2.085,0,0,1,89.6,30.158v8.01a2.107,2.107,0,0,1-.611,1.5,2.035,2.035,0,0,1-1.51.626H79.063a.237.237,0,0,0-.18.072.266.266,0,0,0-.072.18.956.956,0,0,0,.647.719,7.119,7.119,0,0,0,1.87.18ZM66.652,27.066a1.316,1.316,0,0,1-.971-.4,1.373,1.373,0,0,1-.4-.992,1.438,1.438,0,0,1,.4-1,1.287,1.287,0,0,1,.971-.417h4.89a1.323,1.323,0,0,1,.985.417,1.345,1.345,0,0,1,.453,1,1.309,1.309,0,0,1-.417.992,1.359,1.359,0,0,1-.985.4Zm4.89-6.4a1.352,1.352,0,0,1,.985.417,1.309,1.309,0,0,1,.453.971,1.33,1.33,0,0,1-.417.971,1.345,1.345,0,0,1-1.021.381H67.3A1.3,1.3,0,0,1,66.35,23a1.33,1.33,0,0,1-.417-.971A1.438,1.438,0,0,1,67.3,20.638Zm2.085,11.109c0-.194-.086-.288-.252-.288H68.967c-.165,0-.252.093-.252.288v.575c0,.187.086.288.252.288h4.422c.165,0,.252-.1.252-.288Zm-4.674,3.912a.223.223,0,0,0-.252.252v.575c0,.194.086.288.252.288h4.422c.165,0,.252-.093.252-.288V35.94a.223.223,0,0,0-.252-.252Zm15.021-3.049a.252.252,0,0,0,.288-.288v-.575a.252.252,0,0,0-.288-.288H79.012a.252.252,0,0,0-.288.288v.575a.259.259,0,0,0,.288.288Zm-5.242,3.876a.252.252,0,0,0,.288.288h4.962a.252.252,0,0,0,.288-.288V35.94c0-.165-.093-.252-.288-.252H79.019c-.187,0-.288.086-.288.252Zm1.891-13.49a1.33,1.33,0,0,1-.417-.971,1.309,1.309,0,0,1,.417-.971,1.352,1.352,0,0,1,.985-.417h4.027a1.352,1.352,0,0,1,.985.417,1.309,1.309,0,0,1,.417.971,1.33,1.33,0,0,1-.4.971,1.345,1.345,0,0,1-.985.41H81.608a1.345,1.345,0,0,1-.978-.41Zm.985,4.041a1.359,1.359,0,0,1-.985-.4,1.309,1.309,0,0,1-.417-.992,1.345,1.345,0,0,1,.417-1,1.323,1.323,0,0,1,.985-.417h4.854a1.316,1.316,0,0,1,1.007.417,1.381,1.381,0,0,1,.4,1,1.352,1.352,0,0,1-1.4,1.388Z" transform="translate(-24.083 -10.499)" fill="#231815"/>
    <path id="Path_10654" data-name="Path 10654" d="M112.055,20.728a1.934,1.934,0,0,1-1.438-.611,2.054,2.054,0,0,1,1.452-3.516h10.16a2.021,2.021,0,0,1,1.438.59,1.941,1.941,0,0,1,.611,1.438,2.085,2.085,0,0,1-2.078,2.085Zm9.132,11.793a2.035,2.035,0,0,1,1.51.626,2.071,2.071,0,0,1,.6,1.488v7.191a2.078,2.078,0,0,1-2.114,2.157h-4.926c-.093,0-.144.058-.144.18a1.079,1.079,0,0,1-.36.805,1.158,1.158,0,0,1-.827.345h-1.15a2.078,2.078,0,0,1-1.51-.611,2.049,2.049,0,0,1-.611-1.51V34.635a2.114,2.114,0,0,1,2.157-2.114Zm-.072-10.534a2,2,0,0,1,1.438,3.394,1.9,1.9,0,0,1-1.438.6h-7.334a1.877,1.877,0,0,1-1.438-.6,1.956,1.956,0,0,1-.575-1.438,1.934,1.934,0,0,1,.575-1.4,1.913,1.913,0,0,1,1.438-.575Zm-7.334,9.175a1.913,1.913,0,0,1-1.438-.575,1.934,1.934,0,0,1-.575-1.438,1.985,1.985,0,0,1,.575-1.438,1.87,1.87,0,0,1,1.438-.59h7.334a1.891,1.891,0,0,1,1.438.59,1.977,1.977,0,0,1,.568,1.438,1.949,1.949,0,0,1-2.006,2.013Zm7.37-19.774a1.891,1.891,0,0,1,1.438.59,2.013,2.013,0,0,1,0,2.8,1.9,1.9,0,0,1-1.438.6H113.96a1.877,1.877,0,0,1-1.438-.6,2,2,0,0,1,0-2.8,1.87,1.87,0,0,1,1.438-.59Zm-2.373,25.527a.223.223,0,0,0-.252-.252h-2.157a.223.223,0,0,0-.252.252V39.5c0,.194.086.288.252.288h2.157c.165,0,.252-.093.252-.288ZM145.153,23.87a2.157,2.157,0,0,1-2.121,2.121h-5.17a.223.223,0,0,0-.252.252v3.6a.223.223,0,0,0,.252.252h3.782a2.157,2.157,0,0,1,2.157,2.122V43.048a2.035,2.035,0,0,1-.626,1.51,2.107,2.107,0,0,1-1.5.611h-1.8a1.4,1.4,0,0,1-1.007-.417,1.352,1.352,0,0,1-.424-1.021.158.158,0,0,0-.18-.18h-6.694c-.122,0-.18.072-.18.216a1.438,1.438,0,0,1-.467,1.093,1.539,1.539,0,0,1-1.115.453h-1.366a2.078,2.078,0,0,1-1.488-.611,2.013,2.013,0,0,1-.633-1.51V32.2a2.157,2.157,0,0,1,2.121-2.121h3.308c.194,0,.288-.086.288-.252v-3.6c0-.165-.093-.252-.288-.252h-5.105a2.157,2.157,0,0,1-2.121-2.121v-.791a2.013,2.013,0,0,1,.633-1.488,2.042,2.042,0,0,1,1.488-.633h5.105c.194,0,.288-.079.288-.252V17.607c0-.194-.086-.28-.252-.252-1.028.115-2.157.216-3.272.288a.661.661,0,0,1-.18.036,2.323,2.323,0,0,1-1.438-.5,2.876,2.876,0,0,1-1.007-1.438l-.144-.467a1.661,1.661,0,0,1-.108-.575,1.524,1.524,0,0,1,.252-.827,1.438,1.438,0,0,1,1.151-.719,84.411,84.411,0,0,0,11.5-1.941,3.545,3.545,0,0,1,.863-.108,3.7,3.7,0,0,1,1.007.144,3.193,3.193,0,0,1,1.51,1.007l1.007,1.186a1.316,1.316,0,0,1,.324.863,1.294,1.294,0,0,1-.072.431,1.237,1.237,0,0,1-.935.9q-2.114.5-4.415.9a.3.3,0,0,0-.252.324v3.876a.216.216,0,0,0,.252.252h5.17a2.071,2.071,0,0,1,1.5.633,2.035,2.035,0,0,1,.626,1.488Zm-7,14.877a.223.223,0,0,0,.252-.252v-3.38c0-.187-.086-.288-.252-.288h-6.472c-.165,0-.252.1-.252.288V38.5a.223.223,0,0,0,.252.252Z" transform="translate(-38.1 -10.345)" fill="#231815"/>
    <path id="Path_10655" data-name="Path 10655" d="M166.045,22.787a2.013,2.013,0,0,1-.4.036,1.733,1.733,0,0,1-1.115-.4,1.769,1.769,0,0,1-.755-1.366L163.6,19.3v-.216a1.891,1.891,0,0,1,.5-1.287,1.949,1.949,0,0,1,1.438-.719q1.107-.043,1.618-.108l6.054-.5q5.587-.475,9.542-.827c2.438-.194,5.271-.374,8.478-.539h.108a1.884,1.884,0,0,1,1.4.575,2.114,2.114,0,0,1,.647,1.474v1.438a2.049,2.049,0,0,1-.611,1.488,2.157,2.157,0,0,1-1.51.662,30.524,30.524,0,0,0-4.854.4,8.873,8.873,0,0,0-5.156,3.451,9.635,9.635,0,0,0-2.157,6,6.141,6.141,0,0,0,2.488,5.292,14.316,14.316,0,0,0,6.745,2.394,1.675,1.675,0,0,1,1.222.755,1.582,1.582,0,0,1,.288.9,1.56,1.56,0,0,1-.108.539l-.719,2.121a2.775,2.775,0,0,1-1.079,1.438,2.3,2.3,0,0,1-1.294.4,2.876,2.876,0,0,1-.431,0,20.773,20.773,0,0,1-6.536-2.157,12.677,12.677,0,0,1-4.652-4.257,10.836,10.836,0,0,1-1.783-6.1,13.72,13.72,0,0,1,1.33-6.054,14.877,14.877,0,0,1,3.092-4.408v-.108a.043.043,0,0,0-.072-.036Q170.668,21.931,166.045,22.787Zm20.033,3.746a1.639,1.639,0,0,1-.216-.791,1.5,1.5,0,0,1,.072-.431,1.323,1.323,0,0,1,.791-.9,1.884,1.884,0,0,1,.791-.18,2.035,2.035,0,0,1,.647.108,1.913,1.913,0,0,1,1.115.863c.381.626.755,1.258,1.115,1.906a1.625,1.625,0,0,1,.18.755,2.252,2.252,0,0,1-.072.575,1.639,1.639,0,0,1-.935.971,1.97,1.97,0,0,1-.719.144,2.035,2.035,0,0,1-.647-.108,1.934,1.934,0,0,1-1.043-.935,21.323,21.323,0,0,0-1.079-1.977Zm4.242-1.69a1.524,1.524,0,0,1-.252-.827,1.217,1.217,0,0,1,.072-.4,1.438,1.438,0,0,1,.791-.935,2.064,2.064,0,0,1,.827-.18,2.625,2.625,0,0,1,.575.072,2.157,2.157,0,0,1,1.15.827c.4.6.791,1.2,1.15,1.8a1.661,1.661,0,0,1,.252.827,2.028,2.028,0,0,1-.072.5,1.64,1.64,0,0,1-.863,1.007,1.862,1.862,0,0,1-.791.18,1.977,1.977,0,0,1-1.69-1.007c-.36-.618-.741-1.244-1.15-1.841Z" transform="translate(-53.153 -11.469)" fill="#231815"/>
    <path id="Path_10656" data-name="Path 10656" d="M228.022,24.993v1.115c0,.194.093.266.288.216a29.137,29.137,0,0,1,6.141-.719,13.95,13.95,0,0,1,5.263.949,8.808,8.808,0,0,1,3.8,2.876,7.4,7.4,0,0,1,1.438,4.544,9.218,9.218,0,0,1-1.862,5.846q-1.877,2.387-6.328,3.5a22.188,22.188,0,0,1-2.8.431,1.927,1.927,0,0,1-.324,0,2.481,2.481,0,0,1-1.438-.431,2.912,2.912,0,0,1-1.115-1.438l-.611-1.726a2.029,2.029,0,0,1-.072-.5,1.611,1.611,0,0,1,.252-.863,1.481,1.481,0,0,1,1.258-.647,17.617,17.617,0,0,0,2.445-.252,7.715,7.715,0,0,0,3.523-1.381,3.2,3.2,0,0,0,1.33-2.646,2.955,2.955,0,0,0-1.258-2.466,5.947,5.947,0,0,0-3.538-.935,24.764,24.764,0,0,0-5.961.755c-.194.043-.28.151-.252.324q.137,5.242.144,6.141c0,2.423-.388,4.091-1.151,5.033a4.048,4.048,0,0,1-3.308,1.388,10.448,10.448,0,0,1-7.672-3.646,5.752,5.752,0,0,1-1.438-3.725,6.861,6.861,0,0,1,2.251-4.7,17.8,17.8,0,0,1,5.752-3.883.4.4,0,0,0,.252-.4c0-.575-.036-1.438-.036-2.553V23.34a.223.223,0,0,0-.252-.252h-4.53a2.107,2.107,0,0,1-1.51-.719,2.438,2.438,0,0,1-.647-1.568V19.723a1.776,1.776,0,0,1,.575-1.4,1.92,1.92,0,0,1,1.33-.532h.144c.841.043,1.891.072,3.164.072h1.474a.266.266,0,0,0,.252-.288V15.581l-.144-1.654a1.884,1.884,0,0,1,.539-1.33,1.74,1.74,0,0,1,1.4-.647h1.8a1.819,1.819,0,0,1,1.438.647,1.87,1.87,0,0,1,.467,1.258v.216c-.05.546-.086,1.028-.108,1.438l-.108,1.582a.237.237,0,0,0,.072.18.259.259,0,0,0,.18.072q2.085-.288,3.948-.719a2.158,2.158,0,0,1,.431-.036,1.589,1.589,0,0,1,1.007.36,1.647,1.647,0,0,1,.683,1.294v1.251a2.452,2.452,0,0,1-.539,1.639,2.244,2.244,0,0,1-1.438.877q-1.87.324-4.2.575a.295.295,0,0,0-.288.324A11.269,11.269,0,0,0,228.022,24.993Zm-5.9,13.044a1.035,1.035,0,0,0,.769-.266,1.74,1.74,0,0,0,.273-1.172c0-.288,0-1.33-.072-3.128a.137.137,0,0,0-.072-.137.129.129,0,0,0-.144,0q-2.7,1.6-2.7,3.121a1.366,1.366,0,0,0,.669,1.1A2.157,2.157,0,0,0,222.126,38.037Zm15.992-16.927a2.157,2.157,0,0,1-1.151-1.834,2.027,2.027,0,0,1,.252-.964l.36-.575a2.157,2.157,0,0,1,1.258-1.079,2.366,2.366,0,0,1,.683-.108,1.992,1.992,0,0,1,.971.252q3.157,1.539,5.6,2.977a2.157,2.157,0,0,1,.971,1.33,1.911,1.911,0,0,1,.072.539,2.092,2.092,0,0,1-.288,1.079l-.5.827a1.985,1.985,0,0,1-1.258.935,3.062,3.062,0,0,1-.46.036,1.934,1.934,0,0,1-1.079-.324c-1.647-1.007-3.444-2.035-5.465-3.092Z" transform="translate(-67.529 -10.584)" fill="#231815"/>
    <path id="Path_10657" data-name="Path 10657" d="M284.591,14.688c0,.187.079.288.252.288h10.275a2.078,2.078,0,0,1,1.5.611,2.013,2.013,0,0,1,.626,1.51v18.25a2.013,2.013,0,0,1-.626,1.51,2.078,2.078,0,0,1-1.5.611H293.1a1.438,1.438,0,0,1-1.043-.431,1.373,1.373,0,0,1-.431-1.007c0-.144-.058-.216-.18-.216h-6.608c-.173,0-.252.1-.252.288v6.759a2.013,2.013,0,0,1-.633,1.51,2.078,2.078,0,0,1-1.488.611H281.1a2.078,2.078,0,0,1-1.488-.611,2.013,2.013,0,0,1-.633-1.51V36.1c0-.187-.086-.288-.252-.288h-6.392a.194.194,0,0,0-.216.216,1.719,1.719,0,0,1-1.69,1.69h-1.546a2.157,2.157,0,0,1-2.157-2.157V17.1a2.014,2.014,0,0,1,.626-1.51,2.078,2.078,0,0,1,1.5-.611h9.844c.165,0,.252-.1.252-.288V12.171A2.157,2.157,0,0,1,281.1,10.05h1.366a2.157,2.157,0,0,1,2.121,2.121Zm-5.609,5.673c0-.187-.086-.288-.252-.288h-6.356c-.173,0-.252.1-.252.288v2.265c0,.194.079.288.252.288h6.356c.165,0,.252-.093.252-.288Zm-6.86,10.067c0,.187.079.288.252.288h6.356c.165,0,.252-.1.252-.288V28.091c0-.194-.086-.288-.252-.288h-6.356c-.173,0-.252.093-.252.288Zm19.508-10.067c0-.187-.079-.288-.252-.288h-6.536c-.173,0-.252.1-.252.288v2.265c0,.194.079.288.252.288h6.529c.173,0,.252-.093.252-.288Zm-7.04,10.067c0,.187.079.288.252.288h6.529c.173,0,.252-.1.252-.288V28.091c0-.194-.079-.288-.252-.288h-6.536c-.173,0-.252.093-.252.288Z" transform="translate(-82.126 -10.05)" fill="#231815"/>
    <path id="Path_10658" data-name="Path 10658" d="M323.933,14.935v-.252a1.748,1.748,0,0,1,.431-1.186,1.668,1.668,0,0,1,1.33-.647h.036l2.84.036a1.74,1.74,0,0,1,1.438.647,1.87,1.87,0,0,1,.467,1.258v.216c-.144,1.294-.237,2.43-.288,3.408q-.431,9.2-.431,15.74,0,4.609,4.494,4.6,6.428,0,10.887-5.673a1.575,1.575,0,0,1,1.294-.647h.072a1.56,1.56,0,0,1,1.222.575l1.33,1.611a2.725,2.725,0,0,1,.647,1.762,2.38,2.38,0,0,1-.575,1.582,18.165,18.165,0,0,1-2.517,2.466,22.748,22.748,0,0,1-3.25,2.157,17.48,17.48,0,0,1-4.329,1.611,20.206,20.206,0,0,1-4.918.6q-4.926,0-7.636-2.3t-2.718-6.939q0-2.545.165-9.269t.158-7.874A27.4,27.4,0,0,0,323.933,14.935Z" transform="translate(-98.148 -10.837)" fill="#231815"/>
    <path id="Path_10659" data-name="Path 10659" d="M373.471,24.8a2.049,2.049,0,0,1,1.488.611,2.013,2.013,0,0,1,.633,1.51v9.161a.848.848,0,0,0,.144.5q1.9,2.876,7.327,3.092,2.7.137,5.537.144,5.069,0,10.527-.36h.108a1.237,1.237,0,0,1,1.043.539,1.223,1.223,0,0,1,.288.791,1.188,1.188,0,0,1-.108.467l-.431,1.438a3.006,3.006,0,0,1-.971,1.546,2.438,2.438,0,0,1-1.618.611c-2.8.115-5.422.18-7.866.18s-4.58-.05-6.615-.144a18.947,18.947,0,0,1-5.587-.971,9.844,9.844,0,0,1-3.969-2.768c-.122-.144-.237-.158-.36-.036q-1.726,1.51-3.2,2.732a1.632,1.632,0,0,1-1.007.36,2.243,2.243,0,0,1-.4-.036,1.639,1.639,0,0,1-1.151-.935l-.791-1.726a2.273,2.273,0,0,1-.216-.971,2.773,2.773,0,0,1,.108-.719,2.467,2.467,0,0,1,1.043-1.294q1.481-.9,2.7-1.762a.532.532,0,0,0,.216-.431V29.948a.223.223,0,0,0-.252-.252h-1.4a2.157,2.157,0,0,1-2.121-2.121v-.719a2.014,2.014,0,0,1,.633-1.51,2.049,2.049,0,0,1,1.488-.611Zm1.546-9.52a1.834,1.834,0,0,1,.575,1.33.719.719,0,0,1-.036.18,2.063,2.063,0,0,1-.755,1.438l-1.007.82a1.927,1.927,0,0,1-1.258.467.849.849,0,0,1-.252,0,1.963,1.963,0,0,1-1.4-.755A31.851,31.851,0,0,0,368.042,16a1.726,1.726,0,0,1-.611-1.33,1.64,1.64,0,0,1,.647-1.366l.719-.539a2.747,2.747,0,0,1,1.654-.611h.072a2.4,2.4,0,0,1,1.582.575,34.575,34.575,0,0,1,2.912,2.553Zm9.664,6a1.438,1.438,0,0,1,.6-.913,1.474,1.474,0,0,1,1.057-.273.173.173,0,0,0,.129-.05v-.093c-.122-.884-.216-1.8-.288-2.725,0-.173-.094-.252-.288-.252h-3.847a2.042,2.042,0,0,1-1.51-.633,2.078,2.078,0,0,1-.611-1.488v-.827a2.107,2.107,0,0,1,.611-1.5,2.035,2.035,0,0,1,1.51-.626h6.579a2.107,2.107,0,0,1,1.51.626,2.323,2.323,0,0,1,.719,1.5,49.978,49.978,0,0,0,.662,6.09,35.049,35.049,0,0,0,1.388,5.371,17.191,17.191,0,0,0,2.438,4.71,16.05,16.05,0,0,0,3.631,3.552,1.51,1.51,0,0,1,.216,2.409c-.381.388-.762.769-1.151,1.15a2.6,2.6,0,0,1-1.51.827h-.359a2.157,2.157,0,0,1-1.251-.4,20.3,20.3,0,0,1-6.472-9.269.115.115,0,0,0-.216,0,23.5,23.5,0,0,1-6.256,9.2,2.1,2.1,0,0,1-1.33.467h-.252a2.517,2.517,0,0,1-1.5-.755L377.806,36.3a1.561,1.561,0,0,1-.539-1.186,1.69,1.69,0,0,1,.683-1.438Q383.07,29.732,384.681,21.276Z" transform="translate(-110.094 -10.57)" fill="#231815"/>
    <path id="Path_10660" data-name="Path 10660" d="M449.95,31.065a2.531,2.531,0,0,1,1.079,1.366,2.79,2.79,0,0,1-.072,1.755l-.935,2.229a1.438,1.438,0,0,1-1.043.9,1.97,1.97,0,0,1-.4.036,1.438,1.438,0,0,1-.971-.36c-.36-.288-.683-.546-.971-.791q-.216-.144-.324.108a17.977,17.977,0,0,1-7.04,7.91,2.876,2.876,0,0,1-1.51.431h-.288a3.042,3.042,0,0,1-1.69-.683l-1.438-1.186a1.237,1.237,0,0,1-.467-.971v-.216a1.316,1.316,0,0,1,.719-1.043,15.424,15.424,0,0,0,7.119-7.291.28.28,0,0,0-.144-.4,25.368,25.368,0,0,0-7-2.517.309.309,0,0,0-.359.216,72.157,72.157,0,0,1-3.883,8.01,8.248,8.248,0,0,1-2.7,2.718,7.039,7.039,0,0,1-3.6.877,5.932,5.932,0,0,1-4.372-1.7A6.414,6.414,0,0,1,418,35.732a9.2,9.2,0,0,1,3.466-7.191,14.9,14.9,0,0,1,8.895-3.38.446.446,0,0,0,.359-.252c1.294-3.02,2.035-4.717,2.229-5.105a.18.18,0,0,0-.18-.252q-3.372.108-5.249.216c-.259,0-.6.05-1.007.072a.567.567,0,0,1-.216.036,1.92,1.92,0,0,1-1.294-.5,1.841,1.841,0,0,1-.676-1.395l-.072-1.366a1.754,1.754,0,0,1,.575-1.438,1.912,1.912,0,0,1,1.359-.539h.108c.431,0,.791.036,1.079.036q4.235,0,7.334-.252a5.938,5.938,0,0,0,.827-.108,7.478,7.478,0,0,1,1.043-.072,4.235,4.235,0,0,1,2.661.827l.18.144a1.992,1.992,0,0,1,.719,1.366v.216a2.5,2.5,0,0,1-.388,1.366l-.036.036a66.665,66.665,0,0,0-3.2,7.076c-.072.165,0,.266.144.288a34.989,34.989,0,0,1,6.141,1.834c.173.072.266,0,.288-.144V27.1q.108-1.158.108-2.157a2.013,2.013,0,0,1,.575-1.474,1.647,1.647,0,0,1,1.186-.5.719.719,0,0,1,.216.036l1.582.18a2.157,2.157,0,0,1,1.438.791,2.02,2.02,0,0,1,.539,1.366.445.445,0,0,1-.036.18,40.271,40.271,0,0,1-.467,4.206.352.352,0,0,0,.18.4ZM424.15,36.2c.6,0,1.172-.417,1.719-1.258a39.071,39.071,0,0,0,2.337-4.415.122.122,0,0,0,0-.144.129.129,0,0,0-.165,0,7.514,7.514,0,0,0-3.6,1.812,3.725,3.725,0,0,0-1.309,2.675,1.567,1.567,0,0,0,.288.971A.849.849,0,0,0,424.15,36.2Z" transform="translate(-124.62 -11.226)" fill="#231815"/>
    <path id="Path_10661" data-name="Path 10661" d="M23.3,25.006v1.115c0,.194.093.266.288.216a29.251,29.251,0,0,1,6.148-.719,13.95,13.95,0,0,1,5.264.949,8.744,8.744,0,0,1,3.789,2.876,7.4,7.4,0,0,1,1.438,4.544,9.225,9.225,0,0,1-1.87,5.846q-1.862,2.366-6.321,3.5a22.19,22.19,0,0,1-2.8.431,1.926,1.926,0,0,1-.324,0,2.481,2.481,0,0,1-1.4-.431A2.912,2.912,0,0,1,26.387,41.9l-.611-1.726a1.74,1.74,0,0,1-.072-.5,1.611,1.611,0,0,1,.252-.863,1.474,1.474,0,0,1,1.258-.647,17.739,17.739,0,0,0,2.445-.252,7.687,7.687,0,0,0,3.516-1.381,3.185,3.185,0,0,0,1.33-2.646A2.948,2.948,0,0,0,33.2,31.413a5.983,5.983,0,0,0-3.538-.935,24.822,24.822,0,0,0-6,.748c-.194.043-.273.151-.252.324q.137,5.242.144,6.141,0,3.638-1.15,5.033A4.048,4.048,0,0,1,19.1,44.112a9.865,9.865,0,0,1-4.063-.978,9.9,9.9,0,0,1-3.6-2.689A5.709,5.709,0,0,1,10,36.72a6.85,6.85,0,0,1,2.243-4.7A17.883,17.883,0,0,1,18,28.134a.388.388,0,0,0,.252-.4c0-.575-.036-1.438-.036-2.553V23.353a.223.223,0,0,0-.244-.252h-4.53a2.078,2.078,0,0,1-1.51-.719,2.366,2.366,0,0,1-.647-1.568V19.736a1.754,1.754,0,0,1,.575-1.4,1.905,1.905,0,0,1,1.33-.532h.144c.834.043,1.891.072,3.164.072h1.474a.259.259,0,0,0,.244-.288V15.594l-.072-1.618a1.884,1.884,0,0,1,.489-1.366A1.74,1.74,0,0,1,20.067,12h1.8a1.8,1.8,0,0,1,1.438.647A1.87,1.87,0,0,1,23.77,13.9v.216c-.05.546-.086,1.028-.108,1.438l-.108,1.582a.237.237,0,0,0,.072.18.266.266,0,0,0,.18.072c1.388-.194,2.711-.431,3.955-.719a2.157,2.157,0,0,1,.431-.036A1.6,1.6,0,0,1,29.2,17a1.668,1.668,0,0,1,.719,1.294v1.251a2.452,2.452,0,0,1-.539,1.639,2.279,2.279,0,0,1-1.474.877q-1.862.324-4.206.575a.295.295,0,0,0-.288.324A10.489,10.489,0,0,0,23.3,25.006ZM17.37,38.05a1.043,1.043,0,0,0,.769-.266,1.747,1.747,0,0,0,.266-1.172c0-.288,0-1.33-.072-3.128a.137.137,0,0,0-.072-.137.129.129,0,0,0-.144,0q-2.682,1.611-2.689,3.1a1.359,1.359,0,0,0,.662,1.1,2.157,2.157,0,0,0,1.28.5ZM33.355,21.123a2.157,2.157,0,0,1-1.143-1.834,1.949,1.949,0,0,1,.252-.964l.36-.575a2.157,2.157,0,0,1,1.251-1.079,2.4,2.4,0,0,1,.719-.108,1.956,1.956,0,0,1,.971.252q3.157,1.539,5.609,2.977a2.157,2.157,0,0,1,.971,1.33,1.913,1.913,0,0,1,.072.539,2.092,2.092,0,0,1-.288,1.079l-.5.827a1.985,1.985,0,0,1-1.258.935,3.164,3.164,0,0,1-.467.036,1.97,1.97,0,0,1-1.136-.316Q36.375,22.705,33.355,21.123Z" transform="translate(-10 -10.596)" fill="none" stroke="#fff" stroke-miterlimit="10" stroke-width="20"/>
    <path id="Path_10662" data-name="Path 10662" d="M65.07,19.876c-.187,0-.288.086-.288.252v1.841a2.085,2.085,0,0,1-2.157,2.121h-.431a2.064,2.064,0,0,1-1.438-.582A2.013,2.013,0,0,1,60.13,22V18.51a2.415,2.415,0,0,1,.426-1.245,2.017,2.017,0,0,1,1.731-.869H73.7a.223.223,0,0,0,.252-.252v-.36a.223.223,0,0,0-.252-.252H64.76a1.862,1.862,0,0,1-1.381-.575,1.941,1.941,0,0,1,0-2.732,1.862,1.862,0,0,1,1.381-.575H88.41a1.934,1.934,0,0,1,1.366,3.308,1.884,1.884,0,0,1-1.366.575H79.451a.223.223,0,0,0-.252.252v.36a.223.223,0,0,0,.252.252H91.207a2.157,2.157,0,0,1,2.114,2.114v3.459a2.013,2.013,0,0,1-.626,1.51,2.049,2.049,0,0,1-1.488.611h-.719a2.085,2.085,0,0,1-2.157-2.121V20.1c0-.165-.1-.252-.288-.252H79.451a.223.223,0,0,0-.252.252v4.89a2.114,2.114,0,0,1-2.114,2.121H76.078a2.064,2.064,0,0,1-1.5-.611,2.035,2.035,0,0,1-.626-1.51V20.1a.223.223,0,0,0-.252-.252ZM81.313,41.448h6.328a2.948,2.948,0,0,0,1.381-.252,1.575,1.575,0,0,0,.719-.971,1.841,1.841,0,0,1,.884-1.079,1.335,1.335,0,0,1,1.33-.072c.144.05.295.1.467.144a2.783,2.783,0,0,1,1.409,1.035,1.97,1.97,0,0,1,.324,1.079,1.74,1.74,0,0,1-.072.5,4.429,4.429,0,0,1-1.9,2.819,8.305,8.305,0,0,1-4.106.777H80.824c-2.661,0-4.494-.345-5.515-1.028s-1.575-1.97-1.668-3.861a.223.223,0,0,0-.252-.252h-4.53c-.093,0-.144.058-.144.18a1.237,1.237,0,0,1-.374.913,1.309,1.309,0,0,1-.956.381H65.7a2.013,2.013,0,0,1-1.488-.633,2.042,2.042,0,0,1-.633-1.488v-9.52a2.021,2.021,0,0,1,.633-1.51A2.049,2.049,0,0,1,65.7,28H87.44A2.085,2.085,0,0,1,89.6,30.158v8.01a2.107,2.107,0,0,1-.611,1.5,2.035,2.035,0,0,1-1.51.626H79.063a.237.237,0,0,0-.18.072.266.266,0,0,0-.072.18.956.956,0,0,0,.647.719,7.119,7.119,0,0,0,1.87.18ZM66.652,27.066a1.316,1.316,0,0,1-.971-.4,1.373,1.373,0,0,1-.4-.992,1.438,1.438,0,0,1,.4-1,1.287,1.287,0,0,1,.971-.417h4.89a1.323,1.323,0,0,1,.985.417,1.345,1.345,0,0,1,.453,1,1.309,1.309,0,0,1-.417.992,1.359,1.359,0,0,1-.985.4Zm4.89-6.4a1.352,1.352,0,0,1,.985.417,1.309,1.309,0,0,1,.453.971,1.33,1.33,0,0,1-.417.971,1.345,1.345,0,0,1-1.021.381H67.3A1.3,1.3,0,0,1,66.35,23a1.33,1.33,0,0,1-.417-.971A1.438,1.438,0,0,1,67.3,20.638Zm2.085,11.109c0-.194-.086-.288-.252-.288H68.967c-.165,0-.252.093-.252.288v.575c0,.187.086.288.252.288h4.422c.165,0,.252-.1.252-.288Zm-4.674,3.912a.223.223,0,0,0-.252.252v.575c0,.194.086.288.252.288h4.422c.165,0,.252-.093.252-.288V35.94a.223.223,0,0,0-.252-.252Zm15.021-3.049a.252.252,0,0,0,.288-.288v-.575a.252.252,0,0,0-.288-.288H79.012a.252.252,0,0,0-.288.288v.575a.259.259,0,0,0,.288.288Zm-5.242,3.876a.252.252,0,0,0,.288.288h4.962a.252.252,0,0,0,.288-.288V35.94c0-.165-.093-.252-.288-.252H79.019c-.187,0-.288.086-.288.252Zm1.891-13.49a1.33,1.33,0,0,1-.417-.971,1.309,1.309,0,0,1,.417-.971,1.352,1.352,0,0,1,.985-.417h4.027a1.352,1.352,0,0,1,.985.417,1.309,1.309,0,0,1,.417.971,1.33,1.33,0,0,1-.4.971,1.345,1.345,0,0,1-.985.41H81.608a1.345,1.345,0,0,1-.978-.41Zm.985,4.041a1.359,1.359,0,0,1-.985-.4,1.309,1.309,0,0,1-.417-.992,1.345,1.345,0,0,1,.417-1,1.323,1.323,0,0,1,.985-.417h4.854a1.316,1.316,0,0,1,1.007.417,1.381,1.381,0,0,1,.4,1,1.352,1.352,0,0,1-1.4,1.388Z" transform="translate(-24.083 -10.499)" fill="none" stroke="#fff" stroke-miterlimit="10" stroke-width="20"/>
    <path id="Path_10663" data-name="Path 10663" d="M112.055,20.728a1.934,1.934,0,0,1-1.438-.611,2.054,2.054,0,0,1,1.452-3.516h10.16a2.021,2.021,0,0,1,1.438.59,1.941,1.941,0,0,1,.611,1.438,2.085,2.085,0,0,1-2.078,2.085Zm9.132,11.793a2.035,2.035,0,0,1,1.51.626,2.071,2.071,0,0,1,.6,1.488v7.191a2.078,2.078,0,0,1-2.114,2.157h-4.926c-.093,0-.144.058-.144.18a1.079,1.079,0,0,1-.36.805,1.158,1.158,0,0,1-.827.345h-1.15a2.078,2.078,0,0,1-1.51-.611,2.049,2.049,0,0,1-.611-1.51V34.635a2.114,2.114,0,0,1,2.157-2.114Zm-.072-10.534a2,2,0,0,1,1.438,3.394,1.9,1.9,0,0,1-1.438.6h-7.334a1.877,1.877,0,0,1-1.438-.6,1.956,1.956,0,0,1-.575-1.438,1.934,1.934,0,0,1,.575-1.4,1.913,1.913,0,0,1,1.438-.575Zm-7.334,9.175a1.913,1.913,0,0,1-1.438-.575,1.934,1.934,0,0,1-.575-1.438,1.985,1.985,0,0,1,.575-1.438,1.87,1.87,0,0,1,1.438-.59h7.334a1.891,1.891,0,0,1,1.438.59,1.977,1.977,0,0,1,.568,1.438,1.949,1.949,0,0,1-2.006,2.013Zm7.37-19.774a1.891,1.891,0,0,1,1.438.59,2.013,2.013,0,0,1,0,2.8,1.9,1.9,0,0,1-1.438.6H113.96a1.877,1.877,0,0,1-1.438-.6,2,2,0,0,1,0-2.8,1.87,1.87,0,0,1,1.438-.59Zm-2.373,25.527a.223.223,0,0,0-.252-.252h-2.157a.223.223,0,0,0-.252.252V39.5c0,.194.086.288.252.288h2.157c.165,0,.252-.093.252-.288ZM145.153,23.87a2.157,2.157,0,0,1-2.121,2.121h-5.17a.223.223,0,0,0-.252.252v3.6a.223.223,0,0,0,.252.252h3.782a2.157,2.157,0,0,1,2.157,2.122V43.048l-.042.456-.583,1.054a2.107,2.107,0,0,1-1.5.611h-1.8a1.4,1.4,0,0,1-1.007-.417,1.352,1.352,0,0,1-.424-1.021.158.158,0,0,0-.18-.18h-6.694c-.122,0-.18.072-.18.216a1.438,1.438,0,0,1-.467,1.093,1.539,1.539,0,0,1-1.115.453h-1.366a2.078,2.078,0,0,1-1.488-.611,2.013,2.013,0,0,1-.633-1.51V32.2a2.157,2.157,0,0,1,2.121-2.121h3.308c.194,0,.288-.086.288-.252v-3.6c0-.165-.093-.252-.288-.252h-5.105a2.157,2.157,0,0,1-2.121-2.121v-.791a2.013,2.013,0,0,1,.633-1.488,2.042,2.042,0,0,1,1.488-.633h5.105c.194,0,.288-.079.288-.252V17.607c0-.194-.086-.28-.252-.252-1.028.115-2.157.216-3.272.288a.661.661,0,0,1-.18.036,2.323,2.323,0,0,1-1.438-.5,2.876,2.876,0,0,1-1.007-1.438l-.144-.467a1.661,1.661,0,0,1-.108-.575,1.524,1.524,0,0,1,.252-.827,1.438,1.438,0,0,1,1.151-.719,84.411,84.411,0,0,0,11.5-1.941,3.545,3.545,0,0,1,.863-.108,3.7,3.7,0,0,1,1.007.144,3.193,3.193,0,0,1,1.51,1.007l1.007,1.186a1.316,1.316,0,0,1,.324.863,1.294,1.294,0,0,1-.072.431,1.237,1.237,0,0,1-.935.9q-2.114.5-4.415.9a.3.3,0,0,0-.252.324v3.876a.216.216,0,0,0,.252.252h5.17a2.071,2.071,0,0,1,1.5.633,2.035,2.035,0,0,1,.626,1.488Zm-7,14.877a.223.223,0,0,0,.252-.252v-3.38c0-.187-.086-.288-.252-.288h-6.472c-.165,0-.252.1-.252.288V38.5a.223.223,0,0,0,.252.252Z" transform="translate(-38.1 -10.345)" fill="none" stroke="#fff" stroke-miterlimit="10" stroke-width="20"/>
    <path id="Path_10664" data-name="Path 10664" d="M166.045,22.787a2.013,2.013,0,0,1-.4.036,1.733,1.733,0,0,1-1.115-.4,1.769,1.769,0,0,1-.755-1.366L163.6,19.3v-.216a1.891,1.891,0,0,1,.5-1.287,1.949,1.949,0,0,1,1.438-.719q1.107-.043,1.618-.108l6.054-.5q5.587-.475,9.542-.827c2.438-.194,5.271-.374,8.478-.539h.108a1.884,1.884,0,0,1,1.4.575,2.114,2.114,0,0,1,.647,1.474v1.438a2.049,2.049,0,0,1-.611,1.488,2.157,2.157,0,0,1-1.51.662,30.524,30.524,0,0,0-4.854.4,8.873,8.873,0,0,0-5.156,3.451,9.635,9.635,0,0,0-2.157,6,6.141,6.141,0,0,0,2.488,5.292,14.316,14.316,0,0,0,6.745,2.394,1.675,1.675,0,0,1,1.222.755,1.582,1.582,0,0,1,.288.9,1.56,1.56,0,0,1-.108.539l-.719,2.121a2.775,2.775,0,0,1-1.079,1.438,2.3,2.3,0,0,1-1.294.4,2.876,2.876,0,0,1-.431,0,20.773,20.773,0,0,1-6.536-2.157,12.677,12.677,0,0,1-4.652-4.257,10.836,10.836,0,0,1-1.783-6.1,13.72,13.72,0,0,1,1.33-6.054,14.877,14.877,0,0,1,3.092-4.408v-.108a.043.043,0,0,0-.072-.036Q170.668,21.931,166.045,22.787Zm20.033,3.746a1.639,1.639,0,0,1-.216-.791,1.5,1.5,0,0,1,.072-.431,1.323,1.323,0,0,1,.791-.9,1.884,1.884,0,0,1,.791-.18,2.035,2.035,0,0,1,.647.108,1.913,1.913,0,0,1,1.115.863c.381.626.755,1.258,1.115,1.906a1.625,1.625,0,0,1,.18.755,2.252,2.252,0,0,1-.072.575,1.639,1.639,0,0,1-.935.971,1.97,1.97,0,0,1-.719.144,2.035,2.035,0,0,1-.647-.108,1.934,1.934,0,0,1-1.043-.935,21.323,21.323,0,0,0-1.079-1.977Zm4.242-1.69a1.524,1.524,0,0,1-.252-.827,1.217,1.217,0,0,1,.072-.4,1.438,1.438,0,0,1,.791-.935,2.064,2.064,0,0,1,.827-.18,2.625,2.625,0,0,1,.575.072,2.157,2.157,0,0,1,1.15.827c.4.6.791,1.2,1.15,1.8a1.661,1.661,0,0,1,.252.827,2.028,2.028,0,0,1-.072.5,1.64,1.64,0,0,1-.863,1.007,1.862,1.862,0,0,1-.791.18,1.977,1.977,0,0,1-1.69-1.007c-.36-.618-.741-1.244-1.15-1.841Z" transform="translate(-53.153 -11.469)" fill="none" stroke="#fff" stroke-miterlimit="10" stroke-width="20"/>
    <path id="Path_10665" data-name="Path 10665" d="M228.022,24.993v1.115c0,.194.093.266.288.216a29.137,29.137,0,0,1,6.141-.719,13.95,13.95,0,0,1,5.263.949,8.808,8.808,0,0,1,3.8,2.876,7.4,7.4,0,0,1,1.438,4.544,9.218,9.218,0,0,1-1.862,5.846q-1.877,2.387-6.328,3.5a22.188,22.188,0,0,1-2.8.431,1.927,1.927,0,0,1-.324,0,2.481,2.481,0,0,1-1.438-.431,2.912,2.912,0,0,1-1.115-1.438l-.611-1.726a2.029,2.029,0,0,1-.072-.5,1.611,1.611,0,0,1,.252-.863,1.481,1.481,0,0,1,1.258-.647,17.617,17.617,0,0,0,2.445-.252,7.715,7.715,0,0,0,3.523-1.381,3.2,3.2,0,0,0,1.33-2.646,2.955,2.955,0,0,0-1.258-2.466,5.947,5.947,0,0,0-3.538-.935,24.764,24.764,0,0,0-5.961.755c-.194.043-.28.151-.252.324q.137,5.242.144,6.141c0,2.423-.388,4.091-1.151,5.033a4.048,4.048,0,0,1-3.308,1.388,10.448,10.448,0,0,1-7.672-3.646,5.752,5.752,0,0,1-1.438-3.725,6.861,6.861,0,0,1,2.251-4.7,17.8,17.8,0,0,1,5.752-3.883.4.4,0,0,0,.252-.4c0-.575-.036-1.438-.036-2.553V23.34a.223.223,0,0,0-.252-.252h-4.53a2.107,2.107,0,0,1-1.51-.719,2.438,2.438,0,0,1-.647-1.568V19.723a1.776,1.776,0,0,1,.575-1.4,1.92,1.92,0,0,1,1.33-.532h.144c.841.043,1.891.072,3.164.072h1.474a.266.266,0,0,0,.252-.288V15.581l-.144-1.654a1.884,1.884,0,0,1,.539-1.33,1.74,1.74,0,0,1,1.4-.647h1.8a1.819,1.819,0,0,1,1.438.647,1.87,1.87,0,0,1,.467,1.258v.216c-.05.546-.086,1.028-.108,1.438l-.108,1.582a.237.237,0,0,0,.072.18.259.259,0,0,0,.18.072q2.085-.288,3.948-.719a2.158,2.158,0,0,1,.431-.036,1.589,1.589,0,0,1,1.007.36,1.647,1.647,0,0,1,.683,1.294v1.251a2.452,2.452,0,0,1-.539,1.639,2.244,2.244,0,0,1-1.438.877q-1.87.324-4.2.575a.295.295,0,0,0-.288.324A11.269,11.269,0,0,0,228.022,24.993Zm-5.9,13.044a1.035,1.035,0,0,0,.769-.266,1.74,1.74,0,0,0,.273-1.172c0-.288,0-1.33-.072-3.128a.137.137,0,0,0-.072-.137.129.129,0,0,0-.144,0q-2.7,1.6-2.7,3.121a1.366,1.366,0,0,0,.669,1.1A2.157,2.157,0,0,0,222.126,38.037Zm15.992-16.927a2.157,2.157,0,0,1-1.151-1.834,2.027,2.027,0,0,1,.252-.964l.36-.575a2.157,2.157,0,0,1,1.258-1.079,2.366,2.366,0,0,1,.683-.108,1.992,1.992,0,0,1,.971.252q3.157,1.539,5.6,2.977a2.157,2.157,0,0,1,.971,1.33,1.911,1.911,0,0,1,.072.539,2.092,2.092,0,0,1-.288,1.079l-.5.827a1.985,1.985,0,0,1-1.258.935,3.062,3.062,0,0,1-.46.036,1.934,1.934,0,0,1-1.079-.324c-1.647-1.007-3.444-2.035-5.465-3.092Z" transform="translate(-67.529 -10.584)" fill="none" stroke="#fff" stroke-miterlimit="10" stroke-width="20"/>
    <path id="Path_10666" data-name="Path 10666" d="M284.591,14.688c0,.187.079.288.252.288h10.275a2.078,2.078,0,0,1,1.5.611,2.013,2.013,0,0,1,.626,1.51v18.25a2.013,2.013,0,0,1-.626,1.51,2.078,2.078,0,0,1-1.5.611H293.1a1.438,1.438,0,0,1-1.043-.431,1.373,1.373,0,0,1-.431-1.007c0-.144-.058-.216-.18-.216h-6.608c-.173,0-.252.1-.252.288v6.759a2.013,2.013,0,0,1-.633,1.51,2.078,2.078,0,0,1-1.488.611H281.1a2.078,2.078,0,0,1-1.488-.611,2.013,2.013,0,0,1-.633-1.51V36.1c0-.187-.086-.288-.252-.288h-6.392a.194.194,0,0,0-.216.216,1.719,1.719,0,0,1-1.69,1.69h-1.546a2.157,2.157,0,0,1-2.157-2.157V17.1a2.014,2.014,0,0,1,.626-1.51,2.078,2.078,0,0,1,1.5-.611h9.844c.165,0,.252-.1.252-.288V12.171A2.157,2.157,0,0,1,281.1,10.05h1.366a2.157,2.157,0,0,1,2.121,2.121Zm-5.609,5.673c0-.187-.086-.288-.252-.288h-6.356c-.173,0-.252.1-.252.288v2.265c0,.194.079.288.252.288h6.356c.165,0,.252-.093.252-.288Zm-6.86,10.067c0,.187.079.288.252.288h6.356c.165,0,.252-.1.252-.288V28.091c0-.194-.086-.288-.252-.288h-6.356c-.173,0-.252.093-.252.288Zm19.508-10.067c0-.187-.079-.288-.252-.288h-6.536c-.173,0-.252.1-.252.288v2.265c0,.194.079.288.252.288h6.529c.173,0,.252-.093.252-.288Zm-7.04,10.067c0,.187.079.288.252.288h6.529c.173,0,.252-.1.252-.288V28.091c0-.194-.079-.288-.252-.288h-6.536c-.173,0-.252.093-.252.288Z" transform="translate(-82.126 -10.05)" fill="none" stroke="#fff" stroke-miterlimit="10" stroke-width="20"/>
    <path id="Path_10667" data-name="Path 10667" d="M323.933,14.935v-.252a1.748,1.748,0,0,1,.431-1.186,1.668,1.668,0,0,1,1.33-.647h.036l2.84.036a1.74,1.74,0,0,1,1.438.647,1.87,1.87,0,0,1,.467,1.258v.216c-.144,1.294-.237,2.43-.288,3.408q-.431,9.2-.431,15.74,0,4.609,4.494,4.6,6.428,0,10.887-5.673a1.575,1.575,0,0,1,1.294-.647h.072a1.56,1.56,0,0,1,1.222.575l1.33,1.611a2.725,2.725,0,0,1,.647,1.762,2.38,2.38,0,0,1-.575,1.582,18.165,18.165,0,0,1-2.517,2.466,22.748,22.748,0,0,1-3.25,2.157,17.48,17.48,0,0,1-4.329,1.611,20.206,20.206,0,0,1-4.918.6q-4.926,0-7.636-2.3t-2.718-6.939q0-2.545.165-9.269t.158-7.874A27.4,27.4,0,0,0,323.933,14.935Z" transform="translate(-98.148 -10.837)" fill="none" stroke="#fff" stroke-miterlimit="10" stroke-width="20"/>
    <path id="Path_10668" data-name="Path 10668" d="M373.471,24.8a2.049,2.049,0,0,1,1.488.611,2.013,2.013,0,0,1,.633,1.51v9.161a.848.848,0,0,0,.144.5q1.9,2.876,7.327,3.092,2.7.137,5.537.144,5.069,0,10.527-.36h.108a1.237,1.237,0,0,1,1.043.539,1.223,1.223,0,0,1,.288.791,1.188,1.188,0,0,1-.108.467l-.431,1.438a3.006,3.006,0,0,1-.971,1.546,2.438,2.438,0,0,1-1.618.611c-2.8.115-5.422.18-7.866.18s-4.58-.05-6.615-.144a18.947,18.947,0,0,1-5.587-.971,9.844,9.844,0,0,1-3.969-2.768c-.122-.144-.237-.158-.36-.036q-1.726,1.51-3.2,2.732a1.632,1.632,0,0,1-1.007.36,2.243,2.243,0,0,1-.4-.036,1.639,1.639,0,0,1-1.151-.935l-.791-1.726a2.273,2.273,0,0,1-.216-.971,2.773,2.773,0,0,1,.108-.719,2.467,2.467,0,0,1,1.043-1.294q1.481-.9,2.7-1.762a.532.532,0,0,0,.216-.431V29.948a.223.223,0,0,0-.252-.252h-1.4a2.157,2.157,0,0,1-2.121-2.121v-.719a2.014,2.014,0,0,1,.633-1.51,2.049,2.049,0,0,1,1.488-.611Zm1.546-9.52a1.834,1.834,0,0,1,.575,1.33.719.719,0,0,1-.036.18,2.063,2.063,0,0,1-.755,1.438l-1.007.82a1.927,1.927,0,0,1-1.258.467.849.849,0,0,1-.252,0,1.963,1.963,0,0,1-1.4-.755A31.851,31.851,0,0,0,368.042,16a1.726,1.726,0,0,1-.611-1.33,1.64,1.64,0,0,1,.647-1.366l.719-.539a2.747,2.747,0,0,1,1.654-.611h.072a2.4,2.4,0,0,1,1.582.575,34.575,34.575,0,0,1,2.912,2.553Zm9.664,6a1.438,1.438,0,0,1,.6-.913,1.474,1.474,0,0,1,1.057-.273.173.173,0,0,0,.129-.05v-.093c-.122-.884-.216-1.8-.288-2.725,0-.173-.094-.252-.288-.252h-3.847a2.042,2.042,0,0,1-1.51-.633,2.078,2.078,0,0,1-.611-1.488v-.827a2.107,2.107,0,0,1,.611-1.5,2.035,2.035,0,0,1,1.51-.626h6.579a2.107,2.107,0,0,1,1.51.626,2.323,2.323,0,0,1,.719,1.5,49.978,49.978,0,0,0,.662,6.09,35.049,35.049,0,0,0,1.388,5.371,17.191,17.191,0,0,0,2.438,4.71,16.05,16.05,0,0,0,3.631,3.552,1.51,1.51,0,0,1,.216,2.409c-.381.388-.762.769-1.151,1.15a2.6,2.6,0,0,1-1.51.827h-.359a2.157,2.157,0,0,1-1.251-.4,20.3,20.3,0,0,1-6.472-9.269.115.115,0,0,0-.216,0,23.5,23.5,0,0,1-6.256,9.2,2.1,2.1,0,0,1-1.33.467h-.252a2.517,2.517,0,0,1-1.5-.755L377.806,36.3a1.561,1.561,0,0,1-.539-1.186,1.69,1.69,0,0,1,.683-1.438Q383.07,29.732,384.681,21.276Z" transform="translate(-110.094 -10.57)" fill="none" stroke="#fff" stroke-miterlimit="10" stroke-width="20"/>
    <path id="Path_10669" data-name="Path 10669" d="M449.95,31.065a2.531,2.531,0,0,1,1.079,1.366,2.79,2.79,0,0,1-.072,1.755l-.935,2.229a1.438,1.438,0,0,1-1.043.9,1.97,1.97,0,0,1-.4.036,1.438,1.438,0,0,1-.971-.36c-.36-.288-.683-.546-.971-.791q-.216-.144-.324.108a17.977,17.977,0,0,1-7.04,7.91,2.876,2.876,0,0,1-1.51.431h-.288a3.042,3.042,0,0,1-1.69-.683l-1.438-1.186a1.237,1.237,0,0,1-.467-.971v-.216a1.316,1.316,0,0,1,.719-1.043,15.424,15.424,0,0,0,7.119-7.291.28.28,0,0,0-.144-.4,25.368,25.368,0,0,0-7-2.517.309.309,0,0,0-.359.216,72.157,72.157,0,0,1-3.883,8.01,8.248,8.248,0,0,1-2.7,2.718,7.039,7.039,0,0,1-3.6.877,5.932,5.932,0,0,1-4.372-1.7A6.414,6.414,0,0,1,418,35.732a9.2,9.2,0,0,1,3.466-7.191,14.9,14.9,0,0,1,8.895-3.38.446.446,0,0,0,.359-.252c1.294-3.02,2.035-4.717,2.229-5.105a.18.18,0,0,0-.18-.252q-3.372.108-5.249.216c-.259,0-.6.05-1.007.072a.567.567,0,0,1-.216.036,1.92,1.92,0,0,1-1.294-.5,1.841,1.841,0,0,1-.676-1.395l-.072-1.366a1.754,1.754,0,0,1,.575-1.438,1.912,1.912,0,0,1,1.359-.539h.108c.431,0,.791.036,1.079.036q4.235,0,7.334-.252a5.938,5.938,0,0,0,.827-.108,7.478,7.478,0,0,1,1.043-.072,4.235,4.235,0,0,1,2.661.827l.18.144a1.992,1.992,0,0,1,.719,1.366v.216a2.5,2.5,0,0,1-.388,1.366l-.036.036a66.665,66.665,0,0,0-3.2,7.076c-.072.165,0,.266.144.288a34.989,34.989,0,0,1,6.141,1.834c.173.072.266,0,.288-.144V27.1q.108-1.158.108-2.157a2.013,2.013,0,0,1,.575-1.474,1.647,1.647,0,0,1,1.186-.5.719.719,0,0,1,.216.036l1.582.18a2.157,2.157,0,0,1,1.438.791,2.02,2.02,0,0,1,.539,1.366.445.445,0,0,1-.036.18,40.271,40.271,0,0,1-.467,4.206.352.352,0,0,0,.18.4ZM424.15,36.2c.6,0,1.172-.417,1.719-1.258a39.071,39.071,0,0,0,2.337-4.415.122.122,0,0,0,0-.144.129.129,0,0,0-.165,0,7.514,7.514,0,0,0-3.6,1.812,3.725,3.725,0,0,0-1.309,2.675,1.567,1.567,0,0,0,.288.971A.849.849,0,0,0,424.15,36.2Z" transform="translate(-124.62 -11.226)" fill="none" stroke="#fff" stroke-miterlimit="10" stroke-width="20"/>
    <path id="Path_10670" data-name="Path 10670" d="M23.3,25.006v1.115c0,.194.093.266.288.216a29.251,29.251,0,0,1,6.148-.719,13.95,13.95,0,0,1,5.264.949,8.744,8.744,0,0,1,3.789,2.876,7.4,7.4,0,0,1,1.438,4.544,9.225,9.225,0,0,1-1.87,5.846q-1.862,2.366-6.321,3.5a22.19,22.19,0,0,1-2.8.431,1.926,1.926,0,0,1-.324,0,2.481,2.481,0,0,1-1.4-.431A2.912,2.912,0,0,1,26.387,41.9l-.611-1.726a1.74,1.74,0,0,1-.072-.5,1.611,1.611,0,0,1,.252-.863,1.474,1.474,0,0,1,1.258-.647,17.739,17.739,0,0,0,2.445-.252,7.687,7.687,0,0,0,3.516-1.381,3.185,3.185,0,0,0,1.33-2.646A2.948,2.948,0,0,0,33.2,31.413a5.983,5.983,0,0,0-3.538-.935,24.822,24.822,0,0,0-6,.748c-.194.043-.273.151-.252.324q.137,5.242.144,6.141,0,3.638-1.15,5.033A4.048,4.048,0,0,1,19.1,44.112a9.865,9.865,0,0,1-4.063-.978,9.9,9.9,0,0,1-3.6-2.689A5.709,5.709,0,0,1,10,36.72a6.85,6.85,0,0,1,2.243-4.7A17.883,17.883,0,0,1,18,28.134a.388.388,0,0,0,.252-.4c0-.575-.036-1.438-.036-2.553V23.353a.223.223,0,0,0-.244-.252h-4.53a2.078,2.078,0,0,1-1.51-.719,2.366,2.366,0,0,1-.647-1.568V19.736a1.754,1.754,0,0,1,.575-1.4,1.905,1.905,0,0,1,1.33-.532h.144c.834.043,1.891.072,3.164.072h1.474a.259.259,0,0,0,.244-.288V15.594l-.072-1.618a1.884,1.884,0,0,1,.489-1.366A1.74,1.74,0,0,1,20.067,12h1.8a1.8,1.8,0,0,1,1.438.647A1.87,1.87,0,0,1,23.77,13.9v.216c-.05.546-.086,1.028-.108,1.438l-.108,1.582a.237.237,0,0,0,.072.18.266.266,0,0,0,.18.072c1.388-.194,2.711-.431,3.955-.719a2.157,2.157,0,0,1,.431-.036A1.6,1.6,0,0,1,29.2,17a1.668,1.668,0,0,1,.719,1.294v1.251a2.452,2.452,0,0,1-.539,1.639,2.279,2.279,0,0,1-1.474.877q-1.862.324-4.206.575a.295.295,0,0,0-.288.324A10.489,10.489,0,0,0,23.3,25.006ZM17.37,38.05a1.043,1.043,0,0,0,.769-.266,1.747,1.747,0,0,0,.266-1.172c0-.288,0-1.33-.072-3.128a.137.137,0,0,0-.072-.137.129.129,0,0,0-.144,0q-2.682,1.611-2.689,3.1a1.359,1.359,0,0,0,.662,1.1,2.157,2.157,0,0,0,1.28.5ZM33.355,21.123a2.157,2.157,0,0,1-1.143-1.834,1.949,1.949,0,0,1,.252-.964l.36-.575a2.157,2.157,0,0,1,1.251-1.079,2.4,2.4,0,0,1,.719-.108,1.956,1.956,0,0,1,.971.252q3.157,1.539,5.609,2.977a2.157,2.157,0,0,1,.971,1.33,1.913,1.913,0,0,1,.072.539,2.092,2.092,0,0,1-.288,1.079l-.5.827a1.985,1.985,0,0,1-1.258.935,3.164,3.164,0,0,1-.467.036,1.97,1.97,0,0,1-1.136-.316Q36.375,22.705,33.355,21.123Z" transform="translate(-10 -10.596)" fill="none" stroke="#034baf" stroke-miterlimit="10" stroke-width="10"/>
    <path id="Path_10671" data-name="Path 10671" d="M65.07,19.876c-.187,0-.288.086-.288.252v1.841a2.085,2.085,0,0,1-2.157,2.121h-.431a2.064,2.064,0,0,1-1.438-.582A2.013,2.013,0,0,1,60.13,22V18.51A2.157,2.157,0,0,1,62.287,16.4H73.7a.223.223,0,0,0,.252-.252v-.36a.223.223,0,0,0-.252-.252H64.76a1.862,1.862,0,0,1-1.381-.575,1.941,1.941,0,0,1,0-2.732,1.862,1.862,0,0,1,1.381-.575H88.41a1.934,1.934,0,0,1,1.366,3.308,1.884,1.884,0,0,1-1.366.575H79.451a.223.223,0,0,0-.252.252v.36a.223.223,0,0,0,.252.252H91.207a2.157,2.157,0,0,1,2.114,2.114v3.459a2.013,2.013,0,0,1-.626,1.51,2.049,2.049,0,0,1-1.488.611h-.719a2.085,2.085,0,0,1-2.157-2.121V20.1c0-.165-.1-.252-.288-.252H79.451a.223.223,0,0,0-.252.252v4.89a2.114,2.114,0,0,1-2.114,2.121H76.078a2.064,2.064,0,0,1-1.5-.611,2.035,2.035,0,0,1-.626-1.51V20.1a.223.223,0,0,0-.252-.252ZM81.313,41.448h6.328a2.948,2.948,0,0,0,1.381-.252,1.575,1.575,0,0,0,.719-.971,1.841,1.841,0,0,1,.884-1.079,1.335,1.335,0,0,1,1.33-.072c.144.05.295.1.467.144a2.783,2.783,0,0,1,1.409,1.035,1.97,1.97,0,0,1,.324,1.079,1.74,1.74,0,0,1-.072.5,4.429,4.429,0,0,1-1.9,2.819,8.305,8.305,0,0,1-4.106.777H80.824c-2.661,0-4.494-.345-5.515-1.028s-1.575-1.97-1.668-3.861a.223.223,0,0,0-.252-.252h-4.53c-.093,0-.144.058-.144.18a1.237,1.237,0,0,1-.374.913,1.309,1.309,0,0,1-.956.381H65.7a2.013,2.013,0,0,1-1.488-.633,2.042,2.042,0,0,1-.633-1.488v-9.52a2.021,2.021,0,0,1,.633-1.51A2.049,2.049,0,0,1,65.7,28H87.44A2.085,2.085,0,0,1,89.6,30.158v8.01a2.107,2.107,0,0,1-.611,1.5,2.035,2.035,0,0,1-1.51.626H79.063a.237.237,0,0,0-.18.072.266.266,0,0,0-.072.18.956.956,0,0,0,.647.719,7.119,7.119,0,0,0,1.87.18ZM66.652,27.066a1.316,1.316,0,0,1-.971-.4,1.373,1.373,0,0,1-.4-.992,1.438,1.438,0,0,1,.4-1,1.287,1.287,0,0,1,.971-.417h4.89a1.323,1.323,0,0,1,.985.417,1.345,1.345,0,0,1,.453,1,1.309,1.309,0,0,1-.417.992,1.359,1.359,0,0,1-.985.4Zm4.89-6.4a1.352,1.352,0,0,1,.985.417,1.309,1.309,0,0,1,.453.971,1.33,1.33,0,0,1-.417.971,1.345,1.345,0,0,1-1.021.381H67.3A1.3,1.3,0,0,1,66.35,23a1.33,1.33,0,0,1-.417-.971A1.438,1.438,0,0,1,67.3,20.638Zm2.085,11.109c0-.194-.086-.288-.252-.288H68.967c-.165,0-.252.093-.252.288v.575c0,.187.086.288.252.288h4.422c.165,0,.252-.1.252-.288Zm-4.674,3.912a.223.223,0,0,0-.252.252v.575c0,.194.086.288.252.288h4.422c.165,0,.252-.093.252-.288V35.94a.223.223,0,0,0-.252-.252Zm15.021-3.049a.252.252,0,0,0,.288-.288v-.575a.252.252,0,0,0-.288-.288H79.012a.252.252,0,0,0-.288.288v.575a.259.259,0,0,0,.288.288Zm-5.242,3.876a.252.252,0,0,0,.288.288h4.962a.252.252,0,0,0,.288-.288V35.94c0-.165-.093-.252-.288-.252H79.019c-.187,0-.288.086-.288.252Zm1.891-13.49a1.33,1.33,0,0,1-.417-.971,1.309,1.309,0,0,1,.417-.971,1.352,1.352,0,0,1,.985-.417h4.027a1.352,1.352,0,0,1,.985.417,1.309,1.309,0,0,1,.417.971,1.33,1.33,0,0,1-.4.971,1.345,1.345,0,0,1-.985.41H81.608a1.345,1.345,0,0,1-.978-.41Zm.985,4.041a1.359,1.359,0,0,1-.985-.4,1.309,1.309,0,0,1-.417-.992,1.345,1.345,0,0,1,.417-1,1.323,1.323,0,0,1,.985-.417h4.854a1.316,1.316,0,0,1,1.007.417,1.381,1.381,0,0,1,.4,1,1.352,1.352,0,0,1-1.4,1.388Z" transform="translate(-24.083 -10.499)" fill="none" stroke="#034baf" stroke-miterlimit="10" stroke-width="10"/>
    <path id="Path_10672" data-name="Path 10672" d="M112.055,20.728a1.934,1.934,0,0,1-1.438-.611,2.054,2.054,0,0,1,1.452-3.516h10.16a2.021,2.021,0,0,1,1.438.59,1.941,1.941,0,0,1,.611,1.438,2.085,2.085,0,0,1-2.078,2.085Zm9.132,11.793a2.035,2.035,0,0,1,1.51.626,2.071,2.071,0,0,1,.6,1.488v7.191a2.078,2.078,0,0,1-2.114,2.157h-4.926c-.093,0-.144.058-.144.18a1.079,1.079,0,0,1-.36.805,1.158,1.158,0,0,1-.827.345h-1.15a2.078,2.078,0,0,1-1.51-.611,2.049,2.049,0,0,1-.611-1.51V34.635a2.114,2.114,0,0,1,2.157-2.114Zm-.072-10.534a2,2,0,0,1,1.438,3.394,1.9,1.9,0,0,1-1.438.6h-7.334a1.877,1.877,0,0,1-1.438-.6,1.956,1.956,0,0,1-.575-1.438,1.934,1.934,0,0,1,.575-1.4,1.913,1.913,0,0,1,1.438-.575Zm-7.334,9.175a1.913,1.913,0,0,1-1.438-.575,1.934,1.934,0,0,1-.575-1.438,1.985,1.985,0,0,1,.575-1.438,1.87,1.87,0,0,1,1.438-.59h7.334a1.891,1.891,0,0,1,1.438.59,1.977,1.977,0,0,1,.568,1.438,1.949,1.949,0,0,1-2.006,2.013Zm7.37-19.774a1.891,1.891,0,0,1,1.438.59,2.013,2.013,0,0,1,0,2.8,1.9,1.9,0,0,1-1.438.6H113.96a1.877,1.877,0,0,1-1.438-.6,2,2,0,0,1,0-2.8,1.87,1.87,0,0,1,1.438-.59Zm-2.373,25.527a.223.223,0,0,0-.252-.252h-2.157a.223.223,0,0,0-.252.252V39.5c0,.194.086.288.252.288h2.157c.165,0,.252-.093.252-.288ZM145.153,23.87a2.157,2.157,0,0,1-2.121,2.121h-5.17a.223.223,0,0,0-.252.252v3.6a.223.223,0,0,0,.252.252h3.782a2.157,2.157,0,0,1,2.157,2.122V43.048a2.035,2.035,0,0,1-.626,1.51,2.107,2.107,0,0,1-1.5.611h-1.8a1.4,1.4,0,0,1-1.007-.417,1.352,1.352,0,0,1-.424-1.021.158.158,0,0,0-.18-.18h-6.694c-.122,0-.18.072-.18.216a1.438,1.438,0,0,1-.467,1.093,1.539,1.539,0,0,1-1.115.453h-1.366a2.078,2.078,0,0,1-1.488-.611,2.013,2.013,0,0,1-.633-1.51V32.2a2.157,2.157,0,0,1,2.121-2.121h3.308c.194,0,.288-.086.288-.252v-3.6c0-.165-.093-.252-.288-.252h-5.105a2.157,2.157,0,0,1-2.121-2.121v-.791a2.013,2.013,0,0,1,.633-1.488,2.042,2.042,0,0,1,1.488-.633h5.105c.194,0,.288-.079.288-.252V17.607c0-.194-.086-.28-.252-.252-1.028.115-2.157.216-3.272.288a.661.661,0,0,1-.18.036,2.323,2.323,0,0,1-1.438-.5,2.876,2.876,0,0,1-1.007-1.438l-.144-.467a1.661,1.661,0,0,1-.108-.575,1.524,1.524,0,0,1,.252-.827,1.438,1.438,0,0,1,1.151-.719,84.411,84.411,0,0,0,11.5-1.941,3.545,3.545,0,0,1,.863-.108,3.7,3.7,0,0,1,1.007.144,3.193,3.193,0,0,1,1.51,1.007l1.007,1.186a1.316,1.316,0,0,1,.324.863,1.294,1.294,0,0,1-.072.431,1.237,1.237,0,0,1-.935.9q-2.114.5-4.415.9a.3.3,0,0,0-.252.324v3.876a.216.216,0,0,0,.252.252h5.17a2.071,2.071,0,0,1,1.5.633,2.035,2.035,0,0,1,.626,1.488Zm-7,14.877a.223.223,0,0,0,.252-.252v-3.38c0-.187-.086-.288-.252-.288h-6.472c-.165,0-.252.1-.252.288V38.5a.223.223,0,0,0,.252.252Z" transform="translate(-38.1 -10.345)" fill="none" stroke="#034baf" stroke-miterlimit="10" stroke-width="10"/>
    <path id="Path_10673" data-name="Path 10673" d="M166.045,22.787a2.013,2.013,0,0,1-.4.036,1.733,1.733,0,0,1-1.115-.4,1.769,1.769,0,0,1-.755-1.366L163.6,19.3v-.216a1.891,1.891,0,0,1,.5-1.287,1.949,1.949,0,0,1,1.438-.719q1.107-.043,1.618-.108l6.054-.5q5.587-.475,9.542-.827c2.438-.194,5.271-.374,8.478-.539h.108a1.884,1.884,0,0,1,1.4.575,2.114,2.114,0,0,1,.647,1.474v1.438a2.049,2.049,0,0,1-.611,1.488,2.157,2.157,0,0,1-1.51.662,30.524,30.524,0,0,0-4.854.4,8.873,8.873,0,0,0-5.156,3.451,9.635,9.635,0,0,0-2.157,6,6.141,6.141,0,0,0,2.488,5.292,14.316,14.316,0,0,0,6.745,2.394,1.675,1.675,0,0,1,1.222.755,1.582,1.582,0,0,1,.288.9,1.56,1.56,0,0,1-.108.539l-.719,2.121a2.775,2.775,0,0,1-1.079,1.438,2.3,2.3,0,0,1-1.294.4,2.876,2.876,0,0,1-.431,0,20.773,20.773,0,0,1-6.536-2.157,12.677,12.677,0,0,1-4.652-4.257,10.836,10.836,0,0,1-1.783-6.1,13.72,13.72,0,0,1,1.33-6.054,14.877,14.877,0,0,1,3.092-4.408v-.108a.043.043,0,0,0-.072-.036Q170.668,21.931,166.045,22.787Zm20.033,3.746a1.639,1.639,0,0,1-.216-.791,1.5,1.5,0,0,1,.072-.431,1.323,1.323,0,0,1,.791-.9,1.884,1.884,0,0,1,.791-.18,2.035,2.035,0,0,1,.647.108,1.913,1.913,0,0,1,1.115.863c.381.626.755,1.258,1.115,1.906a1.625,1.625,0,0,1,.18.755,2.252,2.252,0,0,1-.072.575,1.639,1.639,0,0,1-.935.971,1.97,1.97,0,0,1-.719.144,2.035,2.035,0,0,1-.647-.108,1.934,1.934,0,0,1-1.043-.935,21.323,21.323,0,0,0-1.079-1.977Zm4.242-1.69a1.524,1.524,0,0,1-.252-.827,1.217,1.217,0,0,1,.072-.4,1.438,1.438,0,0,1,.791-.935,2.064,2.064,0,0,1,.827-.18,2.625,2.625,0,0,1,.575.072,2.157,2.157,0,0,1,1.15.827c.4.6.791,1.2,1.15,1.8a1.661,1.661,0,0,1,.252.827,2.028,2.028,0,0,1-.072.5,1.64,1.64,0,0,1-.863,1.007,1.862,1.862,0,0,1-.791.18,1.977,1.977,0,0,1-1.69-1.007c-.36-.618-.741-1.244-1.15-1.841Z" transform="translate(-53.153 -11.469)" fill="none" stroke="#034baf" stroke-miterlimit="10" stroke-width="10"/>
    <path id="Path_10674" data-name="Path 10674" d="M228.022,24.993v1.115c0,.194.093.266.288.216a29.137,29.137,0,0,1,6.141-.719,13.95,13.95,0,0,1,5.263.949,8.808,8.808,0,0,1,3.8,2.876,7.4,7.4,0,0,1,1.438,4.544,9.218,9.218,0,0,1-1.862,5.846q-1.877,2.387-6.328,3.5a22.188,22.188,0,0,1-2.8.431,1.927,1.927,0,0,1-.324,0,2.481,2.481,0,0,1-1.438-.431,2.912,2.912,0,0,1-1.115-1.438l-.611-1.726a2.029,2.029,0,0,1-.072-.5,1.611,1.611,0,0,1,.252-.863,1.481,1.481,0,0,1,1.258-.647,17.617,17.617,0,0,0,2.445-.252,7.715,7.715,0,0,0,3.523-1.381,3.2,3.2,0,0,0,1.33-2.646,2.955,2.955,0,0,0-1.258-2.466,5.947,5.947,0,0,0-3.538-.935,24.764,24.764,0,0,0-5.961.755c-.194.043-.28.151-.252.324q.137,5.242.144,6.141c0,2.423-.388,4.091-1.151,5.033a4.048,4.048,0,0,1-3.308,1.388,10.448,10.448,0,0,1-7.672-3.646,5.752,5.752,0,0,1-1.438-3.725,6.861,6.861,0,0,1,2.251-4.7,17.8,17.8,0,0,1,5.752-3.883.4.4,0,0,0,.252-.4c0-.575-.036-1.438-.036-2.553V23.34a.223.223,0,0,0-.252-.252h-4.53a2.107,2.107,0,0,1-1.51-.719,2.438,2.438,0,0,1-.647-1.568V19.723a1.776,1.776,0,0,1,.575-1.4,1.92,1.92,0,0,1,1.33-.532h.144c.841.043,1.891.072,3.164.072h1.474a.266.266,0,0,0,.252-.288V15.581l-.144-1.654a1.884,1.884,0,0,1,.539-1.33,1.74,1.74,0,0,1,1.4-.647h1.8a1.819,1.819,0,0,1,1.438.647,1.87,1.87,0,0,1,.467,1.258v.216c-.05.546-.086,1.028-.108,1.438l-.108,1.582a.237.237,0,0,0,.072.18.259.259,0,0,0,.18.072q2.085-.288,3.948-.719a2.158,2.158,0,0,1,.431-.036,1.589,1.589,0,0,1,1.007.36,1.647,1.647,0,0,1,.683,1.294v1.251a2.452,2.452,0,0,1-.539,1.639,2.244,2.244,0,0,1-1.438.877q-1.87.324-4.2.575a.295.295,0,0,0-.288.324A11.269,11.269,0,0,0,228.022,24.993Zm-5.9,13.044a1.035,1.035,0,0,0,.769-.266,1.74,1.74,0,0,0,.273-1.172c0-.288,0-1.33-.072-3.128a.137.137,0,0,0-.072-.137.129.129,0,0,0-.144,0q-2.7,1.6-2.7,3.121a1.366,1.366,0,0,0,.669,1.1A2.157,2.157,0,0,0,222.126,38.037Zm15.992-16.927a2.157,2.157,0,0,1-1.151-1.834,2.027,2.027,0,0,1,.252-.964l.36-.575a2.157,2.157,0,0,1,1.258-1.079,2.366,2.366,0,0,1,.683-.108,1.992,1.992,0,0,1,.971.252q3.157,1.539,5.6,2.977a2.157,2.157,0,0,1,.971,1.33,1.911,1.911,0,0,1,.072.539,2.092,2.092,0,0,1-.288,1.079l-.5.827a1.985,1.985,0,0,1-1.258.935,3.062,3.062,0,0,1-.46.036,1.934,1.934,0,0,1-1.079-.324c-1.647-1.007-3.444-2.035-5.465-3.092Z" transform="translate(-67.529 -10.584)" fill="none" stroke="#034baf" stroke-miterlimit="10" stroke-width="10"/>
    <path id="Path_10675" data-name="Path 10675" d="M284.591,14.688c0,.187.079.288.252.288h10.275a2.078,2.078,0,0,1,1.5.611,2.013,2.013,0,0,1,.626,1.51v18.25a2.013,2.013,0,0,1-.626,1.51,2.078,2.078,0,0,1-1.5.611H293.1a1.438,1.438,0,0,1-1.043-.431,1.373,1.373,0,0,1-.431-1.007c0-.144-.058-.216-.18-.216h-6.608c-.173,0-.252.1-.252.288v6.759a2.013,2.013,0,0,1-.633,1.51,2.078,2.078,0,0,1-1.488.611H281.1a2.078,2.078,0,0,1-1.488-.611,2.013,2.013,0,0,1-.633-1.51V36.1c0-.187-.086-.288-.252-.288h-6.392a.194.194,0,0,0-.216.216,1.719,1.719,0,0,1-1.69,1.69h-1.546a2.157,2.157,0,0,1-2.157-2.157V17.1a2.014,2.014,0,0,1,.626-1.51,2.078,2.078,0,0,1,1.5-.611h9.844c.165,0,.252-.1.252-.288V12.171A2.157,2.157,0,0,1,281.1,10.05h1.366a2.157,2.157,0,0,1,2.121,2.121Zm-5.609,5.673c0-.187-.086-.288-.252-.288h-6.356c-.173,0-.252.1-.252.288v2.265c0,.194.079.288.252.288h6.356c.165,0,.252-.093.252-.288Zm-6.86,10.067c0,.187.079.288.252.288h6.356c.165,0,.252-.1.252-.288V28.091c0-.194-.086-.288-.252-.288h-6.356c-.173,0-.252.093-.252.288Zm19.508-10.067c0-.187-.079-.288-.252-.288h-6.536c-.173,0-.252.1-.252.288v2.265c0,.194.079.288.252.288h6.529c.173,0,.252-.093.252-.288Zm-7.04,10.067c0,.187.079.288.252.288h6.529c.173,0,.252-.1.252-.288V28.091c0-.194-.079-.288-.252-.288h-6.536c-.173,0-.252.093-.252.288Z" transform="translate(-82.126 -10.05)" fill="none" stroke="#034baf" stroke-miterlimit="10" stroke-width="10"/>
    <path id="Path_10676" data-name="Path 10676" d="M323.933,14.935v-.252a1.748,1.748,0,0,1,.431-1.186,1.668,1.668,0,0,1,1.33-.647h.036l2.84.036a1.74,1.74,0,0,1,1.438.647,1.87,1.87,0,0,1,.467,1.258v.216c-.144,1.294-.237,2.43-.288,3.408q-.431,9.2-.431,15.74,0,4.609,4.494,4.6,6.428,0,10.887-5.673a1.575,1.575,0,0,1,1.294-.647h.072a1.56,1.56,0,0,1,1.222.575l1.33,1.611a2.725,2.725,0,0,1,.647,1.762,2.38,2.38,0,0,1-.575,1.582,18.165,18.165,0,0,1-2.517,2.466,22.748,22.748,0,0,1-3.25,2.157,17.48,17.48,0,0,1-4.329,1.611,20.206,20.206,0,0,1-4.918.6q-4.926,0-7.636-2.3t-2.718-6.939q0-2.545.165-9.269t.158-7.874A27.4,27.4,0,0,0,323.933,14.935Z" transform="translate(-98.148 -10.837)" fill="none" stroke="#034baf" stroke-miterlimit="10" stroke-width="10"/>
    <path id="Path_10677" data-name="Path 10677" d="M373.471,24.8a2.049,2.049,0,0,1,1.488.611,2.013,2.013,0,0,1,.633,1.51v9.161a.848.848,0,0,0,.144.5q1.9,2.876,7.327,3.092,2.7.137,5.537.144,5.069,0,10.527-.36h.108a1.237,1.237,0,0,1,1.043.539,1.223,1.223,0,0,1,.288.791,1.188,1.188,0,0,1-.108.467l-.431,1.438a3.006,3.006,0,0,1-.971,1.546,2.438,2.438,0,0,1-1.618.611c-2.8.115-5.422.18-7.866.18s-4.58-.05-6.615-.144a18.947,18.947,0,0,1-5.587-.971,9.844,9.844,0,0,1-3.969-2.768c-.122-.144-.237-.158-.36-.036q-1.726,1.51-3.2,2.732a1.632,1.632,0,0,1-1.007.36,2.243,2.243,0,0,1-.4-.036,1.639,1.639,0,0,1-1.151-.935l-.791-1.726a2.273,2.273,0,0,1-.216-.971,2.773,2.773,0,0,1,.108-.719,2.467,2.467,0,0,1,1.043-1.294q1.481-.9,2.7-1.762a.532.532,0,0,0,.216-.431V29.948a.223.223,0,0,0-.252-.252h-1.4a2.157,2.157,0,0,1-2.121-2.121v-.719a2.014,2.014,0,0,1,.633-1.51,2.049,2.049,0,0,1,1.488-.611Zm1.546-9.52a1.834,1.834,0,0,1,.575,1.33.719.719,0,0,1-.036.18,2.063,2.063,0,0,1-.755,1.438l-1.007.82a1.927,1.927,0,0,1-1.258.467.849.849,0,0,1-.252,0,1.963,1.963,0,0,1-1.4-.755A31.851,31.851,0,0,0,368.042,16a1.726,1.726,0,0,1-.611-1.33,1.64,1.64,0,0,1,.647-1.366l.719-.539a2.747,2.747,0,0,1,1.654-.611h.072a2.4,2.4,0,0,1,1.582.575,34.575,34.575,0,0,1,2.912,2.553Zm9.664,6a1.438,1.438,0,0,1,.6-.913,1.474,1.474,0,0,1,1.057-.273.173.173,0,0,0,.129-.05v-.093c-.122-.884-.216-1.8-.288-2.725,0-.173-.094-.252-.288-.252h-3.847a2.042,2.042,0,0,1-1.51-.633,2.078,2.078,0,0,1-.611-1.488v-.827a2.107,2.107,0,0,1,.611-1.5,2.035,2.035,0,0,1,1.51-.626h6.579a2.107,2.107,0,0,1,1.51.626,2.323,2.323,0,0,1,.719,1.5,49.978,49.978,0,0,0,.662,6.09,35.049,35.049,0,0,0,1.388,5.371,17.191,17.191,0,0,0,2.438,4.71,16.05,16.05,0,0,0,3.631,3.552,1.51,1.51,0,0,1,.216,2.409c-.381.388-.762.769-1.151,1.15a2.6,2.6,0,0,1-1.51.827h-.359a2.157,2.157,0,0,1-1.251-.4,20.3,20.3,0,0,1-6.472-9.269.115.115,0,0,0-.216,0,23.5,23.5,0,0,1-6.256,9.2,2.1,2.1,0,0,1-1.33.467h-.252a2.517,2.517,0,0,1-1.5-.755L377.806,36.3a1.561,1.561,0,0,1-.539-1.186,1.69,1.69,0,0,1,.683-1.438Q383.07,29.732,384.681,21.276Z" transform="translate(-110.094 -10.57)" fill="none" stroke="#034baf" stroke-miterlimit="10" stroke-width="10"/>
    <path id="Path_10678" data-name="Path 10678" d="M449.95,31.065a2.531,2.531,0,0,1,1.079,1.366,2.79,2.79,0,0,1-.072,1.755l-.935,2.229a1.438,1.438,0,0,1-1.043.9,1.97,1.97,0,0,1-.4.036,1.438,1.438,0,0,1-.971-.36c-.36-.288-.683-.546-.971-.791q-.216-.144-.324.108a17.977,17.977,0,0,1-7.04,7.91,2.876,2.876,0,0,1-1.51.431h-.288a3.042,3.042,0,0,1-1.69-.683l-1.438-1.186a1.237,1.237,0,0,1-.467-.971v-.216a1.316,1.316,0,0,1,.719-1.043,15.424,15.424,0,0,0,7.119-7.291.28.28,0,0,0-.144-.4,25.368,25.368,0,0,0-7-2.517.309.309,0,0,0-.359.216,72.157,72.157,0,0,1-3.883,8.01,8.248,8.248,0,0,1-2.7,2.718,7.039,7.039,0,0,1-3.6.877,5.932,5.932,0,0,1-4.372-1.7A6.414,6.414,0,0,1,418,35.732a9.2,9.2,0,0,1,3.466-7.191,14.9,14.9,0,0,1,8.895-3.38.446.446,0,0,0,.359-.252c1.294-3.02,2.035-4.717,2.229-5.105a.18.18,0,0,0-.18-.252q-3.372.108-5.249.216c-.259,0-.6.05-1.007.072a.567.567,0,0,1-.216.036,1.92,1.92,0,0,1-1.294-.5,1.841,1.841,0,0,1-.676-1.395l-.072-1.366a1.754,1.754,0,0,1,.575-1.438,1.912,1.912,0,0,1,1.359-.539h.108c.431,0,.791.036,1.079.036q4.235,0,7.334-.252a5.938,5.938,0,0,0,.827-.108,7.478,7.478,0,0,1,1.043-.072,4.235,4.235,0,0,1,2.661.827l.18.144a1.992,1.992,0,0,1,.719,1.366v.216a2.5,2.5,0,0,1-.388,1.366l-.036.036a66.665,66.665,0,0,0-3.2,7.076c-.072.165,0,.266.144.288a34.989,34.989,0,0,1,6.141,1.834c.173.072.266,0,.288-.144V27.1q.108-1.158.108-2.157a2.013,2.013,0,0,1,.575-1.474,1.647,1.647,0,0,1,1.186-.5.719.719,0,0,1,.216.036l1.582.18a2.157,2.157,0,0,1,1.438.791,2.02,2.02,0,0,1,.539,1.366.445.445,0,0,1-.036.18,40.271,40.271,0,0,1-.467,4.206.352.352,0,0,0,.18.4ZM424.15,36.2c.6,0,1.172-.417,1.719-1.258a39.071,39.071,0,0,0,2.337-4.415.122.122,0,0,0,0-.144.129.129,0,0,0-.165,0,7.514,7.514,0,0,0-3.6,1.812,3.725,3.725,0,0,0-1.309,2.675,1.567,1.567,0,0,0,.288.971A.849.849,0,0,0,424.15,36.2Z" transform="translate(-124.62 -11.226)" fill="none" stroke="#034baf" stroke-miterlimit="10" stroke-width="10"/>
    <path id="Path_10679" data-name="Path 10679" d="M23.3,25.006v1.115c0,.194.093.266.288.216a29.251,29.251,0,0,1,6.148-.719,13.95,13.95,0,0,1,5.264.949,8.744,8.744,0,0,1,3.789,2.876,7.4,7.4,0,0,1,1.438,4.544,9.225,9.225,0,0,1-1.87,5.846q-1.862,2.366-6.321,3.5a22.19,22.19,0,0,1-2.8.431,1.926,1.926,0,0,1-.324,0,2.481,2.481,0,0,1-1.4-.431A2.912,2.912,0,0,1,26.387,41.9l-.611-1.726a1.74,1.74,0,0,1-.072-.5,1.611,1.611,0,0,1,.252-.863,1.474,1.474,0,0,1,1.258-.647,17.739,17.739,0,0,0,2.445-.252,7.687,7.687,0,0,0,3.516-1.381,3.185,3.185,0,0,0,1.33-2.646A2.948,2.948,0,0,0,33.2,31.413a5.983,5.983,0,0,0-3.538-.935,24.822,24.822,0,0,0-6,.748c-.194.043-.273.151-.252.324q.137,5.242.144,6.141,0,3.638-1.15,5.033A4.048,4.048,0,0,1,19.1,44.112a9.865,9.865,0,0,1-4.063-.978,9.9,9.9,0,0,1-3.6-2.689A5.709,5.709,0,0,1,10,36.72a6.85,6.85,0,0,1,2.243-4.7A17.883,17.883,0,0,1,18,28.134a.388.388,0,0,0,.252-.4c0-.575-.036-1.438-.036-2.553V23.353a.223.223,0,0,0-.244-.252h-4.53a2.078,2.078,0,0,1-1.51-.719,2.366,2.366,0,0,1-.647-1.568V19.736a1.754,1.754,0,0,1,.575-1.4,1.905,1.905,0,0,1,1.33-.532h.144c.834.043,1.891.072,3.164.072h1.474a.259.259,0,0,0,.244-.288V15.594l-.072-1.618a1.884,1.884,0,0,1,.489-1.366A1.74,1.74,0,0,1,20.067,12h1.8a1.8,1.8,0,0,1,1.438.647A1.87,1.87,0,0,1,23.77,13.9v.216c-.05.546-.086,1.028-.108,1.438l-.108,1.582a.237.237,0,0,0,.072.18.266.266,0,0,0,.18.072c1.388-.194,2.711-.431,3.955-.719a2.157,2.157,0,0,1,.431-.036A1.6,1.6,0,0,1,29.2,17a1.668,1.668,0,0,1,.719,1.294v1.251a2.452,2.452,0,0,1-.539,1.639,2.279,2.279,0,0,1-1.474.877q-1.862.324-4.206.575a.295.295,0,0,0-.288.324A10.489,10.489,0,0,0,23.3,25.006ZM17.37,38.05a1.043,1.043,0,0,0,.769-.266,1.747,1.747,0,0,0,.266-1.172c0-.288,0-1.33-.072-3.128a.137.137,0,0,0-.072-.137.129.129,0,0,0-.144,0q-2.682,1.611-2.689,3.1a1.359,1.359,0,0,0,.662,1.1,2.157,2.157,0,0,0,1.28.5ZM33.355,21.123a2.157,2.157,0,0,1-1.143-1.834,1.949,1.949,0,0,1,.252-.964l.36-.575a2.157,2.157,0,0,1,1.251-1.079,2.4,2.4,0,0,1,.719-.108,1.956,1.956,0,0,1,.971.252q3.157,1.539,5.609,2.977a2.157,2.157,0,0,1,.971,1.33,1.913,1.913,0,0,1,.072.539,2.092,2.092,0,0,1-.288,1.079l-.5.827a1.985,1.985,0,0,1-1.258.935,3.164,3.164,0,0,1-.467.036,1.97,1.97,0,0,1-1.136-.316Q36.375,22.705,33.355,21.123Z" transform="translate(-10 -10.596)" fill="#efea3a"/>
    <path id="Path_10680" data-name="Path 10680" d="M65.07,19.876c-.187,0-.288.086-.288.252v1.841a2.085,2.085,0,0,1-2.157,2.121h-.431a2.064,2.064,0,0,1-1.438-.582A2.013,2.013,0,0,1,60.13,22V18.51A2.157,2.157,0,0,1,62.287,16.4H73.7a.223.223,0,0,0,.252-.252v-.36a.223.223,0,0,0-.252-.252H64.76a1.862,1.862,0,0,1-1.381-.575,1.941,1.941,0,0,1,0-2.732,1.862,1.862,0,0,1,1.381-.575H88.41a1.934,1.934,0,0,1,1.366,3.308,1.884,1.884,0,0,1-1.366.575H79.451a.223.223,0,0,0-.252.252v.36a.223.223,0,0,0,.252.252H91.207a2.157,2.157,0,0,1,2.114,2.114v3.459a2.013,2.013,0,0,1-.626,1.51,2.049,2.049,0,0,1-1.488.611h-.719a2.085,2.085,0,0,1-2.157-2.121V20.1c0-.165-.1-.252-.288-.252H79.451a.223.223,0,0,0-.252.252v4.89a2.114,2.114,0,0,1-2.114,2.121H76.078a2.064,2.064,0,0,1-1.5-.611,2.035,2.035,0,0,1-.626-1.51V20.1a.223.223,0,0,0-.252-.252ZM81.313,41.448h6.328a2.948,2.948,0,0,0,1.381-.252,1.575,1.575,0,0,0,.719-.971,1.841,1.841,0,0,1,.884-1.079,1.335,1.335,0,0,1,1.33-.072c.144.05.295.1.467.144a2.783,2.783,0,0,1,1.409,1.035,1.97,1.97,0,0,1,.324,1.079,1.74,1.74,0,0,1-.072.5,4.429,4.429,0,0,1-1.9,2.819,8.305,8.305,0,0,1-4.106.777H80.824c-2.661,0-4.494-.345-5.515-1.028s-1.575-1.97-1.668-3.861a.223.223,0,0,0-.252-.252h-4.53c-.093,0-.144.058-.144.18a1.237,1.237,0,0,1-.374.913,1.309,1.309,0,0,1-.956.381H65.7a2.013,2.013,0,0,1-1.488-.633,2.042,2.042,0,0,1-.633-1.488v-9.52a2.021,2.021,0,0,1,.633-1.51A2.049,2.049,0,0,1,65.7,28H87.44A2.085,2.085,0,0,1,89.6,30.158v8.01a2.107,2.107,0,0,1-.611,1.5,2.035,2.035,0,0,1-1.51.626H79.063a.237.237,0,0,0-.18.072.266.266,0,0,0-.072.18.956.956,0,0,0,.647.719,7.119,7.119,0,0,0,1.87.18ZM66.652,27.066a1.316,1.316,0,0,1-.971-.4,1.373,1.373,0,0,1-.4-.992,1.438,1.438,0,0,1,.4-1,1.287,1.287,0,0,1,.971-.417h4.89a1.323,1.323,0,0,1,.985.417,1.345,1.345,0,0,1,.453,1,1.309,1.309,0,0,1-.417.992,1.359,1.359,0,0,1-.985.4Zm4.89-6.4a1.352,1.352,0,0,1,.985.417,1.309,1.309,0,0,1,.453.971,1.33,1.33,0,0,1-.417.971,1.345,1.345,0,0,1-1.021.381H67.3A1.3,1.3,0,0,1,66.35,23a1.33,1.33,0,0,1-.417-.971A1.438,1.438,0,0,1,67.3,20.638Zm2.085,11.109c0-.194-.086-.288-.252-.288H68.967c-.165,0-.252.093-.252.288v.575c0,.187.086.288.252.288h4.422c.165,0,.252-.1.252-.288Zm-4.674,3.912a.223.223,0,0,0-.252.252v.575c0,.194.086.288.252.288h4.422c.165,0,.252-.093.252-.288V35.94a.223.223,0,0,0-.252-.252Zm15.021-3.049a.252.252,0,0,0,.288-.288v-.575a.252.252,0,0,0-.288-.288H79.012a.252.252,0,0,0-.288.288v.575a.259.259,0,0,0,.288.288Zm-5.242,3.876a.252.252,0,0,0,.288.288h4.962a.252.252,0,0,0,.288-.288V35.94c0-.165-.093-.252-.288-.252H79.019c-.187,0-.288.086-.288.252Zm1.891-13.49a1.33,1.33,0,0,1-.417-.971,1.309,1.309,0,0,1,.417-.971,1.352,1.352,0,0,1,.985-.417h4.027a1.352,1.352,0,0,1,.985.417,1.309,1.309,0,0,1,.417.971,1.33,1.33,0,0,1-.4.971,1.345,1.345,0,0,1-.985.41H81.608a1.345,1.345,0,0,1-.978-.41Zm.985,4.041a1.359,1.359,0,0,1-.985-.4,1.309,1.309,0,0,1-.417-.992,1.345,1.345,0,0,1,.417-1,1.323,1.323,0,0,1,.985-.417h4.854a1.316,1.316,0,0,1,1.007.417,1.381,1.381,0,0,1,.4,1,1.352,1.352,0,0,1-1.4,1.388Z" transform="translate(-24.083 -10.499)" fill="#efea3a"/>
    <path id="Path_10681" data-name="Path 10681" d="M112.055,20.728a1.934,1.934,0,0,1-1.438-.611,2.054,2.054,0,0,1,1.452-3.516h10.16a2.021,2.021,0,0,1,1.438.59,1.941,1.941,0,0,1,.611,1.438,2.085,2.085,0,0,1-2.078,2.085Zm9.132,11.793a2.035,2.035,0,0,1,1.51.626,2.071,2.071,0,0,1,.6,1.488v7.191a2.078,2.078,0,0,1-2.114,2.157h-4.926c-.093,0-.144.058-.144.18a1.079,1.079,0,0,1-.36.805,1.158,1.158,0,0,1-.827.345h-1.15a2.078,2.078,0,0,1-1.51-.611,2.049,2.049,0,0,1-.611-1.51V34.635a2.114,2.114,0,0,1,2.157-2.114Zm-.072-10.534a2,2,0,0,1,1.438,3.394,1.9,1.9,0,0,1-1.438.6h-7.334a1.877,1.877,0,0,1-1.438-.6,1.956,1.956,0,0,1-.575-1.438,1.934,1.934,0,0,1,.575-1.4,1.913,1.913,0,0,1,1.438-.575Zm-7.334,9.175a1.913,1.913,0,0,1-1.438-.575,1.934,1.934,0,0,1-.575-1.438,1.985,1.985,0,0,1,.575-1.438,1.87,1.87,0,0,1,1.438-.59h7.334a1.891,1.891,0,0,1,1.438.59,1.977,1.977,0,0,1,.568,1.438,1.949,1.949,0,0,1-2.006,2.013Zm7.37-19.774a1.891,1.891,0,0,1,1.438.59,2.013,2.013,0,0,1,0,2.8,1.9,1.9,0,0,1-1.438.6H113.96a1.877,1.877,0,0,1-1.438-.6,2,2,0,0,1,0-2.8,1.87,1.87,0,0,1,1.438-.59Zm-2.373,25.527a.223.223,0,0,0-.252-.252h-2.157a.223.223,0,0,0-.252.252V39.5c0,.194.086.288.252.288h2.157c.165,0,.252-.093.252-.288ZM145.153,23.87a2.157,2.157,0,0,1-2.121,2.121h-5.17a.223.223,0,0,0-.252.252v3.6a.223.223,0,0,0,.252.252h3.782a2.157,2.157,0,0,1,2.157,2.122V43.048a2.035,2.035,0,0,1-.626,1.51,2.107,2.107,0,0,1-1.5.611h-1.8a1.4,1.4,0,0,1-1.007-.417,1.352,1.352,0,0,1-.424-1.021.158.158,0,0,0-.18-.18h-6.694c-.122,0-.18.072-.18.216a1.438,1.438,0,0,1-.467,1.093,1.539,1.539,0,0,1-1.115.453h-1.366a2.078,2.078,0,0,1-1.488-.611,2.013,2.013,0,0,1-.633-1.51V32.2a2.157,2.157,0,0,1,2.121-2.121h3.308c.194,0,.288-.086.288-.252v-3.6c0-.165-.093-.252-.288-.252h-5.105a2.157,2.157,0,0,1-2.121-2.121v-.791a2.013,2.013,0,0,1,.633-1.488,2.042,2.042,0,0,1,1.488-.633h5.105c.194,0,.288-.079.288-.252V17.607c0-.194-.086-.28-.252-.252-1.028.115-2.157.216-3.272.288a.661.661,0,0,1-.18.036,2.323,2.323,0,0,1-1.438-.5,2.876,2.876,0,0,1-1.007-1.438l-.144-.467a1.661,1.661,0,0,1-.108-.575,1.524,1.524,0,0,1,.252-.827,1.438,1.438,0,0,1,1.151-.719,84.411,84.411,0,0,0,11.5-1.941,3.545,3.545,0,0,1,.863-.108,3.7,3.7,0,0,1,1.007.144,3.193,3.193,0,0,1,1.51,1.007l1.007,1.186a1.316,1.316,0,0,1,.324.863,1.294,1.294,0,0,1-.072.431,1.237,1.237,0,0,1-.935.9q-2.114.5-4.415.9a.3.3,0,0,0-.252.324v3.876a.216.216,0,0,0,.252.252h5.17a2.071,2.071,0,0,1,1.5.633,2.035,2.035,0,0,1,.626,1.488Zm-7,14.877a.223.223,0,0,0,.252-.252v-3.38c0-.187-.086-.288-.252-.288h-6.472c-.165,0-.252.1-.252.288V38.5a.223.223,0,0,0,.252.252Z" transform="translate(-38.1 -10.345)" fill="#efea3a"/>
    <path id="Path_10682" data-name="Path 10682" d="M166.045,22.787a2.013,2.013,0,0,1-.4.036,1.733,1.733,0,0,1-1.115-.4,1.769,1.769,0,0,1-.755-1.366L163.6,19.3v-.216a1.891,1.891,0,0,1,.5-1.287,1.949,1.949,0,0,1,1.438-.719q1.107-.043,1.618-.108l6.054-.5q5.587-.475,9.542-.827c2.438-.194,5.271-.374,8.478-.539h.108a1.884,1.884,0,0,1,1.4.575,2.114,2.114,0,0,1,.647,1.474v1.438a2.049,2.049,0,0,1-.611,1.488,2.157,2.157,0,0,1-1.51.662,30.524,30.524,0,0,0-4.854.4,8.873,8.873,0,0,0-5.156,3.451,9.635,9.635,0,0,0-2.157,6,6.141,6.141,0,0,0,2.488,5.292,14.316,14.316,0,0,0,6.745,2.394,1.675,1.675,0,0,1,1.222.755,1.582,1.582,0,0,1,.288.9,1.56,1.56,0,0,1-.108.539l-.719,2.121a2.775,2.775,0,0,1-1.079,1.438,2.3,2.3,0,0,1-1.294.4,2.876,2.876,0,0,1-.431,0,20.773,20.773,0,0,1-6.536-2.157,12.677,12.677,0,0,1-4.652-4.257,10.836,10.836,0,0,1-1.783-6.1,13.72,13.72,0,0,1,1.33-6.054,14.877,14.877,0,0,1,3.092-4.408v-.108a.043.043,0,0,0-.072-.036Q170.668,21.931,166.045,22.787Zm20.033,3.746a1.639,1.639,0,0,1-.216-.791,1.5,1.5,0,0,1,.072-.431,1.323,1.323,0,0,1,.791-.9,1.884,1.884,0,0,1,.791-.18,2.035,2.035,0,0,1,.647.108,1.913,1.913,0,0,1,1.115.863c.381.626.755,1.258,1.115,1.906a1.625,1.625,0,0,1,.18.755,2.252,2.252,0,0,1-.072.575,1.639,1.639,0,0,1-.935.971,1.97,1.97,0,0,1-.719.144,2.035,2.035,0,0,1-.647-.108,1.934,1.934,0,0,1-1.043-.935,21.323,21.323,0,0,0-1.079-1.977Zm4.242-1.69a1.524,1.524,0,0,1-.252-.827,1.217,1.217,0,0,1,.072-.4,1.438,1.438,0,0,1,.791-.935,2.064,2.064,0,0,1,.827-.18,2.625,2.625,0,0,1,.575.072,2.157,2.157,0,0,1,1.15.827c.4.6.791,1.2,1.15,1.8a1.661,1.661,0,0,1,.252.827,2.028,2.028,0,0,1-.072.5,1.64,1.64,0,0,1-.863,1.007,1.862,1.862,0,0,1-.791.18,1.977,1.977,0,0,1-1.69-1.007c-.36-.618-.741-1.244-1.15-1.841Z" transform="translate(-53.153 -11.469)" fill="#efea3a"/>
    <path id="Path_10683" data-name="Path 10683" d="M228.022,24.993v1.115c0,.194.093.266.288.216a29.137,29.137,0,0,1,6.141-.719,13.95,13.95,0,0,1,5.263.949,8.808,8.808,0,0,1,3.8,2.876,7.4,7.4,0,0,1,1.438,4.544,9.218,9.218,0,0,1-1.862,5.846q-1.877,2.387-6.328,3.5a22.188,22.188,0,0,1-2.8.431,1.927,1.927,0,0,1-.324,0,2.481,2.481,0,0,1-1.438-.431,2.912,2.912,0,0,1-1.115-1.438l-.611-1.726a2.029,2.029,0,0,1-.072-.5,1.611,1.611,0,0,1,.252-.863,1.481,1.481,0,0,1,1.258-.647,17.617,17.617,0,0,0,2.445-.252,7.715,7.715,0,0,0,3.523-1.381,3.2,3.2,0,0,0,1.33-2.646,2.955,2.955,0,0,0-1.258-2.466,5.947,5.947,0,0,0-3.538-.935,24.764,24.764,0,0,0-5.961.755c-.194.043-.28.151-.252.324q.137,5.242.144,6.141c0,2.423-.388,4.091-1.151,5.033a4.048,4.048,0,0,1-3.308,1.388,10.448,10.448,0,0,1-7.672-3.646,5.752,5.752,0,0,1-1.438-3.725,6.861,6.861,0,0,1,2.251-4.7,17.8,17.8,0,0,1,5.752-3.883.4.4,0,0,0,.252-.4c0-.575-.036-1.438-.036-2.553V23.34a.223.223,0,0,0-.252-.252h-4.53a2.107,2.107,0,0,1-1.51-.719,2.438,2.438,0,0,1-.647-1.568V19.723a1.776,1.776,0,0,1,.575-1.4,1.92,1.92,0,0,1,1.33-.532h.144c.841.043,1.891.072,3.164.072h1.474a.266.266,0,0,0,.252-.288V15.581l-.144-1.654a1.884,1.884,0,0,1,.539-1.33,1.74,1.74,0,0,1,1.4-.647h1.8a1.819,1.819,0,0,1,1.438.647,1.87,1.87,0,0,1,.467,1.258v.216c-.05.546-.086,1.028-.108,1.438l-.108,1.582a.237.237,0,0,0,.072.18.259.259,0,0,0,.18.072q2.085-.288,3.948-.719a2.158,2.158,0,0,1,.431-.036,1.589,1.589,0,0,1,1.007.36,1.647,1.647,0,0,1,.683,1.294v1.251a2.452,2.452,0,0,1-.539,1.639,2.244,2.244,0,0,1-1.438.877q-1.87.324-4.2.575a.295.295,0,0,0-.288.324A11.269,11.269,0,0,0,228.022,24.993Zm-5.9,13.044a1.035,1.035,0,0,0,.769-.266,1.74,1.74,0,0,0,.273-1.172c0-.288,0-1.33-.072-3.128a.137.137,0,0,0-.072-.137.129.129,0,0,0-.144,0q-2.7,1.6-2.7,3.121a1.366,1.366,0,0,0,.669,1.1A2.157,2.157,0,0,0,222.126,38.037Zm15.992-16.927a2.157,2.157,0,0,1-1.151-1.834,2.027,2.027,0,0,1,.252-.964l.36-.575a2.157,2.157,0,0,1,1.258-1.079,2.366,2.366,0,0,1,.683-.108,1.992,1.992,0,0,1,.971.252q3.157,1.539,5.6,2.977a2.157,2.157,0,0,1,.971,1.33,1.911,1.911,0,0,1,.072.539,2.092,2.092,0,0,1-.288,1.079l-.5.827a1.985,1.985,0,0,1-1.258.935,3.062,3.062,0,0,1-.46.036,1.934,1.934,0,0,1-1.079-.324c-1.647-1.007-3.444-2.035-5.465-3.092Z" transform="translate(-67.529 -10.584)" fill="#efea3a"/>
    <path id="Path_10684" data-name="Path 10684" d="M284.591,14.688c0,.187.079.288.252.288h10.275a2.078,2.078,0,0,1,1.5.611,2.013,2.013,0,0,1,.626,1.51v18.25a2.013,2.013,0,0,1-.626,1.51,2.078,2.078,0,0,1-1.5.611H293.1a1.438,1.438,0,0,1-1.043-.431,1.373,1.373,0,0,1-.431-1.007c0-.144-.058-.216-.18-.216h-6.608c-.173,0-.252.1-.252.288v6.759a2.013,2.013,0,0,1-.633,1.51,2.078,2.078,0,0,1-1.488.611H281.1a2.078,2.078,0,0,1-1.488-.611,2.013,2.013,0,0,1-.633-1.51V36.1c0-.187-.086-.288-.252-.288h-6.392a.194.194,0,0,0-.216.216,1.719,1.719,0,0,1-1.69,1.69h-1.546a2.157,2.157,0,0,1-2.157-2.157V17.1a2.014,2.014,0,0,1,.626-1.51,2.078,2.078,0,0,1,1.5-.611h9.844c.165,0,.252-.1.252-.288V12.171A2.157,2.157,0,0,1,281.1,10.05h1.366a2.157,2.157,0,0,1,2.121,2.121Zm-5.609,5.673c0-.187-.086-.288-.252-.288h-6.356c-.173,0-.252.1-.252.288v2.265c0,.194.079.288.252.288h6.356c.165,0,.252-.093.252-.288Zm-6.86,10.067c0,.187.079.288.252.288h6.356c.165,0,.252-.1.252-.288V28.091c0-.194-.086-.288-.252-.288h-6.356c-.173,0-.252.093-.252.288Zm19.508-10.067c0-.187-.079-.288-.252-.288h-6.536c-.173,0-.252.1-.252.288v2.265c0,.194.079.288.252.288h6.529c.173,0,.252-.093.252-.288Zm-7.04,10.067c0,.187.079.288.252.288h6.529c.173,0,.252-.1.252-.288V28.091c0-.194-.079-.288-.252-.288h-6.536c-.173,0-.252.093-.252.288Z" transform="translate(-82.126 -10.05)" fill="#efea3a"/>
    <path id="Path_10685" data-name="Path 10685" d="M323.933,14.935v-.252a1.748,1.748,0,0,1,.431-1.186,1.668,1.668,0,0,1,1.33-.647h.036l2.84.036a1.74,1.74,0,0,1,1.438.647,1.87,1.87,0,0,1,.467,1.258v.216c-.144,1.294-.237,2.43-.288,3.408q-.431,9.2-.431,15.74,0,4.609,4.494,4.6,6.428,0,10.887-5.673a1.575,1.575,0,0,1,1.294-.647h.072a1.56,1.56,0,0,1,1.222.575l1.33,1.611a2.725,2.725,0,0,1,.647,1.762,2.38,2.38,0,0,1-.575,1.582,18.165,18.165,0,0,1-2.517,2.466,22.748,22.748,0,0,1-3.25,2.157,17.48,17.48,0,0,1-4.329,1.611,20.206,20.206,0,0,1-4.918.6q-4.926,0-7.636-2.3t-2.718-6.939q0-2.545.165-9.269t.158-7.874A27.4,27.4,0,0,0,323.933,14.935Z" transform="translate(-98.148 -10.837)" fill="#efea3a"/>
    <path id="Path_10686" data-name="Path 10686" d="M373.471,24.8a2.049,2.049,0,0,1,1.488.611,2.013,2.013,0,0,1,.633,1.51v9.161a.848.848,0,0,0,.144.5q1.9,2.876,7.327,3.092,2.7.137,5.537.144,5.069,0,10.527-.36h.108a1.237,1.237,0,0,1,1.043.539,1.223,1.223,0,0,1,.288.791,1.188,1.188,0,0,1-.108.467l-.431,1.438a3.006,3.006,0,0,1-.971,1.546,2.438,2.438,0,0,1-1.618.611c-2.8.115-5.422.18-7.866.18s-4.58-.05-6.615-.144a18.947,18.947,0,0,1-5.587-.971,9.844,9.844,0,0,1-3.969-2.768c-.122-.144-.237-.158-.36-.036q-1.726,1.51-3.2,2.732a1.632,1.632,0,0,1-1.007.36,2.243,2.243,0,0,1-.4-.036,1.639,1.639,0,0,1-1.151-.935l-.791-1.726a2.273,2.273,0,0,1-.216-.971,2.773,2.773,0,0,1,.108-.719,2.467,2.467,0,0,1,1.043-1.294q1.481-.9,2.7-1.762a.532.532,0,0,0,.216-.431V29.948a.223.223,0,0,0-.252-.252h-1.4a2.157,2.157,0,0,1-2.121-2.121v-.719a2.014,2.014,0,0,1,.633-1.51,2.049,2.049,0,0,1,1.488-.611Zm1.546-9.52a1.834,1.834,0,0,1,.575,1.33.719.719,0,0,1-.036.18,2.063,2.063,0,0,1-.755,1.438l-1.007.82a1.927,1.927,0,0,1-1.258.467.849.849,0,0,1-.252,0,1.963,1.963,0,0,1-1.4-.755A31.851,31.851,0,0,0,368.042,16a1.726,1.726,0,0,1-.611-1.33,1.64,1.64,0,0,1,.647-1.366l.719-.539a2.747,2.747,0,0,1,1.654-.611h.072a2.4,2.4,0,0,1,1.582.575,34.575,34.575,0,0,1,2.912,2.553Zm9.664,6a1.438,1.438,0,0,1,.6-.913,1.474,1.474,0,0,1,1.057-.273.173.173,0,0,0,.129-.05v-.093c-.122-.884-.216-1.8-.288-2.725,0-.173-.094-.252-.288-.252h-3.847a2.042,2.042,0,0,1-1.51-.633,2.078,2.078,0,0,1-.611-1.488v-.827a2.107,2.107,0,0,1,.611-1.5,2.035,2.035,0,0,1,1.51-.626h6.579a2.107,2.107,0,0,1,1.51.626,2.323,2.323,0,0,1,.719,1.5,49.978,49.978,0,0,0,.662,6.09,35.049,35.049,0,0,0,1.388,5.371,17.191,17.191,0,0,0,2.438,4.71,16.05,16.05,0,0,0,3.631,3.552,1.51,1.51,0,0,1,.216,2.409c-.381.388-.762.769-1.151,1.15a2.6,2.6,0,0,1-1.51.827h-.359a2.157,2.157,0,0,1-1.251-.4,20.3,20.3,0,0,1-6.472-9.269.115.115,0,0,0-.216,0,23.5,23.5,0,0,1-6.256,9.2,2.1,2.1,0,0,1-1.33.467h-.252a2.517,2.517,0,0,1-1.5-.755L377.806,36.3a1.561,1.561,0,0,1-.539-1.186,1.69,1.69,0,0,1,.683-1.438Q383.07,29.732,384.681,21.276Z" transform="translate(-110.094 -10.57)" fill="#efea3a"/>
    <path id="Path_10687" data-name="Path 10687" d="M449.95,31.065a2.531,2.531,0,0,1,1.079,1.366,2.79,2.79,0,0,1-.072,1.755l-.935,2.229a1.438,1.438,0,0,1-1.043.9,1.97,1.97,0,0,1-.4.036,1.438,1.438,0,0,1-.971-.36c-.36-.288-.683-.546-.971-.791q-.216-.144-.324.108a17.977,17.977,0,0,1-7.04,7.91,2.876,2.876,0,0,1-1.51.431h-.288a3.042,3.042,0,0,1-1.69-.683l-1.438-1.186a1.237,1.237,0,0,1-.467-.971v-.216a1.316,1.316,0,0,1,.719-1.043,15.424,15.424,0,0,0,7.119-7.291.28.28,0,0,0-.144-.4,25.368,25.368,0,0,0-7-2.517.309.309,0,0,0-.359.216,72.157,72.157,0,0,1-3.883,8.01,8.248,8.248,0,0,1-2.7,2.718,7.039,7.039,0,0,1-3.6.877,5.932,5.932,0,0,1-4.372-1.7A6.414,6.414,0,0,1,418,35.732a9.2,9.2,0,0,1,3.466-7.191,14.9,14.9,0,0,1,8.895-3.38.446.446,0,0,0,.359-.252c1.294-3.02,2.035-4.717,2.229-5.105a.18.18,0,0,0-.18-.252q-3.372.108-5.249.216c-.259,0-.6.05-1.007.072a.567.567,0,0,1-.216.036,1.92,1.92,0,0,1-1.294-.5,1.841,1.841,0,0,1-.676-1.395l-.072-1.366a1.754,1.754,0,0,1,.575-1.438,1.912,1.912,0,0,1,1.359-.539h.108c.431,0,.791.036,1.079.036q4.235,0,7.334-.252a5.938,5.938,0,0,0,.827-.108,7.478,7.478,0,0,1,1.043-.072,4.235,4.235,0,0,1,2.661.827l.18.144a1.992,1.992,0,0,1,.719,1.366v.216a2.5,2.5,0,0,1-.388,1.366l-.036.036a66.665,66.665,0,0,0-3.2,7.076c-.072.165,0,.266.144.288a34.989,34.989,0,0,1,6.141,1.834c.173.072.266,0,.288-.144V27.1q.108-1.158.108-2.157a2.013,2.013,0,0,1,.575-1.474,1.647,1.647,0,0,1,1.186-.5.719.719,0,0,1,.216.036l1.582.18a2.157,2.157,0,0,1,1.438.791,2.02,2.02,0,0,1,.539,1.366.445.445,0,0,1-.036.18,40.271,40.271,0,0,1-.467,4.206.352.352,0,0,0,.18.4ZM424.15,36.2c.6,0,1.172-.417,1.719-1.258a39.071,39.071,0,0,0,2.337-4.415.122.122,0,0,0,0-.144.129.129,0,0,0-.165,0,7.514,7.514,0,0,0-3.6,1.812,3.725,3.725,0,0,0-1.309,2.675,1.567,1.567,0,0,0,.288.971A.849.849,0,0,0,424.15,36.2Z" transform="translate(-124.62 -11.226)" fill="#efea3a"/>
  </g>
</svg>
