<svg xmlns="http://www.w3.org/2000/svg" width="460" height="359.423" viewBox="0 0 460 359.423">
  <g id="Слой_2" data-name="Слой 2" transform="translate(0 0.042)">
    <g id="Слой_1" data-name="Слой 1" transform="translate(0 -0.043)">
      <path id="Path_10489" data-name="Path 10489" d="M341.479,316.773l-88.771-51.115a3.268,3.268,0,0,1,.129-5.745L264,254.149a3.305,3.305,0,0,1,3.139.074L358.9,307.06a3.278,3.278,0,0,1-.129,5.754l-8.1,4.171A9.575,9.575,0,0,1,341.479,316.773Z" transform="translate(-19.917 -20.095)" fill="#d6d8e5" opacity="0.4"/>
      <path id="Path_10490" data-name="Path 10490" d="M347.66,287.015,272,243.338c-6.445-3.683-11.61-13.626-11.61-22.17V10.124c0-8.544,5.2-12.475,11.61-8.774l75.66,43.759c6.445,3.683,11.61,13.626,11.61,22.17V278.3C359.27,286.794,354.068,290.716,347.66,287.015Z" transform="translate(-20.657 0.043)" fill="#b1b4c4"/>
      <path id="Path_10491" data-name="Path 10491" d="M356.59,314.77l5.994-3.029-5.745-9.851Z" transform="translate(-28.289 -23.911)" fill="#b1b4c4"/>
      <path id="Path_10492" data-name="Path 10492" d="M259.14,3.551,264.655.66l-1.114,8.129Z" transform="translate(-20.558 -0.013)" fill="#b1b4c4"/>
      <path id="Path_10493" data-name="Path 10493" d="M342.482,289.638,266.83,245.961c-6.445-3.683-11.6-13.626-11.6-22.17V12.784c0-8.544,5.193-12.475,11.6-8.774l75.651,43.676c6.445,3.683,11.6,13.626,11.6,22.17V280.873C354.036,289.417,348.843,293.339,342.482,289.638Z" transform="translate(-20.248 -0.169)" fill="#616e84"/>
      <path id="Path_10494" data-name="Path 10494" d="M353.152,70.446v211c0,8.553-5.193,12.475-11.6,8.783l-29.664-17.134-9.207-5.321L265.9,246.551c-6.445-3.683-11.6-13.626-11.6-22.179v-211c0-8.516,5.193-12.475,11.6-8.783l75.651,43.676C347.932,51.968,353.152,61.939,353.152,70.446Z" transform="translate(-20.174 -0.215)" fill="#20232d"/>
      <path id="Path_10495" data-name="Path 10495" d="M348.169,69.035V274.546c0,5.174-3.637,7.282-8.12,4.686L316.4,265.579l-2.062-1.206-.7-.405-5.11-2.955-14.8-8.525h0l-6.141-3.545-2.467-1.427L268.3,237.839c-4.484-2.587-8.111-8.894-8.111-14.068V18.26c0-5.183,3.627-7.282,8.111-4.7l29.535,17.06v.083a14,14,0,0,0,6.371,10.947c3.5,2,6.334.377,6.334-3.683v-.092l29.535,17.06C344.532,57.554,348.169,63.851,348.169,69.035Z" transform="translate(-20.642 -0.949)" fill="#fff"/>
      <ellipse id="Ellipse_2500" data-name="Ellipse 2500" cx="1.968" cy="3.4" rx="1.968" ry="3.4" transform="translate(281.285 33.82) rotate(-29.887)" fill="#2b303f"/>
      <path id="Path_10496" data-name="Path 10496" d="M307.913,39.714a2.237,2.237,0,0,1-1.013-1.777c0-.644.451-.921,1-.58a2.21,2.21,0,0,1,1,1.74C308.907,39.779,308.456,40.036,307.913,39.714Z" transform="translate(-24.347 -2.913)" fill="#fff" opacity="0.1"/>
      <path id="Path_10497" data-name="Path 10497" d="M364.9,105.346h0c-.617.359-1.123,0-1.123-.847V95.5a2.7,2.7,0,0,1,1.123-2.136h0c.617-.35,1.114,0,1.114.847v8.995A2.67,2.67,0,0,1,364.9,105.346Z" transform="translate(-28.86 -7.357)" fill="#757b89"/>
      <path id="Path_10498" data-name="Path 10498" d="M364.9,121.356h0c-.617.359-1.123,0-1.123-.838v-9a2.7,2.7,0,0,1,1.123-2.136h0c.617-.35,1.114,0,1.114.847v8.995a2.661,2.661,0,0,1-1.114,2.136Z" transform="translate(-28.86 -8.627)" fill="#757b89"/>
      <path id="Path_10499" data-name="Path 10499" d="M158.778,254.977,79.647,300.965,0,254.977,79.131,208.99Z" transform="translate(0 -16.541)" fill="#d6d8e5" opacity="0.4"/>
      <path id="Path_10500" data-name="Path 10500" d="M172.27,247.26l-.018,7.909L93.12,301.156l.018-7.918Z" transform="translate(-7.387 -19.577)" fill="#d3d3dd"/>
      <path id="Path_10501" data-name="Path 10501" d="M86.275,293.238l-.018,7.918L6.61,255.169l.018-7.909Z" transform="translate(-0.524 -19.577)" fill="#e0dee9"/>
      <path id="Path_10502" data-name="Path 10502" d="M165.408,243.3,86.277,289.275,6.63,243.3,85.761,197.31Z" transform="translate(-0.526 -15.614)" fill="#eaeaf4"/>
      <path id="Path_10503" data-name="Path 10503" d="M159.922,117l-.341,118.7-66.6,38.7.341-118.7Z" transform="translate(-7.376 -9.243)" fill="#d3d3dd"/>
      <path id="Path_10504" data-name="Path 10504" d="M87.544,155.7l-.341,118.7L20.17,235.7,20.5,117Z" transform="translate(-1.6 -9.243)" fill="#e0dee9"/>
      <path id="Path_10505" data-name="Path 10505" d="M154.174,113.665l-66.6,38.7-67.043-38.7,66.6-38.7Z" transform="translate(-1.629 -5.908)" fill="#eaeaf4"/>
      <path id="Path_10506" data-name="Path 10506" d="M38.375,172.838l-.037,12.309-10.7-6.178.028-12.309Z" transform="translate(-2.193 -13.182)" fill="#2a313f"/>
      <path id="Path_10507" data-name="Path 10507" d="M38.425,154.248l-.028,12.3L27.69,160.37l.037-12.3Z" transform="translate(-2.197 -11.708)" fill="#2a313f"/>
      <path id="Path_10508" data-name="Path 10508" d="M38.484,135.648l-.037,12.309L27.74,141.779l.037-12.309Z" transform="translate(-2.201 -10.232)" fill="#2a313f"/>
      <path id="Path_10509" data-name="Path 10509" d="M82.968,217.219l-.028,12.309L44.53,207.349l.028-12.309Z" transform="translate(-3.533 -15.434)" fill="#2a313f"/>
      <path id="Path_10510" data-name="Path 10510" d="M83.027,198.619l-.037,12.309L44.58,188.749l.037-12.309Z" transform="translate(-3.537 -13.958)" fill="#2a313f"/>
      <path id="Path_10511" data-name="Path 10511" d="M83.077,180.029l-.037,12.3L44.63,170.15l.037-12.3Z" transform="translate(-3.541 -12.484)" fill="#2a313f"/>
      <path id="Path_10512" data-name="Path 10512" d="M83.128,161.429l-.037,12.309-38.4-22.179.028-12.309Z" transform="translate(-3.545 -11.008)" fill="#2a313f"/>
      <path id="Path_10513" data-name="Path 10513" d="M38.274,210.028l-.037,12.309L27.53,216.159l.037-12.309Z" transform="translate(-2.184 -16.133)" fill="#2a313f"/>
      <path id="Path_10514" data-name="Path 10514" d="M38.324,191.438l-.037,12.309L27.58,197.569l.037-12.309Z" transform="translate(-2.188 -14.658)" fill="#2a313f"/>
      <path id="Path_10515" data-name="Path 10515" d="M82.917,235.809l-.037,12.309L44.47,225.939l.037-12.309Z" transform="translate(-3.528 -16.909)" fill="#2a313f"/>
      <path id="Path_10516" data-name="Path 10516" d="M110.787,175.37l.037,12.309-10.707,6.178-.037-12.309Z" transform="translate(-7.94 -13.873)" fill="#2a313f"/>
      <path id="Path_10517" data-name="Path 10517" d="M110.737,156.77l.037,12.309-10.717,6.178-.028-12.3Z" transform="translate(-7.936 -12.398)" fill="#2a313f"/>
      <path id="Path_10518" data-name="Path 10518" d="M155.59,204l.037,12.3-38.41,22.179-.037-12.3Z" transform="translate(-9.296 -16.145)" fill="#2a313f"/>
      <path id="Path_10519" data-name="Path 10519" d="M155.54,185.41l.028,12.3-38.4,22.179-.037-12.309Z" transform="translate(-9.292 -14.67)" fill="#2a313f"/>
      <path id="Path_10520" data-name="Path 10520" d="M155.48,166.81l.037,12.3-38.41,22.179-.037-12.3Z" transform="translate(-9.288 -13.194)" fill="#2a313f"/>
      <path id="Path_10521" data-name="Path 10521" d="M155.43,148.22l.037,12.3L117.057,182.7l-.037-12.309Z" transform="translate(-9.284 -11.72)" fill="#2a313f"/>
      <path id="Path_10522" data-name="Path 10522" d="M155.38,129.62l.037,12.3L117.007,164.1l-.037-12.309Z" transform="translate(-9.28 -10.244)" fill="#2a313f"/>
      <path id="Path_10523" data-name="Path 10523" d="M110.947,231.16l.037,12.3-10.717,6.178-.028-12.3Z" transform="translate(-7.952 -18.299)" fill="#2a313f"/>
      <path id="Path_10524" data-name="Path 10524" d="M110.9,212.56l.037,12.309-10.717,6.178-.037-12.309Z" transform="translate(-7.948 -16.824)" fill="#2a313f"/>
      <path id="Path_10525" data-name="Path 10525" d="M110.837,193.97l.037,12.3-10.707,6.178-.037-12.3Z" transform="translate(-7.944 -15.349)" fill="#2a313f"/>
      <path id="Path_10526" data-name="Path 10526" d="M159.609,235.53l-.028,9.575L92.99,283.81,93.008,274Z" transform="translate(-7.377 -18.646)" fill="#0154ac"/>
      <path id="Path_10527" data-name="Path 10527" d="M87.231,273.985,87.2,283.79l-67.034-38.7.028-9.805Z" transform="translate(-1.6 -18.626)" fill="#0154ac"/>
      <path id="Path_10528" data-name="Path 10528" d="M92.2,118.71h.755L96.77,120.9a14.418,14.418,0,0,1-8.35,0Z" transform="translate(-7.015 -9.378)" fill="#2a313f"/>
      <g id="Group_2877" data-name="Group 2877" transform="translate(67.426 91.853)" style="isolation: isolate">
        <path id="Path_10529" data-name="Path 10529" d="M74.55,103.247c9.713-4.7,23.937-4.7,33.706,0l-3.434,2c-7.844-3.618-19.021-3.618-26.81,0Z" transform="translate(-73.34 -99.725)" fill="#2a313f"/>
        <path id="Path_10530" data-name="Path 10530" d="M81,107.055a29.167,29.167,0,0,1,21.967,0l-3.462,2.007a21.636,21.636,0,0,0-15.025,0Z" transform="translate(-73.852 -100.136)" fill="#2a313f"/>
        <path id="Path_10531" data-name="Path 10531" d="M88.36,111.466a14.372,14.372,0,0,1,8.36,0l-3.784,2.2a5.423,5.423,0,0,0-.773,0Z" transform="translate(-74.436 -100.607)" fill="#2a313f"/>
        <path id="Path_10532" data-name="Path 10532" d="M97.06,116.322a1.427,1.427,0,0,0,0-.442l3.784-2.2a3.268,3.268,0,0,1,0,4.834Z" transform="translate(-75.126 -100.832)" fill="#2a313f"/>
        <path id="Path_10533" data-name="Path 10533" d="M104.84,120.077c3.084-2.605,3.066-6.086,0-8.7l3.462-2.007c4.962,3.738,4.99,8.986.064,12.724Z" transform="translate(-75.743 -100.49)" fill="#2a313f"/>
        <path id="Path_10534" data-name="Path 10534" d="M80.384,111.407c-3.084,2.615-3.057,6.095.055,8.7l-3.462,2.016c-4.962-3.738-4.99-8.986-.074-12.724Z" transform="translate(-73.236 -100.493)" fill="#2a313f"/>
        <path id="Path_10535" data-name="Path 10535" d="M111.253,123.23c6.215-4.52,6.168-11-.083-15.522l3.434-2c8.129,5.634,8.185,13.884.11,19.518Z" transform="translate(-76.246 -100.2)" fill="#2a313f"/>
        <path id="Path_10536" data-name="Path 10536" d="M78.134,126.9c7.835,3.609,19.012,3.609,26.81,0l3.452,2c-9.7,4.7-23.937,4.7-33.7,0Z" transform="translate(-73.352 -101.881)" fill="#2a313f"/>
      </g>
      <path id="Path_10537" data-name="Path 10537" d="M73.776,107.708c-6.205,4.52-6.168,10.993.092,15.522l-3.4,2c-8.139-5.634-8.185-13.884-.12-19.518Z" transform="translate(-5.104 -8.347)" fill="#2a313f"/>
      <path id="Path_10538" data-name="Path 10538" d="M84.512,123.19a21.608,21.608,0,0,0,15.016,0l3.489,2.016a29.167,29.167,0,0,1-21.967,0Z" transform="translate(-6.43 -9.734)" fill="#2a313f"/>
      <path id="Path_10539" data-name="Path 10539" d="M88.362,115.88a1.427,1.427,0,0,0,0,.442l-3.784,2.2a3.278,3.278,0,0,1,0-4.843Z" transform="translate(-6.625 -8.979)" fill="#2a313f"/>
      <path id="Path_10540" data-name="Path 10540" d="M329.364,201.343a8.084,8.084,0,0,1,3.683,6.334v6.27c0,2.329-1.657,3.268-3.683,2.09L279.243,187.11a8.084,8.084,0,0,1-3.683-6.334v-6.27c0-2.329,1.666-3.268,3.683-2.1Z" transform="translate(-21.861 -13.598)" fill="#d5d7e2"/>
      <ellipse id="Ellipse_2501" data-name="Ellipse 2501" cx="34.958" cy="20.181" rx="34.958" ry="20.181" transform="translate(167.073 290.068)" fill="#d6d8e5" opacity="0.4"/>
      <g id="Men_2" transform="translate(169.154 102.384)">
        <path id="Path_10541" data-name="Path 10541" d="M187.661,166.22c-.414,3.609-4.723,19.187-3.8,24.517s15.651,14.27,15.651,14.27l2.044-9.142-8.157-7.982,2.21-15.127Z" transform="translate(-183.73 -115.532)" fill="#ffcea9"/>
        <path id="Path_10542" data-name="Path 10542" d="M199.247,149.489a6.445,6.445,0,0,0-8.194,2.477c-2.164,3.591-4.41,15.891-4.6,17.99,0,0,3.038,4.2,7.6,3.5Z" transform="translate(-183.946 -114.157)" fill="#ededed"/>
        <path id="Path_10543" data-name="Path 10543" d="M218.49,337.869a12.6,12.6,0,0,0,9.566-1.151c2.3.074,14.731-5.257,16.443-.783,1.482,3.922-3.913,7.549-6.795,8.286-6.288,1.519-10.938,4.659-13.469,5.193-1.841.4-4.318.654-5.819-.819C216.575,346.781,216.732,340.208,218.49,337.869Z" transform="translate(-186.378 -128.854)" fill="#38226d"/>
        <path id="Path_10544" data-name="Path 10544" d="M224.228,348.513c2.532-.534,7.181-3.683,13.469-5.193,2.421-.589,6.583-3.232,7-6.38.562,3.609-4.309,6.813-7,7.467-6.288,1.519-10.938,4.659-13.469,5.193-1.841.4-4.318.654-5.819-.819a3.729,3.729,0,0,1-.819-1.51,7.513,7.513,0,0,0,6.638,1.243Z" transform="translate(-186.416 -129.076)" fill="#9c73ff"/>
        <path id="Path_10545" data-name="Path 10545" d="M196.55,328.019a12.6,12.6,0,0,0,9.51-1.151c2.3.074,14.731-5.266,16.443-.783,1.482,3.922-3.9,7.549-6.785,8.286-6.3,1.519-10.947,4.659-13.479,5.193-1.841.4-4.318.654-5.819-.829C194.635,336.912,194.791,330.357,196.55,328.019Z" transform="translate(-184.637 -128.072)" fill="#38226d"/>
        <path id="Path_10546" data-name="Path 10546" d="M202.288,338.663c2.532-.534,7.181-3.683,13.479-5.193,2.412-.589,6.574-3.232,6.988-6.38.562,3.609-4.3,6.813-6.988,7.467-6.3,1.519-10.947,4.659-13.479,5.193-1.841.4-4.318.654-5.819-.829a3.628,3.628,0,0,1-.819-1.5,7.513,7.513,0,0,0,6.638,1.243Z" transform="translate(-184.676 -128.294)" fill="#9c73ff"/>
        <path id="Path_10547" data-name="Path 10547" d="M196.3,285.516a75.752,75.752,0,0,1,2.872-13.644s-.856-11.766-1.28-22.925c-.488-12.668-4.889-23.818-1.418-33.917l39.046,8.691s-2.366,50.489-2.882,56.6a114.307,114.307,0,0,1-1.758,14.178c-1.786,9.8-4.677,33.144-4.677,33.144-4.134,2.394-9.557,1.068-9.557,1.068s.295-29.461.562-36.551c.322-8.617.589-7.964.589-7.964l-1.289-21.479-.847-10.689s-1.086,7.844-1.786,14.85c-.617,6.1-2.09,11.637-3.738,23.017-1.427,9.87-3.747,29.682-3.747,29.682-4.134,2.4-9.741.414-9.741.414S195.187,294.069,196.3,285.516Z" transform="translate(-184.636 -119.404)" fill="#0154ac"/>
        <path id="Path_10548" data-name="Path 10548" d="M202.456,146.894c2.974.138,5.193.921,5.524,0a37.745,37.745,0,0,0,.681-4.649c-.341-.865-.635-1.8-.635-1.8-3.738-2.292-4.916-6.334-5.414-11.048-.838-8.037,3.508-15.071,11.545-15.918,7.559-.783,13.12,4.53,14.6,11.821.8,3.6,2.394,10.4.239,16.323-1.2,3.314-2.762,5.938-4.3,6.445a38.067,38.067,0,0,1-4.474-.4h0s-.405,2.228-.681,3.683-.166,2.191,2.688,3.95-4.318,5.367-8.995,5.018-9.906-3.1-11.333-6.178C200.274,150.78,200.413,146.793,202.456,146.894Z" transform="translate(-185.084 -111.342)" fill="#ffcea9"/>
        <path id="Path_10549" data-name="Path 10549" d="M205.939,150.187c-.829,2.062,1.271,4.6,6.859,6.334s6.086-.506,6.086-.506,8.194,3.683,10.864,5.6c3.36,2.348,4.843,9.133,5.294,20.586.525,13.258.571,32.923.129,36.32,0,0-6.27,6.242-14.289,5.588s-21.525-7.761-24.794-13.239c.083-11.628,1.445-13.515-.433-20.255-4.309-15.329-6.583-21.608-4.484-31.791,1.722-8.4,4.143-9.437,7.457-9.363a69.215,69.215,0,0,1,7.31.727Z" transform="translate(-184.258 -114.202)" fill="#f4f4f4"/>
        <path id="Path_10550" data-name="Path 10550" d="M269.411,184.678c-6.62-1.538-15.228-2.3-18.165-4.29-7.108-4.815-12.954-9.667-17.263-12.153-5.082-2.937-7.108-2.311-9.851-1.326-3.222,1.169-3.471,4.99,2.035,9.584,6.518,5.423,11.674,8.719,20.614,14.04,2.338,1.39,28.338,3.821,35.225,4.088,1.841.074,3.241.2,6.795.341a21.939,21.939,0,0,0,10.284-1.952c2.615-1.4,3.342-2.32,3.287-2.974-.064-.819-.819-1.031-2.09-.525a18.035,18.035,0,0,1-6.215,1.731s2.836-.921,4.474-1.685a17.833,17.833,0,0,0,4.079-2.486c1.178-.994.967-3.268-.322-2.762s-2.164,1.2-4.6,2.237a17.788,17.788,0,0,1-4.042,1.188,33.143,33.143,0,0,0,4.6-2.762,7.467,7.467,0,0,0,2.762-3.167c.3-.681-.23-1.952-1.749-1.142-1.372.718-2.762,2.21-5.616,3.186-2.053.7-3.6.921-3.434.506s1.4-.727,2.707-2.09,1.7-3.333.921-3.977-.654-.506-2.145.635-3.176,1.694-5.147,3.471a11.242,11.242,0,0,1-4.539,2.909C279.75,186.078,275.7,186.133,269.411,184.678Z" transform="translate(-186.754 -115.522)" fill="#ffcea9"/>
        <path id="Path_10551" data-name="Path 10551" d="M221.238,163.713c3.121-3.176,6.795-3.462,12.355.681s9.943,7.688,9.943,7.688a11.968,11.968,0,0,1-2.928,8.35c-3.434,4.18-6.445,3.314-6.445,3.314s-5.377-4.686-8.967-7.936S217.38,167.626,221.238,163.713Z" transform="translate(-186.584 -115.142)" fill="#ededed"/>
        <path id="Path_10552" data-name="Path 10552" d="M228.619,124.1s6.951-10.56-8.1-12.714c-10.855-1.547-17.833,5.423-18.634,13-.773,7.227,3.683,14.731,6.9,17.714,1.565.562,4.944.921,9.382-1.132a53.993,53.993,0,0,0,.2-5.92S213.078,123.9,228.619,124.1Z" transform="translate(-185.163 -111.164)" fill="#3a2c6d"/>
      </g>
      <g id="Group_2878" data-name="Group 2878" transform="translate(351.542 297.477)" opacity="0.4">
        <path id="Path_10553" data-name="Path 10553" d="M474.054,357.411c10.891,6.288,20.135,5.634,10.044,13.064-25.908,19.067-38.364,16.01-49.256,9.722l-47.4-27.371c-10.9-6.288-4.382-20.255,6.445-26.524s21.866-2.55,32.767,3.747Z" transform="translate(-381.834 -323.068)" fill="#d6d8e5"/>
      </g>
      <path id="Path_10554" data-name="Path 10554" d="M490.677,281.557a4.812,4.812,0,0,1-.1.875,7.234,7.234,0,0,1-.175.709c-.074.276-.138.552-.239.829s-.184.451-.285.681-.249.58-.405.865-.249.414-.368.617-.414.654-.654.967-.47.617-.737.921c-.064.064-.12.138-.184.212-.359.4-.755.773-1.169,1.151-.267.239-.562.47-.856.709s-.5.414-.773.608-.663.451-1,.672-.681.46-1.059.672a28.015,28.015,0,0,1-2.624,1.335l-.792.331q-1.059.46-2.182.829c-.267.092-.534.193-.8.276-.47.147-.921.276-1.436.414s-.718.2-1.1.295-1.022.221-1.538.322c-.35.074-.69.157-1.05.212-1.04.184-2.1.331-3.158.442l-.994.083c-.626.055-1.252.1-1.841.129h-4a9.451,9.451,0,0,1-1.409-.074l-1.289-.1-1.381-.157-1.243-.175-1.482-.258-1.151-.23c-.58-.129-1.151-.276-1.722-.424l-.921-.258c-1.022-.3-2.016-.635-2.983-1.013-.479-.184-.921-.387-1.4-.589-.239-.111-.488-.2-.718-.313-.7-.341-1.39-.69-2.044-1.068L396,264.682c-5.478-3.167-8.212-7.319-8.2-11.472l-.2,74.2c0,4.152,2.762,8.286,8.2,11.462l47.331,27.39c.663.377,1.344.727,2.044,1.059.23.11.488.212.727.313.414.184.819.377,1.243.543l.147.055c.967.377,1.961.709,2.983,1l.239.083.718.175c.571.147,1.142.295,1.722.424a2.786,2.786,0,0,1,.46.11l.7.12c.488.092.976.184,1.473.258l.589.1a5.464,5.464,0,0,1,.654.074c.46.064.921.11,1.39.157l.654.074h.626l1.409.074h4c.635,0,1.252-.074,1.841-.12l.764-.055h.23c1.068-.11,2.118-.258,3.167-.442h.147c.3-.055.589-.138.921-.193q.773-.147,1.547-.331l1.086-.295c.479-.129.967-.258,1.436-.405l.3-.092c.175-.055.322-.129.5-.184q1.114-.387,2.182-.829l.8-.341a27.961,27.961,0,0,0,2.624-1.326l.331-.2c.258-.157.479-.322.718-.479s.69-.433,1-.663.525-.414.773-.617.589-.46.856-.709l.175-.138c.35-.331.681-.663.994-1l.184-.221c.184-.212.378-.414.543-.626s.12-.193.193-.285c.239-.322.451-.645.654-.976.083-.129.193-.267.267-.405a1.5,1.5,0,0,0,.1-.212,8.161,8.161,0,0,0,.405-.865c.074-.166.175-.331.239-.5s0-.12,0-.175c.1-.276.166-.562.239-.838a5.653,5.653,0,0,0,.166-.562v-.147c0-.295.074-.58.092-.875s.064-.377.074-.571v-.249l.212-74.187q.019.4,0,.792Z" transform="translate(-30.749 -20.049)" fill="#d5d7e2"/>
      <path id="Path_10555" data-name="Path 10555" d="M482.559,267.924c10.882,6.288,10.947,16.489.12,22.777s-28.439,6.3-39.331,0L395.933,263.33c-10.882-6.288-10.947-16.489-.111-22.787s28.43-6.288,39.322,0Z" transform="translate(-30.76 -18.669)" fill="#e9eaf4"/>
      <path id="Path_10556" data-name="Path 10556" d="M413.85,331.521l6.445-17.493a15.531,15.531,0,0,1-3.158-8.71c0-3.591,2.007-5.524,4.788-5.054a6.841,6.841,0,0,1,2.477.921,15.879,15.879,0,0,1,7.218,12.493c0,2.863-1.28,4.649-3.2,5.036l4.824,18.929,1.51,5.966Z" transform="translate(-32.832 -23.776)" fill="#3a4151"/>
      <path id="Path_10557" data-name="Path 10557" d="M418.61,328.967l6.445-17.493a15.4,15.4,0,0,1-3.158-8.709,7.411,7.411,0,0,1,.405-2.5,6.841,6.841,0,0,1,2.477.921A15.879,15.879,0,0,1,432,313.684c0,2.863-1.28,4.649-3.2,5.036l4.824,18.929Z" transform="translate(-33.21 -23.782)" fill="#323944"/>
      <path id="Path_10558" data-name="Path 10558" d="M426.261,212.53a8.87,8.87,0,0,0-1.243.921l-.2.184a6.783,6.783,0,0,0-.921,1.151l-.249.405-.055.1a1.44,1.44,0,0,0-.129.23,6.449,6.449,0,0,0-.377.847s0,0,0,.055a8.957,8.957,0,0,0-.488,2.136v.083a8.612,8.612,0,0,0-.074,1.215l-.064,24.858v8.958a14.731,14.731,0,0,1-6.859,1.565V223.873a11.725,11.725,0,0,1,.175-1.943,1.668,1.668,0,0,1,.083-.405,4.517,4.517,0,0,1,.138-.534s0-.055,0-.083a5.01,5.01,0,0,1,.175-.479.129.129,0,0,1,0-.083c.055-.129.1-.249.157-.368a1.389,1.389,0,0,1,.12-.3.69.69,0,0,0,.083-.138,4.868,4.868,0,0,1,.405-.709h.046a7.024,7.024,0,0,1,.442-.589c.166-.184.331-.368.506-.543a.626.626,0,0,1,.2-.184,6.369,6.369,0,0,1,.589-.488,3.029,3.029,0,0,1,.571-.368,1.592,1.592,0,0,1,.184-.138Z" transform="translate(-32.971 -16.821)" fill="#323944"/>
      <path id="Path_10559" data-name="Path 10559" d="M476.4,249.148v.847l-.064,24.609v9.05a14.906,14.906,0,0,1-6.776,1.519h-.083V273.067l.046-19.076a25.972,25.972,0,0,0-.166-3.02c-.055-.488-.12-.994-.2-1.5v-.221c-.064-.387-.129-.792-.221-1.178a.525.525,0,0,0,0-.166c-.2-.976-.442-1.97-.727-2.965a1.448,1.448,0,0,0-.12-.387c-.129-.442-.267-.865-.414-1.3s-.341-1.013-.525-1.519-.359-.921-.543-1.381c-.23-.608-.506-1.215-.773-1.841a.921.921,0,0,1-.083-.2.109.109,0,0,0-.055-.083c-.488-1.077-1.022-2.173-1.611-3.25-.221-.442-.46-.865-.709-1.3-.322-.58-.644-1.151-.994-1.722s-.783-1.2-1.169-1.786c-.184-.3-.368-.608-.571-.921h0l-.2-.3a.837.837,0,0,0-.12-.147,71.558,71.558,0,0,0-4.511-5.938c-.1-.129-.221-.249-.322-.368-.746-.921-1.5-1.74-2.292-2.559a3.265,3.265,0,0,0-.35-.368c-.405-.424-.81-.847-1.234-1.271s-.976-.976-1.482-1.445c-.764-.709-1.519-1.418-2.311-2.108q-2.044-1.768-4.2-3.351l-.838-.608a56.732,56.732,0,0,0-4.806-3.1c-.562-.322-1.1-.608-1.639-.921s-1.215-.626-1.841-.921c-.414-.2-.838-.387-1.243-.571l-.525-.239-.626-.249a27.11,27.11,0,0,0-3.333-1.215.81.81,0,0,0-.129-.018l-.405-.1c-.184-.074-.368-.1-.534-.157s-.46-.138-.672-.184h-.055l-.451-.1c-.405-.1-.783-.184-1.169-.249-.212-.055-.451-.083-.672-.12a.276.276,0,0,0-.12,0l-.819-.138h-.193a14.49,14.49,0,0,0-1.528-.138,8.785,8.785,0,0,0-.976-.055h-.488a13.16,13.16,0,0,0-1.491.074h-.47a3.684,3.684,0,0,0-.47.055,2.918,2.918,0,0,0-.423.064h-.046c-.12,0-.239.055-.359.064h0c-.285.055-.571.1-.856.184a.443.443,0,0,0-.138,0,.525.525,0,0,0-.23.055,3.817,3.817,0,0,0-.608.184,3.5,3.5,0,0,0-.47.129h-.074a8.634,8.634,0,0,0-.994.405l-.12.046h0a6.676,6.676,0,0,0-.626.322,2.375,2.375,0,0,0-.405.2l6.877-4a13.216,13.216,0,0,1,2.164-.994.138.138,0,0,1,.083,0h0a13.809,13.809,0,0,1,1.841-.506l.2-.055h.23c.424-.083.865-.129,1.3-.184h.377c.516,0,1.04-.064,1.593-.064h1.63c.221,0,.451.055.672.064l.865.092h.083a7.8,7.8,0,0,1,.875.138,3.928,3.928,0,0,1,.635.12h.074c.506.1,1.022.221,1.565.35.506.12,1.022.267,1.528.423a.147.147,0,0,1,.083,0,3.9,3.9,0,0,1,.525.175c.341.1.663.2.976.322a.708.708,0,0,1,.184.064,4.874,4.874,0,0,1,.645.239c.249.1.506.184.773.285a2.141,2.141,0,0,0,.3.129l.691.3c.2.083.405.156.608.258a3.5,3.5,0,0,1,.46.221,6.365,6.365,0,0,1,.718.331c.157.064.3.138.46.221s.424.2.617.3.479.249.709.387a1.954,1.954,0,0,1,.341.166l1.317.727c.129.083.267.147.387.239.589.331,1.16.691,1.731,1.059.295.166.58.368.865.552a5.1,5.1,0,0,0,.433.295l.442.295c.589.405,1.16.81,1.74,1.234l.534.424c.166.12.341.23.506.368s.47.359.709.562c.608.451,1.178.921,1.768,1.427l.184.166a3.3,3.3,0,0,1,.322.295c.405.331.81.672,1.215,1.04s.875.792,1.3,1.215a1.306,1.306,0,0,1,.23.221.331.331,0,0,1,.12.1q.81.764,1.574,1.547l.8.847c.12.11.239.249.359.368s.2.2.3.322c.451.488.921,1.013,1.363,1.51.221.239.424.5.626.727l.3.368c.12.138.249.276.35.405.46.543.875,1.068,1.3,1.6.157.2.3.405.47.608s.258.322.377.488l.488.644c.405.552.792,1.132,1.2,1.685l.451.654.12.175c.239.331.442.709.672,1.04.442.709.921,1.4,1.317,2.09l.157.258c.488.792.921,1.6,1.363,2.4,0,.074.064.138.1.2a2.244,2.244,0,0,1,.129.258c.2.387.405.755.6,1.142s.387.783.571,1.169c.1.212.184.433.285.635a1.177,1.177,0,0,1,.083.2c.055.1.1.221.157.322.166.368.313.727.47,1.1s.285.709.433,1.059c.074.184.138.378.2.562a.773.773,0,0,0,.074.184,3.057,3.057,0,0,0,.129.331c.12.377.258.727.377,1.086s.23.718.331,1.077c.055.166.1.331.157.506s0,.12.046.184a3.682,3.682,0,0,1,.12.387c.1.368.2.727.285,1.077s.166.69.239,1.031a2.144,2.144,0,0,0,.1.47.912.912,0,0,0,0,.157,2.612,2.612,0,0,0,.074.387c.064.331.12.672.184.994s.083.635.138.921,0,.387.046.589a.276.276,0,0,1,0,.12,2.109,2.109,0,0,1,0,.239c0,.3.055.617.074.921S476.379,248.862,476.4,249.148Z" transform="translate(-32.746 -15.692)" fill="#323944"/>
      <path id="Path_10560" data-name="Path 10560" d="M468.97,254.339l-.046,19.076v12.107c-4.115,0-7.632-1.473-9.207-3.545v-5.036l.083-27.915c0-9.437-10.247-23.357-22.437-30.382-5.478-3.167-10.578-4.493-14.547-4.125a10.219,10.219,0,0,0-4.06,1.16,1.594,1.594,0,0,0-.184.138,3.167,3.167,0,0,0-.571.368,4.143,4.143,0,0,0-.589.488.626.626,0,0,0-.2.184,3.158,3.158,0,0,0-.506.543,3.289,3.289,0,0,0-.442.589h-.046a4.869,4.869,0,0,0-.405.709,1.926,1.926,0,0,0-.2.442,1.425,1.425,0,0,0-.157.368.129.129,0,0,0,0,.083,3.345,3.345,0,0,0-.184.562,4.517,4.517,0,0,0-.138.534,3.514,3.514,0,0,0-.083.405,11.718,11.718,0,0,0-.175,1.943V254.4c-4.06,0-7.568-1.4-9.207-3.425V245.7l-.064-28c0-6.555,2.6-11.122,6.9-13.4a6.665,6.665,0,0,1,.626-.322h0l.12-.046a8.64,8.64,0,0,1,.994-.405h0a3.059,3.059,0,0,1,.543-.166,3.82,3.82,0,0,1,.608-.184.524.524,0,0,1,.23-.055.443.443,0,0,1,.138,0l.423-.092a3.625,3.625,0,0,1,.433-.092h0a2.454,2.454,0,0,0,.359-.064h.046a2.913,2.913,0,0,1,.423-.064,3.684,3.684,0,0,1,.47-.055,2.614,2.614,0,0,1,.47,0,13.16,13.16,0,0,1,1.491-.074h.488a8.793,8.793,0,0,1,.976.055,14.5,14.5,0,0,1,1.528.138,9.205,9.205,0,0,1,1.013.147.276.276,0,0,1,.12,0,2.785,2.785,0,0,1,.672.12c.387.064.764.147,1.169.249s.773.184,1.178.3c.166.055.35.083.534.157l.543.147c1.1.341,2.21.746,3.333,1.215.4.147.764.322,1.151.488s.829.368,1.243.571l1.086.543c.23.129.488.249.718.368.543.3,1.077.589,1.639.921a56.728,56.728,0,0,1,4.806,3.1l.838.608q2.154,1.584,4.2,3.351c.792.69,1.547,1.4,2.311,2.108.506.47.994.921,1.482,1.445s.829.847,1.234,1.271a3.268,3.268,0,0,1,.35.368c.792.819,1.547,1.685,2.292,2.559.1.12.221.239.322.368a71.559,71.559,0,0,1,4.511,5.938,3.991,3.991,0,0,1,.322.451h0c.608.921,1.178,1.786,1.74,2.7.35.571.672,1.142.994,1.722.249.433.488.856.709,1.3.589,1.077,1.123,2.173,1.611,3.25.055.1.1.2.138.285.267.608.543,1.215.773,1.841.184.451.368.921.543,1.381s.368,1.013.525,1.519.285.856.414,1.3a1.686,1.686,0,0,0,.12.387c.285.994.543,1.989.727,2.965a.526.526,0,0,1,0,.166c.092.387.157.792.221,1.178v.221c.083.506.147.994.2,1.5a25.979,25.979,0,0,1,.313,2.946Z" transform="translate(-32.177 -16.041)" fill="#3a4151"/>
      <path id="Path_10561" data-name="Path 10561" d="M334.212,119.169a3.526,3.526,0,0,1,1.584,2.762l-.129,45.969c0,4.051-2.891,5.7-6.445,3.683L284.45,145.693a14.1,14.1,0,0,1-6.38-11.048l.129-45.969c0-1.013.727-1.427,1.6-.921l4.806,2.762V83.152c0-14.2,10.127-19.942,22.473-12.806s22.372,24.481,22.326,38.668v7.365ZM319.8,110.883v-7.365c0-8.12-5.7-18.027-12.751-22.1s-12.825-.792-12.843,7.319v7.365l25.6,14.731M311.7,144.625l-.985-11.048c1.648-.424,2.633-2.025,2.633-4.4a14.058,14.058,0,0,0-6.38-11.048c-3.526-2.035-6.445-.4-6.445,3.683a13.35,13.35,0,0,0,2.605,7.421l-1.04,9.851a3.029,3.029,0,0,0,.387,1.657,3.453,3.453,0,0,0,1.2,1.307l6.445,3.683a1.114,1.114,0,0,0,1.2.074,1.28,1.28,0,0,0,.405-1.2" transform="translate(-22.06 -5.298)" fill="#d5d7e2"/>
      <path id="Path_10562" data-name="Path 10562" d="M330.664,230.782a5.119,5.119,0,0,1,2.375,4.014v6.445c0,1.473-1.059,2.071-2.339,1.335l-52.9-30.52a5.146,5.146,0,0,1-2.329-4.023v-6.445c0-1.482,1.059-2.072,2.339-1.326Z" transform="translate(-21.854 -15.823)" fill="#d5d7e2"/>
    </g>
  </g>
</svg>
