<svg xmlns="http://www.w3.org/2000/svg" width="252.526" height="122.037" viewBox="0 0 252.526 122.037">
  <g id="レイヤー_2" data-name="レイヤー 2" transform="translate(-0.057 0.001)">
    <g id="レイヤー_1" data-name="レイヤー 1" transform="translate(7.557 7.5)">
      <path id="Path_11447" data-name="Path 11447" d="M59.184,47.812a.269.269,0,0,0,0,.2.171.171,0,0,0,.147,0h8.8a2.443,2.443,0,0,1,1.857.782,2.59,2.59,0,0,1,.757,1.857,2.443,2.443,0,0,1-.757,1.857,2.614,2.614,0,0,1-1.857.757H29.745a2.614,2.614,0,0,1-1.857-.757,2.443,2.443,0,0,1-.757-1.857,2.59,2.59,0,0,1,.757-1.857,2.443,2.443,0,0,1,1.857-.782H37.9a.244.244,0,0,0,.22,0,.2.2,0,0,0,0-.2c-.293-.66-.635-1.368-1.051-2.15a.635.635,0,0,1,0-.635.684.684,0,0,1,.489-.44H35.608a2.932,2.932,0,0,1-2.834-2.834V36.793a2.712,2.712,0,0,1,.855-1.979,2.614,2.614,0,0,1,1.979-.831h26.63a2.614,2.614,0,0,1,1.979.831,2.712,2.712,0,0,1,.855,1.979V41.8a2.932,2.932,0,0,1-2.834,2.834H60.381a.489.489,0,0,1,.366.318.831.831,0,0,1,0,.489Zm8.8-19.887a2.431,2.431,0,1,1,0,4.862H29.989a2.431,2.431,0,1,1,0-4.862Zm-4.007-17.1a2.834,2.834,0,0,1,2.81,2.785V24.016a2.834,2.834,0,0,1-2.81,2.81H33.385a2.836,2.836,0,0,1-2.81-2.81V13.608a2.836,2.836,0,0,1,2.81-2.81H40.3c.244,0,.391-.122.391-.342h0A2.834,2.834,0,0,1,43.5,7.5h.415a2.712,2.712,0,0,1,2,.831,2.785,2.785,0,0,1,.831,1.979h0c0,.22,0,.342.318.342h3c.269,0,.391-.122.391-.342h0a2.761,2.761,0,0,1,.782-1.979,2.663,2.663,0,0,1,2-.831h.44a2.834,2.834,0,0,1,2.687,2.81h0a.318.318,0,0,0,.342.342ZM37.441,15.27a.342.342,0,0,0-.391.391v.562a.342.342,0,0,0,.391.391H40.3a.342.342,0,0,0,.391-.391V15.66a.366.366,0,0,0-.391-.391Zm0,5.595c-.269,0-.391,0-.391.366v.635a.342.342,0,0,0,.391.391H40.3a.366.366,0,0,0,.391-.391v-.635a.342.342,0,0,0-.391-.366ZM39.884,38.43c-.244,0-.366,0-.366.318v1.1c0,.269,0,.391.366.391h17.37c.22,0,.342,0,.342-.391v-1.1c0-.22,0-.318-.342-.318Zm13.9,6.474a.269.269,0,0,0,0-.2.244.244,0,0,0-.2,0H44.062a.244.244,0,0,0-.2,0,.269.269,0,0,0,0,.2,18.275,18.275,0,0,1,1.1,2.2.562.562,0,0,1,0,.44.9.9,0,0,1-.171.342,1.2,1.2,0,0,1-.342.269h8.062c-.269,0-.318-.244-.2-.464A31.587,31.587,0,0,0,53.907,44.9ZM50.243,15.587a.342.342,0,0,0-.391-.391H46.969c-.22,0-.318.147-.318.391v.562c0,.269,0,.391.318.391h3a.342.342,0,0,0,.391-.391Zm0,5.57c0-.244,0-.366-.391-.366H46.969c-.22,0-.318,0-.318.366v.635c0,.244,0,.391.318.391h3a.342.342,0,0,0,.391-.391Zm9.21-4.617c.22,0,.342-.122.342-.391v-.562c0-.244,0-.391-.342-.391H56.717c-.22,0-.342.147-.342.391v.562c0,.269,0,.391.342.391Zm0,5.644c.22,0,.342-.147.342-.391v-.635c0-.244,0-.366-.342-.366H56.717c-.22,0-.342,0-.342.366v.635c0,.244,0,.391.342.391Z" transform="translate(20.688 -7.5)" fill="#231815"/>
      <path id="Path_11448" data-name="Path 11448" d="M72.076,9.846c0,.2,0,.269.293.269H87.027a2.834,2.834,0,0,1,2.834,2.834v5.863a2.663,2.663,0,0,1-.831,2,2.712,2.712,0,0,1-2,.806H85.513a2.736,2.736,0,0,1-1.954-.684,2.663,2.663,0,0,1-.831-2V16.491c0-.22-.147-.318-.391-.318H54.51c-.22,0-.318,0-.318.318v2.443a2.834,2.834,0,0,1-2.883,2.687h-1.1a2.785,2.785,0,0,1-2-.806,2.736,2.736,0,0,1-.806-2V12.948a2.785,2.785,0,0,1,2.81-2.834H64.4a.244.244,0,0,0,.269-.269,2.272,2.272,0,0,1,.684-1.661A2.126,2.126,0,0,1,66.97,7.5H69.73a2.223,2.223,0,0,1,1.637.684A2.443,2.443,0,0,1,72.076,9.846ZM53.508,53.821a2.761,2.761,0,0,1-1.979-.806,2.638,2.638,0,0,1-.831-2V38.283a2.635,2.635,0,0,1,2.81-2.687H83.729a2.687,2.687,0,0,1,1.979.831,2.761,2.761,0,0,1,.831,1.979V51.134a2.794,2.794,0,0,1-2.81,2.81H80.236a.66.66,0,0,1-.537-.2.709.709,0,0,1-.22-.513H57.49a.709.709,0,0,1-.22.513.782.782,0,0,1-.538.2Zm3.445-19.545a2.794,2.794,0,0,1-2.81-2.81v-5.13a2.794,2.794,0,0,1,2.81-2.81H80.236a2.794,2.794,0,0,1,2.81,2.81v5.033a2.794,2.794,0,0,1-2.81,2.81ZM56.2,21.548a2.223,2.223,0,0,1-.684-1.637A2.272,2.272,0,0,1,56.2,18.25a2.223,2.223,0,0,1,1.612-.684H78.941a2.295,2.295,0,0,1,2.3,2.345,2.3,2.3,0,0,1-.66,1.637,2.248,2.248,0,0,1-1.637.708H57.906A2.15,2.15,0,0,1,56.2,21.548Zm8.526,19.3c0-.22,0-.318-.342-.318H57.759c-.22,0-.342,0-.342.318v.806a.293.293,0,0,0,.342.342h6.718c.244,0,.342,0,.342-.342ZM57.393,47.64c0,.22,0,.318.342.318h6.718c.244,0,.342,0,.342-.318v-.953c0-.244,0-.342-.342-.342H57.759a.293.293,0,0,0-.342.342ZM60.935,28.1c-.269,0-.391,0-.391.318v.977c0,.22.122.318.391.318H75.74c.269,0,.391,0,.391-.318v-.977c0-.22,0-.318-.391-.318ZM79.112,42.021a.293.293,0,0,0,.342-.342v-.806c0-.22-.122-.318-.342-.318H72.124c-.22,0-.342,0-.342.318v.806a.293.293,0,0,0,.342.342Zm-7.329,5.644c0,.22,0,.318.342.318h7.012c.22,0,.342,0,.342-.318v-.953a.293.293,0,0,0-.342-.342H72.124a.293.293,0,0,0-.342.342Z" transform="translate(49.94 -7.499)" fill="#231815"/>
      <path id="Path_11449" data-name="Path 11449" d="M89.061,14.167h.562a2.272,2.272,0,0,1,1.344.44,2.1,2.1,0,0,1,.855,1.71v1.1a3.494,3.494,0,0,1-.684,2.248,3.3,3.3,0,0,1-1.979,1.246c-1.661.342-3.371.66-5.106.953a.537.537,0,0,0-.489.391A87.659,87.659,0,0,1,79.8,31.488a85.975,85.975,0,0,1-4.886,8.893A2.883,2.883,0,0,1,73.108,41.7a3.152,3.152,0,0,1-.806,0,3.274,3.274,0,0,1-1.441-.318l-2.052-1.051a2.15,2.15,0,0,1-1.173-1.588,1.515,1.515,0,0,1,0-.562A2.443,2.443,0,0,1,68.1,36.79a74.638,74.638,0,0,0,7.793-13.926.2.2,0,0,0,0-.2.22.22,0,0,0-.171,0H71.031a3.176,3.176,0,0,1-3.054-2.956v-1.1a2.443,2.443,0,0,1,2.443-2.565H77.97a.489.489,0,0,0,.415-.391,46.688,46.688,0,0,0,.9-4.886,2.981,2.981,0,0,1,1-1.906,2.712,2.712,0,0,1,1.735-.635h.269l2.443.244a2.443,2.443,0,0,1,2.248,2.443,1.881,1.881,0,0,1,0,.611c-.269,1.051-.537,2.077-.806,3.054a.2.2,0,0,0,0,.244.171.171,0,0,0,.171,0Q87.632,14.5,89.061,14.167ZM91.5,26.529a2.712,2.712,0,0,1,.733-1.857,2.443,2.443,0,0,1,1.954-.806H95.9a2.443,2.443,0,0,1,1.979.9,2.907,2.907,0,0,1,.831,1.979q0,.293,0,3.958c0,.293.122,1.857.244,4.691a.489.489,0,0,0,.342.513,29.537,29.537,0,0,1,7.525,4.349,2.834,2.834,0,0,1,1.148,1.954,3.323,3.323,0,0,1,0,.513,3.2,3.2,0,0,1-.318,1.588l-.928,1.515a2.125,2.125,0,0,1-1.612,1.051h-.391a2.15,2.15,0,0,1-1.515-.611c-1.246-1.075-2.443-2.028-3.494-2.81a.147.147,0,0,0-.2,0,.12.12,0,0,0-.122.122q-.464,7.818-9.772,7.793A13.926,13.926,0,0,1,81.268,49.2a7.329,7.329,0,0,1-3.2-6.376,8.111,8.111,0,0,1,2.981-6.376,12.215,12.215,0,0,1,8.331-2.59,20.471,20.471,0,0,1,2.15,0c.269,0,.366,0,.342-.293-.22-4.349-.342-6.743-.342-7.036Zm.635,13.95a.342.342,0,0,0-.342-.391,16.784,16.784,0,0,0-2.956-.293,5.2,5.2,0,0,0-2.81.66,1.881,1.881,0,0,0-1.051,1.686,2.248,2.248,0,0,0,.928,1.906,3.811,3.811,0,0,0,2.443.709,3.469,3.469,0,0,0,2.907-1.1,4.886,4.886,0,0,0,.9-3.176Zm15.88-21.011a2.443,2.443,0,0,1,1.246,1.735,5.59,5.59,0,0,1,0,.611,2.663,2.663,0,0,1-.489,1.515l-1,1.49a2.614,2.614,0,0,1-1.759,1.148h-.537a2.443,2.443,0,0,1-1.564-.537,71.17,71.17,0,0,0-7.109-4.1,2.443,2.443,0,0,1-1.295-1.564,4.08,4.08,0,0,1,0-.708,2.443,2.443,0,0,1,.391-1.295l.708-1.1a3.1,3.1,0,0,1,1.808-1.393,6.3,6.3,0,0,1,.928,0,3.225,3.225,0,0,1,1.319.293,81.639,81.639,0,0,1,7.378,3.909Z" transform="translate(79.104 -6.446)" fill="#231815"/>
      <path id="Path_11450" data-name="Path 11450" d="M37.761,41.267c0,.269,0,.391.342.391H42.99a19.538,19.538,0,0,0,2.761-.147h.244a2.443,2.443,0,0,1,1.735.684A2.248,2.248,0,0,1,48.609,44v2.15a2.834,2.834,0,0,1-2.785,2.785H38.3c-.22,0-.342.122-.342.366q.44,20.449.44,20.913a5.2,5.2,0,0,1-1.49,3.958,6.474,6.474,0,0,1-4.569,1.417H26.254a3.054,3.054,0,0,1-2.028-.9A3.249,3.249,0,0,1,23.2,72.636l-.122-2.052A2.272,2.272,0,0,1,25.3,68.141h.293c1.368.122,2.443.2,3.494.2s1.612-.684,1.612-2.052V55.926h-.122a56.436,56.436,0,0,1-7.329,7.329,65.964,65.964,0,0,1-9.137,6.5,3.347,3.347,0,0,1-1.686.489h-.611a3.543,3.543,0,0,1-2-1.148L8.078,67.139a2.126,2.126,0,0,1-.513-1.393,2.712,2.712,0,0,1,0-.415A2.028,2.028,0,0,1,8.64,63.5a65.086,65.086,0,0,0,10.579-6.865,42.144,42.144,0,0,0,7.549-7.5.22.22,0,0,0,0-.171.122.122,0,0,0-.147,0H11.962a2.712,2.712,0,0,1-1.881-.782,2.663,2.663,0,0,1-.806-1.954v-2.2A2.443,2.443,0,0,1,9.983,42.2a2.638,2.638,0,0,1,1.783-.66h.2q1.783.147,3.078.147h14.9a.342.342,0,0,0,.391-.391l-.147-2.443c0-1.026-.147-1.93-.2-2.687a1.222,1.222,0,0,1,0-.293A2.5,2.5,0,0,1,32.509,33.4h2.736a2.443,2.443,0,0,1,1.857.806,2.712,2.712,0,0,1,.66,1.808v5.253Z" transform="translate(-7.557 29.877)" fill="#231815"/>
      <path id="Path_11451" data-name="Path 11451" d="M34.182,39.282H55.755a26.631,26.631,0,0,0,3.152-.2c.22,0,.318-.171.318-.44v-.269a5.815,5.815,0,0,1,1.783-4.324,5.986,5.986,0,0,1,8.526,0,6.081,6.081,0,0,1-3.689,10.383.44.44,0,0,0-.489.318c-.147.513-.318,1.1-.464,1.735-.537,2.125-1.051,3.958-1.515,5.521a49.4,49.4,0,0,1-2.3,5.937A32.346,32.346,0,0,1,50.111,71.531a42.144,42.144,0,0,1-9.772,5.448,4.568,4.568,0,0,1-1.441.22,4.887,4.887,0,0,1-1,0,4.2,4.2,0,0,1-2.321-1.368l-2.687-2.907a1.735,1.735,0,0,1-.415-1.1,2.174,2.174,0,0,1,0-.537,1.71,1.71,0,0,1,1.2-1.148A32.078,32.078,0,0,0,50.233,59.56a26.385,26.385,0,0,0,5.35-12.215c0-.269,0-.391-.342-.391H30.518a2.639,2.639,0,0,1-1.832-.709,2.443,2.443,0,0,1-.855-1.906V41.6a2.578,2.578,0,0,1,2.59-2.516h.269C32.155,39.209,33.327,39.282,34.182,39.282Zm29.317.9a2.614,2.614,0,0,0,3.689,0,2.565,2.565,0,0,0,0-3.64,2.614,2.614,0,0,0-3.689,0,2.565,2.565,0,0,0,0,3.64Z" transform="translate(21.699 28.246)" fill="#231815"/>
      <path id="Path_11452" data-name="Path 11452" d="M49.192,52.092a2.443,2.443,0,0,1-1.246-1.735,2.052,2.052,0,0,1,0-.66,2.59,2.59,0,0,1,.44-1.393L49.558,46.5a3.225,3.225,0,0,1,1.832-1.319,2.785,2.785,0,0,1,2.2.318c2.125,1.246,4.324,2.614,6.621,4.1a2.712,2.712,0,0,1,1.246,1.759c0,.244,0,.44,0,.635a2.663,2.663,0,0,1-.489,1.515l-1.246,1.954a2.81,2.81,0,0,1-1.808,1.2h-.562a2.761,2.761,0,0,1-1.539-.464C53.345,54.608,51.146,53.24,49.192,52.092Zm6.621,22.574a4.887,4.887,0,0,1-.855,0,3.714,3.714,0,0,1-1.466-.269,4.1,4.1,0,0,1-1.783-1.686L50.047,69.8a1.808,1.808,0,0,1-.293-.953,2.175,2.175,0,0,1,.2-.855,1.906,1.906,0,0,1,1.49-1.148,50.816,50.816,0,0,0,13.974-4.886,52.623,52.623,0,0,0,10.163-7.329,45.392,45.392,0,0,0,7.671-8.917,1.588,1.588,0,0,1,1.441-.757,1.466,1.466,0,0,1,1.393.806l1.808,3.2a4.447,4.447,0,0,1,.562,2.174v.244a4.373,4.373,0,0,1-.855,2.443A61.3,61.3,0,0,1,69.469,69.194a58.634,58.634,0,0,1-13.657,5.473Zm.953-33.837a2.614,2.614,0,0,1-1.222-1.686,3,3,0,0,1,0-.66,2.443,2.443,0,0,1,.415-1.393l1.2-1.857a2.907,2.907,0,0,1,1.808-1.27,2.59,2.59,0,0,1,.708,0,2.81,2.81,0,0,1,1.49.415c2.125,1.246,4.349,2.59,6.645,4.056a2.761,2.761,0,0,1,1.173,1.808,2.443,2.443,0,0,1,0,.586,2.638,2.638,0,0,1-.464,1.515l-1.246,1.881A2.59,2.59,0,0,1,65.463,45.4a1.637,1.637,0,0,1-.586,0,2.638,2.638,0,0,1-1.515-.464q-3.591-2.3-6.6-4.1Z" transform="translate(50.69 30.656)" fill="#231815"/>
      <path id="Path_11453" data-name="Path 11453" d="M99.431,41.967V67.5a2.663,2.663,0,0,1-2.761,2.761H93.763a1.539,1.539,0,0,1-1.173-.513,1.417,1.417,0,0,1-.464-1.173c0-.147,0-.22-.244-.22H72.753a2.687,2.687,0,0,1-1.906-.782,2.639,2.639,0,0,1-.806-1.954V64.1a2.443,2.443,0,0,1,.806-1.906,2.687,2.687,0,0,1,1.906-.782H91.76a.318.318,0,0,0,.366-.366v-4.4a.318.318,0,0,0-.366-.366h-17.1A2.761,2.761,0,0,1,72.7,55.5a2.639,2.639,0,0,1-.806-1.954V52.4A2.736,2.736,0,0,1,72.7,50.42a2.81,2.81,0,0,1,1.93-.757h17.15a.318.318,0,0,0,.366-.366V45.289c0-.22,0-.318-.366-.318H73.315a2.687,2.687,0,0,1-1.906-.782,2.443,2.443,0,0,1-.806-1.906V40.819a2.443,2.443,0,0,1,.806-1.906,2.663,2.663,0,0,1,1.857-.733h23.5a2.761,2.761,0,0,1,2.712,2.736Z" transform="translate(82.611 36.775)" fill="#231815"/>
      <path id="Path_11454" data-name="Path 11454" d="M95.166,73.209a3.4,3.4,0,0,1-.855,0,4.031,4.031,0,0,1-1.588-.342A4.422,4.422,0,0,1,90.866,71.3l-2-3.1a1.808,1.808,0,0,1-.293-.953,1.661,1.661,0,0,1,.2-.757,1.783,1.783,0,0,1,1.393-1.1,46.589,46.589,0,0,0,15.465-5.546,47.3,47.3,0,0,0,10.114-7.7,46.42,46.42,0,0,0,7.329-9.333,1.564,1.564,0,0,1,1.319-.806h0a1.368,1.368,0,0,1,1.295.757l1.857,3.445a4.715,4.715,0,0,1,.635,2.443,4.4,4.4,0,0,1-.733,2.443,48.251,48.251,0,0,1-7.6,8.771A57.51,57.51,0,0,1,109.9,67.2a51.451,51.451,0,0,1-14.732,6.01Zm-3.958-32a2.443,2.443,0,0,1-.953-1.832.537.537,0,0,1,0-.269,2.443,2.443,0,0,1,.709-1.686l1.759-1.906a3.347,3.347,0,0,1,2-1h.391a3.03,3.03,0,0,1,1.808.635,101.949,101.949,0,0,1,8.4,6.865,2.663,2.663,0,0,1,.855,2,2.858,2.858,0,0,1-.806,2l-2.15,2.15a2.443,2.443,0,0,1-1.906.806,2.761,2.761,0,0,1-2-.757A93.153,93.153,0,0,0,91.209,41.2Z" transform="translate(109.353 31.479)" fill="#231815"/>
      <path id="Path_11455" data-name="Path 11455" d="M59.184,47.812a.269.269,0,0,0,0,.2.171.171,0,0,0,.147,0h8.8a2.443,2.443,0,0,1,1.857.782,2.59,2.59,0,0,1,.757,1.857,2.443,2.443,0,0,1-.757,1.857,2.614,2.614,0,0,1-1.857.757H29.745a2.614,2.614,0,0,1-1.857-.757,2.443,2.443,0,0,1-.757-1.857,2.59,2.59,0,0,1,.757-1.857,2.443,2.443,0,0,1,1.857-.782H37.9a.244.244,0,0,0,.22,0,.2.2,0,0,0,0-.2c-.293-.66-.635-1.368-1.051-2.15a.635.635,0,0,1,0-.635.684.684,0,0,1,.489-.44H35.608a2.932,2.932,0,0,1-2.834-2.834V36.793a2.712,2.712,0,0,1,.855-1.979,2.614,2.614,0,0,1,1.979-.831h26.63a2.614,2.614,0,0,1,1.979.831,2.712,2.712,0,0,1,.855,1.979V41.8a2.932,2.932,0,0,1-2.834,2.834H60.381a.489.489,0,0,1,.366.318.831.831,0,0,1,0,.489Zm8.8-19.887a2.431,2.431,0,1,1,0,4.862H29.989a2.431,2.431,0,1,1,0-4.862Zm-4.007-17.1a2.834,2.834,0,0,1,2.81,2.785V24.016a2.834,2.834,0,0,1-2.81,2.81H33.385a2.836,2.836,0,0,1-2.81-2.81V13.608a2.836,2.836,0,0,1,2.81-2.81H40.3c.244,0,.391-.122.391-.342h0A2.834,2.834,0,0,1,43.5,7.5h.415a2.712,2.712,0,0,1,2,.831,2.785,2.785,0,0,1,.831,1.979h0c0,.22,0,.342.318.342h3c.269,0,.391-.122.391-.342h0a2.761,2.761,0,0,1,.782-1.979,2.663,2.663,0,0,1,2-.831h.44a2.834,2.834,0,0,1,2.687,2.81h0a.318.318,0,0,0,.342.342ZM37.441,15.27a.342.342,0,0,0-.391.391v.562a.342.342,0,0,0,.391.391H40.3a.342.342,0,0,0,.391-.391V15.66a.366.366,0,0,0-.391-.391Zm0,5.595c-.269,0-.391,0-.391.366v.635a.342.342,0,0,0,.391.391H40.3a.366.366,0,0,0,.391-.391v-.635a.342.342,0,0,0-.391-.366ZM39.884,38.43c-.244,0-.366,0-.366.318v1.1c0,.269,0,.391.366.391h17.37c.22,0,.342,0,.342-.391v-1.1c0-.22,0-.318-.342-.318Zm13.9,6.474a.269.269,0,0,0,0-.2.244.244,0,0,0-.2,0H44.062a.244.244,0,0,0-.2,0,.269.269,0,0,0,0,.2,18.275,18.275,0,0,1,1.1,2.2.562.562,0,0,1,0,.44.9.9,0,0,1-.171.342,1.2,1.2,0,0,1-.342.269h8.062c-.269,0-.318-.244-.2-.464A31.587,31.587,0,0,0,53.907,44.9ZM50.243,15.587a.342.342,0,0,0-.391-.391H46.969c-.22,0-.318.147-.318.391v.562c0,.269,0,.391.318.391h3a.342.342,0,0,0,.391-.391Zm0,5.57c0-.244,0-.366-.391-.366H46.969c-.22,0-.318,0-.318.366v.635c0,.244,0,.391.318.391h3a.342.342,0,0,0,.391-.391Zm9.21-4.617c.22,0,.342-.122.342-.391v-.562c0-.244,0-.391-.342-.391H56.717c-.22,0-.342.147-.342.391v.562c0,.269,0,.391.342.391Zm0,5.644c.22,0,.342-.147.342-.391v-.635c0-.244,0-.366-.342-.366H56.717c-.22,0-.342,0-.342.366v.635c0,.244,0,.391.342.391Z" transform="translate(20.688 -7.5)" fill="none" stroke="#034baf" stroke-linejoin="round" stroke-width="15"/>
      <path id="Path_11456" data-name="Path 11456" d="M72.076,9.846c0,.2,0,.269.293.269H87.027a2.834,2.834,0,0,1,2.834,2.834v5.863a2.663,2.663,0,0,1-.831,2,2.712,2.712,0,0,1-2,.806H85.513a2.736,2.736,0,0,1-1.954-.684,2.663,2.663,0,0,1-.831-2V16.491c0-.22-.147-.318-.391-.318H54.51c-.22,0-.318,0-.318.318v2.443a2.834,2.834,0,0,1-2.883,2.687h-1.1a2.785,2.785,0,0,1-2-.806,2.736,2.736,0,0,1-.806-2V12.948a2.785,2.785,0,0,1,2.81-2.834H64.4a.244.244,0,0,0,.269-.269,2.272,2.272,0,0,1,.684-1.661A2.126,2.126,0,0,1,66.97,7.5H69.73a2.223,2.223,0,0,1,1.637.684A2.443,2.443,0,0,1,72.076,9.846ZM53.508,53.821a2.761,2.761,0,0,1-1.979-.806,2.638,2.638,0,0,1-.831-2V38.283a2.635,2.635,0,0,1,2.81-2.687H83.729a2.687,2.687,0,0,1,1.979.831,2.761,2.761,0,0,1,.831,1.979V51.134a2.794,2.794,0,0,1-2.81,2.81H80.236a.66.66,0,0,1-.537-.2.709.709,0,0,1-.22-.513H57.49a.709.709,0,0,1-.22.513.782.782,0,0,1-.538.2Zm3.445-19.545a2.794,2.794,0,0,1-2.81-2.81v-5.13a2.794,2.794,0,0,1,2.81-2.81H80.236a2.794,2.794,0,0,1,2.81,2.81v5.033a2.794,2.794,0,0,1-2.81,2.81ZM56.2,21.548a2.223,2.223,0,0,1-.684-1.637A2.272,2.272,0,0,1,56.2,18.25a2.223,2.223,0,0,1,1.612-.684H78.941a2.295,2.295,0,0,1,2.3,2.345,2.3,2.3,0,0,1-.66,1.637,2.248,2.248,0,0,1-1.637.708H57.906A2.15,2.15,0,0,1,56.2,21.548Zm8.526,19.3c0-.22,0-.318-.342-.318H57.759c-.22,0-.342,0-.342.318v.806a.293.293,0,0,0,.342.342h6.718c.244,0,.342,0,.342-.342ZM57.393,47.64c0,.22,0,.318.342.318h6.718c.244,0,.342,0,.342-.318v-.953c0-.244,0-.342-.342-.342H57.759a.293.293,0,0,0-.342.342ZM60.935,28.1c-.269,0-.391,0-.391.318v.977c0,.22.122.318.391.318H75.74c.269,0,.391,0,.391-.318v-.977c0-.22,0-.318-.391-.318ZM79.112,42.021a.293.293,0,0,0,.342-.342v-.806c0-.22-.122-.318-.342-.318H72.124c-.22,0-.342,0-.342.318v.806a.293.293,0,0,0,.342.342Zm-7.329,5.644c0,.22,0,.318.342.318h7.012c.22,0,.342,0,.342-.318v-.953a.293.293,0,0,0-.342-.342H72.124a.293.293,0,0,0-.342.342Z" transform="translate(49.94 -7.499)" fill="none" stroke="#034baf" stroke-linejoin="round" stroke-width="15"/>
      <path id="Path_11457" data-name="Path 11457" d="M89.061,14.167h.562a2.272,2.272,0,0,1,1.344.44,2.1,2.1,0,0,1,.855,1.71v1.1a3.494,3.494,0,0,1-.684,2.248,3.3,3.3,0,0,1-1.979,1.246c-1.661.342-3.371.66-5.106.953a.537.537,0,0,0-.489.391A87.659,87.659,0,0,1,79.8,31.488a85.975,85.975,0,0,1-4.886,8.893A2.883,2.883,0,0,1,73.108,41.7a3.152,3.152,0,0,1-.806,0,3.274,3.274,0,0,1-1.441-.318l-2.052-1.051a2.15,2.15,0,0,1-1.173-1.588,1.515,1.515,0,0,1,0-.562A2.443,2.443,0,0,1,68.1,36.79a74.638,74.638,0,0,0,7.793-13.926.2.2,0,0,0,0-.2.22.22,0,0,0-.171,0H71.031a3.176,3.176,0,0,1-3.054-2.956v-1.1a2.443,2.443,0,0,1,2.443-2.565H77.97a.489.489,0,0,0,.415-.391,46.688,46.688,0,0,0,.9-4.886,2.981,2.981,0,0,1,1-1.906,2.712,2.712,0,0,1,1.735-.635h.269l2.443.244a2.443,2.443,0,0,1,2.248,2.443,1.881,1.881,0,0,1,0,.611c-.269,1.051-.537,2.077-.806,3.054a.2.2,0,0,0,0,.244.171.171,0,0,0,.171,0Q87.632,14.5,89.061,14.167ZM91.5,26.529a2.712,2.712,0,0,1,.733-1.857,2.443,2.443,0,0,1,1.954-.806H95.9a2.443,2.443,0,0,1,1.979.9,2.907,2.907,0,0,1,.831,1.979q0,.293,0,3.958c0,.293.122,1.857.244,4.691a.489.489,0,0,0,.342.513,29.537,29.537,0,0,1,7.525,4.349,2.834,2.834,0,0,1,1.148,1.954,3.323,3.323,0,0,1,0,.513,3.2,3.2,0,0,1-.318,1.588l-.928,1.515a2.125,2.125,0,0,1-1.612,1.051h-.391a2.15,2.15,0,0,1-1.515-.611c-1.246-1.075-2.443-2.028-3.494-2.81a.147.147,0,0,0-.2,0,.12.12,0,0,0-.122.122q-.464,7.818-9.772,7.793A13.926,13.926,0,0,1,81.268,49.2a7.329,7.329,0,0,1-3.2-6.376,8.111,8.111,0,0,1,2.981-6.376,12.215,12.215,0,0,1,8.331-2.59,20.471,20.471,0,0,1,2.15,0c.269,0,.366,0,.342-.293-.22-4.349-.342-6.743-.342-7.036Zm.635,13.95a.342.342,0,0,0-.342-.391,16.784,16.784,0,0,0-2.956-.293,5.2,5.2,0,0,0-2.81.66,1.881,1.881,0,0,0-1.051,1.686,2.248,2.248,0,0,0,.928,1.906,3.811,3.811,0,0,0,2.443.709,3.469,3.469,0,0,0,2.907-1.1,4.886,4.886,0,0,0,.9-3.176Zm15.88-21.011a2.443,2.443,0,0,1,1.246,1.735,5.59,5.59,0,0,1,0,.611,2.663,2.663,0,0,1-.489,1.515l-1,1.49a2.614,2.614,0,0,1-1.759,1.148h-.537a2.443,2.443,0,0,1-1.564-.537,71.17,71.17,0,0,0-7.109-4.1,2.443,2.443,0,0,1-1.295-1.564,4.08,4.08,0,0,1,0-.708,2.443,2.443,0,0,1,.391-1.295l.708-1.1a3.1,3.1,0,0,1,1.808-1.393,6.3,6.3,0,0,1,.928,0,3.225,3.225,0,0,1,1.319.293,81.639,81.639,0,0,1,7.378,3.909Z" transform="translate(79.104 -6.446)" fill="none" stroke="#034baf" stroke-linejoin="round" stroke-width="15"/>
      <path id="Path_11458" data-name="Path 11458" d="M37.761,41.267c0,.269,0,.391.342.391H42.99a19.538,19.538,0,0,0,2.761-.147h.244a2.443,2.443,0,0,1,1.735.684A2.248,2.248,0,0,1,48.609,44v2.15a2.834,2.834,0,0,1-2.785,2.785H38.3c-.22,0-.342.122-.342.366q.44,20.449.44,20.913a5.2,5.2,0,0,1-1.49,3.958,6.474,6.474,0,0,1-4.569,1.417H26.254a3.054,3.054,0,0,1-2.028-.9A3.249,3.249,0,0,1,23.2,72.636l-.122-2.052A2.272,2.272,0,0,1,25.3,68.141h.293c1.368.122,2.443.2,3.494.2s1.612-.684,1.612-2.052V55.926h-.122a56.436,56.436,0,0,1-7.329,7.329,65.964,65.964,0,0,1-9.137,6.5,3.347,3.347,0,0,1-1.686.489h-.611a3.543,3.543,0,0,1-2-1.148L8.078,67.139a2.126,2.126,0,0,1-.513-1.393,2.712,2.712,0,0,1,0-.415A2.028,2.028,0,0,1,8.64,63.5a65.086,65.086,0,0,0,10.579-6.865,42.144,42.144,0,0,0,7.549-7.5.22.22,0,0,0,0-.171.122.122,0,0,0-.147,0H11.962a2.712,2.712,0,0,1-1.881-.782,2.663,2.663,0,0,1-.806-1.954v-2.2A2.443,2.443,0,0,1,9.983,42.2a2.638,2.638,0,0,1,1.783-.66h.2q1.783.147,3.078.147h14.9a.342.342,0,0,0,.391-.391l-.147-2.443c0-1.026-.147-1.93-.2-2.687a1.222,1.222,0,0,1,0-.293A2.5,2.5,0,0,1,32.509,33.4h2.736a2.443,2.443,0,0,1,1.857.806,2.712,2.712,0,0,1,.66,1.808v5.253Z" transform="translate(-7.557 29.877)" fill="none" stroke="#034baf" stroke-linejoin="round" stroke-width="15"/>
      <path id="Path_11459" data-name="Path 11459" d="M34.182,39.282H55.755a26.631,26.631,0,0,0,3.152-.2c.22,0,.318-.171.318-.44v-.269a5.815,5.815,0,0,1,1.783-4.324,5.986,5.986,0,0,1,8.526,0,6.081,6.081,0,0,1-3.689,10.383.44.44,0,0,0-.489.318c-.147.513-.318,1.1-.464,1.735-.537,2.125-1.051,3.958-1.515,5.521a49.4,49.4,0,0,1-2.3,5.937A32.346,32.346,0,0,1,50.111,71.531a42.144,42.144,0,0,1-9.772,5.448,4.568,4.568,0,0,1-1.441.22,4.887,4.887,0,0,1-1,0,4.2,4.2,0,0,1-2.321-1.368l-2.687-2.907a1.735,1.735,0,0,1-.415-1.1,2.174,2.174,0,0,1,0-.537,1.71,1.71,0,0,1,1.2-1.148A32.078,32.078,0,0,0,50.233,59.56a26.385,26.385,0,0,0,5.35-12.215c0-.269,0-.391-.342-.391H30.518a2.639,2.639,0,0,1-1.832-.709,2.443,2.443,0,0,1-.855-1.906V41.6a2.578,2.578,0,0,1,2.59-2.516h.269C32.155,39.209,33.327,39.282,34.182,39.282Zm29.317.9a2.614,2.614,0,0,0,3.689,0,2.565,2.565,0,0,0,0-3.64,2.614,2.614,0,0,0-3.689,0,2.565,2.565,0,0,0,0,3.64Z" transform="translate(21.699 28.246)" fill="none" stroke="#034baf" stroke-linejoin="round" stroke-width="15"/>
      <path id="Path_11460" data-name="Path 11460" d="M49.192,52.092a2.443,2.443,0,0,1-1.246-1.735,2.052,2.052,0,0,1,0-.66,2.59,2.59,0,0,1,.44-1.393L49.558,46.5a3.225,3.225,0,0,1,1.832-1.319,2.785,2.785,0,0,1,2.2.318c2.125,1.246,4.324,2.614,6.621,4.1a2.712,2.712,0,0,1,1.246,1.759c0,.244,0,.44,0,.635a2.663,2.663,0,0,1-.489,1.515l-1.246,1.954a2.81,2.81,0,0,1-1.808,1.2h-.562a2.761,2.761,0,0,1-1.539-.464C53.345,54.608,51.146,53.24,49.192,52.092Zm6.621,22.574a4.887,4.887,0,0,1-.855,0,3.714,3.714,0,0,1-1.466-.269,4.1,4.1,0,0,1-1.783-1.686L50.047,69.8a1.808,1.808,0,0,1-.293-.953,2.175,2.175,0,0,1,.2-.855,1.906,1.906,0,0,1,1.49-1.148,50.816,50.816,0,0,0,13.974-4.886,52.623,52.623,0,0,0,10.163-7.329,45.392,45.392,0,0,0,7.671-8.917,1.588,1.588,0,0,1,1.441-.757,1.466,1.466,0,0,1,1.393.806l1.808,3.2a4.447,4.447,0,0,1,.562,2.174v.244a4.373,4.373,0,0,1-.855,2.443A61.3,61.3,0,0,1,69.469,69.194a58.634,58.634,0,0,1-13.657,5.473Zm.953-33.837a2.614,2.614,0,0,1-1.222-1.686,3,3,0,0,1,0-.66,2.443,2.443,0,0,1,.415-1.393l1.2-1.857a2.907,2.907,0,0,1,1.808-1.27,2.59,2.59,0,0,1,.708,0,2.81,2.81,0,0,1,1.49.415c2.125,1.246,4.349,2.59,6.645,4.056a2.761,2.761,0,0,1,1.173,1.808,2.443,2.443,0,0,1,0,.586,2.638,2.638,0,0,1-.464,1.515l-1.246,1.881A2.59,2.59,0,0,1,65.463,45.4a1.637,1.637,0,0,1-.586,0,2.638,2.638,0,0,1-1.515-.464q-3.591-2.3-6.6-4.1Z" transform="translate(50.69 30.656)" fill="#efea3a" stroke="#034baf" stroke-linejoin="round" stroke-width="15"/>
      <path id="Path_11461" data-name="Path 11461" d="M99.431,41.967V67.5a2.663,2.663,0,0,1-2.761,2.761H93.763a1.539,1.539,0,0,1-1.173-.513,1.417,1.417,0,0,1-.464-1.173c0-.147,0-.22-.244-.22H72.753a2.687,2.687,0,0,1-1.906-.782,2.639,2.639,0,0,1-.806-1.954V64.1a2.443,2.443,0,0,1,.806-1.906,2.687,2.687,0,0,1,1.906-.782H91.76a.318.318,0,0,0,.366-.366v-4.4a.318.318,0,0,0-.366-.366h-17.1A2.761,2.761,0,0,1,72.7,55.5a2.639,2.639,0,0,1-.806-1.954V52.4A2.736,2.736,0,0,1,72.7,50.42a2.81,2.81,0,0,1,1.93-.757h17.15a.318.318,0,0,0,.366-.366V45.289c0-.22,0-.318-.366-.318H73.315a2.687,2.687,0,0,1-1.906-.782,2.443,2.443,0,0,1-.806-1.906V40.819a2.443,2.443,0,0,1,.806-1.906,2.663,2.663,0,0,1,1.857-.733h23.5a2.761,2.761,0,0,1,2.712,2.736Z" transform="translate(82.611 36.775)" fill="none" stroke="#034baf" stroke-linejoin="round" stroke-width="15"/>
      <path id="Path_11462" data-name="Path 11462" d="M95.166,73.209a3.4,3.4,0,0,1-.855,0,4.031,4.031,0,0,1-1.588-.342A4.422,4.422,0,0,1,90.866,71.3l-2-3.1a1.808,1.808,0,0,1-.293-.953,1.661,1.661,0,0,1,.2-.757,1.783,1.783,0,0,1,1.393-1.1,46.589,46.589,0,0,0,15.465-5.546,47.3,47.3,0,0,0,10.114-7.7,46.42,46.42,0,0,0,7.329-9.333,1.564,1.564,0,0,1,1.319-.806h0a1.368,1.368,0,0,1,1.295.757l1.857,3.445a4.715,4.715,0,0,1,.635,2.443,4.4,4.4,0,0,1-.733,2.443,48.251,48.251,0,0,1-7.6,8.771A57.51,57.51,0,0,1,109.9,67.2a51.451,51.451,0,0,1-14.732,6.01Zm-3.958-32a2.443,2.443,0,0,1-.953-1.832.537.537,0,0,1,0-.269,2.443,2.443,0,0,1,.709-1.686l1.759-1.906a3.347,3.347,0,0,1,2-1h.391a3.03,3.03,0,0,1,1.808.635,101.949,101.949,0,0,1,8.4,6.865,2.663,2.663,0,0,1,.855,2,2.858,2.858,0,0,1-.806,2l-2.15,2.15a2.443,2.443,0,0,1-1.906.806,2.761,2.761,0,0,1-2-.757A93.153,93.153,0,0,0,91.209,41.2Z" transform="translate(109.353 31.479)" fill="none" stroke="#034baf" stroke-linejoin="round" stroke-width="15"/>
      <path id="Path_11463" data-name="Path 11463" d="M59.184,47.812a.269.269,0,0,0,0,.2.171.171,0,0,0,.147,0h8.8a2.443,2.443,0,0,1,1.857.782,2.59,2.59,0,0,1,.757,1.857,2.443,2.443,0,0,1-.757,1.857,2.614,2.614,0,0,1-1.857.757H29.745a2.614,2.614,0,0,1-1.857-.757,2.443,2.443,0,0,1-.757-1.857,2.59,2.59,0,0,1,.757-1.857,2.443,2.443,0,0,1,1.857-.782H37.9a.244.244,0,0,0,.22,0,.2.2,0,0,0,0-.2c-.293-.66-.635-1.368-1.051-2.15a.635.635,0,0,1,0-.635.684.684,0,0,1,.489-.44H35.608a2.932,2.932,0,0,1-2.834-2.834V36.793a2.712,2.712,0,0,1,.855-1.979,2.614,2.614,0,0,1,1.979-.831h26.63a2.614,2.614,0,0,1,1.979.831,2.712,2.712,0,0,1,.855,1.979V41.8a2.932,2.932,0,0,1-2.834,2.834H60.381a.489.489,0,0,1,.366.318.831.831,0,0,1,0,.489Zm8.8-19.887a2.431,2.431,0,1,1,0,4.862H29.989a2.431,2.431,0,1,1,0-4.862Zm-4.007-17.1a2.834,2.834,0,0,1,2.81,2.785V24.016a2.834,2.834,0,0,1-2.81,2.81H33.385a2.836,2.836,0,0,1-2.81-2.81V13.608a2.836,2.836,0,0,1,2.81-2.81H40.3c.244,0,.391-.122.391-.342h0A2.834,2.834,0,0,1,43.5,7.5h.415a2.712,2.712,0,0,1,2,.831,2.785,2.785,0,0,1,.831,1.979h0c0,.22,0,.342.318.342h3c.269,0,.391-.122.391-.342h0a2.761,2.761,0,0,1,.782-1.979,2.663,2.663,0,0,1,2-.831h.44a2.834,2.834,0,0,1,2.687,2.81h0a.318.318,0,0,0,.342.342ZM37.441,15.27a.342.342,0,0,0-.391.391v.562a.342.342,0,0,0,.391.391H40.3a.342.342,0,0,0,.391-.391V15.66a.366.366,0,0,0-.391-.391Zm0,5.595c-.269,0-.391,0-.391.366v.635a.342.342,0,0,0,.391.391H40.3a.366.366,0,0,0,.391-.391v-.635a.342.342,0,0,0-.391-.366ZM39.884,38.43c-.244,0-.366,0-.366.318v1.1c0,.269,0,.391.366.391h17.37c.22,0,.342,0,.342-.391v-1.1c0-.22,0-.318-.342-.318Zm13.9,6.474a.269.269,0,0,0,0-.2.244.244,0,0,0-.2,0H44.062a.244.244,0,0,0-.2,0,.269.269,0,0,0,0,.2,18.275,18.275,0,0,1,1.1,2.2.562.562,0,0,1,0,.44.9.9,0,0,1-.171.342,1.2,1.2,0,0,1-.342.269h8.062c-.269,0-.318-.244-.2-.464A31.587,31.587,0,0,0,53.907,44.9ZM50.243,15.587a.342.342,0,0,0-.391-.391H46.969c-.22,0-.318.147-.318.391v.562c0,.269,0,.391.318.391h3a.342.342,0,0,0,.391-.391Zm0,5.57c0-.244,0-.366-.391-.366H46.969c-.22,0-.318,0-.318.366v.635c0,.244,0,.391.318.391h3a.342.342,0,0,0,.391-.391Zm9.21-4.617c.22,0,.342-.122.342-.391v-.562c0-.244,0-.391-.342-.391H56.717c-.22,0-.342.147-.342.391v.562c0,.269,0,.391.342.391Zm0,5.644c.22,0,.342-.147.342-.391v-.635c0-.244,0-.366-.342-.366H56.717c-.22,0-.342,0-.342.366v.635c0,.244,0,.391.342.391Z" transform="translate(20.688 -7.5)" fill="#fff"/>
      <path id="Path_11464" data-name="Path 11464" d="M72.076,9.846c0,.2,0,.269.293.269H87.027a2.834,2.834,0,0,1,2.834,2.834v5.863a2.663,2.663,0,0,1-.831,2,2.712,2.712,0,0,1-2,.806H85.513a2.736,2.736,0,0,1-1.954-.684,2.663,2.663,0,0,1-.831-2V16.491c0-.22-.147-.318-.391-.318H54.51c-.22,0-.318,0-.318.318v2.443a2.834,2.834,0,0,1-2.883,2.687h-1.1a2.785,2.785,0,0,1-2-.806,2.736,2.736,0,0,1-.806-2V12.948a2.785,2.785,0,0,1,2.81-2.834H64.4a.244.244,0,0,0,.269-.269,2.272,2.272,0,0,1,.684-1.661A2.126,2.126,0,0,1,66.97,7.5H69.73a2.223,2.223,0,0,1,1.637.684A2.443,2.443,0,0,1,72.076,9.846ZM53.508,53.821a2.761,2.761,0,0,1-1.979-.806,2.638,2.638,0,0,1-.831-2V38.283a2.635,2.635,0,0,1,2.81-2.687H83.729a2.687,2.687,0,0,1,1.979.831,2.761,2.761,0,0,1,.831,1.979V51.134a2.794,2.794,0,0,1-2.81,2.81H80.236a.66.66,0,0,1-.537-.2.709.709,0,0,1-.22-.513H57.49a.709.709,0,0,1-.22.513.782.782,0,0,1-.538.2Zm3.445-19.545a2.794,2.794,0,0,1-2.81-2.81v-5.13a2.794,2.794,0,0,1,2.81-2.81H80.236a2.794,2.794,0,0,1,2.81,2.81v5.033a2.794,2.794,0,0,1-2.81,2.81ZM56.2,21.548a2.223,2.223,0,0,1-.684-1.637A2.272,2.272,0,0,1,56.2,18.25a2.223,2.223,0,0,1,1.612-.684H78.941a2.295,2.295,0,0,1,2.3,2.345,2.3,2.3,0,0,1-.66,1.637,2.248,2.248,0,0,1-1.637.708H57.906A2.15,2.15,0,0,1,56.2,21.548Zm8.526,19.3c0-.22,0-.318-.342-.318H57.759c-.22,0-.342,0-.342.318v.806a.293.293,0,0,0,.342.342h6.718c.244,0,.342,0,.342-.342ZM57.393,47.64c0,.22,0,.318.342.318h6.718c.244,0,.342,0,.342-.318v-.953c0-.244,0-.342-.342-.342H57.759a.293.293,0,0,0-.342.342ZM60.935,28.1c-.269,0-.391,0-.391.318v.977c0,.22.122.318.391.318H75.74c.269,0,.391,0,.391-.318v-.977c0-.22,0-.318-.391-.318ZM79.112,42.021a.293.293,0,0,0,.342-.342v-.806c0-.22-.122-.318-.342-.318H72.124c-.22,0-.342,0-.342.318v.806a.293.293,0,0,0,.342.342Zm-7.329,5.644c0,.22,0,.318.342.318h7.012c.22,0,.342,0,.342-.318v-.953a.293.293,0,0,0-.342-.342H72.124a.293.293,0,0,0-.342.342Z" transform="translate(49.94 -7.499)" fill="#fff"/>
      <path id="Path_11465" data-name="Path 11465" d="M89.061,14.167h.562a2.272,2.272,0,0,1,1.344.44,2.1,2.1,0,0,1,.855,1.71v1.1a3.494,3.494,0,0,1-.684,2.248,3.3,3.3,0,0,1-1.979,1.246c-1.661.342-3.371.66-5.106.953a.537.537,0,0,0-.489.391A87.659,87.659,0,0,1,79.8,31.488a85.975,85.975,0,0,1-4.886,8.893A2.883,2.883,0,0,1,73.108,41.7a3.152,3.152,0,0,1-.806,0,3.274,3.274,0,0,1-1.441-.318l-2.052-1.051a2.15,2.15,0,0,1-1.173-1.588,1.515,1.515,0,0,1,0-.562A2.443,2.443,0,0,1,68.1,36.79a74.638,74.638,0,0,0,7.793-13.926.2.2,0,0,0,0-.2.22.22,0,0,0-.171,0H71.031a3.176,3.176,0,0,1-3.054-2.956v-1.1a2.443,2.443,0,0,1,2.443-2.565H77.97a.489.489,0,0,0,.415-.391,46.688,46.688,0,0,0,.9-4.886,2.981,2.981,0,0,1,1-1.906,2.712,2.712,0,0,1,1.735-.635h.269l2.443.244a2.443,2.443,0,0,1,2.248,2.443,1.881,1.881,0,0,1,0,.611c-.269,1.051-.537,2.077-.806,3.054a.2.2,0,0,0,0,.244.171.171,0,0,0,.171,0Q87.632,14.5,89.061,14.167ZM91.5,26.529a2.712,2.712,0,0,1,.733-1.857,2.443,2.443,0,0,1,1.954-.806H95.9a2.443,2.443,0,0,1,1.979.9,2.907,2.907,0,0,1,.831,1.979q0,.293,0,3.958c0,.293.122,1.857.244,4.691a.489.489,0,0,0,.342.513,29.537,29.537,0,0,1,7.525,4.349,2.834,2.834,0,0,1,1.148,1.954,3.323,3.323,0,0,1,0,.513,3.2,3.2,0,0,1-.318,1.588l-.928,1.515a2.125,2.125,0,0,1-1.612,1.051h-.391a2.15,2.15,0,0,1-1.515-.611c-1.246-1.075-2.443-2.028-3.494-2.81a.147.147,0,0,0-.2,0,.12.12,0,0,0-.122.122q-.464,7.818-9.772,7.793A13.926,13.926,0,0,1,81.268,49.2a7.329,7.329,0,0,1-3.2-6.376,8.111,8.111,0,0,1,2.981-6.376,12.215,12.215,0,0,1,8.331-2.59,20.471,20.471,0,0,1,2.15,0c.269,0,.366,0,.342-.293-.22-4.349-.342-6.743-.342-7.036Zm.635,13.95a.342.342,0,0,0-.342-.391,16.784,16.784,0,0,0-2.956-.293,5.2,5.2,0,0,0-2.81.66,1.881,1.881,0,0,0-1.051,1.686,2.248,2.248,0,0,0,.928,1.906,3.811,3.811,0,0,0,2.443.709,3.469,3.469,0,0,0,2.907-1.1,4.886,4.886,0,0,0,.9-3.176Zm15.88-21.011a2.443,2.443,0,0,1,1.246,1.735,5.59,5.59,0,0,1,0,.611,2.663,2.663,0,0,1-.489,1.515l-1,1.49a2.614,2.614,0,0,1-1.759,1.148h-.537a2.443,2.443,0,0,1-1.564-.537,71.17,71.17,0,0,0-7.109-4.1,2.443,2.443,0,0,1-1.295-1.564,4.08,4.08,0,0,1,0-.708,2.443,2.443,0,0,1,.391-1.295l.708-1.1a3.1,3.1,0,0,1,1.808-1.393,6.3,6.3,0,0,1,.928,0,3.225,3.225,0,0,1,1.319.293,81.639,81.639,0,0,1,7.378,3.909Z" transform="translate(79.104 -6.446)" fill="#fff"/>
      <path id="Path_11466" data-name="Path 11466" d="M37.761,41.267c0,.269,0,.391.342.391H42.99a19.538,19.538,0,0,0,2.761-.147h.244a2.443,2.443,0,0,1,1.735.684A2.248,2.248,0,0,1,48.609,44v2.15a2.834,2.834,0,0,1-2.785,2.785H38.3c-.22,0-.342.122-.342.366q.44,20.449.44,20.913a5.2,5.2,0,0,1-1.49,3.958,6.474,6.474,0,0,1-4.569,1.417H26.254a3.054,3.054,0,0,1-2.028-.9A3.249,3.249,0,0,1,23.2,72.636l-.122-2.052A2.272,2.272,0,0,1,25.3,68.141h.293c1.368.122,2.443.2,3.494.2s1.612-.684,1.612-2.052V55.926h-.122a56.436,56.436,0,0,1-7.329,7.329,65.964,65.964,0,0,1-9.137,6.5,3.347,3.347,0,0,1-1.686.489h-.611a3.543,3.543,0,0,1-2-1.148L8.078,67.139a2.126,2.126,0,0,1-.513-1.393,2.712,2.712,0,0,1,0-.415A2.028,2.028,0,0,1,8.64,63.5a65.086,65.086,0,0,0,10.579-6.865,42.144,42.144,0,0,0,7.549-7.5.22.22,0,0,0,0-.171.122.122,0,0,0-.147,0H11.962a2.712,2.712,0,0,1-1.881-.782,2.663,2.663,0,0,1-.806-1.954v-2.2A2.443,2.443,0,0,1,9.983,42.2a2.638,2.638,0,0,1,1.783-.66h.2q1.783.147,3.078.147h14.9a.342.342,0,0,0,.391-.391l-.147-2.443c0-1.026-.147-1.93-.2-2.687a1.222,1.222,0,0,1,0-.293A2.5,2.5,0,0,1,32.509,33.4h2.736a2.443,2.443,0,0,1,1.857.806,2.712,2.712,0,0,1,.66,1.808v5.253Z" transform="translate(-7.557 29.877)" fill="#efea3a"/>
      <path id="Path_11467" data-name="Path 11467" d="M34.182,39.282H55.755a26.631,26.631,0,0,0,3.152-.2c.22,0,.318-.171.318-.44v-.269a5.815,5.815,0,0,1,1.783-4.324,5.986,5.986,0,0,1,8.526,0,6.081,6.081,0,0,1-3.689,10.383.44.44,0,0,0-.489.318c-.147.513-.318,1.1-.464,1.735-.537,2.125-1.051,3.958-1.515,5.521a49.4,49.4,0,0,1-2.3,5.937A32.346,32.346,0,0,1,50.111,71.531a42.144,42.144,0,0,1-9.772,5.448,4.568,4.568,0,0,1-1.441.22,4.887,4.887,0,0,1-1,0,4.2,4.2,0,0,1-2.321-1.368l-2.687-2.907a1.735,1.735,0,0,1-.415-1.1,2.174,2.174,0,0,1,0-.537,1.71,1.71,0,0,1,1.2-1.148A32.078,32.078,0,0,0,50.233,59.56a26.385,26.385,0,0,0,5.35-12.215c0-.269,0-.391-.342-.391H30.518a2.639,2.639,0,0,1-1.832-.709,2.443,2.443,0,0,1-.855-1.906V41.6a2.578,2.578,0,0,1,2.59-2.516h.269C32.155,39.209,33.327,39.282,34.182,39.282Zm29.317.9a2.614,2.614,0,0,0,3.689,0,2.565,2.565,0,0,0,0-3.64,2.614,2.614,0,0,0-3.689,0,2.565,2.565,0,0,0,0,3.64Z" transform="translate(21.699 28.246)" fill="#efea3a"/>
      <path id="Path_11468" data-name="Path 11468" d="M49.192,52.092a2.443,2.443,0,0,1-1.246-1.735,2.052,2.052,0,0,1,0-.66,2.59,2.59,0,0,1,.44-1.393L49.558,46.5a3.225,3.225,0,0,1,1.832-1.319,2.785,2.785,0,0,1,2.2.318c2.125,1.246,4.324,2.614,6.621,4.1a2.712,2.712,0,0,1,1.246,1.759c0,.244,0,.44,0,.635a2.663,2.663,0,0,1-.489,1.515l-1.246,1.954a2.81,2.81,0,0,1-1.808,1.2h-.562a2.761,2.761,0,0,1-1.539-.464C53.345,54.608,51.146,53.24,49.192,52.092Zm6.621,22.574a4.887,4.887,0,0,1-.855,0,3.714,3.714,0,0,1-1.466-.269,4.1,4.1,0,0,1-1.783-1.686L50.047,69.8a1.808,1.808,0,0,1-.293-.953,2.175,2.175,0,0,1,.2-.855,1.906,1.906,0,0,1,1.49-1.148,50.816,50.816,0,0,0,13.974-4.886,52.623,52.623,0,0,0,10.163-7.329,45.392,45.392,0,0,0,7.671-8.917,1.588,1.588,0,0,1,1.441-.757,1.466,1.466,0,0,1,1.393.806l1.808,3.2a4.447,4.447,0,0,1,.562,2.174v.244a4.373,4.373,0,0,1-.855,2.443A61.3,61.3,0,0,1,69.469,69.194a58.634,58.634,0,0,1-13.657,5.473Zm.953-33.837a2.614,2.614,0,0,1-1.222-1.686,3,3,0,0,1,0-.66,2.443,2.443,0,0,1,.415-1.393l1.2-1.857a2.907,2.907,0,0,1,1.808-1.27,2.59,2.59,0,0,1,.708,0,2.81,2.81,0,0,1,1.49.415c2.125,1.246,4.349,2.59,6.645,4.056a2.761,2.761,0,0,1,1.173,1.808,2.443,2.443,0,0,1,0,.586,2.638,2.638,0,0,1-.464,1.515l-1.246,1.881A2.59,2.59,0,0,1,65.463,45.4a1.637,1.637,0,0,1-.586,0,2.638,2.638,0,0,1-1.515-.464q-3.591-2.3-6.6-4.1Z" transform="translate(50.69 30.656)" fill="#efea3a"/>
      <path id="Path_11469" data-name="Path 11469" d="M99.431,41.967V67.5a2.663,2.663,0,0,1-2.761,2.761H93.763a1.539,1.539,0,0,1-1.173-.513,1.417,1.417,0,0,1-.464-1.173c0-.147,0-.22-.244-.22H72.753a2.687,2.687,0,0,1-1.906-.782,2.639,2.639,0,0,1-.806-1.954V64.1a2.443,2.443,0,0,1,.806-1.906,2.687,2.687,0,0,1,1.906-.782H91.76a.318.318,0,0,0,.366-.366v-4.4a.318.318,0,0,0-.366-.366h-17.1A2.761,2.761,0,0,1,72.7,55.5a2.639,2.639,0,0,1-.806-1.954V52.4A2.736,2.736,0,0,1,72.7,50.42a2.81,2.81,0,0,1,1.93-.757h17.15a.318.318,0,0,0,.366-.366V45.289c0-.22,0-.318-.366-.318H73.315a2.687,2.687,0,0,1-1.906-.782,2.443,2.443,0,0,1-.806-1.906V40.819a2.443,2.443,0,0,1,.806-1.906,2.663,2.663,0,0,1,1.857-.733h23.5a2.761,2.761,0,0,1,2.712,2.736Z" transform="translate(82.611 36.775)" fill="#efea3a"/>
      <path id="Path_11470" data-name="Path 11470" d="M95.166,73.209a3.4,3.4,0,0,1-.855,0,4.031,4.031,0,0,1-1.588-.342A4.422,4.422,0,0,1,90.866,71.3l-2-3.1a1.808,1.808,0,0,1-.293-.953,1.661,1.661,0,0,1,.2-.757,1.783,1.783,0,0,1,1.393-1.1,46.589,46.589,0,0,0,15.465-5.546,47.3,47.3,0,0,0,10.114-7.7,46.42,46.42,0,0,0,7.329-9.333,1.564,1.564,0,0,1,1.319-.806h0a1.368,1.368,0,0,1,1.295.757l1.857,3.445a4.715,4.715,0,0,1,.635,2.443,4.4,4.4,0,0,1-.733,2.443,48.251,48.251,0,0,1-7.6,8.771A57.51,57.51,0,0,1,109.9,67.2a51.451,51.451,0,0,1-14.732,6.01Zm-3.958-32a2.443,2.443,0,0,1-.953-1.832.537.537,0,0,1,0-.269,2.443,2.443,0,0,1,.709-1.686l1.759-1.906a3.347,3.347,0,0,1,2-1h.391a3.03,3.03,0,0,1,1.808.635,101.949,101.949,0,0,1,8.4,6.865,2.663,2.663,0,0,1,.855,2,2.858,2.858,0,0,1-.806,2l-2.15,2.15a2.443,2.443,0,0,1-1.906.806,2.761,2.761,0,0,1-2-.757A93.153,93.153,0,0,0,91.209,41.2Z" transform="translate(109.353 31.479)" fill="#efea3a"/>
    </g>
  </g>
</svg>
