<svg xmlns="http://www.w3.org/2000/svg" width="244.261" height="60.574" viewBox="0 0 244.261 60.574">
  <g id="レイヤー_2" data-name="レイヤー 2" transform="translate(0.07 0.001)">
    <g id="レイヤー_1" data-name="レイヤー 1">
      <path id="Path_11290" data-name="Path 11290" d="M51.75,37v.46a2.56,2.56,0,0,1-.5,1.55,2.52,2.52,0,0,1-1.74,1.14l-2.41.46a.33.33,0,0,0-.32.36v9.4A2.59,2.59,0,0,1,46,52.3a2.66,2.66,0,0,1-1.9.77h-.95a2.64,2.64,0,0,1-1.92-.77,2.6,2.6,0,0,1-.77-1.92V42.17c0-.24-.13-.34-.37-.27l-9.26,1.64a2.6,2.6,0,0,1-.5,0,2.39,2.39,0,0,1-1.46-.5,2.56,2.56,0,0,1-1.1-1.73l-.45-2.83a.1.1,0,0,0-.09-.11.19.19,0,0,0-.19.06l-2,2.51a1.51,1.51,0,0,1-1.27.69.74.74,0,0,1-.23-.05,1.66,1.66,0,0,1-1.37-.91q-.51-1-1.23-2.19h-.07c-.07,0-.07,0-.07.07V50.29a2.59,2.59,0,0,1-.8,1.92,2.64,2.64,0,0,1-1.89.77H17.2a2.66,2.66,0,0,1-1.9-.77,2.58,2.58,0,0,1-.79-1.92v-12h-.1a61.67,61.67,0,0,1-3.28,7.89,1.14,1.14,0,0,1-1.19.59,1.2,1.2,0,0,1-1.05-.82,20.935,20.935,0,0,0-1-2.14,4.48,4.48,0,0,1-.46-2,4.94,4.94,0,0,1,.82-2.64,46.17,46.17,0,0,0,3.92-8.26.21.21,0,0,0,0-.23.26.26,0,0,0-.18-.09h-1.6a2.55,2.55,0,0,1-1.92-.8A2.64,2.64,0,0,1,7.7,27.9v-1A2.64,2.64,0,0,1,8.5,25a2.59,2.59,0,0,1,1.92-.8h3.79a.28.28,0,0,0,.32-.32V11.74a2.54,2.54,0,0,1,.79-1.91,2.63,2.63,0,0,1,1.9-.78h.91A2.61,2.61,0,0,1,20,9.83a2.55,2.55,0,0,1,.8,1.91v10h0q1-3.64,1.73-7.94a2.63,2.63,0,0,1,2.51-2.19,1.61,1.61,0,0,1,.5.09h.41A2.37,2.37,0,0,1,27.62,13,2.31,2.31,0,0,1,28,14.16a2.54,2.54,0,0,1-.13.78c-.83,2.64-1.48,4.68-2,6.11a2.8,2.8,0,0,1-1.41,1.6,2.68,2.68,0,0,1-1.32.36,2.21,2.21,0,0,1-.78-.14l-1.23-.32a.42.42,0,0,0-.23.07.26.26,0,0,0-.09.21v1.09a.28.28,0,0,0,.32.32H24.6a2.73,2.73,0,0,1,2.69,2.69v1a2.59,2.59,0,0,1-.8,1.89,2.55,2.55,0,0,1-1.89.8H20.9a.08.08,0,0,0-.09.09.18.18,0,0,0,.05.14c.63.55,1.62,1.54,3,3s2.42,2.63,3.24,3.6a.61.61,0,0,0,.55.18L40.1,35.4a.346.346,0,0,0,.37-.37V11.38a2.64,2.64,0,0,1,.77-1.9,2.58,2.58,0,0,1,1.92-.79h.95a2.71,2.71,0,0,1,2.7,2.69V33.82c0,.25.1.34.32.27l1.41-.22a3.129,3.129,0,0,1,.5,0A2.53,2.53,0,0,1,51.57,36ZM14,20a2.27,2.27,0,0,1,.05.41,2.8,2.8,0,0,1-.5,1.6,3,3,0,0,1-1.78,1.23,1.76,1.76,0,0,1-.55.09,1.91,1.91,0,0,1-1.19-.41,2.12,2.12,0,0,1-.91-1.59A47.94,47.94,0,0,0,8.05,15a2.24,2.24,0,0,1-.09-.6,2.4,2.4,0,0,1,.36-1.27,2.43,2.43,0,0,1,1.46-1.1,2.35,2.35,0,0,1,.64-.09,2.56,2.56,0,0,1,1.23.32,2.38,2.38,0,0,1,1.14,1.5A45.37,45.37,0,0,1,14,20Zm15.56,8.76A2.68,2.68,0,0,1,28.44,27a4.27,4.27,0,0,1-.05-.59A2.61,2.61,0,0,1,28.8,25l.23-.36a2.87,2.87,0,0,1,1.73-1.23,2.55,2.55,0,0,1,.69-.1,2.71,2.71,0,0,1,1.41.41c1.31.83,2.48,1.62,3.52,2.38a2.77,2.77,0,0,1,1.09,1.87v.45a3.09,3.09,0,0,1-.5,1.69l-.55.87a2.06,2.06,0,0,1-1.55,1h-.32a2.24,2.24,0,0,1-1.5-.59c-1.05-.88-2.16-1.77-3.47-2.68Zm8.48-14a2.47,2.47,0,0,1,1,1.87,1.55,1.55,0,0,1,0,.37,3,3,0,0,1-.59,1.78l-.46.64a2,2,0,0,1-1.59.91h-.19a2.28,2.28,0,0,1-1.59-.64c-.91-.82-2-1.69-3.2-2.6a2.71,2.71,0,0,1-1.09-1.74,3,3,0,0,1,0-.5,2.45,2.45,0,0,1,.51-1.5l.13-.18a2.85,2.85,0,0,1,1.78-1.19,4.28,4.28,0,0,1,.6-.05,2.59,2.59,0,0,1,1.45.46,35.18,35.18,0,0,1,3.26,2.27Z" fill="#231815"/>
      <path id="Path_11291" data-name="Path 11291" d="M87,37c-.06,0-.09,0-.09.05h0l1.68.63A1.93,1.93,0,0,1,89.93,39a2.35,2.35,0,0,1,.09.64,2,2,0,0,1-.36,1.14q-2.32,3.2-3,4a.21.21,0,0,0,0,.19.15.15,0,0,0,.14.09h6.52a2.59,2.59,0,0,1,1.89.8,2.55,2.55,0,0,1,.8,1.89v.41a2.73,2.73,0,0,1-2.69,2.69H59.18a2.55,2.55,0,0,1-1.89-.8,2.59,2.59,0,0,1-.8-1.89v-.41a2.73,2.73,0,0,1,2.69-2.69h5.3a.207.207,0,0,0,.2-.32,28.6,28.6,0,0,0-2-4.06,2.36,2.36,0,0,1-.32-1.19,2.14,2.14,0,0,1,.14-.73,2.06,2.06,0,0,1,1.28-1.37l.64-.27a.12.12,0,0,0,0-.09s0-.05-.09-.05H61.65A2.7,2.7,0,0,1,59,34.32v-.41A2.58,2.58,0,0,1,59.75,32a2.62,2.62,0,0,1,1.9-.8H72c.24,0,.36-.1.36-.32V27.8c0-.21-.12-.32-.36-.32H66.12a1.76,1.76,0,0,1-1.3-.52,1.78,1.78,0,0,1-.53-1.3.14.14,0,0,0-.06-.1h-.12c-1.15.83-2.51,1.69-4.06,2.61a2.59,2.59,0,0,1-1.28.36,2.14,2.14,0,0,1-.73-.14,3.07,3.07,0,0,1-1.73-1.18c-.3-.43-.64-.85-1-1.28a2,2,0,0,1-.5-1.32,1.73,1.73,0,0,1,0-.41,1.93,1.93,0,0,1,1-1.46,45.11,45.11,0,0,0,8.53-6.16,44.791,44.791,0,0,0,6.35-6.84A5,5,0,0,1,74.92,7.5h1.74a5.21,5.21,0,0,1,4.28,2.14,46.17,46.17,0,0,0,7.44,7.48,40.44,40.44,0,0,0,8.3,5.25,2,2,0,0,1,1.1,1.37,2.6,2.6,0,0,1,0,.5,2,2,0,0,1-.45,1.23c-.43.55-.86,1.14-1.28,1.78a3.05,3.05,0,0,1-2.42,1.33,2.76,2.76,0,0,1-1.37-.37q-2.19-1.32-4.24-2.78a.08.08,0,0,0-.11,0s-.07.06-.07.09a1.95,1.95,0,0,1-2,2h-6a.28.28,0,0,0-.31.32v3.1c0,.22.1.32.31.32h10.5a2.73,2.73,0,0,1,2.69,2.69v.41a2.62,2.62,0,0,1-.8,1.9,2.58,2.58,0,0,1-1.89.79Zm-14.69.37A.33.33,0,0,0,72,37H67.8a.17.17,0,0,0-.18.1.19.19,0,0,0,0,.18A41.471,41.471,0,0,1,70,41.12a2.47,2.47,0,0,1,.27,1.09,2.56,2.56,0,0,1-.18,1,2.86,2.86,0,0,1-1.51,1.51L68,45v.07c0,.07,0,.07.09.07H72c.24,0,.36-.11.36-.32Zm-2.92-16c-.06,0-.07.07,0,.13a.13.13,0,0,0,.13.1H82.81a.15.15,0,0,0,.14-.1v-.13a49.17,49.17,0,0,1-6.66-6.94c-.13-.18-.25-.18-.37,0a44.479,44.479,0,0,1-6.52,6.94Zm14.87,16a.21.21,0,0,0,0-.22.18.18,0,0,0-.16-.1H79.9c-.21,0-.31.13-.31.37v7.39a.28.28,0,0,0,.31.32h2.79l.07-.05a.09.09,0,0,0,0-.09,1.89,1.89,0,0,1-1.14-1.23,2.35,2.35,0,0,1-.09-.64,2,2,0,0,1,.32-1,40.19,40.19,0,0,0,2.42-4.79Z" fill="#231815"/>
      <path id="Path_11292" data-name="Path 11292" d="M109.82,14.89h20.62a24.59,24.59,0,0,0,3-.18.36.36,0,0,0,.32-.41V14a5.59,5.59,0,0,1,1.69-4.08,5.772,5.772,0,0,1,8.32,8,5.74,5.74,0,0,1-3.76,1.9.42.42,0,0,0-.46.32c-.15.48-.3,1-.45,1.64q-.78,3.06-1.44,5.29a47.7,47.7,0,0,1-2.21,5.68,33.379,33.379,0,0,1-3.38,6,34.26,34.26,0,0,1-7.09,7,40.86,40.86,0,0,1-9.42,5.2,4.15,4.15,0,0,1-1.37.23,5.4,5.4,0,0,1-1-.1,4.06,4.06,0,0,1-2-1.23l-2.55-2.78a1.64,1.64,0,0,1-.41-1,1.61,1.61,0,0,1,.09-.5,1.55,1.55,0,0,1,1.14-1.1A30.76,30.76,0,0,0,125.2,34.35a25.36,25.36,0,0,0,5.11-11.73c0-.24-.08-.36-.32-.36H109.82c-1,0-2.13,0-3.38.09h-.13a2.56,2.56,0,0,1-2.56-2.51V17.12a2.3,2.3,0,0,1,.82-1.77,2.33,2.33,0,0,1,1.65-.64h.22C107.87,14.83,109,14.89,109.82,14.89Zm28,.87a2.378,2.378,0,1,0-.77-1.76,2.41,2.41,0,0,0,.73,1.76Z" fill="#231815"/>
      <path id="Path_11293" data-name="Path 11293" d="M181.62,23.92h1a7.56,7.56,0,0,1,3.92.91l.46.28a2.82,2.82,0,0,1,1.27,1.73,3.38,3.38,0,0,1,.14,1,2.94,2.94,0,0,1-.23,1.19,36.75,36.75,0,0,1-6.88,12.54A34.29,34.29,0,0,1,167.11,51a3.79,3.79,0,0,1-1.27.23,4.33,4.33,0,0,1-1.05-.14,3.94,3.94,0,0,1-2-1.28l-2.05-2.32a1.63,1.63,0,0,1-.41-1,3,3,0,0,1,0-.5,1.82,1.82,0,0,1,1.19-1.15A29.79,29.79,0,0,0,175,37.47,18.4,18.4,0,0,0,179.2,31a.23.23,0,0,0,0-.23.25.25,0,0,0-.21-.09H154.71a2.58,2.58,0,0,1-1.78-.68,2.39,2.39,0,0,1-.78-1.82V26.34a2.38,2.38,0,0,1,.78-1.82,2.42,2.42,0,0,1,1.73-.69.41.41,0,0,1,.18.05q2,.09,3.24.09H180.3A5.275,5.275,0,0,0,181.62,23.92Zm-22.4-4.51h-.09a2.45,2.45,0,0,1-1.78-.73,2.35,2.35,0,0,1-.82-1.83V14.94a2.27,2.27,0,0,1,.82-1.78,2.46,2.46,0,0,1,1.74-.69h23.35a2.46,2.46,0,0,1,1.74.69,2.31,2.31,0,0,1,.82,1.78v1.91a2.38,2.38,0,0,1-.82,1.83,2.45,2.45,0,0,1-1.78.73h-.1c-1.09,0-2.06-.05-2.91-.05H161.78C160.93,19.36,160.07,19.38,159.22,19.41Z" fill="#231815"/>
      <path id="Path_11294" data-name="Path 11294" d="M205.2,50.43a3.71,3.71,0,0,1-2.32-.23,4.34,4.34,0,0,1-1.78-1.51l-1.92-3a1.8,1.8,0,0,1-.27-.92,1.67,1.67,0,0,1,.18-.73,1.69,1.69,0,0,1,1.33-1,44.72,44.72,0,0,0,14.77-5.3,44.59,44.59,0,0,0,9.68-7.36,43.65,43.65,0,0,0,6.93-8.92,1.53,1.53,0,0,1,1.28-.78h0a1.33,1.33,0,0,1,1.23.73l1.78,3.29a4.52,4.52,0,0,1,.6,2.28,4.22,4.22,0,0,1-.69,2.37,46.329,46.329,0,0,1-7.27,8.39,54.84,54.84,0,0,1-9.52,7A49,49,0,0,1,205.2,50.43Zm-3.78-30.61a2.46,2.46,0,0,1-.91-1.74.859.859,0,0,1,0-.27,2.22,2.22,0,0,1,.68-1.6l1.69-1.82a3.06,3.06,0,0,1,1.92-1h.36a3,3,0,0,1,1.74.59,98.691,98.691,0,0,1,8,6.57,2.57,2.57,0,0,1,.82,1.92,2.67,2.67,0,0,1-.78,1.91l-2,2.06a2.44,2.44,0,0,1-1.83.77,2.65,2.65,0,0,1-1.91-.73,91.22,91.22,0,0,0-7.78-6.66Z" fill="#231815"/>
      <path id="Path_11295" data-name="Path 11295" d="M51.75,37v.46a2.56,2.56,0,0,1-.5,1.55,2.52,2.52,0,0,1-1.74,1.14l-2.41.46a.33.33,0,0,0-.32.36v9.4A2.59,2.59,0,0,1,46,52.3a2.66,2.66,0,0,1-1.9.77h-.95a2.64,2.64,0,0,1-1.92-.77,2.6,2.6,0,0,1-.77-1.92V42.17c0-.24-.13-.34-.37-.27l-9.26,1.64a2.6,2.6,0,0,1-.5,0,2.39,2.39,0,0,1-1.46-.5,2.56,2.56,0,0,1-1.1-1.73l-.45-2.83a.1.1,0,0,0-.09-.11.19.19,0,0,0-.19.06l-2,2.51a1.51,1.51,0,0,1-1.27.69.74.74,0,0,1-.23-.05,1.66,1.66,0,0,1-1.37-.91q-.51-1-1.23-2.19h-.07c-.07,0-.07,0-.07.07V50.29a2.59,2.59,0,0,1-.8,1.92,2.64,2.64,0,0,1-1.89.77H17.2a2.66,2.66,0,0,1-1.9-.77,2.58,2.58,0,0,1-.79-1.92v-12h-.1a61.67,61.67,0,0,1-3.28,7.89,1.14,1.14,0,0,1-1.19.59,1.2,1.2,0,0,1-1.05-.82,20.935,20.935,0,0,0-1-2.14,4.48,4.48,0,0,1-.46-2,4.94,4.94,0,0,1,.82-2.64,46.17,46.17,0,0,0,3.92-8.26.21.21,0,0,0,0-.23.26.26,0,0,0-.18-.09h-1.6a2.55,2.55,0,0,1-1.92-.8A2.64,2.64,0,0,1,7.7,27.9v-1A2.64,2.64,0,0,1,8.5,25a2.59,2.59,0,0,1,1.92-.8h3.79a.28.28,0,0,0,.32-.32V11.74a2.54,2.54,0,0,1,.79-1.91,2.63,2.63,0,0,1,1.9-.78h.91A2.61,2.61,0,0,1,20,9.83a2.55,2.55,0,0,1,.8,1.91v10h0q1-3.64,1.73-7.94a2.63,2.63,0,0,1,2.51-2.19,1.61,1.61,0,0,1,.5.09h.41A2.37,2.37,0,0,1,27.62,13,2.31,2.31,0,0,1,28,14.16a2.54,2.54,0,0,1-.13.78c-.83,2.64-1.48,4.68-2,6.11a2.8,2.8,0,0,1-1.41,1.6,2.68,2.68,0,0,1-1.32.36,2.21,2.21,0,0,1-.78-.14l-1.23-.32a.42.42,0,0,0-.23.07.26.26,0,0,0-.09.21v1.09a.28.28,0,0,0,.32.32H24.6a2.73,2.73,0,0,1,2.69,2.69v1a2.59,2.59,0,0,1-.8,1.89,2.55,2.55,0,0,1-1.89.8H20.9a.08.08,0,0,0-.09.09.18.18,0,0,0,.05.14c.63.55,1.62,1.54,3,3s2.42,2.63,3.24,3.6a.61.61,0,0,0,.55.18L40.1,35.4a.346.346,0,0,0,.37-.37V11.38a2.64,2.64,0,0,1,.77-1.9,2.58,2.58,0,0,1,1.92-.79h.95a2.71,2.71,0,0,1,2.7,2.69V33.82c0,.25.1.34.32.27l1.41-.22a3.129,3.129,0,0,1,.5,0A2.53,2.53,0,0,1,51.57,36ZM14,20a2.27,2.27,0,0,1,.05.41,2.8,2.8,0,0,1-.5,1.6,3,3,0,0,1-1.78,1.23,1.76,1.76,0,0,1-.55.09,1.91,1.91,0,0,1-1.19-.41,2.12,2.12,0,0,1-.91-1.59A47.94,47.94,0,0,0,8.05,15a2.24,2.24,0,0,1-.09-.6,2.4,2.4,0,0,1,.36-1.27,2.43,2.43,0,0,1,1.46-1.1,2.35,2.35,0,0,1,.64-.09,2.56,2.56,0,0,1,1.23.32,2.38,2.38,0,0,1,1.14,1.5A45.37,45.37,0,0,1,14,20Zm15.56,8.76A2.68,2.68,0,0,1,28.44,27a4.27,4.27,0,0,1-.05-.59A2.61,2.61,0,0,1,28.8,25l.23-.36a2.87,2.87,0,0,1,1.73-1.23,2.55,2.55,0,0,1,.69-.1,2.71,2.71,0,0,1,1.41.41c1.31.83,2.48,1.62,3.52,2.38a2.77,2.77,0,0,1,1.09,1.87v.45a3.09,3.09,0,0,1-.5,1.69l-.55.87a2.06,2.06,0,0,1-1.55,1h-.32a2.24,2.24,0,0,1-1.5-.59c-1.05-.88-2.16-1.77-3.47-2.68Zm8.48-14a2.47,2.47,0,0,1,1,1.87,1.55,1.55,0,0,1,0,.37,3,3,0,0,1-.59,1.78l-.46.64a2,2,0,0,1-1.59.91h-.19a2.28,2.28,0,0,1-1.59-.64c-.91-.82-2-1.69-3.2-2.6a2.71,2.71,0,0,1-1.09-1.74,3,3,0,0,1,0-.5,2.45,2.45,0,0,1,.51-1.5l.13-.18a2.85,2.85,0,0,1,1.78-1.19,4.28,4.28,0,0,1,.6-.05,2.59,2.59,0,0,1,1.45.46,35.18,35.18,0,0,1,3.26,2.27Z" fill="none" stroke="#034baf" stroke-linejoin="round" stroke-width="15"/>
      <path id="Path_11296" data-name="Path 11296" d="M87,37c-.06,0-.09,0-.09.05h0l1.68.63A1.93,1.93,0,0,1,89.93,39a2.35,2.35,0,0,1,.09.64,2,2,0,0,1-.36,1.14q-2.32,3.2-3,4a.21.21,0,0,0,0,.19.15.15,0,0,0,.14.09h6.52a2.59,2.59,0,0,1,1.89.8,2.55,2.55,0,0,1,.8,1.89v.41a2.73,2.73,0,0,1-2.69,2.69H59.18a2.55,2.55,0,0,1-1.89-.8,2.59,2.59,0,0,1-.8-1.89v-.41a2.73,2.73,0,0,1,2.69-2.69h5.3a.207.207,0,0,0,.2-.32,28.6,28.6,0,0,0-2-4.06,2.36,2.36,0,0,1-.32-1.19,2.14,2.14,0,0,1,.14-.73,2.06,2.06,0,0,1,1.28-1.37l.64-.27a.12.12,0,0,0,0-.09s0-.05-.09-.05H61.65A2.7,2.7,0,0,1,59,34.32v-.41A2.58,2.58,0,0,1,59.75,32a2.62,2.62,0,0,1,1.9-.8H72c.24,0,.36-.1.36-.32V27.8c0-.21-.12-.32-.36-.32H66.12a1.76,1.76,0,0,1-1.3-.52,1.78,1.78,0,0,1-.53-1.3.14.14,0,0,0-.06-.1h-.12c-1.15.83-2.51,1.69-4.06,2.61a2.59,2.59,0,0,1-1.28.36,2.14,2.14,0,0,1-.73-.14,3.07,3.07,0,0,1-1.73-1.18c-.3-.43-.64-.85-1-1.28a2,2,0,0,1-.5-1.32,1.73,1.73,0,0,1,0-.41,1.93,1.93,0,0,1,1-1.46,45.11,45.11,0,0,0,8.53-6.16,44.791,44.791,0,0,0,6.35-6.84A5,5,0,0,1,74.92,7.5h1.74a5.21,5.21,0,0,1,4.28,2.14,46.17,46.17,0,0,0,7.44,7.48,40.44,40.44,0,0,0,8.3,5.25,2,2,0,0,1,1.1,1.37,2.6,2.6,0,0,1,0,.5,2,2,0,0,1-.45,1.23c-.43.55-.86,1.14-1.28,1.78a3.05,3.05,0,0,1-2.42,1.33,2.76,2.76,0,0,1-1.37-.37q-2.19-1.32-4.24-2.78a.08.08,0,0,0-.11,0s-.07.06-.07.09a1.95,1.95,0,0,1-2,2h-6a.28.28,0,0,0-.31.32v3.1c0,.22.1.32.31.32h10.5a2.73,2.73,0,0,1,2.69,2.69v.41a2.62,2.62,0,0,1-.8,1.9,2.58,2.58,0,0,1-1.89.79Zm-14.69.37A.33.33,0,0,0,72,37H67.8a.17.17,0,0,0-.18.1.19.19,0,0,0,0,.18A41.471,41.471,0,0,1,70,41.12a2.47,2.47,0,0,1,.27,1.09,2.56,2.56,0,0,1-.18,1,2.86,2.86,0,0,1-1.51,1.51L68,45v.07c0,.07,0,.07.09.07H72c.24,0,.36-.11.36-.32Zm-2.92-16c-.06,0-.07.07,0,.13a.13.13,0,0,0,.13.1H82.81a.15.15,0,0,0,.14-.1v-.13a49.17,49.17,0,0,1-6.66-6.94c-.13-.18-.25-.18-.37,0a44.479,44.479,0,0,1-6.52,6.94Zm14.87,16a.21.21,0,0,0,0-.22.18.18,0,0,0-.16-.1H79.9c-.21,0-.31.13-.31.37v7.39a.28.28,0,0,0,.31.32h2.79l.07-.05a.09.09,0,0,0,0-.09,1.89,1.89,0,0,1-1.14-1.23,2.35,2.35,0,0,1-.09-.64,2,2,0,0,1,.32-1,40.19,40.19,0,0,0,2.42-4.79Z" fill="none" stroke="#034baf" stroke-linejoin="round" stroke-width="15"/>
      <path id="Path_11297" data-name="Path 11297" d="M109.82,14.89h20.62a24.59,24.59,0,0,0,3-.18.36.36,0,0,0,.32-.41V14a5.59,5.59,0,0,1,1.69-4.08,5.772,5.772,0,0,1,8.32,8,5.74,5.74,0,0,1-3.76,1.9.42.42,0,0,0-.46.32c-.15.48-.3,1-.45,1.64q-.78,3.06-1.44,5.29a47.7,47.7,0,0,1-2.21,5.68,33.379,33.379,0,0,1-3.38,6,34.26,34.26,0,0,1-7.09,7,40.86,40.86,0,0,1-9.42,5.2,4.15,4.15,0,0,1-1.37.23,5.4,5.4,0,0,1-1-.1,4.06,4.06,0,0,1-2-1.23l-2.55-2.78a1.64,1.64,0,0,1-.41-1,1.61,1.61,0,0,1,.09-.5,1.55,1.55,0,0,1,1.14-1.1A30.76,30.76,0,0,0,125.2,34.35a25.36,25.36,0,0,0,5.11-11.73c0-.24-.08-.36-.32-.36H109.82c-1,0-2.13,0-3.38.09h-.13a2.56,2.56,0,0,1-2.56-2.51V17.12a2.3,2.3,0,0,1,.82-1.77,2.33,2.33,0,0,1,1.65-.64h.22C107.87,14.83,109,14.89,109.82,14.89Zm28,.87a2.378,2.378,0,1,0-.77-1.76,2.41,2.41,0,0,0,.73,1.76Z" fill="none" stroke="#034baf" stroke-linejoin="round" stroke-width="15"/>
      <path id="Path_11298" data-name="Path 11298" d="M181.62,23.92h1a7.56,7.56,0,0,1,3.92.91l.46.28a2.82,2.82,0,0,1,1.27,1.73,3.38,3.38,0,0,1,.14,1,2.94,2.94,0,0,1-.23,1.19,36.75,36.75,0,0,1-6.88,12.54A34.29,34.29,0,0,1,167.11,51a3.79,3.79,0,0,1-1.27.23,4.33,4.33,0,0,1-1.05-.14,3.94,3.94,0,0,1-2-1.28l-2.05-2.32a1.63,1.63,0,0,1-.41-1,3,3,0,0,1,0-.5,1.82,1.82,0,0,1,1.19-1.15A29.79,29.79,0,0,0,175,37.47,18.4,18.4,0,0,0,179.2,31a.23.23,0,0,0,0-.23.25.25,0,0,0-.21-.09H154.71a2.58,2.58,0,0,1-1.78-.68,2.39,2.39,0,0,1-.78-1.82V26.34a2.38,2.38,0,0,1,.78-1.82,2.42,2.42,0,0,1,1.73-.69.41.41,0,0,1,.18.05q2,.09,3.24.09H180.3A5.275,5.275,0,0,0,181.62,23.92Zm-22.4-4.51h-.09a2.45,2.45,0,0,1-1.78-.73,2.35,2.35,0,0,1-.82-1.83V14.94a2.27,2.27,0,0,1,.82-1.78,2.46,2.46,0,0,1,1.74-.69h23.35a2.46,2.46,0,0,1,1.74.69,2.31,2.31,0,0,1,.82,1.78v1.91a2.38,2.38,0,0,1-.82,1.83,2.45,2.45,0,0,1-1.78.73h-.1c-1.09,0-2.06-.05-2.91-.05H161.78C160.93,19.36,160.07,19.38,159.22,19.41Z" fill="none" stroke="#034baf" stroke-linejoin="round" stroke-width="15"/>
      <path id="Path_11299" data-name="Path 11299" d="M205.2,50.43a3.71,3.71,0,0,1-2.32-.23,4.34,4.34,0,0,1-1.78-1.51l-1.92-3a1.8,1.8,0,0,1-.27-.92,1.67,1.67,0,0,1,.18-.73,1.69,1.69,0,0,1,1.33-1,44.72,44.72,0,0,0,14.77-5.3,44.59,44.59,0,0,0,9.68-7.36,43.65,43.65,0,0,0,6.93-8.92,1.53,1.53,0,0,1,1.28-.78h0a1.33,1.33,0,0,1,1.23.73l1.78,3.29a4.52,4.52,0,0,1,.6,2.28,4.22,4.22,0,0,1-.69,2.37,46.329,46.329,0,0,1-7.27,8.39,54.84,54.84,0,0,1-9.52,7A49,49,0,0,1,205.2,50.43Zm-3.78-30.61a2.46,2.46,0,0,1-.91-1.74.859.859,0,0,1,0-.27,2.22,2.22,0,0,1,.68-1.6l1.69-1.82a3.06,3.06,0,0,1,1.92-1h.36a3,3,0,0,1,1.74.59,98.691,98.691,0,0,1,8,6.57,2.57,2.57,0,0,1,.82,1.92,2.67,2.67,0,0,1-.78,1.91l-2,2.06a2.44,2.44,0,0,1-1.83.77,2.65,2.65,0,0,1-1.91-.73,91.22,91.22,0,0,0-7.78-6.66Z" fill="none" stroke="#034baf" stroke-linejoin="round" stroke-width="15"/>
      <path id="Path_11300" data-name="Path 11300" d="M51.75,37v.46a2.56,2.56,0,0,1-.5,1.55,2.52,2.52,0,0,1-1.74,1.14l-2.41.46a.33.33,0,0,0-.32.36v9.4A2.59,2.59,0,0,1,46,52.3a2.66,2.66,0,0,1-1.9.77h-.95a2.64,2.64,0,0,1-1.92-.77,2.6,2.6,0,0,1-.77-1.92V42.17c0-.24-.13-.34-.37-.27l-9.26,1.64a2.6,2.6,0,0,1-.5,0,2.39,2.39,0,0,1-1.46-.5,2.56,2.56,0,0,1-1.1-1.73l-.45-2.83a.1.1,0,0,0-.09-.11.19.19,0,0,0-.19.06l-2,2.51a1.51,1.51,0,0,1-1.27.69.74.74,0,0,1-.23-.05,1.66,1.66,0,0,1-1.37-.91q-.51-1-1.23-2.19h-.07c-.07,0-.07,0-.07.07V50.29a2.59,2.59,0,0,1-.8,1.92,2.64,2.64,0,0,1-1.89.77H17.2a2.66,2.66,0,0,1-1.9-.77,2.58,2.58,0,0,1-.79-1.92v-12h-.1a61.67,61.67,0,0,1-3.28,7.89,1.14,1.14,0,0,1-1.19.59,1.2,1.2,0,0,1-1.05-.82,20.935,20.935,0,0,0-1-2.14,4.48,4.48,0,0,1-.46-2,4.94,4.94,0,0,1,.82-2.64,46.17,46.17,0,0,0,3.92-8.26.21.21,0,0,0,0-.23.26.26,0,0,0-.18-.09h-1.6a2.55,2.55,0,0,1-1.92-.8A2.64,2.64,0,0,1,7.7,27.9v-1A2.64,2.64,0,0,1,8.5,25a2.59,2.59,0,0,1,1.92-.8h3.79a.28.28,0,0,0,.32-.32V11.74a2.54,2.54,0,0,1,.79-1.91,2.63,2.63,0,0,1,1.9-.78h.91A2.61,2.61,0,0,1,20,9.83a2.55,2.55,0,0,1,.8,1.91v10h0q1-3.64,1.73-7.94a2.63,2.63,0,0,1,2.51-2.19,1.61,1.61,0,0,1,.5.09h.41A2.37,2.37,0,0,1,27.62,13,2.31,2.31,0,0,1,28,14.16a2.54,2.54,0,0,1-.13.78c-.83,2.64-1.48,4.68-2,6.11a2.8,2.8,0,0,1-1.41,1.6,2.68,2.68,0,0,1-1.32.36,2.21,2.21,0,0,1-.78-.14l-1.23-.32a.42.42,0,0,0-.23.07.26.26,0,0,0-.09.21v1.09a.28.28,0,0,0,.32.32H24.6a2.73,2.73,0,0,1,2.69,2.69v1a2.59,2.59,0,0,1-.8,1.89,2.55,2.55,0,0,1-1.89.8H20.9a.08.08,0,0,0-.09.09.18.18,0,0,0,.05.14c.63.55,1.62,1.54,3,3s2.42,2.63,3.24,3.6a.61.61,0,0,0,.55.18L40.1,35.4a.346.346,0,0,0,.37-.37V11.38a2.64,2.64,0,0,1,.77-1.9,2.58,2.58,0,0,1,1.92-.79h.95a2.71,2.71,0,0,1,2.7,2.69V33.82c0,.25.1.34.32.27l1.41-.22a3.129,3.129,0,0,1,.5,0A2.53,2.53,0,0,1,51.57,36ZM14,20a2.27,2.27,0,0,1,.05.41,2.8,2.8,0,0,1-.5,1.6,3,3,0,0,1-1.78,1.23,1.76,1.76,0,0,1-.55.09,1.91,1.91,0,0,1-1.19-.41,2.12,2.12,0,0,1-.91-1.59A47.94,47.94,0,0,0,8.05,15a2.24,2.24,0,0,1-.09-.6,2.4,2.4,0,0,1,.36-1.27,2.43,2.43,0,0,1,1.46-1.1,2.35,2.35,0,0,1,.64-.09,2.56,2.56,0,0,1,1.23.32,2.38,2.38,0,0,1,1.14,1.5A45.37,45.37,0,0,1,14,20Zm15.56,8.76A2.68,2.68,0,0,1,28.44,27a4.27,4.27,0,0,1-.05-.59A2.61,2.61,0,0,1,28.8,25l.23-.36a2.87,2.87,0,0,1,1.73-1.23,2.55,2.55,0,0,1,.69-.1,2.71,2.71,0,0,1,1.41.41c1.31.83,2.48,1.62,3.52,2.38a2.77,2.77,0,0,1,1.09,1.87v.45a3.09,3.09,0,0,1-.5,1.69l-.55.87a2.06,2.06,0,0,1-1.55,1h-.32a2.24,2.24,0,0,1-1.5-.59c-1.05-.88-2.16-1.77-3.47-2.68Zm8.48-14a2.47,2.47,0,0,1,1,1.87,1.55,1.55,0,0,1,0,.37,3,3,0,0,1-.59,1.78l-.46.64a2,2,0,0,1-1.59.91h-.19a2.28,2.28,0,0,1-1.59-.64c-.91-.82-2-1.69-3.2-2.6a2.71,2.71,0,0,1-1.09-1.74,3,3,0,0,1,0-.5,2.45,2.45,0,0,1,.51-1.5l.13-.18a2.85,2.85,0,0,1,1.78-1.19,4.28,4.28,0,0,1,.6-.05,2.59,2.59,0,0,1,1.45.46,35.18,35.18,0,0,1,3.26,2.27Z" fill="#fff"/>
      <path id="Path_11301" data-name="Path 11301" d="M87,37c-.06,0-.09,0-.09.05h0l1.68.63A1.93,1.93,0,0,1,89.93,39a2.35,2.35,0,0,1,.09.64,2,2,0,0,1-.36,1.14q-2.32,3.2-3,4a.21.21,0,0,0,0,.19.15.15,0,0,0,.14.09h6.52a2.59,2.59,0,0,1,1.89.8,2.55,2.55,0,0,1,.8,1.89v.41a2.73,2.73,0,0,1-2.69,2.69H59.18a2.55,2.55,0,0,1-1.89-.8,2.59,2.59,0,0,1-.8-1.89v-.41a2.73,2.73,0,0,1,2.69-2.69h5.3a.207.207,0,0,0,.2-.32,28.6,28.6,0,0,0-2-4.06,2.36,2.36,0,0,1-.32-1.19,2.14,2.14,0,0,1,.14-.73,2.06,2.06,0,0,1,1.28-1.37l.64-.27a.12.12,0,0,0,0-.09s0-.05-.09-.05H61.65A2.7,2.7,0,0,1,59,34.32v-.41A2.58,2.58,0,0,1,59.75,32a2.62,2.62,0,0,1,1.9-.8H72c.24,0,.36-.1.36-.32V27.8c0-.21-.12-.32-.36-.32H66.12a1.76,1.76,0,0,1-1.3-.52,1.78,1.78,0,0,1-.53-1.3.14.14,0,0,0-.06-.1h-.12c-1.15.83-2.51,1.69-4.06,2.61a2.59,2.59,0,0,1-1.28.36,2.14,2.14,0,0,1-.73-.14,3.07,3.07,0,0,1-1.73-1.18c-.3-.43-.64-.85-1-1.28a2,2,0,0,1-.5-1.32,1.73,1.73,0,0,1,0-.41,1.93,1.93,0,0,1,1-1.46,45.11,45.11,0,0,0,8.53-6.16,44.791,44.791,0,0,0,6.35-6.84A5,5,0,0,1,74.92,7.5h1.74a5.21,5.21,0,0,1,4.28,2.14,46.17,46.17,0,0,0,7.44,7.48,40.44,40.44,0,0,0,8.3,5.25,2,2,0,0,1,1.1,1.37,2.6,2.6,0,0,1,0,.5,2,2,0,0,1-.45,1.23c-.43.55-.86,1.14-1.28,1.78a3.05,3.05,0,0,1-2.42,1.33,2.76,2.76,0,0,1-1.37-.37q-2.19-1.32-4.24-2.78a.08.08,0,0,0-.11,0s-.07.06-.07.09a1.95,1.95,0,0,1-2,2h-6a.28.28,0,0,0-.31.32v3.1c0,.22.1.32.31.32h10.5a2.73,2.73,0,0,1,2.69,2.69v.41a2.62,2.62,0,0,1-.8,1.9,2.58,2.58,0,0,1-1.89.79Zm-14.69.37A.33.33,0,0,0,72,37H67.8a.17.17,0,0,0-.18.1.19.19,0,0,0,0,.18A41.471,41.471,0,0,1,70,41.12a2.47,2.47,0,0,1,.27,1.09,2.56,2.56,0,0,1-.18,1,2.86,2.86,0,0,1-1.51,1.51L68,45v.07c0,.07,0,.07.09.07H72c.24,0,.36-.11.36-.32Zm-2.92-16c-.06,0-.07.07,0,.13a.13.13,0,0,0,.13.1H82.81a.15.15,0,0,0,.14-.1v-.13a49.17,49.17,0,0,1-6.66-6.94c-.13-.18-.25-.18-.37,0a44.479,44.479,0,0,1-6.52,6.94Zm14.87,16a.21.21,0,0,0,0-.22.18.18,0,0,0-.16-.1H79.9c-.21,0-.31.13-.31.37v7.39a.28.28,0,0,0,.31.32h2.79l.07-.05a.09.09,0,0,0,0-.09,1.89,1.89,0,0,1-1.14-1.23,2.35,2.35,0,0,1-.09-.64,2,2,0,0,1,.32-1,40.19,40.19,0,0,0,2.42-4.79Z" fill="#fff"/>
      <path id="Path_11302" data-name="Path 11302" d="M109.82,14.89h20.62a24.59,24.59,0,0,0,3-.18.36.36,0,0,0,.32-.41V14a5.59,5.59,0,0,1,1.69-4.08,5.772,5.772,0,0,1,8.32,8,5.74,5.74,0,0,1-3.76,1.9.42.42,0,0,0-.46.32c-.15.48-.3,1-.45,1.64q-.78,3.06-1.44,5.29a47.7,47.7,0,0,1-2.21,5.68,33.379,33.379,0,0,1-3.38,6,34.26,34.26,0,0,1-7.09,7,40.86,40.86,0,0,1-9.42,5.2,4.15,4.15,0,0,1-1.37.23,5.4,5.4,0,0,1-1-.1,4.06,4.06,0,0,1-2-1.23l-2.55-2.78a1.64,1.64,0,0,1-.41-1,1.61,1.61,0,0,1,.09-.5,1.55,1.55,0,0,1,1.14-1.1A30.76,30.76,0,0,0,125.2,34.35a25.36,25.36,0,0,0,5.11-11.73c0-.24-.08-.36-.32-.36H109.82c-1,0-2.13,0-3.38.09h-.13a2.56,2.56,0,0,1-2.56-2.51V17.12a2.3,2.3,0,0,1,.82-1.77,2.33,2.33,0,0,1,1.65-.64h.22C107.87,14.83,109,14.89,109.82,14.89Zm28,.87a2.378,2.378,0,1,0-.77-1.76,2.41,2.41,0,0,0,.73,1.76Z" fill="#fff"/>
      <path id="Path_11303" data-name="Path 11303" d="M181.62,23.92h1a7.56,7.56,0,0,1,3.92.91l.46.28a2.82,2.82,0,0,1,1.27,1.73,3.38,3.38,0,0,1,.14,1,2.94,2.94,0,0,1-.23,1.19,36.75,36.75,0,0,1-6.88,12.54A34.29,34.29,0,0,1,167.11,51a3.79,3.79,0,0,1-1.27.23,4.33,4.33,0,0,1-1.05-.14,3.94,3.94,0,0,1-2-1.28l-2.05-2.32a1.63,1.63,0,0,1-.41-1,3,3,0,0,1,0-.5,1.82,1.82,0,0,1,1.19-1.15A29.79,29.79,0,0,0,175,37.47,18.4,18.4,0,0,0,179.2,31a.23.23,0,0,0,0-.23.25.25,0,0,0-.21-.09H154.71a2.58,2.58,0,0,1-1.78-.68,2.39,2.39,0,0,1-.78-1.82V26.34a2.38,2.38,0,0,1,.78-1.82,2.42,2.42,0,0,1,1.73-.69.41.41,0,0,1,.18.05q2,.09,3.24.09H180.3A5.275,5.275,0,0,0,181.62,23.92Zm-22.4-4.51h-.09a2.45,2.45,0,0,1-1.78-.73,2.35,2.35,0,0,1-.82-1.83V14.94a2.27,2.27,0,0,1,.82-1.78,2.46,2.46,0,0,1,1.74-.69h23.35a2.46,2.46,0,0,1,1.74.69,2.31,2.31,0,0,1,.82,1.78v1.91a2.38,2.38,0,0,1-.82,1.83,2.45,2.45,0,0,1-1.78.73h-.1c-1.09,0-2.06-.05-2.91-.05H161.78C160.93,19.36,160.07,19.38,159.22,19.41Z" fill="#fff"/>
      <path id="Path_11304" data-name="Path 11304" d="M205.2,50.43a3.71,3.71,0,0,1-2.32-.23,4.34,4.34,0,0,1-1.78-1.51l-1.92-3a1.8,1.8,0,0,1-.27-.92,1.67,1.67,0,0,1,.18-.73,1.69,1.69,0,0,1,1.33-1,44.72,44.72,0,0,0,14.77-5.3,44.59,44.59,0,0,0,9.68-7.36,43.65,43.65,0,0,0,6.93-8.92,1.53,1.53,0,0,1,1.28-.78h0a1.33,1.33,0,0,1,1.23.73l1.78,3.29a4.52,4.52,0,0,1,.6,2.28,4.22,4.22,0,0,1-.69,2.37,46.329,46.329,0,0,1-7.27,8.39,54.84,54.84,0,0,1-9.52,7A49,49,0,0,1,205.2,50.43Zm-3.78-30.61a2.46,2.46,0,0,1-.91-1.74.859.859,0,0,1,0-.27,2.22,2.22,0,0,1,.68-1.6l1.69-1.82a3.06,3.06,0,0,1,1.92-1h.36a3,3,0,0,1,1.74.59,98.691,98.691,0,0,1,8,6.57,2.57,2.57,0,0,1,.82,1.92,2.67,2.67,0,0,1-.78,1.91l-2,2.06a2.44,2.44,0,0,1-1.83.77,2.65,2.65,0,0,1-1.91-.73,91.22,91.22,0,0,0-7.78-6.66Z" fill="#fff"/>
    </g>
  </g>
</svg>
