<svg id="Icon_feather-plus-circle" data-name="Icon feather-plus-circle" xmlns="http://www.w3.org/2000/svg" width="32.225" height="31.713" viewBox="0 0 32.225 31.713">
  <path id="パス_5820" data-name="パス 5820" d="M17.612,1.5a16.236,16.236,0,0,1,6.272,1.247,16.074,16.074,0,0,1,5.121,3.4,15.79,15.79,0,0,1,3.452,5.04,15.671,15.671,0,0,1,0,12.345,15.79,15.79,0,0,1-3.452,5.04,16.074,16.074,0,0,1-5.121,3.4,16.4,16.4,0,0,1-12.544,0,16.074,16.074,0,0,1-5.121-3.4,15.79,15.79,0,0,1-3.452-5.04,15.671,15.671,0,0,1,0-12.345,15.79,15.79,0,0,1,3.452-5.04,16.074,16.074,0,0,1,5.121-3.4A16.236,16.236,0,0,1,17.612,1.5Zm0,28.83a13.2,13.2,0,0,0,9.322-3.8,12.828,12.828,0,0,0,0-18.347,13.334,13.334,0,0,0-18.643,0,12.828,12.828,0,0,0,0,18.347A13.2,13.2,0,0,0,17.612,30.33Z" transform="translate(-1.5 -1.5)" fill="#0154ac"/>
  <path id="パス_5821" data-name="パス 5821" d="M17.8,23.38a1.3,1.3,0,0,1-1.3-1.288v-10.3a1.3,1.3,0,0,1,2.609,0v10.3A1.3,1.3,0,0,1,17.8,23.38Z" transform="translate(-1.852 -0.878)" fill="#0154ac"/>
  <path id="パス_5822" data-name="パス 5822" d="M23.683,18.578H11.965c-.809,0-1.465-.465-1.465-1.039s.656-1.039,1.465-1.039H23.683c.809,0,1.465.465,1.465,1.039S24.492,18.578,23.683,18.578Z" transform="translate(-1.711 -1.683)" fill="#0154ac"/>
</svg>
