<svg xmlns="http://www.w3.org/2000/svg" width="35.839" height="49.444" viewBox="0 0 35.839 49.444">
  <g id="Group_3075" data-name="Group 3075" transform="translate(-577.671 -6756.395)">
    <path id="Path_11625" data-name="Path 11625" d="M625.88,3205.494l-21.577-.13a3.321,3.321,0,0,1-3.3-3.34l.254-42.672a3.327,3.327,0,0,1,3.34-3.3l21.577.13a3.315,3.315,0,0,1,3.3,3.339l-.105,18.164a.618.618,0,0,1-1.237,0l.111-18.157a2.121,2.121,0,0,0-2.1-2.127l-21.577-.124a2.109,2.109,0,0,0-2.121,2.1l-.2,42.66a2.121,2.121,0,0,0,2.1,2.127l21.577.124a2.115,2.115,0,0,0,2.127-2.1v-4.057a.618.618,0,0,1,1.237,0v4.057a3.327,3.327,0,0,1-3.4,3.309Z" transform="translate(-23.329 3600.344)" fill="#034baf"/>
    <path id="Path_11628" data-name="Path 11628" d="M626.264,3162.08l-12.22-.074a.619.619,0,0,1,0-1.206l12.22.068a.618.618,0,1,1,0,1.237Z" transform="translate(-28.123 3598.532)" fill="#034baf"/>
    <path id="Path_11626" data-name="Path 11626" d="M642.3,3210.613l-17.755-.105a2.517,2.517,0,0,1-2.5-2.535l.062-11.008a2.523,2.523,0,0,1,2.536-2.474l17.755.1a2.523,2.523,0,0,1,2.474,2.536l-.062,11.008a2.53,2.53,0,0,1-2.5,2.473Zm-17.669-14.941a1.305,1.305,0,0,0-1.317,1.3l-.068,11.008a1.311,1.311,0,0,0,1.3,1.317l17.755.1a1.305,1.305,0,0,0,1.317-1.3l.062-11.008a1.3,1.3,0,0,0-1.3-1.317Z" transform="translate(-31.357 3585.677)" fill="#034baf"/>
    <path id="Path_11627" data-name="Path 11627" d="M633.913,3205.149a2.289,2.289,0,0,1-1.509-.587l-9.048-8.2a.618.618,0,0,1,.816-.9l9.048,8.207a1.044,1.044,0,0,0,1.4,0l9.147-8.1a.618.618,0,1,1,.8.909l-9.141,8.1a2.263,2.263,0,0,1-1.509.569Z" transform="translate(-31.813 3585.357)" fill="#034baf"/>
  </g>
</svg>
