<svg xmlns="http://www.w3.org/2000/svg" width="78.675" height="25.436" viewBox="0 0 78.675 25.436">
  <g id="レイヤー_2" data-name="レイヤー 2" transform="translate(0.004 0.005)">
    <g id="レイヤー_1" data-name="レイヤー 1">
      <path id="Path_10952" data-name="Path 10952" d="M10.12,20.43A8.17,8.17,0,0,1,5.45,19,.93.93,0,0,1,5,18.26a.5.5,0,0,1,0-.12,1.15,1.15,0,0,1,.27-.74l.57-.68a1.16,1.16,0,0,1,.78-.41H6.8a1.37,1.37,0,0,1,.7.19,5.14,5.14,0,0,0,2.7.86A2.51,2.51,0,0,0,11.64,17a1.11,1.11,0,0,0,.49-1,1,1,0,0,0-.41-.84,8.67,8.67,0,0,0-1.43-.72L10,14.38l-1.92-.81A5.21,5.21,0,0,1,6,12a3.8,3.8,0,0,1-.85-2.53A4,4,0,0,1,6.64,6.3,5.75,5.75,0,0,1,10.51,5a6.83,6.83,0,0,1,4,1.21A1,1,0,0,1,14.9,7v.12a1.15,1.15,0,0,1-.27.74l-.35.45a1.15,1.15,0,0,1-.76.43h-.24a1.41,1.41,0,0,1-.68-.18,4.43,4.43,0,0,0-2.09-.52,2.25,2.25,0,0,0-1.31.33,1.07,1.07,0,0,0-.47.92.88.88,0,0,0,.11.42,1.57,1.57,0,0,0,.24.32,2,2,0,0,0,.46.3c.22.11.4.2.55.26s.38.15.69.28L11,11l1.85.74a4.14,4.14,0,0,1,2.93,4.08,4.31,4.31,0,0,1-.38,1.78A4.48,4.48,0,0,1,14.31,19a5.23,5.23,0,0,1-1.8,1,7.26,7.26,0,0,1-2.39.43Z" fill="#231815"/>
      <path id="Path_10953" data-name="Path 10953" d="M22.3,20.16a1.12,1.12,0,0,1-.82-.35,1.1,1.1,0,0,1-.33-.81V8.38c0-.09,0-.14-.15-.14H18.28a1.09,1.09,0,0,1-.82-.34,1.13,1.13,0,0,1-.33-.81V6.43a1.16,1.16,0,0,1,1.15-1.16h9.34a1.11,1.11,0,0,1,.81.35,1.07,1.07,0,0,1,.34.81v.66a1.16,1.16,0,0,1-1.15,1.15H24.86c-.09,0-.13,0-.13.14V19a1.2,1.2,0,0,1-1.16,1.16Z" fill="#231815"/>
      <path id="Path_10954" data-name="Path 10954" d="M32.21,20.16A1.2,1.2,0,0,1,31.05,19V6.43a1.08,1.08,0,0,1,.35-.81,1.08,1.08,0,0,1,.81-.35h7.13a1.12,1.12,0,0,1,.82.35,1.1,1.1,0,0,1,.33.81v.66a1.13,1.13,0,0,1-.33.81,1.11,1.11,0,0,1-.82.34H34.79c-.11,0-.16,0-.16.14v2.48c0,.09,0,.14.16.14h3.67a1.09,1.09,0,0,1,.82.34,1.13,1.13,0,0,1,.33.81v.7a1.13,1.13,0,0,1-.33.81,1.09,1.09,0,0,1-.82.34H34.79c-.11,0-.16.05-.16.14V17c0,.09,0,.14.16.14h4.78a1.16,1.16,0,0,1,1.15,1.15V19a1.07,1.07,0,0,1-.34.81,1.11,1.11,0,0,1-.81.35Z" fill="#231815"/>
      <path id="Path_10955" data-name="Path 10955" d="M44.8,20.16A1.18,1.18,0,0,1,43.65,19V6.43A1.18,1.18,0,0,1,44.8,5.27h4.07a9.85,9.85,0,0,1,2.33.25,5.69,5.69,0,0,1,1.89.79,3.62,3.62,0,0,1,1.3,1.51,5.13,5.13,0,0,1,.47,2.3,5.16,5.16,0,0,1-.48,2.28A4.1,4.1,0,0,1,53.09,14a5.71,5.71,0,0,1-1.87.91,8.18,8.18,0,0,1-2.26.3H47.38a.14.14,0,0,0-.15.16V19a1.07,1.07,0,0,1-.34.81,1.09,1.09,0,0,1-.82.35Zm2.43-7.91a.13.13,0,0,0,.15.15h1.41q2.58,0,2.58-2.28a1.76,1.76,0,0,0-.67-1.56,3.6,3.6,0,0,0-2-.45H47.38c-.1,0-.15,0-.15.13Z" fill="#231815"/>
      <path id="Path_10956" data-name="Path 10956" d="M59.18,20.43a2,2,0,0,1-1.51-.64,2.35,2.35,0,0,1,0-3.14,2.113,2.113,0,0,1,3.03-.02,2.33,2.33,0,0,1,0,3.14,2,2,0,0,1-1.52.66Z" fill="#231815"/>
      <path id="Path_10957" data-name="Path 10957" d="M65.39,20.16A1.161,1.161,0,0,1,64.24,19v-.56a1.13,1.13,0,0,1,1.15-1.15h1.86a.14.14,0,0,0,.15-.16V9a.13.13,0,0,0-.15-.15H65.76a1.09,1.09,0,0,1-1.11-1.1,1.27,1.27,0,0,1,.3-.83,1.36,1.36,0,0,1,.77-.49,10.3,10.3,0,0,0,1.6-.57,5.38,5.38,0,0,1,2.17-.55h.31A1.18,1.18,0,0,1,71,6.43v10.7c0,.1,0,.16.13.16h1.39a1.13,1.13,0,0,1,1.15,1.15V19a1.161,1.161,0,0,1-1.15,1.16Z" fill="#231815"/>
      <path id="Path_10958" data-name="Path 10958" d="M10.12,20.43A8.17,8.17,0,0,1,5.45,19,.93.93,0,0,1,5,18.26a.5.5,0,0,1,0-.12,1.15,1.15,0,0,1,.27-.74l.57-.68a1.16,1.16,0,0,1,.78-.41H6.8a1.37,1.37,0,0,1,.7.19,5.14,5.14,0,0,0,2.7.86A2.51,2.51,0,0,0,11.64,17a1.11,1.11,0,0,0,.49-1,1,1,0,0,0-.41-.84,8.67,8.67,0,0,0-1.43-.72L10,14.38l-1.92-.81A5.21,5.21,0,0,1,6,12a3.8,3.8,0,0,1-.85-2.53A4,4,0,0,1,6.64,6.3,5.75,5.75,0,0,1,10.51,5a6.83,6.83,0,0,1,4,1.21A1,1,0,0,1,14.9,7v.12a1.15,1.15,0,0,1-.27.74l-.35.45a1.15,1.15,0,0,1-.76.43h-.24a1.41,1.41,0,0,1-.68-.18,4.43,4.43,0,0,0-2.09-.52,2.25,2.25,0,0,0-1.31.33,1.07,1.07,0,0,0-.47.92.88.88,0,0,0,.11.42,1.57,1.57,0,0,0,.24.32,2,2,0,0,0,.46.3c.22.11.4.2.55.26s.38.15.69.28L11,11l1.85.74a4.14,4.14,0,0,1,2.93,4.08,4.31,4.31,0,0,1-.38,1.78A4.48,4.48,0,0,1,14.31,19a5.23,5.23,0,0,1-1.8,1,7.26,7.26,0,0,1-2.39.43Z" fill="none" stroke="#fff" stroke-miterlimit="10" stroke-width="10"/>
      <path id="Path_10959" data-name="Path 10959" d="M22.3,20.16a1.12,1.12,0,0,1-.82-.35,1.1,1.1,0,0,1-.33-.81V8.38c0-.09,0-.14-.15-.14H18.28a1.09,1.09,0,0,1-.82-.34,1.13,1.13,0,0,1-.33-.81V6.43a1.16,1.16,0,0,1,1.15-1.16h9.34a1.11,1.11,0,0,1,.81.35,1.07,1.07,0,0,1,.34.81v.66a1.16,1.16,0,0,1-1.15,1.15H24.86c-.09,0-.13,0-.13.14V19a1.2,1.2,0,0,1-1.16,1.16Z" fill="none" stroke="#fff" stroke-miterlimit="10" stroke-width="10"/>
      <path id="Path_10960" data-name="Path 10960" d="M32.21,20.16A1.2,1.2,0,0,1,31.05,19V6.43a1.08,1.08,0,0,1,.35-.81,1.08,1.08,0,0,1,.81-.35h7.13a1.12,1.12,0,0,1,.82.35,1.1,1.1,0,0,1,.33.81v.66a1.13,1.13,0,0,1-.33.81,1.11,1.11,0,0,1-.82.34H34.79c-.11,0-.16,0-.16.14v2.48c0,.09,0,.14.16.14h3.67a1.09,1.09,0,0,1,.82.34,1.13,1.13,0,0,1,.33.81v.7a1.13,1.13,0,0,1-.33.81,1.09,1.09,0,0,1-.82.34H34.79c-.11,0-.16.05-.16.14V17c0,.09,0,.14.16.14h4.78a1.16,1.16,0,0,1,1.15,1.15V19a1.07,1.07,0,0,1-.34.81,1.11,1.11,0,0,1-.81.35Z" fill="none" stroke="#fff" stroke-miterlimit="10" stroke-width="10"/>
      <path id="Path_10961" data-name="Path 10961" d="M44.8,20.16A1.18,1.18,0,0,1,43.65,19V6.43A1.18,1.18,0,0,1,44.8,5.27h4.07a9.85,9.85,0,0,1,2.33.25,5.69,5.69,0,0,1,1.89.79,3.62,3.62,0,0,1,1.3,1.51,5.13,5.13,0,0,1,.47,2.3,5.16,5.16,0,0,1-.48,2.28A4.1,4.1,0,0,1,53.09,14a5.71,5.71,0,0,1-1.87.91,8.18,8.18,0,0,1-2.26.3H47.38a.14.14,0,0,0-.15.16V19a1.07,1.07,0,0,1-.34.81,1.09,1.09,0,0,1-.82.35Zm2.43-7.91a.13.13,0,0,0,.15.15h1.41q2.58,0,2.58-2.28a1.76,1.76,0,0,0-.67-1.56,3.6,3.6,0,0,0-2-.45H47.38c-.1,0-.15,0-.15.13Z" fill="none" stroke="#fff" stroke-miterlimit="10" stroke-width="10"/>
      <path id="Path_10962" data-name="Path 10962" d="M59.18,20.43a2,2,0,0,1-1.51-.64,2.35,2.35,0,0,1,0-3.14,2.113,2.113,0,0,1,3.03-.02,2.33,2.33,0,0,1,0,3.14,2,2,0,0,1-1.52.66Z" fill="none" stroke="#fff" stroke-miterlimit="10" stroke-width="10"/>
      <path id="Path_10963" data-name="Path 10963" d="M65.39,20.16A1.161,1.161,0,0,1,64.24,19v-.56a1.13,1.13,0,0,1,1.15-1.15h1.86a.14.14,0,0,0,.15-.16V9a.13.13,0,0,0-.15-.15H65.76a1.09,1.09,0,0,1-1.11-1.1,1.27,1.27,0,0,1,.3-.83,1.36,1.36,0,0,1,.77-.49,10.3,10.3,0,0,0,1.6-.57,5.38,5.38,0,0,1,2.17-.55h.31A1.18,1.18,0,0,1,71,6.43v10.7c0,.1,0,.16.13.16h1.39a1.13,1.13,0,0,1,1.15,1.15V19a1.161,1.161,0,0,1-1.15,1.16Z" fill="none" stroke="#fff" stroke-miterlimit="10" stroke-width="10"/>
      <path id="Path_10964" data-name="Path 10964" d="M10.12,20.43A8.17,8.17,0,0,1,5.45,19,.93.93,0,0,1,5,18.26a.5.5,0,0,1,0-.12,1.15,1.15,0,0,1,.27-.74l.57-.68a1.16,1.16,0,0,1,.78-.41H6.8a1.37,1.37,0,0,1,.7.19,5.14,5.14,0,0,0,2.7.86A2.51,2.51,0,0,0,11.64,17a1.11,1.11,0,0,0,.49-1,1,1,0,0,0-.41-.84,8.67,8.67,0,0,0-1.43-.72L10,14.38l-1.92-.81A5.21,5.21,0,0,1,6,12a3.8,3.8,0,0,1-.85-2.53A4,4,0,0,1,6.64,6.3,5.75,5.75,0,0,1,10.51,5a6.83,6.83,0,0,1,4,1.21A1,1,0,0,1,14.9,7v.12a1.15,1.15,0,0,1-.27.74l-.35.45a1.15,1.15,0,0,1-.76.43h-.24a1.41,1.41,0,0,1-.68-.18,4.43,4.43,0,0,0-2.09-.52,2.25,2.25,0,0,0-1.31.33,1.07,1.07,0,0,0-.47.92.88.88,0,0,0,.11.42,1.57,1.57,0,0,0,.24.32,2,2,0,0,0,.46.3c.22.11.4.2.55.26s.38.15.69.28L11,11l1.85.74a4.14,4.14,0,0,1,2.93,4.08,4.31,4.31,0,0,1-.38,1.78A4.48,4.48,0,0,1,14.31,19a5.23,5.23,0,0,1-1.8,1,7.26,7.26,0,0,1-2.39.43Z" fill="none" stroke="#034baf" stroke-miterlimit="10" stroke-width="5"/>
      <path id="Path_10965" data-name="Path 10965" d="M22.3,20.16a1.12,1.12,0,0,1-.82-.35,1.1,1.1,0,0,1-.33-.81V8.38c0-.09,0-.14-.15-.14H18.28a1.09,1.09,0,0,1-.82-.34,1.13,1.13,0,0,1-.33-.81V6.43a1.16,1.16,0,0,1,1.15-1.16h9.34a1.11,1.11,0,0,1,.81.35,1.07,1.07,0,0,1,.34.81v.66a1.16,1.16,0,0,1-1.15,1.15H24.86c-.09,0-.13,0-.13.14V19a1.2,1.2,0,0,1-1.16,1.16Z" fill="none" stroke="#034baf" stroke-miterlimit="10" stroke-width="5"/>
      <path id="Path_10966" data-name="Path 10966" d="M32.21,20.16A1.2,1.2,0,0,1,31.05,19V6.43a1.08,1.08,0,0,1,.35-.81,1.08,1.08,0,0,1,.81-.35h7.13a1.12,1.12,0,0,1,.82.35,1.1,1.1,0,0,1,.33.81v.66a1.13,1.13,0,0,1-.33.81,1.11,1.11,0,0,1-.82.34H34.79c-.11,0-.16,0-.16.14v2.48c0,.09,0,.14.16.14h3.67a1.09,1.09,0,0,1,.82.34,1.13,1.13,0,0,1,.33.81v.7a1.13,1.13,0,0,1-.33.81,1.09,1.09,0,0,1-.82.34H34.79c-.11,0-.16.05-.16.14V17c0,.09,0,.14.16.14h4.78a1.16,1.16,0,0,1,1.15,1.15V19a1.07,1.07,0,0,1-.34.81,1.11,1.11,0,0,1-.81.35Z" fill="none" stroke="#034baf" stroke-miterlimit="10" stroke-width="5"/>
      <path id="Path_10967" data-name="Path 10967" d="M44.8,20.16A1.18,1.18,0,0,1,43.65,19V6.43A1.18,1.18,0,0,1,44.8,5.27h4.07a9.85,9.85,0,0,1,2.33.25,5.69,5.69,0,0,1,1.89.79,3.62,3.62,0,0,1,1.3,1.51,5.13,5.13,0,0,1,.47,2.3,5.16,5.16,0,0,1-.48,2.28A4.1,4.1,0,0,1,53.09,14a5.71,5.71,0,0,1-1.87.91,8.18,8.18,0,0,1-2.26.3H47.38a.14.14,0,0,0-.15.16V19a1.07,1.07,0,0,1-.34.81,1.09,1.09,0,0,1-.82.35Zm2.43-7.91a.13.13,0,0,0,.15.15h1.41q2.58,0,2.58-2.28a1.76,1.76,0,0,0-.67-1.56,3.6,3.6,0,0,0-2-.45H47.38c-.1,0-.15,0-.15.13Z" fill="none" stroke="#034baf" stroke-miterlimit="10" stroke-width="5"/>
      <path id="Path_10968" data-name="Path 10968" d="M59.18,20.43a2,2,0,0,1-1.51-.64,2.35,2.35,0,0,1,0-3.14,2.113,2.113,0,0,1,3.03-.02,2.33,2.33,0,0,1,0,3.14,2,2,0,0,1-1.52.66Z" fill="none" stroke="#034baf" stroke-miterlimit="10" stroke-width="5"/>
      <path id="Path_10969" data-name="Path 10969" d="M65.39,20.16A1.161,1.161,0,0,1,64.24,19v-.56a1.13,1.13,0,0,1,1.15-1.15h1.86a.14.14,0,0,0,.15-.16V9a.13.13,0,0,0-.15-.15H65.76a1.09,1.09,0,0,1-1.11-1.1,1.27,1.27,0,0,1,.3-.83,1.36,1.36,0,0,1,.77-.49,10.3,10.3,0,0,0,1.6-.57,5.38,5.38,0,0,1,2.17-.55h.31A1.18,1.18,0,0,1,71,6.43v10.7c0,.1,0,.16.13.16h1.39a1.13,1.13,0,0,1,1.15,1.15V19a1.161,1.161,0,0,1-1.15,1.16Z" fill="none" stroke="#034baf" stroke-miterlimit="10" stroke-width="5"/>
      <path id="Path_10970" data-name="Path 10970" d="M10.12,20.43A8.17,8.17,0,0,1,5.45,19,.93.93,0,0,1,5,18.26a.5.5,0,0,1,0-.12,1.15,1.15,0,0,1,.27-.74l.57-.68a1.16,1.16,0,0,1,.78-.41H6.8a1.37,1.37,0,0,1,.7.19,5.14,5.14,0,0,0,2.7.86A2.51,2.51,0,0,0,11.64,17a1.11,1.11,0,0,0,.49-1,1,1,0,0,0-.41-.84,8.67,8.67,0,0,0-1.43-.72L10,14.38l-1.92-.81A5.21,5.21,0,0,1,6,12a3.8,3.8,0,0,1-.85-2.53A4,4,0,0,1,6.64,6.3,5.75,5.75,0,0,1,10.51,5a6.83,6.83,0,0,1,4,1.21A1,1,0,0,1,14.9,7v.12a1.15,1.15,0,0,1-.27.74l-.35.45a1.15,1.15,0,0,1-.76.43h-.24a1.41,1.41,0,0,1-.68-.18,4.43,4.43,0,0,0-2.09-.52,2.25,2.25,0,0,0-1.31.33,1.07,1.07,0,0,0-.47.92.88.88,0,0,0,.11.42,1.57,1.57,0,0,0,.24.32,2,2,0,0,0,.46.3c.22.11.4.2.55.26s.38.15.69.28L11,11l1.85.74a4.14,4.14,0,0,1,2.93,4.08,4.31,4.31,0,0,1-.38,1.78A4.48,4.48,0,0,1,14.31,19a5.23,5.23,0,0,1-1.8,1,7.26,7.26,0,0,1-2.39.43Z" fill="#efea3a"/>
      <path id="Path_10971" data-name="Path 10971" d="M22.3,20.16a1.12,1.12,0,0,1-.82-.35,1.1,1.1,0,0,1-.33-.81V8.38c0-.09,0-.14-.15-.14H18.28a1.09,1.09,0,0,1-.82-.34,1.13,1.13,0,0,1-.33-.81V6.43a1.16,1.16,0,0,1,1.15-1.16h9.34a1.11,1.11,0,0,1,.81.35,1.07,1.07,0,0,1,.34.81v.66a1.16,1.16,0,0,1-1.15,1.15H24.86c-.09,0-.13,0-.13.14V19a1.2,1.2,0,0,1-1.16,1.16Z" fill="#efea3a"/>
      <path id="Path_10972" data-name="Path 10972" d="M32.21,20.16A1.2,1.2,0,0,1,31.05,19V6.43a1.08,1.08,0,0,1,.35-.81,1.08,1.08,0,0,1,.81-.35h7.13a1.12,1.12,0,0,1,.82.35,1.1,1.1,0,0,1,.33.81v.66a1.13,1.13,0,0,1-.33.81,1.11,1.11,0,0,1-.82.34H34.79c-.11,0-.16,0-.16.14v2.48c0,.09,0,.14.16.14h3.67a1.09,1.09,0,0,1,.82.34,1.13,1.13,0,0,1,.33.81v.7a1.13,1.13,0,0,1-.33.81,1.09,1.09,0,0,1-.82.34H34.79c-.11,0-.16.05-.16.14V17c0,.09,0,.14.16.14h4.78a1.16,1.16,0,0,1,1.15,1.15V19a1.07,1.07,0,0,1-.34.81,1.11,1.11,0,0,1-.81.35Z" fill="#efea3a"/>
      <path id="Path_10973" data-name="Path 10973" d="M44.8,20.16A1.18,1.18,0,0,1,43.65,19V6.43A1.18,1.18,0,0,1,44.8,5.27h4.07a9.85,9.85,0,0,1,2.33.25,5.69,5.69,0,0,1,1.89.79,3.62,3.62,0,0,1,1.3,1.51,5.13,5.13,0,0,1,.47,2.3,5.16,5.16,0,0,1-.48,2.28A4.1,4.1,0,0,1,53.09,14a5.71,5.71,0,0,1-1.87.91,8.18,8.18,0,0,1-2.26.3H47.38a.14.14,0,0,0-.15.16V19a1.07,1.07,0,0,1-.34.81,1.09,1.09,0,0,1-.82.35Zm2.43-7.91a.13.13,0,0,0,.15.15h1.41q2.58,0,2.58-2.28a1.76,1.76,0,0,0-.67-1.56,3.6,3.6,0,0,0-2-.45H47.38c-.1,0-.15,0-.15.13Z" fill="#efea3a"/>
      <path id="Path_10974" data-name="Path 10974" d="M59.18,20.43a2,2,0,0,1-1.51-.64,2.35,2.35,0,0,1,0-3.14,2.113,2.113,0,0,1,3.03-.02,2.33,2.33,0,0,1,0,3.14,2,2,0,0,1-1.52.66Z" fill="#efea3a"/>
      <path id="Path_10975" data-name="Path 10975" d="M65.39,20.16A1.161,1.161,0,0,1,64.24,19v-.56a1.13,1.13,0,0,1,1.15-1.15h1.86a.14.14,0,0,0,.15-.16V9a.13.13,0,0,0-.15-.15H65.76a1.09,1.09,0,0,1-1.11-1.1,1.27,1.27,0,0,1,.3-.83,1.36,1.36,0,0,1,.77-.49,10.3,10.3,0,0,0,1.6-.57,5.38,5.38,0,0,1,2.17-.55h.31A1.18,1.18,0,0,1,71,6.43v10.7c0,.1,0,.16.13.16h1.39a1.13,1.13,0,0,1,1.15,1.15V19a1.161,1.161,0,0,1-1.15,1.16Z" fill="#efea3a"/>
    </g>
  </g>
</svg>
