<svg xmlns="http://www.w3.org/2000/svg" width="78.776" height="25.447" viewBox="0 0 78.776 25.447">
  <g id="レイヤー_2" data-name="レイヤー 2" transform="translate(0.004 0.011)">
    <g id="レイヤー_1" data-name="レイヤー 1">
      <path id="Path_11000" data-name="Path 11000" d="M10.12,20.43A8.17,8.17,0,0,1,5.45,19,.93.93,0,0,1,5,18.26a.5.5,0,0,1,0-.12,1.15,1.15,0,0,1,.27-.74l.57-.68a1.16,1.16,0,0,1,.78-.41H6.8a1.37,1.37,0,0,1,.7.19,5.14,5.14,0,0,0,2.7.86A2.51,2.51,0,0,0,11.64,17a1.11,1.11,0,0,0,.49-1,1,1,0,0,0-.41-.84,8.67,8.67,0,0,0-1.43-.72L10,14.38l-1.92-.81A5.21,5.21,0,0,1,6,12a3.8,3.8,0,0,1-.85-2.53A4,4,0,0,1,6.64,6.3,5.75,5.75,0,0,1,10.51,5a6.83,6.83,0,0,1,4,1.21A1,1,0,0,1,14.9,7v.12a1.15,1.15,0,0,1-.27.74l-.35.45a1.15,1.15,0,0,1-.76.43h-.24a1.41,1.41,0,0,1-.68-.18,4.43,4.43,0,0,0-2.09-.52,2.25,2.25,0,0,0-1.31.33,1.07,1.07,0,0,0-.47.92.88.88,0,0,0,.11.42,1.57,1.57,0,0,0,.24.32,2,2,0,0,0,.46.3c.22.11.4.2.55.26s.38.15.69.28L11,11l1.85.74a4.14,4.14,0,0,1,2.93,4.08,4.31,4.31,0,0,1-.38,1.78A4.48,4.48,0,0,1,14.31,19a5.23,5.23,0,0,1-1.8,1,7.26,7.26,0,0,1-2.39.43Z" fill="#231815"/>
      <path id="Path_11001" data-name="Path 11001" d="M22.3,20.16a1.12,1.12,0,0,1-.82-.35,1.1,1.1,0,0,1-.33-.81V8.38c0-.09,0-.14-.15-.14H18.28a1.09,1.09,0,0,1-.82-.34,1.13,1.13,0,0,1-.33-.81V6.43a1.16,1.16,0,0,1,1.15-1.16h9.34a1.11,1.11,0,0,1,.81.35,1.07,1.07,0,0,1,.34.81v.66a1.16,1.16,0,0,1-1.15,1.15H24.86c-.09,0-.13,0-.13.14V19a1.2,1.2,0,0,1-1.16,1.16Z" fill="#231815"/>
      <path id="Path_11002" data-name="Path 11002" d="M32.21,20.16A1.2,1.2,0,0,1,31.05,19V6.43a1.08,1.08,0,0,1,.35-.81,1.08,1.08,0,0,1,.81-.35h7.13a1.12,1.12,0,0,1,.82.35,1.1,1.1,0,0,1,.33.81v.66a1.13,1.13,0,0,1-.33.81,1.11,1.11,0,0,1-.82.34H34.79c-.11,0-.16,0-.16.14v2.48c0,.09,0,.14.16.14h3.67a1.09,1.09,0,0,1,.82.34,1.13,1.13,0,0,1,.33.81v.7a1.13,1.13,0,0,1-.33.81,1.09,1.09,0,0,1-.82.34H34.79c-.11,0-.16.05-.16.14V17c0,.09,0,.14.16.14h4.78a1.16,1.16,0,0,1,1.15,1.15V19a1.07,1.07,0,0,1-.34.81,1.11,1.11,0,0,1-.81.35Z" fill="#231815"/>
      <path id="Path_11003" data-name="Path 11003" d="M44.8,20.16A1.18,1.18,0,0,1,43.65,19V6.43A1.18,1.18,0,0,1,44.8,5.27h4.07a9.85,9.85,0,0,1,2.33.25,5.69,5.69,0,0,1,1.89.79,3.62,3.62,0,0,1,1.3,1.51,5.13,5.13,0,0,1,.47,2.3,5.16,5.16,0,0,1-.48,2.28A4.1,4.1,0,0,1,53.09,14a5.71,5.71,0,0,1-1.87.91,8.18,8.18,0,0,1-2.26.3H47.38a.14.14,0,0,0-.15.16V19a1.07,1.07,0,0,1-.34.81,1.09,1.09,0,0,1-.82.35Zm2.43-7.91a.13.13,0,0,0,.15.15h1.41q2.58,0,2.58-2.28a1.76,1.76,0,0,0-.67-1.56,3.6,3.6,0,0,0-2-.45H47.38c-.1,0-.15,0-.15.13Z" fill="#231815"/>
      <path id="Path_11004" data-name="Path 11004" d="M59.18,20.43a2,2,0,0,1-1.51-.64,2.35,2.35,0,0,1,0-3.14,2.113,2.113,0,0,1,3.03-.02,2.33,2.33,0,0,1,0,3.14,2,2,0,0,1-1.52.66Z" fill="#231815"/>
      <path id="Path_11005" data-name="Path 11005" d="M68.26,20.43A6.83,6.83,0,0,1,64,19.14a1,1,0,0,1-.41-.8.44.44,0,0,1,0-.1,1.38,1.38,0,0,1,.28-.82l.29-.37a1,1,0,0,1,.72-.43H65a1.11,1.11,0,0,1,.68.22,4,4,0,0,0,2.21.72,2.85,2.85,0,0,0,1.67-.44,1.45,1.45,0,0,0,.62-1.26,1.74,1.74,0,0,0-.57-1.39,3.81,3.81,0,0,0-2.09-.6,1.33,1.33,0,0,1-.81-.38,1.13,1.13,0,0,1-.34-.83v-.2a1.1,1.1,0,0,1,.34-.81,1.36,1.36,0,0,1,.81-.4,3.06,3.06,0,0,0,1.68-.63,1.65,1.65,0,0,0,.51-1.26,1.59,1.59,0,0,0-.43-1.18A1.79,1.79,0,0,0,68,7.77a3.24,3.24,0,0,0-1.74.55,1.33,1.33,0,0,1-.72.22h-.16a1.12,1.12,0,0,1-.76-.42l-.33-.39A1,1,0,0,1,64,7V6.88a1,1,0,0,1,.45-.73A6.64,6.64,0,0,1,68.18,5,5.9,5.9,0,0,1,71.9,6.06a3.62,3.62,0,0,1,1.38,3,3.36,3.36,0,0,1-2.36,3.26.08.08,0,0,0,0,.07.07.07,0,0,0,0,.07A4.24,4.24,0,0,1,73,13.81a3.44,3.44,0,0,1,.77,2.28A3.79,3.79,0,0,1,73,18.45a4.51,4.51,0,0,1-2,1.49,7.3,7.3,0,0,1-2.74.49Z" fill="#231815"/>
      <path id="Path_11006" data-name="Path 11006" d="M10.12,20.43A8.17,8.17,0,0,1,5.45,19,.93.93,0,0,1,5,18.26a.5.5,0,0,1,0-.12,1.15,1.15,0,0,1,.27-.74l.57-.68a1.16,1.16,0,0,1,.78-.41H6.8a1.37,1.37,0,0,1,.7.19,5.14,5.14,0,0,0,2.7.86A2.51,2.51,0,0,0,11.64,17a1.11,1.11,0,0,0,.49-1,1,1,0,0,0-.41-.84,8.67,8.67,0,0,0-1.43-.72L10,14.38l-1.92-.81A5.21,5.21,0,0,1,6,12a3.8,3.8,0,0,1-.85-2.53A4,4,0,0,1,6.64,6.3,5.75,5.75,0,0,1,10.51,5a6.83,6.83,0,0,1,4,1.21A1,1,0,0,1,14.9,7v.12a1.15,1.15,0,0,1-.27.74l-.35.45a1.15,1.15,0,0,1-.76.43h-.24a1.41,1.41,0,0,1-.68-.18,4.43,4.43,0,0,0-2.09-.52,2.25,2.25,0,0,0-1.31.33,1.07,1.07,0,0,0-.47.92.88.88,0,0,0,.11.42,1.57,1.57,0,0,0,.24.32,2,2,0,0,0,.46.3c.22.11.4.2.55.26s.38.15.69.28L11,11l1.85.74a4.14,4.14,0,0,1,2.93,4.08,4.31,4.31,0,0,1-.38,1.78A4.48,4.48,0,0,1,14.31,19a5.23,5.23,0,0,1-1.8,1,7.26,7.26,0,0,1-2.39.43Z" fill="none" stroke="#fff" stroke-miterlimit="10" stroke-width="10"/>
      <path id="Path_11007" data-name="Path 11007" d="M22.3,20.16a1.12,1.12,0,0,1-.82-.35,1.1,1.1,0,0,1-.33-.81V8.38c0-.09,0-.14-.15-.14H18.28a1.09,1.09,0,0,1-.82-.34,1.13,1.13,0,0,1-.33-.81V6.43a1.16,1.16,0,0,1,1.15-1.16h9.34a1.11,1.11,0,0,1,.81.35,1.07,1.07,0,0,1,.34.81v.66a1.16,1.16,0,0,1-1.15,1.15H24.86c-.09,0-.13,0-.13.14V19a1.2,1.2,0,0,1-1.16,1.16Z" fill="none" stroke="#fff" stroke-miterlimit="10" stroke-width="10"/>
      <path id="Path_11008" data-name="Path 11008" d="M32.21,20.16A1.2,1.2,0,0,1,31.05,19V6.43a1.08,1.08,0,0,1,.35-.81,1.08,1.08,0,0,1,.81-.35h7.13a1.12,1.12,0,0,1,.82.35,1.1,1.1,0,0,1,.33.81v.66a1.13,1.13,0,0,1-.33.81,1.11,1.11,0,0,1-.82.34H34.79c-.11,0-.16,0-.16.14v2.48c0,.09,0,.14.16.14h3.67a1.09,1.09,0,0,1,.82.34,1.13,1.13,0,0,1,.33.81v.7a1.13,1.13,0,0,1-.33.81,1.09,1.09,0,0,1-.82.34H34.79c-.11,0-.16.05-.16.14V17c0,.09,0,.14.16.14h4.78a1.16,1.16,0,0,1,1.15,1.15V19a1.07,1.07,0,0,1-.34.81,1.11,1.11,0,0,1-.81.35Z" fill="none" stroke="#fff" stroke-miterlimit="10" stroke-width="10"/>
      <path id="Path_11009" data-name="Path 11009" d="M44.8,20.16A1.18,1.18,0,0,1,43.65,19V6.43A1.18,1.18,0,0,1,44.8,5.27h4.07a9.85,9.85,0,0,1,2.33.25,5.69,5.69,0,0,1,1.89.79,3.62,3.62,0,0,1,1.3,1.51,5.13,5.13,0,0,1,.47,2.3,5.16,5.16,0,0,1-.48,2.28A4.1,4.1,0,0,1,53.09,14a5.71,5.71,0,0,1-1.87.91,8.18,8.18,0,0,1-2.26.3H47.38a.14.14,0,0,0-.15.16V19a1.07,1.07,0,0,1-.34.81,1.09,1.09,0,0,1-.82.35Zm2.43-7.91a.13.13,0,0,0,.15.15h1.41q2.58,0,2.58-2.28a1.76,1.76,0,0,0-.67-1.56,3.6,3.6,0,0,0-2-.45H47.38c-.1,0-.15,0-.15.13Z" fill="none" stroke="#fff" stroke-miterlimit="10" stroke-width="10"/>
      <path id="Path_11010" data-name="Path 11010" d="M59.18,20.43a2,2,0,0,1-1.51-.64,2.35,2.35,0,0,1,0-3.14,2.113,2.113,0,0,1,3.03-.02,2.33,2.33,0,0,1,0,3.14,2,2,0,0,1-1.52.66Z" fill="none" stroke="#fff" stroke-miterlimit="10" stroke-width="10"/>
      <path id="Path_11011" data-name="Path 11011" d="M68.26,20.43A6.83,6.83,0,0,1,64,19.14a1,1,0,0,1-.41-.8.44.44,0,0,1,0-.1,1.38,1.38,0,0,1,.28-.82l.29-.37a1,1,0,0,1,.72-.43H65a1.11,1.11,0,0,1,.68.22,4,4,0,0,0,2.21.72,2.85,2.85,0,0,0,1.67-.44,1.45,1.45,0,0,0,.62-1.26,1.74,1.74,0,0,0-.57-1.39,3.81,3.81,0,0,0-2.09-.6,1.33,1.33,0,0,1-.81-.38,1.13,1.13,0,0,1-.34-.83v-.2a1.1,1.1,0,0,1,.34-.81,1.36,1.36,0,0,1,.81-.4,3.06,3.06,0,0,0,1.68-.63,1.65,1.65,0,0,0,.51-1.26,1.59,1.59,0,0,0-.43-1.18A1.79,1.79,0,0,0,68,7.77a3.24,3.24,0,0,0-1.74.55,1.33,1.33,0,0,1-.72.22h-.16a1.12,1.12,0,0,1-.76-.42l-.33-.39A1,1,0,0,1,64,7V6.88a1,1,0,0,1,.45-.73A6.64,6.64,0,0,1,68.18,5,5.9,5.9,0,0,1,71.9,6.06a3.62,3.62,0,0,1,1.38,3,3.36,3.36,0,0,1-2.36,3.26.08.08,0,0,0,0,.07.07.07,0,0,0,0,.07A4.24,4.24,0,0,1,73,13.81a3.44,3.44,0,0,1,.77,2.28A3.79,3.79,0,0,1,73,18.45a4.51,4.51,0,0,1-2,1.49,7.3,7.3,0,0,1-2.74.49Z" fill="none" stroke="#fff" stroke-miterlimit="10" stroke-width="10"/>
      <path id="Path_11012" data-name="Path 11012" d="M10.12,20.43A8.17,8.17,0,0,1,5.45,19,.93.93,0,0,1,5,18.26a.5.5,0,0,1,0-.12,1.15,1.15,0,0,1,.27-.74l.57-.68a1.16,1.16,0,0,1,.78-.41H6.8a1.37,1.37,0,0,1,.7.19,5.14,5.14,0,0,0,2.7.86A2.51,2.51,0,0,0,11.64,17a1.11,1.11,0,0,0,.49-1,1,1,0,0,0-.41-.84,8.67,8.67,0,0,0-1.43-.72L10,14.38l-1.92-.81A5.21,5.21,0,0,1,6,12a3.8,3.8,0,0,1-.85-2.53A4,4,0,0,1,6.64,6.3,5.75,5.75,0,0,1,10.51,5a6.83,6.83,0,0,1,4,1.21A1,1,0,0,1,14.9,7v.12a1.15,1.15,0,0,1-.27.74l-.35.45a1.15,1.15,0,0,1-.76.43h-.24a1.41,1.41,0,0,1-.68-.18,4.43,4.43,0,0,0-2.09-.52,2.25,2.25,0,0,0-1.31.33,1.07,1.07,0,0,0-.47.92.88.88,0,0,0,.11.42,1.57,1.57,0,0,0,.24.32,2,2,0,0,0,.46.3c.22.11.4.2.55.26s.38.15.69.28L11,11l1.85.74a4.14,4.14,0,0,1,2.93,4.08,4.31,4.31,0,0,1-.38,1.78A4.48,4.48,0,0,1,14.31,19a5.23,5.23,0,0,1-1.8,1,7.26,7.26,0,0,1-2.39.43Z" fill="none" stroke="#034baf" stroke-miterlimit="10" stroke-width="5"/>
      <path id="Path_11013" data-name="Path 11013" d="M22.3,20.16a1.12,1.12,0,0,1-.82-.35,1.1,1.1,0,0,1-.33-.81V8.38c0-.09,0-.14-.15-.14H18.28a1.09,1.09,0,0,1-.82-.34,1.13,1.13,0,0,1-.33-.81V6.43a1.16,1.16,0,0,1,1.15-1.16h9.34a1.11,1.11,0,0,1,.81.35,1.07,1.07,0,0,1,.34.81v.66a1.16,1.16,0,0,1-1.15,1.15H24.86c-.09,0-.13,0-.13.14V19a1.2,1.2,0,0,1-1.16,1.16Z" fill="none" stroke="#034baf" stroke-miterlimit="10" stroke-width="5"/>
      <path id="Path_11014" data-name="Path 11014" d="M32.21,20.16A1.2,1.2,0,0,1,31.05,19V6.43a1.08,1.08,0,0,1,.35-.81,1.08,1.08,0,0,1,.81-.35h7.13a1.12,1.12,0,0,1,.82.35,1.1,1.1,0,0,1,.33.81v.66a1.13,1.13,0,0,1-.33.81,1.11,1.11,0,0,1-.82.34H34.79c-.11,0-.16,0-.16.14v2.48c0,.09,0,.14.16.14h3.67a1.09,1.09,0,0,1,.82.34,1.13,1.13,0,0,1,.33.81v.7a1.13,1.13,0,0,1-.33.81,1.09,1.09,0,0,1-.82.34H34.79c-.11,0-.16.05-.16.14V17c0,.09,0,.14.16.14h4.78a1.16,1.16,0,0,1,1.15,1.15V19a1.07,1.07,0,0,1-.34.81,1.11,1.11,0,0,1-.81.35Z" fill="none" stroke="#034baf" stroke-miterlimit="10" stroke-width="5"/>
      <path id="Path_11015" data-name="Path 11015" d="M44.8,20.16A1.18,1.18,0,0,1,43.65,19V6.43A1.18,1.18,0,0,1,44.8,5.27h4.07a9.85,9.85,0,0,1,2.33.25,5.69,5.69,0,0,1,1.89.79,3.62,3.62,0,0,1,1.3,1.51,5.13,5.13,0,0,1,.47,2.3,5.16,5.16,0,0,1-.48,2.28A4.1,4.1,0,0,1,53.09,14a5.71,5.71,0,0,1-1.87.91,8.18,8.18,0,0,1-2.26.3H47.38a.14.14,0,0,0-.15.16V19a1.07,1.07,0,0,1-.34.81,1.09,1.09,0,0,1-.82.35Zm2.43-7.91a.13.13,0,0,0,.15.15h1.41q2.58,0,2.58-2.28a1.76,1.76,0,0,0-.67-1.56,3.6,3.6,0,0,0-2-.45H47.38c-.1,0-.15,0-.15.13Z" fill="none" stroke="#034baf" stroke-miterlimit="10" stroke-width="5"/>
      <path id="Path_11016" data-name="Path 11016" d="M59.18,20.43a2,2,0,0,1-1.51-.64,2.35,2.35,0,0,1,0-3.14,2.113,2.113,0,0,1,3.03-.02,2.33,2.33,0,0,1,0,3.14,2,2,0,0,1-1.52.66Z" fill="none" stroke="#034baf" stroke-miterlimit="10" stroke-width="5"/>
      <path id="Path_11017" data-name="Path 11017" d="M68.26,20.43A6.83,6.83,0,0,1,64,19.14a1,1,0,0,1-.41-.8.44.44,0,0,1,0-.1,1.38,1.38,0,0,1,.28-.82l.29-.37a1,1,0,0,1,.72-.43H65a1.11,1.11,0,0,1,.68.22,4,4,0,0,0,2.21.72,2.85,2.85,0,0,0,1.67-.44,1.45,1.45,0,0,0,.62-1.26,1.74,1.74,0,0,0-.57-1.39,3.81,3.81,0,0,0-2.09-.6,1.33,1.33,0,0,1-.81-.38,1.13,1.13,0,0,1-.34-.83v-.2a1.1,1.1,0,0,1,.34-.81,1.36,1.36,0,0,1,.81-.4,3.06,3.06,0,0,0,1.68-.63,1.65,1.65,0,0,0,.51-1.26,1.59,1.59,0,0,0-.43-1.18A1.79,1.79,0,0,0,68,7.77a3.24,3.24,0,0,0-1.74.55,1.33,1.33,0,0,1-.72.22h-.16a1.12,1.12,0,0,1-.76-.42l-.33-.39A1,1,0,0,1,64,7V6.88a1,1,0,0,1,.45-.73A6.64,6.64,0,0,1,68.18,5,5.9,5.9,0,0,1,71.9,6.06a3.62,3.62,0,0,1,1.38,3,3.36,3.36,0,0,1-2.36,3.26.08.08,0,0,0,0,.07.07.07,0,0,0,0,.07A4.24,4.24,0,0,1,73,13.81a3.44,3.44,0,0,1,.77,2.28A3.79,3.79,0,0,1,73,18.45a4.51,4.51,0,0,1-2,1.49,7.3,7.3,0,0,1-2.74.49Z" fill="none" stroke="#034baf" stroke-miterlimit="10" stroke-width="5"/>
      <path id="Path_11018" data-name="Path 11018" d="M10.12,20.43A8.17,8.17,0,0,1,5.45,19,.93.93,0,0,1,5,18.26a.5.5,0,0,1,0-.12,1.15,1.15,0,0,1,.27-.74l.57-.68a1.16,1.16,0,0,1,.78-.41H6.8a1.37,1.37,0,0,1,.7.19,5.14,5.14,0,0,0,2.7.86A2.51,2.51,0,0,0,11.64,17a1.11,1.11,0,0,0,.49-1,1,1,0,0,0-.41-.84,8.67,8.67,0,0,0-1.43-.72L10,14.38l-1.92-.81A5.21,5.21,0,0,1,6,12a3.8,3.8,0,0,1-.85-2.53A4,4,0,0,1,6.64,6.3,5.75,5.75,0,0,1,10.51,5a6.83,6.83,0,0,1,4,1.21A1,1,0,0,1,14.9,7v.12a1.15,1.15,0,0,1-.27.74l-.35.45a1.15,1.15,0,0,1-.76.43h-.24a1.41,1.41,0,0,1-.68-.18,4.43,4.43,0,0,0-2.09-.52,2.25,2.25,0,0,0-1.31.33,1.07,1.07,0,0,0-.47.92.88.88,0,0,0,.11.42,1.57,1.57,0,0,0,.24.32,2,2,0,0,0,.46.3c.22.11.4.2.55.26s.38.15.69.28L11,11l1.85.74a4.14,4.14,0,0,1,2.93,4.08,4.31,4.31,0,0,1-.38,1.78A4.48,4.48,0,0,1,14.31,19a5.23,5.23,0,0,1-1.8,1,7.26,7.26,0,0,1-2.39.43Z" fill="#efea3a"/>
      <path id="Path_11019" data-name="Path 11019" d="M22.3,20.16a1.12,1.12,0,0,1-.82-.35,1.1,1.1,0,0,1-.33-.81V8.38c0-.09,0-.14-.15-.14H18.28a1.09,1.09,0,0,1-.82-.34,1.13,1.13,0,0,1-.33-.81V6.43a1.16,1.16,0,0,1,1.15-1.16h9.34a1.11,1.11,0,0,1,.81.35,1.07,1.07,0,0,1,.34.81v.66a1.16,1.16,0,0,1-1.15,1.15H24.86c-.09,0-.13,0-.13.14V19a1.2,1.2,0,0,1-1.16,1.16Z" fill="#efea3a"/>
      <path id="Path_11020" data-name="Path 11020" d="M32.21,20.16A1.2,1.2,0,0,1,31.05,19V6.43a1.08,1.08,0,0,1,.35-.81,1.08,1.08,0,0,1,.81-.35h7.13a1.12,1.12,0,0,1,.82.35,1.1,1.1,0,0,1,.33.81v.66a1.13,1.13,0,0,1-.33.81,1.11,1.11,0,0,1-.82.34H34.79c-.11,0-.16,0-.16.14v2.48c0,.09,0,.14.16.14h3.67a1.09,1.09,0,0,1,.82.34,1.13,1.13,0,0,1,.33.81v.7a1.13,1.13,0,0,1-.33.81,1.09,1.09,0,0,1-.82.34H34.79c-.11,0-.16.05-.16.14V17c0,.09,0,.14.16.14h4.78a1.16,1.16,0,0,1,1.15,1.15V19a1.07,1.07,0,0,1-.34.81,1.11,1.11,0,0,1-.81.35Z" fill="#efea3a"/>
      <path id="Path_11021" data-name="Path 11021" d="M44.8,20.16A1.18,1.18,0,0,1,43.65,19V6.43A1.18,1.18,0,0,1,44.8,5.27h4.07a9.85,9.85,0,0,1,2.33.25,5.69,5.69,0,0,1,1.89.79,3.62,3.62,0,0,1,1.3,1.51,5.13,5.13,0,0,1,.47,2.3,5.16,5.16,0,0,1-.48,2.28A4.1,4.1,0,0,1,53.09,14a5.71,5.71,0,0,1-1.87.91,8.18,8.18,0,0,1-2.26.3H47.38a.14.14,0,0,0-.15.16V19a1.07,1.07,0,0,1-.34.81,1.09,1.09,0,0,1-.82.35Zm2.43-7.91a.13.13,0,0,0,.15.15h1.41q2.58,0,2.58-2.28a1.76,1.76,0,0,0-.67-1.56,3.6,3.6,0,0,0-2-.45H47.38c-.1,0-.15,0-.15.13Z" fill="#efea3a"/>
      <path id="Path_11022" data-name="Path 11022" d="M59.18,20.43a2,2,0,0,1-1.51-.64,2.35,2.35,0,0,1,0-3.14,2.113,2.113,0,0,1,3.03-.02,2.33,2.33,0,0,1,0,3.14,2,2,0,0,1-1.52.66Z" fill="#efea3a"/>
      <path id="Path_11023" data-name="Path 11023" d="M68.26,20.43A6.83,6.83,0,0,1,64,19.14a1,1,0,0,1-.41-.8.44.44,0,0,1,0-.1,1.38,1.38,0,0,1,.28-.82l.29-.37a1,1,0,0,1,.72-.43H65a1.11,1.11,0,0,1,.68.22,4,4,0,0,0,2.21.72,2.85,2.85,0,0,0,1.67-.44,1.45,1.45,0,0,0,.62-1.26,1.74,1.74,0,0,0-.57-1.39,3.81,3.81,0,0,0-2.09-.6,1.33,1.33,0,0,1-.81-.38,1.13,1.13,0,0,1-.34-.83v-.2a1.1,1.1,0,0,1,.34-.81,1.36,1.36,0,0,1,.81-.4,3.06,3.06,0,0,0,1.68-.63,1.65,1.65,0,0,0,.51-1.26,1.59,1.59,0,0,0-.43-1.18A1.79,1.79,0,0,0,68,7.77a3.24,3.24,0,0,0-1.74.55,1.33,1.33,0,0,1-.72.22h-.16a1.12,1.12,0,0,1-.76-.42l-.33-.39A1,1,0,0,1,64,7V6.88a1,1,0,0,1,.45-.73A6.64,6.64,0,0,1,68.18,5,5.9,5.9,0,0,1,71.9,6.06a3.62,3.62,0,0,1,1.38,3,3.36,3.36,0,0,1-2.36,3.26.08.08,0,0,0,0,.07.07.07,0,0,0,0,.07A4.24,4.24,0,0,1,73,13.81a3.44,3.44,0,0,1,.77,2.28A3.79,3.79,0,0,1,73,18.45a4.51,4.51,0,0,1-2,1.49,7.3,7.3,0,0,1-2.74.49Z" fill="#efea3a"/>
    </g>
  </g>
</svg>
