<svg xmlns="http://www.w3.org/2000/svg" width="78.835" height="25.436" viewBox="0 0 78.835 25.436">
  <g id="レイヤー_2" data-name="レイヤー 2" transform="translate(0.004 0.005)">
    <g id="レイヤー_1" data-name="レイヤー 1">
      <path id="Path_10976" data-name="Path 10976" d="M10.12,20.43A8.17,8.17,0,0,1,5.45,19,.93.93,0,0,1,5,18.26a.5.5,0,0,1,0-.12,1.15,1.15,0,0,1,.27-.74l.57-.68a1.16,1.16,0,0,1,.78-.41H6.8a1.37,1.37,0,0,1,.7.19,5.14,5.14,0,0,0,2.7.86A2.51,2.51,0,0,0,11.64,17a1.11,1.11,0,0,0,.49-1,1,1,0,0,0-.41-.84,8.67,8.67,0,0,0-1.43-.72L10,14.38l-1.92-.81A5.21,5.21,0,0,1,6,12a3.8,3.8,0,0,1-.85-2.53A4,4,0,0,1,6.64,6.3,5.75,5.75,0,0,1,10.51,5a6.83,6.83,0,0,1,4,1.21A1,1,0,0,1,14.9,7v.12a1.15,1.15,0,0,1-.27.74l-.35.45a1.15,1.15,0,0,1-.76.43h-.24a1.41,1.41,0,0,1-.68-.18,4.43,4.43,0,0,0-2.09-.52,2.25,2.25,0,0,0-1.31.33,1.07,1.07,0,0,0-.47.92.88.88,0,0,0,.11.42,1.57,1.57,0,0,0,.24.32,2,2,0,0,0,.46.3c.22.11.4.2.55.26s.38.15.69.28L11,11l1.85.74a4.14,4.14,0,0,1,2.93,4.08,4.31,4.31,0,0,1-.38,1.78A4.48,4.48,0,0,1,14.31,19a5.23,5.23,0,0,1-1.8,1,7.26,7.26,0,0,1-2.39.43Z" fill="#231815"/>
      <path id="Path_10977" data-name="Path 10977" d="M22.3,20.16a1.12,1.12,0,0,1-.82-.35,1.1,1.1,0,0,1-.33-.81V8.38c0-.09,0-.14-.15-.14H18.28a1.09,1.09,0,0,1-.82-.34,1.13,1.13,0,0,1-.33-.81V6.43a1.16,1.16,0,0,1,1.15-1.16h9.34a1.11,1.11,0,0,1,.81.35,1.07,1.07,0,0,1,.34.81v.66a1.16,1.16,0,0,1-1.15,1.15H24.86c-.09,0-.13,0-.13.14V19a1.2,1.2,0,0,1-1.16,1.16Z" fill="#231815"/>
      <path id="Path_10978" data-name="Path 10978" d="M32.21,20.16A1.2,1.2,0,0,1,31.05,19V6.43a1.08,1.08,0,0,1,.35-.81,1.08,1.08,0,0,1,.81-.35h7.13a1.12,1.12,0,0,1,.82.35,1.1,1.1,0,0,1,.33.81v.66a1.13,1.13,0,0,1-.33.81,1.11,1.11,0,0,1-.82.34H34.79c-.11,0-.16,0-.16.14v2.48c0,.09,0,.14.16.14h3.67a1.09,1.09,0,0,1,.82.34,1.13,1.13,0,0,1,.33.81v.7a1.13,1.13,0,0,1-.33.81,1.09,1.09,0,0,1-.82.34H34.79c-.11,0-.16.05-.16.14V17c0,.09,0,.14.16.14h4.78a1.16,1.16,0,0,1,1.15,1.15V19a1.07,1.07,0,0,1-.34.81,1.11,1.11,0,0,1-.81.35Z" fill="#231815"/>
      <path id="Path_10979" data-name="Path 10979" d="M44.8,20.16A1.18,1.18,0,0,1,43.65,19V6.43A1.18,1.18,0,0,1,44.8,5.27h4.07a9.85,9.85,0,0,1,2.33.25,5.69,5.69,0,0,1,1.89.79,3.62,3.62,0,0,1,1.3,1.51,5.13,5.13,0,0,1,.47,2.3,5.16,5.16,0,0,1-.48,2.28A4.1,4.1,0,0,1,53.09,14a5.71,5.71,0,0,1-1.87.91,8.18,8.18,0,0,1-2.26.3H47.38a.14.14,0,0,0-.15.16V19a1.07,1.07,0,0,1-.34.81,1.09,1.09,0,0,1-.82.35Zm2.43-7.91a.13.13,0,0,0,.15.15h1.41q2.58,0,2.58-2.28a1.76,1.76,0,0,0-.67-1.56,3.6,3.6,0,0,0-2-.45H47.38c-.1,0-.15,0-.15.13Z" fill="#231815"/>
      <path id="Path_10980" data-name="Path 10980" d="M59.18,20.43a2,2,0,0,1-1.51-.64,2.35,2.35,0,0,1,0-3.14,2.113,2.113,0,0,1,3.03-.02,2.33,2.33,0,0,1,0,3.14,2,2,0,0,1-1.52.66Z" fill="#231815"/>
      <path id="Path_10981" data-name="Path 10981" d="M64.53,20.16a1.043,1.043,0,0,1-1.01-1.02,2.26,2.26,0,0,1,.74-1.72,36.81,36.81,0,0,0,4.09-4.32,5.58,5.58,0,0,0,1.38-3.22,2.21,2.21,0,0,0-.52-1.56,1.89,1.89,0,0,0-1.42-.55,2.76,2.76,0,0,0-1.68.65,1.32,1.32,0,0,1-.86.31,1.15,1.15,0,0,1-.8-.33l-.29-.29a1.12,1.12,0,0,1-.35-.82,1,1,0,0,1,.35-.79A6.36,6.36,0,0,1,66,5.36,6.42,6.42,0,0,1,68.28,5a5,5,0,0,1,3.53,1.28,4.44,4.44,0,0,1,1.35,3.39q0,3.12-4.39,7.58a.042.042,0,0,0,.06.06,17.14,17.14,0,0,1,2.26-.19h1.59a1.11,1.11,0,0,1,.82.34,1.13,1.13,0,0,1,.33.81V19a1.1,1.1,0,0,1-.33.81,1.12,1.12,0,0,1-.82.35Z" fill="#231815"/>
      <path id="Path_10982" data-name="Path 10982" d="M10.12,20.43A8.17,8.17,0,0,1,5.45,19,.93.93,0,0,1,5,18.26a.5.5,0,0,1,0-.12,1.15,1.15,0,0,1,.27-.74l.57-.68a1.16,1.16,0,0,1,.78-.41H6.8a1.37,1.37,0,0,1,.7.19,5.14,5.14,0,0,0,2.7.86A2.51,2.51,0,0,0,11.64,17a1.11,1.11,0,0,0,.49-1,1,1,0,0,0-.41-.84,8.67,8.67,0,0,0-1.43-.72L10,14.38l-1.92-.81A5.21,5.21,0,0,1,6,12a3.8,3.8,0,0,1-.85-2.53A4,4,0,0,1,6.64,6.3,5.75,5.75,0,0,1,10.51,5a6.83,6.83,0,0,1,4,1.21A1,1,0,0,1,14.9,7v.12a1.15,1.15,0,0,1-.27.74l-.35.45a1.15,1.15,0,0,1-.76.43h-.24a1.41,1.41,0,0,1-.68-.18,4.43,4.43,0,0,0-2.09-.52,2.25,2.25,0,0,0-1.31.33,1.07,1.07,0,0,0-.47.92.88.88,0,0,0,.11.42,1.57,1.57,0,0,0,.24.32,2,2,0,0,0,.46.3c.22.11.4.2.55.26s.38.15.69.28L11,11l1.85.74a4.14,4.14,0,0,1,2.93,4.08,4.31,4.31,0,0,1-.38,1.78A4.48,4.48,0,0,1,14.31,19a5.23,5.23,0,0,1-1.8,1,7.26,7.26,0,0,1-2.39.43Z" fill="none" stroke="#fff" stroke-miterlimit="10" stroke-width="10"/>
      <path id="Path_10983" data-name="Path 10983" d="M22.3,20.16a1.12,1.12,0,0,1-.82-.35,1.1,1.1,0,0,1-.33-.81V8.38c0-.09,0-.14-.15-.14H18.28a1.09,1.09,0,0,1-.82-.34,1.13,1.13,0,0,1-.33-.81V6.43a1.16,1.16,0,0,1,1.15-1.16h9.34a1.11,1.11,0,0,1,.81.35,1.07,1.07,0,0,1,.34.81v.66a1.16,1.16,0,0,1-1.15,1.15H24.86c-.09,0-.13,0-.13.14V19a1.2,1.2,0,0,1-1.16,1.16Z" fill="none" stroke="#fff" stroke-miterlimit="10" stroke-width="10"/>
      <path id="Path_10984" data-name="Path 10984" d="M32.21,20.16A1.2,1.2,0,0,1,31.05,19V6.43a1.08,1.08,0,0,1,.35-.81,1.08,1.08,0,0,1,.81-.35h7.13a1.12,1.12,0,0,1,.82.35,1.1,1.1,0,0,1,.33.81v.66a1.13,1.13,0,0,1-.33.81,1.11,1.11,0,0,1-.82.34H34.79c-.11,0-.16,0-.16.14v2.48c0,.09,0,.14.16.14h3.67a1.09,1.09,0,0,1,.82.34,1.13,1.13,0,0,1,.33.81v.7a1.13,1.13,0,0,1-.33.81,1.09,1.09,0,0,1-.82.34H34.79c-.11,0-.16.05-.16.14V17c0,.09,0,.14.16.14h4.78a1.16,1.16,0,0,1,1.15,1.15V19a1.07,1.07,0,0,1-.34.81,1.11,1.11,0,0,1-.81.35Z" fill="none" stroke="#fff" stroke-miterlimit="10" stroke-width="10"/>
      <path id="Path_10985" data-name="Path 10985" d="M44.8,20.16A1.18,1.18,0,0,1,43.65,19V6.43A1.18,1.18,0,0,1,44.8,5.27h4.07a9.85,9.85,0,0,1,2.33.25,5.69,5.69,0,0,1,1.89.79,3.62,3.62,0,0,1,1.3,1.51,5.13,5.13,0,0,1,.47,2.3,5.16,5.16,0,0,1-.48,2.28A4.1,4.1,0,0,1,53.09,14a5.71,5.71,0,0,1-1.87.91,8.18,8.18,0,0,1-2.26.3H47.38a.14.14,0,0,0-.15.16V19a1.07,1.07,0,0,1-.34.81,1.09,1.09,0,0,1-.82.35Zm2.43-7.91a.13.13,0,0,0,.15.15h1.41q2.58,0,2.58-2.28a1.76,1.76,0,0,0-.67-1.56,3.6,3.6,0,0,0-2-.45H47.38c-.1,0-.15,0-.15.13Z" fill="none" stroke="#fff" stroke-miterlimit="10" stroke-width="10"/>
      <path id="Path_10986" data-name="Path 10986" d="M59.18,20.43a2,2,0,0,1-1.51-.64,2.35,2.35,0,0,1,0-3.14,2.113,2.113,0,0,1,3.03-.02,2.33,2.33,0,0,1,0,3.14,2,2,0,0,1-1.52.66Z" fill="none" stroke="#fff" stroke-miterlimit="10" stroke-width="10"/>
      <path id="Path_10987" data-name="Path 10987" d="M64.53,20.16a1.043,1.043,0,0,1-1.01-1.02,2.26,2.26,0,0,1,.74-1.72,36.81,36.81,0,0,0,4.09-4.32,5.58,5.58,0,0,0,1.38-3.22,2.21,2.21,0,0,0-.52-1.56,1.89,1.89,0,0,0-1.42-.55,2.76,2.76,0,0,0-1.68.65,1.32,1.32,0,0,1-.86.31,1.15,1.15,0,0,1-.8-.33l-.29-.29a1.12,1.12,0,0,1-.35-.82,1,1,0,0,1,.35-.79A6.36,6.36,0,0,1,66,5.36,6.42,6.42,0,0,1,68.28,5a5,5,0,0,1,3.53,1.28,4.44,4.44,0,0,1,1.35,3.39q0,3.12-4.39,7.58a.042.042,0,0,0,.06.06,17.14,17.14,0,0,1,2.26-.19h1.59a1.11,1.11,0,0,1,.82.34,1.13,1.13,0,0,1,.33.81V19a1.1,1.1,0,0,1-.33.81,1.12,1.12,0,0,1-.82.35Z" fill="none" stroke="#fff" stroke-miterlimit="10" stroke-width="10"/>
      <path id="Path_10988" data-name="Path 10988" d="M10.12,20.43A8.17,8.17,0,0,1,5.45,19,.93.93,0,0,1,5,18.26a.5.5,0,0,1,0-.12,1.15,1.15,0,0,1,.27-.74l.57-.68a1.16,1.16,0,0,1,.78-.41H6.8a1.37,1.37,0,0,1,.7.19,5.14,5.14,0,0,0,2.7.86A2.51,2.51,0,0,0,11.64,17a1.11,1.11,0,0,0,.49-1,1,1,0,0,0-.41-.84,8.67,8.67,0,0,0-1.43-.72L10,14.38l-1.92-.81A5.21,5.21,0,0,1,6,12a3.8,3.8,0,0,1-.85-2.53A4,4,0,0,1,6.64,6.3,5.75,5.75,0,0,1,10.51,5a6.83,6.83,0,0,1,4,1.21A1,1,0,0,1,14.9,7v.12a1.15,1.15,0,0,1-.27.74l-.35.45a1.15,1.15,0,0,1-.76.43h-.24a1.41,1.41,0,0,1-.68-.18,4.43,4.43,0,0,0-2.09-.52,2.25,2.25,0,0,0-1.31.33,1.07,1.07,0,0,0-.47.92.88.88,0,0,0,.11.42,1.57,1.57,0,0,0,.24.32,2,2,0,0,0,.46.3c.22.11.4.2.55.26s.38.15.69.28L11,11l1.85.74a4.14,4.14,0,0,1,2.93,4.08,4.31,4.31,0,0,1-.38,1.78A4.48,4.48,0,0,1,14.31,19a5.23,5.23,0,0,1-1.8,1,7.26,7.26,0,0,1-2.39.43Z" fill="none" stroke="#034baf" stroke-miterlimit="10" stroke-width="5"/>
      <path id="Path_10989" data-name="Path 10989" d="M22.3,20.16a1.12,1.12,0,0,1-.82-.35,1.1,1.1,0,0,1-.33-.81V8.38c0-.09,0-.14-.15-.14H18.28a1.09,1.09,0,0,1-.82-.34,1.13,1.13,0,0,1-.33-.81V6.43a1.16,1.16,0,0,1,1.15-1.16h9.34a1.11,1.11,0,0,1,.81.35,1.07,1.07,0,0,1,.34.81v.66a1.16,1.16,0,0,1-1.15,1.15H24.86c-.09,0-.13,0-.13.14V19a1.2,1.2,0,0,1-1.16,1.16Z" fill="none" stroke="#034baf" stroke-miterlimit="10" stroke-width="5"/>
      <path id="Path_10990" data-name="Path 10990" d="M32.21,20.16A1.2,1.2,0,0,1,31.05,19V6.43a1.08,1.08,0,0,1,.35-.81,1.08,1.08,0,0,1,.81-.35h7.13a1.12,1.12,0,0,1,.82.35,1.1,1.1,0,0,1,.33.81v.66a1.13,1.13,0,0,1-.33.81,1.11,1.11,0,0,1-.82.34H34.79c-.11,0-.16,0-.16.14v2.48c0,.09,0,.14.16.14h3.67a1.09,1.09,0,0,1,.82.34,1.13,1.13,0,0,1,.33.81v.7a1.13,1.13,0,0,1-.33.81,1.09,1.09,0,0,1-.82.34H34.79c-.11,0-.16.05-.16.14V17c0,.09,0,.14.16.14h4.78a1.16,1.16,0,0,1,1.15,1.15V19a1.07,1.07,0,0,1-.34.81,1.11,1.11,0,0,1-.81.35Z" fill="none" stroke="#034baf" stroke-miterlimit="10" stroke-width="5"/>
      <path id="Path_10991" data-name="Path 10991" d="M44.8,20.16A1.18,1.18,0,0,1,43.65,19V6.43A1.18,1.18,0,0,1,44.8,5.27h4.07a9.85,9.85,0,0,1,2.33.25,5.69,5.69,0,0,1,1.89.79,3.62,3.62,0,0,1,1.3,1.51,5.13,5.13,0,0,1,.47,2.3,5.16,5.16,0,0,1-.48,2.28A4.1,4.1,0,0,1,53.09,14a5.71,5.71,0,0,1-1.87.91,8.18,8.18,0,0,1-2.26.3H47.38a.14.14,0,0,0-.15.16V19a1.07,1.07,0,0,1-.34.81,1.09,1.09,0,0,1-.82.35Zm2.43-7.91a.13.13,0,0,0,.15.15h1.41q2.58,0,2.58-2.28a1.76,1.76,0,0,0-.67-1.56,3.6,3.6,0,0,0-2-.45H47.38c-.1,0-.15,0-.15.13Z" fill="none" stroke="#034baf" stroke-miterlimit="10" stroke-width="5"/>
      <path id="Path_10992" data-name="Path 10992" d="M59.18,20.43a2,2,0,0,1-1.51-.64,2.35,2.35,0,0,1,0-3.14,2.113,2.113,0,0,1,3.03-.02,2.33,2.33,0,0,1,0,3.14,2,2,0,0,1-1.52.66Z" fill="none" stroke="#034baf" stroke-miterlimit="10" stroke-width="5"/>
      <path id="Path_10993" data-name="Path 10993" d="M64.53,20.16a1.043,1.043,0,0,1-1.01-1.02,2.26,2.26,0,0,1,.74-1.72,36.81,36.81,0,0,0,4.09-4.32,5.58,5.58,0,0,0,1.38-3.22,2.21,2.21,0,0,0-.52-1.56,1.89,1.89,0,0,0-1.42-.55,2.76,2.76,0,0,0-1.68.65,1.32,1.32,0,0,1-.86.31,1.15,1.15,0,0,1-.8-.33l-.29-.29a1.12,1.12,0,0,1-.35-.82,1,1,0,0,1,.35-.79A6.36,6.36,0,0,1,66,5.36,6.42,6.42,0,0,1,68.28,5a5,5,0,0,1,3.53,1.28,4.44,4.44,0,0,1,1.35,3.39q0,3.12-4.39,7.58a.042.042,0,0,0,.06.06,17.14,17.14,0,0,1,2.26-.19h1.59a1.11,1.11,0,0,1,.82.34,1.13,1.13,0,0,1,.33.81V19a1.1,1.1,0,0,1-.33.81,1.12,1.12,0,0,1-.82.35Z" fill="none" stroke="#034baf" stroke-miterlimit="10" stroke-width="5"/>
      <path id="Path_10994" data-name="Path 10994" d="M10.12,20.43A8.17,8.17,0,0,1,5.45,19,.93.93,0,0,1,5,18.26a.5.5,0,0,1,0-.12,1.15,1.15,0,0,1,.27-.74l.57-.68a1.16,1.16,0,0,1,.78-.41H6.8a1.37,1.37,0,0,1,.7.19,5.14,5.14,0,0,0,2.7.86A2.51,2.51,0,0,0,11.64,17a1.11,1.11,0,0,0,.49-1,1,1,0,0,0-.41-.84,8.67,8.67,0,0,0-1.43-.72L10,14.38l-1.92-.81A5.21,5.21,0,0,1,6,12a3.8,3.8,0,0,1-.85-2.53A4,4,0,0,1,6.64,6.3,5.75,5.75,0,0,1,10.51,5a6.83,6.83,0,0,1,4,1.21A1,1,0,0,1,14.9,7v.12a1.15,1.15,0,0,1-.27.74l-.35.45a1.15,1.15,0,0,1-.76.43h-.24a1.41,1.41,0,0,1-.68-.18,4.43,4.43,0,0,0-2.09-.52,2.25,2.25,0,0,0-1.31.33,1.07,1.07,0,0,0-.47.92.88.88,0,0,0,.11.42,1.57,1.57,0,0,0,.24.32,2,2,0,0,0,.46.3c.22.11.4.2.55.26s.38.15.69.28L11,11l1.85.74a4.14,4.14,0,0,1,2.93,4.08,4.31,4.31,0,0,1-.38,1.78A4.48,4.48,0,0,1,14.31,19a5.23,5.23,0,0,1-1.8,1,7.26,7.26,0,0,1-2.39.43Z" fill="#efea3a"/>
      <path id="Path_10995" data-name="Path 10995" d="M22.3,20.16a1.12,1.12,0,0,1-.82-.35,1.1,1.1,0,0,1-.33-.81V8.38c0-.09,0-.14-.15-.14H18.28a1.09,1.09,0,0,1-.82-.34,1.13,1.13,0,0,1-.33-.81V6.43a1.16,1.16,0,0,1,1.15-1.16h9.34a1.11,1.11,0,0,1,.81.35,1.07,1.07,0,0,1,.34.81v.66a1.16,1.16,0,0,1-1.15,1.15H24.86c-.09,0-.13,0-.13.14V19a1.2,1.2,0,0,1-1.16,1.16Z" fill="#efea3a"/>
      <path id="Path_10996" data-name="Path 10996" d="M32.21,20.16A1.2,1.2,0,0,1,31.05,19V6.43a1.08,1.08,0,0,1,.35-.81,1.08,1.08,0,0,1,.81-.35h7.13a1.12,1.12,0,0,1,.82.35,1.1,1.1,0,0,1,.33.81v.66a1.13,1.13,0,0,1-.33.81,1.11,1.11,0,0,1-.82.34H34.79c-.11,0-.16,0-.16.14v2.48c0,.09,0,.14.16.14h3.67a1.09,1.09,0,0,1,.82.34,1.13,1.13,0,0,1,.33.81v.7a1.13,1.13,0,0,1-.33.81,1.09,1.09,0,0,1-.82.34H34.79c-.11,0-.16.05-.16.14V17c0,.09,0,.14.16.14h4.78a1.16,1.16,0,0,1,1.15,1.15V19a1.07,1.07,0,0,1-.34.81,1.11,1.11,0,0,1-.81.35Z" fill="#efea3a"/>
      <path id="Path_10997" data-name="Path 10997" d="M44.8,20.16A1.18,1.18,0,0,1,43.65,19V6.43A1.18,1.18,0,0,1,44.8,5.27h4.07a9.85,9.85,0,0,1,2.33.25,5.69,5.69,0,0,1,1.89.79,3.62,3.62,0,0,1,1.3,1.51,5.13,5.13,0,0,1,.47,2.3,5.16,5.16,0,0,1-.48,2.28A4.1,4.1,0,0,1,53.09,14a5.71,5.71,0,0,1-1.87.91,8.18,8.18,0,0,1-2.26.3H47.38a.14.14,0,0,0-.15.16V19a1.07,1.07,0,0,1-.34.81,1.09,1.09,0,0,1-.82.35Zm2.43-7.91a.13.13,0,0,0,.15.15h1.41q2.58,0,2.58-2.28a1.76,1.76,0,0,0-.67-1.56,3.6,3.6,0,0,0-2-.45H47.38c-.1,0-.15,0-.15.13Z" fill="#efea3a"/>
      <path id="Path_10998" data-name="Path 10998" d="M59.18,20.43a2,2,0,0,1-1.51-.64,2.35,2.35,0,0,1,0-3.14,2.113,2.113,0,0,1,3.03-.02,2.33,2.33,0,0,1,0,3.14,2,2,0,0,1-1.52.66Z" fill="#efea3a"/>
      <path id="Path_10999" data-name="Path 10999" d="M64.53,20.16a1.043,1.043,0,0,1-1.01-1.02,2.26,2.26,0,0,1,.74-1.72,36.81,36.81,0,0,0,4.09-4.32,5.58,5.58,0,0,0,1.38-3.22,2.21,2.21,0,0,0-.52-1.56,1.89,1.89,0,0,0-1.42-.55,2.76,2.76,0,0,0-1.68.65,1.32,1.32,0,0,1-.86.31,1.15,1.15,0,0,1-.8-.33l-.29-.29a1.12,1.12,0,0,1-.35-.82,1,1,0,0,1,.35-.79A6.36,6.36,0,0,1,66,5.36,6.42,6.42,0,0,1,68.28,5a5,5,0,0,1,3.53,1.28,4.44,4.44,0,0,1,1.35,3.39q0,3.12-4.39,7.58a.042.042,0,0,0,.06.06,17.14,17.14,0,0,1,2.26-.19h1.59a1.11,1.11,0,0,1,.82.34,1.13,1.13,0,0,1,.33.81V19a1.1,1.1,0,0,1-.33.81,1.12,1.12,0,0,1-.82.35Z" fill="#efea3a"/>
    </g>
  </g>
</svg>
