<svg xmlns="http://www.w3.org/2000/svg" xmlns:xlink="http://www.w3.org/1999/xlink" width="506.629" height="206.384" viewBox="0 0 506.629 206.384">
  <defs>
    <clipPath id="clip-path">
      <rect id="Rectangle_1553" data-name="Rectangle 1553" width="127.784" height="59.369" fill="none"/>
    </clipPath>
  </defs>
  <g id="Group_3078" data-name="Group 3078" transform="translate(-535.242 -2256.136)">
    <g id="Group_3038" data-name="Group 3038" transform="translate(552.742 2304.09)">
      <g id="Group_2623" data-name="Group 2623" transform="translate(0)">
        <path id="Path_9512" data-name="Path 9512" d="M442.092,373.7a33.526,33.526,0,0,1-22.252-7.851,6.388,6.388,0,0,1-2.316-4.687,4.37,4.37,0,0,1-.1-.937,7.934,7.934,0,0,1,1.308-4.453l1.41-2.226a5,5,0,0,1,3.726-2.578h.805a5.941,5.941,0,0,1,3.625,1.288,17.948,17.948,0,0,0,11.076,4.218q5.739,0,8.911-3.574t3.172-10.369q0-6.561-3.071-10.194a10.208,10.208,0,0,0-8.206-3.633,13.338,13.338,0,0,0-6.646,1.641,8.334,8.334,0,0,1-4.027,1.172,6.492,6.492,0,0,1-4.128-1.523,9.493,9.493,0,0,1-3.827-7.967v-.7l1.41-31.635a7.884,7.884,0,0,1,2.014-4.921,5.559,5.559,0,0,1,4.229-1.992h31.316a5.354,5.354,0,0,1,4.179,2.051,7.223,7.223,0,0,1,1.762,4.862v3.984a7.222,7.222,0,0,1-1.762,4.862,5.348,5.348,0,0,1-4.179,2.05H439.878a.826.826,0,0,0-.907.82l-.906,13.357a.472.472,0,0,0,.1.527.459.459,0,0,0,.5.059,17.646,17.646,0,0,1,7.25-1.523,22.436,22.436,0,0,1,17.118,7.206q6.745,7.205,6.746,21.031a35.928,35.928,0,0,1-3.877,17.048A26.05,26.05,0,0,1,442.092,373.7Z" transform="translate(-417.423 -281.134)" fill="none" stroke="#fff" stroke-miterlimit="10" stroke-width="35"/>
        <path id="Path_9513" data-name="Path 9513" d="M536.109,373.7a33.529,33.529,0,0,1-22.253-7.851,6.392,6.392,0,0,1-2.316-4.687,4.415,4.415,0,0,1-.1-.937,7.93,7.93,0,0,1,1.309-4.453l1.41-2.226a5,5,0,0,1,3.726-2.578h.805a5.941,5.941,0,0,1,3.625,1.288,17.946,17.946,0,0,0,11.076,4.218q5.739,0,8.911-3.574t3.172-10.369q0-6.561-3.071-10.194A10.208,10.208,0,0,0,534.2,328.7a13.338,13.338,0,0,0-6.646,1.641,8.335,8.335,0,0,1-4.027,1.172,6.494,6.494,0,0,1-4.129-1.523,9.494,9.494,0,0,1-3.826-7.967v-.7l1.41-31.635a7.884,7.884,0,0,1,2.014-4.921,5.558,5.558,0,0,1,4.229-1.992h31.315a5.356,5.356,0,0,1,4.179,2.051,7.226,7.226,0,0,1,1.761,4.862v3.984a7.225,7.225,0,0,1-1.761,4.862,5.349,5.349,0,0,1-4.179,2.05H533.894a.826.826,0,0,0-.906.82l-.906,13.357a.47.47,0,0,0,.1.527.458.458,0,0,0,.5.059,17.649,17.649,0,0,1,7.25-1.523,22.433,22.433,0,0,1,17.117,7.206q6.746,7.205,6.746,21.031a35.927,35.927,0,0,1-3.876,17.048A26.05,26.05,0,0,1,536.109,373.7Z" transform="translate(-448.708 -281.134)" fill="none" stroke="#fff" stroke-miterlimit="10" stroke-width="35"/>
        <path id="Path_9514" data-name="Path 9514" d="M613.068,386.387q.065-.613-.46-.613h-.132a6.827,6.827,0,0,1-5-2.106,8.628,8.628,0,0,1,.033-11.334,7.12,7.12,0,0,1,5.3-2.183,6.717,6.717,0,0,1,6.055,3.408q2.106,3.409,2.107,9.612a23.363,23.363,0,0,1-2.863,11.717,19.86,19.86,0,0,1-8.26,7.888,2.978,2.978,0,0,1-1.25.307,2.7,2.7,0,0,1-1.383-.384,4.642,4.642,0,0,1-2.04-3.676,4.4,4.4,0,0,1,.329-1.608,4.48,4.48,0,0,1,1.843-2.3Q612.738,391.671,613.068,386.387Z" transform="translate(-479.898 -310.21)" fill="none" stroke="#fff" stroke-miterlimit="10" stroke-width="35"/>
        <path id="Path_9515" data-name="Path 9515" d="M687.086,360.752q-7.4,12.127-19.836,12.128t-19.786-12.128q-7.351-12.126-7.35-34.622t7.3-34.155q7.3-11.657,19.786-11.658t19.886,11.775q7.4,11.776,7.4,34.038Q694.487,348.625,687.086,360.752Zm-23.763-5.741a6.249,6.249,0,0,0,7.753,0,12.446,12.446,0,0,0,3.121-4.569,33.49,33.49,0,0,0,2.215-9.315,124.965,124.965,0,0,0,.755-15,122.3,122.3,0,0,0-.755-14.822,30.888,30.888,0,0,0-2.215-9.08,11.353,11.353,0,0,0-3.121-4.277,6.339,6.339,0,0,0-3.877-1.23,6.12,6.12,0,0,0-3.827,1.23,11.27,11.27,0,0,0-3.021,4.277,32.219,32.219,0,0,0-2.165,9.08,122.312,122.312,0,0,0-.755,14.822,124.978,124.978,0,0,0,.755,15,36.694,36.694,0,0,0,2.115,9.315A11.628,11.628,0,0,0,663.323,355.011Z" transform="translate(-491.525 -280.316)" fill="none" stroke="#fff" stroke-miterlimit="10" stroke-width="35"/>
        <path id="Path_9516" data-name="Path 9516" d="M781.1,360.752q-7.4,12.127-19.836,12.128T741.48,360.752q-7.351-12.126-7.35-34.622t7.3-34.155q7.3-11.657,19.786-11.658T781.1,292.091q7.4,11.776,7.4,34.038Q788.5,348.625,781.1,360.752Zm-23.764-5.741a6.249,6.249,0,0,0,7.753,0,12.447,12.447,0,0,0,3.122-4.569,33.535,33.535,0,0,0,2.215-9.315,125.009,125.009,0,0,0,.755-15,122.342,122.342,0,0,0-.755-14.822,30.929,30.929,0,0,0-2.215-9.08,11.354,11.354,0,0,0-3.122-4.277,6.338,6.338,0,0,0-3.876-1.23,6.119,6.119,0,0,0-3.827,1.23,11.264,11.264,0,0,0-3.021,4.277,32.173,32.173,0,0,0-2.165,9.08,122.178,122.178,0,0,0-.755,14.822,124.841,124.841,0,0,0,.755,15,36.67,36.67,0,0,0,2.115,9.315A11.634,11.634,0,0,0,757.339,355.011Z" transform="translate(-522.811 -280.316)" fill="none" stroke="#fff" stroke-miterlimit="10" stroke-width="35"/>
        <path id="Path_9517" data-name="Path 9517" d="M875.119,360.752q-7.4,12.127-19.836,12.128T835.5,360.752q-7.351-12.126-7.351-34.622t7.3-34.155q7.3-11.657,19.786-11.658t19.887,11.775c3.587,5.707,5.87,13.263,6.87,22.868a109.315,109.315,0,0,1,.531,11.17Q882.52,348.625,875.119,360.752Zm-23.763-5.741a6.249,6.249,0,0,0,7.753,0,12.439,12.439,0,0,0,3.121-4.569,33.513,33.513,0,0,0,2.215-9.315,124.978,124.978,0,0,0,.755-15,122.312,122.312,0,0,0-.755-14.822,30.909,30.909,0,0,0-2.215-9.08,11.347,11.347,0,0,0-3.121-4.277,6.34,6.34,0,0,0-3.877-1.23,6.122,6.122,0,0,0-3.827,1.23,11.269,11.269,0,0,0-3.021,4.277,32.193,32.193,0,0,0-2.165,9.08,122.159,122.159,0,0,0-.756,14.822,124.821,124.821,0,0,0,.756,15,36.664,36.664,0,0,0,2.114,9.315A11.628,11.628,0,0,0,851.356,355.011Z" transform="translate(-554.096 -280.316)" fill="none" stroke="#fff" stroke-miterlimit="10" stroke-width="35"/>
      </g>
      <g id="Group_2624" data-name="Group 2624" transform="translate(0)">
        <path id="Path_9518" data-name="Path 9518" d="M442.092,373.7a33.526,33.526,0,0,1-22.252-7.851,6.388,6.388,0,0,1-2.316-4.687,4.37,4.37,0,0,1-.1-.937,7.934,7.934,0,0,1,1.308-4.453l1.41-2.226a5,5,0,0,1,3.726-2.578h.805a5.941,5.941,0,0,1,3.625,1.288,17.948,17.948,0,0,0,11.076,4.218q5.739,0,8.911-3.574t3.172-10.369q0-6.561-3.071-10.194a10.208,10.208,0,0,0-8.206-3.633,13.338,13.338,0,0,0-6.646,1.641,8.334,8.334,0,0,1-4.027,1.172,6.492,6.492,0,0,1-4.128-1.523,9.493,9.493,0,0,1-3.827-7.967v-.7l1.41-31.635a7.884,7.884,0,0,1,2.014-4.921,5.559,5.559,0,0,1,4.229-1.992h31.316a5.354,5.354,0,0,1,4.179,2.051,7.223,7.223,0,0,1,1.762,4.862v3.984a7.222,7.222,0,0,1-1.762,4.862,5.348,5.348,0,0,1-4.179,2.05H439.878a.826.826,0,0,0-.907.82l-.906,13.357a.472.472,0,0,0,.1.527.459.459,0,0,0,.5.059,17.646,17.646,0,0,1,7.25-1.523,22.436,22.436,0,0,1,17.118,7.206q6.745,7.205,6.746,21.031a35.928,35.928,0,0,1-3.877,17.048A26.05,26.05,0,0,1,442.092,373.7Z" transform="translate(-417.423 -281.134)" fill="none" stroke="#034baf" stroke-miterlimit="10" stroke-width="18"/>
        <path id="Path_9519" data-name="Path 9519" d="M536.109,373.7a33.529,33.529,0,0,1-22.253-7.851,6.392,6.392,0,0,1-2.316-4.687,4.415,4.415,0,0,1-.1-.937,7.93,7.93,0,0,1,1.309-4.453l1.41-2.226a5,5,0,0,1,3.726-2.578h.805a5.941,5.941,0,0,1,3.625,1.288,17.946,17.946,0,0,0,11.076,4.218q5.739,0,8.911-3.574t3.172-10.369q0-6.561-3.071-10.194A10.208,10.208,0,0,0,534.2,328.7a13.338,13.338,0,0,0-6.646,1.641,8.335,8.335,0,0,1-4.027,1.172,6.494,6.494,0,0,1-4.129-1.523,9.494,9.494,0,0,1-3.826-7.967v-.7l1.41-31.635a7.884,7.884,0,0,1,2.014-4.921,5.558,5.558,0,0,1,4.229-1.992h31.315a5.356,5.356,0,0,1,4.179,2.051,7.226,7.226,0,0,1,1.761,4.862v3.984a7.225,7.225,0,0,1-1.761,4.862,5.349,5.349,0,0,1-4.179,2.05H533.894a.826.826,0,0,0-.906.82l-.906,13.357a.47.47,0,0,0,.1.527.458.458,0,0,0,.5.059,17.649,17.649,0,0,1,7.25-1.523,22.433,22.433,0,0,1,17.117,7.206q6.746,7.205,6.746,21.031a35.927,35.927,0,0,1-3.876,17.048A26.05,26.05,0,0,1,536.109,373.7Z" transform="translate(-448.708 -281.134)" fill="none" stroke="#034baf" stroke-miterlimit="10" stroke-width="18"/>
        <path id="Path_9520" data-name="Path 9520" d="M613.068,386.387q.065-.613-.46-.613h-.132a6.827,6.827,0,0,1-5-2.106,8.628,8.628,0,0,1,.033-11.334,7.12,7.12,0,0,1,5.3-2.183,6.717,6.717,0,0,1,6.055,3.408q2.106,3.409,2.107,9.612a23.363,23.363,0,0,1-2.863,11.717,19.86,19.86,0,0,1-8.26,7.888,2.978,2.978,0,0,1-1.25.307,2.7,2.7,0,0,1-1.383-.384,4.642,4.642,0,0,1-2.04-3.676,4.4,4.4,0,0,1,.329-1.608,4.48,4.48,0,0,1,1.843-2.3Q612.738,391.671,613.068,386.387Z" transform="translate(-479.898 -310.21)" fill="none" stroke="#034baf" stroke-miterlimit="10" stroke-width="18"/>
        <path id="Path_9521" data-name="Path 9521" d="M687.086,360.752q-7.4,12.127-19.836,12.128t-19.786-12.128q-7.351-12.126-7.35-34.622t7.3-34.155q7.3-11.657,19.786-11.658t19.886,11.775q7.4,11.776,7.4,34.038Q694.487,348.625,687.086,360.752Zm-23.763-5.741a6.249,6.249,0,0,0,7.753,0,12.446,12.446,0,0,0,3.121-4.569,33.49,33.49,0,0,0,2.215-9.315,124.965,124.965,0,0,0,.755-15,122.3,122.3,0,0,0-.755-14.822,30.888,30.888,0,0,0-2.215-9.08,11.353,11.353,0,0,0-3.121-4.277,6.339,6.339,0,0,0-3.877-1.23,6.12,6.12,0,0,0-3.827,1.23,11.27,11.27,0,0,0-3.021,4.277,32.219,32.219,0,0,0-2.165,9.08,122.312,122.312,0,0,0-.755,14.822,124.978,124.978,0,0,0,.755,15,36.694,36.694,0,0,0,2.115,9.315A11.628,11.628,0,0,0,663.323,355.011Z" transform="translate(-491.525 -280.316)" fill="none" stroke="#034baf" stroke-miterlimit="10" stroke-width="18"/>
        <path id="Path_9522" data-name="Path 9522" d="M781.1,360.752q-7.4,12.127-19.836,12.128T741.48,360.752q-7.351-12.126-7.35-34.622t7.3-34.155q7.3-11.657,19.786-11.658T781.1,292.091q7.4,11.776,7.4,34.038Q788.5,348.625,781.1,360.752Zm-23.764-5.741a6.249,6.249,0,0,0,7.753,0,12.447,12.447,0,0,0,3.122-4.569,33.535,33.535,0,0,0,2.215-9.315,125.009,125.009,0,0,0,.755-15,122.342,122.342,0,0,0-.755-14.822,30.929,30.929,0,0,0-2.215-9.08,11.354,11.354,0,0,0-3.122-4.277,6.338,6.338,0,0,0-3.876-1.23,6.119,6.119,0,0,0-3.827,1.23,11.264,11.264,0,0,0-3.021,4.277,32.173,32.173,0,0,0-2.165,9.08,122.178,122.178,0,0,0-.755,14.822,124.841,124.841,0,0,0,.755,15,36.67,36.67,0,0,0,2.115,9.315A11.634,11.634,0,0,0,757.339,355.011Z" transform="translate(-522.811 -280.316)" fill="none" stroke="#034baf" stroke-miterlimit="10" stroke-width="18"/>
        <path id="Path_9523" data-name="Path 9523" d="M875.119,360.752q-7.4,12.127-19.836,12.128T835.5,360.752q-7.351-12.126-7.351-34.622t7.3-34.155q7.3-11.657,19.786-11.658t19.887,11.775q7.4,11.776,7.4,34.038Q882.52,348.625,875.119,360.752Zm-23.763-5.741a6.249,6.249,0,0,0,7.753,0,12.439,12.439,0,0,0,3.121-4.569,33.513,33.513,0,0,0,2.215-9.315,124.978,124.978,0,0,0,.755-15,122.312,122.312,0,0,0-.755-14.822,30.909,30.909,0,0,0-2.215-9.08,11.347,11.347,0,0,0-3.121-4.277,6.34,6.34,0,0,0-3.877-1.23,6.122,6.122,0,0,0-3.827,1.23,11.269,11.269,0,0,0-3.021,4.277,32.193,32.193,0,0,0-2.165,9.08,122.159,122.159,0,0,0-.756,14.822,124.821,124.821,0,0,0,.756,15,36.664,36.664,0,0,0,2.114,9.315A11.628,11.628,0,0,0,851.356,355.011Z" transform="translate(-554.096 -280.316)" fill="none" stroke="#034baf" stroke-miterlimit="10" stroke-width="18"/>
      </g>
      <g id="Group_2625" data-name="Group 2625" transform="translate(0)">
        <path id="Path_9524" data-name="Path 9524" d="M442.092,373.7a33.526,33.526,0,0,1-22.252-7.851,6.388,6.388,0,0,1-2.316-4.687,4.37,4.37,0,0,1-.1-.937,7.934,7.934,0,0,1,1.308-4.453l1.41-2.226a5,5,0,0,1,3.726-2.578h.805a5.941,5.941,0,0,1,3.625,1.288,17.948,17.948,0,0,0,11.076,4.218q5.739,0,8.911-3.574t3.172-10.369q0-6.561-3.071-10.194a10.208,10.208,0,0,0-8.206-3.633,13.338,13.338,0,0,0-6.646,1.641,8.334,8.334,0,0,1-4.027,1.172,6.492,6.492,0,0,1-4.128-1.523,9.493,9.493,0,0,1-3.827-7.967v-.7l1.41-31.635a7.884,7.884,0,0,1,2.014-4.921,5.559,5.559,0,0,1,4.229-1.992h31.316a5.354,5.354,0,0,1,4.179,2.051,7.223,7.223,0,0,1,1.762,4.862v3.984a7.222,7.222,0,0,1-1.762,4.862,5.348,5.348,0,0,1-4.179,2.05H439.878a.826.826,0,0,0-.907.82l-.906,13.357a.472.472,0,0,0,.1.527.459.459,0,0,0,.5.059,17.646,17.646,0,0,1,7.25-1.523,22.436,22.436,0,0,1,17.118,7.206q6.745,7.205,6.746,21.031a35.928,35.928,0,0,1-3.877,17.048A26.05,26.05,0,0,1,442.092,373.7Z" transform="translate(-417.423 -281.134)" fill="#f8e520"/>
        <path id="Path_9525" data-name="Path 9525" d="M536.109,373.7a33.529,33.529,0,0,1-22.253-7.851,6.392,6.392,0,0,1-2.316-4.687,4.415,4.415,0,0,1-.1-.937,7.93,7.93,0,0,1,1.309-4.453l1.41-2.226a5,5,0,0,1,3.726-2.578h.805a5.941,5.941,0,0,1,3.625,1.288,17.946,17.946,0,0,0,11.076,4.218q5.739,0,8.911-3.574t3.172-10.369q0-6.561-3.071-10.194A10.208,10.208,0,0,0,534.2,328.7a13.338,13.338,0,0,0-6.646,1.641,8.335,8.335,0,0,1-4.027,1.172,6.494,6.494,0,0,1-4.129-1.523,9.494,9.494,0,0,1-3.826-7.967v-.7l1.41-31.635a7.884,7.884,0,0,1,2.014-4.921,5.558,5.558,0,0,1,4.229-1.992h31.315a5.356,5.356,0,0,1,4.179,2.051,7.226,7.226,0,0,1,1.761,4.862v3.984a7.225,7.225,0,0,1-1.761,4.862,5.349,5.349,0,0,1-4.179,2.05H533.894a.826.826,0,0,0-.906.82l-.906,13.357a.47.47,0,0,0,.1.527.458.458,0,0,0,.5.059,17.649,17.649,0,0,1,7.25-1.523,22.433,22.433,0,0,1,17.117,7.206q6.746,7.205,6.746,21.031a35.927,35.927,0,0,1-3.876,17.048A26.05,26.05,0,0,1,536.109,373.7Z" transform="translate(-448.708 -281.134)" fill="#f8e520"/>
        <path id="Path_9526" data-name="Path 9526" d="M613.068,386.387q.065-.613-.46-.613h-.132a6.827,6.827,0,0,1-5-2.106,8.628,8.628,0,0,1,.033-11.334,7.12,7.12,0,0,1,5.3-2.183,6.717,6.717,0,0,1,6.055,3.408q2.106,3.409,2.107,9.612a23.363,23.363,0,0,1-2.863,11.717,19.86,19.86,0,0,1-8.26,7.888,2.978,2.978,0,0,1-1.25.307,2.7,2.7,0,0,1-1.383-.384,4.642,4.642,0,0,1-2.04-3.676,4.4,4.4,0,0,1,.329-1.608,4.48,4.48,0,0,1,1.843-2.3Q612.738,391.671,613.068,386.387Z" transform="translate(-479.898 -310.21)" fill="#f8e520"/>
        <path id="Path_9527" data-name="Path 9527" d="M687.086,360.752q-7.4,12.127-19.836,12.128t-19.786-12.128q-7.351-12.126-7.35-34.622t7.3-34.155q7.3-11.657,19.786-11.658t19.886,11.775q7.4,11.776,7.4,34.038Q694.487,348.625,687.086,360.752Zm-23.763-5.741a6.249,6.249,0,0,0,7.753,0,12.446,12.446,0,0,0,3.121-4.569,33.49,33.49,0,0,0,2.215-9.315,124.965,124.965,0,0,0,.755-15,122.3,122.3,0,0,0-.755-14.822,30.888,30.888,0,0,0-2.215-9.08,11.353,11.353,0,0,0-3.121-4.277,6.339,6.339,0,0,0-3.877-1.23,6.12,6.12,0,0,0-3.827,1.23,11.27,11.27,0,0,0-3.021,4.277,32.219,32.219,0,0,0-2.165,9.08,122.312,122.312,0,0,0-.755,14.822,124.978,124.978,0,0,0,.755,15,36.694,36.694,0,0,0,2.115,9.315A11.628,11.628,0,0,0,663.323,355.011Z" transform="translate(-491.525 -280.316)" fill="#f8e520"/>
        <path id="Path_9528" data-name="Path 9528" d="M781.1,360.752q-7.4,12.127-19.836,12.128T741.48,360.752q-7.351-12.126-7.35-34.622t7.3-34.155q7.3-11.657,19.786-11.658T781.1,292.091q7.4,11.776,7.4,34.038Q788.5,348.625,781.1,360.752Zm-23.764-5.741a6.249,6.249,0,0,0,7.753,0,12.447,12.447,0,0,0,3.122-4.569,33.535,33.535,0,0,0,2.215-9.315,125.009,125.009,0,0,0,.755-15,122.342,122.342,0,0,0-.755-14.822,30.929,30.929,0,0,0-2.215-9.08,11.354,11.354,0,0,0-3.122-4.277,6.338,6.338,0,0,0-3.876-1.23,6.119,6.119,0,0,0-3.827,1.23,11.264,11.264,0,0,0-3.021,4.277,32.173,32.173,0,0,0-2.165,9.08,122.178,122.178,0,0,0-.755,14.822,124.841,124.841,0,0,0,.755,15,36.67,36.67,0,0,0,2.115,9.315A11.634,11.634,0,0,0,757.339,355.011Z" transform="translate(-522.811 -280.316)" fill="#f8e520"/>
        <path id="Path_9529" data-name="Path 9529" d="M875.119,360.752q-7.4,12.127-19.836,12.128T835.5,360.752q-7.351-12.126-7.351-34.622t7.3-34.155q7.3-11.657,19.786-11.658t19.887,11.775q7.4,11.776,7.4,34.038Q882.52,348.625,875.119,360.752Zm-23.763-5.741a6.249,6.249,0,0,0,7.753,0,12.439,12.439,0,0,0,3.121-4.569,33.513,33.513,0,0,0,2.215-9.315,124.978,124.978,0,0,0,.755-15,122.312,122.312,0,0,0-.755-14.822,30.909,30.909,0,0,0-2.215-9.08,11.347,11.347,0,0,0-3.121-4.277,6.34,6.34,0,0,0-3.877-1.23,6.122,6.122,0,0,0-3.827,1.23,11.269,11.269,0,0,0-3.021,4.277,32.193,32.193,0,0,0-2.165,9.08,122.159,122.159,0,0,0-.756,14.822,124.821,124.821,0,0,0,.756,15,36.664,36.664,0,0,0,2.114,9.315A11.628,11.628,0,0,0,851.356,355.011Z" transform="translate(-554.096 -280.316)" fill="#f8e520"/>
      </g>
    </g>
    <g id="Group_3040" data-name="Group 3040" transform="translate(892.278 2383.405)">
      <g id="Group_2628" data-name="Group 2628" transform="translate(0 0)">
        <path id="Path_9530" data-name="Path 9530" d="M945.355,391.64a2.164,2.164,0,0,1,1.659.763,2.783,2.783,0,0,1,.691,1.832v19.543a7.656,7.656,0,0,1-.387,2.687,2.614,2.614,0,0,1-1.3,1.5,7.589,7.589,0,0,1-3.318.794h-.111a2.321,2.321,0,0,1-1.521-.611,3.778,3.778,0,0,1-1.078-1.619,2.208,2.208,0,0,1-.083-.58,1.439,1.439,0,0,1,.249-.825,1.157,1.157,0,0,1,1.078-.672h1.688a.877.877,0,0,0,.552-.152.849.849,0,0,0,.166-.581V407.7a.244.244,0,0,0-.276-.275H928.183q-.249,0-.249.275v8.825a2.181,2.181,0,0,1-.609,1.557,1.816,1.816,0,0,1-2.82,0,2.179,2.179,0,0,1-.609-1.557V394.236a2.783,2.783,0,0,1,.691-1.832,2.164,2.164,0,0,1,1.659-.763Zm-17.172,4.4c-.166,0-.249.092-.249.275v6.413q0,.305.249.306H933.3c.183,0,.276-.1.276-.306v-6.413a.244.244,0,0,0-.276-.275Zm9.4,6.688q0,.305.277.306h5.5q.276,0,.276-.306v-6.413a.244.244,0,0,0-.276-.275h-5.5a.244.244,0,0,0-.277.275Z" transform="translate(-923.897 -391.64)" fill="none" stroke="#fff" stroke-miterlimit="10" stroke-width="15"/>
      </g>
      <g id="Group_2629" data-name="Group 2629" transform="translate(0 0)">
        <path id="Path_9531" data-name="Path 9531" d="M945.355,391.64a2.164,2.164,0,0,1,1.659.763,2.783,2.783,0,0,1,.691,1.832v19.543a7.656,7.656,0,0,1-.387,2.687,2.614,2.614,0,0,1-1.3,1.5,7.589,7.589,0,0,1-3.318.794h-.111a2.321,2.321,0,0,1-1.521-.611,3.778,3.778,0,0,1-1.078-1.619,2.208,2.208,0,0,1-.083-.58,1.439,1.439,0,0,1,.249-.825,1.157,1.157,0,0,1,1.078-.672h1.688a.877.877,0,0,0,.552-.152.849.849,0,0,0,.166-.581V407.7a.244.244,0,0,0-.276-.275H928.183q-.249,0-.249.275v8.825a2.181,2.181,0,0,1-.609,1.557,1.816,1.816,0,0,1-2.82,0,2.179,2.179,0,0,1-.609-1.557V394.236a2.783,2.783,0,0,1,.691-1.832,2.164,2.164,0,0,1,1.659-.763Zm-17.172,4.4c-.166,0-.249.092-.249.275v6.413q0,.305.249.306H933.3c.183,0,.276-.1.276-.306v-6.413a.244.244,0,0,0-.276-.275Zm9.4,6.688q0,.305.277.306h5.5q.276,0,.276-.306v-6.413a.244.244,0,0,0-.276-.275h-5.5a.244.244,0,0,0-.277.275Z" transform="translate(-923.897 -391.64)" fill="none" stroke="#034baf" stroke-miterlimit="10" stroke-width="7"/>
      </g>
      <g id="Group_2630" data-name="Group 2630" transform="translate(0 0)">
        <path id="Path_9532" data-name="Path 9532" d="M945.355,391.64a2.164,2.164,0,0,1,1.659.763,2.783,2.783,0,0,1,.691,1.832v19.543a7.656,7.656,0,0,1-.387,2.687,2.614,2.614,0,0,1-1.3,1.5,7.589,7.589,0,0,1-3.318.794h-.111a2.321,2.321,0,0,1-1.521-.611,3.778,3.778,0,0,1-1.078-1.619,2.208,2.208,0,0,1-.083-.58,1.439,1.439,0,0,1,.249-.825,1.157,1.157,0,0,1,1.078-.672h1.688a.877.877,0,0,0,.552-.152.849.849,0,0,0,.166-.581V407.7a.244.244,0,0,0-.276-.275H928.183q-.249,0-.249.275v8.825a2.181,2.181,0,0,1-.609,1.557,1.816,1.816,0,0,1-2.82,0,2.179,2.179,0,0,1-.609-1.557V394.236a2.783,2.783,0,0,1,.691-1.832,2.164,2.164,0,0,1,1.659-.763Zm-17.172,4.4c-.166,0-.249.092-.249.275v6.413q0,.305.249.306H933.3c.183,0,.276-.1.276-.306v-6.413a.244.244,0,0,0-.276-.275Zm9.4,6.688q0,.305.277.306h5.5q.276,0,.276-.306v-6.413a.244.244,0,0,0-.276-.275h-5.5a.244.244,0,0,0-.277.275Z" transform="translate(-923.897 -391.64)" fill="#f8e520"/>
      </g>
    </g>
    <g id="Group_3041" data-name="Group 3041" transform="translate(573.864 2418.114)">
      <g id="Group_2633" data-name="Group 2633" transform="translate(0 0)">
        <path id="Path_9533" data-name="Path 9533" d="M487.865,472.822a1.539,1.539,0,0,1,.458-.071,1.678,1.678,0,0,1,.981.321,2,2,0,0,1,.817,1.286l.294,1.679a1.469,1.469,0,0,1,.065.429,1.962,1.962,0,0,1-.36,1.107,1.709,1.709,0,0,1-1.21.787q-.392.071-1.1.2t-.834.161q-.49.072-2.714.464t-3.728.643c-.153.024-.218.131-.2.322q.785,4.431,1.046,5.931.163.643.392,1.68a1.981,1.981,0,0,1,.065.5,2.016,2.016,0,0,1-.294,1.036,1.7,1.7,0,0,1-1.177.857l-2.028.394a1.563,1.563,0,0,1-1.406-.394,1.952,1.952,0,0,1-.719-1.357,16.669,16.669,0,0,0-.229-1.751q-.066-.571-.981-5.967a.227.227,0,0,0-.294-.214q-5.231.965-7.193,1.393-1.014.214-1.668.322a2.175,2.175,0,0,1-.392.036,1.871,1.871,0,0,1-1.046-.322,2.127,2.127,0,0,1-.817-1.321l-.36-1.751a2.175,2.175,0,0,1-.033-.394,1.925,1.925,0,0,1,.327-1.072,1.616,1.616,0,0,1,1.242-.75l1.832-.286q.49-.071,2.992-.5t4.234-.715c.152-.023.218-.13.2-.321l-.785-4.466c-.044-.191-.142-.274-.294-.251q-4.186.751-5.853,1.072-.72.143-1.407.322a1.515,1.515,0,0,1-.458.071,1.675,1.675,0,0,1-.981-.322,1.988,1.988,0,0,1-.817-1.286l-.327-1.894a2.6,2.6,0,0,1-.033-.394,1.853,1.853,0,0,1,.36-1.108,1.646,1.646,0,0,1,1.242-.715q.752-.071,1.34-.178,2.387-.321,5.984-.929.261-.036.2-.322l-.49-2.752c-.065-.309-.131-.607-.2-.893a2.382,2.382,0,0,1-.065-.536,1.836,1.836,0,0,1,.294-1,1.5,1.5,0,0,1,1.144-.822l1.929-.357h.295a1.818,1.818,0,0,1,1.112.393,2.086,2.086,0,0,1,.719,1.394c.043.357.087.655.131.893q.032.179.458,2.822c.043.167.142.239.294.214q3.238-.57,5.69-1.072.786-.142,1.668-.357a2.743,2.743,0,0,1,.425-.036,1.827,1.827,0,0,1,1.014.322,1.877,1.877,0,0,1,.785,1.286l.262,1.643a1.964,1.964,0,0,1,.033.357,1.911,1.911,0,0,1-.36,1.144,1.844,1.844,0,0,1-1.242.822q-1.308.179-1.537.214l-5.821,1.036c-.175.023-.24.119-.2.286l.752,4.5a.244.244,0,0,0,.295.215q4.577-.859,6.474-1.251Q486.95,473.072,487.865,472.822Z" transform="translate(-463.079 -457.494)" fill="none" stroke="#fff" stroke-miterlimit="10" stroke-width="20"/>
        <path id="Path_9534" data-name="Path 9534" d="M534.826,484.1a2.214,2.214,0,0,1-1.373.893,1.855,1.855,0,0,1-.491.071,2.279,2.279,0,0,1-1.112-.286l-.981-.536a1.507,1.507,0,0,1-.752-1.108,1.257,1.257,0,0,1-.033-.286,1.612,1.612,0,0,1,.392-1.072,29.324,29.324,0,0,0,3.041-4.288.107.107,0,0,0-.017-.125.151.151,0,0,0-.114-.053q-1.472.286-5.919,1.322a.231.231,0,0,0-.164.321q2.649,10.47,3.041,11.934.13.5.36,1.286a1.855,1.855,0,0,1,.1.608,2.1,2.1,0,0,1-.229.929,1.826,1.826,0,0,1-1.144.964l-1.734.464a2.738,2.738,0,0,1-.425.036,1.67,1.67,0,0,1-.981-.322,1.991,1.991,0,0,1-.817-1.286,10.977,10.977,0,0,0-.327-1.465q-.294-1.107-1.341-5.52t-1.537-6.449q-.066-.285-.294-.214-2.42.571-3.826.929a2.664,2.664,0,0,1-.425.036,1.869,1.869,0,0,1-1.046-.322,2.1,2.1,0,0,1-.883-1.322l-.262-1.179a1.794,1.794,0,0,1,.229-1.465,1.708,1.708,0,0,1,1.21-.787l1.308-.214q.85-.142,2.518-.5.228-.035.164-.286-.392-1.716-.687-2.751a8.287,8.287,0,0,0-.262-.893,1.791,1.791,0,0,1-.131-.679,1.974,1.974,0,0,1,.2-.822,1.509,1.509,0,0,1,1.014-.893l1.667-.428a1.534,1.534,0,0,1,.458-.071,1.569,1.569,0,0,1,.981.357,1.994,1.994,0,0,1,.818,1.286q.032.143.065.3c.021.107.049.227.081.357a1.385,1.385,0,0,1,.049.268l.752,2.93c.043.191.141.263.294.215q8.142-1.715,9.287-2h.065a5.415,5.415,0,0,1,1.21-.142,3.454,3.454,0,0,1,2.191.715l.131.071a2.409,2.409,0,0,1,.883,1.429,2.582,2.582,0,0,1,.065.572,2.5,2.5,0,0,1-.261,1.108A66.741,66.741,0,0,1,534.826,484.1Z" transform="translate(-480.512 -460.773)" fill="none" stroke="#fff" stroke-miterlimit="10" stroke-width="20"/>
        <path id="Path_9535" data-name="Path 9535" d="M567.039,476.1a2.019,2.019,0,0,1-.163-.785,2.369,2.369,0,0,1,.131-.751,1.752,1.752,0,0,1,1.014-1.072l1.242-.464a2.07,2.07,0,0,1,2.648,1.179q.818,2.11,1.668,4.538a2.179,2.179,0,0,1,.131.751,2.045,2.045,0,0,1-.2.857,1.98,1.98,0,0,1-1.079,1.108l-1.341.536a1.621,1.621,0,0,1-.654.143,1.813,1.813,0,0,1-.817-.214,1.915,1.915,0,0,1-.948-1.179Q567.792,478.1,567.039,476.1Zm18.345-2.679a1.781,1.781,0,0,1,.752-1.251,1.37,1.37,0,0,1,.817-.286,1.648,1.648,0,0,1,.49.071l2.06.715a1.978,1.978,0,0,1,1.112,1.036,2.455,2.455,0,0,1,.2.965,3.19,3.19,0,0,1-.065.643q-.13.428-.327,1.214a30.339,30.339,0,0,1-4.512,10.362,26.441,26.441,0,0,1-9.581,8.5,2.221,2.221,0,0,1-1.079.286,2.084,2.084,0,0,1-.556-.071,2.636,2.636,0,0,1-1.471-.893L571.683,493a1.244,1.244,0,0,1-.36-.857,1.024,1.024,0,0,1,.065-.357,1.258,1.258,0,0,1,.785-.929,25.61,25.61,0,0,0,5.167-2.894,17.785,17.785,0,0,0,4.185-4.109,18.336,18.336,0,0,0,2.419-4.68A28.747,28.747,0,0,0,585.385,473.419Zm-10.6.571a2.364,2.364,0,0,1-.131-.75,2.114,2.114,0,0,1,.164-.822,1.863,1.863,0,0,1,1.046-1.036l1.145-.392a1.857,1.857,0,0,1,.687-.143,1.877,1.877,0,0,1,.85.214,2.131,2.131,0,0,1,1.046,1.215q.719,2,1.439,4.145a2.078,2.078,0,0,1,.131.714,2.12,2.12,0,0,1-.2.893,1.966,1.966,0,0,1-1.112,1.072l-1.21.465a2.014,2.014,0,0,1-.621.107,1.872,1.872,0,0,1-.85-.214,2.055,2.055,0,0,1-.949-1.215Q575.542,475.992,574.789,473.99Z" transform="translate(-497.619 -461.628)" fill="none" stroke="#fff" stroke-miterlimit="10" stroke-width="20"/>
        <path id="Path_9536" data-name="Path 9536" d="M614.593,473.785a2.287,2.287,0,0,1-.915-1.786,2.018,2.018,0,0,1,.294-1.036l.817-1.358a2.216,2.216,0,0,1,1.243-1,1.985,1.985,0,0,1,.523-.071,1.678,1.678,0,0,1,.981.322q2.19,1.393,4.545,3.073a1.978,1.978,0,0,1,.85,1.322,3.68,3.68,0,0,1,.033.465,2.162,2.162,0,0,1-.327,1.143l-.85,1.465a1.947,1.947,0,0,1-1.242.893,2.168,2.168,0,0,1-.392.036,1.743,1.743,0,0,1-1.047-.358Q616.621,475.072,614.593,473.785Zm4.545,16.9a2.465,2.465,0,0,1-.588.072,2.507,2.507,0,0,1-1.014-.215,2.91,2.91,0,0,1-1.21-1.25l-1.145-2.179a1.473,1.473,0,0,1-.2-.715,1.694,1.694,0,0,1,.131-.643,1.329,1.329,0,0,1,1.014-.857,32.719,32.719,0,0,0,9.581-3.645,36.968,36.968,0,0,0,6.965-5.431,33.308,33.308,0,0,0,5.265-6.681,1.061,1.061,0,0,1,.981-.573.988.988,0,0,1,.948.608l1.242,2.394a3.491,3.491,0,0,1,.393,1.643v.179a3.533,3.533,0,0,1-.589,1.75,43.009,43.009,0,0,1-12.426,11.505A37.4,37.4,0,0,1,619.139,490.685Zm.654-25.331a1.983,1.983,0,0,1-.85-1.25,3.826,3.826,0,0,1-.033-.5,2.017,2.017,0,0,1,.294-1.036l.818-1.393a2.062,2.062,0,0,1,1.242-.965,1.872,1.872,0,0,1,.491-.071,1.822,1.822,0,0,1,1.014.322q2.191,1.393,4.545,3.037a2.152,2.152,0,0,1,.817,1.358,2.8,2.8,0,0,1,.033.428,2.156,2.156,0,0,1-.327,1.144l-.85,1.393a1.794,1.794,0,0,1-1.242.893,1.13,1.13,0,0,1-.392.071,1.743,1.743,0,0,1-1.046-.357Q621.853,466.711,619.793,465.353Z" transform="translate(-513.192 -458.065)" fill="none" stroke="#fff" stroke-miterlimit="10" stroke-width="20"/>
        <path id="Path_9537" data-name="Path 9537" d="M685.409,488.94q-.033.25.229.25h1.242q.72,0,1.734-.036h.1a1.68,1.68,0,0,1,1.242.536,1.91,1.91,0,0,1,.589,1.429v1.5a2.027,2.027,0,0,1-.589,1.465,1.667,1.667,0,0,1-1.275.572h-.065q-1.079-.037-1.668-.036H667.98a1.664,1.664,0,0,1-1.275-.572,1.91,1.91,0,0,1-.588-1.429v-1.536a1.91,1.91,0,0,1,.588-1.429,1.735,1.735,0,0,1,1.242-.5h.1q.914.036,1.667.036h9.875a.247.247,0,0,0,.261-.25q.948-5.9,1.144-8.717c.022-.191-.055-.286-.229-.286h-7.914q-.687,0-1.8.071h-.1a1.627,1.627,0,0,1-1.242-.572,1.907,1.907,0,0,1-.589-1.429V476.4a1.866,1.866,0,0,1,.589-1.393,1.641,1.641,0,0,1,1.21-.536.272.272,0,0,1,.131.036q1.079.036,1.766.035h7.717q.424,0,1.046-.035a7.546,7.546,0,0,1,1.014-.071,5.527,5.527,0,0,1,2.616.572l.425.25a2.459,2.459,0,0,1,1.08,1.215,3.234,3.234,0,0,1,.262,1.286,3.538,3.538,0,0,1-.033.464Q686.651,480.294,685.409,488.94Z" transform="translate(-530.642 -462.822)" fill="none" stroke="#fff" stroke-miterlimit="10" stroke-width="20"/>
        <path id="Path_9538" data-name="Path 9538" d="M716.156,476.217a56.014,56.014,0,0,0,2.911-11.97,1.951,1.951,0,0,1,.719-1.357,1.608,1.608,0,0,1,1.014-.358,2.015,2.015,0,0,1,.36.036l2.159.5a1.826,1.826,0,0,1,1.177.893,2.209,2.209,0,0,1,.294,1.072,1.982,1.982,0,0,1-.065.5q-.327,1.465-.425,2.179-.327,2.037-1.144,5.163t-1.6,5.591a51.519,51.519,0,0,1-3.859,8.9,2.349,2.349,0,0,1-1.242,1.072,2.41,2.41,0,0,1-.687.107,2.151,2.151,0,0,1-.916-.214l-2.158-1a1.562,1.562,0,0,1-.883-1.072,1.948,1.948,0,0,1-.065-.5,1.778,1.778,0,0,1,.294-.965A45.126,45.126,0,0,0,716.156,476.217Zm16.546-.393a103.942,103.942,0,0,0-3.989-10.4,2.289,2.289,0,0,1-.163-.821,2.069,2.069,0,0,1,.131-.715,1.629,1.629,0,0,1,1.014-1l1.734-.608a1.943,1.943,0,0,1,.719-.143,1.87,1.87,0,0,1,.85.215,2.24,2.24,0,0,1,1.144,1.143q2.288,5.145,4.12,10.362,1.6,4.537,3.3,10.861a3.177,3.177,0,0,1,.065.643,2.39,2.39,0,0,1-.228,1,2.085,2.085,0,0,1-1.145,1.072l-2.387.821a1.7,1.7,0,0,1-.589.107,1.661,1.661,0,0,1-.849-.25,1.976,1.976,0,0,1-.85-1.25Q734.141,480.255,732.7,475.825Zm1.635-14.578a1.814,1.814,0,0,1-.2-.821,1.98,1.98,0,0,1,.065-.5,1.458,1.458,0,0,1,.817-.965,1.686,1.686,0,0,1,.753-.178,1.79,1.79,0,0,1,.621.107,1.864,1.864,0,0,1,1.079.964q.425.787.915,1.751a1.816,1.816,0,0,1,.2.821,1.747,1.747,0,0,1-.1.572,1.553,1.553,0,0,1-.883,1,1.61,1.61,0,0,1-.719.178,1.548,1.548,0,0,1-.621-.143,1.865,1.865,0,0,1-1.047-.964Q734.73,462,734.338,461.247Zm4.153-1.786a1.608,1.608,0,0,1-.229-.822,1.821,1.821,0,0,1,.065-.464,1.357,1.357,0,0,1,.818-.965,1.675,1.675,0,0,1,.751-.178,1.784,1.784,0,0,1,.621.107,2.015,2.015,0,0,1,1.112.929q.458.857.916,1.786a1.69,1.69,0,0,1,.1,1.358,1.566,1.566,0,0,1-.85,1,1.6,1.6,0,0,1-.719.179,1.4,1.4,0,0,1-.622-.143,1.746,1.746,0,0,1-1.013-.965Q738.948,460.318,738.49,459.46Z" transform="translate(-545.824 -457.031)" fill="none" stroke="#fff" stroke-miterlimit="10" stroke-width="20"/>
        <path id="Path_9539" data-name="Path 9539" d="M767.774,476.1a2.021,2.021,0,0,1-.164-.785,2.39,2.39,0,0,1,.131-.751,1.754,1.754,0,0,1,1.014-1.072l1.242-.464a1.931,1.931,0,0,1,1.537.036,1.963,1.963,0,0,1,1.112,1.143q.817,2.11,1.667,4.538a2.181,2.181,0,0,1,.131.751,2.045,2.045,0,0,1-.2.857,1.98,1.98,0,0,1-1.079,1.108l-1.341.536a1.618,1.618,0,0,1-.654.143,1.815,1.815,0,0,1-.817-.214,1.915,1.915,0,0,1-.948-1.179Q768.526,478.1,767.774,476.1Zm18.344-2.679a1.786,1.786,0,0,1,.752-1.251,1.371,1.371,0,0,1,.817-.286,1.645,1.645,0,0,1,.49.071l2.061.715a1.98,1.98,0,0,1,1.112,1.036,2.456,2.456,0,0,1,.2.965,3.24,3.24,0,0,1-.065.643q-.131.428-.327,1.214a30.324,30.324,0,0,1-4.513,10.362,26.438,26.438,0,0,1-9.581,8.5,2.221,2.221,0,0,1-1.079.286,2.075,2.075,0,0,1-.555-.071,2.638,2.638,0,0,1-1.472-.893L772.418,493a1.245,1.245,0,0,1-.36-.857,1.023,1.023,0,0,1,.065-.357,1.258,1.258,0,0,1,.785-.929,25.623,25.623,0,0,0,5.167-2.894,17.775,17.775,0,0,0,4.186-4.109,18.319,18.319,0,0,0,2.419-4.68A28.71,28.71,0,0,0,786.119,473.419Zm-10.6.571a2.385,2.385,0,0,1-.131-.75,2.115,2.115,0,0,1,.164-.822,1.861,1.861,0,0,1,1.046-1.036l1.144-.392a1.856,1.856,0,0,1,.687-.143,1.877,1.877,0,0,1,.85.214,2.129,2.129,0,0,1,1.046,1.215q.72,2,1.439,4.145a2.076,2.076,0,0,1,.131.714,2.122,2.122,0,0,1-.2.893,1.964,1.964,0,0,1-1.112,1.072l-1.21.465a2.014,2.014,0,0,1-.621.107,1.872,1.872,0,0,1-.85-.214,2.053,2.053,0,0,1-.948-1.215Q776.275,475.992,775.523,473.99Z" transform="translate(-564.415 -461.628)" fill="none" stroke="#fff" stroke-miterlimit="10" stroke-width="20"/>
        <path id="Path_9540" data-name="Path 9540" d="M835.815,463.051q.424-.036.817-.036a4.841,4.841,0,0,1,2.714.75l.851.572a2.282,2.282,0,0,1,.883,1.322,3.234,3.234,0,0,1,.065.643,2.54,2.54,0,0,1-.2,1,11.019,11.019,0,0,0-.425,1.144,38.115,38.115,0,0,1-5.788,12,30.9,30.9,0,0,1-5.1,5.4,34.543,34.543,0,0,1-6.736,4.287,2.539,2.539,0,0,1-1.177.286,3.817,3.817,0,0,1-.49-.035,2.786,2.786,0,0,1-1.537-.787l-1.929-1.894a1.118,1.118,0,0,1-.392-.857,1.27,1.27,0,0,1,.033-.286,1.179,1.179,0,0,1,.752-.929,25.339,25.339,0,0,0,11.706-8.325,24.772,24.772,0,0,0,4.383-8.9c.043-.167-.023-.25-.2-.25H826.2a.479.479,0,0,0-.392.214,44.388,44.388,0,0,1-6.736,7.288,2.434,2.434,0,0,1-1.537.536,2.468,2.468,0,0,1-1.569-.572l-1.439-1.179a1.369,1.369,0,0,1-.556-1.143,1.483,1.483,0,0,1,.621-1.251,30.81,30.81,0,0,0,3.123-2.7,26.577,26.577,0,0,0,2.5-2.84q1.079-1.429,1.734-2.429t1.439-2.323a15.3,15.3,0,0,0,1.112-2.394,2.169,2.169,0,0,1,1.014-1.179,1.676,1.676,0,0,1,1.471-.143l2.256.822a1.446,1.446,0,0,1,.916,1,1.655,1.655,0,0,1,.1.536,1.675,1.675,0,0,1-.228.857q-.393.716-.916,1.643a.173.173,0,0,0,.017.161c.033.06.071.089.114.089h5.167A10.116,10.116,0,0,0,835.815,463.051Z" transform="translate(-579.842 -457.334)" fill="none" stroke="#fff" stroke-miterlimit="10" stroke-width="20"/>
        <path id="Path_9541" data-name="Path 9541" d="M885.937,488.844a4.118,4.118,0,0,1-5.657,0,3.892,3.892,0,0,1-1.128-2.876,3.966,3.966,0,0,1,1.128-2.876,4.024,4.024,0,0,1,5.657,0,3.966,3.966,0,0,1,1.128,2.876A3.892,3.892,0,0,1,885.937,488.844Zm-2.959-9.022a2.03,2.03,0,0,1-1.471-.608,2.394,2.394,0,0,1-.719-1.5l-1.112-9.468-.131-3.966a2.067,2.067,0,0,1,.507-1.483,1.685,1.685,0,0,1,1.324-.625h3.5a1.684,1.684,0,0,1,1.325.625,2.2,2.2,0,0,1,.54,1.483l-.163,3.966-1.112,9.468a2.4,2.4,0,0,1-.72,1.5,2,2,0,0,1-1.438.608Z" transform="translate(-601.532 -458.742)" fill="none" stroke="#fff" stroke-miterlimit="10" stroke-width="20"/>
      </g>
      <g id="Group_2634" data-name="Group 2634" transform="translate(0 0)">
        <path id="Path_9542" data-name="Path 9542" d="M487.865,472.822a1.539,1.539,0,0,1,.458-.071,1.678,1.678,0,0,1,.981.321,2,2,0,0,1,.817,1.286l.294,1.679a1.469,1.469,0,0,1,.065.429,1.962,1.962,0,0,1-.36,1.107,1.709,1.709,0,0,1-1.21.787q-.392.071-1.1.2t-.834.161q-.49.072-2.714.464t-3.728.643c-.153.024-.218.131-.2.322q.785,4.431,1.046,5.931.163.643.392,1.68a1.981,1.981,0,0,1,.065.5,2.016,2.016,0,0,1-.294,1.036,1.7,1.7,0,0,1-1.177.857l-2.028.394a1.563,1.563,0,0,1-1.406-.394,1.952,1.952,0,0,1-.719-1.357,16.669,16.669,0,0,0-.229-1.751q-.066-.571-.981-5.967a.227.227,0,0,0-.294-.214q-5.231.965-7.193,1.393-1.014.214-1.668.322a2.175,2.175,0,0,1-.392.036,1.871,1.871,0,0,1-1.046-.322,2.127,2.127,0,0,1-.817-1.321l-.36-1.751a2.175,2.175,0,0,1-.033-.394,1.925,1.925,0,0,1,.327-1.072,1.616,1.616,0,0,1,1.242-.75l1.832-.286q.49-.071,2.992-.5t4.234-.715c.152-.023.218-.13.2-.321l-.785-4.466c-.044-.191-.142-.274-.294-.251q-4.186.751-5.853,1.072-.72.143-1.407.322a1.515,1.515,0,0,1-.458.071,1.675,1.675,0,0,1-.981-.322,1.988,1.988,0,0,1-.817-1.286l-.327-1.894a2.6,2.6,0,0,1-.033-.394,1.853,1.853,0,0,1,.36-1.108,1.646,1.646,0,0,1,1.242-.715q.752-.071,1.34-.178,2.387-.321,5.984-.929.261-.036.2-.322l-.49-2.752c-.065-.309-.131-.607-.2-.893a2.382,2.382,0,0,1-.065-.536,1.836,1.836,0,0,1,.294-1,1.5,1.5,0,0,1,1.144-.822l1.929-.357h.295a1.818,1.818,0,0,1,1.112.393,2.086,2.086,0,0,1,.719,1.394c.043.357.087.655.131.893q.032.179.458,2.822c.043.167.142.239.294.214q3.238-.57,5.69-1.072.786-.142,1.668-.357a2.743,2.743,0,0,1,.425-.036,1.827,1.827,0,0,1,1.014.322,1.877,1.877,0,0,1,.785,1.286l.262,1.643a1.964,1.964,0,0,1,.033.357,1.911,1.911,0,0,1-.36,1.144,1.844,1.844,0,0,1-1.242.822q-1.308.179-1.537.214l-5.821,1.036c-.175.023-.24.119-.2.286l.752,4.5a.244.244,0,0,0,.295.215q4.577-.859,6.474-1.251Q486.95,473.072,487.865,472.822Z" transform="translate(-463.079 -457.494)" fill="none" stroke="#034baf" stroke-miterlimit="10" stroke-width="11"/>
        <path id="Path_9543" data-name="Path 9543" d="M534.826,484.1a2.214,2.214,0,0,1-1.373.893,1.855,1.855,0,0,1-.491.071,2.279,2.279,0,0,1-1.112-.286l-.981-.536a1.507,1.507,0,0,1-.752-1.108,1.257,1.257,0,0,1-.033-.286,1.612,1.612,0,0,1,.392-1.072,29.324,29.324,0,0,0,3.041-4.288.107.107,0,0,0-.017-.125.151.151,0,0,0-.114-.053q-1.472.286-5.919,1.322a.231.231,0,0,0-.164.321q2.649,10.47,3.041,11.934.13.5.36,1.286a1.855,1.855,0,0,1,.1.608,2.1,2.1,0,0,1-.229.929,1.826,1.826,0,0,1-1.144.964l-1.734.464a2.738,2.738,0,0,1-.425.036,1.67,1.67,0,0,1-.981-.322,1.991,1.991,0,0,1-.817-1.286,10.977,10.977,0,0,0-.327-1.465q-.294-1.107-1.341-5.52t-1.537-6.449q-.066-.285-.294-.214-2.42.571-3.826.929a2.664,2.664,0,0,1-.425.036,1.869,1.869,0,0,1-1.046-.322,2.1,2.1,0,0,1-.883-1.322l-.262-1.179a1.794,1.794,0,0,1,.229-1.465,1.708,1.708,0,0,1,1.21-.787l1.308-.214q.85-.142,2.518-.5.228-.035.164-.286-.392-1.716-.687-2.751a8.287,8.287,0,0,0-.262-.893,1.791,1.791,0,0,1-.131-.679,1.974,1.974,0,0,1,.2-.822,1.509,1.509,0,0,1,1.014-.893l1.667-.428a1.534,1.534,0,0,1,.458-.071,1.569,1.569,0,0,1,.981.357,1.994,1.994,0,0,1,.818,1.286q.032.143.065.3c.021.107.049.227.081.357a1.385,1.385,0,0,1,.049.268l.752,2.93c.043.191.141.263.294.215q8.142-1.715,9.287-2h.065a5.415,5.415,0,0,1,1.21-.142,3.454,3.454,0,0,1,2.191.715l.131.071a2.409,2.409,0,0,1,.883,1.429,2.582,2.582,0,0,1,.065.572,2.5,2.5,0,0,1-.261,1.108A66.741,66.741,0,0,1,534.826,484.1Z" transform="translate(-480.512 -460.773)" fill="none" stroke="#034baf" stroke-miterlimit="10" stroke-width="11"/>
        <path id="Path_9544" data-name="Path 9544" d="M567.039,476.1a2.019,2.019,0,0,1-.163-.785,2.369,2.369,0,0,1,.131-.751,1.752,1.752,0,0,1,1.014-1.072l1.242-.464a2.07,2.07,0,0,1,2.648,1.179q.818,2.11,1.668,4.538a2.179,2.179,0,0,1,.131.751,2.045,2.045,0,0,1-.2.857,1.98,1.98,0,0,1-1.079,1.108l-1.341.536a1.621,1.621,0,0,1-.654.143,1.813,1.813,0,0,1-.817-.214,1.915,1.915,0,0,1-.948-1.179Q567.792,478.1,567.039,476.1Zm18.345-2.679a1.781,1.781,0,0,1,.752-1.251,1.37,1.37,0,0,1,.817-.286,1.648,1.648,0,0,1,.49.071l2.06.715a1.978,1.978,0,0,1,1.112,1.036,2.455,2.455,0,0,1,.2.965,3.19,3.19,0,0,1-.065.643q-.13.428-.327,1.214a30.339,30.339,0,0,1-4.512,10.362,26.441,26.441,0,0,1-9.581,8.5,2.221,2.221,0,0,1-1.079.286,2.084,2.084,0,0,1-.556-.071,2.636,2.636,0,0,1-1.471-.893L571.683,493a1.244,1.244,0,0,1-.36-.857,1.024,1.024,0,0,1,.065-.357,1.258,1.258,0,0,1,.785-.929,25.61,25.61,0,0,0,5.167-2.894,17.785,17.785,0,0,0,4.185-4.109,18.336,18.336,0,0,0,2.419-4.68A28.747,28.747,0,0,0,585.385,473.419Zm-10.6.571a2.364,2.364,0,0,1-.131-.75,2.114,2.114,0,0,1,.164-.822,1.863,1.863,0,0,1,1.046-1.036l1.145-.392a1.857,1.857,0,0,1,.687-.143,1.877,1.877,0,0,1,.85.214,2.131,2.131,0,0,1,1.046,1.215q.719,2,1.439,4.145a2.078,2.078,0,0,1,.131.714,2.12,2.12,0,0,1-.2.893,1.966,1.966,0,0,1-1.112,1.072l-1.21.465a2.014,2.014,0,0,1-.621.107,1.872,1.872,0,0,1-.85-.214,2.055,2.055,0,0,1-.949-1.215Q575.542,475.992,574.789,473.99Z" transform="translate(-497.619 -461.628)" fill="none" stroke="#034baf" stroke-miterlimit="10" stroke-width="11"/>
        <path id="Path_9545" data-name="Path 9545" d="M614.593,473.785a2.287,2.287,0,0,1-.915-1.786,2.018,2.018,0,0,1,.294-1.036l.817-1.358a2.216,2.216,0,0,1,1.243-1,1.985,1.985,0,0,1,.523-.071,1.678,1.678,0,0,1,.981.322q2.19,1.393,4.545,3.073a1.978,1.978,0,0,1,.85,1.322,3.68,3.68,0,0,1,.033.465,2.162,2.162,0,0,1-.327,1.143l-.85,1.465a1.947,1.947,0,0,1-1.242.893,2.168,2.168,0,0,1-.392.036,1.743,1.743,0,0,1-1.047-.358Q616.621,475.072,614.593,473.785Zm4.545,16.9a2.465,2.465,0,0,1-.588.072,2.507,2.507,0,0,1-1.014-.215,2.91,2.91,0,0,1-1.21-1.25l-1.145-2.179a1.473,1.473,0,0,1-.2-.715,1.694,1.694,0,0,1,.131-.643,1.329,1.329,0,0,1,1.014-.857,32.719,32.719,0,0,0,9.581-3.645,36.968,36.968,0,0,0,6.965-5.431,33.308,33.308,0,0,0,5.265-6.681,1.061,1.061,0,0,1,.981-.573.988.988,0,0,1,.948.608l1.242,2.394a3.491,3.491,0,0,1,.393,1.643v.179a3.533,3.533,0,0,1-.589,1.75,43.009,43.009,0,0,1-12.426,11.505A37.4,37.4,0,0,1,619.139,490.685Zm.654-25.331a1.983,1.983,0,0,1-.85-1.25,3.826,3.826,0,0,1-.033-.5,2.017,2.017,0,0,1,.294-1.036l.818-1.393a2.062,2.062,0,0,1,1.242-.965,1.872,1.872,0,0,1,.491-.071,1.822,1.822,0,0,1,1.014.322q2.191,1.393,4.545,3.037a2.152,2.152,0,0,1,.817,1.358,2.8,2.8,0,0,1,.033.428,2.156,2.156,0,0,1-.327,1.144l-.85,1.393a1.794,1.794,0,0,1-1.242.893,1.13,1.13,0,0,1-.392.071,1.743,1.743,0,0,1-1.046-.357Q621.853,466.711,619.793,465.353Z" transform="translate(-513.192 -458.065)" fill="none" stroke="#034baf" stroke-miterlimit="10" stroke-width="11"/>
        <path id="Path_9546" data-name="Path 9546" d="M685.409,488.94q-.033.25.229.25h1.242q.72,0,1.734-.036h.1a1.68,1.68,0,0,1,1.242.536,1.91,1.91,0,0,1,.589,1.429v1.5a2.027,2.027,0,0,1-.589,1.465,1.667,1.667,0,0,1-1.275.572h-.065q-1.079-.037-1.668-.036H667.98a1.664,1.664,0,0,1-1.275-.572,1.91,1.91,0,0,1-.588-1.429v-1.536a1.91,1.91,0,0,1,.588-1.429,1.735,1.735,0,0,1,1.242-.5h.1q.914.036,1.667.036h9.875a.247.247,0,0,0,.261-.25q.948-5.9,1.144-8.717c.022-.191-.055-.286-.229-.286h-7.914q-.687,0-1.8.071h-.1a1.627,1.627,0,0,1-1.242-.572,1.907,1.907,0,0,1-.589-1.429V476.4a1.866,1.866,0,0,1,.589-1.393,1.641,1.641,0,0,1,1.21-.536.272.272,0,0,1,.131.036q1.079.036,1.766.035h7.717q.424,0,1.046-.035a7.546,7.546,0,0,1,1.014-.071,5.527,5.527,0,0,1,2.616.572l.425.25a2.459,2.459,0,0,1,1.08,1.215,3.234,3.234,0,0,1,.262,1.286,3.538,3.538,0,0,1-.033.464Q686.651,480.294,685.409,488.94Z" transform="translate(-530.642 -462.822)" fill="none" stroke="#034baf" stroke-miterlimit="10" stroke-width="11"/>
        <path id="Path_9547" data-name="Path 9547" d="M716.156,476.217a56.014,56.014,0,0,0,2.911-11.97,1.951,1.951,0,0,1,.719-1.357,1.608,1.608,0,0,1,1.014-.358,2.015,2.015,0,0,1,.36.036l2.159.5a1.826,1.826,0,0,1,1.177.893,2.209,2.209,0,0,1,.294,1.072,1.982,1.982,0,0,1-.065.5q-.327,1.465-.425,2.179-.327,2.037-1.144,5.163t-1.6,5.591a51.519,51.519,0,0,1-3.859,8.9,2.349,2.349,0,0,1-1.242,1.072,2.41,2.41,0,0,1-.687.107,2.151,2.151,0,0,1-.916-.214l-2.158-1a1.562,1.562,0,0,1-.883-1.072,1.948,1.948,0,0,1-.065-.5,1.778,1.778,0,0,1,.294-.965A45.126,45.126,0,0,0,716.156,476.217Zm16.546-.393a103.942,103.942,0,0,0-3.989-10.4,2.289,2.289,0,0,1-.163-.821,2.069,2.069,0,0,1,.131-.715,1.629,1.629,0,0,1,1.014-1l1.734-.608a1.943,1.943,0,0,1,.719-.143,1.87,1.87,0,0,1,.85.215,2.24,2.24,0,0,1,1.144,1.143q2.288,5.145,4.12,10.362,1.6,4.537,3.3,10.861a3.177,3.177,0,0,1,.065.643,2.39,2.39,0,0,1-.228,1,2.085,2.085,0,0,1-1.145,1.072l-2.387.821a1.7,1.7,0,0,1-.589.107,1.661,1.661,0,0,1-.849-.25,1.976,1.976,0,0,1-.85-1.25Q734.141,480.255,732.7,475.825Zm1.635-14.578a1.814,1.814,0,0,1-.2-.821,1.98,1.98,0,0,1,.065-.5,1.458,1.458,0,0,1,.817-.965,1.686,1.686,0,0,1,.753-.178,1.79,1.79,0,0,1,.621.107,1.864,1.864,0,0,1,1.079.964q.425.787.915,1.751a1.816,1.816,0,0,1,.2.821,1.747,1.747,0,0,1-.1.572,1.553,1.553,0,0,1-.883,1,1.61,1.61,0,0,1-.719.178,1.548,1.548,0,0,1-.621-.143,1.865,1.865,0,0,1-1.047-.964Q734.73,462,734.338,461.247Zm4.153-1.786a1.608,1.608,0,0,1-.229-.822,1.821,1.821,0,0,1,.065-.464,1.357,1.357,0,0,1,.818-.965,1.675,1.675,0,0,1,.751-.178,1.784,1.784,0,0,1,.621.107,2.015,2.015,0,0,1,1.112.929q.458.857.916,1.786a1.69,1.69,0,0,1,.1,1.358,1.566,1.566,0,0,1-.85,1,1.6,1.6,0,0,1-.719.179,1.4,1.4,0,0,1-.622-.143,1.746,1.746,0,0,1-1.013-.965Q738.948,460.318,738.49,459.46Z" transform="translate(-545.824 -457.031)" fill="none" stroke="#034baf" stroke-miterlimit="10" stroke-width="11"/>
        <path id="Path_9548" data-name="Path 9548" d="M767.774,476.1a2.021,2.021,0,0,1-.164-.785,2.39,2.39,0,0,1,.131-.751,1.754,1.754,0,0,1,1.014-1.072l1.242-.464a1.931,1.931,0,0,1,1.537.036,1.963,1.963,0,0,1,1.112,1.143q.817,2.11,1.667,4.538a2.181,2.181,0,0,1,.131.751,2.045,2.045,0,0,1-.2.857,1.98,1.98,0,0,1-1.079,1.108l-1.341.536a1.618,1.618,0,0,1-.654.143,1.815,1.815,0,0,1-.817-.214,1.915,1.915,0,0,1-.948-1.179Q768.526,478.1,767.774,476.1Zm18.344-2.679a1.786,1.786,0,0,1,.752-1.251,1.371,1.371,0,0,1,.817-.286,1.645,1.645,0,0,1,.49.071l2.061.715a1.98,1.98,0,0,1,1.112,1.036,2.456,2.456,0,0,1,.2.965,3.24,3.24,0,0,1-.065.643q-.131.428-.327,1.214a30.324,30.324,0,0,1-4.513,10.362,26.438,26.438,0,0,1-9.581,8.5,2.221,2.221,0,0,1-1.079.286,2.075,2.075,0,0,1-.555-.071,2.638,2.638,0,0,1-1.472-.893L772.418,493a1.245,1.245,0,0,1-.36-.857,1.023,1.023,0,0,1,.065-.357,1.258,1.258,0,0,1,.785-.929,25.623,25.623,0,0,0,5.167-2.894,17.775,17.775,0,0,0,4.186-4.109,18.319,18.319,0,0,0,2.419-4.68A28.71,28.71,0,0,0,786.119,473.419Zm-10.6.571a2.385,2.385,0,0,1-.131-.75,2.115,2.115,0,0,1,.164-.822,1.861,1.861,0,0,1,1.046-1.036l1.144-.392a1.856,1.856,0,0,1,.687-.143,1.877,1.877,0,0,1,.85.214,2.129,2.129,0,0,1,1.046,1.215q.72,2,1.439,4.145a2.076,2.076,0,0,1,.131.714,2.122,2.122,0,0,1-.2.893,1.964,1.964,0,0,1-1.112,1.072l-1.21.465a2.014,2.014,0,0,1-.621.107,1.872,1.872,0,0,1-.85-.214,2.053,2.053,0,0,1-.948-1.215Q776.275,475.992,775.523,473.99Z" transform="translate(-564.415 -461.628)" fill="none" stroke="#034baf" stroke-miterlimit="10" stroke-width="11"/>
        <path id="Path_9549" data-name="Path 9549" d="M835.815,463.051q.424-.036.817-.036a4.841,4.841,0,0,1,2.714.75l.851.572a2.282,2.282,0,0,1,.883,1.322,3.234,3.234,0,0,1,.065.643,2.54,2.54,0,0,1-.2,1,11.019,11.019,0,0,0-.425,1.144,38.115,38.115,0,0,1-5.788,12,30.9,30.9,0,0,1-5.1,5.4,34.543,34.543,0,0,1-6.736,4.287,2.539,2.539,0,0,1-1.177.286,3.817,3.817,0,0,1-.49-.035,2.786,2.786,0,0,1-1.537-.787l-1.929-1.894a1.118,1.118,0,0,1-.392-.857,1.27,1.27,0,0,1,.033-.286,1.179,1.179,0,0,1,.752-.929,25.339,25.339,0,0,0,11.706-8.325,24.772,24.772,0,0,0,4.383-8.9c.043-.167-.023-.25-.2-.25H826.2a.479.479,0,0,0-.392.214,44.388,44.388,0,0,1-6.736,7.288,2.434,2.434,0,0,1-1.537.536,2.468,2.468,0,0,1-1.569-.572l-1.439-1.179a1.369,1.369,0,0,1-.556-1.143,1.483,1.483,0,0,1,.621-1.251,30.81,30.81,0,0,0,3.123-2.7,26.577,26.577,0,0,0,2.5-2.84q1.079-1.429,1.734-2.429t1.439-2.323a15.3,15.3,0,0,0,1.112-2.394,2.169,2.169,0,0,1,1.014-1.179,1.676,1.676,0,0,1,1.471-.143l2.256.822a1.446,1.446,0,0,1,.916,1,1.655,1.655,0,0,1,.1.536,1.675,1.675,0,0,1-.228.857q-.393.716-.916,1.643a.173.173,0,0,0,.017.161c.033.06.071.089.114.089h5.167A10.116,10.116,0,0,0,835.815,463.051Z" transform="translate(-579.842 -457.334)" fill="none" stroke="#034baf" stroke-miterlimit="10" stroke-width="11"/>
        <path id="Path_9550" data-name="Path 9550" d="M885.937,488.844a4.118,4.118,0,0,1-5.657,0,3.892,3.892,0,0,1-1.128-2.876,3.966,3.966,0,0,1,1.128-2.876,4.024,4.024,0,0,1,5.657,0,3.966,3.966,0,0,1,1.128,2.876A3.892,3.892,0,0,1,885.937,488.844Zm-2.959-9.022a2.03,2.03,0,0,1-1.471-.608,2.394,2.394,0,0,1-.719-1.5l-1.112-9.468-.131-3.966a2.067,2.067,0,0,1,.507-1.483,1.685,1.685,0,0,1,1.324-.625h3.5a1.684,1.684,0,0,1,1.325.625,2.2,2.2,0,0,1,.54,1.483l-.163,3.966-1.112,9.468a2.4,2.4,0,0,1-.72,1.5,2,2,0,0,1-1.438.608Z" transform="translate(-601.532 -458.742)" fill="none" stroke="#034baf" stroke-miterlimit="10" stroke-width="11"/>
      </g>
      <g id="Group_2635" data-name="Group 2635" transform="translate(0 0)">
        <path id="Path_9551" data-name="Path 9551" d="M487.865,472.822a1.539,1.539,0,0,1,.458-.071,1.678,1.678,0,0,1,.981.321,2,2,0,0,1,.817,1.286l.294,1.679a1.469,1.469,0,0,1,.065.429,1.962,1.962,0,0,1-.36,1.107,1.709,1.709,0,0,1-1.21.787q-.392.071-1.1.2t-.834.161q-.49.072-2.714.464t-3.728.643c-.153.024-.218.131-.2.322q.785,4.431,1.046,5.931.163.643.392,1.68a1.981,1.981,0,0,1,.065.5,2.016,2.016,0,0,1-.294,1.036,1.7,1.7,0,0,1-1.177.857l-2.028.394a1.563,1.563,0,0,1-1.406-.394,1.952,1.952,0,0,1-.719-1.357,16.669,16.669,0,0,0-.229-1.751q-.066-.571-.981-5.967a.227.227,0,0,0-.294-.214q-5.231.965-7.193,1.393-1.014.214-1.668.322a2.175,2.175,0,0,1-.392.036,1.871,1.871,0,0,1-1.046-.322,2.127,2.127,0,0,1-.817-1.321l-.36-1.751a2.175,2.175,0,0,1-.033-.394,1.925,1.925,0,0,1,.327-1.072,1.616,1.616,0,0,1,1.242-.75l1.832-.286q.49-.071,2.992-.5t4.234-.715c.152-.023.218-.13.2-.321l-.785-4.466c-.044-.191-.142-.274-.294-.251q-4.186.751-5.853,1.072-.72.143-1.407.322a1.515,1.515,0,0,1-.458.071,1.675,1.675,0,0,1-.981-.322,1.988,1.988,0,0,1-.817-1.286l-.327-1.894a2.6,2.6,0,0,1-.033-.394,1.853,1.853,0,0,1,.36-1.108,1.646,1.646,0,0,1,1.242-.715q.752-.071,1.34-.178,2.387-.321,5.984-.929.261-.036.2-.322l-.49-2.752c-.065-.309-.131-.607-.2-.893a2.382,2.382,0,0,1-.065-.536,1.836,1.836,0,0,1,.294-1,1.5,1.5,0,0,1,1.144-.822l1.929-.357h.295a1.818,1.818,0,0,1,1.112.393,2.086,2.086,0,0,1,.719,1.394c.043.357.087.655.131.893q.032.179.458,2.822c.043.167.142.239.294.214q3.238-.57,5.69-1.072.786-.142,1.668-.357a2.743,2.743,0,0,1,.425-.036,1.827,1.827,0,0,1,1.014.322,1.877,1.877,0,0,1,.785,1.286l.262,1.643a1.964,1.964,0,0,1,.033.357,1.911,1.911,0,0,1-.36,1.144,1.844,1.844,0,0,1-1.242.822q-1.308.179-1.537.214l-5.821,1.036c-.175.023-.24.119-.2.286l.752,4.5a.244.244,0,0,0,.295.215q4.577-.859,6.474-1.251Q486.95,473.072,487.865,472.822Z" transform="translate(-463.079 -457.494)" fill="#f8e520"/>
        <path id="Path_9552" data-name="Path 9552" d="M534.826,484.1a2.214,2.214,0,0,1-1.373.893,1.855,1.855,0,0,1-.491.071,2.279,2.279,0,0,1-1.112-.286l-.981-.536a1.507,1.507,0,0,1-.752-1.108,1.257,1.257,0,0,1-.033-.286,1.612,1.612,0,0,1,.392-1.072,29.324,29.324,0,0,0,3.041-4.288.107.107,0,0,0-.017-.125.151.151,0,0,0-.114-.053q-1.472.286-5.919,1.322a.231.231,0,0,0-.164.321q2.649,10.47,3.041,11.934.13.5.36,1.286a1.855,1.855,0,0,1,.1.608,2.1,2.1,0,0,1-.229.929,1.826,1.826,0,0,1-1.144.964l-1.734.464a2.738,2.738,0,0,1-.425.036,1.67,1.67,0,0,1-.981-.322,1.991,1.991,0,0,1-.817-1.286,10.977,10.977,0,0,0-.327-1.465q-.294-1.107-1.341-5.52t-1.537-6.449q-.066-.285-.294-.214-2.42.571-3.826.929a2.664,2.664,0,0,1-.425.036,1.869,1.869,0,0,1-1.046-.322,2.1,2.1,0,0,1-.883-1.322l-.262-1.179a1.794,1.794,0,0,1,.229-1.465,1.708,1.708,0,0,1,1.21-.787l1.308-.214q.85-.142,2.518-.5.228-.035.164-.286-.392-1.716-.687-2.751a8.287,8.287,0,0,0-.262-.893,1.791,1.791,0,0,1-.131-.679,1.974,1.974,0,0,1,.2-.822,1.509,1.509,0,0,1,1.014-.893l1.667-.428a1.534,1.534,0,0,1,.458-.071,1.569,1.569,0,0,1,.981.357,1.994,1.994,0,0,1,.818,1.286q.032.143.065.3c.021.107.049.227.081.357a1.385,1.385,0,0,1,.049.268l.752,2.93c.043.191.141.263.294.215q8.142-1.715,9.287-2h.065a5.415,5.415,0,0,1,1.21-.142,3.454,3.454,0,0,1,2.191.715l.131.071a2.409,2.409,0,0,1,.883,1.429,2.582,2.582,0,0,1,.065.572,2.5,2.5,0,0,1-.261,1.108A66.741,66.741,0,0,1,534.826,484.1Z" transform="translate(-480.512 -460.773)" fill="#f8e520"/>
        <path id="Path_9553" data-name="Path 9553" d="M567.039,476.1a2.019,2.019,0,0,1-.163-.785,2.369,2.369,0,0,1,.131-.751,1.752,1.752,0,0,1,1.014-1.072l1.242-.464a2.07,2.07,0,0,1,2.648,1.179q.818,2.11,1.668,4.538a2.179,2.179,0,0,1,.131.751,2.045,2.045,0,0,1-.2.857,1.98,1.98,0,0,1-1.079,1.108l-1.341.536a1.621,1.621,0,0,1-.654.143,1.813,1.813,0,0,1-.817-.214,1.915,1.915,0,0,1-.948-1.179Q567.792,478.1,567.039,476.1Zm18.345-2.679a1.781,1.781,0,0,1,.752-1.251,1.37,1.37,0,0,1,.817-.286,1.648,1.648,0,0,1,.49.071l2.06.715a1.978,1.978,0,0,1,1.112,1.036,2.455,2.455,0,0,1,.2.965,3.19,3.19,0,0,1-.065.643q-.13.428-.327,1.214a30.339,30.339,0,0,1-4.512,10.362,26.441,26.441,0,0,1-9.581,8.5,2.221,2.221,0,0,1-1.079.286,2.084,2.084,0,0,1-.556-.071,2.636,2.636,0,0,1-1.471-.893L571.683,493a1.244,1.244,0,0,1-.36-.857,1.024,1.024,0,0,1,.065-.357,1.258,1.258,0,0,1,.785-.929,25.61,25.61,0,0,0,5.167-2.894,17.785,17.785,0,0,0,4.185-4.109,18.336,18.336,0,0,0,2.419-4.68A28.747,28.747,0,0,0,585.385,473.419Zm-10.6.571a2.364,2.364,0,0,1-.131-.75,2.114,2.114,0,0,1,.164-.822,1.863,1.863,0,0,1,1.046-1.036l1.145-.392a1.857,1.857,0,0,1,.687-.143,1.877,1.877,0,0,1,.85.214,2.131,2.131,0,0,1,1.046,1.215q.719,2,1.439,4.145a2.078,2.078,0,0,1,.131.714,2.12,2.12,0,0,1-.2.893,1.966,1.966,0,0,1-1.112,1.072l-1.21.465a2.014,2.014,0,0,1-.621.107,1.872,1.872,0,0,1-.85-.214,2.055,2.055,0,0,1-.949-1.215Q575.542,475.992,574.789,473.99Z" transform="translate(-497.619 -461.628)" fill="#f8e520"/>
        <path id="Path_9554" data-name="Path 9554" d="M614.593,473.785a2.287,2.287,0,0,1-.915-1.786,2.018,2.018,0,0,1,.294-1.036l.817-1.358a2.216,2.216,0,0,1,1.243-1,1.985,1.985,0,0,1,.523-.071,1.678,1.678,0,0,1,.981.322q2.19,1.393,4.545,3.073a1.978,1.978,0,0,1,.85,1.322,3.68,3.68,0,0,1,.033.465,2.162,2.162,0,0,1-.327,1.143l-.85,1.465a1.947,1.947,0,0,1-1.242.893,2.168,2.168,0,0,1-.392.036,1.743,1.743,0,0,1-1.047-.358Q616.621,475.072,614.593,473.785Zm4.545,16.9a2.465,2.465,0,0,1-.588.072,2.507,2.507,0,0,1-1.014-.215,2.91,2.91,0,0,1-1.21-1.25l-1.145-2.179a1.473,1.473,0,0,1-.2-.715,1.694,1.694,0,0,1,.131-.643,1.329,1.329,0,0,1,1.014-.857,32.719,32.719,0,0,0,9.581-3.645,36.968,36.968,0,0,0,6.965-5.431,33.308,33.308,0,0,0,5.265-6.681,1.061,1.061,0,0,1,.981-.573.988.988,0,0,1,.948.608l1.242,2.394a3.491,3.491,0,0,1,.393,1.643v.179a3.533,3.533,0,0,1-.589,1.75,43.009,43.009,0,0,1-12.426,11.505A37.4,37.4,0,0,1,619.139,490.685Zm.654-25.331a1.983,1.983,0,0,1-.85-1.25,3.826,3.826,0,0,1-.033-.5,2.017,2.017,0,0,1,.294-1.036l.818-1.393a2.062,2.062,0,0,1,1.242-.965,1.872,1.872,0,0,1,.491-.071,1.822,1.822,0,0,1,1.014.322q2.191,1.393,4.545,3.037a2.152,2.152,0,0,1,.817,1.358,2.8,2.8,0,0,1,.033.428,2.156,2.156,0,0,1-.327,1.144l-.85,1.393a1.794,1.794,0,0,1-1.242.893,1.13,1.13,0,0,1-.392.071,1.743,1.743,0,0,1-1.046-.357Q621.853,466.711,619.793,465.353Z" transform="translate(-513.192 -458.065)" fill="#f8e520"/>
        <path id="Path_9555" data-name="Path 9555" d="M685.409,488.94q-.033.25.229.25h1.242q.72,0,1.734-.036h.1a1.68,1.68,0,0,1,1.242.536,1.91,1.91,0,0,1,.589,1.429v1.5a2.027,2.027,0,0,1-.589,1.465,1.667,1.667,0,0,1-1.275.572h-.065q-1.079-.037-1.668-.036H667.98a1.664,1.664,0,0,1-1.275-.572,1.91,1.91,0,0,1-.588-1.429v-1.536a1.91,1.91,0,0,1,.588-1.429,1.735,1.735,0,0,1,1.242-.5h.1q.914.036,1.667.036h9.875a.247.247,0,0,0,.261-.25q.948-5.9,1.144-8.717c.022-.191-.055-.286-.229-.286h-7.914q-.687,0-1.8.071h-.1a1.627,1.627,0,0,1-1.242-.572,1.907,1.907,0,0,1-.589-1.429V476.4a1.866,1.866,0,0,1,.589-1.393,1.641,1.641,0,0,1,1.21-.536.272.272,0,0,1,.131.036q1.079.036,1.766.035h7.717q.424,0,1.046-.035a7.546,7.546,0,0,1,1.014-.071,5.527,5.527,0,0,1,2.616.572l.425.25a2.459,2.459,0,0,1,1.08,1.215,3.234,3.234,0,0,1,.262,1.286,3.538,3.538,0,0,1-.033.464Q686.651,480.294,685.409,488.94Z" transform="translate(-530.642 -462.822)" fill="#f8e520"/>
        <path id="Path_9556" data-name="Path 9556" d="M716.156,476.217a56.014,56.014,0,0,0,2.911-11.97,1.951,1.951,0,0,1,.719-1.357,1.608,1.608,0,0,1,1.014-.358,2.015,2.015,0,0,1,.36.036l2.159.5a1.826,1.826,0,0,1,1.177.893,2.209,2.209,0,0,1,.294,1.072,1.982,1.982,0,0,1-.065.5q-.327,1.465-.425,2.179-.327,2.037-1.144,5.163t-1.6,5.591a51.519,51.519,0,0,1-3.859,8.9,2.349,2.349,0,0,1-1.242,1.072,2.41,2.41,0,0,1-.687.107,2.151,2.151,0,0,1-.916-.214l-2.158-1a1.562,1.562,0,0,1-.883-1.072,1.948,1.948,0,0,1-.065-.5,1.778,1.778,0,0,1,.294-.965A45.126,45.126,0,0,0,716.156,476.217Zm16.546-.393a103.942,103.942,0,0,0-3.989-10.4,2.289,2.289,0,0,1-.163-.821,2.069,2.069,0,0,1,.131-.715,1.629,1.629,0,0,1,1.014-1l1.734-.608a1.943,1.943,0,0,1,.719-.143,1.87,1.87,0,0,1,.85.215,2.24,2.24,0,0,1,1.144,1.143q2.288,5.145,4.12,10.362,1.6,4.537,3.3,10.861a3.177,3.177,0,0,1,.065.643,2.39,2.39,0,0,1-.228,1,2.085,2.085,0,0,1-1.145,1.072l-2.387.821a1.7,1.7,0,0,1-.589.107,1.661,1.661,0,0,1-.849-.25,1.976,1.976,0,0,1-.85-1.25Q734.141,480.255,732.7,475.825Zm1.635-14.578a1.814,1.814,0,0,1-.2-.821,1.98,1.98,0,0,1,.065-.5,1.458,1.458,0,0,1,.817-.965,1.686,1.686,0,0,1,.753-.178,1.79,1.79,0,0,1,.621.107,1.864,1.864,0,0,1,1.079.964q.425.787.915,1.751a1.816,1.816,0,0,1,.2.821,1.747,1.747,0,0,1-.1.572,1.553,1.553,0,0,1-.883,1,1.61,1.61,0,0,1-.719.178,1.548,1.548,0,0,1-.621-.143,1.865,1.865,0,0,1-1.047-.964Q734.73,462,734.338,461.247Zm4.153-1.786a1.608,1.608,0,0,1-.229-.822,1.821,1.821,0,0,1,.065-.464,1.357,1.357,0,0,1,.818-.965,1.675,1.675,0,0,1,.751-.178,1.784,1.784,0,0,1,.621.107,2.015,2.015,0,0,1,1.112.929q.458.857.916,1.786a1.69,1.69,0,0,1,.1,1.358,1.566,1.566,0,0,1-.85,1,1.6,1.6,0,0,1-.719.179,1.4,1.4,0,0,1-.622-.143,1.746,1.746,0,0,1-1.013-.965Q738.948,460.318,738.49,459.46Z" transform="translate(-545.824 -457.031)" fill="#f8e520"/>
        <path id="Path_9557" data-name="Path 9557" d="M767.774,476.1a2.021,2.021,0,0,1-.164-.785,2.39,2.39,0,0,1,.131-.751,1.754,1.754,0,0,1,1.014-1.072l1.242-.464a1.931,1.931,0,0,1,1.537.036,1.963,1.963,0,0,1,1.112,1.143q.817,2.11,1.667,4.538a2.181,2.181,0,0,1,.131.751,2.045,2.045,0,0,1-.2.857,1.98,1.98,0,0,1-1.079,1.108l-1.341.536a1.618,1.618,0,0,1-.654.143,1.815,1.815,0,0,1-.817-.214,1.915,1.915,0,0,1-.948-1.179Q768.526,478.1,767.774,476.1Zm18.344-2.679a1.786,1.786,0,0,1,.752-1.251,1.371,1.371,0,0,1,.817-.286,1.645,1.645,0,0,1,.49.071l2.061.715a1.98,1.98,0,0,1,1.112,1.036,2.456,2.456,0,0,1,.2.965,3.24,3.24,0,0,1-.065.643q-.131.428-.327,1.214a30.324,30.324,0,0,1-4.513,10.362,26.438,26.438,0,0,1-9.581,8.5,2.221,2.221,0,0,1-1.079.286,2.075,2.075,0,0,1-.555-.071,2.638,2.638,0,0,1-1.472-.893L772.418,493a1.245,1.245,0,0,1-.36-.857,1.023,1.023,0,0,1,.065-.357,1.258,1.258,0,0,1,.785-.929,25.623,25.623,0,0,0,5.167-2.894,17.775,17.775,0,0,0,4.186-4.109,18.319,18.319,0,0,0,2.419-4.68A28.71,28.71,0,0,0,786.119,473.419Zm-10.6.571a2.385,2.385,0,0,1-.131-.75,2.115,2.115,0,0,1,.164-.822,1.861,1.861,0,0,1,1.046-1.036l1.144-.392a1.856,1.856,0,0,1,.687-.143,1.877,1.877,0,0,1,.85.214,2.129,2.129,0,0,1,1.046,1.215q.72,2,1.439,4.145a2.076,2.076,0,0,1,.131.714,2.122,2.122,0,0,1-.2.893,1.964,1.964,0,0,1-1.112,1.072l-1.21.465a2.014,2.014,0,0,1-.621.107,1.872,1.872,0,0,1-.85-.214,2.053,2.053,0,0,1-.948-1.215Q776.275,475.992,775.523,473.99Z" transform="translate(-564.415 -461.628)" fill="#f8e520"/>
        <path id="Path_9558" data-name="Path 9558" d="M835.815,463.051q.424-.036.817-.036a4.841,4.841,0,0,1,2.714.75l.851.572a2.282,2.282,0,0,1,.883,1.322,3.234,3.234,0,0,1,.065.643,2.54,2.54,0,0,1-.2,1,11.019,11.019,0,0,0-.425,1.144,38.115,38.115,0,0,1-5.788,12,30.9,30.9,0,0,1-5.1,5.4,34.543,34.543,0,0,1-6.736,4.287,2.539,2.539,0,0,1-1.177.286,3.817,3.817,0,0,1-.49-.035,2.786,2.786,0,0,1-1.537-.787l-1.929-1.894a1.118,1.118,0,0,1-.392-.857,1.27,1.27,0,0,1,.033-.286,1.179,1.179,0,0,1,.752-.929,25.339,25.339,0,0,0,11.706-8.325,24.772,24.772,0,0,0,4.383-8.9c.043-.167-.023-.25-.2-.25H826.2a.479.479,0,0,0-.392.214,44.388,44.388,0,0,1-6.736,7.288,2.434,2.434,0,0,1-1.537.536,2.468,2.468,0,0,1-1.569-.572l-1.439-1.179a1.369,1.369,0,0,1-.556-1.143,1.483,1.483,0,0,1,.621-1.251,30.81,30.81,0,0,0,3.123-2.7,26.577,26.577,0,0,0,2.5-2.84q1.079-1.429,1.734-2.429t1.439-2.323a15.3,15.3,0,0,0,1.112-2.394,2.169,2.169,0,0,1,1.014-1.179,1.676,1.676,0,0,1,1.471-.143l2.256.822a1.446,1.446,0,0,1,.916,1,1.655,1.655,0,0,1,.1.536,1.675,1.675,0,0,1-.228.857q-.393.716-.916,1.643a.173.173,0,0,0,.017.161c.033.06.071.089.114.089h5.167A10.116,10.116,0,0,0,835.815,463.051Z" transform="translate(-579.842 -457.334)" fill="#f8e520"/>
        <path id="Path_9559" data-name="Path 9559" d="M885.937,488.844a4.118,4.118,0,0,1-5.657,0,3.892,3.892,0,0,1-1.128-2.876,3.966,3.966,0,0,1,1.128-2.876,4.024,4.024,0,0,1,5.657,0,3.966,3.966,0,0,1,1.128,2.876A3.892,3.892,0,0,1,885.937,488.844Zm-2.959-9.022a2.03,2.03,0,0,1-1.471-.608,2.394,2.394,0,0,1-.719-1.5l-1.112-9.468-.131-3.966a2.067,2.067,0,0,1,.507-1.483,1.685,1.685,0,0,1,1.324-.625h3.5a1.684,1.684,0,0,1,1.325.625,2.2,2.2,0,0,1,.54,1.483l-.163,3.966-1.112,9.468a2.4,2.4,0,0,1-.72,1.5,2,2,0,0,1-1.438.608Z" transform="translate(-601.532 -458.742)" fill="#f8e520"/>
      </g>
    </g>
    <g id="Group_3039" data-name="Group 3039" transform="translate(550.469 2263.636)">
      <g id="Group_2638" data-name="Group 2638" transform="translate(0 0)">
        <path id="Path_9560" data-name="Path 9560" d="M441.536,242.733a6.474,6.474,0,0,1,2.147.3,1.157,1.157,0,0,1,.647.561,1.21,1.21,0,0,1,.139.538.97.97,0,0,1-.069.328,13.521,13.521,0,0,1-2.194,4.234.193.193,0,0,0-.046.14.2.2,0,0,0,.093.164,11.755,11.755,0,0,0,1.986.912,1.049,1.049,0,0,1,.693.7.889.889,0,0,1,.069.35,1.036,1.036,0,0,1-.231.632,2.425,2.425,0,0,1-1.109.865,1.558,1.558,0,0,1-.646.117,1.833,1.833,0,0,1-.693-.14,12.786,12.786,0,0,1-2.287-1.24.247.247,0,0,0-.185-.07.39.39,0,0,0-.184.07,14.211,14.211,0,0,1-1.617,1.052,2.512,2.512,0,0,1-.9.188,1.952,1.952,0,0,1-.624-.093,2.478,2.478,0,0,1-1.27-.983,2.74,2.74,0,0,1-.231-.28.092.092,0,0,0-.093-.047.136.136,0,0,0-.046.094v.257a1.7,1.7,0,0,1-.462,1.17,1.632,1.632,0,0,1-1.132.468h-.115a1.391,1.391,0,0,1-1.062-.444,1.475,1.475,0,0,1-.438-1.076.144.144,0,0,0-.161-.163l-5.542.421h-.138a1.4,1.4,0,0,1-.924-.351,1.412,1.412,0,0,1-.462-.982.261.261,0,0,1-.023-.117,1.427,1.427,0,0,1,1.362-1.4h.254a.228.228,0,0,0,.208-.234v-6.292a.164.164,0,0,0-.185-.187h-.208a1.344,1.344,0,0,1-.947-2.269,1.233,1.233,0,0,1,.947-.4h18.172a1.233,1.233,0,0,1,.947.4,1.333,1.333,0,0,1-.947,2.269h-8.913a.205.205,0,0,0-.231.234v7.625a.2.2,0,0,0,.069.14.31.31,0,0,0,.139.024A11.486,11.486,0,0,0,437.356,249c.154-.093.169-.2.046-.328q-.532-.749-.97-1.427a1.612,1.612,0,0,1-.139-.632,1.06,1.06,0,0,1,.115-.514,1.192,1.192,0,0,1,.877-.749v-.047l-.023-.023h-.716a1.3,1.3,0,0,1-.877-.374,1.2,1.2,0,0,1-.37-.912,1.171,1.171,0,0,1,.37-.889,1.19,1.19,0,0,1,.877-.374Zm-.855-11.18a1.831,1.831,0,0,1,1.386.585,1.879,1.879,0,0,1,.577,1.4v3.416a1.879,1.879,0,0,1-.577,1.4,1.831,1.831,0,0,1-1.386.584H429.205a1.983,1.983,0,0,1-1.962-1.988v-3.416a1.983,1.983,0,0,1,1.962-1.988Zm-9.005,10.876c0-.155-.069-.234-.208-.234h-1.94a.206.206,0,0,0-.232.234v.093a.206.206,0,0,0,.232.234h1.94c.138,0,.208-.078.208-.234Zm-2.147,2.62a.206.206,0,0,0-.232.234v.163a.206.206,0,0,0,.232.234h1.94c.138,0,.208-.078.208-.234v-.163c0-.155-.069-.234-.208-.234Zm-.232,3.438a.227.227,0,0,0,.069.164.16.16,0,0,0,.162.047l1.94-.117a.185.185,0,0,0,.208-.211v-.163c0-.155-.069-.234-.208-.234h-1.94a.206.206,0,0,0-.232.234Zm9.744-14.244a.205.205,0,0,0,.231-.234v-.117q0-.21-.231-.21H430.66a.185.185,0,0,0-.208.21v.117q0,.234.208.234Zm0,2.573q.231,0,.231-.21v-.141a.205.205,0,0,0-.231-.234H430.66q-.207,0-.208.234v.141a.185.185,0,0,0,.208.21Zm1.547,8.537a.107.107,0,0,0-.115-.07h-1.732a.134.134,0,0,0-.115.07.256.256,0,0,0-.023.117,8.781,8.781,0,0,0,.877,1.263q.161.163.3,0a10.185,10.185,0,0,0,.808-1.263A.086.086,0,0,0,440.589,245.353Z" transform="translate(-424.426 -230.267)" fill="none" stroke="#fff" stroke-miterlimit="10" stroke-width="15"/>
        <path id="Path_9561" data-name="Path 9561" d="M472.412,239.215a.2.2,0,0,0-.138.071.316.316,0,0,0-.023.14,15.308,15.308,0,0,0,6.558,8.28,1.361,1.361,0,0,1,.762,1.03,2.03,2.03,0,0,1,.047.327,1.436,1.436,0,0,1-.347.935l-.069.094a2.519,2.519,0,0,1-1.316.912,1.307,1.307,0,0,1-.531.093,1.921,1.921,0,0,1-.97-.281,14.626,14.626,0,0,1-3.255-2.713,20.256,20.256,0,0,1-3.3-5.263.092.092,0,0,0-.092-.047.074.074,0,0,0-.069.047,15.854,15.854,0,0,1-6.558,7.976,2.138,2.138,0,0,1-.993.281,2.084,2.084,0,0,1-.508-.07,2.672,2.672,0,0,1-1.316-.842,1.389,1.389,0,0,1-.37-.982v-.211a1.389,1.389,0,0,1,.67-1.029,12.437,12.437,0,0,0,3.741-3.158,15.07,15.07,0,0,0,2.61-5.356.229.229,0,0,0-.047-.164c-.015-.047-.061-.071-.138-.071h-5.68a1.609,1.609,0,0,1-1.224-.514,1.766,1.766,0,0,1,0-2.479,1.609,1.609,0,0,1,1.224-.514h6.235c.169,0,.254-.078.254-.234q.092-1.356.115-3.976a1.957,1.957,0,0,1,.554-1.31,1.824,1.824,0,0,1,2.632,0,1.681,1.681,0,0,1,.508,1.263q0,2.082-.185,4.023a.227.227,0,0,0,.069.164.155.155,0,0,0,.139.07h6.9a1.611,1.611,0,0,1,1.224.514,1.767,1.767,0,0,1,0,2.479,1.611,1.611,0,0,1-1.224.514Z" transform="translate(-436.045 -229.625)" fill="none" stroke="#fff" stroke-miterlimit="10" stroke-width="15"/>
      </g>
      <g id="Group_2639" data-name="Group 2639" transform="translate(0 0)">
        <path id="Path_9562" data-name="Path 9562" d="M441.536,242.733a6.474,6.474,0,0,1,2.147.3,1.157,1.157,0,0,1,.647.561,1.21,1.21,0,0,1,.139.538.97.97,0,0,1-.069.328,13.521,13.521,0,0,1-2.194,4.234.193.193,0,0,0-.046.14.2.2,0,0,0,.093.164,11.755,11.755,0,0,0,1.986.912,1.049,1.049,0,0,1,.693.7.889.889,0,0,1,.069.35,1.036,1.036,0,0,1-.231.632,2.425,2.425,0,0,1-1.109.865,1.558,1.558,0,0,1-.646.117,1.833,1.833,0,0,1-.693-.14,12.786,12.786,0,0,1-2.287-1.24.247.247,0,0,0-.185-.07.39.39,0,0,0-.184.07,14.211,14.211,0,0,1-1.617,1.052,2.512,2.512,0,0,1-.9.188,1.952,1.952,0,0,1-.624-.093,2.478,2.478,0,0,1-1.27-.983,2.74,2.74,0,0,1-.231-.28.092.092,0,0,0-.093-.047.136.136,0,0,0-.046.094v.257a1.7,1.7,0,0,1-.462,1.17,1.632,1.632,0,0,1-1.132.468h-.115a1.391,1.391,0,0,1-1.062-.444,1.475,1.475,0,0,1-.438-1.076.144.144,0,0,0-.161-.163l-5.542.421h-.138a1.4,1.4,0,0,1-.924-.351,1.412,1.412,0,0,1-.462-.982.261.261,0,0,1-.023-.117,1.427,1.427,0,0,1,1.362-1.4h.254a.228.228,0,0,0,.208-.234v-6.292a.164.164,0,0,0-.185-.187h-.208a1.344,1.344,0,0,1-.947-2.269,1.233,1.233,0,0,1,.947-.4h18.172a1.233,1.233,0,0,1,.947.4,1.333,1.333,0,0,1-.947,2.269h-8.913a.205.205,0,0,0-.231.234v7.625a.2.2,0,0,0,.069.14.31.31,0,0,0,.139.024A11.486,11.486,0,0,0,437.356,249c.154-.093.169-.2.046-.328q-.532-.749-.97-1.427a1.612,1.612,0,0,1-.139-.632,1.06,1.06,0,0,1,.115-.514,1.192,1.192,0,0,1,.877-.749v-.047l-.023-.023h-.716a1.3,1.3,0,0,1-.877-.374,1.2,1.2,0,0,1-.37-.912,1.171,1.171,0,0,1,.37-.889,1.19,1.19,0,0,1,.877-.374Zm-.855-11.18a1.831,1.831,0,0,1,1.386.585,1.879,1.879,0,0,1,.577,1.4v3.416a1.879,1.879,0,0,1-.577,1.4,1.831,1.831,0,0,1-1.386.584H429.205a1.983,1.983,0,0,1-1.962-1.988v-3.416a1.983,1.983,0,0,1,1.962-1.988Zm-9.005,10.876c0-.155-.069-.234-.208-.234h-1.94a.206.206,0,0,0-.232.234v.093a.206.206,0,0,0,.232.234h1.94c.138,0,.208-.078.208-.234Zm-2.147,2.62a.206.206,0,0,0-.232.234v.163a.206.206,0,0,0,.232.234h1.94c.138,0,.208-.078.208-.234v-.163c0-.155-.069-.234-.208-.234Zm-.232,3.438a.227.227,0,0,0,.069.164.16.16,0,0,0,.162.047l1.94-.117a.185.185,0,0,0,.208-.211v-.163c0-.155-.069-.234-.208-.234h-1.94a.206.206,0,0,0-.232.234Zm9.744-14.244a.205.205,0,0,0,.231-.234v-.117q0-.21-.231-.21H430.66a.185.185,0,0,0-.208.21v.117q0,.234.208.234Zm0,2.573q.231,0,.231-.21v-.141a.205.205,0,0,0-.231-.234H430.66q-.207,0-.208.234v.141a.185.185,0,0,0,.208.21Zm1.547,8.537a.107.107,0,0,0-.115-.07h-1.732a.134.134,0,0,0-.115.07.256.256,0,0,0-.023.117,8.781,8.781,0,0,0,.877,1.263q.161.163.3,0a10.185,10.185,0,0,0,.808-1.263A.086.086,0,0,0,440.589,245.353Z" transform="translate(-424.426 -230.267)" fill="none" stroke="#034baf" stroke-miterlimit="10" stroke-width="7"/>
        <path id="Path_9563" data-name="Path 9563" d="M472.412,239.215a.2.2,0,0,0-.138.071.316.316,0,0,0-.023.14,15.308,15.308,0,0,0,6.558,8.28,1.361,1.361,0,0,1,.762,1.03,2.03,2.03,0,0,1,.047.327,1.436,1.436,0,0,1-.347.935l-.069.094a2.519,2.519,0,0,1-1.316.912,1.307,1.307,0,0,1-.531.093,1.921,1.921,0,0,1-.97-.281,14.626,14.626,0,0,1-3.255-2.713,20.256,20.256,0,0,1-3.3-5.263.092.092,0,0,0-.092-.047.074.074,0,0,0-.069.047,15.854,15.854,0,0,1-6.558,7.976,2.138,2.138,0,0,1-.993.281,2.084,2.084,0,0,1-.508-.07,2.672,2.672,0,0,1-1.316-.842,1.389,1.389,0,0,1-.37-.982v-.211a1.389,1.389,0,0,1,.67-1.029,12.437,12.437,0,0,0,3.741-3.158,15.07,15.07,0,0,0,2.61-5.356.229.229,0,0,0-.047-.164c-.015-.047-.061-.071-.138-.071h-5.68a1.609,1.609,0,0,1-1.224-.514,1.766,1.766,0,0,1,0-2.479,1.609,1.609,0,0,1,1.224-.514h6.235c.169,0,.254-.078.254-.234q.092-1.356.115-3.976a1.957,1.957,0,0,1,.554-1.31,1.824,1.824,0,0,1,2.632,0,1.681,1.681,0,0,1,.508,1.263q0,2.082-.185,4.023a.227.227,0,0,0,.069.164.155.155,0,0,0,.139.07h6.9a1.611,1.611,0,0,1,1.224.514,1.767,1.767,0,0,1,0,2.479,1.611,1.611,0,0,1-1.224.514Z" transform="translate(-436.045 -229.625)" fill="none" stroke="#034baf" stroke-miterlimit="10" stroke-width="7"/>
      </g>
      <g id="Group_2640" data-name="Group 2640" transform="translate(0 0)">
        <path id="Path_9564" data-name="Path 9564" d="M441.536,242.733a6.474,6.474,0,0,1,2.147.3,1.157,1.157,0,0,1,.647.561,1.21,1.21,0,0,1,.139.538.97.97,0,0,1-.069.328,13.521,13.521,0,0,1-2.194,4.234.193.193,0,0,0-.046.14.2.2,0,0,0,.093.164,11.755,11.755,0,0,0,1.986.912,1.049,1.049,0,0,1,.693.7.889.889,0,0,1,.069.35,1.036,1.036,0,0,1-.231.632,2.425,2.425,0,0,1-1.109.865,1.558,1.558,0,0,1-.646.117,1.833,1.833,0,0,1-.693-.14,12.786,12.786,0,0,1-2.287-1.24.247.247,0,0,0-.185-.07.39.39,0,0,0-.184.07,14.211,14.211,0,0,1-1.617,1.052,2.512,2.512,0,0,1-.9.188,1.952,1.952,0,0,1-.624-.093,2.478,2.478,0,0,1-1.27-.983,2.74,2.74,0,0,1-.231-.28.092.092,0,0,0-.093-.047.136.136,0,0,0-.046.094v.257a1.7,1.7,0,0,1-.462,1.17,1.632,1.632,0,0,1-1.132.468h-.115a1.391,1.391,0,0,1-1.062-.444,1.475,1.475,0,0,1-.438-1.076.144.144,0,0,0-.161-.163l-5.542.421h-.138a1.4,1.4,0,0,1-.924-.351,1.412,1.412,0,0,1-.462-.982.261.261,0,0,1-.023-.117,1.427,1.427,0,0,1,1.362-1.4h.254a.228.228,0,0,0,.208-.234v-6.292a.164.164,0,0,0-.185-.187h-.208a1.344,1.344,0,0,1-.947-2.269,1.233,1.233,0,0,1,.947-.4h18.172a1.233,1.233,0,0,1,.947.4,1.333,1.333,0,0,1-.947,2.269h-8.913a.205.205,0,0,0-.231.234v7.625a.2.2,0,0,0,.069.14.31.31,0,0,0,.139.024A11.486,11.486,0,0,0,437.356,249c.154-.093.169-.2.046-.328q-.532-.749-.97-1.427a1.612,1.612,0,0,1-.139-.632,1.06,1.06,0,0,1,.115-.514,1.192,1.192,0,0,1,.877-.749v-.047l-.023-.023h-.716a1.3,1.3,0,0,1-.877-.374,1.2,1.2,0,0,1-.37-.912,1.171,1.171,0,0,1,.37-.889,1.19,1.19,0,0,1,.877-.374Zm-.855-11.18a1.831,1.831,0,0,1,1.386.585,1.879,1.879,0,0,1,.577,1.4v3.416a1.879,1.879,0,0,1-.577,1.4,1.831,1.831,0,0,1-1.386.584H429.205a1.983,1.983,0,0,1-1.962-1.988v-3.416a1.983,1.983,0,0,1,1.962-1.988Zm-9.005,10.876c0-.155-.069-.234-.208-.234h-1.94a.206.206,0,0,0-.232.234v.093a.206.206,0,0,0,.232.234h1.94c.138,0,.208-.078.208-.234Zm-2.147,2.62a.206.206,0,0,0-.232.234v.163a.206.206,0,0,0,.232.234h1.94c.138,0,.208-.078.208-.234v-.163c0-.155-.069-.234-.208-.234Zm-.232,3.438a.227.227,0,0,0,.069.164.16.16,0,0,0,.162.047l1.94-.117a.185.185,0,0,0,.208-.211v-.163c0-.155-.069-.234-.208-.234h-1.94a.206.206,0,0,0-.232.234Zm9.744-14.244a.205.205,0,0,0,.231-.234v-.117q0-.21-.231-.21H430.66a.185.185,0,0,0-.208.21v.117q0,.234.208.234Zm0,2.573q.231,0,.231-.21v-.141a.205.205,0,0,0-.231-.234H430.66q-.207,0-.208.234v.141a.185.185,0,0,0,.208.21Zm1.547,8.537a.107.107,0,0,0-.115-.07h-1.732a.134.134,0,0,0-.115.07.256.256,0,0,0-.023.117,8.781,8.781,0,0,0,.877,1.263q.161.163.3,0a10.185,10.185,0,0,0,.808-1.263A.086.086,0,0,0,440.589,245.353Z" transform="translate(-424.426 -230.267)" fill="#f8e520"/>
        <path id="Path_9565" data-name="Path 9565" d="M472.412,239.215a.2.2,0,0,0-.138.071.316.316,0,0,0-.023.14,15.308,15.308,0,0,0,6.558,8.28,1.361,1.361,0,0,1,.762,1.03,2.03,2.03,0,0,1,.047.327,1.436,1.436,0,0,1-.347.935l-.069.094a2.519,2.519,0,0,1-1.316.912,1.307,1.307,0,0,1-.531.093,1.921,1.921,0,0,1-.97-.281,14.626,14.626,0,0,1-3.255-2.713,20.256,20.256,0,0,1-3.3-5.263.092.092,0,0,0-.092-.047.074.074,0,0,0-.069.047,15.854,15.854,0,0,1-6.558,7.976,2.138,2.138,0,0,1-.993.281,2.084,2.084,0,0,1-.508-.07,2.672,2.672,0,0,1-1.316-.842,1.389,1.389,0,0,1-.37-.982v-.211a1.389,1.389,0,0,1,.67-1.029,12.437,12.437,0,0,0,3.741-3.158,15.07,15.07,0,0,0,2.61-5.356.229.229,0,0,0-.047-.164c-.015-.047-.061-.071-.138-.071h-5.68a1.609,1.609,0,0,1-1.224-.514,1.766,1.766,0,0,1,0-2.479,1.609,1.609,0,0,1,1.224-.514h6.235c.169,0,.254-.078.254-.234q.092-1.356.115-3.976a1.957,1.957,0,0,1,.554-1.31,1.824,1.824,0,0,1,2.632,0,1.681,1.681,0,0,1,.508,1.263q0,2.082-.185,4.023a.227.227,0,0,0,.069.164.155.155,0,0,0,.139.07h6.9a1.611,1.611,0,0,1,1.224.514,1.767,1.767,0,0,1,0,2.479,1.611,1.611,0,0,1-1.224.514Z" transform="translate(-436.045 -229.625)" fill="#f8e520"/>
      </g>
    </g>
    <g id="Group_3043" data-name="Group 3043" transform="translate(922.086 2375.609)">
      <g id="Group_3042" data-name="Group 3042" transform="translate(-8 -7)" clip-path="url(#clip-path)">
        <path id="Path_11993" data-name="Path 11993" d="M16.98,36.058a1.442,1.442,0,0,1,.319.894,1.131,1.131,0,0,1-.063.352,1.182,1.182,0,0,1-.767.926l-.32.128a2.333,2.333,0,0,1-1.054.256,2.26,2.26,0,0,1-.543-.064,2.5,2.5,0,0,1-1.406-.831A21.769,21.769,0,0,1,8,23.308,21.46,21.46,0,0,1,13.146,8.863a2.348,2.348,0,0,1,1.406-.8A2.224,2.224,0,0,1,15.095,8a2.6,2.6,0,0,1,1.054.224l.32.127a1.262,1.262,0,0,1,.767.959,1.131,1.131,0,0,1,.063.351,1.317,1.317,0,0,1-.319.863,19.952,19.952,0,0,0-4.506,12.767A19.954,19.954,0,0,0,16.98,36.058" transform="translate(6.829 5.702)" fill="#1a1311"/>
        <path id="Path_11994" data-name="Path 11994" d="M39.6,24.593a2.327,2.327,0,0,1,.159,2.94l-.479.671a1.089,1.089,0,0,1-.894.447h-.128a1.166,1.166,0,0,1-.927-.607c-.127-.276-.266-.543-.415-.8a.072.072,0,0,0-.08-.016q-.048.016-.048.048v9.747A1.856,1.856,0,0,1,34.9,38.91h-.831a1.84,1.84,0,0,1-1.326-.543,1.8,1.8,0,0,1-.559-1.342V29.036A.028.028,0,0,0,32.15,29a.093.093,0,0,0-.064.032q-.894,1.949-1.726,3.387a.873.873,0,0,1-.766.447.287.287,0,0,1-.128-.032,1.01,1.01,0,0,1-.863-.607q-.255-.575-.543-1.182a3.027,3.027,0,0,1-.319-1.374v-.224a3.14,3.14,0,0,1,.543-1.566,32.025,32.025,0,0,0,3.2-6.232.145.145,0,0,0-.015-.143.158.158,0,0,0-.144-.08h-1.6a1.856,1.856,0,0,1-1.886-1.886V18.9a1.837,1.837,0,0,1,.543-1.326,1.8,1.8,0,0,1,1.342-.559h2.237a.2.2,0,0,0,.223-.223V14.143c0-.148-.075-.212-.223-.191q-.992.159-1.438.223a1.645,1.645,0,0,1-.319.032,1.932,1.932,0,0,1-1.118-.351,2.46,2.46,0,0,1-.959-1.214.131.131,0,0,0-.032-.1,1.807,1.807,0,0,1-.1-.575,1.514,1.514,0,0,1,.192-.735,1.346,1.346,0,0,1,.99-.767,43.615,43.615,0,0,0,6.487-1.694,2.744,2.744,0,0,1,.927-.159,2.347,2.347,0,0,1,.671.1,2.575,2.575,0,0,1,1.374.8l.7.831a1.154,1.154,0,0,1,.319.8.95.95,0,0,1-.063.352,1.112,1.112,0,0,1-.831.862q-.671.224-1.726.511a.3.3,0,0,0-.256.32V16.8q0,.224.256.223h1.022A1.91,1.91,0,0,1,39.948,18.9v.639a1.8,1.8,0,0,1-.559,1.342,1.84,1.84,0,0,1-1.326.543H37.007c-.149,0-.224.069-.224.207a.408.408,0,0,0,.16.336q.831.7,2.653,2.62m14.476,9.651h.415a.294.294,0,0,0,.256-.144,1.59,1.59,0,0,0,.159-.575,12.159,12.159,0,0,0,.1-1.23,1.013,1.013,0,0,1,.575-.894,1.174,1.174,0,0,1,.575-.16,1.34,1.34,0,0,1,.543.128c.192.085.394.171.607.255a2.844,2.844,0,0,1,1.246.991,2.084,2.084,0,0,1,.352,1.15,1.692,1.692,0,0,1-.032.319A6.742,6.742,0,0,1,57.6,37.536a3.317,3.317,0,0,1-2.573.959H53.178q-2.4,0-3.179-1.151a8.111,8.111,0,0,1-.783-4.25v-6.9q0-.224-.255-.224h-.767a.233.233,0,0,0-.256.224,31.927,31.927,0,0,1-.463,3.627,17.184,17.184,0,0,1-.942,3.132,9.846,9.846,0,0,1-1.774,2.86,12.4,12.4,0,0,1-2.8,2.3,1.8,1.8,0,0,1-.863.224,1.717,1.717,0,0,1-.543-.1,2.136,2.136,0,0,1-1.182-.9l-.575-.766a1.484,1.484,0,0,1-.319-.927,1.5,1.5,0,0,1,.031-.287,1.355,1.355,0,0,1,.7-1.022,7.252,7.252,0,0,0,3.036-3.26A15.3,15.3,0,0,0,43.3,26.191a.2.2,0,0,0-.223-.224h-.1a1.8,1.8,0,0,1-1.342-.559,1.839,1.839,0,0,1-.543-1.326V16.221a1.839,1.839,0,0,1,.543-1.326,1.8,1.8,0,0,1,1.342-.559.138.138,0,0,0,.112-.064.26.26,0,0,0,.048-.16,25.135,25.135,0,0,0-1.406-2.876,1.738,1.738,0,0,1-.224-.83,1.53,1.53,0,0,1,.1-.543,1.63,1.63,0,0,1,.927-1.023l.447-.191a2.252,2.252,0,0,1,.894-.192,2.212,2.212,0,0,1,.639.1,2.107,2.107,0,0,1,1.246.926,24.682,24.682,0,0,1,1.246,2.237,1.7,1.7,0,0,1,.192.767,1.485,1.485,0,0,1-.16.671,1.843,1.843,0,0,1-1.022,1.054l-.064.032a.09.09,0,0,0-.032.064.028.028,0,0,0,.032.032h6.551a.032.032,0,0,0,0-.064l-.576-.224a1.531,1.531,0,0,1-.958-.958,1.409,1.409,0,0,1-.128-.575,1.578,1.578,0,0,1,.192-.767q.575-1.085,1.022-2.173a1.984,1.984,0,0,1,.991-1.086,1.772,1.772,0,0,1,1.438-.128l1.342.447a1.437,1.437,0,0,1,.926.9,1.533,1.533,0,0,1,.1.543,1.516,1.516,0,0,1-.192.735q-1.214,1.981-1.981,3.163a.088.088,0,0,0-.016.128.137.137,0,0,0,.112.064h.543a1.8,1.8,0,0,1,1.342.559,1.839,1.839,0,0,1,.543,1.326v7.861a1.839,1.839,0,0,1-.543,1.326,1.8,1.8,0,0,1-1.342.559h-1.31a.2.2,0,0,0-.224.224v6.871a5.784,5.784,0,0,0,.048.99.227.227,0,0,0,.24.192m-1.854-12.4a.226.226,0,0,0,.256-.256V18.713a.226.226,0,0,0-.256-.255H45.828q-.224,0-.224.255v2.876q0,.256.224.256Z" transform="translate(1.444 5.63)" fill="#1a1311"/>
        <path id="Path_11995" data-name="Path 11995" d="M81.381,20.791a1.84,1.84,0,0,1,1.326.543,1.8,1.8,0,0,1,.559,1.342v8.149a.784.784,0,0,0,.128.448q1.693,2.557,6.519,2.748,2.4.128,4.922.128,4.506,0,9.363-.32h.1a1.234,1.234,0,0,1,1.182,1.182,1.059,1.059,0,0,1-.1.416q-.191.639-.383,1.246a2.671,2.671,0,0,1-.863,1.374,2.163,2.163,0,0,1-1.438.543q-3.739.16-7,.16-3.164,0-5.88-.128a16.621,16.621,0,0,1-4.97-.862A8.733,8.733,0,0,1,81.317,35.3q-.16-.192-.319-.032-1.535,1.342-2.844,2.429a1.444,1.444,0,0,1-.9.319,1.806,1.806,0,0,1-.351-.032,1.44,1.44,0,0,1-1.023-.83l-.7-1.534a2.031,2.031,0,0,1-.192-.862,2.448,2.448,0,0,1,.1-.639,2.147,2.147,0,0,1,.926-1.15q1.31-.8,2.4-1.566a.483.483,0,0,0,.192-.383V25.393a.2.2,0,0,0-.224-.224H77.131a1.91,1.91,0,0,1-1.885-1.886v-.607a1.8,1.8,0,0,1,.559-1.342,1.837,1.837,0,0,1,1.326-.543Zm1.374-8.469a1.626,1.626,0,0,1,.511,1.182.533.533,0,0,1-.032.16,1.816,1.816,0,0,1-.671,1.278l-.894.734a1.737,1.737,0,0,1-1.119.416.951.951,0,0,1-.223-.032,1.786,1.786,0,0,1-1.246-.671,28.131,28.131,0,0,0-2.525-2.461,1.515,1.515,0,0,1-.543-1.182,1.458,1.458,0,0,1,.575-1.214l.607-.479a2.447,2.447,0,0,1,1.47-.543h.064a2.119,2.119,0,0,1,1.406.511,30.7,30.7,0,0,1,2.621,2.3m8.6,5.337a1.248,1.248,0,0,1,.527-.815,1.305,1.305,0,0,1,.942-.239.153.153,0,0,0,.112-.048c.032-.032.037-.059.016-.08q-.16-1.181-.255-2.429c0-.148-.085-.223-.256-.223H89.019a1.8,1.8,0,0,1-1.342-.559,1.84,1.84,0,0,1-.543-1.326V11.2a1.84,1.84,0,0,1,.543-1.326,1.8,1.8,0,0,1,1.342-.559h5.848a1.869,1.869,0,0,1,1.342.559,2.04,2.04,0,0,1,.639,1.326,45.163,45.163,0,0,0,.591,5.417A31.761,31.761,0,0,0,98.67,21.4a15.275,15.275,0,0,0,2.174,4.186,14.2,14.2,0,0,0,3.227,3.164,1.339,1.339,0,0,1,.191,2.141l-1.022,1.023a2.342,2.342,0,0,1-1.342.734h-.319a1.926,1.926,0,0,1-1.118-.351,18.045,18.045,0,0,1-5.753-8.245.1.1,0,0,0-.1-.064.1.1,0,0,0-.1.064,20.932,20.932,0,0,1-5.561,8.181,1.9,1.9,0,0,1-1.182.415H87.55a2.248,2.248,0,0,1-1.342-.671l-.959-.958a1.4,1.4,0,0,1-.479-1.054,1.517,1.517,0,0,1,.607-1.246q4.538-3.547,5.976-11.057" transform="translate(-11.446 5.343)" fill="#1a1311"/>
        <path id="Path_11996" data-name="Path 11996" d="M124.273,10.525a1.313,1.313,0,0,1-.319-.863,1.13,1.13,0,0,1,.063-.351,1.26,1.26,0,0,1,.767-.958l.32-.128A2.6,2.6,0,0,1,126.159,8a2.26,2.26,0,0,1,.543.064,2.348,2.348,0,0,1,1.406.8,21.465,21.465,0,0,1,5.146,14.444,21.343,21.343,0,0,1-5.146,14.412,2.5,2.5,0,0,1-1.406.831,2.224,2.224,0,0,1-.543.064,2.324,2.324,0,0,1-1.054-.256l-.32-.127a1.183,1.183,0,0,1-.767-.927,1.13,1.13,0,0,1-.063-.351,1.439,1.439,0,0,1,.319-.9,19.952,19.952,0,0,0,4.506-12.767,19.955,19.955,0,0,0-4.506-12.767" transform="translate(-24.803 5.702)" fill="#1a1311"/>
        <path id="Path_11997" data-name="Path 11997" d="M16.98,36.058a1.442,1.442,0,0,1,.319.894,1.131,1.131,0,0,1-.063.352,1.182,1.182,0,0,1-.767.926l-.32.128a2.333,2.333,0,0,1-1.054.256,2.26,2.26,0,0,1-.543-.064,2.5,2.5,0,0,1-1.406-.831A21.769,21.769,0,0,1,8,23.308,21.46,21.46,0,0,1,13.146,8.863a2.348,2.348,0,0,1,1.406-.8A2.224,2.224,0,0,1,15.095,8a2.6,2.6,0,0,1,1.054.224l.32.127a1.262,1.262,0,0,1,.767.959,1.131,1.131,0,0,1,.063.351,1.317,1.317,0,0,1-.319.863,19.952,19.952,0,0,0-4.506,12.767A19.954,19.954,0,0,0,16.98,36.058Z" transform="translate(6.829 5.702)" fill="none" stroke="#fff" stroke-width="12"/>
        <path id="Path_11998" data-name="Path 11998" d="M39.6,24.593a2.327,2.327,0,0,1,.159,2.94l-.479.671a1.089,1.089,0,0,1-.894.447h-.128a1.166,1.166,0,0,1-.927-.607c-.127-.276-.266-.543-.415-.8a.072.072,0,0,0-.08-.016q-.048.016-.048.048v9.747A1.856,1.856,0,0,1,34.9,38.91h-.831a1.84,1.84,0,0,1-1.326-.543,1.8,1.8,0,0,1-.559-1.342V29.036A.028.028,0,0,0,32.15,29a.093.093,0,0,0-.064.032q-.894,1.949-1.726,3.387a.873.873,0,0,1-.766.447.287.287,0,0,1-.128-.032,1.01,1.01,0,0,1-.863-.607q-.255-.575-.543-1.182a3.027,3.027,0,0,1-.319-1.374v-.224a3.14,3.14,0,0,1,.543-1.566,32.025,32.025,0,0,0,3.2-6.232.145.145,0,0,0-.015-.143.158.158,0,0,0-.144-.08h-1.6a1.856,1.856,0,0,1-1.886-1.886V18.9a1.837,1.837,0,0,1,.543-1.326,1.8,1.8,0,0,1,1.342-.559h2.237a.2.2,0,0,0,.223-.223V14.143c0-.148-.075-.212-.223-.191q-.992.159-1.438.223a1.645,1.645,0,0,1-.319.032,1.932,1.932,0,0,1-1.118-.351,2.46,2.46,0,0,1-.959-1.214.131.131,0,0,0-.032-.1,1.807,1.807,0,0,1-.1-.575,1.514,1.514,0,0,1,.192-.735,1.346,1.346,0,0,1,.99-.767,43.615,43.615,0,0,0,6.487-1.694,2.744,2.744,0,0,1,.927-.159,2.347,2.347,0,0,1,.671.1,2.575,2.575,0,0,1,1.374.8l.7.831a1.154,1.154,0,0,1,.319.8.95.95,0,0,1-.063.352,1.112,1.112,0,0,1-.831.862q-.671.224-1.726.511a.3.3,0,0,0-.256.32V16.8q0,.224.256.223h1.022A1.91,1.91,0,0,1,39.948,18.9v.639a1.8,1.8,0,0,1-.559,1.342,1.84,1.84,0,0,1-1.326.543H37.007c-.149,0-.224.069-.224.207a.408.408,0,0,0,.16.336Q37.775,22.675,39.6,24.593Zm14.476,9.651h.415a.294.294,0,0,0,.256-.144,1.59,1.59,0,0,0,.159-.575,12.159,12.159,0,0,0,.1-1.23,1.013,1.013,0,0,1,.575-.894,1.174,1.174,0,0,1,.575-.16,1.34,1.34,0,0,1,.543.128c.192.085.394.171.607.255a2.844,2.844,0,0,1,1.246.991,2.084,2.084,0,0,1,.352,1.15,1.692,1.692,0,0,1-.032.319A6.742,6.742,0,0,1,57.6,37.536a3.317,3.317,0,0,1-2.573.959H53.178q-2.4,0-3.179-1.151a8.111,8.111,0,0,1-.783-4.25v-6.9q0-.224-.255-.224h-.767a.233.233,0,0,0-.256.224,31.927,31.927,0,0,1-.463,3.627,17.184,17.184,0,0,1-.942,3.132,9.846,9.846,0,0,1-1.774,2.86,12.4,12.4,0,0,1-2.8,2.3,1.8,1.8,0,0,1-.863.224,1.717,1.717,0,0,1-.543-.1,2.136,2.136,0,0,1-1.182-.9l-.575-.766a1.484,1.484,0,0,1-.319-.927,1.5,1.5,0,0,1,.031-.287,1.355,1.355,0,0,1,.7-1.022,7.252,7.252,0,0,0,3.036-3.26A15.3,15.3,0,0,0,43.3,26.191a.2.2,0,0,0-.223-.224h-.1a1.8,1.8,0,0,1-1.342-.559,1.839,1.839,0,0,1-.543-1.326V16.221a1.839,1.839,0,0,1,.543-1.326,1.8,1.8,0,0,1,1.342-.559.138.138,0,0,0,.112-.064.26.26,0,0,0,.048-.16,25.135,25.135,0,0,0-1.406-2.876,1.738,1.738,0,0,1-.224-.83,1.53,1.53,0,0,1,.1-.543,1.63,1.63,0,0,1,.927-1.023l.447-.191a2.252,2.252,0,0,1,.894-.192,2.212,2.212,0,0,1,.639.1,2.107,2.107,0,0,1,1.246.926,24.682,24.682,0,0,1,1.246,2.237,1.7,1.7,0,0,1,.192.767,1.485,1.485,0,0,1-.16.671,1.843,1.843,0,0,1-1.022,1.054l-.064.032a.09.09,0,0,0-.032.064.028.028,0,0,0,.032.032h6.551a.032.032,0,0,0,0-.064l-.576-.224a1.531,1.531,0,0,1-.958-.958,1.409,1.409,0,0,1-.128-.575,1.578,1.578,0,0,1,.192-.767q.575-1.085,1.022-2.173a1.984,1.984,0,0,1,.991-1.086,1.772,1.772,0,0,1,1.438-.128l1.342.447a1.437,1.437,0,0,1,.926.9,1.533,1.533,0,0,1,.1.543,1.516,1.516,0,0,1-.192.735q-1.214,1.981-1.981,3.163a.088.088,0,0,0-.016.128.137.137,0,0,0,.112.064h.543a1.8,1.8,0,0,1,1.342.559,1.839,1.839,0,0,1,.543,1.326v7.861a1.839,1.839,0,0,1-.543,1.326,1.8,1.8,0,0,1-1.342.559h-1.31a.2.2,0,0,0-.224.224v6.871a5.784,5.784,0,0,0,.048.99A.227.227,0,0,0,54.073,34.244Zm-1.854-12.4a.226.226,0,0,0,.256-.256V18.713a.226.226,0,0,0-.256-.255H45.828q-.224,0-.224.255v2.876q0,.256.224.256Z" transform="translate(1.444 5.63)" fill="none" stroke="#fff" stroke-width="12"/>
        <path id="Path_11999" data-name="Path 11999" d="M81.381,20.791a1.84,1.84,0,0,1,1.326.543,1.8,1.8,0,0,1,.559,1.342v8.149a.784.784,0,0,0,.128.448q1.693,2.557,6.519,2.748,2.4.128,4.922.128,4.506,0,9.363-.32h.1a1.234,1.234,0,0,1,1.182,1.182,1.059,1.059,0,0,1-.1.416q-.191.639-.383,1.246a2.671,2.671,0,0,1-.863,1.374,2.163,2.163,0,0,1-1.438.543q-3.739.16-7,.16-3.164,0-5.88-.128a16.621,16.621,0,0,1-4.97-.862A8.733,8.733,0,0,1,81.317,35.3q-.16-.192-.319-.032-1.535,1.342-2.844,2.429a1.444,1.444,0,0,1-.9.319,1.806,1.806,0,0,1-.351-.032,1.44,1.44,0,0,1-1.023-.83l-.7-1.534a2.031,2.031,0,0,1-.192-.862,2.448,2.448,0,0,1,.1-.639,2.147,2.147,0,0,1,.926-1.15q1.31-.8,2.4-1.566a.483.483,0,0,0,.192-.383V25.393a.2.2,0,0,0-.224-.224H77.131a1.91,1.91,0,0,1-1.885-1.886v-.607a1.8,1.8,0,0,1,.559-1.342,1.837,1.837,0,0,1,1.326-.543Zm1.374-8.469a1.626,1.626,0,0,1,.511,1.182.533.533,0,0,1-.032.16,1.816,1.816,0,0,1-.671,1.278l-.894.734a1.737,1.737,0,0,1-1.119.416.951.951,0,0,1-.223-.032,1.786,1.786,0,0,1-1.246-.671,28.131,28.131,0,0,0-2.525-2.461,1.515,1.515,0,0,1-.543-1.182,1.458,1.458,0,0,1,.575-1.214l.607-.479a2.447,2.447,0,0,1,1.47-.543h.064a2.119,2.119,0,0,1,1.406.511A30.7,30.7,0,0,1,82.756,12.322Zm8.6,5.337a1.248,1.248,0,0,1,.527-.815,1.305,1.305,0,0,1,.942-.239.153.153,0,0,0,.112-.048c.032-.032.037-.059.016-.08q-.16-1.181-.255-2.429c0-.148-.085-.223-.256-.223H89.019a1.8,1.8,0,0,1-1.342-.559,1.84,1.84,0,0,1-.543-1.326V11.2a1.84,1.84,0,0,1,.543-1.326,1.8,1.8,0,0,1,1.342-.559h5.848a1.869,1.869,0,0,1,1.342.559,2.04,2.04,0,0,1,.639,1.326,45.163,45.163,0,0,0,.591,5.417A31.761,31.761,0,0,0,98.67,21.4a15.275,15.275,0,0,0,2.174,4.186,14.2,14.2,0,0,0,3.227,3.164,1.339,1.339,0,0,1,.191,2.141l-1.022,1.023a2.342,2.342,0,0,1-1.342.734h-.319a1.926,1.926,0,0,1-1.118-.351,18.045,18.045,0,0,1-5.753-8.245.1.1,0,0,0-.1-.064.1.1,0,0,0-.1.064,20.932,20.932,0,0,1-5.561,8.181,1.9,1.9,0,0,1-1.182.415H87.55a2.248,2.248,0,0,1-1.342-.671l-.959-.958a1.4,1.4,0,0,1-.479-1.054,1.517,1.517,0,0,1,.607-1.246Q89.914,25.169,91.352,17.659Z" transform="translate(-11.446 5.343)" fill="none" stroke="#fff" stroke-width="12"/>
        <path id="Path_12000" data-name="Path 12000" d="M124.273,10.525a1.313,1.313,0,0,1-.319-.863,1.13,1.13,0,0,1,.063-.351,1.26,1.26,0,0,1,.767-.958l.32-.128A2.6,2.6,0,0,1,126.159,8a2.26,2.26,0,0,1,.543.064,2.348,2.348,0,0,1,1.406.8,21.465,21.465,0,0,1,5.146,14.444,21.343,21.343,0,0,1-5.146,14.412,2.5,2.5,0,0,1-1.406.831,2.224,2.224,0,0,1-.543.064,2.324,2.324,0,0,1-1.054-.256l-.32-.127a1.183,1.183,0,0,1-.767-.927,1.13,1.13,0,0,1-.063-.351,1.439,1.439,0,0,1,.319-.9,19.952,19.952,0,0,0,4.506-12.767A19.955,19.955,0,0,0,124.273,10.525Z" transform="translate(-24.803 5.702)" fill="none" stroke="#fff" stroke-width="12"/>
        <path id="Path_12001" data-name="Path 12001" d="M16.98,36.058a1.442,1.442,0,0,1,.319.894,1.131,1.131,0,0,1-.063.352,1.182,1.182,0,0,1-.767.926l-.32.128a2.333,2.333,0,0,1-1.054.256,2.26,2.26,0,0,1-.543-.064,2.5,2.5,0,0,1-1.406-.831A21.769,21.769,0,0,1,8,23.308,21.46,21.46,0,0,1,13.146,8.863a2.348,2.348,0,0,1,1.406-.8A2.224,2.224,0,0,1,15.095,8a2.6,2.6,0,0,1,1.054.224l.32.127a1.262,1.262,0,0,1,.767.959,1.131,1.131,0,0,1,.063.351,1.317,1.317,0,0,1-.319.863,19.952,19.952,0,0,0-4.506,12.767A19.954,19.954,0,0,0,16.98,36.058Z" transform="translate(6.829 5.702)" fill="none" stroke="#034baf" stroke-width="6"/>
        <path id="Path_12002" data-name="Path 12002" d="M39.6,24.593a2.327,2.327,0,0,1,.159,2.94l-.479.671a1.089,1.089,0,0,1-.894.447h-.128a1.166,1.166,0,0,1-.927-.607c-.127-.276-.266-.543-.415-.8a.072.072,0,0,0-.08-.016q-.048.016-.048.048v9.747A1.856,1.856,0,0,1,34.9,38.91h-.831a1.84,1.84,0,0,1-1.326-.543,1.8,1.8,0,0,1-.559-1.342V29.036A.028.028,0,0,0,32.15,29a.093.093,0,0,0-.064.032q-.894,1.949-1.726,3.387a.873.873,0,0,1-.766.447.287.287,0,0,1-.128-.032,1.01,1.01,0,0,1-.863-.607q-.255-.575-.543-1.182a3.027,3.027,0,0,1-.319-1.374v-.224a3.14,3.14,0,0,1,.543-1.566,32.025,32.025,0,0,0,3.2-6.232.145.145,0,0,0-.015-.143.158.158,0,0,0-.144-.08h-1.6a1.856,1.856,0,0,1-1.886-1.886V18.9a1.837,1.837,0,0,1,.543-1.326,1.8,1.8,0,0,1,1.342-.559h2.237a.2.2,0,0,0,.223-.223V14.143c0-.148-.075-.212-.223-.191q-.992.159-1.438.223a1.645,1.645,0,0,1-.319.032,1.932,1.932,0,0,1-1.118-.351,2.46,2.46,0,0,1-.959-1.214.131.131,0,0,0-.032-.1,1.807,1.807,0,0,1-.1-.575,1.514,1.514,0,0,1,.192-.735,1.346,1.346,0,0,1,.99-.767,43.615,43.615,0,0,0,6.487-1.694,2.744,2.744,0,0,1,.927-.159,2.347,2.347,0,0,1,.671.1,2.575,2.575,0,0,1,1.374.8l.7.831a1.154,1.154,0,0,1,.319.8.95.95,0,0,1-.063.352,1.112,1.112,0,0,1-.831.862q-.671.224-1.726.511a.3.3,0,0,0-.256.32V16.8q0,.224.256.223h1.022A1.91,1.91,0,0,1,39.948,18.9v.639a1.8,1.8,0,0,1-.559,1.342,1.84,1.84,0,0,1-1.326.543H37.007c-.149,0-.224.069-.224.207a.408.408,0,0,0,.16.336Q37.775,22.675,39.6,24.593Zm14.476,9.651h.415a.294.294,0,0,0,.256-.144,1.59,1.59,0,0,0,.159-.575,12.159,12.159,0,0,0,.1-1.23,1.013,1.013,0,0,1,.575-.894,1.174,1.174,0,0,1,.575-.16,1.34,1.34,0,0,1,.543.128c.192.085.394.171.607.255a2.844,2.844,0,0,1,1.246.991,2.084,2.084,0,0,1,.352,1.15,1.692,1.692,0,0,1-.032.319A6.742,6.742,0,0,1,57.6,37.536a3.317,3.317,0,0,1-2.573.959H53.178q-2.4,0-3.179-1.151a8.111,8.111,0,0,1-.783-4.25v-6.9q0-.224-.255-.224h-.767a.233.233,0,0,0-.256.224,31.927,31.927,0,0,1-.463,3.627,17.184,17.184,0,0,1-.942,3.132,9.846,9.846,0,0,1-1.774,2.86,12.4,12.4,0,0,1-2.8,2.3,1.8,1.8,0,0,1-.863.224,1.717,1.717,0,0,1-.543-.1,2.136,2.136,0,0,1-1.182-.9l-.575-.766a1.484,1.484,0,0,1-.319-.927,1.5,1.5,0,0,1,.031-.287,1.355,1.355,0,0,1,.7-1.022,7.252,7.252,0,0,0,3.036-3.26A15.3,15.3,0,0,0,43.3,26.191a.2.2,0,0,0-.223-.224h-.1a1.8,1.8,0,0,1-1.342-.559,1.839,1.839,0,0,1-.543-1.326V16.221a1.839,1.839,0,0,1,.543-1.326,1.8,1.8,0,0,1,1.342-.559.138.138,0,0,0,.112-.064.26.26,0,0,0,.048-.16,25.135,25.135,0,0,0-1.406-2.876,1.738,1.738,0,0,1-.224-.83,1.53,1.53,0,0,1,.1-.543,1.63,1.63,0,0,1,.927-1.023l.447-.191a2.252,2.252,0,0,1,.894-.192,2.212,2.212,0,0,1,.639.1,2.107,2.107,0,0,1,1.246.926,24.682,24.682,0,0,1,1.246,2.237,1.7,1.7,0,0,1,.192.767,1.485,1.485,0,0,1-.16.671,1.843,1.843,0,0,1-1.022,1.054l-.064.032a.09.09,0,0,0-.032.064.028.028,0,0,0,.032.032h6.551a.032.032,0,0,0,0-.064l-.576-.224a1.531,1.531,0,0,1-.958-.958,1.409,1.409,0,0,1-.128-.575,1.578,1.578,0,0,1,.192-.767q.575-1.085,1.022-2.173a1.984,1.984,0,0,1,.991-1.086,1.772,1.772,0,0,1,1.438-.128l1.342.447a1.437,1.437,0,0,1,.926.9,1.533,1.533,0,0,1,.1.543,1.516,1.516,0,0,1-.192.735q-1.214,1.981-1.981,3.163a.088.088,0,0,0-.016.128.137.137,0,0,0,.112.064h.543a1.8,1.8,0,0,1,1.342.559,1.839,1.839,0,0,1,.543,1.326v7.861a1.839,1.839,0,0,1-.543,1.326,1.8,1.8,0,0,1-1.342.559h-1.31a.2.2,0,0,0-.224.224v6.871a5.784,5.784,0,0,0,.048.99A.227.227,0,0,0,54.073,34.244Zm-1.854-12.4a.226.226,0,0,0,.256-.256V18.713a.226.226,0,0,0-.256-.255H45.828q-.224,0-.224.255v2.876q0,.256.224.256Z" transform="translate(1.444 5.63)" fill="none" stroke="#034baf" stroke-width="6"/>
        <path id="Path_12003" data-name="Path 12003" d="M81.381,20.791a1.84,1.84,0,0,1,1.326.543,1.8,1.8,0,0,1,.559,1.342v8.149a.784.784,0,0,0,.128.448q1.693,2.557,6.519,2.748,2.4.128,4.922.128,4.506,0,9.363-.32h.1a1.234,1.234,0,0,1,1.182,1.182,1.059,1.059,0,0,1-.1.416q-.191.639-.383,1.246a2.671,2.671,0,0,1-.863,1.374,2.163,2.163,0,0,1-1.438.543q-3.739.16-7,.16-3.164,0-5.88-.128a16.621,16.621,0,0,1-4.97-.862A8.733,8.733,0,0,1,81.317,35.3q-.16-.192-.319-.032-1.535,1.342-2.844,2.429a1.444,1.444,0,0,1-.9.319,1.806,1.806,0,0,1-.351-.032,1.44,1.44,0,0,1-1.023-.83l-.7-1.534a2.031,2.031,0,0,1-.192-.862,2.448,2.448,0,0,1,.1-.639,2.147,2.147,0,0,1,.926-1.15q1.31-.8,2.4-1.566a.483.483,0,0,0,.192-.383V25.393a.2.2,0,0,0-.224-.224H77.131a1.91,1.91,0,0,1-1.885-1.886v-.607a1.8,1.8,0,0,1,.559-1.342,1.837,1.837,0,0,1,1.326-.543Zm1.374-8.469a1.626,1.626,0,0,1,.511,1.182.533.533,0,0,1-.032.16,1.816,1.816,0,0,1-.671,1.278l-.894.734a1.737,1.737,0,0,1-1.119.416.951.951,0,0,1-.223-.032,1.786,1.786,0,0,1-1.246-.671,28.131,28.131,0,0,0-2.525-2.461,1.515,1.515,0,0,1-.543-1.182,1.458,1.458,0,0,1,.575-1.214l.607-.479a2.447,2.447,0,0,1,1.47-.543h.064a2.119,2.119,0,0,1,1.406.511A30.7,30.7,0,0,1,82.756,12.322Zm8.6,5.337a1.248,1.248,0,0,1,.527-.815,1.305,1.305,0,0,1,.942-.239.153.153,0,0,0,.112-.048c.032-.032.037-.059.016-.08q-.16-1.181-.255-2.429c0-.148-.085-.223-.256-.223H89.019a1.8,1.8,0,0,1-1.342-.559,1.84,1.84,0,0,1-.543-1.326V11.2a1.84,1.84,0,0,1,.543-1.326,1.8,1.8,0,0,1,1.342-.559h5.848a1.869,1.869,0,0,1,1.342.559,2.04,2.04,0,0,1,.639,1.326,45.163,45.163,0,0,0,.591,5.417A31.761,31.761,0,0,0,98.67,21.4a15.275,15.275,0,0,0,2.174,4.186,14.2,14.2,0,0,0,3.227,3.164,1.339,1.339,0,0,1,.191,2.141l-1.022,1.023a2.342,2.342,0,0,1-1.342.734h-.319a1.926,1.926,0,0,1-1.118-.351,18.045,18.045,0,0,1-5.753-8.245.1.1,0,0,0-.1-.064.1.1,0,0,0-.1.064,20.932,20.932,0,0,1-5.561,8.181,1.9,1.9,0,0,1-1.182.415H87.55a2.248,2.248,0,0,1-1.342-.671l-.959-.958a1.4,1.4,0,0,1-.479-1.054,1.517,1.517,0,0,1,.607-1.246Q89.914,25.169,91.352,17.659Z" transform="translate(-11.446 5.343)" fill="none" stroke="#034baf" stroke-width="6"/>
        <path id="Path_12004" data-name="Path 12004" d="M124.273,10.525a1.313,1.313,0,0,1-.319-.863,1.13,1.13,0,0,1,.063-.351,1.26,1.26,0,0,1,.767-.958l.32-.128A2.6,2.6,0,0,1,126.159,8a2.26,2.26,0,0,1,.543.064,2.348,2.348,0,0,1,1.406.8,21.465,21.465,0,0,1,5.146,14.444,21.343,21.343,0,0,1-5.146,14.412,2.5,2.5,0,0,1-1.406.831,2.224,2.224,0,0,1-.543.064,2.324,2.324,0,0,1-1.054-.256l-.32-.127a1.183,1.183,0,0,1-.767-.927,1.13,1.13,0,0,1-.063-.351,1.439,1.439,0,0,1,.319-.9,19.952,19.952,0,0,0,4.506-12.767A19.955,19.955,0,0,0,124.273,10.525Z" transform="translate(-24.803 5.702)" fill="none" stroke="#034baf" stroke-width="6"/>
        <path id="Path_12005" data-name="Path 12005" d="M16.98,36.058a1.442,1.442,0,0,1,.319.894,1.131,1.131,0,0,1-.063.352,1.182,1.182,0,0,1-.767.926l-.32.128a2.333,2.333,0,0,1-1.054.256,2.26,2.26,0,0,1-.543-.064,2.5,2.5,0,0,1-1.406-.831A21.769,21.769,0,0,1,8,23.308,21.46,21.46,0,0,1,13.146,8.863a2.348,2.348,0,0,1,1.406-.8A2.224,2.224,0,0,1,15.095,8a2.6,2.6,0,0,1,1.054.224l.32.127a1.262,1.262,0,0,1,.767.959,1.131,1.131,0,0,1,.063.351,1.317,1.317,0,0,1-.319.863,19.952,19.952,0,0,0-4.506,12.767A19.954,19.954,0,0,0,16.98,36.058" transform="translate(6.829 5.702)" fill="#f8e520"/>
        <path id="Path_12006" data-name="Path 12006" d="M39.6,24.593a2.327,2.327,0,0,1,.159,2.94l-.479.671a1.089,1.089,0,0,1-.894.447h-.128a1.166,1.166,0,0,1-.927-.607c-.127-.276-.266-.543-.415-.8a.072.072,0,0,0-.08-.016q-.048.016-.048.048v9.747A1.856,1.856,0,0,1,34.9,38.91h-.831a1.84,1.84,0,0,1-1.326-.543,1.8,1.8,0,0,1-.559-1.342V29.036A.028.028,0,0,0,32.15,29a.093.093,0,0,0-.064.032q-.894,1.949-1.726,3.387a.873.873,0,0,1-.766.447.287.287,0,0,1-.128-.032,1.01,1.01,0,0,1-.863-.607q-.255-.575-.543-1.182a3.027,3.027,0,0,1-.319-1.374v-.224a3.14,3.14,0,0,1,.543-1.566,32.025,32.025,0,0,0,3.2-6.232.145.145,0,0,0-.015-.143.158.158,0,0,0-.144-.08h-1.6a1.856,1.856,0,0,1-1.886-1.886V18.9a1.837,1.837,0,0,1,.543-1.326,1.8,1.8,0,0,1,1.342-.559h2.237a.2.2,0,0,0,.223-.223V14.143c0-.148-.075-.212-.223-.191q-.992.159-1.438.223a1.645,1.645,0,0,1-.319.032,1.932,1.932,0,0,1-1.118-.351,2.46,2.46,0,0,1-.959-1.214.131.131,0,0,0-.032-.1,1.807,1.807,0,0,1-.1-.575,1.514,1.514,0,0,1,.192-.735,1.346,1.346,0,0,1,.99-.767,43.615,43.615,0,0,0,6.487-1.694,2.744,2.744,0,0,1,.927-.159,2.347,2.347,0,0,1,.671.1,2.575,2.575,0,0,1,1.374.8l.7.831a1.154,1.154,0,0,1,.319.8.95.95,0,0,1-.063.352,1.112,1.112,0,0,1-.831.862q-.671.224-1.726.511a.3.3,0,0,0-.256.32V16.8q0,.224.256.223h1.022A1.91,1.91,0,0,1,39.948,18.9v.639a1.8,1.8,0,0,1-.559,1.342,1.84,1.84,0,0,1-1.326.543H37.007c-.149,0-.224.069-.224.207a.408.408,0,0,0,.16.336q.831.7,2.653,2.62m14.476,9.651h.415a.294.294,0,0,0,.256-.144,1.59,1.59,0,0,0,.159-.575,12.159,12.159,0,0,0,.1-1.23,1.013,1.013,0,0,1,.575-.894,1.174,1.174,0,0,1,.575-.16,1.34,1.34,0,0,1,.543.128c.192.085.394.171.607.255a2.844,2.844,0,0,1,1.246.991,2.084,2.084,0,0,1,.352,1.15,1.692,1.692,0,0,1-.032.319A6.742,6.742,0,0,1,57.6,37.536a3.317,3.317,0,0,1-2.573.959H53.178q-2.4,0-3.179-1.151a8.111,8.111,0,0,1-.783-4.25v-6.9q0-.224-.255-.224h-.767a.233.233,0,0,0-.256.224,31.927,31.927,0,0,1-.463,3.627,17.184,17.184,0,0,1-.942,3.132,9.846,9.846,0,0,1-1.774,2.86,12.4,12.4,0,0,1-2.8,2.3,1.8,1.8,0,0,1-.863.224,1.717,1.717,0,0,1-.543-.1,2.136,2.136,0,0,1-1.182-.9l-.575-.766a1.484,1.484,0,0,1-.319-.927,1.5,1.5,0,0,1,.031-.287,1.355,1.355,0,0,1,.7-1.022,7.252,7.252,0,0,0,3.036-3.26A15.3,15.3,0,0,0,43.3,26.191a.2.2,0,0,0-.223-.224h-.1a1.8,1.8,0,0,1-1.342-.559,1.839,1.839,0,0,1-.543-1.326V16.221a1.839,1.839,0,0,1,.543-1.326,1.8,1.8,0,0,1,1.342-.559.138.138,0,0,0,.112-.064.26.26,0,0,0,.048-.16,25.135,25.135,0,0,0-1.406-2.876,1.738,1.738,0,0,1-.224-.83,1.53,1.53,0,0,1,.1-.543,1.63,1.63,0,0,1,.927-1.023l.447-.191a2.252,2.252,0,0,1,.894-.192,2.212,2.212,0,0,1,.639.1,2.107,2.107,0,0,1,1.246.926,24.682,24.682,0,0,1,1.246,2.237,1.7,1.7,0,0,1,.192.767,1.485,1.485,0,0,1-.16.671,1.843,1.843,0,0,1-1.022,1.054l-.064.032a.09.09,0,0,0-.032.064.028.028,0,0,0,.032.032h6.551a.032.032,0,0,0,0-.064l-.576-.224a1.531,1.531,0,0,1-.958-.958,1.409,1.409,0,0,1-.128-.575,1.578,1.578,0,0,1,.192-.767q.575-1.085,1.022-2.173a1.984,1.984,0,0,1,.991-1.086,1.772,1.772,0,0,1,1.438-.128l1.342.447a1.437,1.437,0,0,1,.926.9,1.533,1.533,0,0,1,.1.543,1.516,1.516,0,0,1-.192.735q-1.214,1.981-1.981,3.163a.088.088,0,0,0-.016.128.137.137,0,0,0,.112.064h.543a1.8,1.8,0,0,1,1.342.559,1.839,1.839,0,0,1,.543,1.326v7.861a1.839,1.839,0,0,1-.543,1.326,1.8,1.8,0,0,1-1.342.559h-1.31a.2.2,0,0,0-.224.224v6.871a5.784,5.784,0,0,0,.048.99.227.227,0,0,0,.24.192m-1.854-12.4a.226.226,0,0,0,.256-.256V18.713a.226.226,0,0,0-.256-.255H45.828q-.224,0-.224.255v2.876q0,.256.224.256Z" transform="translate(1.444 5.63)" fill="#f8e520"/>
        <path id="Path_12007" data-name="Path 12007" d="M81.381,20.791a1.84,1.84,0,0,1,1.326.543,1.8,1.8,0,0,1,.559,1.342v8.149a.784.784,0,0,0,.128.448q1.693,2.557,6.519,2.748,2.4.128,4.922.128,4.506,0,9.363-.32h.1a1.234,1.234,0,0,1,1.182,1.182,1.059,1.059,0,0,1-.1.416q-.191.639-.383,1.246a2.671,2.671,0,0,1-.863,1.374,2.163,2.163,0,0,1-1.438.543q-3.739.16-7,.16-3.164,0-5.88-.128a16.621,16.621,0,0,1-4.97-.862A8.733,8.733,0,0,1,81.317,35.3q-.16-.192-.319-.032-1.535,1.342-2.844,2.429a1.444,1.444,0,0,1-.9.319,1.806,1.806,0,0,1-.351-.032,1.44,1.44,0,0,1-1.023-.83l-.7-1.534a2.031,2.031,0,0,1-.192-.862,2.448,2.448,0,0,1,.1-.639,2.147,2.147,0,0,1,.926-1.15q1.31-.8,2.4-1.566a.483.483,0,0,0,.192-.383V25.393a.2.2,0,0,0-.224-.224H77.131a1.91,1.91,0,0,1-1.885-1.886v-.607a1.8,1.8,0,0,1,.559-1.342,1.837,1.837,0,0,1,1.326-.543Zm1.374-8.469a1.626,1.626,0,0,1,.511,1.182.533.533,0,0,1-.032.16,1.816,1.816,0,0,1-.671,1.278l-.894.734a1.737,1.737,0,0,1-1.119.416.951.951,0,0,1-.223-.032,1.786,1.786,0,0,1-1.246-.671,28.131,28.131,0,0,0-2.525-2.461,1.515,1.515,0,0,1-.543-1.182,1.458,1.458,0,0,1,.575-1.214l.607-.479a2.447,2.447,0,0,1,1.47-.543h.064a2.119,2.119,0,0,1,1.406.511,30.7,30.7,0,0,1,2.621,2.3m8.6,5.337a1.248,1.248,0,0,1,.527-.815,1.305,1.305,0,0,1,.942-.239.153.153,0,0,0,.112-.048c.032-.032.037-.059.016-.08q-.16-1.181-.255-2.429c0-.148-.085-.223-.256-.223H89.019a1.8,1.8,0,0,1-1.342-.559,1.84,1.84,0,0,1-.543-1.326V11.2a1.84,1.84,0,0,1,.543-1.326,1.8,1.8,0,0,1,1.342-.559h5.848a1.869,1.869,0,0,1,1.342.559,2.04,2.04,0,0,1,.639,1.326,45.163,45.163,0,0,0,.591,5.417A31.761,31.761,0,0,0,98.67,21.4a15.275,15.275,0,0,0,2.174,4.186,14.2,14.2,0,0,0,3.227,3.164,1.339,1.339,0,0,1,.191,2.141l-1.022,1.023a2.342,2.342,0,0,1-1.342.734h-.319a1.926,1.926,0,0,1-1.118-.351,18.045,18.045,0,0,1-5.753-8.245.1.1,0,0,0-.1-.064.1.1,0,0,0-.1.064,20.932,20.932,0,0,1-5.561,8.181,1.9,1.9,0,0,1-1.182.415H87.55a2.248,2.248,0,0,1-1.342-.671l-.959-.958a1.4,1.4,0,0,1-.479-1.054,1.517,1.517,0,0,1,.607-1.246q4.538-3.547,5.976-11.057" transform="translate(-11.446 5.343)" fill="#f8e520"/>
        <path id="Path_12008" data-name="Path 12008" d="M124.273,10.525a1.313,1.313,0,0,1-.319-.863,1.13,1.13,0,0,1,.063-.351,1.26,1.26,0,0,1,.767-.958l.32-.128A2.6,2.6,0,0,1,126.159,8a2.26,2.26,0,0,1,.543.064,2.348,2.348,0,0,1,1.406.8,21.465,21.465,0,0,1,5.146,14.444,21.343,21.343,0,0,1-5.146,14.412,2.5,2.5,0,0,1-1.406.831,2.224,2.224,0,0,1-.543.064,2.324,2.324,0,0,1-1.054-.256l-.32-.127a1.183,1.183,0,0,1-.767-.927,1.13,1.13,0,0,1-.063-.351,1.439,1.439,0,0,1,.319-.9,19.952,19.952,0,0,0,4.506-12.767,19.955,19.955,0,0,0-4.506-12.767" transform="translate(-24.803 5.702)" fill="#f8e520"/>
      </g>
    </g>
  </g>
</svg>
