<svg xmlns="http://www.w3.org/2000/svg" width="1015.574" height="185.732" viewBox="0 0 1015.574 185.732">
  <path id="Path_12562" data-name="Path 12562" d="M-466.464,0a9.994,9.994,0,0,1-7.465-3.11,10.227,10.227,0,0,1-3.021-7.376v-96.687q0-1.244-1.422-1.244h-24.705a9.994,9.994,0,0,1-7.465-3.11,10.227,10.227,0,0,1-3.021-7.376v-6.043a10.227,10.227,0,0,1,3.021-7.376,9.994,9.994,0,0,1,7.465-3.11h84.957a10.079,10.079,0,0,1,7.376,3.11,10.079,10.079,0,0,1,3.11,7.376v6.043a10.079,10.079,0,0,1-3.11,7.376,10.079,10.079,0,0,1-7.376,3.11h-25.061a1.1,1.1,0,0,0-1.244,1.244v96.688a10.079,10.079,0,0,1-3.11,7.376A10.079,10.079,0,0,1-454.911,0Zm87.623,0a9.994,9.994,0,0,1-7.465-3.11,10.227,10.227,0,0,1-3.021-7.376V-134.9a10.141,10.141,0,0,1,3.021-7.465,10.141,10.141,0,0,1,7.465-3.021h11.2a10.227,10.227,0,0,1,7.376,3.021,9.994,9.994,0,0,1,3.11,7.465v24.35l-1.422,17.063a.569.569,0,0,0,.355.533q.355.178.533,0,14.574-13.152,30.748-13.152,16.352,0,24.261,11.02t7.909,31.1v53.5a10.227,10.227,0,0,1-3.021,7.376A9.994,9.994,0,0,1-305.259,0h-11.375A9.994,9.994,0,0,1-324.1-3.11a10.227,10.227,0,0,1-3.021-7.376V-60.074q0-10.309-2.844-14.308t-9.242-4a17.585,17.585,0,0,0-8.442,1.955,47.356,47.356,0,0,0-8.62,6.4,2.909,2.909,0,0,0-.889,2.133v57.408a10.079,10.079,0,0,1-3.11,7.376A10.079,10.079,0,0,1-367.644,0Zm135.256,2.488q-13.863,0-22.306-9.064t-8.442-22.395q0-16.352,13.419-25.416t42.745-12.441q1.422-.178,1.244-1.422-1.777-12.086-15.463-12.086-8,0-17.773,4.443a11.327,11.327,0,0,1-4.8,1.066,11.758,11.758,0,0,1-3.377-.533,10.3,10.3,0,0,1-6.221-5.154l-1.422-2.666a11.042,11.042,0,0,1-1.244-4.977,14.708,14.708,0,0,1,.355-3.2,9.112,9.112,0,0,1,5.154-6.043q17.951-8.709,35.369-8.709,41.945,0,41.945,47.277v48.344a10.079,10.079,0,0,1-3.11,7.376A10.079,10.079,0,0,1-194.886,0h-6.4a11.547,11.547,0,0,1-7.465-2.577,11.422,11.422,0,0,1-4.088-6.665l-.178-.711a.569.569,0,0,0-.533-.355.724.724,0,0,0-.533.178Q-228.478,2.488-243.585,2.488Zm11.2-25.061q7.643,0,14.752-7.287a3.126,3.126,0,0,0,.889-2.311V-46.033a.943.943,0,0,0-1.066-1.066h-.355q-25.416,3.732-25.416,15.641,0,4.443,2.933,6.665T-232.388-22.572ZM-149.03,0A9.994,9.994,0,0,1-156.5-3.11a10.227,10.227,0,0,1-3.021-7.376V-93.133a10.227,10.227,0,0,1,3.021-7.376,9.994,9.994,0,0,1,7.465-3.11h5.332a12.136,12.136,0,0,1,8.087,2.933,11.943,11.943,0,0,1,4.177,7.554l.355,2.133q0,.355.444.355a.867.867,0,0,0,.622-.178q15.641-15.285,32.881-15.285,16.352,0,24.261,11.02t7.909,31.1v53.5A10.227,10.227,0,0,1-67.983-3.11,9.994,9.994,0,0,1-75.448,0H-86.823a9.994,9.994,0,0,1-7.465-3.11,10.227,10.227,0,0,1-3.021-7.376V-60.074q0-10.309-2.844-14.308t-9.242-4a17.585,17.585,0,0,0-8.442,1.955,47.356,47.356,0,0,0-8.62,6.4,2.909,2.909,0,0,0-.889,2.133v57.408a10.079,10.079,0,0,1-3.11,7.376A10.079,10.079,0,0,1-137.833,0ZM-29.415,0A9.994,9.994,0,0,1-36.88-3.11,10.227,10.227,0,0,1-39.9-10.486V-134.9a10.141,10.141,0,0,1,3.021-7.465,10.141,10.141,0,0,1,7.465-3.021h10.486a10.227,10.227,0,0,1,7.376,3.021,9.994,9.994,0,0,1,3.11,7.465V-64.7q0,.533.355.533a.569.569,0,0,0,.533-.355L17.151-95.443a20.883,20.883,0,0,1,17.063-8.176H48.433a4.505,4.505,0,0,1,4.354,2.844,4.318,4.318,0,0,1-.8,5.154L23.194-61.852a1.635,1.635,0,0,0-.178,2.133L55.72-8.887a5.733,5.733,0,0,1,1.066,3.2A5.086,5.086,0,0,1,55.9-3.021,5.273,5.273,0,0,1,50.921,0H36.7a17.238,17.238,0,0,1-8.976-2.488,19.147,19.147,0,0,1-6.665-6.576L4.532-38.213Q4-39.279,3.11-38.391L-7.554-26.3a3.539,3.539,0,0,0-.889,2.311v13.508a10.079,10.079,0,0,1-3.11,7.376A10.079,10.079,0,0,1-18.929,0Zm159.25,40.346q-2.666,0-4.977-.178a8.174,8.174,0,0,1-6.576-4.088,9.837,9.837,0,0,1-1.244-8l1.066-4.088a9.814,9.814,0,0,1,4.443-6.221,20.533,20.533,0,0,1,8.176-3.021Q141.21,13.33,144.587,2.666l1.244-4.088a3.621,3.621,0,0,0-.178-2.488l-35.369-89.4a8.05,8.05,0,0,1-.533-2.844,7.235,7.235,0,0,1,1.244-3.91,6.794,6.794,0,0,1,5.865-3.021h11.73a14.111,14.111,0,0,1,8.442,2.755,13.883,13.883,0,0,1,5.243,7.2l10.486,32.881q1.066,3.2,8,28.971a.637.637,0,0,0,.622.355q.444,0,.444-.355,1.777-8.531,6.754-28.971l9.064-32.7a13.13,13.13,0,0,1,4.977-7.376,13.726,13.726,0,0,1,8.354-2.755h9.775a6.961,6.961,0,0,1,6.043,3.021,7.091,7.091,0,0,1,1.6,4.266,7.615,7.615,0,0,1-.533,2.666L175.69.533q-8,21.15-18.04,30.481T129.835,40.346ZM270.067,2.488a50.128,50.128,0,0,1-19.106-3.732A51.791,51.791,0,0,1,234.7-11.73a47.837,47.837,0,0,1-11.286-17.151,60.729,60.729,0,0,1-4.177-22.839,61.415,61.415,0,0,1,4.177-22.928A47.7,47.7,0,0,1,234.7-91.889a51.791,51.791,0,0,1,16.263-10.486,50.128,50.128,0,0,1,19.106-3.732,49.018,49.018,0,0,1,18.84,3.732,52.072,52.072,0,0,1,16.174,10.486,47.7,47.7,0,0,1,11.286,17.24,61.414,61.414,0,0,1,4.177,22.928,60.728,60.728,0,0,1-4.177,22.839A47.837,47.837,0,0,1,305.081-11.73,52.071,52.071,0,0,1,288.907-1.244,49.018,49.018,0,0,1,270.067,2.488Zm0-26.127a14.21,14.21,0,0,0,13.063-7.376q4.354-7.376,4.354-20.706t-4.354-20.795a14.178,14.178,0,0,0-13.063-7.465,14.524,14.524,0,0,0-13.33,7.465q-4.443,7.465-4.443,20.795t4.443,20.706Q261.181-23.639,270.067-23.639ZM372.087,2.488q-16.529,0-24.35-10.931t-7.82-31.015V-93.133a10.227,10.227,0,0,1,3.021-7.376,9.994,9.994,0,0,1,7.465-3.11h11.375a10.079,10.079,0,0,1,7.376,3.11,10.079,10.079,0,0,1,3.11,7.376v49.588q0,10.486,2.755,14.485t9.153,4a17.423,17.423,0,0,0,9.064-2.222,26.408,26.408,0,0,0,7.465-7.376,3.539,3.539,0,0,0,.889-2.311V-93.133a10.227,10.227,0,0,1,3.021-7.376,9.994,9.994,0,0,1,7.465-3.11h11.375a10.079,10.079,0,0,1,7.376,3.11,10.079,10.079,0,0,1,3.11,7.376v82.646a10.079,10.079,0,0,1-3.11,7.376A10.079,10.079,0,0,1,423.452,0H418.12a12.136,12.136,0,0,1-8.087-2.933,11.828,11.828,0,0,1-4.177-7.376l-.533-3.555a.569.569,0,0,0-.533-.355.569.569,0,0,0-.533.355A53.507,53.507,0,0,1,389.683-1.688,36.1,36.1,0,0,1,372.087,2.488ZM490.458-52.076a10.744,10.744,0,0,1-7.643,3.021,10.744,10.744,0,0,1-7.643-3.021,11.15,11.15,0,0,1-3.555-7.465l-3.91-51.187L467-128.857a9.707,9.707,0,0,1,2.755-7.465,9.849,9.849,0,0,1,7.376-3.021h11.553a9.931,9.931,0,0,1,7.287,3.021,9.563,9.563,0,0,1,2.844,7.465l-.711,18.129-3.91,51.188A10.849,10.849,0,0,1,490.458-52.076ZM482.815,2.488a18.069,18.069,0,0,1-13.774-5.776A20.109,20.109,0,0,1,463.62-17.6,20.109,20.109,0,0,1,469.041-31.9a18.069,18.069,0,0,1,13.774-5.776A18.069,18.069,0,0,1,496.59-31.9,20.109,20.109,0,0,1,502.011-17.6,20.109,20.109,0,0,1,496.59-3.288,18.069,18.069,0,0,1,482.815,2.488Z" transform="translate(513.563 145.387)" fill="#fff"/>
</svg>
