<svg xmlns="http://www.w3.org/2000/svg" width="49.362" height="46.451" viewBox="0 0 49.362 46.451">
  <path id="Icon_awesome-tools" data-name="Icon awesome-tools" d="M48.309,35.9,37.021,25.273a7.5,7.5,0,0,0-8.233-1.261l-10.277-9.67V8.709L6.171,0,0,5.806,9.256,17.417h5.987l10.277,9.67a6.455,6.455,0,0,0,1.34,7.747L38.148,45.457a3.745,3.745,0,0,0,5.081,0l5.081-4.781a3.249,3.249,0,0,0,0-4.781ZM31.979,20.411A10.475,10.475,0,0,1,39.2,23.223l1.87,1.76a13.727,13.727,0,0,0,4.223-2.676,12.531,12.531,0,0,0,3.654-12.4,1.181,1.181,0,0,0-1.938-.5l-7.172,6.749L33.29,15.131,32.2,8.972l7.172-6.749A1.074,1.074,0,0,0,38.823.39,14.485,14.485,0,0,0,25.654,3.828a12.46,12.46,0,0,0-3.972,9.4L29.6,20.674A11.131,11.131,0,0,1,31.979,20.411ZM21.962,27.85,16.5,22.706,1.8,36.54a5.565,5.565,0,0,0,0,8.21,6.444,6.444,0,0,0,8.725,0L22.444,33.537a9.2,9.2,0,0,1-.482-5.688ZM6.171,42.818a2.181,2.181,0,1,1,0-4.354,2.181,2.181,0,1,1,0,4.354Z" transform="translate(0.004)" fill="#0154ac"/>
</svg>
