<?xml version="1.0" encoding="UTF-8"?><svg id="_レイヤー_2" xmlns="http://www.w3.org/2000/svg" viewBox="0 0 258.05 286.4"><defs><style>.cls-1{stroke:#2f73a5;stroke-linecap:round;stroke-width:3px;}.cls-1,.cls-2,.cls-3,.cls-4,.cls-5,.cls-6{fill:none;stroke-miterlimit:10;}.cls-7{fill:#eedd31;}.cls-8{fill:#fff;}.cls-9{fill:#e71f19;}.cls-10{fill:#b7282c;}.cls-11{fill:#ac2c24;}.cls-12{fill:#231815;}.cls-2{stroke-width:17px;}.cls-2,.cls-5{stroke:#cf131b;}.cls-3{stroke-width:10px;}.cls-3,.cls-4,.cls-6{stroke:#fff;}.cls-4{stroke-width:4px;}.cls-5{stroke-width:13px;}.cls-6{stroke-width:7px;}</style></defs><g id="_レイヤー_1-2"><g><path id="Path_9807" class="cls-7" d="M256.05,154.69c0,6.45-16.4,11.58-17.35,17.76-.97,6.35,13.11,16.17,11.22,22.15-1.93,6.11-19.11,6.02-21.92,11.66-2.85,5.71,7.56,19.37,3.9,24.52-3.69,5.19-20.01-.15-24.44,4.38-4.38,4.48,1.4,20.62-3.62,24.36s-18.81-6.42-24.37-3.51c-5.52,2.89-5.04,20.03-11.02,22.02-5.88,1.96-15.77-12.02-22.02-11.02-6.09,.98-11.06,17.39-17.42,17.39s-11.33-16.41-17.42-17.39c-6.25-1.01-16.13,12.98-22.02,11.02-5.98-1.99-5.5-19.13-11.02-22.02-5.56-2.91-19.36,7.25-24.37,3.51s.76-19.88-3.62-24.36c-4.43-4.53-20.75,.82-24.44-4.38-3.66-5.15,6.75-18.8,3.9-24.52-2.81-5.64-19.99-5.56-21.92-11.66-1.89-5.99,12.19-15.8,11.22-22.15-.95-6.18-17.35-11.31-17.35-17.76s16.4-11.58,17.35-17.76c.97-6.35-13.11-16.17-11.22-22.15,1.93-6.1,19.11-6.02,21.92-11.66,2.85-5.72-7.56-19.37-3.9-24.52,3.69-5.19,20.01,.15,24.44-4.38,4.38-4.48-1.4-20.62,3.62-24.36s18.81,6.42,24.37,3.51c5.52-2.89,5.04-20.03,11.02-22.02,5.88-1.96,15.77,12.02,22.02,11.01,6.09-.98,11.06-17.39,17.42-17.39s11.34,16.41,17.43,17.39c6.25,1.01,16.13-12.98,22.02-11.01,5.98,1.99,5.5,19.13,11.02,22.02,5.56,2.91,19.36-7.25,24.37-3.51,5.01,3.74-.76,19.88,3.62,24.36,4.43,4.53,20.75-.82,24.44,4.38,3.66,5.15-6.75,18.8-3.9,24.52,2.81,5.64,19.99,5.55,21.92,11.66,1.89,5.99-12.19,15.8-11.22,22.15,.94,6.18,17.34,11.31,17.34,17.76Z"/><path id="Path_9808" class="cls-4" d="M256.05,154.69c0,6.45-16.4,11.58-17.35,17.76-.97,6.35,13.11,16.17,11.22,22.15-1.93,6.11-19.11,6.02-21.92,11.66-2.85,5.71,7.56,19.37,3.9,24.52-3.69,5.19-20.01-.15-24.44,4.38-4.38,4.48,1.4,20.62-3.62,24.36s-18.81-6.42-24.37-3.51c-5.52,2.89-5.04,20.03-11.02,22.02-5.88,1.96-15.77-12.02-22.02-11.02-6.09,.98-11.06,17.39-17.42,17.39s-11.33-16.41-17.42-17.39c-6.25-1.01-16.13,12.98-22.02,11.02-5.98-1.99-5.5-19.13-11.02-22.02-5.56-2.91-19.36,7.25-24.37,3.51s.76-19.88-3.62-24.36c-4.43-4.53-20.75,.82-24.44-4.38-3.66-5.15,6.75-18.8,3.9-24.52-2.81-5.64-19.99-5.56-21.92-11.66-1.89-5.99,12.19-15.8,11.22-22.15-.95-6.18-17.35-11.31-17.35-17.76s16.4-11.58,17.35-17.76c.97-6.35-13.11-16.17-11.22-22.15,1.93-6.1,19.11-6.02,21.92-11.66,2.85-5.72-7.56-19.37-3.9-24.52,3.69-5.19,20.01,.15,24.44-4.38,4.38-4.48-1.4-20.62,3.62-24.36s18.81,6.42,24.37,3.51c5.52-2.89,5.04-20.03,11.02-22.02,5.88-1.96,15.77,12.02,22.02,11.01,6.09-.98,11.06-17.39,17.42-17.39s11.34,16.41,17.43,17.39c6.25,1.01,16.13-12.98,22.02-11.01,5.98,1.99,5.5,19.13,11.02,22.02,5.56,2.91,19.36-7.25,24.37-3.51,5.01,3.74-.76,19.88,3.62,24.36,4.43,4.53,20.75-.82,24.44,4.38,3.66,5.15-6.75,18.8-3.9,24.52,2.81,5.64,19.99,5.55,21.92,11.66,1.89,5.99-12.19,15.8-11.22,22.15,.94,6.18,17.34,11.31,17.34,17.76Z"/><line id="Line_481" class="cls-1" x1="29.84" y1="124.07" x2="228.06" y2="124.07"/><path id="Path_9809" class="cls-11" d="M44.82,141.98c.08-.03,.16-.04,.25-.04,.19,0,.38,.06,.53,.18,.23,.17,.39,.43,.44,.71l.16,.93c.02,.08,.04,.16,.04,.24,0,.22-.07,.43-.19,.61-.14,.24-.38,.39-.65,.43-.14,.03-.34,.06-.59,.11s-.4,.08-.45,.09c-.18,.03-.66,.11-1.46,.26-.8,.14-1.47,.26-2.01,.36-.08,.01-.12,.07-.11,.18,.28,1.63,.47,2.72,.56,3.28,.06,.24,.13,.55,.21,.93,.07,.29,.03,.59-.12,.85-.13,.25-.36,.42-.63,.47l-1.09,.22c-.06,.01-.12,.02-.18,.02-.22,0-.42-.09-.58-.24-.22-.19-.36-.46-.39-.75-.04-.41-.08-.73-.12-.97-.02-.21-.2-1.31-.53-3.3,0-.07-.05-.12-.12-.12-.01,0-.02,0-.04,0-1.88,.36-3.17,.61-3.87,.77-.36,.08-.66,.14-.9,.18-.07,.01-.14,.02-.21,.02-.2,0-.4-.06-.56-.18-.23-.18-.39-.44-.44-.73l-.19-.97c-.01-.07-.02-.14-.02-.22,0-.21,.06-.42,.18-.59,.14-.24,.39-.39,.67-.41l.99-.16c.18-.03,.71-.12,1.61-.28s1.66-.29,2.28-.4c.08-.01,.12-.07,.1-.18l-.42-2.47c-.02-.1-.08-.15-.16-.14-1.5,.28-2.55,.47-3.15,.59-.26,.05-.51,.11-.76,.18-.08,.03-.16,.04-.25,.04-.19,0-.38-.06-.53-.18-.23-.17-.39-.43-.44-.71l-.18-1.05c-.01-.07-.02-.14-.02-.22,0-.22,.07-.43,.19-.61,.15-.23,.4-.38,.67-.4,.27-.03,.51-.06,.72-.1,.86-.12,1.93-.29,3.22-.51,.09-.01,.13-.07,.1-.18l-.26-1.52c-.04-.17-.07-.34-.11-.49-.02-.1-.03-.2-.04-.3,0-.2,.05-.39,.16-.55,.12-.25,.35-.42,.62-.45l1.04-.2h.17c.22,0,.43,.08,.6,.22,.22,.2,.36,.47,.39,.77,.02,.2,.05,.36,.07,.49,.01,.07,.09,.59,.25,1.56,.02,.09,.08,.13,.16,.12,1.16-.21,2.18-.41,3.06-.59,.28-.05,.58-.12,.9-.2,.08-.01,.15-.02,.23-.02,.2,0,.39,.06,.54,.18,.23,.17,.39,.43,.42,.71l.14,.91c.01,.07,.02,.13,.02,.2,0,.23-.06,.45-.19,.63-.15,.24-.39,.41-.67,.46-.47,.07-.75,.1-.83,.12l-3.13,.57c-.1,.01-.13,.07-.11,.16l.4,2.49c.02,.09,.08,.13,.16,.12,1.64-.32,2.8-.55,3.48-.69,.32-.06,.64-.13,.97-.22Z"/><path id="Path_9810" class="cls-11" d="M60.71,146.4c-.17,.25-.44,.43-.74,.49-.09,.03-.17,.04-.26,.04-.21,0-.42-.05-.6-.16l-.53-.3c-.22-.13-.37-.36-.4-.61-.01-.05-.02-.1-.02-.16,0-.22,.07-.43,.21-.59,.61-.74,1.16-1.53,1.64-2.37,.01-.02,0-.05,0-.07-.02-.02-.04-.03-.06-.03-.53,.1-1.59,.35-3.18,.73-.07,.02-.11,.09-.09,.16,0,0,0,.01,0,.02,.95,3.86,1.5,6.05,1.64,6.59,.05,.18,.11,.42,.19,.71,.04,.11,.05,.22,.05,.33,0,.18-.04,.35-.12,.51-.12,.26-.34,.45-.61,.53l-.93,.26c-.08,.01-.15,.02-.23,.02-.19,0-.38-.06-.53-.18-.23-.17-.39-.43-.44-.71-.04-.27-.1-.54-.18-.81-.11-.41-.35-1.42-.72-3.05-.37-1.63-.65-2.81-.83-3.56-.02-.1-.08-.15-.16-.12-.87,.21-1.55,.38-2.06,.51-.08,.01-.15,.02-.23,.02-.2,0-.4-.06-.56-.18-.25-.17-.42-.43-.47-.73l-.14-.65c-.02-.08-.03-.17-.04-.26,0-.19,.06-.38,.16-.55,.14-.23,.38-.39,.65-.43l.7-.12c.31-.05,.76-.14,1.36-.28,.08-.01,.11-.07,.09-.16-.14-.63-.26-1.14-.37-1.52-.04-.17-.08-.33-.14-.49-.05-.12-.07-.25-.07-.38,0-.16,.04-.31,.11-.45,.09-.24,.3-.42,.54-.49l.9-.24c.08-.03,.16-.04,.25-.04,.19,0,.38,.07,.53,.2,.23,.17,.39,.43,.44,.71,.01,.05,.02,.11,.04,.17s.03,.12,.04,.2c.01,.05,.02,.1,.03,.15l.4,1.62c.02,.1,.08,.15,.16,.12,2.92-.63,4.59-1,5-1.1h.04c.21-.05,.43-.08,.65-.08,.43,0,.84,.13,1.18,.4l.07,.04c.25,.2,.41,.48,.47,.79,.02,.1,.03,.21,.04,.32,0,.21-.05,.42-.14,.61-.79,1.6-1.68,3.14-2.69,4.6Z"/><path id="Path_9811" class="cls-11" d="M68.84,141.51c-.06-.14-.09-.29-.09-.43,0-.14,.03-.28,.07-.41,.09-.27,.29-.49,.55-.59l.67-.26c.12-.05,.25-.08,.39-.08,.15,0,.3,.03,.44,.1,.28,.12,.5,.35,.6,.63,.29,.78,.59,1.61,.9,2.51,.05,.13,.07,.27,.07,.41,0,.16-.03,.32-.1,.47-.1,.27-.31,.5-.58,.61l-.72,.3c-.11,.05-.23,.08-.35,.08-.15,0-.3-.04-.44-.12-.25-.14-.44-.37-.51-.65-.32-.98-.62-1.83-.89-2.57Zm9.87-1.48c.03-.28,.18-.53,.4-.69,.13-.1,.28-.16,.44-.16,.09,0,.18,.01,.26,.04l1.11,.39c.27,.1,.48,.31,.6,.57,.07,.17,.1,.35,.1,.53,0,.12-.01,.24-.04,.35-.05,.16-.1,.38-.18,.67-.45,2.04-1.27,3.98-2.43,5.72-1.31,1.97-3.08,3.58-5.16,4.7-.18,.1-.38,.16-.58,.16-.1,0-.2-.01-.3-.04-.31-.07-.59-.24-.79-.49l-.83-.95c-.12-.13-.19-.3-.19-.47,0-.07,.01-.14,.04-.2,.04-.23,.2-.43,.42-.51,.99-.42,1.92-.96,2.78-1.6,.87-.63,1.63-1.39,2.25-2.27,.55-.8,.99-1.67,1.3-2.59,.37-1.03,.63-2.09,.78-3.18Zm-5.7,.32c-.05-.13-.07-.27-.07-.41,0-.16,.03-.31,.09-.45,.1-.26,.3-.47,.56-.57l.61-.22c.27-.12,.57-.1,.83,.04,.27,.14,.47,.38,.56,.67,.26,.74,.52,1.5,.77,2.29,.05,.13,.07,.26,.07,.4,0,.17-.03,.34-.1,.49-.11,.27-.33,.48-.6,.59l-.65,.26c-.11,.04-.22,.06-.33,.06-.16,0-.32-.04-.46-.12-.25-.15-.43-.39-.51-.67-.25-.83-.51-1.62-.78-2.35h0Z"/><path id="Path_9812" class="cls-11" d="M86.05,142.2c-.3-.24-.49-.6-.49-.99,0-.2,.06-.4,.16-.57l.44-.75c.15-.26,.38-.46,.67-.55,.09-.03,.19-.04,.28-.04,.19,0,.38,.06,.53,.18,.79,.51,1.6,1.08,2.45,1.7,.25,.17,.41,.44,.46,.73,.01,.08,.02,.17,.02,.26,0,.22-.06,.44-.18,.63l-.46,.81c-.15,.25-.39,.43-.67,.49-.07,.01-.14,.02-.21,.02-.2,0-.4-.07-.56-.2-.89-.67-1.7-1.24-2.43-1.72Zm2.45,9.33c-.29,.07-.59,.04-.86-.08-.28-.16-.51-.4-.65-.69l-.62-1.2c-.07-.12-.1-.26-.11-.39,0-.12,.02-.24,.07-.36,.08-.24,.29-.43,.55-.47,1.82-.39,3.56-1.07,5.16-2.01,1.37-.85,2.62-1.85,3.75-3,1.1-1.1,2.05-2.35,2.83-3.69,.1-.2,.31-.32,.53-.32,.22,0,.43,.13,.51,.34l.67,1.32c.14,.28,.21,.59,.21,.91v.1c-.02,.34-.13,.68-.32,.97-1.79,2.54-4.06,4.7-6.69,6.35-1.57,.97-3.26,1.72-5.04,2.23h0Zm.35-13.99c-.24-.16-.4-.41-.46-.69-.01-.09-.02-.18-.02-.28,0-.2,.06-.4,.16-.57l.44-.77c.14-.26,.38-.45,.67-.53,.09-.02,.17-.04,.26-.04,.2,0,.39,.06,.54,.18,.79,.51,1.6,1.07,2.45,1.68,.24,.19,.39,.45,.44,.75,.01,.08,.02,.16,.02,.24,0,.22-.06,.44-.18,.63l-.46,.77c-.14,.26-.38,.44-.67,.49-.07,.03-.14,.04-.21,.04-.2,0-.4-.07-.56-.2-.88-.63-1.7-1.19-2.43-1.69h0Z"/><path id="Path_9813" class="cls-11" d="M114.77,147.94c-.01,.09,.03,.14,.12,.14h.67c.26,0,.57,0,.93-.02h.05c.26,0,.5,.11,.67,.3,.21,.21,.32,.49,.32,.79v.83c0,.3-.11,.59-.32,.81-.17,.2-.42,.32-.69,.32h-.04c-.39-.01-.69-.02-.9-.02h-10.2c-.26,0-.52-.11-.69-.32-.21-.21-.33-.49-.32-.79v-.85c0-.3,.11-.58,.32-.79,.18-.18,.42-.28,.67-.28h.05c.33,.01,.63,.02,.9,.02h5.31c.08,0,.13-.05,.14-.14,.34-2.17,.55-3.78,.62-4.82,.01-.1-.03-.16-.12-.16h-4.26c-.25,0-.57,.01-.97,.04h-.05c-.26,0-.5-.12-.67-.32-.21-.21-.33-.49-.32-.79v-.89c0-.29,.11-.57,.32-.77,.16-.19,.4-.3,.65-.3,.02,0,.05,0,.07,.02,.39,.01,.7,.02,.95,.02h4.15c.15,0,.34,0,.56-.02,.18-.03,.36-.04,.55-.04,.49-.01,.97,.09,1.41,.32l.23,.14c.26,.15,.47,.39,.58,.67,.09,.23,.14,.47,.14,.71,0,.09,0,.17-.02,.26-.11,.76-.38,2.74-.83,5.92Z"/><path id="Path_9814" class="cls-11" d="M123.14,144.11c.76-2.14,1.28-4.36,1.57-6.61,.02-.29,.16-.56,.39-.75,.15-.13,.35-.2,.54-.2,.07,0,.13,0,.19,.02l1.16,.28c.27,.07,.5,.25,.63,.49,.1,.18,.16,.38,.16,.59,0,.09-.01,.19-.04,.28-.12,.54-.19,.94-.23,1.2-.12,.75-.32,1.7-.62,2.85-.29,1.15-.58,2.18-.86,3.09-.54,1.7-1.23,3.34-2.08,4.92-.19,.4-.6,.65-1.04,.65-.17,0-.34-.04-.49-.12l-1.16-.55c-.24-.11-.42-.33-.48-.59-.02-.09-.04-.18-.04-.28,0-.19,.06-.37,.16-.53,.9-1.5,1.64-3.08,2.22-4.73Zm8.9-.22c-.61-1.95-1.33-3.87-2.15-5.74-.06-.14-.09-.3-.09-.45,0-.14,.02-.27,.07-.4,.09-.26,.29-.46,.54-.55l.93-.34c.12-.05,.25-.08,.39-.08,.16,0,.32,.04,.46,.12,.28,.13,.5,.35,.62,.63,.82,1.9,1.56,3.8,2.22,5.72,.57,1.67,1.17,3.67,1.78,6,.02,.12,.03,.24,.04,.36,0,.19-.04,.38-.12,.55-.12,.27-.34,.48-.62,.59l-1.29,.45c-.26,.1-.54,.07-.77-.08-.24-.16-.4-.41-.46-.69-.51-2.43-1.03-4.46-1.54-6.09h0Zm.88-8.05c-.07-.14-.11-.3-.11-.45,0-.09,.01-.19,.04-.28,.06-.24,.22-.43,.44-.53,.12-.06,.26-.1,.4-.1,.11,0,.23,.02,.34,.06,.26,.09,.47,.28,.58,.53,.15,.29,.32,.61,.49,.97,.07,.14,.1,.3,.1,.45,0,.11-.02,.21-.05,.32-.07,.25-.24,.45-.48,.55-.12,.06-.25,.1-.39,.1-.12,0-.23-.03-.33-.08-.25-.1-.45-.29-.56-.53-.17-.4-.32-.73-.46-1.01h0Zm2.24-.99c-.08-.14-.12-.29-.12-.45,0-.09,.01-.17,.04-.26,.05-.24,.21-.44,.44-.53,.12-.06,.26-.1,.4-.1,.11,0,.23,.02,.33,.06,.26,.09,.47,.27,.6,.51,.16,.32,.33,.65,.49,.99,.07,.14,.1,.28,.1,.43,0,.11-.02,.21-.05,.32-.06,.24-.23,.44-.46,.55-.12,.06-.25,.1-.39,.1-.12,0-.23-.03-.34-.08-.25-.09-.45-.29-.54-.53-.17-.36-.33-.69-.5-1.01h0Z"/><path id="Path_9815" class="cls-11" d="M140.91,141.51c-.06-.14-.09-.29-.09-.43,0-.14,.02-.28,.07-.41,.09-.27,.29-.49,.55-.59l.67-.26c.12-.05,.25-.08,.39-.08,.15,0,.3,.03,.44,.1,.28,.12,.5,.35,.6,.63,.29,.78,.59,1.61,.9,2.51,.05,.13,.07,.27,.07,.41,0,.16-.03,.32-.1,.47-.1,.27-.31,.5-.58,.61l-.72,.3c-.11,.05-.23,.08-.35,.08-.15,0-.31-.04-.44-.12-.25-.14-.44-.37-.51-.65-.32-.98-.62-1.83-.89-2.57Zm9.87-1.48c.03-.28,.18-.53,.4-.69,.13-.1,.28-.16,.44-.16,.09,0,.18,.01,.26,.04l1.11,.39c.27,.1,.48,.31,.6,.57,.07,.17,.1,.35,.1,.53,0,.12-.01,.24-.04,.35-.05,.16-.1,.38-.18,.67-.45,2.04-1.27,3.98-2.43,5.72-1.31,1.97-3.08,3.58-5.16,4.7-.18,.1-.38,.16-.58,.16-.1,0-.2-.01-.3-.04-.31-.07-.59-.24-.79-.49l-.83-.95c-.12-.13-.19-.3-.19-.47,0-.07,.01-.14,.04-.2,.04-.23,.2-.43,.42-.51,.99-.42,1.92-.96,2.78-1.6,.87-.63,1.63-1.39,2.25-2.27,.55-.8,.99-1.67,1.3-2.59,.37-1.03,.63-2.09,.78-3.18Zm-5.7,.32c-.04-.13-.07-.27-.07-.41,0-.16,.03-.31,.09-.45,.1-.26,.3-.47,.56-.57l.62-.22c.27-.12,.57-.1,.83,.04,.27,.14,.47,.38,.56,.67,.26,.74,.52,1.5,.77,2.29,.05,.13,.07,.26,.07,.4,0,.17-.04,.34-.1,.49-.11,.27-.33,.49-.6,.59l-.65,.26c-.11,.04-.22,.06-.33,.06-.16,0-.32-.04-.46-.12-.25-.15-.43-.39-.51-.67-.25-.83-.5-1.62-.77-2.35h0Z"/><path id="Path_9816" class="cls-11" d="M169.23,136.67c.15-.01,.3-.02,.44-.02,.52-.01,1.03,.13,1.46,.41l.46,.32c.24,.18,.41,.44,.48,.73,.02,.12,.03,.24,.04,.35,0,.19-.03,.38-.1,.55-.09,.21-.16,.42-.23,.63-.65,2.37-1.7,4.62-3.12,6.63-.79,1.1-1.71,2.1-2.74,2.98-1.11,.93-2.33,1.72-3.62,2.37-.19,.1-.41,.16-.63,.16-.09,0-.18,0-.26-.02-.32-.05-.61-.2-.83-.43l-1.04-1.05c-.14-.12-.21-.29-.21-.47,0-.05,0-.11,.02-.16,.03-.23,.18-.43,.4-.51,1.31-.48,2.55-1.15,3.68-1.98,.98-.76,1.86-1.64,2.62-2.62,.58-.74,1.07-1.56,1.46-2.42,.39-.8,.69-1.64,.9-2.5,.02-.09-.01-.14-.1-.14h-4.23c-.09,0-.17,.05-.21,.12-1.05,1.47-2.27,2.82-3.62,4.03-.23,.19-.52,.3-.83,.3-.31,0-.61-.11-.84-.32l-.77-.65c-.2-.15-.31-.39-.3-.63,0-.27,.12-.53,.33-.69,.59-.46,1.15-.96,1.68-1.49,.49-.49,.94-1.01,1.35-1.57,.39-.53,.7-.97,.93-1.34,.23-.37,.49-.8,.77-1.28,.24-.42,.44-.87,.6-1.32,.09-.28,.29-.51,.54-.65,.24-.15,.53-.18,.79-.08l1.21,.45c.25,.09,.43,.3,.49,.55,.03,.1,.05,.2,.05,.3,0,.17-.04,.33-.12,.47-.14,.26-.3,.57-.49,.91-.01,.03,0,.06,0,.09,.02,.03,.04,.05,.06,.05h2.78c.25,0,.51-.02,.76-.06Z"/><path id="Path_9817" class="cls-11" d="M183.85,148.32c0,.1,.05,.16,.14,.16h6.3c.28,0,.56,.12,.74,.34,.2,.23,.31,.52,.3,.83v.63c0,.3-.1,.6-.3,.83-.18,.22-.46,.34-.74,.33h-14.56c-.28,0-.56-.12-.74-.33-.2-.23-.31-.52-.3-.83v-.63c0-.3,.1-.6,.3-.83,.18-.22,.46-.34,.74-.34h5.15c.08,0,.12-.05,.12-.16v-13.68c0-.31,.1-.6,.31-.83,.18-.21,.45-.34,.73-.34h.76c.28,0,.56,.12,.74,.34,.2,.23,.31,.52,.3,.83v4.26c0,.07,.04,.13,.11,.14,.01,0,.02,0,.03,0h5.01c.29,0,.56,.12,.74,.35,.2,.23,.31,.52,.3,.82v.65c0,.3-.1,.59-.3,.82-.18,.22-.45,.35-.74,.35h-5.01c-.07-.01-.13,.04-.14,.1,0,.01,0,.02,0,.03v6.16Z"/><path id="Path_9818" class="cls-11" d="M208.47,145.79c0,.3-.11,.59-.31,.82-.18,.22-.45,.34-.73,.35h-3.29s-.02,0-.03,.03c0,.02,0,.04,0,.05,1.33,1.04,2.84,1.84,4.45,2.37,.22,.08,.38,.26,.42,.49,.02,.06,.04,.13,.04,.2,0,.17-.06,.34-.16,.47-.22,.29-.44,.59-.65,.91-.16,.26-.4,.47-.69,.59-.13,.04-.26,.06-.39,.06-.16,0-.31-.04-.46-.1-1.6-.76-3.05-1.78-4.31-3.02-.01-.01-.03-.02-.05-.01-.02,0-.04,.03-.04,.07v2.15c0,.31-.1,.6-.31,.83-.18,.21-.45,.34-.73,.33h-.58c-.28,0-.55-.12-.73-.33-.21-.23-.32-.52-.31-.83v-2.15s-.01-.06-.04-.07c-.02,0-.04,0-.05,.01-1.25,1.24-2.69,2.27-4.28,3.04-.15,.07-.31,.1-.48,.1-.13,0-.25-.02-.37-.06-.3-.11-.55-.31-.72-.57-.16-.25-.33-.49-.49-.71-.1-.14-.16-.3-.16-.47,0-.07,0-.13,.02-.2,.04-.24,.2-.43,.42-.51,1.62-.59,3.13-1.47,4.45-2.59,.02-.01,.03-.03,.02-.05s-.02-.03-.04-.03h-3.2c-.28,0-.55-.13-.73-.35-.2-.22-.31-.52-.31-.82v-.16c0-.31,.1-.6,.31-.83,.18-.21,.45-.34,.73-.34h.93c.08,0,.12-.05,.12-.16v-.69c0-.09-.04-.14-.12-.14h-1.65c-.28,0-.55-.13-.73-.35-.2-.22-.31-.52-.31-.82v-.18c0-.31,.1-.6,.31-.83,.18-.21,.45-.34,.73-.34h1.65c.08,0,.12-.05,.12-.16v-.65c0-.09-.04-.14-.12-.14h-.58c-.29,0-.56-.12-.74-.35-.2-.23-.31-.52-.3-.82v-.16c0-.3,.1-.6,.3-.83,.18-.22,.46-.34,.74-.34h4.43c.08,0,.12-.05,.12-.16v-.41c0-.09-.04-.14-.12-.14-1.46,.1-2.82,.17-4.1,.2h-.04c-.28,0-.54-.12-.74-.32-.23-.22-.39-.5-.46-.81-.01-.08-.03-.16-.05-.24-.02-.09-.04-.18-.04-.28,0-.17,.05-.35,.14-.49,.11-.22,.33-.36,.58-.38,3.53-.09,7.05-.44,10.52-1.04,.1-.03,.21-.04,.32-.04,.21,0,.41,.04,.6,.12,.3,.13,.56,.34,.74,.61l.4,.57c.15,.2,.18,.46,.09,.69-.06,.23-.24,.4-.48,.45-1.35,.27-2.88,.5-4.59,.69-.08,0-.12,.05-.12,.16v.65c0,.11,.04,.16,.12,.16h4.61c.28,0,.56,.12,.74,.34,.2,.23,.31,.52,.3,.83v.16c0,.3-.1,.59-.3,.82-.18,.22-.45,.35-.74,.35h-.72c-.08,0-.12,.05-.12,.14v.65c0,.11,.04,.16,.12,.16h1.78c.28,0,.55,.12,.73,.34,.21,.23,.32,.52,.31,.83v.18c0,.3-.11,.6-.31,.82-.18,.22-.45,.35-.73,.35h-1.78c-.08,0-.12,.05-.12,.14v.69c0,.1,.04,.16,.12,.16h1.13c.28,0,.55,.12,.73,.34,.21,.23,.32,.52,.31,.83v.15Zm-10.02-5.76c-.07-.01-.13,.04-.14,.1,0,.01,0,.02,0,.04v.65c0,.11,.05,.16,.14,.16h1.06c.08,0,.12-.05,.12-.16v-.65c0-.09-.04-.14-.12-.14h-1.06Zm0,3.45c-.07,0-.13,.04-.14,.1,0,.01,0,.02,0,.03v.69c0,.1,.05,.16,.14,.16h1.06c.08,0,.12-.05,.12-.16v-.69c0-.09-.04-.14-.12-.14h-1.06Zm5.16-3.32c0-.09-.04-.14-.12-.14h-1.07c-.08,0-.12,.05-.12,.14v.65c0,.11,.04,.16,.12,.16h1.07c.08,0,.12-.05,.12-.16v-.65Zm-.12,4.3c.08,0,.12-.05,.12-.16v-.69c0-.09-.04-.14-.12-.14h-1.07c-.08,0-.12,.05-.12,.14v.69c0,.1,.04,.16,.12,.16h1.07Z"/><path id="Path_9819" class="cls-11" d="M223.88,138.13c-.01,.09,.03,.14,.12,.14l.86-.08c.08,0,.22,0,.41-.03s.34-.03,.45-.03h.07c.25,0,.48,.1,.65,.28,.2,.21,.31,.5,.3,.79v.63c0,.3-.1,.59-.3,.81-.19,.22-.45,.35-.74,.35-.26,.01-.55,.03-.86,.04l-.92,.04c-.08,0-.14,.07-.14,.15,0,0,0,0,0,0,0,1.25-.09,2.51-.25,3.75-.03,.43-.22,.83-.52,1.13-.33,.22-.73,.33-1.14,.3-.62-.02-1.24-.08-1.85-.18-.29-.03-.56-.18-.72-.42-.19-.25-.29-.56-.28-.88l.02-.32c-.01-.29,.1-.57,.32-.77,.16-.15,.38-.24,.6-.24h.12c.18,.03,.36,.05,.55,.06,.12,.01,.25-.02,.35-.08,.09-.09,.14-.21,.14-.34,.05-.43,.08-1.03,.11-1.78,0-.11-.05-.15-.14-.14-1.52,.15-2.89,.29-4.1,.43-.08,0-.14,.07-.14,.15,0,0,0,0,0,.01-.01,.89-.02,1.68-.02,2.35,0,.72,0,1.33,.02,1.82,.01,.34,.03,.61,.04,.81,.02,.19,.06,.38,.13,.56,.05,.15,.14,.28,.26,.39,.15,.1,.31,.17,.48,.22,.24,.07,.48,.11,.73,.12,.27,.01,.62,.02,1.06,.02,1.45,0,2.9-.13,4.33-.36,.04-.01,.08-.02,.12-.02,.22,0,.42,.09,.56,.26,.21,.19,.32,.47,.3,.75l-.04,1.01c0,.32-.12,.62-.33,.86-.18,.23-.45,.37-.75,.4-1.44,.14-2.78,.22-4,.22-.83,0-1.54-.03-2.12-.09-.51-.04-1.02-.16-1.51-.33-.36-.13-.7-.33-1-.57-.27-.25-.47-.56-.59-.91-.15-.39-.25-.8-.3-1.21-.05-.42-.09-.96-.11-1.62-.01-.57-.02-2.01-.02-4.34,0-.09-.04-.13-.12-.12l-.69,.08c-.26,.04-.69,.11-1.3,.22h-.16c-.22,0-.43-.08-.6-.22-.22-.2-.36-.47-.39-.77l-.05-.75s-.02-.08-.02-.12c0-.26,.08-.51,.25-.71,.17-.22,.42-.36,.7-.38,.46-.03,.92-.06,1.39-.1l.86-.1c.08,0,.12-.05,.12-.16v-1.44c0-.45-.01-.9-.04-1.36v-.1c0-.26,.08-.5,.23-.71,.16-.21,.42-.34,.69-.34h.97c.27,0,.53,.12,.69,.34,.18,.21,.27,.48,.26,.75l-.04,1.24c0,.51,0,.95-.02,1.32,0,.07,.04,.13,.11,.14,.01,0,.02,0,.03,0l4.12-.43c.09,0,.14-.05,.14-.16v-1.78l-.04-.95c0-.26,.08-.51,.25-.71,.15-.23,.41-.36,.69-.35h.83c.27,0,.53,.13,.69,.35,.16,.21,.25,.47,.25,.73l-.04,.79-.02,1.68Z"/><path id="Path_9821" class="cls-11" d="M98.88,258.91c-.51,0-.92-.41-.92-.91h0c0-.08,0-.15,.02-.22l3.92-17.64c.06-.33,.24-.62,.5-.82,.26-.21,.58-.32,.91-.31,.28,0,.55,.12,.73,.35,.14,.16,.22,.36,.22,.57,0,.07,0,.14-.02,.21l-3.92,17.64c-.08,.32-.25,.6-.51,.81-.25,.21-.57,.33-.9,.32h-.02Z"/><path id="Path_9824" class="cls-11" d="M166.41,254.7c.11,.07,.18,.19,.2,.31,0,.03,0,.06,0,.09,0,.1-.03,.19-.09,.27l-.19,.3c-.06,.1-.16,.16-.28,.17h-.06c-.09,0-.19-.03-.26-.09-.32-.27-.66-.5-1.03-.7,0,0-.02,0-.03,0-.01,0-.02,.02-.02,.03v.1c0,.36-.16,.69-.44,.91-.36,.25-.79,.37-1.22,.34-.53,.03-1.06-.09-1.52-.37-.34-.23-.54-.63-.52-1.04,0-.42,.2-.81,.55-1.05,.44-.29,.96-.43,1.49-.4,.08,0,.19,0,.32,0,.04,0,.06-.01,.06-.05l-.02-.41s-.02-.06-.05-.06c0,0-.01,0-.02,0h-.32c-.41,0-.88-.02-1.41-.05-.13,0-.25-.07-.33-.16-.09-.09-.13-.22-.13-.34v-.2c0-.11,.05-.22,.14-.3,.07-.07,.17-.1,.27-.1h.06c.47,.05,.94,.08,1.42,.09h.29s.06-.02,.06-.05v-.53s0-.06-.04-.06c0,0-.01,0-.02,0h-.31c-.37,0-.77-.02-1.2-.06-.13,0-.25-.07-.33-.17-.08-.1-.13-.22-.14-.35v-.16c0-.22,.18-.39,.4-.4,.02,0,.04,0,.05,0,.4,.05,.8,.08,1.2,.08h.33s.06-.02,.06-.05v-.36c0-.11,.04-.22,.11-.3,.08-.09,.19-.14,.31-.14h.38c.12,0,.23,.05,.3,.14,.08,.08,.12,.18,.12,.29l-.02,.15v.18s.01,.06,.06,.05c.43-.02,.87-.06,1.31-.12,.02,0,.04,0,.05,0,.1,0,.19,.04,.27,.1,.09,.07,.14,.18,.14,.3v.18c0,.13-.04,.25-.12,.34-.08,.1-.2,.15-.33,.16-.48,.05-.92,.08-1.34,.1-.03,0-.06,.02-.06,.05,0,0,0,.01,0,.02v.54s.01,.05,.05,.05c.48-.03,1-.07,1.55-.13h.05c.22,0,.41,.18,.41,.41v.21c0,.13-.04,.25-.13,.34-.08,.1-.2,.16-.33,.17-.52,.05-1.03,.08-1.53,.09-.04,0-.06,.02-.06,.06,0,.04,.01,.26,.04,.65,0,.04,.03,.07,.06,.08,.63,.2,1.22,.49,1.75,.88Zm-2.97,.13v-.17s-.03-.06-.06-.06c-.18-.03-.36-.04-.54-.04-.18,0-.35,.03-.51,.11-.16,.07-.23,.26-.16,.43,.03,.07,.08,.12,.15,.15,.15,.08,.32,.11,.5,.1,.17,.01,.34-.03,.48-.11,.11-.1,.16-.25,.15-.4h0Z"/><path id="Path_9825" class="cls-11" d="M168.88,251.56s-.06,0-.09,0c-.09,0-.18-.03-.24-.09-.1-.07-.16-.18-.17-.3l-.04-.38v-.05c0-.1,.04-.2,.11-.28,.08-.09,.19-.15,.31-.15,.16,0,.28-.01,.35-.02s.51-.04,1.32-.11,1.51-.13,2.09-.18c.54-.04,1.15-.08,1.86-.12h.02c.12,0,.23,.04,.31,.13,.09,.08,.14,.2,.14,.32v.31c0,.12-.05,.24-.13,.33-.09,.09-.21,.14-.33,.15-.36,0-.71,.03-1.06,.09-.45,.11-.86,.37-1.13,.75-.3,.37-.47,.83-.48,1.31-.02,.45,.18,.88,.54,1.14,.44,.3,.95,.48,1.48,.53,.11,.01,.21,.07,.27,.16,.04,.06,.06,.13,.06,.2,0,.04,0,.08-.02,.12l-.15,.46c-.04,.13-.13,.23-.24,.31-.08,.06-.18,.09-.28,.09-.03,0-.06,0-.09,0-.5-.08-.98-.24-1.43-.47-.41-.22-.76-.54-1.02-.93-.26-.4-.4-.86-.39-1.33,0-.46,.09-.91,.29-1.32,.16-.36,.39-.68,.68-.96,0,0,0-.01,0-.02s-.01-.01-.02,0c-1.02,.1-1.86,.22-2.53,.34Zm4.38,.82c-.03-.05-.05-.11-.05-.17,0-.03,0-.06,.02-.09,.02-.09,.09-.16,.17-.2,.05-.03,.11-.04,.17-.04,.05,0,.1,0,.14,.02,.1,.03,.19,.1,.24,.19,.08,.14,.16,.27,.24,.42,.03,.05,.04,.11,.04,.16,0,.04,0,.08-.02,.13-.03,.1-.11,.17-.2,.21-.05,.02-.1,.03-.16,.03-.05,0-.1,0-.14-.02-.1-.04-.18-.11-.23-.2-.07-.15-.15-.29-.24-.43h0Zm.93-.37c-.04-.05-.05-.12-.05-.18,0-.03,0-.06,.02-.09,.02-.09,.09-.17,.17-.2,.06-.03,.12-.04,.18-.04,.04,0,.08,0,.13,.02,.1,.03,.19,.09,.25,.18,.09,.13,.17,.26,.25,.39,.03,.05,.05,.12,.05,.18,0,.04,0,.07-.02,.11-.03,.1-.1,.18-.19,.22-.05,.03-.11,.04-.17,.04-.15,0-.29-.09-.37-.22-.08-.14-.16-.28-.25-.41h0Z"/><path id="Path_9826" class="cls-2" d="M73.45,78.96c-.03,.07-.03,.16,0,.23,.04,.07,.11,.1,.19,.09h2.55c.75-.02,1.46,.28,1.98,.81,.52,.51,.81,1.2,.8,1.93v3.95c0,1.52-1.25,2.75-2.78,2.74,0,0,0,0-.01,0h-.9c-.74,0-1.44-.29-1.96-.81-.53-.5-.83-1.2-.83-1.93v-.84c.02-.16-.09-.31-.25-.33-.03,0-.05,0-.08,0h-14.64c-.16-.02-.31,.08-.33,.24,0,.03,0,.06,0,.08v.84c0,.73-.29,1.43-.83,1.93-.52,.53-1.22,.82-1.96,.81h-2.46c-.08,0-.16,.03-.21,.09-.05,.07-.06,.16-.02,.23,.06,.2,.11,.4,.14,.6,.09,.24,.14,.49,.14,.74,0,.48-.13,.94-.38,1.35-.34,.67-.91,1.2-1.61,1.49l-.28,.09c-.22,.12-.46,.18-.71,.19-.3,0-.59-.08-.85-.23-.52-.25-.88-.73-.99-1.3-.03-.19-.16-.26-.38-.23l-1.13,.14c-.22,0-.33,.12-.33,.37v3.02c-.01,.13,.08,.24,.21,.25,.04,0,.08,0,.12-.02l1.09-.32c.29-.09,.59-.14,.9-.14,.46,0,.91,.12,1.32,.32,.68,.3,1.2,.87,1.42,1.58,.41,1.21,.75,2.4,1.04,3.58,.03,.2,.05,.4,.05,.6,0,.48-.13,.94-.38,1.35-.36,.61-.93,1.05-1.61,1.26-.21,.09-.43,.14-.66,.14-.39,0-.77-.13-1.09-.37-.54-.3-.92-.83-1.04-1.44-.34-1.62-.77-3.22-1.28-4.79,0-.02-.01-.04-.04-.05,0,0,0,0,0,0-.03,0-.05,.03-.05,.09v11.29c.01,.74-.29,1.45-.83,1.95-.52,.51-1.23,.8-1.96,.79h-.28c-.74,.02-1.46-.27-1.99-.79-.53-.51-.82-1.22-.8-1.95v-10.12h-.05c-.29,2.33-.78,4.63-1.46,6.88-.17,.63-.65,1.14-1.28,1.35-.65,.21-1.36,.18-1.98-.09-.65-.29-1.15-.83-1.42-1.49-.18-.38-.28-.79-.28-1.21,0-.28,.05-.57,.14-.84,.49-1.89,.84-3.82,1.04-5.76,.08-.71,.43-1.36,.99-1.81,.44-.33,.97-.51,1.51-.51,.16,0,.32,.02,.47,.05l1.94,.32c.25,.03,.38-.06,.38-.28v-2.37c0-.22-.13-.32-.38-.32-.76,.06-1.67,.14-2.74,.23h-.28c-.66,0-1.29-.23-1.79-.65-.59-.45-.97-1.12-1.04-1.86l-.05-.42c-.03-.12-.05-.25-.05-.37,0-.6,.22-1.17,.61-1.63,.46-.55,1.13-.87,1.84-.88,.26-.03,.52-.04,.78-.05,.23,0,.45-.1,.59-.28,.19-.28,.57-.82,1.13-1.63,.12-.18,.12-.42,0-.6-1.02-1.57-2.16-3.06-3.4-4.46-.58-.63-.9-1.46-.9-2.32,0-.71,.23-1.39,.66-1.95l1.04-1.44c.18-.21,.43-.34,.71-.37,.27-.03,.55,.05,.76,.23,.09,.06,.16,.06,.19,0,.76-1.67,1.46-3.39,2.13-5.16,.25-.68,.76-1.23,1.42-1.53,.38-.21,.8-.32,1.23-.32,.31,0,.61,.07,.9,.19l.61,.19c.66,.22,1.19,.71,1.46,1.35,.12,.28,.18,.58,.19,.88,0,.39-.1,.77-.28,1.12-1.67,3.07-2.99,5.39-3.97,6.97-.13,.17-.11,.41,.05,.56,.22,.31,.41,.56,.57,.74,.06,.09,.18,.12,.27,.06,.03-.02,.05-.04,.06-.06,.85-1.49,1.65-2.98,2.41-4.46,.33-.67,.91-1.18,1.61-1.44,.32-.12,.65-.18,.99-.19,.39,0,.78,.1,1.13,.28l.43,.14c.64,.28,1.12,.82,1.32,1.49,.06,.23,.09,.46,.09,.7,0,.45-.13,.89-.38,1.26-1.42,2.17-2.75,4.15-4.01,5.95-.03,.03-.03,.07,0,.12s.08,.05,.14,.02l.57-.23c.69-.31,1.48-.31,2.17,0,.7,.26,1.27,.8,1.56,1.49,.35,.81,.69,1.66,1.04,2.56,0,.02,.01,.04,.03,.05,0,0,0,0,.01,0,.03,0,.05-.03,.05-.09v-4.51c0-.73,.29-1.43,.83-1.93,.52-.53,1.22-.82,1.96-.81h2.17c.22,0,.3-.11,.24-.33-.22-1.07-.52-2.13-.9-3.16-.05-.21-.26-.35-.47-.32h-.61c-.74,.02-1.46-.27-1.98-.79-.53-.51-.82-1.22-.8-1.95v-.23c.01-1.52,1.25-2.75,2.78-2.74,0,0,0,0,0,0h6.75c.25,0,.38-.11,.38-.32v-.56c.01-1.52,1.25-2.75,2.78-2.74,0,0,0,0,0,0h1.42c.74,0,1.45,.29,1.96,.81,.53,.5,.83,1.2,.83,1.93v.56c0,.22,.13,.32,.38,.32h6.71c.74,0,1.44,.29,1.96,.81,.53,.5,.83,1.2,.83,1.93v.28c.01,.72-.28,1.41-.8,1.91-.51,.52-1.21,.8-1.94,.79-.23-.02-.44,.11-.52,.32-.67,1.45-1.16,2.5-1.47,3.15Zm-30.52,7.16c-.06,.03-.07,.08-.02,.14,.04,.06,.1,.09,.17,.09l1.94-.14c.25,0,.33-.12,.24-.37-.25-.65-.47-1.18-.66-1.58-.06-.09-.18-.12-.27-.06-.03,.02-.05,.04-.06,.06l-1.32,1.86Zm31.28,3.3c.75-.02,1.46,.28,1.98,.81,.52,.51,.81,1.2,.8,1.93v8.78c.03,1.1-.09,2.19-.38,3.25-.25,.8-.79,1.48-1.51,1.9-.84,.53-1.8,.85-2.79,.93-.11,.03-.22,.04-.33,.05-.63,0-1.23-.23-1.7-.65-.63-.49-1.08-1.18-1.28-1.95-.25-.87-.55-1.72-.9-2.56-.02-.03-.07-.04-.1-.02-.03,.01-.05,.04-.05,.07v6.7c.02,.74-.29,1.45-.83,1.95-.52,.51-1.23,.8-1.96,.79h-.76c-.74,.02-1.46-.27-1.98-.79-.53-.51-.82-1.22-.8-1.95v-13.34c.02-.18-.1-.35-.28-.37-.03,0-.06,0-.09,0h-1.79c-.18-.03-.35,.1-.38,.28,0,.03,0,.06,0,.09v9.29c.02,.73-.27,1.44-.8,1.95-.53,.52-1.24,.81-1.98,.79h-.52c-.73,0-1.44-.28-1.96-.79-.54-.5-.84-1.21-.83-1.95v-12.46c0-.73,.29-1.43,.83-1.93,.52-.53,1.22-.82,1.96-.81h5.48c.25,0,.38-.11,.38-.32v-.46c0-.73,.28-1.42,.8-1.93,.52-.54,1.24-.83,1.98-.81h.76c.74,0,1.45,.29,1.96,.81,.53,.5,.83,1.2,.83,1.93v.46c-.02,.16,.09,.3,.25,.33,.03,0,.06,0,.08,0h5.91Zm-6.43-13.62c0-.07-.03-.15-.07-.21-.04-.08-.13-.12-.21-.12h-5.43c-.08,0-.15,.05-.19,.12-.06,.05-.08,.14-.05,.21,.38,1.03,.7,2.09,.94,3.16,.03,.22,.17,.33,.43,.33h3.02c.21,0,.4-.13,.47-.33,.47-1.3,.83-2.35,1.09-3.16h0Zm.52,19.15c-.22,0-.33,.12-.33,.37v5.62c-.02,.19,.12,.35,.31,.37,0,0,.02,0,.02,0h2.13c.25,.04,.48-.13,.52-.38,0-.04,0-.09,0-.13v-5.48c0-.25-.11-.37-.33-.37h-2.31Z"/><path id="Path_9827" class="cls-2" d="M94.05,95.32h1.32c.32,0,.54-.22,.66-.65,.17-.83,.27-1.67,.28-2.51,.01-.56,.34-1.06,.85-1.3,.51-.25,1.1-.25,1.61,0,.38,.19,.77,.36,1.18,.51,.76,.29,1.4,.81,1.84,1.49,.34,.47,.52,1.04,.52,1.63,0,.16-.02,.31-.05,.46-.2,1.95-.91,3.8-2.05,5.39-1.06,1.11-2.56,1.69-4.09,1.58h-3.45c-2.52,0-4.2-.63-5.05-1.88s-1.27-3.6-1.28-7.04v-6.6c0-.22-.11-.31-.33-.28l-1.04,.18c-.19,.03-.38,.05-.57,.05-.54,0-1.07-.16-1.51-.46-.61-.4-1.02-1.04-1.13-1.77l-.19-1.02c-.03-.17-.05-.34-.05-.51,0-.55,.18-1.09,.52-1.53,.42-.61,1.07-1.03,1.79-1.16l2.17-.37c.19,0,.34-.16,.33-.35,0,0,0-.02,0-.02v-8.78c0-.73,.29-1.43,.83-1.93,.51-.53,1.22-.82,1.96-.81h1.37c.75-.02,1.46,.28,1.98,.81,.52,.51,.81,1.2,.8,1.93v7.53c0,.25,.12,.34,.38,.28l5.48-.98c.73-.14,1.48,.03,2.08,.46,.61,.4,1.02,1.04,1.13,1.77l.14,.88c.03,.17,.05,.34,.05,.51,0,.55-.18,1.09-.52,1.53-.42,.61-1.07,1.03-1.79,1.16l-6.57,1.21c-.25,.03-.38,.15-.38,.37v7.9c-.03,.65,0,1.31,.12,1.95,.08,.25,.3,.37,.64,.37Zm5.62-23.24c0-.73,.28-1.42,.8-1.93,.52-.54,1.24-.83,1.98-.81h21.45c.73-.01,1.43,.27,1.94,.79,.51,.48,.8,1.15,.8,1.86,0,.15-.02,.42-.05,.79-.25,12.3-.55,20.81-.9,25.54-.35,4.72-.96,7.74-1.84,9.04-.54,.9-1.27,1.67-2.13,2.28-.83,.51-1.74,.87-2.69,1.07-1.43,.25-2.89,.36-4.35,.32-.75,0-1.48-.28-2.03-.79-.59-.51-1-1.19-1.18-1.95-.16-.66-.37-1.32-.61-1.95-.06-.21-.09-.43-.09-.65,0-.35,.1-.68,.28-.98,.31-.45,.82-.71,1.37-.7h.1c.76,.03,1.69,.05,2.79,.05,.77,.03,1.49-.36,1.89-1.02,.63-.77,1.09-3.15,1.39-7.13s.53-10.53,.68-19.63c0-.25-.11-.37-.33-.37h-5.29c-.18-.03-.35,.1-.38,.28,0,.03,0,.06,0,.09-.07,2.67-.15,4.97-.26,6.92s-.3,4.06-.59,6.34c-.24,2.05-.63,4.08-1.18,6.07-.52,1.82-1.16,3.61-1.91,5.34-.76,1.77-1.74,3.44-2.93,4.95-1.21,1.53-2.58,2.92-4.09,4.16-.42,.33-.93,.51-1.46,.51-.17,0-.35-.02-.52-.05-.71-.12-1.35-.5-1.79-1.07-.41-.53-.85-1.04-1.32-1.53-.42-.42-.66-.99-.66-1.58-.03-.71,.29-1.38,.85-1.81,1.12-.88,2.13-1.89,3.02-3,.83-1.03,1.59-2.13,2.24-3.28,.66-1.2,1.18-2.47,1.56-3.79,.42-1.44,.75-2.77,.99-4s.43-2.71,.59-4.46c.16-1.75,.26-3.3,.31-4.65s.09-3.04,.12-5.09c.02-.18-.1-.35-.29-.37-.03,0-.06,0-.09,0h-3.4c-.74,.02-1.46-.27-1.98-.79-.53-.51-.82-1.22-.8-1.95v-1.06Z"/><path id="Path_9828" class="cls-2" d="M151.5,82.91c.02,.73-.27,1.44-.8,1.95-.53,.52-1.24,.81-1.99,.79h-9.12c-.18-.03-.35,.1-.38,.28,0,.03,0,.06,0,.09v22.59c.02,.73-.27,1.44-.8,1.95-.53,.52-1.24,.81-1.98,.79h-1.37c-.74,.02-1.46-.27-1.98-.79-.53-.51-.82-1.22-.8-1.95v-38.02c0-.73,.28-1.42,.8-1.93,.52-.54,1.24-.83,1.98-.81h13.65c.75-.02,1.46,.28,1.99,.81,.52,.51,.81,1.2,.8,1.93v12.32Zm-6.57-9.81c.02-.16-.09-.3-.25-.33-.03,0-.05,0-.08,0h-5.01c-.25,0-.38,.11-.38,.32v.93c-.02,.18,.1,.35,.28,.37,.03,0,.06,0,.09,0h5.01c.22,0,.33-.12,.33-.37v-.93Zm-5.72,7.34c-.02,.18,.1,.35,.28,.37,.03,0,.06,0,.09,0h5.01c.22,0,.33-.12,.33-.37v-1.16c.02-.16-.09-.31-.25-.33-.03,0-.05,0-.08,0h-5.01c-.25,0-.38,.11-.38,.33v1.16Zm31.89-12.6c.75-.02,1.46,.28,1.99,.81,.52,.51,.81,1.2,.8,1.93v32.87c.06,1.45-.15,2.9-.61,4.27-.41,1.03-1.19,1.87-2.17,2.37-2.07,.88-4.31,1.31-6.57,1.26h-.1c-.73,0-1.43-.27-1.98-.74-.62-.48-1.07-1.15-1.28-1.9-.13-.47-.27-.95-.43-1.44-.05-.21-.26-.35-.47-.33h-10.3c-.14-.02-.26,.07-.28,.21,0,.02,0,.05,0,.07,0,.57-.22,1.12-.64,1.51-.4,.41-.96,.64-1.54,.63h-1.37c-.73,0-1.44-.28-1.96-.79-.54-.5-.84-1.21-.83-1.95v-15.71c-.02-.74,.29-1.45,.83-1.95,.52-.51,1.23-.8,1.96-.79h13.51c.73,0,1.44,.28,1.96,.79,.54,.5,.84,1.21,.83,1.95v13.2c0,.25,.11,.37,.33,.37h2.83c.33,.03,.66-.06,.92-.26,.2-.24,.29-.55,.26-.86v-17.2c.02-.18-.1-.35-.28-.37-.03,0-.06,0-.09,0h-9.44c-.74,.02-1.46-.27-1.98-.79-.53-.51-.82-1.22-.8-1.95v-12.45c0-.73,.28-1.42,.8-1.93,.52-.54,1.24-.83,1.98-.81h14.12Zm-15.26,25.65c0-.25-.11-.37-.33-.37h-5.43c-.18-.03-.35,.1-.38,.28,0,.03,0,.06,0,.09v1.3c0,.22,.13,.32,.38,.32h5.43c.16,.02,.31-.08,.33-.24,0-.03,0-.05,0-.08v-1.3Zm-6.14,8.09c-.02,.18,.1,.35,.28,.37,.03,0,.06,0,.09,0h5.43c.22,0,.33-.12,.33-.37v-1.3c.02-.16-.09-.3-.25-.33-.03,0-.05,0-.08,0h-5.43c-.25,0-.38,.11-.38,.32v1.3Zm17.1-28.49c0-.22-.13-.32-.38-.32h-5.24c-.16-.02-.31,.09-.33,.24,0,.03,0,.05,0,.08v.93c0,.25,.11,.37,.33,.37h5.24c.18,.03,.35-.1,.38-.28,0-.03,0-.06,0-.09v-.93Zm-5.95,7.48c0,.25,.11,.37,.33,.37h5.24c.18,.03,.35-.1,.38-.28,0-.03,0-.06,0-.09v-1.3c0-.22-.13-.33-.38-.33h-5.24c-.16-.02-.31,.09-.33,.24,0,.03,0,.05,0,.08v1.3Z"/><path id="Path_9829" class="cls-2" d="M188.16,84.59c.73,0,1.44,.28,1.96,.79,.54,.5,.84,1.21,.83,1.95v11.85c0,.23,.06,.46,.19,.65,1.67,2.48,4.88,3.81,9.64,4,2.36,.12,4.79,.19,7.27,.19,4.44,0,9.06-.15,13.84-.46h.14c.55-.01,1.06,.25,1.37,.7,.24,.29,.38,.65,.38,1.02,0,.21-.05,.41-.14,.6-.19,.62-.38,1.22-.57,1.81-.21,.78-.65,1.48-1.27,2-.59,.51-1.35,.79-2.13,.79-3.68,.15-7.13,.23-10.35,.23-3.12,0-6.02-.06-8.69-.19-2.5-.05-4.97-.47-7.35-1.26-2.01-.74-3.8-1.97-5.22-3.58-.16-.19-.32-.2-.47-.05-1.51,1.3-2.91,2.48-4.21,3.53-.38,.3-.84,.46-1.32,.46-.17,0-.35-.01-.52-.05-.67-.14-1.23-.59-1.51-1.21l-1.04-2.23c-.19-.39-.28-.82-.28-1.25,0-.31,.05-.63,.14-.93,.24-.7,.73-1.3,1.37-1.67,1.29-.77,2.47-1.53,3.54-2.28,.18-.13,.28-.34,.28-.56v-8.18c.02-.16-.09-.3-.25-.33-.03,0-.05,0-.08,0h-1.84c-.74,0-1.45-.29-1.96-.81-.53-.5-.83-1.2-.83-1.93v-.88c-.02-.74,.29-1.45,.83-1.95,.52-.51,1.23-.8,1.96-.79h6.28Zm2.03-12.32c.48,.44,.75,1.07,.76,1.72,0,.08-.02,.16-.05,.23-.06,.73-.42,1.4-.99,1.86l-1.32,1.07c-.46,.39-1.05,.6-1.65,.6-.11,0-.22-.02-.33-.05-.72-.06-1.39-.41-1.84-.98-1.17-1.27-2.42-2.46-3.73-3.58-.51-.42-.81-1.05-.8-1.72-.02-.69,.29-1.35,.85-1.77l.9-.7c.62-.49,1.38-.77,2.17-.79h.1c.76,0,1.5,.25,2.08,.74,1.35,1.04,2.64,2.16,3.86,3.35h0Zm18.85,13.57c.02-.18-.1-.35-.28-.37-.03,0-.06,0-.09,0h-5.53c-.22,0-.35,.12-.38,.37-.66,5.73-2.28,10.35-4.87,13.85-.4,.51-1.01,.8-1.65,.79h-.1c-.7-.03-1.36-.33-1.84-.84-.35-.34-.71-.68-1.09-1.02-.53-.45-.86-1.08-.95-1.77-.03-.14-.05-.28-.05-.42,0-.57,.18-1.12,.52-1.58,1.41-2.09,2.38-4.45,2.84-6.93,.49-2.71,.73-5.47,.71-8.23v-8.04c-.02-.68,.28-1.33,.8-1.77,.42-.36,.96-.56,1.51-.56,.14,0,.29,.02,.43,.05l2.98,.46c.24,.03,.47,.03,.71,0,3.84-.62,7.63-1.53,11.34-2.7,.51-.16,1.03-.23,1.56-.23,.28,0,.58,.02,.9,.05,.82,.17,1.59,.56,2.22,1.12l1.61,1.49c.46,.36,.67,.96,.52,1.53-.09,.58-.52,1.06-1.09,1.21-5.35,1.55-10.82,2.67-16.35,3.35-.2,.02-.35,.2-.33,.4,0,0,0,.02,0,.02v2.7c-.02,.16,.09,.3,.25,.33,.03,0,.05,0,.08,0h17.44c1.52-.02,2.77,1.21,2.79,2.73,0,0,0,0,0,.01v.88c.02,.73-.27,1.44-.8,1.95-.53,.52-1.24,.81-1.98,.79h-4.49c-.18-.03-.35,.1-.38,.28,0,.03,0,.06,0,.09v13.71c-.01,1.52-1.25,2.75-2.78,2.74,0,0,0,0,0,0h-1.37c-.75,.02-1.46-.28-1.98-.81-.52-.51-.81-1.2-.8-1.93v-13.71Z"/><path id="Path_9830" class="cls-3" d="M73.45,78.96c-.03,.07-.03,.16,0,.23,.04,.07,.11,.1,.19,.09h2.55c.75-.02,1.46,.28,1.98,.81,.52,.51,.81,1.2,.8,1.93v3.95c0,1.52-1.25,2.75-2.78,2.74,0,0,0,0-.01,0h-.9c-.74,0-1.44-.29-1.96-.81-.53-.5-.83-1.2-.83-1.93v-.84c.02-.16-.09-.31-.25-.33-.03,0-.05,0-.08,0h-14.64c-.16-.02-.31,.08-.33,.24,0,.03,0,.06,0,.08v.84c0,.73-.29,1.43-.83,1.93-.52,.53-1.22,.82-1.96,.81h-2.46c-.08,0-.16,.03-.21,.09-.05,.07-.06,.16-.02,.23,.06,.2,.11,.4,.14,.6,.09,.24,.14,.49,.14,.74,0,.48-.13,.94-.38,1.35-.34,.67-.91,1.2-1.61,1.49l-.28,.09c-.22,.12-.46,.18-.71,.19-.3,0-.59-.08-.85-.23-.52-.25-.88-.73-.99-1.3-.03-.19-.16-.26-.38-.23l-1.13,.14c-.22,0-.33,.12-.33,.37v3.02c-.01,.13,.08,.24,.21,.25,.04,0,.08,0,.12-.02l1.09-.32c.29-.09,.59-.14,.9-.14,.46,0,.91,.12,1.32,.32,.68,.3,1.2,.87,1.42,1.58,.41,1.21,.75,2.4,1.04,3.58,.03,.2,.05,.4,.05,.6,0,.48-.13,.94-.38,1.35-.36,.61-.93,1.05-1.61,1.26-.21,.09-.43,.14-.66,.14-.39,0-.77-.13-1.09-.37-.54-.3-.92-.83-1.04-1.44-.34-1.62-.77-3.22-1.28-4.79,0-.02-.01-.04-.04-.05,0,0,0,0,0,0-.03,0-.05,.03-.05,.09v11.29c.01,.74-.29,1.45-.83,1.95-.52,.51-1.23,.8-1.96,.79h-.28c-.74,.02-1.46-.27-1.99-.79-.53-.51-.82-1.22-.8-1.95v-10.12h-.05c-.29,2.33-.78,4.63-1.46,6.88-.17,.63-.65,1.14-1.28,1.35-.65,.21-1.36,.18-1.98-.09-.65-.29-1.15-.83-1.42-1.49-.18-.38-.28-.79-.28-1.21,0-.28,.05-.57,.14-.84,.49-1.89,.84-3.82,1.04-5.76,.08-.71,.43-1.36,.99-1.81,.44-.33,.97-.51,1.51-.51,.16,0,.32,.02,.47,.05l1.94,.32c.25,.03,.38-.06,.38-.28v-2.37c0-.22-.13-.32-.38-.32-.76,.06-1.67,.14-2.74,.23h-.28c-.66,0-1.29-.23-1.79-.65-.59-.45-.97-1.12-1.04-1.86l-.05-.42c-.03-.12-.05-.25-.05-.37,0-.6,.22-1.17,.61-1.63,.46-.55,1.13-.87,1.84-.88,.26-.03,.52-.04,.78-.05,.23,0,.45-.1,.59-.28,.19-.28,.57-.82,1.13-1.63,.12-.18,.12-.42,0-.6-1.02-1.57-2.16-3.06-3.4-4.46-.58-.63-.9-1.46-.9-2.32,0-.71,.23-1.39,.66-1.95l1.04-1.44c.18-.21,.43-.34,.71-.37,.27-.03,.55,.05,.76,.23,.09,.06,.16,.06,.19,0,.76-1.67,1.46-3.39,2.13-5.16,.25-.68,.76-1.23,1.42-1.53,.38-.21,.8-.32,1.23-.32,.31,0,.61,.07,.9,.19l.61,.19c.66,.22,1.19,.71,1.46,1.35,.12,.28,.18,.58,.19,.88,0,.39-.1,.77-.28,1.12-1.67,3.07-2.99,5.39-3.97,6.97-.13,.17-.11,.41,.05,.56,.22,.31,.41,.56,.57,.74,.06,.09,.18,.12,.27,.06,.03-.02,.05-.04,.06-.06,.85-1.49,1.65-2.98,2.41-4.46,.33-.67,.91-1.18,1.61-1.44,.32-.12,.65-.18,.99-.19,.39,0,.78,.1,1.13,.28l.43,.14c.64,.28,1.12,.82,1.32,1.49,.06,.23,.09,.46,.09,.7,0,.45-.13,.89-.38,1.26-1.42,2.17-2.75,4.15-4.01,5.95-.03,.03-.03,.07,0,.12s.08,.05,.14,.02l.57-.23c.69-.31,1.48-.31,2.17,0,.7,.26,1.27,.8,1.56,1.49,.35,.81,.69,1.66,1.04,2.56,0,.02,.01,.04,.03,.05,0,0,0,0,.01,0,.03,0,.05-.03,.05-.09v-4.51c0-.73,.29-1.43,.83-1.93,.52-.53,1.22-.82,1.96-.81h2.17c.22,0,.3-.11,.24-.33-.22-1.07-.52-2.13-.9-3.16-.05-.21-.26-.35-.47-.32h-.61c-.74,.02-1.46-.27-1.98-.79-.53-.51-.82-1.22-.8-1.95v-.23c.01-1.52,1.25-2.75,2.78-2.74,0,0,0,0,0,0h6.75c.25,0,.38-.11,.38-.32v-.56c.01-1.52,1.25-2.75,2.78-2.74,0,0,0,0,0,0h1.42c.74,0,1.45,.29,1.96,.81,.53,.5,.83,1.2,.83,1.93v.56c0,.22,.13,.32,.38,.32h6.71c.74,0,1.44,.29,1.96,.81,.53,.5,.83,1.2,.83,1.93v.28c.01,.72-.28,1.41-.8,1.91-.51,.52-1.21,.8-1.94,.79-.23-.02-.44,.11-.52,.32-.67,1.45-1.16,2.5-1.47,3.15Zm-30.52,7.16c-.06,.03-.07,.08-.02,.14,.04,.06,.1,.09,.17,.09l1.94-.14c.25,0,.33-.12,.24-.37-.25-.65-.47-1.18-.66-1.58-.06-.09-.18-.12-.27-.06-.03,.02-.05,.04-.06,.06l-1.32,1.86Zm31.28,3.3c.75-.02,1.46,.28,1.98,.81,.52,.51,.81,1.2,.8,1.93v8.78c.03,1.1-.09,2.19-.38,3.25-.25,.8-.79,1.48-1.51,1.9-.84,.53-1.8,.85-2.79,.93-.11,.03-.22,.04-.33,.05-.63,0-1.23-.23-1.7-.65-.63-.49-1.08-1.18-1.28-1.95-.25-.87-.55-1.72-.9-2.56-.02-.03-.07-.04-.1-.02-.03,.01-.05,.04-.05,.07v6.7c.02,.74-.29,1.45-.83,1.95-.52,.51-1.23,.8-1.96,.79h-.76c-.74,.02-1.46-.27-1.98-.79-.53-.51-.82-1.22-.8-1.95v-13.34c.02-.18-.1-.35-.28-.37-.03,0-.06,0-.09,0h-1.79c-.18-.03-.35,.1-.38,.28,0,.03,0,.06,0,.09v9.29c.02,.73-.27,1.44-.8,1.95-.53,.52-1.24,.81-1.98,.79h-.52c-.73,0-1.44-.28-1.96-.79-.54-.5-.84-1.21-.83-1.95v-12.46c0-.73,.29-1.43,.83-1.93,.52-.53,1.22-.82,1.96-.81h5.48c.25,0,.38-.11,.38-.32v-.46c0-.73,.28-1.42,.8-1.93,.52-.54,1.24-.83,1.98-.81h.76c.74,0,1.45,.29,1.96,.81,.53,.5,.83,1.2,.83,1.93v.46c-.02,.16,.09,.3,.25,.33,.03,0,.06,0,.08,0h5.91Zm-6.43-13.62c0-.07-.03-.15-.07-.21-.04-.08-.13-.12-.21-.12h-5.43c-.08,0-.15,.05-.19,.12-.06,.05-.08,.14-.05,.21,.38,1.03,.7,2.09,.94,3.16,.03,.22,.17,.33,.43,.33h3.02c.21,0,.4-.13,.47-.33,.47-1.3,.83-2.35,1.09-3.16h0Zm.52,19.15c-.22,0-.33,.12-.33,.37v5.62c-.02,.19,.12,.35,.31,.37,0,0,.02,0,.02,0h2.13c.25,.04,.48-.13,.52-.38,0-.04,0-.09,0-.13v-5.48c0-.25-.11-.37-.33-.37h-2.31Z"/><path id="Path_9831" class="cls-3" d="M94.05,95.32h1.32c.32,0,.54-.22,.66-.65,.17-.83,.27-1.67,.28-2.51,.01-.56,.34-1.06,.85-1.3,.51-.25,1.1-.25,1.61,0,.38,.19,.77,.36,1.18,.51,.76,.29,1.4,.81,1.84,1.49,.34,.47,.52,1.04,.52,1.63,0,.16-.02,.31-.05,.46-.2,1.95-.91,3.8-2.05,5.39-1.06,1.11-2.56,1.69-4.09,1.58h-3.45c-2.52,0-4.2-.63-5.05-1.88s-1.27-3.6-1.28-7.04v-6.6c0-.22-.11-.31-.33-.28l-1.04,.18c-.19,.03-.38,.05-.57,.05-.54,0-1.07-.16-1.51-.46-.61-.4-1.02-1.04-1.13-1.77l-.19-1.02c-.03-.17-.05-.34-.05-.51,0-.55,.18-1.09,.52-1.53,.42-.61,1.07-1.03,1.79-1.16l2.17-.37c.19,0,.34-.16,.33-.35,0,0,0-.02,0-.02v-8.78c0-.73,.29-1.43,.83-1.93,.51-.53,1.22-.82,1.96-.81h1.37c.75-.02,1.46,.28,1.98,.81,.52,.51,.81,1.2,.8,1.93v7.53c0,.25,.12,.34,.38,.28l5.48-.98c.73-.14,1.48,.03,2.08,.46,.61,.4,1.02,1.04,1.13,1.77l.14,.88c.03,.17,.05,.34,.05,.51,0,.55-.18,1.09-.52,1.53-.42,.61-1.07,1.03-1.79,1.16l-6.57,1.21c-.25,.03-.38,.15-.38,.37v7.9c-.03,.65,0,1.31,.12,1.95,.08,.25,.3,.37,.64,.37Zm5.62-23.24c0-.73,.28-1.42,.8-1.93,.52-.54,1.24-.83,1.98-.81h21.45c.73-.01,1.43,.27,1.94,.79,.51,.48,.8,1.15,.8,1.86,0,.15-.02,.42-.05,.79-.25,12.3-.55,20.81-.9,25.54-.35,4.72-.96,7.74-1.84,9.04-.54,.9-1.27,1.67-2.13,2.28-.83,.51-1.74,.87-2.69,1.07-1.43,.25-2.89,.36-4.35,.32-.75,0-1.48-.28-2.03-.79-.59-.51-1-1.19-1.18-1.95-.16-.66-.37-1.32-.61-1.95-.06-.21-.09-.43-.09-.65,0-.35,.1-.68,.28-.98,.31-.45,.82-.71,1.37-.7h.1c.76,.03,1.69,.05,2.79,.05,.77,.03,1.49-.36,1.89-1.02,.63-.77,1.09-3.15,1.39-7.13s.53-10.53,.68-19.63c0-.25-.11-.37-.33-.37h-5.29c-.18-.03-.35,.1-.38,.28,0,.03,0,.06,0,.09-.07,2.67-.15,4.97-.26,6.92s-.3,4.06-.59,6.34c-.24,2.05-.63,4.08-1.18,6.07-.52,1.82-1.16,3.61-1.91,5.34-.76,1.77-1.74,3.44-2.93,4.95-1.21,1.53-2.58,2.92-4.09,4.16-.42,.33-.93,.51-1.46,.51-.17,0-.35-.02-.52-.05-.71-.12-1.35-.5-1.79-1.07-.41-.53-.85-1.04-1.32-1.53-.42-.42-.66-.99-.66-1.58-.03-.71,.29-1.38,.85-1.81,1.12-.88,2.13-1.89,3.02-3,.83-1.03,1.59-2.13,2.24-3.28,.66-1.2,1.18-2.47,1.56-3.79,.42-1.44,.75-2.77,.99-4s.43-2.71,.59-4.46c.16-1.75,.26-3.3,.31-4.65s.09-3.04,.12-5.09c.02-.18-.1-.35-.29-.37-.03,0-.06,0-.09,0h-3.4c-.74,.02-1.46-.27-1.98-.79-.53-.51-.82-1.22-.8-1.95v-1.06Z"/><path id="Path_9832" class="cls-3" d="M151.5,82.91c.02,.73-.27,1.44-.8,1.95-.53,.52-1.24,.81-1.99,.79h-9.12c-.18-.03-.35,.1-.38,.28,0,.03,0,.06,0,.09v22.59c.02,.73-.27,1.44-.8,1.95-.53,.52-1.24,.81-1.98,.79h-1.37c-.74,.02-1.46-.27-1.98-.79-.53-.51-.82-1.22-.8-1.95v-38.02c0-.73,.28-1.42,.8-1.93,.52-.54,1.24-.83,1.98-.81h13.65c.75-.02,1.46,.28,1.99,.81,.52,.51,.81,1.2,.8,1.93v12.32Zm-6.57-9.81c.02-.16-.09-.3-.25-.33-.03,0-.05,0-.08,0h-5.01c-.25,0-.38,.11-.38,.32v.93c-.02,.18,.1,.35,.28,.37,.03,0,.06,0,.09,0h5.01c.22,0,.33-.12,.33-.37v-.93Zm-5.72,7.34c-.02,.18,.1,.35,.28,.37,.03,0,.06,0,.09,0h5.01c.22,0,.33-.12,.33-.37v-1.16c.02-.16-.09-.31-.25-.33-.03,0-.05,0-.08,0h-5.01c-.25,0-.38,.11-.38,.33v1.16Zm31.89-12.6c.75-.02,1.46,.28,1.99,.81,.52,.51,.81,1.2,.8,1.93v32.87c.06,1.45-.15,2.9-.61,4.27-.41,1.03-1.19,1.87-2.17,2.37-2.07,.88-4.31,1.31-6.57,1.26h-.1c-.73,0-1.43-.27-1.98-.74-.62-.48-1.07-1.15-1.28-1.9-.13-.47-.27-.95-.43-1.44-.05-.21-.26-.35-.47-.33h-10.3c-.14-.02-.26,.07-.28,.21,0,.02,0,.05,0,.07,0,.57-.22,1.12-.64,1.51-.4,.41-.96,.64-1.54,.63h-1.37c-.73,0-1.44-.28-1.96-.79-.54-.5-.84-1.21-.83-1.95v-15.71c-.02-.74,.29-1.45,.83-1.95,.52-.51,1.23-.8,1.96-.79h13.51c.73,0,1.44,.28,1.96,.79,.54,.5,.84,1.21,.83,1.95v13.2c0,.25,.11,.37,.33,.37h2.83c.33,.03,.66-.06,.92-.26,.2-.24,.29-.55,.26-.86v-17.2c.02-.18-.1-.35-.28-.37-.03,0-.06,0-.09,0h-9.44c-.74,.02-1.46-.27-1.98-.79-.53-.51-.82-1.22-.8-1.95v-12.45c0-.73,.28-1.42,.8-1.93,.52-.54,1.24-.83,1.98-.81h14.12Zm-15.26,25.65c0-.25-.11-.37-.33-.37h-5.43c-.18-.03-.35,.1-.38,.28,0,.03,0,.06,0,.09v1.3c0,.22,.13,.32,.38,.32h5.43c.16,.02,.31-.08,.33-.24,0-.03,0-.05,0-.08v-1.3Zm-6.14,8.09c-.02,.18,.1,.35,.28,.37,.03,0,.06,0,.09,0h5.43c.22,0,.33-.12,.33-.37v-1.3c.02-.16-.09-.3-.25-.33-.03,0-.05,0-.08,0h-5.43c-.25,0-.38,.11-.38,.32v1.3Zm17.1-28.49c0-.22-.13-.32-.38-.32h-5.24c-.16-.02-.31,.09-.33,.24,0,.03,0,.05,0,.08v.93c0,.25,.11,.37,.33,.37h5.24c.18,.03,.35-.1,.38-.28,0-.03,0-.06,0-.09v-.93Zm-5.95,7.48c0,.25,.11,.37,.33,.37h5.24c.18,.03,.35-.1,.38-.28,0-.03,0-.06,0-.09v-1.3c0-.22-.13-.33-.38-.33h-5.24c-.16-.02-.31,.09-.33,.24,0,.03,0,.05,0,.08v1.3Z"/><path id="Path_9833" class="cls-3" d="M188.16,84.59c.73,0,1.44,.28,1.96,.79,.54,.5,.84,1.21,.83,1.95v11.85c0,.23,.06,.46,.19,.65,1.67,2.48,4.88,3.81,9.64,4,2.36,.12,4.79,.19,7.27,.19,4.44,0,9.06-.15,13.84-.46h.14c.55-.01,1.06,.25,1.37,.7,.24,.29,.38,.65,.38,1.02,0,.21-.05,.41-.14,.6-.19,.62-.38,1.22-.57,1.81-.21,.78-.65,1.48-1.27,2-.59,.51-1.35,.79-2.13,.79-3.68,.15-7.13,.23-10.35,.23-3.12,0-6.02-.06-8.69-.19-2.5-.05-4.97-.47-7.35-1.26-2.01-.74-3.8-1.97-5.22-3.58-.16-.19-.32-.2-.47-.05-1.51,1.3-2.91,2.48-4.21,3.53-.38,.3-.84,.46-1.32,.46-.17,0-.35-.01-.52-.05-.67-.14-1.23-.59-1.51-1.21l-1.04-2.23c-.19-.39-.28-.82-.28-1.25,0-.31,.05-.63,.14-.93,.24-.7,.73-1.3,1.37-1.67,1.29-.77,2.47-1.53,3.54-2.28,.18-.13,.28-.34,.28-.56v-8.18c.02-.16-.09-.3-.25-.33-.03,0-.05,0-.08,0h-1.84c-.74,0-1.45-.29-1.96-.81-.53-.5-.83-1.2-.83-1.93v-.88c-.02-.74,.29-1.45,.83-1.95,.52-.51,1.23-.8,1.96-.79h6.28Zm2.03-12.32c.48,.44,.75,1.07,.76,1.72,0,.08-.02,.16-.05,.23-.06,.73-.42,1.4-.99,1.86l-1.32,1.07c-.46,.39-1.05,.6-1.65,.6-.11,0-.22-.02-.33-.05-.72-.06-1.39-.41-1.84-.98-1.17-1.27-2.42-2.46-3.73-3.58-.51-.42-.81-1.05-.8-1.72-.02-.69,.29-1.35,.85-1.77l.9-.7c.62-.49,1.38-.77,2.17-.79h.1c.76,0,1.5,.25,2.08,.74,1.35,1.04,2.64,2.16,3.86,3.35h0Zm18.85,13.57c.02-.18-.1-.35-.28-.37-.03,0-.06,0-.09,0h-5.53c-.22,0-.35,.12-.38,.37-.66,5.73-2.28,10.35-4.87,13.85-.4,.51-1.01,.8-1.65,.79h-.1c-.7-.03-1.36-.33-1.84-.84-.35-.34-.71-.68-1.09-1.02-.53-.45-.86-1.08-.95-1.77-.03-.14-.05-.28-.05-.42,0-.57,.18-1.12,.52-1.58,1.41-2.09,2.38-4.45,2.84-6.93,.49-2.71,.73-5.47,.71-8.23v-8.04c-.02-.68,.28-1.33,.8-1.77,.42-.36,.96-.56,1.51-.56,.14,0,.29,.02,.43,.05l2.98,.46c.24,.03,.47,.03,.71,0,3.84-.62,7.63-1.53,11.34-2.7,.51-.16,1.03-.23,1.56-.23,.28,0,.58,.02,.9,.05,.82,.17,1.59,.56,2.22,1.12l1.61,1.49c.46,.36,.67,.96,.52,1.53-.09,.58-.52,1.06-1.09,1.21-5.35,1.55-10.82,2.67-16.35,3.35-.2,.02-.35,.2-.33,.4,0,0,0,.02,0,.02v2.7c-.02,.16,.09,.3,.25,.33,.03,0,.05,0,.08,0h17.44c1.52-.02,2.77,1.21,2.79,2.73,0,0,0,0,0,.01v.88c.02,.73-.27,1.44-.8,1.95-.53,.52-1.24,.81-1.98,.79h-4.49c-.18-.03-.35,.1-.38,.28,0,.03,0,.06,0,.09v13.71c-.01,1.52-1.25,2.75-2.78,2.74,0,0,0,0,0,0h-1.37c-.75,.02-1.46-.28-1.98-.81-.52-.51-.81-1.2-.8-1.93v-13.71Z"/><path id="Path_9834" class="cls-11" d="M73.45,78.96c-.03,.07-.03,.16,0,.23,.04,.07,.11,.1,.19,.09h2.55c.75-.02,1.46,.28,1.98,.81,.52,.51,.81,1.2,.8,1.93v3.95c0,1.52-1.25,2.75-2.78,2.74,0,0,0,0-.01,0h-.9c-.74,0-1.44-.29-1.96-.81-.53-.5-.83-1.2-.83-1.93v-.84c.02-.16-.09-.31-.25-.33-.03,0-.05,0-.08,0h-14.64c-.16-.02-.31,.08-.33,.24,0,.03,0,.06,0,.08v.84c0,.73-.29,1.43-.83,1.93-.52,.53-1.22,.82-1.96,.81h-2.46c-.08,0-.16,.03-.21,.09-.05,.07-.06,.16-.02,.23,.06,.2,.11,.4,.14,.6,.09,.24,.14,.49,.14,.74,0,.48-.13,.94-.38,1.35-.34,.67-.91,1.2-1.61,1.49l-.28,.09c-.22,.12-.46,.18-.71,.19-.3,0-.59-.08-.85-.23-.52-.25-.88-.73-.99-1.3-.03-.19-.16-.26-.38-.23l-1.13,.14c-.22,0-.33,.12-.33,.37v3.02c-.01,.13,.08,.24,.21,.25,.04,0,.08,0,.12-.02l1.09-.32c.29-.09,.59-.14,.9-.14,.46,0,.91,.12,1.32,.32,.68,.3,1.2,.87,1.42,1.58,.41,1.21,.75,2.4,1.04,3.58,.03,.2,.05,.4,.05,.6,0,.48-.13,.94-.38,1.35-.36,.61-.93,1.05-1.61,1.26-.21,.09-.43,.14-.66,.14-.39,0-.77-.13-1.09-.37-.54-.3-.92-.83-1.04-1.44-.34-1.62-.77-3.22-1.28-4.79,0-.02-.01-.04-.04-.05,0,0,0,0,0,0-.03,0-.05,.03-.05,.09v11.29c.01,.74-.29,1.45-.83,1.95-.52,.51-1.23,.8-1.96,.79h-.28c-.74,.02-1.46-.27-1.99-.79-.53-.51-.82-1.22-.8-1.95v-10.12h-.05c-.29,2.33-.78,4.63-1.46,6.88-.17,.63-.65,1.14-1.28,1.35-.65,.21-1.36,.18-1.98-.09-.65-.29-1.15-.83-1.42-1.49-.18-.38-.28-.79-.28-1.21,0-.28,.05-.57,.14-.84,.49-1.89,.84-3.82,1.04-5.76,.08-.71,.43-1.36,.99-1.81,.44-.33,.97-.51,1.51-.51,.16,0,.32,.02,.47,.05l1.94,.32c.25,.03,.38-.06,.38-.28v-2.37c0-.22-.13-.32-.38-.32-.76,.06-1.67,.14-2.74,.23h-.28c-.66,0-1.29-.23-1.79-.65-.59-.45-.97-1.12-1.04-1.86l-.05-.42c-.03-.12-.05-.25-.05-.37,0-.6,.22-1.17,.61-1.63,.46-.55,1.13-.87,1.84-.88,.26-.03,.52-.04,.78-.05,.23,0,.45-.1,.59-.28,.19-.28,.57-.82,1.13-1.63,.12-.18,.12-.42,0-.6-1.02-1.57-2.16-3.06-3.4-4.46-.58-.63-.9-1.46-.9-2.32,0-.71,.23-1.39,.66-1.95l1.04-1.44c.18-.21,.43-.34,.71-.37,.27-.03,.55,.05,.76,.23,.09,.06,.16,.06,.19,0,.76-1.67,1.46-3.39,2.13-5.16,.25-.68,.76-1.23,1.42-1.53,.38-.21,.8-.32,1.23-.32,.31,0,.61,.07,.9,.19l.61,.19c.66,.22,1.19,.71,1.46,1.35,.12,.28,.18,.58,.19,.88,0,.39-.1,.77-.28,1.12-1.67,3.07-2.99,5.39-3.97,6.97-.13,.17-.11,.41,.05,.56,.22,.31,.41,.56,.57,.74,.06,.09,.18,.12,.27,.06,.03-.02,.05-.04,.06-.06,.85-1.49,1.65-2.98,2.41-4.46,.33-.67,.91-1.18,1.61-1.44,.32-.12,.65-.18,.99-.19,.39,0,.78,.1,1.13,.28l.43,.14c.64,.28,1.12,.82,1.32,1.49,.06,.23,.09,.46,.09,.7,0,.45-.13,.89-.38,1.26-1.42,2.17-2.75,4.15-4.01,5.95-.03,.03-.03,.07,0,.12s.08,.05,.14,.02l.57-.23c.69-.31,1.48-.31,2.17,0,.7,.26,1.27,.8,1.56,1.49,.35,.81,.69,1.66,1.04,2.56,0,.02,.01,.04,.03,.05,0,0,0,0,.01,0,.03,0,.05-.03,.05-.09v-4.51c0-.73,.29-1.43,.83-1.93,.52-.53,1.22-.82,1.96-.81h2.17c.22,0,.3-.11,.24-.33-.22-1.07-.52-2.13-.9-3.16-.05-.21-.26-.35-.47-.32h-.61c-.74,.02-1.46-.27-1.98-.79-.53-.51-.82-1.22-.8-1.95v-.23c.01-1.52,1.25-2.75,2.78-2.74,0,0,0,0,0,0h6.75c.25,0,.38-.11,.38-.32v-.56c.01-1.52,1.25-2.75,2.78-2.74,0,0,0,0,0,0h1.42c.74,0,1.45,.29,1.96,.81,.53,.5,.83,1.2,.83,1.93v.56c0,.22,.13,.32,.38,.32h6.71c.74,0,1.44,.29,1.96,.81,.53,.5,.83,1.2,.83,1.93v.28c.01,.72-.28,1.41-.8,1.91-.51,.52-1.21,.8-1.94,.79-.23-.02-.44,.11-.52,.32-.67,1.45-1.16,2.5-1.47,3.15Zm-30.52,7.16c-.06,.03-.07,.08-.02,.14,.04,.06,.1,.09,.17,.09l1.94-.14c.25,0,.33-.12,.24-.37-.25-.65-.47-1.18-.66-1.58-.06-.09-.18-.12-.27-.06-.03,.02-.05,.04-.06,.06l-1.32,1.86Zm31.28,3.3c.75-.02,1.46,.28,1.98,.81,.52,.51,.81,1.2,.8,1.93v8.78c.03,1.1-.09,2.19-.38,3.25-.25,.8-.79,1.48-1.51,1.9-.84,.53-1.8,.85-2.79,.93-.11,.03-.22,.04-.33,.05-.63,0-1.23-.23-1.7-.65-.63-.49-1.08-1.18-1.28-1.95-.25-.87-.55-1.72-.9-2.56-.02-.03-.07-.04-.1-.02-.03,.01-.05,.04-.05,.07v6.7c.02,.74-.29,1.45-.83,1.95-.52,.51-1.23,.8-1.96,.79h-.76c-.74,.02-1.46-.27-1.98-.79-.53-.51-.82-1.22-.8-1.95v-13.34c.02-.18-.1-.35-.28-.37-.03,0-.06,0-.09,0h-1.79c-.18-.03-.35,.1-.38,.28,0,.03,0,.06,0,.09v9.29c.02,.73-.27,1.44-.8,1.95-.53,.52-1.24,.81-1.98,.79h-.52c-.73,0-1.44-.28-1.96-.79-.54-.5-.84-1.21-.83-1.95v-12.46c0-.73,.29-1.43,.83-1.93,.52-.53,1.22-.82,1.96-.81h5.48c.25,0,.38-.11,.38-.32v-.46c0-.73,.28-1.42,.8-1.93,.52-.54,1.24-.83,1.98-.81h.76c.74,0,1.45,.29,1.96,.81,.53,.5,.83,1.2,.83,1.93v.46c-.02,.16,.09,.3,.25,.33,.03,0,.06,0,.08,0h5.91Zm-6.43-13.62c0-.07-.03-.15-.07-.21-.04-.08-.13-.12-.21-.12h-5.43c-.08,0-.15,.05-.19,.12-.06,.05-.08,.14-.05,.21,.38,1.03,.7,2.09,.94,3.16,.03,.22,.17,.33,.43,.33h3.02c.21,0,.4-.13,.47-.33,.47-1.3,.83-2.35,1.09-3.16h0Zm.52,19.15c-.22,0-.33,.12-.33,.37v5.62c-.02,.19,.12,.35,.31,.37,0,0,.02,0,.02,0h2.13c.25,.04,.48-.13,.52-.38,0-.04,0-.09,0-.13v-5.48c0-.25-.11-.37-.33-.37h-2.31Z"/><path id="Path_9835" class="cls-11" d="M94.05,95.32h1.32c.32,0,.54-.22,.66-.65,.17-.83,.27-1.67,.28-2.51,.01-.56,.34-1.06,.85-1.3,.51-.25,1.1-.25,1.61,0,.38,.19,.77,.36,1.18,.51,.76,.29,1.4,.81,1.84,1.49,.34,.47,.52,1.04,.52,1.63,0,.16-.02,.31-.05,.46-.2,1.95-.91,3.8-2.05,5.39-1.06,1.11-2.56,1.69-4.09,1.58h-3.45c-2.52,0-4.2-.63-5.05-1.88s-1.27-3.6-1.28-7.04v-6.6c0-.22-.11-.31-.33-.28l-1.04,.18c-.19,.03-.38,.05-.57,.05-.54,0-1.07-.16-1.51-.46-.61-.4-1.02-1.04-1.13-1.77l-.19-1.02c-.03-.17-.05-.34-.05-.51,0-.55,.18-1.09,.52-1.53,.42-.61,1.07-1.03,1.79-1.16l2.17-.37c.19,0,.34-.16,.33-.35,0,0,0-.02,0-.02v-8.78c0-.73,.29-1.43,.83-1.93,.51-.53,1.22-.82,1.96-.81h1.37c.75-.02,1.46,.28,1.98,.81,.52,.51,.81,1.2,.8,1.93v7.53c0,.25,.12,.34,.38,.28l5.48-.98c.73-.14,1.48,.03,2.08,.46,.61,.4,1.02,1.04,1.13,1.77l.14,.88c.03,.17,.05,.34,.05,.51,0,.55-.18,1.09-.52,1.53-.42,.61-1.07,1.03-1.79,1.16l-6.57,1.21c-.25,.03-.38,.15-.38,.37v7.9c-.03,.65,0,1.31,.12,1.95,.08,.25,.3,.37,.64,.37Zm5.62-23.24c0-.73,.28-1.42,.8-1.93,.52-.54,1.24-.83,1.98-.81h21.45c.73-.01,1.43,.27,1.94,.79,.51,.48,.8,1.15,.8,1.86,0,.15-.02,.42-.05,.79-.25,12.3-.55,20.81-.9,25.54-.35,4.72-.96,7.74-1.84,9.04-.54,.9-1.27,1.67-2.13,2.28-.83,.51-1.74,.87-2.69,1.07-1.43,.25-2.89,.36-4.35,.32-.75,0-1.48-.28-2.03-.79-.59-.51-1-1.19-1.18-1.95-.16-.66-.37-1.32-.61-1.95-.06-.21-.09-.43-.09-.65,0-.35,.1-.68,.28-.98,.31-.45,.82-.71,1.37-.7h.1c.76,.03,1.69,.05,2.79,.05,.77,.03,1.49-.36,1.89-1.02,.63-.77,1.09-3.15,1.39-7.13s.53-10.53,.68-19.63c0-.25-.11-.37-.33-.37h-5.29c-.18-.03-.35,.1-.38,.28,0,.03,0,.06,0,.09-.07,2.67-.15,4.97-.26,6.92s-.3,4.06-.59,6.34c-.24,2.05-.63,4.08-1.18,6.07-.52,1.82-1.16,3.61-1.91,5.34-.76,1.77-1.74,3.44-2.93,4.95-1.21,1.53-2.58,2.92-4.09,4.16-.42,.33-.93,.51-1.46,.51-.17,0-.35-.02-.52-.05-.71-.12-1.35-.5-1.79-1.07-.41-.53-.85-1.04-1.32-1.53-.42-.42-.66-.99-.66-1.58-.03-.71,.29-1.38,.85-1.81,1.12-.88,2.13-1.89,3.02-3,.83-1.03,1.59-2.13,2.24-3.28,.66-1.2,1.18-2.47,1.56-3.79,.42-1.44,.75-2.77,.99-4s.43-2.71,.59-4.46c.16-1.75,.26-3.3,.31-4.65s.09-3.04,.12-5.09c.02-.18-.1-.35-.29-.37-.03,0-.06,0-.09,0h-3.4c-.74,.02-1.46-.27-1.98-.79-.53-.51-.82-1.22-.8-1.95v-1.06Z"/><path id="Path_9836" class="cls-11" d="M151.5,82.91c.02,.73-.27,1.44-.8,1.95-.53,.52-1.24,.81-1.99,.79h-9.12c-.18-.03-.35,.1-.38,.28,0,.03,0,.06,0,.09v22.59c.02,.73-.27,1.44-.8,1.95-.53,.52-1.24,.81-1.98,.79h-1.37c-.74,.02-1.46-.27-1.98-.79-.53-.51-.82-1.22-.8-1.95v-38.02c0-.73,.28-1.42,.8-1.93,.52-.54,1.24-.83,1.98-.81h13.65c.75-.02,1.46,.28,1.99,.81,.52,.51,.81,1.2,.8,1.93v12.32Zm-6.57-9.81c.02-.16-.09-.3-.25-.33-.03,0-.05,0-.08,0h-5.01c-.25,0-.38,.11-.38,.32v.93c-.02,.18,.1,.35,.28,.37,.03,0,.06,0,.09,0h5.01c.22,0,.33-.12,.33-.37v-.93Zm-5.72,7.34c-.02,.18,.1,.35,.28,.37,.03,0,.06,0,.09,0h5.01c.22,0,.33-.12,.33-.37v-1.16c.02-.16-.09-.31-.25-.33-.03,0-.05,0-.08,0h-5.01c-.25,0-.38,.11-.38,.33v1.16Zm31.89-12.6c.75-.02,1.46,.28,1.99,.81,.52,.51,.81,1.2,.8,1.93v32.87c.06,1.45-.15,2.9-.61,4.27-.41,1.03-1.19,1.87-2.17,2.37-2.07,.88-4.31,1.31-6.57,1.26h-.1c-.73,0-1.43-.27-1.98-.74-.62-.48-1.07-1.15-1.28-1.9-.13-.47-.27-.95-.43-1.44-.05-.21-.26-.35-.47-.33h-10.3c-.14-.02-.26,.07-.28,.21,0,.02,0,.05,0,.07,0,.57-.22,1.12-.64,1.51-.4,.41-.96,.64-1.54,.63h-1.37c-.73,0-1.44-.28-1.96-.79-.54-.5-.84-1.21-.83-1.95v-15.71c-.02-.74,.29-1.45,.83-1.95,.52-.51,1.23-.8,1.96-.79h13.51c.73,0,1.44,.28,1.96,.79,.54,.5,.84,1.21,.83,1.95v13.2c0,.25,.11,.37,.33,.37h2.83c.33,.03,.66-.06,.92-.26,.2-.24,.29-.55,.26-.86v-17.2c.02-.18-.1-.35-.28-.37-.03,0-.06,0-.09,0h-9.44c-.74,.02-1.46-.27-1.98-.79-.53-.51-.82-1.22-.8-1.95v-12.45c0-.73,.28-1.42,.8-1.93,.52-.54,1.24-.83,1.98-.81h14.12Zm-15.26,25.65c0-.25-.11-.37-.33-.37h-5.43c-.18-.03-.35,.1-.38,.28,0,.03,0,.06,0,.09v1.3c0,.22,.13,.32,.38,.32h5.43c.16,.02,.31-.08,.33-.24,0-.03,0-.05,0-.08v-1.3Zm-6.14,8.09c-.02,.18,.1,.35,.28,.37,.03,0,.06,0,.09,0h5.43c.22,0,.33-.12,.33-.37v-1.3c.02-.16-.09-.3-.25-.33-.03,0-.05,0-.08,0h-5.43c-.25,0-.38,.11-.38,.32v1.3Zm17.1-28.49c0-.22-.13-.32-.38-.32h-5.24c-.16-.02-.31,.09-.33,.24,0,.03,0,.05,0,.08v.93c0,.25,.11,.37,.33,.37h5.24c.18,.03,.35-.1,.38-.28,0-.03,0-.06,0-.09v-.93Zm-5.95,7.48c0,.25,.11,.37,.33,.37h5.24c.18,.03,.35-.1,.38-.28,0-.03,0-.06,0-.09v-1.3c0-.22-.13-.33-.38-.33h-5.24c-.16-.02-.31,.09-.33,.24,0,.03,0,.05,0,.08v1.3Z"/><path id="Path_9837" class="cls-11" d="M188.16,84.59c.73,0,1.44,.28,1.96,.79,.54,.5,.84,1.21,.83,1.95v11.85c0,.23,.06,.46,.19,.65,1.67,2.48,4.88,3.81,9.64,4,2.36,.12,4.79,.19,7.27,.19,4.44,0,9.06-.15,13.84-.46h.14c.55-.01,1.06,.25,1.37,.7,.24,.29,.38,.65,.38,1.02,0,.21-.05,.41-.14,.6-.19,.62-.38,1.22-.57,1.81-.21,.78-.65,1.48-1.27,2-.59,.51-1.35,.79-2.13,.79-3.68,.15-7.13,.23-10.35,.23-3.12,0-6.02-.06-8.69-.19-2.5-.05-4.97-.47-7.35-1.26-2.01-.74-3.8-1.97-5.22-3.58-.16-.19-.32-.2-.47-.05-1.51,1.3-2.91,2.48-4.21,3.53-.38,.3-.84,.46-1.32,.46-.17,0-.35-.01-.52-.05-.67-.14-1.23-.59-1.51-1.21l-1.04-2.23c-.19-.39-.28-.82-.28-1.25,0-.31,.05-.63,.14-.93,.24-.7,.73-1.3,1.37-1.67,1.29-.77,2.47-1.53,3.54-2.28,.18-.13,.28-.34,.28-.56v-8.18c.02-.16-.09-.3-.25-.33-.03,0-.05,0-.08,0h-1.84c-.74,0-1.45-.29-1.96-.81-.53-.5-.83-1.2-.83-1.93v-.88c-.02-.74,.29-1.45,.83-1.95,.52-.51,1.23-.8,1.96-.79h6.28Zm2.03-12.32c.48,.44,.75,1.07,.76,1.72,0,.08-.02,.16-.05,.23-.06,.73-.42,1.4-.99,1.86l-1.32,1.07c-.46,.39-1.05,.6-1.65,.6-.11,0-.22-.02-.33-.05-.72-.06-1.39-.41-1.84-.98-1.17-1.27-2.42-2.46-3.73-3.58-.51-.42-.81-1.05-.8-1.72-.02-.69,.29-1.35,.85-1.77l.9-.7c.62-.49,1.38-.77,2.17-.79h.1c.76,0,1.5,.25,2.08,.74,1.35,1.04,2.64,2.16,3.86,3.35h0Zm18.85,13.57c.02-.18-.1-.35-.28-.37-.03,0-.06,0-.09,0h-5.53c-.22,0-.35,.12-.38,.37-.66,5.73-2.28,10.35-4.87,13.85-.4,.51-1.01,.8-1.65,.79h-.1c-.7-.03-1.36-.33-1.84-.84-.35-.34-.71-.68-1.09-1.02-.53-.45-.86-1.08-.95-1.77-.03-.14-.05-.28-.05-.42,0-.57,.18-1.12,.52-1.58,1.41-2.09,2.38-4.45,2.84-6.93,.49-2.71,.73-5.47,.71-8.23v-8.04c-.02-.68,.28-1.33,.8-1.77,.42-.36,.96-.56,1.51-.56,.14,0,.29,.02,.43,.05l2.98,.46c.24,.03,.47,.03,.71,0,3.84-.62,7.63-1.53,11.34-2.7,.51-.16,1.03-.23,1.56-.23,.28,0,.58,.02,.9,.05,.82,.17,1.59,.56,2.22,1.12l1.61,1.49c.46,.36,.67,.96,.52,1.53-.09,.58-.52,1.06-1.09,1.21-5.35,1.55-10.82,2.67-16.35,3.35-.2,.02-.35,.2-.33,.4,0,0,0,.02,0,.02v2.7c-.02,.16,.09,.3,.25,.33,.03,0,.05,0,.08,0h17.44c1.52-.02,2.77,1.21,2.79,2.73,0,0,0,0,0,.01v.88c.02,.73-.27,1.44-.8,1.95-.53,.52-1.24,.81-1.98,.79h-4.49c-.18-.03-.35,.1-.38,.28,0,.03,0,.06,0,.09v13.71c-.01,1.52-1.25,2.75-2.78,2.74,0,0,0,0,0,0h-1.37c-.75,.02-1.46-.28-1.98-.81-.52-.51-.81-1.2-.8-1.93v-13.71Z"/><path id="Path_9853" class="cls-5" d="M248.43,205.24c.47-.01,.92,.17,1.25,.51,.33,.32,.51,.76,.5,1.21v19.94c.04,.9-.1,1.8-.4,2.64-.28,.65-.8,1.17-1.44,1.47-1.34,.56-2.79,.82-4.24,.79h-.06c-.47,0-.92-.16-1.28-.47-.39-.31-.68-.73-.83-1.2-.12-.37-.26-.74-.42-1.11-.06-.13-.09-.27-.09-.41,0-.22,.08-.44,.21-.61,.18-.3,.51-.48,.86-.47h.03c.33,.02,1.13,.03,2.4,.03,.22,.02,.44-.03,.62-.16,.14-.16,.2-.36,.18-.57v-5.93c.02-.11-.07-.22-.18-.23-.02,0-.04,0-.06,0h-16.8c-.11-.02-.22,.06-.24,.17,0,.02,0,.04,0,.06v9.15c.01,.46-.17,.91-.51,1.23-.33,.33-.78,.51-1.25,.5h-.92c-.47,.01-.92-.17-1.25-.5-.33-.32-.52-.76-.51-1.23v-23.1c0-.46,.18-.89,.51-1.21,.33-.34,.78-.52,1.25-.51h22.65Zm-19.73,4.29c-.11-.02-.22,.06-.24,.17,0,.02,0,.04,0,.06v6.39c-.02,.11,.06,.22,.18,.23,.02,0,.04,0,.06,0h5.75c.14,0,.21-.08,.21-.23v-6.39c0-.16-.07-.23-.21-.23h-5.75Zm10.39,6.63c0,.15,.07,.23,.21,.23h6.2c.11,.02,.22-.06,.24-.17,0-.02,0-.04,0-.06v-6.39c.02-.11-.06-.22-.18-.23-.02,0-.04,0-.06,0h-6.2c-.14,0-.21,.08-.21,.23v6.39Z"/><path id="Path_9854" class="cls-6" d="M248.43,205.24c.47-.01,.92,.17,1.25,.51,.33,.32,.51,.76,.5,1.21v19.94c.04,.9-.1,1.8-.4,2.64-.28,.65-.8,1.17-1.44,1.47-1.34,.56-2.79,.82-4.24,.79h-.06c-.47,0-.92-.16-1.28-.47-.39-.31-.68-.73-.83-1.2-.12-.37-.26-.74-.42-1.11-.06-.13-.09-.27-.09-.41,0-.22,.08-.44,.21-.61,.18-.3,.51-.48,.86-.47h.03c.33,.02,1.13,.03,2.4,.03,.22,.02,.44-.03,.62-.16,.14-.16,.2-.36,.18-.57v-5.93c.02-.11-.07-.22-.18-.23-.02,0-.04,0-.06,0h-16.8c-.11-.02-.22,.06-.24,.17,0,.02,0,.04,0,.06v9.15c.01,.46-.17,.91-.51,1.23-.33,.33-.78,.51-1.25,.5h-.92c-.47,.01-.92-.17-1.25-.5-.33-.32-.52-.76-.51-1.23v-23.1c0-.46,.18-.89,.51-1.21,.33-.34,.78-.52,1.25-.51h22.65Zm-19.73,4.29c-.11-.02-.22,.06-.24,.17,0,.02,0,.04,0,.06v6.39c-.02,.11,.06,.22,.18,.23,.02,0,.04,0,.06,0h5.75c.14,0,.21-.08,.21-.23v-6.39c0-.16-.07-.23-.21-.23h-5.75Zm10.39,6.63c0,.15,.07,.23,.21,.23h6.2c.11,.02,.22-.06,.24-.17,0-.02,0-.04,0-.06v-6.39c.02-.11-.06-.22-.18-.23-.02,0-.04,0-.06,0h-6.2c-.14,0-.21,.08-.21,.23v6.39Z"/><path id="Path_9855" class="cls-11" d="M248.43,205.24c.47-.01,.92,.17,1.25,.51,.33,.32,.51,.76,.5,1.21v19.94c.04,.9-.1,1.8-.4,2.64-.28,.65-.8,1.17-1.44,1.47-1.34,.56-2.79,.82-4.24,.79h-.06c-.47,0-.92-.16-1.28-.47-.39-.31-.68-.73-.83-1.2-.12-.37-.26-.74-.42-1.11-.06-.13-.09-.27-.09-.41,0-.22,.08-.44,.21-.61,.18-.3,.51-.48,.86-.47h.03c.33,.02,1.13,.03,2.4,.03,.22,.02,.44-.03,.62-.16,.14-.16,.2-.36,.18-.57v-5.93c.02-.11-.07-.22-.18-.23-.02,0-.04,0-.06,0h-16.8c-.11-.02-.22,.06-.24,.17,0,.02,0,.04,0,.06v9.15c.01,.46-.17,.91-.51,1.23-.33,.33-.78,.51-1.25,.5h-.92c-.47,.01-.92-.17-1.25-.5-.33-.32-.52-.76-.51-1.23v-23.1c0-.46,.18-.89,.51-1.21,.33-.34,.78-.52,1.25-.51h22.65Zm-19.73,4.29c-.11-.02-.22,.06-.24,.17,0,.02,0,.04,0,.06v6.39c-.02,.11,.06,.22,.18,.23,.02,0,.04,0,.06,0h5.75c.14,0,.21-.08,.21-.23v-6.39c0-.16-.07-.23-.21-.23h-5.75Zm10.39,6.63c0,.15,.07,.23,.21,.23h6.2c.11,.02,.22-.06,.24-.17,0-.02,0-.04,0-.06v-6.39c.02-.11-.06-.22-.18-.23-.02,0-.04,0-.06,0h-6.2c-.14,0-.21,.08-.21,.23v6.39Z"/><path id="Path_9874" class="cls-8" d="M69.12,24.36c-.08-.31-.02-.64,.15-.92,.12-.25,.34-.45,.6-.55,.04-.01,.08-.02,.12-.02l.83-.24c.28-.09,.58-.05,.82,.11,.2,.13,.36,.32,.44,.54,.02,.06,.04,.13,.06,.2,.06,.25,.13,.5,.22,.74,.22,.57,.74,.98,1.35,1.07,.94,.09,1.89-.06,2.75-.44,1.82-.65,3.59-1.45,5.28-2.39,.06-.03,.11-.06,.18-.08,.2-.07,.42-.05,.61,.04,.27,.11,.47,.33,.55,.61,.11,.36,.23,.72,.34,1.08,.11,.32,.11,.66,0,.98-.09,.3-.3,.55-.58,.7-1.65,.86-3.35,1.6-5.1,2.22-1.62,.72-3.41,.96-5.16,.69-1.33-.31-2.41-1.27-2.87-2.55-.24-.58-.43-1.18-.58-1.79Zm7.84-13.81c-.12-.1-.21-.24-.26-.39-.03-.1-.05-.2-.06-.3,0-.26,.12-.51,.33-.66,.12-.11,.27-.19,.42-.24,.13-.04,.26-.06,.39-.06,.3-.01,.59,.1,.81,.29,.27,.24,.55,.51,.85,.79,.12,.11,.2,.24,.25,.39,.03,.11,.05,.23,.04,.35,0,.28-.14,.54-.36,.71-.16,.13-.31,.27-.47,.4-.1,.07-.22,.11-.34,.11-.13,0-.25-.06-.34-.15,0,0-.02,.01-.01,.02,0,0,0,0,0,0l.28,.87c.1,.31,.08,.65-.05,.94-.13,.3-.37,.53-.67,.66-1.64,.66-3.17,1.25-4.6,1.77-1.35,.49-2.77,.97-4.26,1.44-.31,.11-.64,.09-.94-.05-.3-.14-.53-.38-.65-.69l-.34-.85c-.12-.29-.11-.62,.04-.89,.13-.25,.34-.44,.6-.54l.08-.03c1.27-.4,2.71-.9,4.32-1.49,1.63-.59,3.35-1.27,5.14-2.01,.03,0,.06-.04,.06-.07,0-.03,0-.06-.03-.09-.08-.08-.16-.16-.25-.23h0Zm2.18-1.77c-.13-.1-.22-.23-.27-.38-.03-.09-.04-.19-.04-.28,0-.26,.12-.51,.33-.68,.13-.1,.28-.17,.43-.22,.42-.13,.88-.04,1.22,.24,.27,.24,.55,.51,.84,.79,.11,.11,.2,.24,.24,.39,.03,.11,.04,.22,.03,.33,0,.28-.13,.54-.34,.71-.12,.09-.26,.16-.41,.21-.13,.04-.26,.06-.39,.05-.29-.01-.56-.13-.77-.34-.31-.3-.6-.57-.88-.83h0Z"/><path id="Path_9875" class="cls-8" d="M95.96,17.68c.28,.14,.5,.38,.59,.68,.01,.05,.02,.1,.03,.14,.06,.26,.03,.53-.08,.76-.04,.1-.08,.2-.13,.3-.11,.26-.34,.45-.62,.51h-.02c-.26,.06-.54,0-.75-.16-.07-.04-.13-.09-.19-.14-.02-.01-.04-.01-.06,0-.02,.01-.03,.04-.02,.06l.58,2.51c.08,.3,.04,.63-.11,.9-.14,.26-.38,.45-.67,.51l-.46,.11c-.28,.07-.58,.01-.82-.15-.26-.17-.45-.44-.52-.75-.17-.68-.34-1.35-.51-2.03,0-.03-.02-.04-.04-.04-.02,0-.05,0-.06,.03-.2,.55-.43,1.08-.69,1.6-.11,.23-.32,.4-.57,.46-.03,0-.06,0-.1,0-.28,.04-.57-.03-.8-.21l-.4-.29c-.22-.14-.37-.36-.44-.62-.09-.3-.05-.62,.11-.89,.66-1.02,1.19-2.12,1.56-3.28,.02-.03,.01-.07-.01-.09-.02-.02-.05-.04-.08-.03-.47,.12-.94,.24-1.41,.36-.29,.08-.6,.03-.86-.13-.27-.16-.47-.43-.55-.74l-.03-.12c-.09-.3-.05-.63,.11-.9,.14-.27,.39-.47,.69-.55,.65-.17,1.29-.34,1.94-.5,.1-.03,.14-.08,.12-.18-.08-.32-.16-.63-.24-.94-.02-.09-.09-.12-.19-.1-.67,.17-1.34,.34-2.01,.52-.3,.09-.63,.04-.89-.13-.27-.16-.47-.42-.54-.72l-.02-.06c-.09-.3-.05-.63,.11-.9,.15-.28,.41-.48,.72-.56l.31-.08c.1-.03,.14-.08,.1-.17-.11-.24-.23-.47-.37-.7-.05-.08-.09-.17-.11-.26-.04-.16-.04-.32,0-.48,.05-.25,.21-.46,.43-.57,.01,0,.02,0,.02-.01s0,0-.02,0l-.66,.17c-.64,.16-1.28-.22-1.46-.85v-.04c-.1-.31-.06-.64,.11-.92,.16-.28,.42-.47,.73-.55,.62-.16,1.24-.32,1.86-.48,.08,0,.14-.08,.13-.16,0-.02,0-.03-.01-.04l-.1-.39c-.08-.31-.03-.64,.14-.91,.17-.27,.44-.47,.75-.54l.52-.12c.31-.08,.65-.03,.92,.14,.27,.16,.47,.44,.53,.75l.09,.39c0,.08,.07,.14,.15,.13,.02,0,.03,0,.05-.01,.62-.14,1.25-.28,1.87-.42,.63-.15,1.27,.24,1.42,.87,0,.02,0,.03,0,.05v.04c.08,.31,.02,.63-.15,.89-.17,.27-.44,.46-.75,.53l-.37,.08v.02c.2-.02,.39,.06,.51,.21,.13,.15,.18,.35,.14,.54-.12,.68-.2,1.07-.23,1.17,0,.04,0,.07,.03,.1,.03,.02,.07,.03,.1,.02l.41-.09c.31-.07,.63-.01,.89,.17,.26,.17,.44,.45,.5,.75v.06c.08,.31,.03,.63-.14,.89-.16,.27-.42,.46-.73,.52-.64,.14-1.27,.28-1.91,.43-.1,.02-.14,.08-.12,.17l.22,.95c.02,.09,.08,.13,.18,.1,.57-.13,1.14-.26,1.71-.38,.3-.07,.61,0,.86,.18,.26,.17,.44,.44,.51,.75l.02,.12c.07,.31,.02,.63-.15,.9-.15,.26-.41,.44-.7,.5-.6,.13-1.21,.27-1.81,.41-.01,0-.02,0-.02,.01s0,.01,.03,.03c.37,.16,1.01,.44,1.89,.89Zm-4.08-8.85s-.01-.07-.04-.09c-.02-.02-.06-.03-.09-.02-.73,.17-1.47,.35-2.2,.53-.05,0-.09,.06-.08,.11,0,.02,0,.03,.02,.05,.19,.26,.37,.53,.53,.81,.05,.07,.08,.15,.1,.23,.03,.14,.02,.29-.04,.43-.06,.22-.21,.4-.4,.52-.01,0-.01,.01,0,.02,1.05-.26,2.1-.51,3.15-.76v-.02c-.28,0-.55-.11-.73-.33-.12-.12-.21-.27-.25-.44-.03-.11-.03-.22-.01-.33,.01-.25,.03-.49,.04-.7Zm6.97-1.75c-.08,.03-.13,.12-.1,.2,0,0,0,0,0,0l.4,2.13c.02,.09,.08,.13,.18,.11,1.56-.29,3.12-.56,4.68-.81,.31-.06,.63,.03,.88,.22,.25,.19,.41,.47,.46,.78l.06,.4c.05,.31-.02,.62-.2,.88-.17,.26-.45,.43-.75,.48l-.38,.06c-.1,.02-.15,.07-.13,.17l1.38,8.59c.06,.31,0,.63-.17,.89-.15,.25-.41,.42-.7,.47l-.47,.08c-.29,.05-.58-.03-.81-.21-.25-.19-.42-.47-.47-.78-.51-2.85-1.02-5.71-1.53-8.56-.02-.09-.08-.13-.18-.11-.38,.07-.77,.14-1.15,.21-.1,.02-.14,.07-.13,.17,.63,3.86,.45,6.97-.46,9.34-.08,.25-.29,.43-.54,.48h-.04c-.27,.05-.55-.03-.76-.21-.16-.1-.32-.21-.49-.33-.26-.15-.45-.39-.54-.67-.03-.06-.05-.13-.06-.19-.05-.23-.04-.47,.04-.69,.41-1.21,.59-2.48,.53-3.75-.07-1.45-.25-2.89-.56-4.31l-1.22-5.94c-.06-.28,.02-.57,.22-.77,.12-.15,.29-.26,.48-.3,.09-.02,.18-.02,.27-.01l.36,.03c.1,0,.19-.01,.28-.06,1.22-.58,2.41-1.24,3.55-1.97,.23-.15,.48-.24,.74-.29,.09-.02,.18-.02,.27-.02,.35-.01,.7,.08,1,.27,.25,.16,.49,.32,.74,.48,.18,.11,.3,.29,.33,.5l.02,.14c0,.26-.14,.51-.37,.63-1.51,.85-3.06,1.6-4.66,2.26Z"/><path id="Path_9876" class="cls-8" d="M116.73,13.96c.21,.24,.33,.53,.35,.85,.03,.33-.05,.66-.24,.93l-.34,.46c-.13,.19-.34,.32-.57,.33h-.09c-.27,0-.53-.14-.69-.36-.3-.41-.66-.87-1.08-1.4-.01-.02-.04-.03-.07-.02-.03,.01-.04,.03-.04,.06-.23,1.69-.8,3.3-1.7,4.75-.14,.21-.35,.35-.6,.38h-.09c-.29,.02-.57-.09-.78-.3l-.42-.4c-.22-.18-.36-.44-.39-.73-.04-.29,.03-.59,.19-.84,1.02-1.81,1.48-3.88,1.31-5.96,0-.1-.05-.14-.15-.13-.42,.05-.84,.1-1.27,.15-.31,.04-.62-.05-.85-.25-.24-.2-.4-.48-.43-.79l-.04-.32c-.05-.31,.03-.63,.22-.89,.18-.25,.47-.41,.77-.44,.47-.06,.93-.11,1.4-.17,.09-.01,.13-.07,.12-.18-.07-.62-.14-1.23-.21-1.85-.01-.11-.07-.16-.16-.14-.38,.04-.76,.09-1.15,.13-.31,.04-.62-.05-.87-.25-.25-.19-.42-.48-.45-.79l-.03-.24c-.08-.65,.38-1.25,1.03-1.33,.39-.05,.78-.09,1.17-.14,.07,0,.13-.05,.13-.12,0-.01,0-.02,0-.04l-.17-1.49c-.04-.32,.05-.64,.26-.89,.2-.25,.49-.41,.81-.43l.43-.04c.32-.04,.64,.05,.89,.26,.25,.2,.41,.49,.43,.81l.14,1.49c0,.09,.07,.14,.17,.13,.36-.03,.71-.07,1.07-.1,.32-.04,.64,.07,.88,.28,.24,.2,.39,.5,.41,.81l.02,.24c.03,.31-.07,.62-.27,.87-.19,.25-.49,.4-.8,.43-.35,.03-.7,.06-1.05,.1-.08,0-.14,.06-.15,.14,0,.01,0,.03,0,.04,.06,.62,.12,1.24,.18,1.86,0,.08,.05,.14,.13,.15,.01,0,.03,0,.04,0,.43-.04,.86-.08,1.29-.12,.31-.03,.62,.07,.85,.27,.24,.21,.38,.51,.4,.82l.03,.32c.03,.31-.06,.62-.26,.87-.19,.25-.47,.4-.78,.42-.48,.04-.96,.09-1.44,.13-.04,0-.08,.03-.08,.07,0,0,0,0,0,0,0,.04,.02,.09,.06,.11,.51,.43,1.36,1.26,2.53,2.5Zm8.06,2.77h.33c.1-.01,.17-.09,.22-.24,.06-.31,.09-.62,.09-.93,0-.36,.29-.66,.66-.68,.11,0,.22,.03,.32,.07,.09,.04,.17,.08,.26,.12,.3,.13,.56,.34,.74,.62,.13,.21,.21,.46,.21,.71,0,.07,0,.15-.02,.22-.04,.74-.28,1.46-.69,2.08-.36,.4-.89,.62-1.43,.6l-1.09,.03c-.68,.12-1.37-.11-1.85-.62-.41-.77-.6-1.64-.57-2.51-.05-.99-.1-1.98-.15-2.98,0-.11-.05-.16-.14-.15l-.32,.02c-.09,0-.14,.06-.14,.17-.03,.64-.1,1.28-.22,1.91-.11,.57-.28,1.12-.49,1.66-.23,.56-.54,1.08-.93,1.54-.43,.5-.92,.93-1.47,1.28-.14,.09-.3,.14-.46,.16-.12,0-.25,0-.37-.03-.3-.09-.55-.29-.73-.55-.08-.1-.16-.2-.25-.3-.12-.14-.19-.32-.21-.51,0-.07,0-.15,0-.22,.03-.26,.17-.49,.39-.62,.69-.42,1.24-1.02,1.59-1.74,.31-.77,.48-1.59,.51-2.43,0-.09-.05-.14-.12-.13-.25,.02-.49-.07-.68-.24-.2-.17-.32-.42-.33-.69l-.76-10.03c-.03-.32,.08-.63,.29-.87,.21-.25,.5-.4,.82-.42,2.37-.16,4.74-.28,7.12-.34,.32-.02,.64,.11,.87,.33,.23,.22,.36,.52,.36,.83l.2,9.85c.01,.32-.1,.62-.31,.86-.2,.23-.49,.36-.79,.36l-.68,.02c-.09,0-.13,.06-.13,.17,.03,.98,.06,1.96,.09,2.94,0,.19,.02,.39,.06,.58,.03,.07,.11,.11,.18,.1h0Zm-5.07-13.17c-.08,0-.15,.05-.15,.13,0,.01,0,.03,0,.04,0,.14,.02,.28,.02,.43,0,.1,.06,.14,.17,.13,1.13-.07,2.27-.12,3.41-.17,.11,0,.16-.05,.15-.15l-.02-.43c0-.08-.05-.15-.13-.16-.01,0-.03,0-.04,0-1.14,.04-2.28,.1-3.42,.17Zm.18,3.1c-.11,0-.15,.06-.15,.15l.03,.44c0,.08,.05,.15,.13,.15,.01,0,.03,0,.04,0,1.11-.07,2.23-.12,3.35-.16,.08,0,.15-.05,.15-.13,0-.01,0-.03,0-.04l-.02-.45c0-.09-.06-.14-.16-.14-1.12,.04-2.24,.1-3.36,.16Zm.18,3.08c-.08,0-.14,.06-.15,.13,0,.01,0,.03,0,.04l.03,.45c0,.09,.06,.14,.16,.13,1.09-.07,2.19-.12,3.28-.16,.1,0,.15-.05,.15-.15l-.02-.45c0-.11-.06-.16-.16-.16-1.1,.04-2.2,.09-3.3,.16Z"/><path id="Path_9877" class="cls-8" d="M137.14,10.35c.15,.3,.22,.63,.2,.96-.01,.37-.14,.72-.35,1.02l-.12,.18c-.11,.17-.3,.27-.51,.26-.03,0-.05,0-.07-.02-.23-.03-.43-.19-.5-.41-.07-.21-.16-.46-.28-.76-.01-.03-.02-.04-.04-.03-.01,0-.02,.02-.02,.03-.09,2.33-.17,4.66-.26,6.99,0,.31-.13,.62-.35,.84-.2,.21-.48,.33-.77,.32h-.29c-.29-.01-.57-.15-.76-.37-.2-.24-.31-.55-.29-.86l.11-5.43s0-.02-.03-.03-.03,0-.03,.01c-.24,.69-.53,1.36-.85,2.01-.07,.18-.24,.3-.43,.3h-.07c-.21-.03-.39-.17-.46-.37-.07-.18-.15-.35-.24-.53-.14-.3-.22-.64-.22-.97,0-.38,.11-.76,.29-1.09,.86-1.67,1.51-3.45,1.93-5.29,.01-.1-.02-.14-.12-.14h-.73c-.31-.01-.61-.15-.82-.38-.22-.22-.35-.53-.34-.84v-.4c0-.32,.13-.62,.36-.84,.22-.23,.52-.35,.84-.35,.31,0,.63,.01,.94,.02,.11,0,.16-.04,.16-.14l.06-2.86c.02-.66,.56-1.18,1.22-1.17,0,0,.01,0,.02,0h.33c.32,.02,.63,.15,.84,.39,.22,.23,.34,.54,.33,.85-.04,.95-.07,1.9-.11,2.86-.01,.07,.03,.13,.1,.15,.01,0,.02,0,.03,0l.56,.02c.31,.01,.61,.15,.82,.39,.22,.23,.33,.54,.31,.86,0,.14-.01,.27-.02,.4-.01,.32-.15,.61-.39,.82-.22,.22-.52,.33-.83,.32l-.55-.02c-.07-.01-.13,.03-.14,.1,0,.01,0,.02,0,.03v.39c-.02,.09,0,.19,.05,.27,.31,.47,.8,1.31,1.48,2.52Zm8.93,1.65c.22-.22,.52-.35,.83-.36,.06,0,.12,0,.18,0,.25,.03,.48,.13,.66,.3l.26,.25c.24,.22,.35,.53,.31,.85-.03,.27-.17,.51-.39,.67-.58,.45-1.12,.85-1.62,1.21-.08,.06-.1,.13-.04,.2,.43,.61,.94,1.16,1.51,1.64,.2,.17,.32,.42,.33,.69,0,.07,0,.13,0,.2-.03,.2-.11,.39-.25,.54-.16,.17-.31,.34-.45,.52-.19,.24-.47,.39-.77,.42-.07,.02-.15,.02-.22,.02-.2-.03-.39-.13-.52-.28-.68-.72-1.24-1.54-1.67-2.43-.01-.03-.02-.04-.04-.03s-.03,.02-.03,.05c-.03,.34-.07,.69-.1,1.03-.03,.52-.14,1.03-.33,1.52-.15,.35-.42,.63-.75,.81-.55,.24-1.15,.35-1.75,.32h-.07c-.27-.03-.53-.16-.71-.36-.23-.24-.37-.54-.41-.86-.07-.46-.19-.91-.33-1.34-.03-.1-.08-.12-.16-.07-.41,.22-.77,.41-1.07,.56-.26,.14-.56,.15-.83,.04-.28-.11-.5-.34-.6-.62-.05-.14-.11-.28-.17-.41-.06-.16-.09-.32-.09-.49,0-.13,.03-.26,.07-.38,.1-.29,.31-.52,.59-.64,.59-.25,1.39-.62,2.42-1.08,.13-.06,.28-.08,.42-.07,.13,.01,.26,.05,.37,.11,.26,.14,.43,.4,.48,.69l.05,.14c.03,.15,.03,.3,.02,.45-.01,.18-.06,.36-.13,.52-.12,.31-.35,.56-.65,.71-.14,.07-.35,.19-.62,.34-.02,0-.03,.01-.03,.04,0,.02,.02,.04,.04,.04,.33,.04,.75,.07,1.25,.11,.15,.03,.3-.07,.33-.22,0-.03,0-.05,0-.08l.51-6.57c.02-.07-.03-.15-.1-.17-.01,0-.03,0-.04,0-1.06-.08-2.12-.15-3.19-.21-.3-.02-.59-.16-.78-.39-.21-.24-.32-.55-.3-.87v-.04c.01-.31,.15-.61,.38-.82,.22-.22,.52-.33,.83-.31,1.08,.06,2.16,.13,3.24,.21,.1,0,.16-.04,.17-.13l.02-.2c0-.09-.04-.14-.15-.15-.81-.06-1.63-.12-2.44-.17-.29-.01-.56-.15-.75-.37-.4-.46-.36-1.16,.09-1.58,.22-.2,.51-.3,.8-.28,.82,.05,1.65,.11,2.47,.17,.11,0,.16-.03,.17-.13v-.16c.02-.09-.03-.14-.14-.15-.98-.07-1.96-.14-2.94-.2-.31-.01-.59-.15-.79-.39-.21-.23-.31-.54-.29-.85,.01-.31,.15-.6,.38-.81,.22-.21,.53-.32,.84-.3l.51,.03s.07,0,.09-.03c.02-.03,.03-.07,.02-.1-.01-.04-.03-.09-.05-.12-.06-.14-.08-.3-.07-.45,.01-.15,.05-.29,.13-.42,.12-.27,.36-.47,.65-.53l.1-.03c.16-.04,.33-.06,.5-.05,.17,.01,.34,.06,.5,.14,.32,.12,.58,.37,.71,.68,.15,.32,.26,.65,.35,.98,.02,.09,.1,.15,.19,.16,.68,.06,1.36,.11,2.04,.18,.1,.02,.19-.03,.24-.12,.15-.27,.3-.56,.45-.87,.13-.3,.38-.53,.68-.65,.2-.1,.43-.14,.65-.12,.1,.01,.19,.03,.28,.07,.23,.07,.45,.14,.68,.22,.26,.09,.46,.3,.54,.57,.03,.11,.04,.22,.02,.33-.02,.16-.09,.31-.19,.43-.09,.11-.18,.22-.26,.34-.02,.02-.02,.05,0,.08,0,.03,.03,.04,.06,.05l.26,.03c.64,.07,1.11,.66,1.03,1.3-.04,.31-.19,.59-.44,.79-.24,.2-.55,.29-.86,.25-.95-.11-1.9-.21-2.85-.3-.07-.02-.13,.03-.15,.09,0,.01,0,.02,0,.03v.16c-.03,.07,0,.13,.08,.15,.01,0,.02,0,.03,0,.84,.08,1.67,.17,2.51,.26,.29,.03,.55,.18,.72,.41,.18,.23,.27,.53,.23,.82-.03,.29-.18,.56-.41,.75-.22,.18-.5,.27-.78,.24-.82-.09-1.65-.18-2.47-.25-.07-.02-.13,.03-.15,.09,0,.01,0,.02,0,.03l-.02,.2c-.02,.07,.02,.13,.09,.15,.01,0,.02,0,.04,0,1.07,.1,2.13,.21,3.19,.34,.31,.03,.6,.19,.78,.45,.19,.25,.27,.57,.23,.88v.04c-.04,.32-.19,.6-.44,.81-.24,.2-.54,.29-.85,.25-1.05-.12-2.09-.23-3.14-.33-.09,0-.14,.04-.15,.15l-.04,.4c-.01,.1,0,.21,.03,.31,.13,.45,.25,.83,.37,1.16,.04,.1,.1,.11,.17,.04,.3-.25,.61-.51,.91-.79Zm-5.31,.15c.14,.2,.2,.44,.18,.68,0,.07-.02,.15-.04,.22-.08,.3-.26,.57-.53,.73l-.2,.11c-.17,.12-.37,.18-.58,.17-.08,0-.16-.02-.24-.04-.29-.09-.53-.28-.67-.55-.13-.22-.27-.46-.44-.69-.14-.2-.2-.44-.19-.68,0-.05,.01-.11,.03-.16,.04-.3,.22-.57,.48-.72l.04-.02c.22-.15,.48-.22,.74-.2,.06,0,.12,.02,.17,.03,.31,.04,.6,.22,.78,.48,.17,.23,.32,.44,.46,.64h0Z"/><path id="Path_9878" class="cls-8" d="M159.2,3.43c.08-.01,.15-.01,.23,0,.16,.03,.32,.11,.44,.22,.21,.17,.41,.34,.62,.5,.27,.21,.45,.51,.53,.84,.03,.2,.03,.4,0,.6-.03,.13-.07,.27-.13,.39-.94,1.91-1.66,3.33-2.18,4.26-.04,.09-.04,.2,0,.29,.6,1.3,.77,2.75,.47,4.15-.07,1.08-.62,2.07-1.51,2.69-.38,.19-.81,.28-1.23,.27-.06,0-.11,0-.17,0-.04,0-.08,0-.12,0-.25-.05-.48-.2-.61-.42-.2-.26-.3-.58-.31-.91,0-.31-.03-.61-.08-.92,0,0,0-.02-.01-.02,0,0,0,0,0,0-.01,0-.02,0-.02,.02-.28,1.71-.56,3.41-.84,5.12-.04,.31-.21,.6-.45,.79-.22,.19-.51,.27-.8,.22l-.36-.06c-.29-.04-.55-.21-.71-.46-.17-.26-.24-.58-.18-.89,.8-5.42,1.6-10.84,2.4-16.26,.04-.32,.21-.6,.47-.79,.26-.19,.58-.27,.9-.21,1.19,.18,2.38,.38,3.56,.59,.04,0,.07,0,.11,0Zm-2.36,2.33c-.07-.02-.14,.01-.16,.08,0,.01,0,.02,0,.04-.48,2.93-.97,5.86-1.45,8.78-.02,.06,.01,.13,.08,.16,.01,0,.02,0,.03,0l.34,.06c.19,.04,.38,.02,.55-.07,.23-.12,.39-.45,.48-.99,.14-.83,.09-1.68-.16-2.48-.17-.52-.22-1.08-.14-1.63,.03-.19,.08-.37,.15-.55,.38-.91,.79-1.94,1.24-3.1,.03-.09,0-.14-.1-.16-.28-.05-.57-.1-.85-.14h0Zm11.32,9.83s-.02,0-.04,.02c-.01,.02-.01,.04,0,.05,.3,.36,.6,.72,.9,1.08,.35,.43,.28,1.05-.14,1.4-.04,.03-.08,.06-.12,.08-.59,.35-1.16,.67-1.71,.97-.08,.03-.11,.11-.08,.19,0,0,0,.02,.01,.02,.29,.72,.7,1.39,1.21,1.98,.18,.21,.26,.48,.23,.75-.02,.07-.03,.12-.05,.18-.06,.21-.17,.4-.33,.54-.21,.16-.42,.33-.61,.51-.22,.21-.51,.34-.81,.36-.09,0-.17,0-.26-.02-.2-.05-.37-.17-.49-.33-.82-1.09-1.4-2.35-1.68-3.68-.35-1.64-.5-3.32-.46-5,0-.09-.06-.16-.14-.18l-.72-.15c-.09-.02-.14,.03-.17,.13l-.93,4.38c-.02,.11,.01,.15,.1,.15,.23,0,.58,.02,1.05,.04,.06,0,.13,0,.19,.02,.22,.05,.42,.18,.55,.37,.19,.24,.27,.54,.21,.84l-.03,.22-.03,.14c-.06,.27-.21,.52-.41,.72-.22,.23-.52,.36-.84,.37-1.12,.03-2.46,.07-4.03,.13-.09,0-.18-.02-.27-.03-.2-.04-.39-.14-.54-.29-.24-.21-.38-.5-.41-.82-.02-.23-.05-.46-.08-.7-.02-.11-.02-.22,0-.33,.03-.18,.12-.34,.24-.47,.16-.22,.43-.35,.71-.34,.26,0,.49,.02,.68,.03,.08,0,.15-.05,.16-.13,0,0,0,0,0,0l2.65-13.63c.05-.32,.24-.6,.51-.77,.26-.18,.59-.24,.9-.17,2.48,.5,4.96,1.06,7.42,1.67,.31,.07,.58,.27,.74,.54,.17,.27,.22,.6,.14,.91-.64,2.48-1.27,4.96-1.91,7.44-.07,.28-.25,.52-.49,.67-.24,.16-.53,.21-.8,.14h0Zm-.08-7.49c.03-.06,0-.14-.07-.16-.01,0-.02,0-.04,0-1.19-.28-2.38-.55-3.58-.8-.07-.02-.14,0-.16,.07,0,.01,0,.02,0,.03l-.18,.83c-.02,.11,.01,.17,.1,.19,1.19,.25,2.37,.52,3.55,.8,.09,.02,.15-.02,.18-.12,.07-.28,.13-.56,.2-.83h0Zm-4.43,2.53c-.06-.02-.14,.01-.16,.08,0,.01,0,.02,0,.03l-.2,.93c-.02,.06,0,.14,.07,.16,0,0,.02,0,.03,0,1.16,.25,2.32,.51,3.47,.78,.06,.02,.13,0,.16-.07,0-.01,0-.02,0-.04,.07-.31,.15-.62,.22-.93,.03-.06,0-.14-.07-.16-.01,0-.02,0-.03,0-1.16-.28-2.33-.54-3.5-.79h0Zm4.2,5s.03-.05,.02-.08c0-.03-.02-.05-.05-.05-.51-.12-1.02-.25-1.52-.37-.04,0-.08,0-.11,.03-.03,.02-.05,.05-.04,.08,.01,.49,.06,.97,.13,1.45,.01,.1,.06,.12,.14,.06,.5-.36,.98-.73,1.42-1.11h0Z"/><path id="Path_9879" class="cls-8" d="M182.83,23.33c-.06-.03-.13,0-.16,.05,0,.01,0,.02-.01,.03-.24,.67-.48,1.33-.72,2-.04,.1-.01,.17,.07,.2,.46,.23,.94,.43,1.42,.61,1.97,.74,3.45,1.32,4.45,1.7h.02c.22,.09,.37,.29,.4,.52,.02,.15,0,.3-.06,.44-.04,.1-.1,.18-.17,.26-.18,.22-.37,.44-.54,.68-.21,.26-.48,.46-.8,.57-.29,.11-.61,.1-.9-.01-1.19-.48-2.39-.94-3.59-1.39-1.43-.49-2.77-1.2-3.97-2.11-1.01-.85-1.73-2-2.05-3.29-.01-.03-.04-.05-.07-.05-.03,0-.06,0-.08,.03-.65,.77-1.41,1.45-2.25,2.02-.23,.17-.54,.22-.81,.14h-.02c-.29-.1-.54-.3-.68-.57-.13-.24-.27-.47-.41-.69-.16-.24-.2-.54-.11-.81,.07-.26,.24-.49,.47-.62,1.75-1.26,3.11-3,3.92-5.01,.12-.29,.35-.53,.65-.65,.24-.12,.52-.14,.77-.06,.04,.01,.07,.03,.11,.05l.69,.28c.29,.13,.51,.37,.61,.66,.09,.23,.09,.48,.01,.71-.02,.06-.05,.13-.08,.19-.2,.39-.4,.76-.6,1.1-.04,.09-.06,.18-.07,.28,.03,1.11,.4,2.18,1.05,3.08,.02,.02,.05,.03,.07,.01,.03,0,.05-.03,.06-.05l2-5.87c.03-.06,0-.14-.05-.17-.01,0-.02,0-.03-.01-.82-.28-1.65-.55-2.47-.81-.3-.09-.55-.31-.68-.59-.14-.28-.17-.6-.07-.9l.14-.44c.09-.31,.3-.56,.58-.71,.28-.15,.6-.18,.9-.07,2.73,.88,5.45,1.83,8.15,2.85,.3,.11,.54,.33,.66,.62,.13,.29,.13,.62,.01,.92l-.17,.43c-.11,.29-.33,.53-.62,.66-.28,.14-.61,.15-.9,.03-.79-.3-1.58-.59-2.37-.88-.06-.03-.14,0-.17,.05,0,.01,0,.02-.01,.03l-.62,1.72c-.03,.06-.01,.14,.05,.17,0,0,.02,0,.03,.01,1.24,.45,2.47,.91,3.69,1.39,.29,.11,.52,.34,.63,.63,.12,.29,.12,.61,0,.9l-.16,.41c-.11,.29-.33,.53-.62,.66-.27,.14-.6,.15-.88,.04-1.21-.47-2.42-.92-3.63-1.36Zm-4.11-11.11c-.09-.03-.15,.01-.18,.11-.14,.45-.28,.89-.41,1.34-.09,.31-.3,.57-.59,.71-.27,.15-.59,.18-.89,.09l-.53-.16c-.3-.08-.56-.29-.7-.57-.15-.28-.18-.61-.09-.91,.3-1.02,.6-2.05,.89-3.08,.08-.31,.29-.57,.57-.72,.28-.15,.62-.19,.92-.09,1.96,.58,3.91,1.2,5.86,1.86,.09,.03,.15,0,.19-.11l.18-.54c.1-.31,.32-.56,.62-.69,.29-.14,.63-.15,.93-.04l.83,.29c.31,.1,.56,.32,.7,.61,.15,.29,.17,.62,.05,.93l-.19,.53c-.04,.1-.01,.17,.08,.2,1.95,.71,3.89,1.45,5.83,2.23,.3,.11,.55,.35,.68,.65,.13,.29,.13,.63,0,.92l-1.22,2.96c-.12,.3-.35,.53-.64,.66-.29,.13-.62,.13-.91,0-.22-.09-.43-.18-.65-.26-.3-.11-.53-.34-.65-.63-.13-.29-.13-.62,0-.92,.17-.43,.34-.87,.51-1.3,.04-.07,.02-.16-.05-.19-.01,0-.02-.01-.04-.01-3.66-1.43-7.35-2.72-11.08-3.87Z"/><g><g><path class="cls-9" d="M26,234.45c-3.68,0-7.16-1.45-9.79-4.09-2.62-2.61-4.07-6.09-4.07-9.77,0-5.34,2.05-10.1,5.94-13.78,.02-.02,.05-.05,.07-.07,6.42-5.96,11.26-11.06,14.38-15.15,.34-.45,.65-.87,.92-1.26-1.51,.5-3.09,.76-4.71,.76-3.72,0-7.14-1.38-9.91-3.99-.07-.06-.14-.13-.2-.2l-1.04-1.04c-2.8-2.71-4.34-6.34-4.34-10.26s1.67-7.75,4.69-10.44c.05-.05,.11-.1,.17-.14,3.2-2.72,6.61-4.77,10.13-6.09,3.57-1.33,7.6-2,11.99-2,8.09,0,14.9,2.55,20.24,7.58,5.43,5.12,8.3,12.08,8.3,20.14,0,6.14-2.09,12.59-6.33,19.48,1.77,.73,3.38,1.82,4.76,3.23,2.65,2.73,4.1,6.29,4.1,10.05v2.67c0,3.76-1.45,7.33-4.09,10.05-2.71,2.79-6.37,4.33-10.29,4.33H26Z"/><path class="cls-9" d="M68.78,237.06c-1.9,0-3.73-.42-5.44-1.26-2.84-1.37-5.05-3.75-6.24-6.71-.63-1.51-.96-3.1-.96-4.72,0-1.78,.39-3.54,1.16-5.22,.23-.51,.49-1.01,.78-1.48-1.17-2.16-1.79-4.63-1.79-7.26,0-4.4,1.8-8.39,5.06-11.25,2.93-2.57,6.62-3.93,10.68-3.93,5.27,0,9.81,2.28,12.79,6.42,2.33,3.24,3.51,7.35,3.51,12.21s-1.3,9.39-3.86,13.27c-2.52,3.83-6.09,6.8-10.61,8.84-.14,.06-.28,.12-.42,.18-1.52,.6-3.09,.91-4.66,.91Zm-5.43-24.26h0Z"/><path class="cls-9" d="M102.24,235.49c-9.38,0-17.24-4.12-22.74-11.91-4.8-6.81-7.24-16.12-7.24-27.67s2.39-20.76,7.29-27.5c5.47-7.51,13.31-11.49,22.65-11.49s17.19,3.99,22.71,11.55c4.89,6.69,7.38,15.92,7.38,27.44s-2.46,20.88-7.3,27.7c-5.52,7.77-13.39,11.88-22.76,11.88Z"/><path class="cls-9" d="M145.91,235.49c-9.38,0-17.24-4.12-22.74-11.91-4.8-6.81-7.24-16.12-7.24-27.67s2.39-20.76,7.29-27.5c5.47-7.51,13.31-11.49,22.65-11.49s17.19,3.99,22.71,11.55c4.89,6.69,7.38,15.92,7.38,27.44s-2.46,20.88-7.3,27.7c-5.52,7.77-13.39,11.88-22.76,11.88Z"/><path class="cls-9" d="M189.59,235.49c-9.38,0-17.24-4.12-22.74-11.91-4.8-6.81-7.24-16.12-7.24-27.67s2.39-20.76,7.29-27.5c5.47-7.51,13.31-11.49,22.65-11.49s17.19,3.99,22.71,11.55c4.89,6.69,7.38,15.92,7.38,27.44s-2.46,20.88-7.3,27.7c-5.52,7.77-13.39,11.88-22.76,11.88Z"/></g><g><path class="cls-12" d="M26,224.45c-1.04,0-1.94-.38-2.71-1.15-.77-.77-1.15-1.67-1.15-2.71,0-2.57,.94-4.74,2.82-6.52,6.87-6.38,12.05-11.85,15.53-16.42,3.48-4.57,5.23-8.64,5.23-12.19,0-2.57-.66-4.55-1.96-5.93-1.31-1.38-3.1-2.08-5.37-2.08-2.12,0-4.25,.82-6.38,2.45-.99,.79-2.08,1.19-3.26,1.19s-2.15-.42-3.04-1.26l-1.11-1.11c-.89-.84-1.33-1.88-1.33-3.11s.44-2.17,1.33-2.96c2.32-1.98,4.71-3.42,7.15-4.34,2.45-.91,5.28-1.37,8.49-1.37,5.49,0,9.94,1.62,13.38,4.86,3.43,3.24,5.15,7.52,5.15,12.86,0,7.91-5.56,17.5-16.68,28.76-.05,.1-.05,.18,0,.26,.05,.07,.12,.11,.22,.11,3.56-.49,6.42-.74,8.6-.74h6c1.23,0,2.27,.43,3.11,1.3,.84,.87,1.26,1.89,1.26,3.08v2.67c0,1.19-.42,2.21-1.26,3.08-.84,.87-1.88,1.3-3.11,1.3H26Z"/><path class="cls-12" d="M72.23,215.99c.03-.27-.08-.41-.36-.41h-.1c-1.49,0-2.78-.46-3.86-1.4-1.08-.93-1.62-2.19-1.62-3.78s.55-2.77,1.65-3.73c1.1-.96,2.46-1.45,4.09-1.45,2.03,0,3.59,.75,4.67,2.26,1.08,1.51,1.62,3.63,1.62,6.37,0,2.95-.74,5.54-2.21,7.77s-3.6,3.98-6.37,5.23c-.34,.13-.66,.2-.96,.2-.37,0-.73-.08-1.07-.25-.64-.3-1.1-.81-1.37-1.52-.14-.3-.2-.61-.2-.91,0-.34,.08-.69,.25-1.07,.3-.68,.78-1.19,1.42-1.52,2.78-1.52,4.25-3.45,4.42-5.79Z"/><path class="cls-12" d="M116.84,217.82c-3.63,5.12-8.5,7.67-14.6,7.67s-10.96-2.56-14.57-7.67c-3.61-5.11-5.41-12.42-5.41-21.91s1.79-16.69,5.38-21.61c3.58-4.92,8.44-7.38,14.57-7.38s11.01,2.48,14.64,7.45c3.63,4.97,5.45,12.15,5.45,21.53s-1.82,16.79-5.45,21.91Zm-17.49-3.63c.82,.57,1.77,.85,2.85,.85s2.04-.28,2.85-.85c.82-.57,1.58-1.53,2.3-2.89,.72-1.36,1.26-3.32,1.63-5.89,.37-2.57,.56-5.73,.56-9.49s-.18-6.83-.56-9.38c-.37-2.54-.92-4.46-1.63-5.75-.72-1.28-1.48-2.19-2.3-2.71-.82-.52-1.77-.78-2.85-.78s-2.03,.26-2.82,.78c-.79,.52-1.53,1.42-2.22,2.71-.69,1.29-1.22,3.2-1.59,5.75-.37,2.55-.56,5.67-.56,9.38s.19,6.92,.56,9.49c.37,2.57,.89,4.53,1.56,5.89,.67,1.36,1.41,2.32,2.22,2.89Z"/><path class="cls-12" d="M160.52,217.82c-3.63,5.12-8.5,7.67-14.6,7.67s-10.96-2.56-14.57-7.67c-3.61-5.11-5.41-12.42-5.41-21.91s1.79-16.69,5.38-21.61c3.58-4.92,8.44-7.38,14.57-7.38s11.01,2.48,14.64,7.45c3.63,4.97,5.45,12.15,5.45,21.53s-1.82,16.79-5.45,21.91Zm-17.49-3.63c.82,.57,1.77,.85,2.85,.85s2.04-.28,2.85-.85c.82-.57,1.58-1.53,2.3-2.89,.72-1.36,1.26-3.32,1.63-5.89,.37-2.57,.56-5.73,.56-9.49s-.18-6.83-.56-9.38c-.37-2.54-.92-4.46-1.63-5.75-.72-1.28-1.48-2.19-2.3-2.71-.82-.52-1.77-.78-2.85-.78s-2.03,.26-2.82,.78c-.79,.52-1.53,1.42-2.22,2.71-.69,1.29-1.22,3.2-1.59,5.75-.37,2.55-.56,5.67-.56,9.38s.19,6.92,.56,9.49c.37,2.57,.89,4.53,1.56,5.89,.67,1.36,1.41,2.32,2.22,2.89Z"/><path class="cls-12" d="M204.2,217.82c-3.63,5.12-8.5,7.67-14.6,7.67s-10.96-2.56-14.57-7.67c-3.61-5.11-5.41-12.42-5.41-21.91s1.79-16.69,5.38-21.61c3.58-4.92,8.44-7.38,14.57-7.38s11.01,2.48,14.64,7.45c3.63,4.97,5.45,12.15,5.45,21.53s-1.82,16.79-5.45,21.91Zm-17.49-3.63c.82,.57,1.77,.85,2.85,.85s2.04-.28,2.85-.85c.82-.57,1.58-1.53,2.3-2.89,.72-1.36,1.26-3.32,1.63-5.89,.37-2.57,.56-5.73,.56-9.49s-.18-6.83-.56-9.38c-.37-2.54-.92-4.46-1.63-5.75-.72-1.28-1.48-2.19-2.3-2.71-.82-.52-1.77-.78-2.85-.78s-2.03,.26-2.82,.78c-.79,.52-1.53,1.42-2.22,2.71-.69,1.29-1.22,3.2-1.59,5.75-.37,2.55-.56,5.67-.56,9.38s.19,6.92,.56,9.49c.37,2.57,.89,4.53,1.56,5.89,.67,1.36,1.41,2.32,2.22,2.89Z"/></g><g><path class="cls-8" d="M26,230.45c-2.65,0-5.05-1.01-6.95-2.91-1.89-1.89-2.9-4.29-2.9-6.94,0-4.21,1.62-7.97,4.69-10.88,6.64-6.16,11.63-11.43,14.88-15.7,3.31-4.34,4-7.05,4-8.56,0-1.2-.23-1.71-.32-1.81-.18-.19-.88-.2-1.01-.2-.76,0-1.66,.4-2.69,1.18-2.03,1.61-4.43,2.45-6.95,2.45-2.68,0-5.15-1-7.16-2.9-.04-.04-1.18-1.18-1.18-1.18-2.06-1.97-3.14-4.53-3.14-7.41s1.19-5.53,3.35-7.45c.03-.03,.07-.06,.1-.09,2.84-2.42,5.85-4.23,8.94-5.39,3.12-1.16,6.68-1.75,10.59-1.75,7.04,0,12.92,2.18,17.49,6.49,4.67,4.4,7.04,10.2,7.04,17.23s-3.01,14.21-9.16,22.39h1.3c2.87,0,5.43,1.08,7.41,3.11,1.94,2,2.96,4.51,2.96,7.26v2.67c0,2.76-1.02,5.27-2.96,7.26-1.98,2.04-4.54,3.12-7.42,3.12H26Z"/><path class="cls-8" d="M68.78,233.06c-1.29,0-2.53-.29-3.69-.86-1.98-.96-3.47-2.56-4.3-4.64-.43-1.03-.65-2.1-.65-3.2,0-1.21,.27-2.4,.8-3.56,.51-1.14,1.24-2.14,2.14-2.97-1.82-1.98-2.78-4.53-2.78-7.43,0-3.27,1.28-6.12,3.7-8.24,2.19-1.92,4.97-2.94,8.04-2.94,3.95,0,7.33,1.69,9.54,4.75,1.83,2.54,2.76,5.87,2.76,9.88s-1.08,7.85-3.2,11.07c-2.1,3.19-5.1,5.67-8.91,7.4-.08,.04-.17,.07-.25,.11-1.05,.42-2.12,.63-3.18,.63Z"/><path class="cls-8" d="M102.24,231.49c-8.02,0-14.76-3.53-19.47-10.21-4.32-6.12-6.51-14.66-6.51-25.36s2.13-19.12,6.53-25.14c4.69-6.44,11.4-9.84,19.42-9.84s14.74,3.43,19.48,9.91c4.38,5.99,6.61,14.43,6.61,25.08s-2.21,19.25-6.56,25.38c-4.74,6.67-11.48,10.2-19.5,10.2Zm.03-47.45c-.19,.51-.5,1.53-.76,3.35-.33,2.25-.49,5.11-.49,8.51s.17,6.36,.5,8.63c.25,1.76,.54,2.84,.75,3.47,.22-.58,.53-1.64,.79-3.47,.33-2.27,.49-5.18,.49-8.63s-.17-6.27-.49-8.51c-.27-1.87-.59-2.88-.78-3.36Z"/><path class="cls-8" d="M145.91,231.49c-8.02,0-14.76-3.53-19.47-10.21-4.32-6.12-6.51-14.66-6.51-25.36s2.13-19.12,6.53-25.14c4.69-6.44,11.4-9.84,19.42-9.84s14.74,3.43,19.48,9.91c4.38,5.99,6.61,14.43,6.61,25.08s-2.21,19.25-6.56,25.38c-4.74,6.67-11.48,10.2-19.5,10.2Zm.03-47.45c-.19,.51-.5,1.53-.76,3.35-.33,2.25-.49,5.11-.49,8.51s.17,6.36,.5,8.63c.25,1.76,.54,2.84,.75,3.47,.22-.58,.53-1.64,.79-3.47,.33-2.27,.49-5.18,.49-8.63s-.17-6.27-.49-8.51c-.27-1.87-.59-2.88-.78-3.36Z"/><path class="cls-8" d="M189.59,231.49c-8.02,0-14.76-3.53-19.47-10.21-4.32-6.12-6.51-14.66-6.51-25.36s2.13-19.12,6.53-25.14c4.69-6.44,11.4-9.84,19.42-9.84s14.74,3.43,19.48,9.91c4.38,5.99,6.61,14.43,6.61,25.08s-2.21,19.25-6.56,25.38c-4.74,6.67-11.48,10.2-19.5,10.2Zm.03-47.45c-.19,.51-.5,1.53-.76,3.35-.33,2.25-.49,5.11-.49,8.51s.17,6.36,.5,8.63c.25,1.76,.54,2.84,.75,3.47,.22-.58,.53-1.64,.79-3.47,.33-2.27,.49-5.18,.49-8.63s-.17-6.27-.49-8.51c-.27-1.87-.59-2.88-.78-3.36Z"/></g><g><path class="cls-10" d="M26,224.45c-1.04,0-1.94-.38-2.71-1.15-.77-.77-1.15-1.67-1.15-2.71,0-2.57,.94-4.74,2.82-6.52,6.87-6.38,12.05-11.85,15.53-16.42,3.48-4.57,5.23-8.64,5.23-12.19,0-2.57-.66-4.55-1.96-5.93-1.31-1.38-3.1-2.08-5.37-2.08-2.12,0-4.25,.82-6.38,2.45-.99,.79-2.08,1.19-3.26,1.19s-2.15-.42-3.04-1.26l-1.11-1.11c-.89-.84-1.33-1.88-1.33-3.11s.44-2.17,1.33-2.96c2.32-1.98,4.71-3.42,7.15-4.34,2.45-.91,5.28-1.37,8.49-1.37,5.49,0,9.94,1.62,13.38,4.86,3.43,3.24,5.15,7.52,5.15,12.86,0,7.91-5.56,17.5-16.68,28.76-.05,.1-.05,.18,0,.26,.05,.07,.12,.11,.22,.11,3.56-.49,6.42-.74,8.6-.74h6c1.23,0,2.27,.43,3.11,1.3,.84,.87,1.26,1.89,1.26,3.08v2.67c0,1.19-.42,2.21-1.26,3.08-.84,.87-1.88,1.3-3.11,1.3H26Z"/><path class="cls-10" d="M72.23,215.99c.03-.27-.08-.41-.36-.41h-.1c-1.49,0-2.78-.46-3.86-1.4-1.08-.93-1.62-2.19-1.62-3.78s.55-2.77,1.65-3.73c1.1-.96,2.46-1.45,4.09-1.45,2.03,0,3.59,.75,4.67,2.26,1.08,1.51,1.62,3.63,1.62,6.37,0,2.95-.74,5.54-2.21,7.77s-3.6,3.98-6.37,5.23c-.34,.13-.66,.2-.96,.2-.37,0-.73-.08-1.07-.25-.64-.3-1.1-.81-1.37-1.52-.14-.3-.2-.61-.2-.91,0-.34,.08-.69,.25-1.07,.3-.68,.78-1.19,1.42-1.52,2.78-1.52,4.25-3.45,4.42-5.79Z"/><path class="cls-10" d="M116.84,217.82c-3.63,5.12-8.5,7.67-14.6,7.67s-10.96-2.56-14.57-7.67c-3.61-5.11-5.41-12.42-5.41-21.91s1.79-16.69,5.38-21.61c3.58-4.92,8.44-7.38,14.57-7.38s11.01,2.48,14.64,7.45c3.63,4.97,5.45,12.15,5.45,21.53s-1.82,16.79-5.45,21.91Zm-17.49-3.63c.82,.57,1.77,.85,2.85,.85s2.04-.28,2.85-.85c.82-.57,1.58-1.53,2.3-2.89,.72-1.36,1.26-3.32,1.63-5.89,.37-2.57,.56-5.73,.56-9.49s-.18-6.83-.56-9.38c-.37-2.54-.92-4.46-1.63-5.75-.72-1.28-1.48-2.19-2.3-2.71-.82-.52-1.77-.78-2.85-.78s-2.03,.26-2.82,.78c-.79,.52-1.53,1.42-2.22,2.71-.69,1.29-1.22,3.2-1.59,5.75-.37,2.55-.56,5.67-.56,9.38s.19,6.92,.56,9.49c.37,2.57,.89,4.53,1.56,5.89,.67,1.36,1.41,2.32,2.22,2.89Z"/><path class="cls-10" d="M160.52,217.82c-3.63,5.12-8.5,7.67-14.6,7.67s-10.96-2.56-14.57-7.67c-3.61-5.11-5.41-12.42-5.41-21.91s1.79-16.69,5.38-21.61c3.58-4.92,8.44-7.38,14.57-7.38s11.01,2.48,14.64,7.45c3.63,4.97,5.45,12.15,5.45,21.53s-1.82,16.79-5.45,21.91Zm-17.49-3.63c.82,.57,1.77,.85,2.85,.85s2.04-.28,2.85-.85c.82-.57,1.58-1.53,2.3-2.89,.72-1.36,1.26-3.32,1.63-5.89,.37-2.57,.56-5.73,.56-9.49s-.18-6.83-.56-9.38c-.37-2.54-.92-4.46-1.63-5.75-.72-1.28-1.48-2.19-2.3-2.71-.82-.52-1.77-.78-2.85-.78s-2.03,.26-2.82,.78c-.79,.52-1.53,1.42-2.22,2.71-.69,1.29-1.22,3.2-1.59,5.75-.37,2.55-.56,5.67-.56,9.38s.19,6.92,.56,9.49c.37,2.57,.89,4.53,1.56,5.89,.67,1.36,1.41,2.32,2.22,2.89Z"/><path class="cls-10" d="M204.2,217.82c-3.63,5.12-8.5,7.67-14.6,7.67s-10.96-2.56-14.57-7.67c-3.61-5.11-5.41-12.42-5.41-21.91s1.79-16.69,5.38-21.61c3.58-4.92,8.44-7.38,14.57-7.38s11.01,2.48,14.64,7.45c3.63,4.97,5.45,12.15,5.45,21.53s-1.82,16.79-5.45,21.91Zm-17.49-3.63c.82,.57,1.77,.85,2.85,.85s2.04-.28,2.85-.85c.82-.57,1.58-1.53,2.3-2.89,.72-1.36,1.26-3.32,1.63-5.89,.37-2.57,.56-5.73,.56-9.49s-.18-6.83-.56-9.38c-.37-2.54-.92-4.46-1.63-5.75-.72-1.28-1.48-2.19-2.3-2.71-.82-.52-1.77-.78-2.85-.78s-2.03,.26-2.82,.78c-.79,.52-1.53,1.42-2.22,2.71-.69,1.29-1.22,3.2-1.59,5.75-.37,2.55-.56,5.67-.56,9.38s.19,6.92,.56,9.49c.37,2.57,.89,4.53,1.56,5.89,.67,1.36,1.41,2.32,2.22,2.89Z"/></g></g><path class="cls-10" d="M83.63,254.87c-.28-.2-.42-.49-.42-.86,0-.29,.1-.56,.3-.78l.34-.4c.21-.23,.49-.36,.82-.38,.04-.01,.09-.02,.14-.02,.28,0,.54,.07,.78,.2,.47,.24,.93,.36,1.39,.36,1.81,0,2.79-1.44,2.93-4.32,0-.03-.01-.04-.03-.05-.02,0-.04,0-.05,.03-.36,.43-.81,.77-1.35,1.02-.54,.25-1.03,.38-1.49,.38-1.35,0-2.44-.41-3.25-1.22-.82-.81-1.23-2.01-1.23-3.59s.49-2.84,1.46-3.78c.97-.94,2.17-1.41,3.59-1.41,.75,0,1.46,.15,2.12,.44,.66,.29,1.27,.74,1.82,1.34,.55,.6,.98,1.41,1.3,2.43,.31,1.02,.47,2.21,.47,3.55s-.16,2.54-.49,3.6c-.33,1.06-.78,1.91-1.35,2.56s-1.21,1.14-1.93,1.47c-.72,.33-1.48,.49-2.28,.49-1.34,0-2.54-.35-3.6-1.06Zm4.08-7.4c.84,0,1.54-.43,2.09-1.31,.05-.08,.07-.17,.06-.28-.28-2.06-1.02-3.09-2.21-3.09-.52,0-.95,.2-1.29,.6-.34,.4-.5,1.02-.5,1.85,0,.78,.17,1.34,.5,1.7,.33,.36,.78,.53,1.35,.53Z"/><g><path class="cls-10" d="M112.78,256.31c-1.78,0-3.25-.44-4.4-1.33-.27-.2-.41-.48-.42-.82-.01-.04-.02-.07-.02-.1,0-.31,.09-.59,.28-.84l.3-.38c.17-.25,.42-.4,.74-.44h.16c.25,0,.49,.07,.7,.22,.75,.5,1.51,.74,2.27,.74,.72,0,1.3-.15,1.72-.45,.42-.3,.63-.73,.63-1.3,0-.62-.19-1.09-.58-1.43-.39-.33-1.11-.54-2.15-.62-.32-.03-.6-.16-.83-.39s-.35-.52-.35-.85v-.2c0-.32,.12-.6,.35-.83s.51-.37,.83-.41c.8-.11,1.38-.32,1.73-.65,.35-.33,.52-.76,.52-1.3s-.15-.92-.44-1.21c-.29-.28-.73-.42-1.31-.42s-1.2,.19-1.79,.56c-.23,.15-.48,.22-.74,.22h-.16c-.32-.04-.58-.18-.78-.42l-.34-.4c-.19-.21-.28-.46-.28-.74v-.14c.04-.32,.19-.57,.46-.74,1.21-.79,2.48-1.19,3.82-1.19,1.61,0,2.88,.37,3.83,1.09,.94,.73,1.42,1.77,1.42,3.12,0,1.57-.81,2.69-2.43,3.36-.03,.01-.04,.04-.04,.07s.01,.06,.04,.07c.88,.27,1.59,.72,2.12,1.35s.79,1.41,.79,2.35-.26,1.73-.78,2.42c-.52,.69-1.21,1.2-2.05,1.54-.84,.33-1.78,.5-2.81,.5Z"/><path class="cls-10" d="M129.09,254.23c-.98,1.39-2.3,2.08-3.96,2.08s-2.97-.69-3.95-2.08c-.98-1.39-1.47-3.37-1.47-5.94s.49-4.52,1.46-5.86c.97-1.33,2.29-2,3.95-2s2.98,.67,3.97,2.02c.98,1.35,1.48,3.29,1.48,5.84s-.49,4.55-1.48,5.94Zm-4.74-.98c.22,.15,.48,.23,.77,.23s.55-.08,.77-.23c.22-.15,.43-.42,.62-.78s.34-.9,.44-1.6,.15-1.55,.15-2.57-.05-1.85-.15-2.54c-.1-.69-.25-1.21-.44-1.56-.19-.35-.4-.59-.62-.73-.22-.14-.48-.21-.77-.21s-.55,.07-.76,.21c-.21,.14-.42,.38-.6,.73-.19,.35-.33,.87-.43,1.56-.1,.69-.15,1.54-.15,2.54s.05,1.88,.15,2.57,.24,1.23,.42,1.6,.38,.63,.6,.78Z"/></g><g><path class="cls-10" d="M137.84,255.19c-.23,0-.42-.08-.57-.24-.15-.16-.23-.35-.23-.56v-.39c0-.23,.08-.42,.23-.57s.34-.23,.57-.23h1.29c.07,0,.11-.04,.11-.11v-5.68c0-.07-.04-.11-.11-.11h-1.03c-.22,0-.4-.08-.55-.22s-.22-.33-.22-.54,.07-.41,.21-.58c.14-.17,.32-.29,.54-.34,.41-.11,.78-.24,1.11-.39,.55-.25,1.06-.38,1.51-.38h.22c.22,0,.41,.08,.56,.24,.16,.16,.24,.35,.24,.56v7.44c0,.07,.03,.11,.1,.11h.96c.23,0,.42,.08,.57,.23,.15,.15,.23,.34,.23,.57v.39c0,.22-.08,.41-.23,.56-.15,.16-.34,.24-.57,.24h-4.93Z"/><path class="cls-10" d="M145.23,254.66c-.19-.14-.29-.33-.29-.58,0-.2,.07-.38,.2-.53l.23-.27c.15-.15,.33-.24,.56-.26,.03,0,.06-.01,.09-.01,.19,0,.37,.04,.53,.14,.32,.16,.63,.24,.94,.24,1.22,0,1.88-.97,1.98-2.92,0-.02,0-.03-.02-.03s-.02,0-.03,.02c-.24,.29-.55,.52-.91,.69-.36,.17-.7,.26-1,.26-.91,0-1.65-.27-2.2-.82-.55-.55-.83-1.36-.83-2.42s.33-1.92,.99-2.55c.66-.63,1.46-.95,2.42-.95,.51,0,.98,.1,1.43,.3,.45,.2,.86,.5,1.23,.9,.37,.4,.66,.95,.88,1.64,.21,.69,.32,1.49,.32,2.4s-.11,1.72-.33,2.43c-.22,.72-.53,1.29-.91,1.73-.38,.44-.82,.77-1.3,.99s-1,.33-1.54,.33c-.91,0-1.72-.24-2.43-.72Zm2.76-5c.57,0,1.04-.29,1.41-.88,.04-.05,.05-.12,.04-.19-.19-1.39-.69-2.09-1.49-2.09-.35,0-.64,.14-.87,.41-.23,.27-.34,.69-.34,1.25,0,.53,.11,.91,.34,1.15,.23,.24,.53,.36,.91,.36Z"/></g><path class="cls-10" d="M154.4,249.81c.11,0,.2,.04,.28,.11,.08,.07,.11,.17,.11,.28v3.95c0,.11-.04,.2-.11,.27-.07,.08-.17,.12-.28,.12h-.88s-.05,.02-.05,.05v.19c0,.11-.04,.2-.12,.27s-.17,.12-.27,.12h-.13c-.11,0-.2-.04-.27-.12-.08-.08-.12-.17-.12-.27v-4.57c0-.11,.04-.2,.12-.28,.08-.08,.17-.11,.27-.11h1.45Zm-.52,.92s-.02-.05-.05-.05h-.32s-.05,.02-.05,.05v.92s.02,.05,.05,.05h.32s.05-.02,.05-.05v-.92Zm-.41,2.88s.02,.05,.05,.05h.32s.05-.02,.05-.05v-1.01s-.02-.05-.05-.05h-.32s-.05,.02-.05,.05v1.01Zm5.28-1.78c0,.11-.04,.2-.11,.28s-.17,.11-.28,.11h-.17s-.05,.02-.05,.05v.37s.02,.05,.05,.05h.13c.11,0,.2,.04,.28,.12,.08,.08,.11,.17,.11,.27v.07c0,.11-.04,.2-.11,.28-.07,.08-.17,.11-.28,.11h-.13s-.05,.02-.05,.05v1.23c0,.23-.03,.41-.08,.54-.05,.13-.15,.23-.3,.3-.18,.09-.44,.14-.77,.15h-.03c-.1,0-.19-.03-.27-.1-.09-.07-.15-.16-.19-.27-.02-.06-.04-.12-.06-.19-.01-.03-.02-.06-.02-.09,0-.05,.02-.1,.05-.15,.05-.07,.12-.11,.2-.11h.36c.05,0,.09,0,.11-.02,.02-.02,.03-.04,.03-.08v-1.21s-.02-.05-.05-.05h-1.83c-.11,0-.2-.04-.28-.11-.07-.08-.11-.17-.11-.28v-.07c0-.11,.04-.2,.11-.27,.08-.08,.17-.12,.28-.12h1.83s.05-.02,.05-.05v-.37s-.02-.05-.05-.05h-1.83c-.11,0-.2-.04-.28-.11-.07-.08-.11-.17-.11-.28v-.08c0-.11,.04-.2,.11-.27,.08-.08,.17-.12,.28-.12h.99s.05-.02,.05-.05v-.35s-.02-.05-.05-.05h-.8c-.11,0-.2-.04-.27-.12s-.12-.17-.12-.27v-.07c0-.11,.04-.2,.12-.28,.08-.08,.17-.11,.27-.11h.8s.05-.02,.05-.05v-.24c0-.11,.04-.2,.11-.27,.08-.08,.17-.12,.28-.12h.19c.11,0,.2,.04,.28,.12,.08,.08,.11,.17,.11,.27v.24s.02,.05,.05,.05h.85c.11,0,.2,.04,.27,.11,.08,.07,.12,.17,.12,.28v.07c0,.11-.04,.2-.12,.27s-.17,.12-.27,.12h-.85s-.05,.02-.05,.05v.35s.02,.05,.05,.05h1c.11,0,.2,.04,.28,.12,.08,.08,.11,.17,.11,.27v.08Zm-2.26,2.45c.04,.06,.06,.12,.06,.19,0,.03,0,.06-.01,.1-.03,.11-.09,.19-.19,.24l-.17,.1c-.06,.03-.11,.05-.17,.05-.04,0-.07,0-.11-.01-.1-.03-.17-.09-.22-.18-.09-.15-.19-.3-.32-.46-.04-.06-.07-.13-.07-.2,0-.02,0-.04,0-.07,.02-.1,.07-.18,.16-.22l.11-.07c.07-.04,.15-.06,.24-.06,.03,0,.05,0,.08,0,.11,.02,.21,.07,.28,.15,.14,.16,.25,.31,.34,.45Z"/></g></g></svg>