<svg xmlns="http://www.w3.org/2000/svg" width="258.047" height="286.405" viewBox="0 0 258.047 286.405">
  <g id="Group_3071" data-name="Group 3071" transform="translate(-47.809 -131.388)">
    <path id="Path_9807" data-name="Path 9807" d="M303.6,265.232c0,6.454-16.4,11.58-17.346,17.762-.972,6.353,13.11,16.167,11.216,22.153-1.932,6.105-19.111,6.021-21.919,11.661-2.845,5.715,7.564,19.369,3.9,24.519-3.688,5.192-20.01-.153-24.437,4.375-4.38,4.479,1.4,20.617-3.616,24.357s-18.808-6.421-24.367-3.51c-5.517,2.888-5.044,20.027-11.019,22.018-5.884,1.96-15.772-12.022-22.018-11.015-6.091.983-11.062,17.391-17.423,17.391s-11.332-16.408-17.423-17.391c-6.246-1.007-16.134,12.975-22.018,11.015-5.975-1.991-5.5-19.13-11.019-22.019-5.559-2.91-19.357,7.246-24.367,3.511s.764-19.878-3.616-24.357c-4.427-4.528-20.748.817-24.437-4.375-3.659-5.15,6.751-18.8,3.905-24.519-2.808-5.64-19.987-5.556-21.919-11.661-1.894-5.986,12.188-15.8,11.216-22.152-.946-6.183-17.345-11.309-17.345-17.763s16.4-11.58,17.345-17.762c.972-6.352-13.11-16.166-11.216-22.153,1.932-6.1,19.111-6.02,21.919-11.66,2.846-5.716-7.564-19.369-3.905-24.519,3.689-5.192,20.01.152,24.437-4.375,4.381-4.479-1.4-20.618,3.616-24.358s18.808,6.422,24.367,3.511c5.518-2.889,5.045-20.027,11.019-22.018,5.884-1.961,15.772,12.022,22.018,11.014,6.091-.982,11.062-17.391,17.423-17.391S187.912,151.93,194,152.912c6.246,1.008,16.135-12.975,22.018-11.014,5.975,1.991,5.5,19.129,11.019,22.018,5.559,2.911,19.358-7.246,24.367-3.511s-.764,19.879,3.616,24.358c4.427,4.527,20.749-.817,24.437,4.375,3.659,5.15-6.75,18.8-3.9,24.519,2.808,5.64,19.987,5.555,21.919,11.66,1.894,5.987-12.188,15.8-11.216,22.153C287.2,253.652,303.6,258.778,303.6,265.232Z" transform="translate(0.252 20.85)" fill="#f8e520"/>
    <path id="Path_9808" data-name="Path 9808" d="M303.6,265.232c0,6.454-16.4,11.58-17.346,17.762-.972,6.353,13.11,16.167,11.216,22.153-1.932,6.105-19.111,6.021-21.919,11.661-2.845,5.715,7.564,19.369,3.9,24.519-3.688,5.192-20.01-.153-24.437,4.375-4.38,4.479,1.4,20.617-3.616,24.357s-18.808-6.421-24.367-3.51c-5.517,2.888-5.044,20.027-11.019,22.018-5.884,1.96-15.772-12.022-22.018-11.015-6.091.983-11.062,17.391-17.423,17.391s-11.332-16.408-17.423-17.391c-6.246-1.007-16.134,12.975-22.018,11.015-5.975-1.991-5.5-19.13-11.019-22.019-5.559-2.91-19.357,7.246-24.367,3.511s.764-19.878-3.616-24.357c-4.427-4.528-20.748.817-24.437-4.375-3.659-5.15,6.751-18.8,3.905-24.519-2.808-5.64-19.987-5.556-21.919-11.661-1.894-5.986,12.188-15.8,11.216-22.152-.946-6.183-17.345-11.309-17.345-17.763s16.4-11.58,17.345-17.762c.972-6.352-13.11-16.166-11.216-22.153,1.932-6.1,19.111-6.02,21.919-11.66,2.846-5.716-7.564-19.369-3.905-24.519,3.689-5.192,20.01.152,24.437-4.375,4.381-4.479-1.4-20.618,3.616-24.358s18.808,6.422,24.367,3.511c5.518-2.889,5.045-20.027,11.019-22.018,5.884-1.961,15.772,12.022,22.018,11.014,6.091-.982,11.062-17.391,17.423-17.391S187.912,151.93,194,152.912c6.246,1.008,16.135-12.975,22.018-11.014,5.975,1.991,5.5,19.129,11.019,22.018,5.559,2.911,19.358-7.246,24.367-3.511s-.764,19.879,3.616,24.358c4.427,4.527,20.749-.817,24.437,4.375,3.659,5.15-6.75,18.8-3.9,24.519,2.808,5.64,19.987,5.555,21.919,11.66,1.894,5.987-12.188,15.8-11.216,22.153C287.2,253.652,303.6,258.778,303.6,265.232Z" transform="translate(0.252 20.85)" fill="none" stroke="#fff" stroke-miterlimit="10" stroke-width="4"/>
    <line id="Line_481" data-name="Line 481" x2="198.212" transform="translate(77.643 255.461)" fill="none" stroke="#2e79af" stroke-linecap="round" stroke-miterlimit="10" stroke-width="3"/>
    <g id="Group_2693" data-name="Group 2693" transform="translate(0.252 20.85)">
      <path id="Path_9809" data-name="Path 9809" d="M92.366,252.524a.812.812,0,0,1,.246-.04.882.882,0,0,1,.528.178,1.1,1.1,0,0,1,.44.711l.158.927a.811.811,0,0,1,.036.237,1.1,1.1,0,0,1-.194.611.915.915,0,0,1-.651.435c-.141.026-.337.063-.59.108s-.4.076-.448.089q-.264.041-1.461.257t-2.006.355c-.082.013-.117.072-.105.178q.421,2.446.563,3.276c.058.237.129.546.211.927a1.114,1.114,0,0,1-.123.849.921.921,0,0,1-.634.474l-1.091.217a.805.805,0,0,1-.176.02.854.854,0,0,1-.58-.237,1.087,1.087,0,0,1-.387-.75q-.054-.612-.123-.968-.036-.315-.529-3.295a.123.123,0,0,0-.158-.119q-2.815.533-3.871.77-.546.118-.9.178a1.158,1.158,0,0,1-.211.019.994.994,0,0,1-.563-.177,1.183,1.183,0,0,1-.44-.731l-.193-.966a1.225,1.225,0,0,1-.018-.218,1.088,1.088,0,0,1,.176-.592.867.867,0,0,1,.669-.414l.985-.158q.264-.039,1.61-.277T84.817,254c.082-.013.117-.072.1-.178l-.422-2.467c-.023-.1-.076-.151-.158-.138q-2.253.416-3.15.592-.387.079-.756.178a.791.791,0,0,1-.247.039.887.887,0,0,1-.528-.177,1.1,1.1,0,0,1-.44-.711l-.176-1.046a1.441,1.441,0,0,1-.017-.217,1.041,1.041,0,0,1,.193-.611.878.878,0,0,1,.669-.4q.405-.041.721-.1,1.284-.177,3.221-.513c.093-.013.128-.073.1-.178l-.264-1.52c-.035-.17-.07-.335-.106-.493a1.391,1.391,0,0,1-.035-.3,1.029,1.029,0,0,1,.159-.552.805.805,0,0,1,.616-.454l1.038-.2H85.5a.971.971,0,0,1,.6.217,1.166,1.166,0,0,1,.387.77c.023.2.046.362.07.493q.018.1.246,1.559c.024.093.076.132.159.119q1.742-.315,3.061-.592c.282-.053.581-.118.9-.2a1.6,1.6,0,0,1,.229-.019.967.967,0,0,1,.545.177,1.041,1.041,0,0,1,.423.711l.14.908a1.094,1.094,0,0,1,.018.2,1.072,1.072,0,0,1-.194.631.992.992,0,0,1-.668.455c-.47.065-.746.1-.827.118l-3.132.572c-.1.014-.13.066-.106.158l.4,2.487c.024.092.077.131.159.118q2.463-.473,3.484-.69Q91.873,252.662,92.366,252.524Z" fill="#b42b1f"/>
      <path id="Path_9810" data-name="Path 9810" d="M108.256,256.944a1.19,1.19,0,0,1-.739.494,1,1,0,0,1-.264.04,1.2,1.2,0,0,1-.6-.159l-.528-.3a.834.834,0,0,1-.4-.611.709.709,0,0,1-.018-.158.9.9,0,0,1,.212-.592,16.2,16.2,0,0,0,1.636-2.369.058.058,0,0,0-.009-.068.08.08,0,0,0-.062-.03q-.791.157-3.185.73a.13.13,0,0,0-.088.178q1.426,5.783,1.637,6.591c.047.185.112.421.194.711a1.054,1.054,0,0,1,.052.335,1.174,1.174,0,0,1-.123.513.983.983,0,0,1-.615.533l-.933.257a1.489,1.489,0,0,1-.229.02.888.888,0,0,1-.528-.178,1.1,1.1,0,0,1-.44-.711,6.12,6.12,0,0,0-.176-.809q-.159-.61-.721-3.049t-.827-3.562c-.024-.1-.077-.145-.159-.119q-1.3.316-2.059.513a1.353,1.353,0,0,1-.228.02.992.992,0,0,1-.563-.177,1.156,1.156,0,0,1-.475-.73l-.141-.652a1.016,1.016,0,0,1-.036-.256A1.03,1.03,0,0,1,98,252.8a.914.914,0,0,1,.651-.434l.7-.118q.458-.079,1.355-.277c.082-.013.111-.066.088-.158q-.211-.946-.37-1.52a4.784,4.784,0,0,0-.14-.493.985.985,0,0,1-.071-.375,1.108,1.108,0,0,1,.106-.454.817.817,0,0,1,.545-.493l.9-.237a.81.81,0,0,1,.246-.039.833.833,0,0,1,.528.2,1.109,1.109,0,0,1,.44.71c.011.053.023.109.035.168s.027.125.044.2a.741.741,0,0,1,.027.148l.4,1.618c.023.1.076.145.159.118q4.38-.946,5-1.1h.035a2.865,2.865,0,0,1,.651-.079,1.827,1.827,0,0,1,1.179.4l.071.039a1.343,1.343,0,0,1,.475.79,1.469,1.469,0,0,1,.035.315,1.405,1.405,0,0,1-.141.612A36.938,36.938,0,0,1,108.256,256.944Z" fill="#b42b1f"/>
      <path id="Path_9811" data-name="Path 9811" d="M116.385,252.05a1.16,1.16,0,0,1-.088-.434,1.334,1.334,0,0,1,.071-.414.957.957,0,0,1,.546-.593l.668-.256a1.011,1.011,0,0,1,.387-.079,1.024,1.024,0,0,1,.44.1,1.071,1.071,0,0,1,.6.631q.439,1.166.9,2.507a1.216,1.216,0,0,1,.07.414,1.154,1.154,0,0,1-.1.473,1.081,1.081,0,0,1-.581.612l-.722.3a.859.859,0,0,1-.352.078.959.959,0,0,1-.44-.118,1.054,1.054,0,0,1-.51-.651Q116.791,253.155,116.385,252.05Zm9.872-1.48a.993.993,0,0,1,.4-.691.726.726,0,0,1,.44-.158.839.839,0,0,1,.264.04l1.109.394a1.085,1.085,0,0,1,.6.573,1.4,1.4,0,0,1,.1.533,1.78,1.78,0,0,1-.035.355c-.047.158-.105.382-.176.671a16.975,16.975,0,0,1-2.428,5.723,14.355,14.355,0,0,1-5.156,4.7,1.178,1.178,0,0,1-.581.157,1.119,1.119,0,0,1-.3-.039,1.416,1.416,0,0,1-.792-.493l-.827-.948a.7.7,0,0,1-.194-.473.576.576,0,0,1,.036-.2.688.688,0,0,1,.422-.513,13.751,13.751,0,0,0,2.78-1.6,9.731,9.731,0,0,0,2.253-2.27,10.26,10.26,0,0,0,1.3-2.585A16.224,16.224,0,0,0,126.257,250.57Zm-5.7.316a1.345,1.345,0,0,1-.071-.415,1.193,1.193,0,0,1,.089-.454,1.009,1.009,0,0,1,.563-.572l.615-.217a.925.925,0,0,1,.828.04,1.17,1.17,0,0,1,.563.67q.386,1.105.774,2.29a1.188,1.188,0,0,1,.07.4,1.207,1.207,0,0,1-.1.493,1.073,1.073,0,0,1-.6.592l-.651.256a1.033,1.033,0,0,1-.334.059.991.991,0,0,1-.458-.118,1.13,1.13,0,0,1-.51-.671Q120.961,251.991,120.556,250.886Z" fill="#b42b1f"/>
      <path id="Path_9812" data-name="Path 9812" d="M133.6,252.741a1.281,1.281,0,0,1-.492-.987,1.131,1.131,0,0,1,.158-.572l.44-.75a1.2,1.2,0,0,1,.668-.553,1.054,1.054,0,0,1,.282-.039.891.891,0,0,1,.528.177q1.178.77,2.446,1.7a1.1,1.1,0,0,1,.457.731,2,2,0,0,1,.018.256,1.218,1.218,0,0,1-.176.632l-.458.809a1.047,1.047,0,0,1-.668.493,1.086,1.086,0,0,1-.212.02.928.928,0,0,1-.563-.2Q134.687,253.452,133.6,252.741Zm2.446,9.335a1.314,1.314,0,0,1-.862-.079,1.584,1.584,0,0,1-.651-.691l-.616-1.2a.821.821,0,0,1-.106-.394.971.971,0,0,1,.07-.355.721.721,0,0,1,.546-.474,17.329,17.329,0,0,0,5.156-2.013,20,20,0,0,0,3.748-3,18.324,18.324,0,0,0,2.833-3.691.569.569,0,0,1,.528-.316.53.53,0,0,1,.51.336l.669,1.322a1.967,1.967,0,0,1,.211.908v.1a1.979,1.979,0,0,1-.317.967,23.416,23.416,0,0,1-6.686,6.355A19.91,19.91,0,0,1,136.041,262.076Zm.352-13.993a1.092,1.092,0,0,1-.457-.69,2.146,2.146,0,0,1-.018-.277,1.141,1.141,0,0,1,.158-.572l.44-.77a1.113,1.113,0,0,1,.669-.533.987.987,0,0,1,.264-.039.967.967,0,0,1,.545.177q1.179.771,2.446,1.678a1.193,1.193,0,0,1,.44.75,1.577,1.577,0,0,1,.018.237,1.215,1.215,0,0,1-.176.631l-.458.77a.966.966,0,0,1-.668.493.59.59,0,0,1-.212.04.922.922,0,0,1-.563-.2Q137.5,248.834,136.393,248.083Z" fill="#b42b1f"/>
      <path id="Path_9813" data-name="Path 9813" d="M162.313,258.484q-.018.138.123.138h.669q.387,0,.933-.019h.052a.894.894,0,0,1,.669.3,1.072,1.072,0,0,1,.317.79v.829a1.137,1.137,0,0,1-.317.809.888.888,0,0,1-.686.316h-.035c-.388-.014-.687-.02-.9-.02H152.934a.882.882,0,0,1-.686-.316,1.068,1.068,0,0,1-.317-.789v-.849a1.07,1.07,0,0,1,.317-.789.916.916,0,0,1,.668-.276h.053c.328.013.628.019.9.019h5.314c.082,0,.129-.046.14-.138q.512-3.257.616-4.816c.012-.1-.029-.157-.123-.157h-4.258q-.369,0-.968.039h-.053a.864.864,0,0,1-.668-.316,1.064,1.064,0,0,1-.317-.789v-.888a1.044,1.044,0,0,1,.317-.77.873.873,0,0,1,.651-.3.146.146,0,0,1,.07.02q.581.02.95.019h4.153c.152,0,.34-.006.563-.019a3.827,3.827,0,0,1,.546-.04,2.92,2.92,0,0,1,1.408.316l.228.138a1.343,1.343,0,0,1,.581.671,1.837,1.837,0,0,1,.141.711,2.18,2.18,0,0,1-.018.256Q162.981,253.709,162.313,258.484Z" fill="#b42b1f"/>
      <path id="Path_9814" data-name="Path 9814" d="M170.689,254.655a31.65,31.65,0,0,0,1.566-6.611,1.085,1.085,0,0,1,.387-.75.855.855,0,0,1,.545-.2,1.074,1.074,0,0,1,.194.02l1.161.277a.985.985,0,0,1,.634.493,1.24,1.24,0,0,1,.158.592,1.088,1.088,0,0,1-.035.276q-.175.81-.229,1.2-.176,1.125-.615,2.852t-.863,3.088a28.832,28.832,0,0,1-2.076,4.915,1.143,1.143,0,0,1-1.038.651,1.126,1.126,0,0,1-.493-.118l-1.161-.553a.855.855,0,0,1-.475-.592,1.089,1.089,0,0,1-.036-.276,1,1,0,0,1,.159-.533A25.306,25.306,0,0,0,170.689,254.655Zm8.9-.217a58.254,58.254,0,0,0-2.147-5.743,1.294,1.294,0,0,1-.088-.454,1.149,1.149,0,0,1,.071-.4.886.886,0,0,1,.545-.552l.933-.336a1.03,1.03,0,0,1,.387-.079.986.986,0,0,1,.457.119,1.22,1.22,0,0,1,.616.631q1.231,2.843,2.217,5.724.862,2.507,1.778,6a1.85,1.85,0,0,1,.035.355,1.348,1.348,0,0,1-.124.552,1.131,1.131,0,0,1-.615.592l-1.285.454a.847.847,0,0,1-.774-.079,1.092,1.092,0,0,1-.457-.69Q180.367,256.886,179.593,254.438Zm.88-8.052a1.018,1.018,0,0,1-.106-.454,1.135,1.135,0,0,1,.035-.276.8.8,0,0,1,.44-.533.878.878,0,0,1,.4-.1.964.964,0,0,1,.335.059,1.016,1.016,0,0,1,.58.533q.228.435.493.967a1.031,1.031,0,0,1,.1.454.991.991,0,0,1-.052.316.856.856,0,0,1-.476.553.842.842,0,0,1-.387.1.812.812,0,0,1-.334-.079,1.015,1.015,0,0,1-.563-.532Q180.684,246.8,180.473,246.386Zm2.235-.987a.9.9,0,0,1-.124-.454,1.03,1.03,0,0,1,.036-.257.742.742,0,0,1,.44-.532.871.871,0,0,1,.4-.1.95.95,0,0,1,.334.059,1.094,1.094,0,0,1,.6.513q.246.474.493.987a.992.992,0,0,1,.1.434.966.966,0,0,1-.053.316.86.86,0,0,1-.457.553.846.846,0,0,1-.387.1.738.738,0,0,1-.335-.08.946.946,0,0,1-.545-.532Q182.954,245.872,182.708,245.4Z" fill="#b42b1f"/>
      <path id="Path_9815" data-name="Path 9815" d="M188.461,252.05a1.159,1.159,0,0,1-.087-.434,1.332,1.332,0,0,1,.07-.414.957.957,0,0,1,.546-.593l.668-.256a1.011,1.011,0,0,1,.387-.079,1.024,1.024,0,0,1,.44.1,1.069,1.069,0,0,1,.6.631q.44,1.166.9,2.507a1.216,1.216,0,0,1,.07.414,1.154,1.154,0,0,1-.1.473,1.078,1.078,0,0,1-.581.612l-.721.3a.866.866,0,0,1-.352.078.953.953,0,0,1-.44-.118,1.052,1.052,0,0,1-.511-.651Q188.867,253.155,188.461,252.05Zm9.872-1.48a.993.993,0,0,1,.405-.691.726.726,0,0,1,.44-.158.839.839,0,0,1,.264.04l1.109.394a1.082,1.082,0,0,1,.6.573,1.4,1.4,0,0,1,.1.533,1.78,1.78,0,0,1-.035.355c-.047.158-.1.382-.176.671a16.975,16.975,0,0,1-2.428,5.723,14.355,14.355,0,0,1-5.156,4.7,1.175,1.175,0,0,1-.581.157,1.119,1.119,0,0,1-.3-.039,1.41,1.41,0,0,1-.791-.493l-.828-.948a.7.7,0,0,1-.193-.473.575.575,0,0,1,.035-.2.688.688,0,0,1,.422-.513,13.724,13.724,0,0,0,2.78-1.6,9.731,9.731,0,0,0,2.253-2.27,10.26,10.26,0,0,0,1.3-2.585A16.152,16.152,0,0,0,198.333,250.57Zm-5.7.316a1.343,1.343,0,0,1-.07-.415,1.192,1.192,0,0,1,.088-.454,1.015,1.015,0,0,1,.563-.572l.616-.217a.923.923,0,0,1,.827.04,1.17,1.17,0,0,1,.563.67q.387,1.105.774,2.29a1.163,1.163,0,0,1,.07.4,1.207,1.207,0,0,1-.105.493,1.07,1.07,0,0,1-.6.592l-.651.256a1.033,1.033,0,0,1-.334.059.984.984,0,0,1-.457-.118,1.127,1.127,0,0,1-.511-.671Q193.037,251.991,192.632,250.886Z" fill="#b42b1f"/>
      <path id="Path_9816" data-name="Path 9816" d="M216.775,247.215c.152-.013.3-.02.44-.02a2.553,2.553,0,0,1,1.46.414l.458.316a1.268,1.268,0,0,1,.475.731,1.858,1.858,0,0,1,.035.355,1.439,1.439,0,0,1-.105.552,5.879,5.879,0,0,0-.229.632,21.281,21.281,0,0,1-3.115,6.631,16.846,16.846,0,0,1-2.745,2.98,18.515,18.515,0,0,1-3.625,2.368,1.331,1.331,0,0,1-.634.159,1.924,1.924,0,0,1-.263-.02,1.482,1.482,0,0,1-.827-.435l-1.038-1.045a.624.624,0,0,1-.212-.474.716.716,0,0,1,.018-.158.646.646,0,0,1,.4-.513,14.739,14.739,0,0,0,3.678-1.983,15.022,15.022,0,0,0,2.622-2.616,11.884,11.884,0,0,0,1.461-2.417,12.054,12.054,0,0,0,.9-2.5c.024-.092-.012-.138-.1-.138H211.6a.26.26,0,0,0-.212.118,24.308,24.308,0,0,1-3.625,4.027,1.291,1.291,0,0,1-.827.3,1.3,1.3,0,0,1-.844-.316l-.775-.651a.766.766,0,0,1-.3-.632.826.826,0,0,1,.334-.691,16.709,16.709,0,0,0,1.681-1.49,14.459,14.459,0,0,0,1.346-1.569q.581-.789.933-1.342t.774-1.283a8.584,8.584,0,0,0,.6-1.322,1.181,1.181,0,0,1,.545-.651.882.882,0,0,1,.791-.079l1.215.454a.79.79,0,0,1,.492.552.923.923,0,0,1,.053.3.944.944,0,0,1-.123.474q-.21.395-.493.908a.1.1,0,0,0,.009.089c.018.033.038.049.062.049h2.78A5.324,5.324,0,0,0,216.775,247.215Z" fill="#b42b1f"/>
      <path id="Path_9817" data-name="Path 9817" d="M231.4,258.859c0,.1.047.158.142.158h6.3a.952.952,0,0,1,.739.336,1.2,1.2,0,0,1,.3.828v.632a1.2,1.2,0,0,1-.3.829.954.954,0,0,1-.739.335H223.286a.954.954,0,0,1-.74-.335,1.2,1.2,0,0,1-.3-.829v-.632a1.2,1.2,0,0,1,.3-.828.952.952,0,0,1,.74-.336h5.155c.082,0,.123-.053.123-.158V245.182a1.18,1.18,0,0,1,.309-.829.956.956,0,0,1,.73-.335h.756a.953.953,0,0,1,.74.335,1.2,1.2,0,0,1,.3.829v4.263a.124.124,0,0,0,.142.138h5.015a.936.936,0,0,1,.738.346,1.207,1.207,0,0,1,.3.819v.651a1.209,1.209,0,0,1-.3.819.938.938,0,0,1-.738.345h-5.015a.124.124,0,0,0-.142.138Z" fill="#b42b1f"/>
      <path id="Path_9818" data-name="Path 9818" d="M256.016,256.333a1.192,1.192,0,0,1-.308.819.95.95,0,0,1-.731.345h-3.29q-.018,0-.027.03a.047.047,0,0,0,.009.049,14.545,14.545,0,0,0,4.452,2.368.641.641,0,0,1,.422.494.571.571,0,0,1,.036.2.786.786,0,0,1-.159.474q-.335.434-.651.908a1.5,1.5,0,0,1-.686.592,1.332,1.332,0,0,1-.387.059,1.146,1.146,0,0,1-.458-.1,15.789,15.789,0,0,1-4.311-3.019.048.048,0,0,0-.053-.01c-.023.006-.035.029-.035.069v2.151a1.182,1.182,0,0,1-.308.829.956.956,0,0,1-.73.335h-.581a.956.956,0,0,1-.73-.335,1.182,1.182,0,0,1-.308-.829v-2.151q0-.06-.036-.069a.046.046,0,0,0-.052.01,15.851,15.851,0,0,1-4.276,3.039,1.183,1.183,0,0,1-.475.1,1.134,1.134,0,0,1-.37-.06,1.444,1.444,0,0,1-.721-.572q-.247-.375-.493-.71a.785.785,0,0,1-.158-.474,1.093,1.093,0,0,1,.017-.2.648.648,0,0,1,.423-.513,14.679,14.679,0,0,0,4.452-2.586c.023-.013.029-.03.017-.049s-.024-.03-.035-.03h-3.2a.948.948,0,0,1-.73-.345,1.192,1.192,0,0,1-.308-.819v-.158a1.182,1.182,0,0,1,.308-.829.962.962,0,0,1,.73-.336h.933c.082,0,.123-.052.123-.157v-.691c0-.092-.041-.139-.123-.139h-1.654a.945.945,0,0,1-.73-.345,1.186,1.186,0,0,1-.308-.819v-.177a1.178,1.178,0,0,1,.308-.829.959.959,0,0,1,.73-.336h1.654c.082,0,.123-.052.123-.158v-.651q0-.138-.123-.138h-.58a.94.94,0,0,1-.74-.345,1.214,1.214,0,0,1-.3-.82v-.157a1.2,1.2,0,0,1,.3-.829.951.951,0,0,1,.74-.336h4.434c.082,0,.123-.052.123-.158v-.414q0-.138-.123-.138-2.183.157-4.1.2h-.035a1.048,1.048,0,0,1-.738-.316,1.614,1.614,0,0,1-.458-.809,1.833,1.833,0,0,0-.053-.237,1.088,1.088,0,0,1-.035-.276.956.956,0,0,1,.141-.494.7.7,0,0,1,.58-.375,71.546,71.546,0,0,0,10.523-1.045,1.275,1.275,0,0,1,.317-.04,1.613,1.613,0,0,1,.6.119,1.675,1.675,0,0,1,.739.611l.4.573a.7.7,0,0,1,.088.691.623.623,0,0,1-.475.453q-2.023.4-4.593.691c-.082,0-.123.053-.123.158v.651c0,.106.041.158.123.158h4.611a.952.952,0,0,1,.739.336,1.2,1.2,0,0,1,.3.829v.157a1.214,1.214,0,0,1-.3.82.941.941,0,0,1-.739.345h-.722q-.123,0-.123.138v.651c0,.106.041.158.123.158h1.777a.957.957,0,0,1,.73.336,1.178,1.178,0,0,1,.309.829v.177a1.187,1.187,0,0,1-.309.819.944.944,0,0,1-.73.345h-1.777c-.082,0-.123.047-.123.139v.691c0,.1.041.157.123.157h1.126a.964.964,0,0,1,.731.336,1.182,1.182,0,0,1,.308.829ZM246,250.57a.123.123,0,0,0-.141.138v.651c0,.106.047.158.141.158h1.056c.082,0,.123-.052.123-.158v-.651q0-.138-.123-.138Zm0,3.453a.124.124,0,0,0-.141.139v.691c0,.1.047.157.141.157h1.056c.082,0,.123-.052.123-.157v-.691c0-.092-.041-.139-.123-.139Zm5.156-3.315q0-.138-.123-.138h-1.074q-.123,0-.123.138v.651c0,.106.041.158.123.158h1.074c.082,0,.123-.052.123-.158Zm-.123,4.3c.082,0,.123-.052.123-.157v-.691c0-.092-.041-.139-.123-.139h-1.074c-.082,0-.123.047-.123.139v.691c0,.1.041.157.123.157Z" fill="#b42b1f"/>
      <path id="Path_9819" data-name="Path 9819" d="M271.43,248.675c-.012.093.029.138.123.138l.863-.079c.082,0,.22-.009.413-.029s.343-.03.449-.03h.07a.905.905,0,0,1,.652.277,1.1,1.1,0,0,1,.3.789v.632a1.176,1.176,0,0,1-.3.809,1.017,1.017,0,0,1-.74.355q-.387.02-.862.04l-.915.039a.145.145,0,0,0-.141.158,30.607,30.607,0,0,1-.246,3.749,1.764,1.764,0,0,1-.519,1.125,1.821,1.821,0,0,1-1.135.3,15.853,15.853,0,0,1-1.848-.177.972.972,0,0,1-.721-.424,1.451,1.451,0,0,1-.282-.879l.018-.316a1,1,0,0,1,.316-.769.875.875,0,0,1,.6-.237h.123a3.747,3.747,0,0,0,.545.059.606.606,0,0,0,.352-.078.493.493,0,0,0,.141-.336q.07-.651.106-1.776,0-.159-.141-.138-2.287.218-4.1.434a.144.144,0,0,0-.141.157q-.018,1.342-.017,2.349,0,1.086.017,1.816c.011.342.027.612.044.809a2.024,2.024,0,0,0,.132.562.864.864,0,0,0,.264.385,1.617,1.617,0,0,0,.484.218,3.053,3.053,0,0,0,.73.118q.405.02,1.056.02a28.725,28.725,0,0,0,4.329-.356.512.512,0,0,1,.123-.019.76.76,0,0,1,.563.256.928.928,0,0,1,.3.75l-.035,1.006a1.365,1.365,0,0,1-.326.859,1.081,1.081,0,0,1-.747.4q-2.165.216-4,.217-1.249,0-2.12-.089a5.784,5.784,0,0,1-1.505-.335,3.373,3.373,0,0,1-1-.573,2.232,2.232,0,0,1-.589-.908,5.267,5.267,0,0,1-.3-1.213q-.078-.631-.114-1.619-.018-.848-.017-4.342c0-.092-.042-.131-.123-.118l-.687.079q-.387.059-1.3.217h-.158a.915.915,0,0,1-.6-.217,1.161,1.161,0,0,1-.387-.77l-.052-.75a.4.4,0,0,1-.018-.118,1.124,1.124,0,0,1,.246-.711.925.925,0,0,1,.7-.375q.687-.039,1.39-.1l.863-.1c.081,0,.123-.052.123-.158v-1.441q0-.67-.036-1.362v-.1a1.188,1.188,0,0,1,.229-.711.866.866,0,0,1,.687-.335h.967a.832.832,0,0,1,.686.335,1.129,1.129,0,0,1,.264.75l-.035,1.244q0,.77-.017,1.322a.123.123,0,0,0,.14.138l4.118-.434c.094,0,.141-.052.141-.158v-1.776l-.035-.948a1.074,1.074,0,0,1,.246-.71.817.817,0,0,1,.686-.355h.827a.849.849,0,0,1,.687.355,1.154,1.154,0,0,1,.246.73l-.035.79Z" fill="#b42b1f"/>
    </g>
    <g id="Group_2695" data-name="Group 2695" transform="translate(0.252 20.85)">
      <path id="Path_9820" data-name="Path 9820" d="M137.632,365.759a1.037,1.037,0,0,1-1.019-1.016,2.273,2.273,0,0,1,.745-1.719,36.256,36.256,0,0,0,4.106-4.326,5.553,5.553,0,0,0,1.382-3.213,2.184,2.184,0,0,0-.519-1.562,1.871,1.871,0,0,0-1.421-.547,2.769,2.769,0,0,0-1.686.645,1.355,1.355,0,0,1-.862.312,1.138,1.138,0,0,1-.8-.332l-.294-.293a1.082,1.082,0,0,1-.353-.82,1,1,0,0,1,.353-.782,5.875,5.875,0,0,1,4.136-1.5,4.961,4.961,0,0,1,3.538,1.279,4.433,4.433,0,0,1,1.361,3.389q0,3.125-4.409,7.578a.064.064,0,0,0,0,.068.062.062,0,0,0,.058.029,17.421,17.421,0,0,1,2.274-.2h1.588a1.1,1.1,0,0,1,.823.342,1.122,1.122,0,0,1,.333.81v.7a1.123,1.123,0,0,1-.333.811,1.1,1.1,0,0,1-.823.342Z" fill="#b42b1f"/>
      <path id="Path_9821" data-name="Path 9821" d="M149.432,369.45a.918.918,0,0,1-.921-.918,1.324,1.324,0,0,1,.019-.215l3.92-17.636a1.328,1.328,0,0,1,.5-.821,1.446,1.446,0,0,1,.911-.312.875.875,0,0,1,.725.351.856.856,0,0,1,.216.567,1.436,1.436,0,0,1-.019.215l-3.92,17.636a1.475,1.475,0,0,1-.51.811,1.379,1.379,0,0,1-.9.322Z" fill="#b42b1f"/>
      <path id="Path_9822" data-name="Path 9822" d="M157.565,365.759a1.037,1.037,0,0,1-1.019-1.016,2.273,2.273,0,0,1,.745-1.719A36.256,36.256,0,0,0,161.4,358.7a5.553,5.553,0,0,0,1.382-3.213,2.184,2.184,0,0,0-.519-1.562,1.87,1.87,0,0,0-1.421-.547,2.769,2.769,0,0,0-1.686.645,1.353,1.353,0,0,1-.862.312,1.138,1.138,0,0,1-.8-.332l-.294-.293a1.082,1.082,0,0,1-.353-.82,1,1,0,0,1,.353-.782,5.875,5.875,0,0,1,4.136-1.5,4.961,4.961,0,0,1,3.538,1.279,4.434,4.434,0,0,1,1.362,3.389q0,3.125-4.41,7.578a.063.063,0,0,0,.058.1,17.421,17.421,0,0,1,2.274-.2h1.588a1.1,1.1,0,0,1,.823.342,1.122,1.122,0,0,1,.333.81v.7a1.123,1.123,0,0,1-.333.811,1.1,1.1,0,0,1-.823.342Z" fill="#b42b1f"/>
      <path id="Path_9823" data-name="Path 9823" d="M173.991,366.032a5.847,5.847,0,0,1-3.666-1.113,3.442,3.442,0,0,1-1.45-2.852,4.09,4.09,0,0,1,2.411-3.75.068.068,0,0,0,.039-.068.124.124,0,0,0-.039-.088,4.274,4.274,0,0,1-1.9-3.535,3.618,3.618,0,0,1,1.313-2.93,5.15,5.15,0,0,1,3.41-1.093,4.745,4.745,0,0,1,3.264,1.084,3.68,3.68,0,0,1,1.225,2.9,3.479,3.479,0,0,1-.52,1.846,4.735,4.735,0,0,1-1.323,1.416.121.121,0,0,0-.039.088.07.07,0,0,0,.039.068,4.25,4.25,0,0,1,2.47,3.984,3.541,3.541,0,0,1-1.451,2.9A5.938,5.938,0,0,1,173.991,366.032Zm.078-2.48a2.029,2.029,0,0,0,1.333-.42,1.563,1.563,0,0,0,.509-1.279,1.711,1.711,0,0,0-.666-1.4,9.781,9.781,0,0,0-2.176-1.182.348.348,0,0,0-.1-.019.171.171,0,0,0-.137.078,3.241,3.241,0,0,0-.9,2.3,1.725,1.725,0,0,0,.617,1.4A2.284,2.284,0,0,0,174.069,363.552Zm.686-6.582a.186.186,0,0,0,.235-.059,3.393,3.393,0,0,0,.706-2.09,1.807,1.807,0,0,0-.441-1.289,1.628,1.628,0,0,0-1.245-.469,1.434,1.434,0,0,0-1.509,1.563,1.765,1.765,0,0,0,.568,1.338A5.653,5.653,0,0,0,174.755,356.97Z" fill="#b42b1f"/>
      <path id="Path_9824" data-name="Path 9824" d="M201.862,362.653a1.156,1.156,0,0,1,.49.782,1.089,1.089,0,0,1,.02.214,1.184,1.184,0,0,1-.216.684l-.47.742a.913.913,0,0,1-.686.43h-.157a1.014,1.014,0,0,1-.647-.234,14.178,14.178,0,0,0-2.568-1.739.089.089,0,0,0-.078,0,.077.077,0,0,0-.039.078v.254a2.71,2.71,0,0,1-1.1,2.256,4.851,4.851,0,0,1-3.038.85,6.552,6.552,0,0,1-3.792-.918,2.989,2.989,0,0,1-1.3-2.6,3.1,3.1,0,0,1,1.362-2.607,6.127,6.127,0,0,1,3.714-1.006c.209,0,.477.007.8.019.105.014.157-.032.157-.136l-.059-1.016a.138.138,0,0,0-.157-.156h-.8q-1.548,0-3.508-.137a1.2,1.2,0,0,1-.823-.41,1.173,1.173,0,0,1-.314-.859v-.508A.923.923,0,0,1,189,355.9a.993.993,0,0,1,.666-.254h.138a31.953,31.953,0,0,0,3.528.214h.725c.1,0,.157-.045.157-.136l.019-1.328a.139.139,0,0,0-.156-.157H193.3q-1.371,0-2.979-.156a1.15,1.15,0,0,1-.813-.42,1.4,1.4,0,0,1-.343-.869v-.41a1.032,1.032,0,0,1,1-1,.628.628,0,0,1,.137.019,24.644,24.644,0,0,0,2.979.2h.823c.1,0,.157-.046.157-.137v-.9a1.089,1.089,0,0,1,.274-.742.988.988,0,0,1,.765-.351h.941a.929.929,0,0,1,.744.351,1.026,1.026,0,0,1,.294.723l-.039.371v.449c-.013.1.033.15.138.137q1.607-.078,3.253-.293a.435.435,0,0,1,.137-.02,1,1,0,0,1,.667.254.925.925,0,0,1,.352.743l.02.449a1.229,1.229,0,0,1-.324.849,1.172,1.172,0,0,1-.813.4q-1.783.176-3.332.254a.138.138,0,0,0-.157.156l-.019,1.348c0,.091.052.136.156.136q1.8-.1,3.862-.332h.137a1.031,1.031,0,0,1,1.019,1.016v.527a1.236,1.236,0,0,1-.323.85,1.257,1.257,0,0,1-.814.42q-1.94.176-3.821.234-.157,0-.138.156,0,.158.1,1.622a.21.21,0,0,0,.157.2A15.134,15.134,0,0,1,201.862,362.653Zm-7.409.332v-.429a.17.17,0,0,0-.157-.157,9.329,9.329,0,0,0-1.352-.1,2.534,2.534,0,0,0-1.274.273.8.8,0,0,0-.02,1.446,2.531,2.531,0,0,0,1.235.253,1.994,1.994,0,0,0,1.2-.283A1.191,1.191,0,0,0,194.453,362.985Z" fill="#b42b1f"/>
      <path id="Path_9825" data-name="Path 9825" d="M208.016,354.821a1.323,1.323,0,0,1-.215.02.958.958,0,0,1-.608-.215.985.985,0,0,1-.412-.742l-.1-.957v-.117a1.035,1.035,0,0,1,.274-.7,1.075,1.075,0,0,1,.784-.371c.4-.012.7-.032.882-.058s1.271-.1,3.3-.274,3.766-.319,5.2-.449q2-.156,4.626-.293h.058a1.044,1.044,0,0,1,.765.313,1.165,1.165,0,0,1,.353.8v.782a1.124,1.124,0,0,1-.333.81,1.176,1.176,0,0,1-.824.362,16.585,16.585,0,0,0-2.646.214,4.831,4.831,0,0,0-2.812,1.875,5.213,5.213,0,0,0-1.186,3.262,3.336,3.336,0,0,0,1.352,2.842,7.849,7.849,0,0,0,3.685,1.318.911.911,0,0,1,.666.41.867.867,0,0,1,.157.489.837.837,0,0,1-.058.293l-.373,1.152a1.5,1.5,0,0,1-.588.762,1.281,1.281,0,0,1-.705.215,1.446,1.446,0,0,1-.236-.02,11.334,11.334,0,0,1-3.567-1.182,6.975,6.975,0,0,1-2.538-2.314,5.876,5.876,0,0,1-.97-3.32,7.428,7.428,0,0,1,.725-3.291,8.022,8.022,0,0,1,1.686-2.393c.012-.013.012-.032,0-.059s-.027-.032-.04-.019Q210.525,354.353,208.016,354.821Zm10.917,2.051a.89.89,0,0,1-.117-.43.736.736,0,0,1,.039-.234.705.705,0,0,1,.431-.488,1.039,1.039,0,0,1,.431-.1,1.112,1.112,0,0,1,.353.059,1.04,1.04,0,0,1,.608.468q.313.509.607,1.036a.894.894,0,0,1,.1.41,1.282,1.282,0,0,1-.039.312.883.883,0,0,1-.51.528,1.049,1.049,0,0,1-.392.078,1.116,1.116,0,0,1-.352-.059,1.038,1.038,0,0,1-.569-.508A11.54,11.54,0,0,0,218.933,356.872Zm2.313-.918a.817.817,0,0,1-.137-.449.686.686,0,0,1,.039-.215.766.766,0,0,1,.431-.508,1.083,1.083,0,0,1,.451-.1,1.3,1.3,0,0,1,.314.039,1.154,1.154,0,0,1,.627.449q.333.489.627.976a.9.9,0,0,1,.137.45.99.99,0,0,1-.039.273.886.886,0,0,1-.47.547,1.043,1.043,0,0,1-.432.1,1.083,1.083,0,0,1-.921-.547Q221.579,356.442,221.246,355.954Z" fill="#b42b1f"/>
    </g>
    <g id="Group_2697" data-name="Group 2697" transform="translate(0.252 20.85)">
      <path id="Path_9826" data-name="Path 9826" d="M121,189.5a.29.29,0,0,0,0,.232.189.189,0,0,0,.189.094h2.551a2.68,2.68,0,0,1,1.984.813,2.653,2.653,0,0,1,.8,1.928v3.951a2.759,2.759,0,0,1-2.787,2.742h-.9a2.7,2.7,0,0,1-1.96-.813,2.611,2.611,0,0,1-.827-1.929v-.836a.291.291,0,0,0-.331-.326H105.084a.29.29,0,0,0-.331.326v.836a2.614,2.614,0,0,1-.826,1.929,2.7,2.7,0,0,1-1.961.813H99.509a.25.25,0,0,0-.212.093.239.239,0,0,0-.024.232,5.664,5.664,0,0,1,.142.6,2.092,2.092,0,0,1,.142.744,2.646,2.646,0,0,1-.378,1.348,3.113,3.113,0,0,1-1.606,1.487l-.284.093a1.616,1.616,0,0,1-.708.186,1.76,1.76,0,0,1-.851-.232,1.832,1.832,0,0,1-.992-1.3q-.048-.279-.378-.233l-1.134.139c-.221,0-.33.125-.33.372v3.021a.232.232,0,0,0,.33.232l1.087-.325a3.163,3.163,0,0,1,.9-.139,2.986,2.986,0,0,1,1.323.325,2.552,2.552,0,0,1,1.418,1.58q.612,1.813,1.039,3.579a4.29,4.29,0,0,1,.047.6,2.487,2.487,0,0,1-.378,1.348,2.8,2.8,0,0,1-1.606,1.255,1.7,1.7,0,0,1-.661.139,1.833,1.833,0,0,1-1.087-.372,2.11,2.11,0,0,1-1.039-1.44,47.723,47.723,0,0,0-1.276-4.788.042.042,0,0,0-.047-.046c-.032,0-.047.031-.047.093v11.294a2.6,2.6,0,0,1-.827,1.952,2.745,2.745,0,0,1-1.961.79h-.283a2.723,2.723,0,0,1-1.985-.79,2.632,2.632,0,0,1-.8-1.952V209.024H86.99a41.988,41.988,0,0,1-1.464,6.878,1.967,1.967,0,0,1-1.276,1.348,2.775,2.775,0,0,1-1.984-.093,2.745,2.745,0,0,1-1.417-1.487,2.82,2.82,0,0,1-.284-1.209,2.581,2.581,0,0,1,.142-.836,38.565,38.565,0,0,0,1.039-5.763,2.7,2.7,0,0,1,.992-1.813,2.544,2.544,0,0,1,1.512-.511,2.462,2.462,0,0,1,.473.047l1.937.325c.251.031.378-.062.378-.279v-2.37c0-.217-.127-.325-.378-.325q-1.134.093-2.741.232h-.283a2.778,2.778,0,0,1-1.795-.65,2.671,2.671,0,0,1-1.04-1.86l-.047-.418a1.523,1.523,0,0,1-.047-.372,2.5,2.5,0,0,1,.614-1.626,2.444,2.444,0,0,1,1.843-.884,7.458,7.458,0,0,1,.779-.046.746.746,0,0,0,.591-.279q.284-.419,1.133-1.626a.531.531,0,0,0,0-.6,37.928,37.928,0,0,0-3.4-4.461,3.422,3.422,0,0,1-.9-2.324,3.177,3.177,0,0,1,.662-1.952l1.039-1.441a1.071,1.071,0,0,1,.709-.372.971.971,0,0,1,.756.233q.141.093.189,0,1.134-2.51,2.126-5.159a2.737,2.737,0,0,1,1.417-1.534,2.609,2.609,0,0,1,1.228-.325,2.456,2.456,0,0,1,.9.186l.614.186a2.409,2.409,0,0,1,1.464,1.348,2.345,2.345,0,0,1,.189.882,2.444,2.444,0,0,1-.283,1.116q-2.5,4.6-3.968,6.971a.421.421,0,0,0,.047.558c.22.31.409.557.566.744a.195.195,0,0,0,.332,0q1.275-2.232,2.409-4.462a2.913,2.913,0,0,1,1.606-1.441,2.965,2.965,0,0,1,.992-.186,2.549,2.549,0,0,1,1.134.279l.425.14a2.4,2.4,0,0,1,1.323,1.487,2.835,2.835,0,0,1,.094.7,2.186,2.186,0,0,1-.378,1.255q-2.125,3.253-4.015,5.949c-.032.031-.032.07,0,.116s.078.054.141.023l.567-.232a2.663,2.663,0,0,1,2.174,0,2.709,2.709,0,0,1,1.559,1.487q.519,1.209,1.039,2.556a.041.041,0,0,0,.047.047c.031,0,.048-.031.048-.093v-4.509a2.614,2.614,0,0,1,.826-1.928,2.7,2.7,0,0,1,1.961-.813h2.173q.33,0,.236-.326a22.713,22.713,0,0,0-.9-3.16.436.436,0,0,0-.472-.325h-.614a2.719,2.719,0,0,1-1.984-.79,2.63,2.63,0,0,1-.8-1.953v-.232a2.761,2.761,0,0,1,2.788-2.742h6.755q.378,0,.378-.325v-.558a2.761,2.761,0,0,1,2.788-2.742h1.417a2.7,2.7,0,0,1,1.961.813,2.616,2.616,0,0,1,.826,1.929v.558q0,.325.378.325h6.709a2.7,2.7,0,0,1,1.96.813,2.617,2.617,0,0,1,.827,1.929v.279a2.58,2.58,0,0,1-.8,1.906,2.665,2.665,0,0,1-1.937.79.519.519,0,0,0-.52.325Q121.477,188.528,121,189.5Zm-30.519,7.158c-.063.03-.07.077-.024.139a.206.206,0,0,0,.166.093l1.937-.14c.251,0,.331-.123.236-.372q-.378-.975-.661-1.58a.194.194,0,0,0-.331,0Zm31.275,3.3a2.684,2.684,0,0,1,1.984.813,2.655,2.655,0,0,1,.8,1.929v8.784a11.263,11.263,0,0,1-.378,3.254,3.37,3.37,0,0,1-1.512,1.9,6.036,6.036,0,0,1-2.787.93,1.458,1.458,0,0,1-.33.046,2.535,2.535,0,0,1-1.7-.651,3.619,3.619,0,0,1-1.276-1.951,24.752,24.752,0,0,0-.9-2.557.081.081,0,0,0-.1-.023.074.074,0,0,0-.047.07V219.2a2.593,2.593,0,0,1-.827,1.952,2.743,2.743,0,0,1-1.961.79h-.756a2.715,2.715,0,0,1-1.983-.79,2.624,2.624,0,0,1-.8-1.952V205.864a.331.331,0,0,0-.378-.372h-1.795a.331.331,0,0,0-.378.372v9.295a2.631,2.631,0,0,1-.8,1.952,2.723,2.723,0,0,1-1.984.79h-.52a2.745,2.745,0,0,1-1.961-.79,2.592,2.592,0,0,1-.826-1.952V202.7a2.616,2.616,0,0,1,.826-1.929,2.706,2.706,0,0,1,1.961-.813h5.48q.378,0,.378-.325v-.465a2.648,2.648,0,0,1,.8-1.929,2.68,2.68,0,0,1,1.983-.813h.756a2.708,2.708,0,0,1,1.961.813,2.617,2.617,0,0,1,.827,1.929v.465a.289.289,0,0,0,.33.325Zm-6.425-13.617a.413.413,0,0,0-.071-.209.233.233,0,0,0-.213-.116H109.62a.255.255,0,0,0-.189.116.186.186,0,0,0-.048.209,26.212,26.212,0,0,1,.945,3.16q.046.325.425.326h3.024a.485.485,0,0,0,.472-.326Q114.958,187.553,115.336,186.344Zm.519,19.148q-.33,0-.33.372v5.623a.34.34,0,0,0,.33.372h2.126a.455.455,0,0,0,.52-.511v-5.484c0-.248-.111-.372-.331-.372Z" fill="none" stroke="#d01" stroke-miterlimit="10" stroke-width="17"/>
      <path id="Path_9827" data-name="Path 9827" d="M141.6,205.864h1.322q.473,0,.662-.651a13.253,13.253,0,0,0,.283-2.51,1.472,1.472,0,0,1,.851-1.3,1.826,1.826,0,0,1,1.606,0q.567.279,1.181.511a3.793,3.793,0,0,1,1.843,1.487,2.785,2.785,0,0,1,.519,1.627,2.358,2.358,0,0,1-.047.465,11.186,11.186,0,0,1-2.055,5.391,5.16,5.16,0,0,1-4.087,1.58h-3.449q-3.78,0-5.054-1.882T133.9,203.54v-6.6q0-.324-.331-.278l-1.039.185a3.5,3.5,0,0,1-.567.047,2.7,2.7,0,0,1-1.511-.465,2.584,2.584,0,0,1-1.134-1.766l-.189-1.022a3.032,3.032,0,0,1-.048-.512,2.5,2.5,0,0,1,.52-1.533,2.822,2.822,0,0,1,1.795-1.162l2.173-.372a.34.34,0,0,0,.331-.372v-8.784a2.611,2.611,0,0,1,.827-1.928,2.7,2.7,0,0,1,1.96-.814h1.371a2.678,2.678,0,0,1,1.983.814,2.65,2.65,0,0,1,.8,1.928v7.529c0,.249.125.341.378.279l5.48-.976a2.688,2.688,0,0,1,2.079.465,2.6,2.6,0,0,1,1.133,1.766l.142.883a2.607,2.607,0,0,1,.047.511,2.512,2.512,0,0,1-.519,1.534,2.822,2.822,0,0,1-1.795,1.162l-6.567,1.208c-.253.031-.378.155-.378.372v7.9a9.087,9.087,0,0,0,.118,1.952Q141.082,205.864,141.6,205.864Zm5.622-23.239a2.649,2.649,0,0,1,.8-1.928,2.677,2.677,0,0,1,1.984-.813H171.46a2.661,2.661,0,0,1,1.937.79,2.525,2.525,0,0,1,.8,1.859q0,.232-.047.79-.38,18.451-.9,25.538t-1.842,9.04a7.638,7.638,0,0,1-2.126,2.277,8.526,8.526,0,0,1-2.693,1.069,22.088,22.088,0,0,1-4.346.325,2.991,2.991,0,0,1-2.032-.79,3.722,3.722,0,0,1-1.181-1.951,15.6,15.6,0,0,0-.614-1.953,2.276,2.276,0,0,1-.094-.65,1.845,1.845,0,0,1,.283-.976,1.627,1.627,0,0,1,1.37-.7h.1q1.134.047,2.787.046a2.118,2.118,0,0,0,1.889-1.022q.945-1.161,1.394-7.135t.685-19.635q0-.372-.33-.372h-5.292a.331.331,0,0,0-.377.372q-.1,4-.26,6.924t-.591,6.344a40.55,40.55,0,0,1-1.181,6.066,44.609,44.609,0,0,1-1.913,5.344,22.028,22.028,0,0,1-2.929,4.95,27.105,27.105,0,0,1-4.087,4.16,2.343,2.343,0,0,1-1.464.511,3.234,3.234,0,0,1-.52-.047,2.85,2.85,0,0,1-1.795-1.069q-.615-.791-1.323-1.534a2.234,2.234,0,0,1-.662-1.58,2.153,2.153,0,0,1,.851-1.812,18.93,18.93,0,0,0,3.023-3,24.843,24.843,0,0,0,2.245-3.276A18.153,18.153,0,0,0,151.784,205q.636-2.161.991-4t.591-4.462q.235-2.625.307-4.648t.119-5.088a.332.332,0,0,0-.378-.372h-3.4a2.712,2.712,0,0,1-1.984-.791,2.625,2.625,0,0,1-.8-1.951Z" fill="none" stroke="#d01" stroke-miterlimit="10" stroke-width="17"/>
      <path id="Path_9828" data-name="Path 9828" d="M199.05,193.455a2.633,2.633,0,0,1-.8,1.952,2.721,2.721,0,0,1-1.985.79h-9.117a.331.331,0,0,0-.378.371v22.588a2.63,2.63,0,0,1-.8,1.952,2.721,2.721,0,0,1-1.984.79h-1.37a2.721,2.721,0,0,1-1.984-.79,2.629,2.629,0,0,1-.8-1.952V181.139a2.653,2.653,0,0,1,.8-1.93,2.682,2.682,0,0,1,1.984-.813h13.653a2.686,2.686,0,0,1,1.985.813,2.657,2.657,0,0,1,.8,1.93Zm-6.567-9.807a.29.29,0,0,0-.331-.325h-5.007c-.253,0-.378.109-.378.325v.93a.331.331,0,0,0,.378.372h5.007c.22,0,.331-.124.331-.372Zm-5.716,7.343a.331.331,0,0,0,.378.372h5.007c.22,0,.331-.123.331-.372V189.83a.291.291,0,0,0-.331-.326h-5.007c-.253,0-.378.109-.378.326Zm31.888-12.6a2.686,2.686,0,0,1,1.985.813,2.657,2.657,0,0,1,.8,1.93V214a11.891,11.891,0,0,1-.614,4.275,4.574,4.574,0,0,1-2.174,2.371,15.824,15.824,0,0,1-6.566,1.255h-.1a3.042,3.042,0,0,1-1.984-.744,3.631,3.631,0,0,1-1.276-1.905q-.189-.7-.425-1.441a.437.437,0,0,0-.472-.326h-10.3a.249.249,0,0,0-.284.279,2.043,2.043,0,0,1-.637,1.511,2.114,2.114,0,0,1-1.535.627h-1.371a2.739,2.739,0,0,1-1.96-.79,2.591,2.591,0,0,1-.827-1.952V201.448a2.587,2.587,0,0,1,.827-1.951,2.739,2.739,0,0,1,1.96-.79h13.512a2.739,2.739,0,0,1,1.96.79,2.591,2.591,0,0,1,.827,1.951v13.2q0,.373.331.373h2.834a1.3,1.3,0,0,0,.922-.256,1.181,1.181,0,0,0,.259-.86v-17.2a.331.331,0,0,0-.377-.372H204.53a2.715,2.715,0,0,1-1.984-.79,2.626,2.626,0,0,1-.8-1.952V181.139a2.653,2.653,0,0,1,.8-1.93,2.68,2.68,0,0,1,1.984-.813ZM203.4,204.051c0-.248-.111-.372-.331-.372h-5.433a.331.331,0,0,0-.378.372v1.3c0,.216.126.325.378.325h5.433a.29.29,0,0,0,.331-.325Zm-6.142,8.087a.331.331,0,0,0,.378.372h5.433c.22,0,.331-.124.331-.372v-1.3a.29.29,0,0,0-.331-.325h-5.433c-.252,0-.378.109-.378.325Zm17.1-28.49c0-.216-.126-.325-.377-.325h-5.245a.29.29,0,0,0-.33.325v.93q0,.372.33.372h5.245a.331.331,0,0,0,.377-.372Zm-5.952,7.483c0,.248.11.371.33.371h5.245a.33.33,0,0,0,.377-.371v-1.3q0-.325-.377-.326h-5.245a.29.29,0,0,0-.33.326Z" fill="none" stroke="#d01" stroke-miterlimit="10" stroke-width="17"/>
      <path id="Path_9829" data-name="Path 9829" d="M235.71,195.128a2.739,2.739,0,0,1,1.96.79,2.6,2.6,0,0,1,.828,1.952v11.851a1.125,1.125,0,0,0,.189.651q2.5,3.719,9.637,4,3.543.186,7.275.186,6.662,0,13.842-.465h.142a1.628,1.628,0,0,1,1.37.7,1.585,1.585,0,0,1,.378,1.023,1.513,1.513,0,0,1-.142.6q-.283.93-.567,1.812a3.883,3.883,0,0,1-1.275,2,3.234,3.234,0,0,1-2.126.79q-5.527.231-10.346.232-4.677,0-8.693-.186a24.9,24.9,0,0,1-7.346-1.255,12.9,12.9,0,0,1-5.22-3.578q-.237-.279-.473-.047-2.268,1.951-4.205,3.532a2.147,2.147,0,0,1-1.322.465,2.779,2.779,0,0,1-.52-.046,2.121,2.121,0,0,1-1.512-1.209l-1.039-2.231a2.914,2.914,0,0,1-.283-1.254,3.535,3.535,0,0,1,.141-.93,3.139,3.139,0,0,1,1.37-1.673q1.937-1.161,3.543-2.277A.7.7,0,0,0,231.6,210v-8.18a.29.29,0,0,0-.331-.325h-1.842a2.7,2.7,0,0,1-1.961-.813,2.614,2.614,0,0,1-.826-1.929v-.883a2.594,2.594,0,0,1,.826-1.952,2.741,2.741,0,0,1,1.961-.79Zm2.032-12.316a2.345,2.345,0,0,1,.756,1.719.777.777,0,0,1-.048.233,2.626,2.626,0,0,1-.992,1.859l-1.323,1.068a2.585,2.585,0,0,1-1.653.605,1.4,1.4,0,0,1-.331-.047,2.645,2.645,0,0,1-1.842-.976,41.217,41.217,0,0,0-3.733-3.578,2.191,2.191,0,0,1-.8-1.72,2.106,2.106,0,0,1,.851-1.766l.9-.7a3.653,3.653,0,0,1,2.173-.79h.1a3.168,3.168,0,0,1,2.079.743A45.279,45.279,0,0,1,237.742,182.812Zm18.849,13.57a.331.331,0,0,0-.378-.371h-5.527q-.332,0-.378.371-.993,8.6-4.866,13.85a2.067,2.067,0,0,1-1.653.79h-.1a2.73,2.73,0,0,1-1.842-.836c-.348-.341-.709-.681-1.087-1.022a2.741,2.741,0,0,1-.945-1.767,2.146,2.146,0,0,1-.047-.418,2.713,2.713,0,0,1,.519-1.58,18.346,18.346,0,0,0,2.835-6.925,44.49,44.49,0,0,0,.709-8.226v-8.04a2.237,2.237,0,0,1,.8-1.767,2.276,2.276,0,0,1,1.512-.557,2.231,2.231,0,0,1,.425.046l2.976.465a2.712,2.712,0,0,0,.709,0,80.035,80.035,0,0,0,11.338-2.7,5.27,5.27,0,0,1,1.559-.232c.283,0,.582.016.9.046a4.853,4.853,0,0,1,2.22,1.116l1.606,1.487a1.479,1.479,0,0,1,.52,1.534,1.493,1.493,0,0,1-1.087,1.208,103.554,103.554,0,0,1-16.346,3.346.366.366,0,0,0-.33.419v2.695a.29.29,0,0,0,.33.326H268.4a2.759,2.759,0,0,1,2.787,2.742v.883a2.633,2.633,0,0,1-.8,1.952,2.718,2.718,0,0,1-1.984.79h-4.488a.331.331,0,0,0-.378.371v13.711a2.761,2.761,0,0,1-2.787,2.742h-1.371a2.673,2.673,0,0,1-1.983-.814,2.644,2.644,0,0,1-.8-1.928Z" fill="none" stroke="#d01" stroke-miterlimit="10" stroke-width="17"/>
    </g>
    <g id="Group_2698" data-name="Group 2698" transform="translate(0.252 20.85)">
      <path id="Path_9830" data-name="Path 9830" d="M121,189.5a.29.29,0,0,0,0,.232.189.189,0,0,0,.189.094h2.551a2.68,2.68,0,0,1,1.984.813,2.653,2.653,0,0,1,.8,1.928v3.951a2.759,2.759,0,0,1-2.787,2.742h-.9a2.7,2.7,0,0,1-1.96-.813,2.611,2.611,0,0,1-.827-1.929v-.836a.291.291,0,0,0-.331-.326H105.084a.29.29,0,0,0-.331.326v.836a2.614,2.614,0,0,1-.826,1.929,2.7,2.7,0,0,1-1.961.813H99.509a.25.25,0,0,0-.212.093.239.239,0,0,0-.024.232,5.664,5.664,0,0,1,.142.6,2.092,2.092,0,0,1,.142.744,2.646,2.646,0,0,1-.378,1.348,3.113,3.113,0,0,1-1.606,1.487l-.284.093a1.616,1.616,0,0,1-.708.186,1.76,1.76,0,0,1-.851-.232,1.832,1.832,0,0,1-.992-1.3q-.048-.279-.378-.233l-1.134.139c-.221,0-.33.125-.33.372v3.021a.232.232,0,0,0,.33.232l1.087-.325a3.163,3.163,0,0,1,.9-.139,2.986,2.986,0,0,1,1.323.325,2.552,2.552,0,0,1,1.418,1.58q.612,1.813,1.039,3.579a4.29,4.29,0,0,1,.047.6,2.487,2.487,0,0,1-.378,1.348,2.8,2.8,0,0,1-1.606,1.255,1.7,1.7,0,0,1-.661.139,1.833,1.833,0,0,1-1.087-.372,2.11,2.11,0,0,1-1.039-1.44,47.723,47.723,0,0,0-1.276-4.788.042.042,0,0,0-.047-.046c-.032,0-.047.031-.047.093v11.294a2.6,2.6,0,0,1-.827,1.952,2.745,2.745,0,0,1-1.961.79h-.283a2.723,2.723,0,0,1-1.985-.79,2.632,2.632,0,0,1-.8-1.952V209.024H86.99a41.988,41.988,0,0,1-1.464,6.878,1.967,1.967,0,0,1-1.276,1.348,2.775,2.775,0,0,1-1.984-.093,2.745,2.745,0,0,1-1.417-1.487,2.82,2.82,0,0,1-.284-1.209,2.581,2.581,0,0,1,.142-.836,38.565,38.565,0,0,0,1.039-5.763,2.7,2.7,0,0,1,.992-1.813,2.544,2.544,0,0,1,1.512-.511,2.462,2.462,0,0,1,.473.047l1.937.325c.251.031.378-.062.378-.279v-2.37c0-.217-.127-.325-.378-.325q-1.134.093-2.741.232h-.283a2.778,2.778,0,0,1-1.795-.65,2.671,2.671,0,0,1-1.04-1.86l-.047-.418a1.523,1.523,0,0,1-.047-.372,2.5,2.5,0,0,1,.614-1.626,2.444,2.444,0,0,1,1.843-.884,7.458,7.458,0,0,1,.779-.046.746.746,0,0,0,.591-.279q.284-.419,1.133-1.626a.531.531,0,0,0,0-.6,37.928,37.928,0,0,0-3.4-4.461,3.422,3.422,0,0,1-.9-2.324,3.177,3.177,0,0,1,.662-1.952l1.039-1.441a1.071,1.071,0,0,1,.709-.372.971.971,0,0,1,.756.233q.141.093.189,0,1.134-2.51,2.126-5.159a2.737,2.737,0,0,1,1.417-1.534,2.609,2.609,0,0,1,1.228-.325,2.456,2.456,0,0,1,.9.186l.614.186a2.409,2.409,0,0,1,1.464,1.348,2.345,2.345,0,0,1,.189.882,2.444,2.444,0,0,1-.283,1.116q-2.5,4.6-3.968,6.971a.421.421,0,0,0,.047.558c.22.31.409.557.566.744a.195.195,0,0,0,.332,0q1.275-2.232,2.409-4.462a2.913,2.913,0,0,1,1.606-1.441,2.965,2.965,0,0,1,.992-.186,2.549,2.549,0,0,1,1.134.279l.425.14a2.4,2.4,0,0,1,1.323,1.487,2.835,2.835,0,0,1,.094.7,2.186,2.186,0,0,1-.378,1.255q-2.125,3.253-4.015,5.949c-.032.031-.032.07,0,.116s.078.054.141.023l.567-.232a2.663,2.663,0,0,1,2.174,0,2.709,2.709,0,0,1,1.559,1.487q.519,1.209,1.039,2.556a.041.041,0,0,0,.047.047c.031,0,.048-.031.048-.093v-4.509a2.614,2.614,0,0,1,.826-1.928,2.7,2.7,0,0,1,1.961-.813h2.173q.33,0,.236-.326a22.713,22.713,0,0,0-.9-3.16.436.436,0,0,0-.472-.325h-.614a2.719,2.719,0,0,1-1.984-.79,2.63,2.63,0,0,1-.8-1.953v-.232a2.761,2.761,0,0,1,2.788-2.742h6.755q.378,0,.378-.325v-.558a2.761,2.761,0,0,1,2.788-2.742h1.417a2.7,2.7,0,0,1,1.961.813,2.616,2.616,0,0,1,.826,1.929v.558q0,.325.378.325h6.709a2.7,2.7,0,0,1,1.96.813,2.617,2.617,0,0,1,.827,1.929v.279a2.58,2.58,0,0,1-.8,1.906,2.665,2.665,0,0,1-1.937.79.519.519,0,0,0-.52.325Q121.477,188.528,121,189.5Zm-30.519,7.158c-.063.03-.07.077-.024.139a.206.206,0,0,0,.166.093l1.937-.14c.251,0,.331-.123.236-.372q-.378-.975-.661-1.58a.194.194,0,0,0-.331,0Zm31.275,3.3a2.684,2.684,0,0,1,1.984.813,2.655,2.655,0,0,1,.8,1.929v8.784a11.263,11.263,0,0,1-.378,3.254,3.37,3.37,0,0,1-1.512,1.9,6.036,6.036,0,0,1-2.787.93,1.458,1.458,0,0,1-.33.046,2.535,2.535,0,0,1-1.7-.651,3.619,3.619,0,0,1-1.276-1.951,24.752,24.752,0,0,0-.9-2.557.081.081,0,0,0-.1-.023.074.074,0,0,0-.047.07V219.2a2.593,2.593,0,0,1-.827,1.952,2.743,2.743,0,0,1-1.961.79h-.756a2.715,2.715,0,0,1-1.983-.79,2.624,2.624,0,0,1-.8-1.952V205.864a.331.331,0,0,0-.378-.372h-1.795a.331.331,0,0,0-.378.372v9.295a2.631,2.631,0,0,1-.8,1.952,2.723,2.723,0,0,1-1.984.79h-.52a2.745,2.745,0,0,1-1.961-.79,2.592,2.592,0,0,1-.826-1.952V202.7a2.616,2.616,0,0,1,.826-1.929,2.706,2.706,0,0,1,1.961-.813h5.48q.378,0,.378-.325v-.465a2.648,2.648,0,0,1,.8-1.929,2.68,2.68,0,0,1,1.983-.813h.756a2.708,2.708,0,0,1,1.961.813,2.617,2.617,0,0,1,.827,1.929v.465a.289.289,0,0,0,.33.325Zm-6.425-13.617a.413.413,0,0,0-.071-.209.233.233,0,0,0-.213-.116H109.62a.255.255,0,0,0-.189.116.186.186,0,0,0-.048.209,26.212,26.212,0,0,1,.945,3.16q.046.325.425.326h3.024a.485.485,0,0,0,.472-.326Q114.958,187.553,115.336,186.344Zm.519,19.148q-.33,0-.33.372v5.623a.34.34,0,0,0,.33.372h2.126a.455.455,0,0,0,.52-.511v-5.484c0-.248-.111-.372-.331-.372Z" fill="none" stroke="#fff" stroke-miterlimit="10" stroke-width="10"/>
      <path id="Path_9831" data-name="Path 9831" d="M141.6,205.864h1.322q.473,0,.662-.651a13.253,13.253,0,0,0,.283-2.51,1.472,1.472,0,0,1,.851-1.3,1.826,1.826,0,0,1,1.606,0q.567.279,1.181.511a3.793,3.793,0,0,1,1.843,1.487,2.785,2.785,0,0,1,.519,1.627,2.358,2.358,0,0,1-.047.465,11.186,11.186,0,0,1-2.055,5.391,5.16,5.16,0,0,1-4.087,1.58h-3.449q-3.78,0-5.054-1.882T133.9,203.54v-6.6q0-.324-.331-.278l-1.039.185a3.5,3.5,0,0,1-.567.047,2.7,2.7,0,0,1-1.511-.465,2.584,2.584,0,0,1-1.134-1.766l-.189-1.022a3.032,3.032,0,0,1-.048-.512,2.5,2.5,0,0,1,.52-1.533,2.822,2.822,0,0,1,1.795-1.162l2.173-.372a.34.34,0,0,0,.331-.372v-8.784a2.611,2.611,0,0,1,.827-1.928,2.7,2.7,0,0,1,1.96-.814h1.371a2.678,2.678,0,0,1,1.983.814,2.65,2.65,0,0,1,.8,1.928v7.529c0,.249.125.341.378.279l5.48-.976a2.688,2.688,0,0,1,2.079.465,2.6,2.6,0,0,1,1.133,1.766l.142.883a2.607,2.607,0,0,1,.047.511,2.512,2.512,0,0,1-.519,1.534,2.822,2.822,0,0,1-1.795,1.162l-6.567,1.208c-.253.031-.378.155-.378.372v7.9a9.087,9.087,0,0,0,.118,1.952Q141.082,205.864,141.6,205.864Zm5.622-23.239a2.649,2.649,0,0,1,.8-1.928,2.677,2.677,0,0,1,1.984-.813H171.46a2.661,2.661,0,0,1,1.937.79,2.525,2.525,0,0,1,.8,1.859q0,.232-.047.79-.38,18.451-.9,25.538t-1.842,9.04a7.638,7.638,0,0,1-2.126,2.277,8.526,8.526,0,0,1-2.693,1.069,22.088,22.088,0,0,1-4.346.325,2.991,2.991,0,0,1-2.032-.79,3.722,3.722,0,0,1-1.181-1.951,15.6,15.6,0,0,0-.614-1.953,2.276,2.276,0,0,1-.094-.65,1.845,1.845,0,0,1,.283-.976,1.627,1.627,0,0,1,1.37-.7h.1q1.134.047,2.787.046a2.118,2.118,0,0,0,1.889-1.022q.945-1.161,1.394-7.135t.685-19.635q0-.372-.33-.372h-5.292a.331.331,0,0,0-.377.372q-.1,4-.26,6.924t-.591,6.344a40.55,40.55,0,0,1-1.181,6.066,44.609,44.609,0,0,1-1.913,5.344,22.028,22.028,0,0,1-2.929,4.95,27.105,27.105,0,0,1-4.087,4.16,2.343,2.343,0,0,1-1.464.511,3.234,3.234,0,0,1-.52-.047,2.85,2.85,0,0,1-1.795-1.069q-.615-.791-1.323-1.534a2.234,2.234,0,0,1-.662-1.58,2.153,2.153,0,0,1,.851-1.812,18.93,18.93,0,0,0,3.023-3,24.843,24.843,0,0,0,2.245-3.276A18.153,18.153,0,0,0,151.784,205q.636-2.161.991-4t.591-4.462q.235-2.625.307-4.648t.119-5.088a.332.332,0,0,0-.378-.372h-3.4a2.712,2.712,0,0,1-1.984-.791,2.625,2.625,0,0,1-.8-1.951Z" fill="none" stroke="#fff" stroke-miterlimit="10" stroke-width="10"/>
      <path id="Path_9832" data-name="Path 9832" d="M199.05,193.455a2.633,2.633,0,0,1-.8,1.952,2.721,2.721,0,0,1-1.985.79h-9.117a.331.331,0,0,0-.378.371v22.588a2.63,2.63,0,0,1-.8,1.952,2.721,2.721,0,0,1-1.984.79h-1.37a2.721,2.721,0,0,1-1.984-.79,2.629,2.629,0,0,1-.8-1.952V181.139a2.653,2.653,0,0,1,.8-1.93,2.682,2.682,0,0,1,1.984-.813h13.653a2.686,2.686,0,0,1,1.985.813,2.657,2.657,0,0,1,.8,1.93Zm-6.567-9.807a.29.29,0,0,0-.331-.325h-5.007c-.253,0-.378.109-.378.325v.93a.331.331,0,0,0,.378.372h5.007c.22,0,.331-.124.331-.372Zm-5.716,7.343a.331.331,0,0,0,.378.372h5.007c.22,0,.331-.123.331-.372V189.83a.291.291,0,0,0-.331-.326h-5.007c-.253,0-.378.109-.378.326Zm31.888-12.6a2.686,2.686,0,0,1,1.985.813,2.657,2.657,0,0,1,.8,1.93V214a11.891,11.891,0,0,1-.614,4.275,4.574,4.574,0,0,1-2.174,2.371,15.824,15.824,0,0,1-6.566,1.255h-.1a3.042,3.042,0,0,1-1.984-.744,3.631,3.631,0,0,1-1.276-1.905q-.189-.7-.425-1.441a.437.437,0,0,0-.472-.326h-10.3a.249.249,0,0,0-.284.279,2.043,2.043,0,0,1-.637,1.511,2.114,2.114,0,0,1-1.535.627h-1.371a2.739,2.739,0,0,1-1.96-.79,2.591,2.591,0,0,1-.827-1.952V201.448a2.587,2.587,0,0,1,.827-1.951,2.739,2.739,0,0,1,1.96-.79h13.512a2.739,2.739,0,0,1,1.96.79,2.591,2.591,0,0,1,.827,1.951v13.2q0,.373.331.373h2.834a1.3,1.3,0,0,0,.922-.256,1.181,1.181,0,0,0,.259-.86v-17.2a.331.331,0,0,0-.377-.372H204.53a2.715,2.715,0,0,1-1.984-.79,2.626,2.626,0,0,1-.8-1.952V181.139a2.653,2.653,0,0,1,.8-1.93,2.68,2.68,0,0,1,1.984-.813ZM203.4,204.051c0-.248-.111-.372-.331-.372h-5.433a.331.331,0,0,0-.378.372v1.3c0,.216.126.325.378.325h5.433a.29.29,0,0,0,.331-.325Zm-6.142,8.087a.331.331,0,0,0,.378.372h5.433c.22,0,.331-.124.331-.372v-1.3a.29.29,0,0,0-.331-.325h-5.433c-.252,0-.378.109-.378.325Zm17.1-28.49c0-.216-.126-.325-.377-.325h-5.245a.29.29,0,0,0-.33.325v.93q0,.372.33.372h5.245a.331.331,0,0,0,.377-.372Zm-5.952,7.483c0,.248.11.371.33.371h5.245a.33.33,0,0,0,.377-.371v-1.3q0-.325-.377-.326h-5.245a.29.29,0,0,0-.33.326Z" fill="none" stroke="#fff" stroke-miterlimit="10" stroke-width="10"/>
      <path id="Path_9833" data-name="Path 9833" d="M235.71,195.128a2.739,2.739,0,0,1,1.96.79,2.6,2.6,0,0,1,.828,1.952v11.851a1.125,1.125,0,0,0,.189.651q2.5,3.719,9.637,4,3.543.186,7.275.186,6.662,0,13.842-.465h.142a1.628,1.628,0,0,1,1.37.7,1.585,1.585,0,0,1,.378,1.023,1.513,1.513,0,0,1-.142.6q-.283.93-.567,1.812a3.883,3.883,0,0,1-1.275,2,3.234,3.234,0,0,1-2.126.79q-5.527.231-10.346.232-4.677,0-8.693-.186a24.9,24.9,0,0,1-7.346-1.255,12.9,12.9,0,0,1-5.22-3.578q-.237-.279-.473-.047-2.268,1.951-4.205,3.532a2.147,2.147,0,0,1-1.322.465,2.779,2.779,0,0,1-.52-.046,2.121,2.121,0,0,1-1.512-1.209l-1.039-2.231a2.914,2.914,0,0,1-.283-1.254,3.535,3.535,0,0,1,.141-.93,3.139,3.139,0,0,1,1.37-1.673q1.937-1.161,3.543-2.277A.7.7,0,0,0,231.6,210v-8.18a.29.29,0,0,0-.331-.325h-1.842a2.7,2.7,0,0,1-1.961-.813,2.614,2.614,0,0,1-.826-1.929v-.883a2.594,2.594,0,0,1,.826-1.952,2.741,2.741,0,0,1,1.961-.79Zm2.032-12.316a2.345,2.345,0,0,1,.756,1.719.777.777,0,0,1-.048.233,2.626,2.626,0,0,1-.992,1.859l-1.323,1.068a2.585,2.585,0,0,1-1.653.605,1.4,1.4,0,0,1-.331-.047,2.645,2.645,0,0,1-1.842-.976,41.217,41.217,0,0,0-3.733-3.578,2.191,2.191,0,0,1-.8-1.72,2.106,2.106,0,0,1,.851-1.766l.9-.7a3.653,3.653,0,0,1,2.173-.79h.1a3.168,3.168,0,0,1,2.079.743A45.279,45.279,0,0,1,237.742,182.812Zm18.849,13.57a.331.331,0,0,0-.378-.371h-5.527q-.332,0-.378.371-.993,8.6-4.866,13.85a2.067,2.067,0,0,1-1.653.79h-.1a2.73,2.73,0,0,1-1.842-.836c-.348-.341-.709-.681-1.087-1.022a2.741,2.741,0,0,1-.945-1.767,2.146,2.146,0,0,1-.047-.418,2.713,2.713,0,0,1,.519-1.58,18.346,18.346,0,0,0,2.835-6.925,44.49,44.49,0,0,0,.709-8.226v-8.04a2.237,2.237,0,0,1,.8-1.767,2.276,2.276,0,0,1,1.512-.557,2.231,2.231,0,0,1,.425.046l2.976.465a2.712,2.712,0,0,0,.709,0,80.035,80.035,0,0,0,11.338-2.7,5.27,5.27,0,0,1,1.559-.232c.283,0,.582.016.9.046a4.853,4.853,0,0,1,2.22,1.116l1.606,1.487a1.479,1.479,0,0,1,.52,1.534,1.493,1.493,0,0,1-1.087,1.208,103.554,103.554,0,0,1-16.346,3.346.366.366,0,0,0-.33.419v2.695a.29.29,0,0,0,.33.326H268.4a2.759,2.759,0,0,1,2.787,2.742v.883a2.633,2.633,0,0,1-.8,1.952,2.718,2.718,0,0,1-1.984.79h-4.488a.331.331,0,0,0-.378.371v13.711a2.761,2.761,0,0,1-2.787,2.742h-1.371a2.673,2.673,0,0,1-1.983-.814,2.644,2.644,0,0,1-.8-1.928Z" fill="none" stroke="#fff" stroke-miterlimit="10" stroke-width="10"/>
    </g>
    <g id="Group_2699" data-name="Group 2699" transform="translate(0.252 20.85)">
      <path id="Path_9834" data-name="Path 9834" d="M121,189.5a.29.29,0,0,0,0,.232.189.189,0,0,0,.189.094h2.551a2.68,2.68,0,0,1,1.984.813,2.653,2.653,0,0,1,.8,1.928v3.951a2.759,2.759,0,0,1-2.787,2.742h-.9a2.7,2.7,0,0,1-1.96-.813,2.611,2.611,0,0,1-.827-1.929v-.836a.291.291,0,0,0-.331-.326H105.084a.29.29,0,0,0-.331.326v.836a2.614,2.614,0,0,1-.826,1.929,2.7,2.7,0,0,1-1.961.813H99.509a.25.25,0,0,0-.212.093.239.239,0,0,0-.024.232,5.664,5.664,0,0,1,.142.6,2.092,2.092,0,0,1,.142.744,2.646,2.646,0,0,1-.378,1.348,3.113,3.113,0,0,1-1.606,1.487l-.284.093a1.616,1.616,0,0,1-.708.186,1.76,1.76,0,0,1-.851-.232,1.832,1.832,0,0,1-.992-1.3q-.048-.279-.378-.233l-1.134.139c-.221,0-.33.125-.33.372v3.021a.232.232,0,0,0,.33.232l1.087-.325a3.163,3.163,0,0,1,.9-.139,2.986,2.986,0,0,1,1.323.325,2.552,2.552,0,0,1,1.418,1.58q.612,1.813,1.039,3.579a4.29,4.29,0,0,1,.047.6,2.487,2.487,0,0,1-.378,1.348,2.8,2.8,0,0,1-1.606,1.255,1.7,1.7,0,0,1-.661.139,1.833,1.833,0,0,1-1.087-.372,2.11,2.11,0,0,1-1.039-1.44,47.723,47.723,0,0,0-1.276-4.788.042.042,0,0,0-.047-.046c-.032,0-.047.031-.047.093v11.294a2.6,2.6,0,0,1-.827,1.952,2.745,2.745,0,0,1-1.961.79h-.283a2.723,2.723,0,0,1-1.985-.79,2.632,2.632,0,0,1-.8-1.952V209.024H86.99a41.988,41.988,0,0,1-1.464,6.878,1.967,1.967,0,0,1-1.276,1.348,2.775,2.775,0,0,1-1.984-.093,2.745,2.745,0,0,1-1.417-1.487,2.82,2.82,0,0,1-.284-1.209,2.581,2.581,0,0,1,.142-.836,38.565,38.565,0,0,0,1.039-5.763,2.7,2.7,0,0,1,.992-1.813,2.544,2.544,0,0,1,1.512-.511,2.462,2.462,0,0,1,.473.047l1.937.325c.251.031.378-.062.378-.279v-2.37c0-.217-.127-.325-.378-.325q-1.134.093-2.741.232h-.283a2.778,2.778,0,0,1-1.795-.65,2.671,2.671,0,0,1-1.04-1.86l-.047-.418a1.523,1.523,0,0,1-.047-.372,2.5,2.5,0,0,1,.614-1.626,2.444,2.444,0,0,1,1.843-.884,7.458,7.458,0,0,1,.779-.046.746.746,0,0,0,.591-.279q.284-.419,1.133-1.626a.531.531,0,0,0,0-.6,37.928,37.928,0,0,0-3.4-4.461,3.422,3.422,0,0,1-.9-2.324,3.177,3.177,0,0,1,.662-1.952l1.039-1.441a1.071,1.071,0,0,1,.709-.372.971.971,0,0,1,.756.233q.141.093.189,0,1.134-2.51,2.126-5.159a2.737,2.737,0,0,1,1.417-1.534,2.609,2.609,0,0,1,1.228-.325,2.456,2.456,0,0,1,.9.186l.614.186a2.409,2.409,0,0,1,1.464,1.348,2.345,2.345,0,0,1,.189.882,2.444,2.444,0,0,1-.283,1.116q-2.5,4.6-3.968,6.971a.421.421,0,0,0,.047.558c.22.31.409.557.566.744a.195.195,0,0,0,.332,0q1.275-2.232,2.409-4.462a2.913,2.913,0,0,1,1.606-1.441,2.965,2.965,0,0,1,.992-.186,2.549,2.549,0,0,1,1.134.279l.425.14a2.4,2.4,0,0,1,1.323,1.487,2.835,2.835,0,0,1,.094.7,2.186,2.186,0,0,1-.378,1.255q-2.125,3.253-4.015,5.949c-.032.031-.032.07,0,.116s.078.054.141.023l.567-.232a2.663,2.663,0,0,1,2.174,0,2.709,2.709,0,0,1,1.559,1.487q.519,1.209,1.039,2.556a.041.041,0,0,0,.047.047c.031,0,.048-.031.048-.093v-4.509a2.614,2.614,0,0,1,.826-1.928,2.7,2.7,0,0,1,1.961-.813h2.173q.33,0,.236-.326a22.713,22.713,0,0,0-.9-3.16.436.436,0,0,0-.472-.325h-.614a2.719,2.719,0,0,1-1.984-.79,2.63,2.63,0,0,1-.8-1.953v-.232a2.761,2.761,0,0,1,2.788-2.742h6.755q.378,0,.378-.325v-.558a2.761,2.761,0,0,1,2.788-2.742h1.417a2.7,2.7,0,0,1,1.961.813,2.616,2.616,0,0,1,.826,1.929v.558q0,.325.378.325h6.709a2.7,2.7,0,0,1,1.96.813,2.617,2.617,0,0,1,.827,1.929v.279a2.58,2.58,0,0,1-.8,1.906,2.665,2.665,0,0,1-1.937.79.519.519,0,0,0-.52.325Q121.477,188.528,121,189.5Zm-30.519,7.158c-.063.03-.07.077-.024.139a.206.206,0,0,0,.166.093l1.937-.14c.251,0,.331-.123.236-.372q-.378-.975-.661-1.58a.194.194,0,0,0-.331,0Zm31.275,3.3a2.684,2.684,0,0,1,1.984.813,2.655,2.655,0,0,1,.8,1.929v8.784a11.263,11.263,0,0,1-.378,3.254,3.37,3.37,0,0,1-1.512,1.9,6.036,6.036,0,0,1-2.787.93,1.458,1.458,0,0,1-.33.046,2.535,2.535,0,0,1-1.7-.651,3.619,3.619,0,0,1-1.276-1.951,24.752,24.752,0,0,0-.9-2.557.081.081,0,0,0-.1-.023.074.074,0,0,0-.047.07V219.2a2.593,2.593,0,0,1-.827,1.952,2.743,2.743,0,0,1-1.961.79h-.756a2.715,2.715,0,0,1-1.983-.79,2.624,2.624,0,0,1-.8-1.952V205.864a.331.331,0,0,0-.378-.372h-1.795a.331.331,0,0,0-.378.372v9.295a2.631,2.631,0,0,1-.8,1.952,2.723,2.723,0,0,1-1.984.79h-.52a2.745,2.745,0,0,1-1.961-.79,2.592,2.592,0,0,1-.826-1.952V202.7a2.616,2.616,0,0,1,.826-1.929,2.706,2.706,0,0,1,1.961-.813h5.48q.378,0,.378-.325v-.465a2.648,2.648,0,0,1,.8-1.929,2.68,2.68,0,0,1,1.983-.813h.756a2.708,2.708,0,0,1,1.961.813,2.617,2.617,0,0,1,.827,1.929v.465a.289.289,0,0,0,.33.325Zm-6.425-13.617a.413.413,0,0,0-.071-.209.233.233,0,0,0-.213-.116H109.62a.255.255,0,0,0-.189.116.186.186,0,0,0-.048.209,26.212,26.212,0,0,1,.945,3.16q.046.325.425.326h3.024a.485.485,0,0,0,.472-.326Q114.958,187.553,115.336,186.344Zm.519,19.148q-.33,0-.33.372v5.623a.34.34,0,0,0,.33.372h2.126a.455.455,0,0,0,.52-.511v-5.484c0-.248-.111-.372-.331-.372Z" fill="#b42b1f"/>
      <path id="Path_9835" data-name="Path 9835" d="M141.6,205.864h1.322q.473,0,.662-.651a13.253,13.253,0,0,0,.283-2.51,1.472,1.472,0,0,1,.851-1.3,1.826,1.826,0,0,1,1.606,0q.567.279,1.181.511a3.793,3.793,0,0,1,1.843,1.487,2.785,2.785,0,0,1,.519,1.627,2.358,2.358,0,0,1-.047.465,11.186,11.186,0,0,1-2.055,5.391,5.16,5.16,0,0,1-4.087,1.58h-3.449q-3.78,0-5.054-1.882T133.9,203.54v-6.6q0-.324-.331-.278l-1.039.185a3.5,3.5,0,0,1-.567.047,2.7,2.7,0,0,1-1.511-.465,2.584,2.584,0,0,1-1.134-1.766l-.189-1.022a3.032,3.032,0,0,1-.048-.512,2.5,2.5,0,0,1,.52-1.533,2.822,2.822,0,0,1,1.795-1.162l2.173-.372a.34.34,0,0,0,.331-.372v-8.784a2.611,2.611,0,0,1,.827-1.928,2.7,2.7,0,0,1,1.96-.814h1.371a2.678,2.678,0,0,1,1.983.814,2.65,2.65,0,0,1,.8,1.928v7.529c0,.249.125.341.378.279l5.48-.976a2.688,2.688,0,0,1,2.079.465,2.6,2.6,0,0,1,1.133,1.766l.142.883a2.607,2.607,0,0,1,.047.511,2.512,2.512,0,0,1-.519,1.534,2.822,2.822,0,0,1-1.795,1.162l-6.567,1.208c-.253.031-.378.155-.378.372v7.9a9.087,9.087,0,0,0,.118,1.952Q141.082,205.864,141.6,205.864Zm5.622-23.239a2.649,2.649,0,0,1,.8-1.928,2.677,2.677,0,0,1,1.984-.813H171.46a2.661,2.661,0,0,1,1.937.79,2.525,2.525,0,0,1,.8,1.859q0,.232-.047.79-.38,18.451-.9,25.538t-1.842,9.04a7.638,7.638,0,0,1-2.126,2.277,8.526,8.526,0,0,1-2.693,1.069,22.088,22.088,0,0,1-4.346.325,2.991,2.991,0,0,1-2.032-.79,3.722,3.722,0,0,1-1.181-1.951,15.6,15.6,0,0,0-.614-1.953,2.276,2.276,0,0,1-.094-.65,1.845,1.845,0,0,1,.283-.976,1.627,1.627,0,0,1,1.37-.7h.1q1.134.047,2.787.046a2.118,2.118,0,0,0,1.889-1.022q.945-1.161,1.394-7.135t.685-19.635q0-.372-.33-.372h-5.292a.331.331,0,0,0-.377.372q-.1,4-.26,6.924t-.591,6.344a40.55,40.55,0,0,1-1.181,6.066,44.609,44.609,0,0,1-1.913,5.344,22.028,22.028,0,0,1-2.929,4.95,27.105,27.105,0,0,1-4.087,4.16,2.343,2.343,0,0,1-1.464.511,3.234,3.234,0,0,1-.52-.047,2.85,2.85,0,0,1-1.795-1.069q-.615-.791-1.323-1.534a2.234,2.234,0,0,1-.662-1.58,2.153,2.153,0,0,1,.851-1.812,18.93,18.93,0,0,0,3.023-3,24.843,24.843,0,0,0,2.245-3.276A18.153,18.153,0,0,0,151.784,205q.636-2.161.991-4t.591-4.462q.235-2.625.307-4.648t.119-5.088a.332.332,0,0,0-.378-.372h-3.4a2.712,2.712,0,0,1-1.984-.791,2.625,2.625,0,0,1-.8-1.951Z" fill="#b42b1f"/>
      <path id="Path_9836" data-name="Path 9836" d="M199.05,193.455a2.633,2.633,0,0,1-.8,1.952,2.721,2.721,0,0,1-1.985.79h-9.117a.331.331,0,0,0-.378.371v22.588a2.63,2.63,0,0,1-.8,1.952,2.721,2.721,0,0,1-1.984.79h-1.37a2.721,2.721,0,0,1-1.984-.79,2.629,2.629,0,0,1-.8-1.952V181.139a2.653,2.653,0,0,1,.8-1.93,2.682,2.682,0,0,1,1.984-.813h13.653a2.686,2.686,0,0,1,1.985.813,2.657,2.657,0,0,1,.8,1.93Zm-6.567-9.807a.29.29,0,0,0-.331-.325h-5.007c-.253,0-.378.109-.378.325v.93a.331.331,0,0,0,.378.372h5.007c.22,0,.331-.124.331-.372Zm-5.716,7.343a.331.331,0,0,0,.378.372h5.007c.22,0,.331-.123.331-.372V189.83a.291.291,0,0,0-.331-.326h-5.007c-.253,0-.378.109-.378.326Zm31.888-12.6a2.686,2.686,0,0,1,1.985.813,2.657,2.657,0,0,1,.8,1.93V214a11.891,11.891,0,0,1-.614,4.275,4.574,4.574,0,0,1-2.174,2.371,15.824,15.824,0,0,1-6.566,1.255h-.1a3.042,3.042,0,0,1-1.984-.744,3.631,3.631,0,0,1-1.276-1.905q-.189-.7-.425-1.441a.437.437,0,0,0-.472-.326h-10.3a.249.249,0,0,0-.284.279,2.043,2.043,0,0,1-.637,1.511,2.114,2.114,0,0,1-1.535.627h-1.371a2.739,2.739,0,0,1-1.96-.79,2.591,2.591,0,0,1-.827-1.952V201.448a2.587,2.587,0,0,1,.827-1.951,2.739,2.739,0,0,1,1.96-.79h13.512a2.739,2.739,0,0,1,1.96.79,2.591,2.591,0,0,1,.827,1.951v13.2q0,.373.331.373h2.834a1.3,1.3,0,0,0,.922-.256,1.181,1.181,0,0,0,.259-.86v-17.2a.331.331,0,0,0-.377-.372H204.53a2.715,2.715,0,0,1-1.984-.79,2.626,2.626,0,0,1-.8-1.952V181.139a2.653,2.653,0,0,1,.8-1.93,2.68,2.68,0,0,1,1.984-.813ZM203.4,204.051c0-.248-.111-.372-.331-.372h-5.433a.331.331,0,0,0-.378.372v1.3c0,.216.126.325.378.325h5.433a.29.29,0,0,0,.331-.325Zm-6.142,8.087a.331.331,0,0,0,.378.372h5.433c.22,0,.331-.124.331-.372v-1.3a.29.29,0,0,0-.331-.325h-5.433c-.252,0-.378.109-.378.325Zm17.1-28.49c0-.216-.126-.325-.377-.325h-5.245a.29.29,0,0,0-.33.325v.93q0,.372.33.372h5.245a.331.331,0,0,0,.377-.372Zm-5.952,7.483c0,.248.11.371.33.371h5.245a.33.33,0,0,0,.377-.371v-1.3q0-.325-.377-.326h-5.245a.29.29,0,0,0-.33.326Z" fill="#b42b1f"/>
      <path id="Path_9837" data-name="Path 9837" d="M235.71,195.128a2.739,2.739,0,0,1,1.96.79,2.6,2.6,0,0,1,.828,1.952v11.851a1.125,1.125,0,0,0,.189.651q2.5,3.719,9.637,4,3.543.186,7.275.186,6.662,0,13.842-.465h.142a1.628,1.628,0,0,1,1.37.7,1.585,1.585,0,0,1,.378,1.023,1.513,1.513,0,0,1-.142.6q-.283.93-.567,1.812a3.883,3.883,0,0,1-1.275,2,3.234,3.234,0,0,1-2.126.79q-5.527.231-10.346.232-4.677,0-8.693-.186a24.9,24.9,0,0,1-7.346-1.255,12.9,12.9,0,0,1-5.22-3.578q-.237-.279-.473-.047-2.268,1.951-4.205,3.532a2.147,2.147,0,0,1-1.322.465,2.779,2.779,0,0,1-.52-.046,2.121,2.121,0,0,1-1.512-1.209l-1.039-2.231a2.914,2.914,0,0,1-.283-1.254,3.535,3.535,0,0,1,.141-.93,3.139,3.139,0,0,1,1.37-1.673q1.937-1.161,3.543-2.277A.7.7,0,0,0,231.6,210v-8.18a.29.29,0,0,0-.331-.325h-1.842a2.7,2.7,0,0,1-1.961-.813,2.614,2.614,0,0,1-.826-1.929v-.883a2.594,2.594,0,0,1,.826-1.952,2.741,2.741,0,0,1,1.961-.79Zm2.032-12.316a2.345,2.345,0,0,1,.756,1.719.777.777,0,0,1-.048.233,2.626,2.626,0,0,1-.992,1.859l-1.323,1.068a2.585,2.585,0,0,1-1.653.605,1.4,1.4,0,0,1-.331-.047,2.645,2.645,0,0,1-1.842-.976,41.217,41.217,0,0,0-3.733-3.578,2.191,2.191,0,0,1-.8-1.72,2.106,2.106,0,0,1,.851-1.766l.9-.7a3.653,3.653,0,0,1,2.173-.79h.1a3.168,3.168,0,0,1,2.079.743A45.279,45.279,0,0,1,237.742,182.812Zm18.849,13.57a.331.331,0,0,0-.378-.371h-5.527q-.332,0-.378.371-.993,8.6-4.866,13.85a2.067,2.067,0,0,1-1.653.79h-.1a2.73,2.73,0,0,1-1.842-.836c-.348-.341-.709-.681-1.087-1.022a2.741,2.741,0,0,1-.945-1.767,2.146,2.146,0,0,1-.047-.418,2.713,2.713,0,0,1,.519-1.58,18.346,18.346,0,0,0,2.835-6.925,44.49,44.49,0,0,0,.709-8.226v-8.04a2.237,2.237,0,0,1,.8-1.767,2.276,2.276,0,0,1,1.512-.557,2.231,2.231,0,0,1,.425.046l2.976.465a2.712,2.712,0,0,0,.709,0,80.035,80.035,0,0,0,11.338-2.7,5.27,5.27,0,0,1,1.559-.232c.283,0,.582.016.9.046a4.853,4.853,0,0,1,2.22,1.116l1.606,1.487a1.479,1.479,0,0,1,.52,1.534,1.493,1.493,0,0,1-1.087,1.208,103.554,103.554,0,0,1-16.346,3.346.366.366,0,0,0-.33.419v2.695a.29.29,0,0,0,.33.326H268.4a2.759,2.759,0,0,1,2.787,2.742v.883a2.633,2.633,0,0,1-.8,1.952,2.718,2.718,0,0,1-1.984.79h-4.488a.331.331,0,0,0-.378.371v13.711a2.761,2.761,0,0,1-2.787,2.742h-1.371a2.673,2.673,0,0,1-1.983-.814,2.644,2.644,0,0,1-.8-1.928Z" fill="#b42b1f"/>
    </g>
    <g id="Group_2701" data-name="Group 2701" transform="translate(0.252 20.85)">
      <path id="Path_9838" data-name="Path 9838" d="M87.48,332.82q-9.334,0-15.369-4.556a3.51,3.51,0,0,1-1.473-2.831,1.112,1.112,0,0,1-.071-.345,4.729,4.729,0,0,1,.983-2.9l1.053-1.312a3.537,3.537,0,0,1,2.6-1.518h.562a4.3,4.3,0,0,1,2.456.759,14.426,14.426,0,0,0,7.93,2.554,10.266,10.266,0,0,0,6-1.553,5.111,5.111,0,0,0,2.21-4.453,6.073,6.073,0,0,0-2.035-4.9q-2.036-1.725-7.509-2.14a4.567,4.567,0,0,1-2.912-1.347,3.958,3.958,0,0,1-1.228-2.934v-.69a3.881,3.881,0,0,1,1.228-2.865,4.9,4.9,0,0,1,2.912-1.415q4.212-.553,6.036-2.244a5.791,5.791,0,0,0,1.824-4.453,5.406,5.406,0,0,0-1.544-4.142,6.433,6.433,0,0,0-4.561-1.45,11.666,11.666,0,0,0-6.246,1.933,4.738,4.738,0,0,1-2.6.759h-.562a4.112,4.112,0,0,1-2.737-1.45l-1.193-1.38a3.727,3.727,0,0,1-.982-2.555v-.483a3.4,3.4,0,0,1,1.614-2.554A24.211,24.211,0,0,1,87.2,278.28q8.421,0,13.369,3.763t4.948,10.735q0,8.077-8.492,11.53a.278.278,0,0,0,0,.483,15.156,15.156,0,0,1,7.4,4.626,12,12,0,0,1,2.772,8.077,13.247,13.247,0,0,1-2.737,8.319,16.3,16.3,0,0,1-7.158,5.281A26.829,26.829,0,0,1,87.48,332.82Z" fill="none" stroke="#d01" stroke-miterlimit="10" stroke-width="25"/>
      <path id="Path_9839" data-name="Path 9839" d="M120.256,324.052c.032-.254-.08-.38-.338-.38h-.1a5.5,5.5,0,0,1-3.67-1.307,4.745,4.745,0,0,1,.024-7.031,5.739,5.739,0,0,1,3.887-1.354,5.169,5.169,0,0,1,4.443,2.114,9.965,9.965,0,0,1,1.546,5.962,12.746,12.746,0,0,1-2.1,7.269,13.806,13.806,0,0,1-6.061,4.893,2.5,2.5,0,0,1-.917.191,2.275,2.275,0,0,1-1.015-.238,2.5,2.5,0,0,1-1.3-1.425,2.063,2.063,0,0,1-.194-.855,2.379,2.379,0,0,1,.242-1,2.927,2.927,0,0,1,1.352-1.425Q120.015,327.329,120.256,324.052Z" fill="none" stroke="#d01" stroke-miterlimit="10" stroke-width="25"/>
      <path id="Path_9840" data-name="Path 9840" d="M164.151,325.675a16.913,16.913,0,0,1-27.614,0q-5.124-7.146-5.123-20.4t5.087-20.125a17.294,17.294,0,0,1,27.65.07q5.158,6.938,5.158,20.055Q169.309,318.529,164.151,325.675Zm-16.562-3.383a4.994,4.994,0,0,0,5.4,0,7.451,7.451,0,0,0,2.175-2.693,17.287,17.287,0,0,0,1.544-5.488,62.325,62.325,0,0,0,.527-8.837,60.984,60.984,0,0,0-.527-8.733,15.988,15.988,0,0,0-1.544-5.351,6.909,6.909,0,0,0-2.175-2.52,5,5,0,0,0-2.7-.724,4.813,4.813,0,0,0-2.666.724,6.808,6.808,0,0,0-2.106,2.52,16.63,16.63,0,0,0-1.509,5.351,61.148,61.148,0,0,0-.526,8.733,62.493,62.493,0,0,0,.526,8.837,18.883,18.883,0,0,0,1.474,5.488A6.922,6.922,0,0,0,147.589,322.292Z" fill="none" stroke="#d01" stroke-miterlimit="10" stroke-width="25"/>
      <path id="Path_9841" data-name="Path 9841" d="M207.871,325.675a16.914,16.914,0,0,1-27.615,0q-5.122-7.146-5.123-20.4t5.088-20.125a17.294,17.294,0,0,1,27.65.07q5.158,6.938,5.158,20.055Q213.029,318.529,207.871,325.675Zm-16.562-3.383a4.994,4.994,0,0,0,5.4,0,7.472,7.472,0,0,0,2.175-2.693,17.287,17.287,0,0,0,1.544-5.488,62.342,62.342,0,0,0,.526-8.837,61,61,0,0,0-.526-8.733,15.988,15.988,0,0,0-1.544-5.351,6.928,6.928,0,0,0-2.175-2.52,5,5,0,0,0-2.7-.724,4.816,4.816,0,0,0-2.667.724,6.816,6.816,0,0,0-2.1,2.52,16.629,16.629,0,0,0-1.509,5.351,61,61,0,0,0-.526,8.733,62.342,62.342,0,0,0,.526,8.837A18.851,18.851,0,0,0,189.2,319.6,6.913,6.913,0,0,0,191.309,322.292Z" fill="none" stroke="#d01" stroke-miterlimit="10" stroke-width="25"/>
      <path id="Path_9842" data-name="Path 9842" d="M251.59,325.675a16.913,16.913,0,0,1-27.614,0q-5.122-7.146-5.123-20.4t5.088-20.125a17.293,17.293,0,0,1,27.649.07q5.159,6.938,5.159,20.055Q256.749,318.529,251.59,325.675Zm-16.561-3.383a4.994,4.994,0,0,0,5.4,0,7.472,7.472,0,0,0,2.175-2.693,17.286,17.286,0,0,0,1.544-5.488,62.491,62.491,0,0,0,.526-8.837,61.146,61.146,0,0,0-.526-8.733,15.988,15.988,0,0,0-1.544-5.351,6.928,6.928,0,0,0-2.175-2.52,5,5,0,0,0-2.7-.724,4.815,4.815,0,0,0-2.666.724,6.818,6.818,0,0,0-2.106,2.52,16.658,16.658,0,0,0-1.508,5.351,60.984,60.984,0,0,0-.527,8.733,62.325,62.325,0,0,0,.527,8.837,18.887,18.887,0,0,0,1.473,5.488A6.923,6.923,0,0,0,235.029,322.292Z" fill="none" stroke="#d01" stroke-miterlimit="10" stroke-width="25"/>
    </g>
    <g id="Group_2702" data-name="Group 2702" transform="translate(0.252 20.85)">
      <path id="Path_9843" data-name="Path 9843" d="M87.48,332.82q-9.334,0-15.369-4.556a3.51,3.51,0,0,1-1.473-2.831,1.112,1.112,0,0,1-.071-.345,4.729,4.729,0,0,1,.983-2.9l1.053-1.312a3.537,3.537,0,0,1,2.6-1.518h.562a4.3,4.3,0,0,1,2.456.759,14.426,14.426,0,0,0,7.93,2.554,10.266,10.266,0,0,0,6-1.553,5.111,5.111,0,0,0,2.21-4.453,6.073,6.073,0,0,0-2.035-4.9q-2.036-1.725-7.509-2.14a4.567,4.567,0,0,1-2.912-1.347,3.958,3.958,0,0,1-1.228-2.934v-.69a3.881,3.881,0,0,1,1.228-2.865,4.9,4.9,0,0,1,2.912-1.415q4.212-.553,6.036-2.244a5.791,5.791,0,0,0,1.824-4.453,5.406,5.406,0,0,0-1.544-4.142,6.433,6.433,0,0,0-4.561-1.45,11.666,11.666,0,0,0-6.246,1.933,4.738,4.738,0,0,1-2.6.759h-.562a4.112,4.112,0,0,1-2.737-1.45l-1.193-1.38a3.727,3.727,0,0,1-.982-2.555v-.483a3.4,3.4,0,0,1,1.614-2.554A24.211,24.211,0,0,1,87.2,278.28q8.421,0,13.369,3.763t4.948,10.735q0,8.077-8.492,11.53a.278.278,0,0,0,0,.483,15.156,15.156,0,0,1,7.4,4.626,12,12,0,0,1,2.772,8.077,13.247,13.247,0,0,1-2.737,8.319,16.3,16.3,0,0,1-7.158,5.281A26.829,26.829,0,0,1,87.48,332.82Z" fill="none" stroke="#fff" stroke-miterlimit="10" stroke-width="15"/>
      <path id="Path_9844" data-name="Path 9844" d="M120.256,324.052c.032-.254-.08-.38-.338-.38h-.1a5.5,5.5,0,0,1-3.67-1.307,4.745,4.745,0,0,1,.024-7.031,5.739,5.739,0,0,1,3.887-1.354,5.169,5.169,0,0,1,4.443,2.114,9.965,9.965,0,0,1,1.546,5.962,12.746,12.746,0,0,1-2.1,7.269,13.806,13.806,0,0,1-6.061,4.893,2.5,2.5,0,0,1-.917.191,2.275,2.275,0,0,1-1.015-.238,2.5,2.5,0,0,1-1.3-1.425,2.063,2.063,0,0,1-.194-.855,2.379,2.379,0,0,1,.242-1,2.927,2.927,0,0,1,1.352-1.425Q120.015,327.329,120.256,324.052Z" fill="none" stroke="#fff" stroke-miterlimit="10" stroke-width="15"/>
      <path id="Path_9845" data-name="Path 9845" d="M164.151,325.675a16.913,16.913,0,0,1-27.614,0q-5.124-7.146-5.123-20.4t5.087-20.125a17.294,17.294,0,0,1,27.65.07q5.158,6.938,5.158,20.055Q169.309,318.529,164.151,325.675Zm-16.562-3.383a4.994,4.994,0,0,0,5.4,0,7.451,7.451,0,0,0,2.175-2.693,17.287,17.287,0,0,0,1.544-5.488,62.325,62.325,0,0,0,.527-8.837,60.984,60.984,0,0,0-.527-8.733,15.988,15.988,0,0,0-1.544-5.351,6.909,6.909,0,0,0-2.175-2.52,5,5,0,0,0-2.7-.724,4.813,4.813,0,0,0-2.666.724,6.808,6.808,0,0,0-2.106,2.52,16.63,16.63,0,0,0-1.509,5.351,61.148,61.148,0,0,0-.526,8.733,62.493,62.493,0,0,0,.526,8.837,18.883,18.883,0,0,0,1.474,5.488A6.922,6.922,0,0,0,147.589,322.292Z" fill="none" stroke="#fff" stroke-miterlimit="10" stroke-width="15"/>
      <path id="Path_9846" data-name="Path 9846" d="M207.871,325.675a16.914,16.914,0,0,1-27.615,0q-5.122-7.146-5.123-20.4t5.088-20.125a17.294,17.294,0,0,1,27.65.07q5.158,6.938,5.158,20.055Q213.029,318.529,207.871,325.675Zm-16.562-3.383a4.994,4.994,0,0,0,5.4,0,7.472,7.472,0,0,0,2.175-2.693,17.287,17.287,0,0,0,1.544-5.488,62.342,62.342,0,0,0,.526-8.837,61,61,0,0,0-.526-8.733,15.988,15.988,0,0,0-1.544-5.351,6.928,6.928,0,0,0-2.175-2.52,5,5,0,0,0-2.7-.724,4.816,4.816,0,0,0-2.667.724,6.816,6.816,0,0,0-2.1,2.52,16.629,16.629,0,0,0-1.509,5.351,61,61,0,0,0-.526,8.733,62.342,62.342,0,0,0,.526,8.837A18.851,18.851,0,0,0,189.2,319.6,6.913,6.913,0,0,0,191.309,322.292Z" fill="none" stroke="#fff" stroke-miterlimit="10" stroke-width="15"/>
      <path id="Path_9847" data-name="Path 9847" d="M251.59,325.675a16.913,16.913,0,0,1-27.614,0q-5.122-7.146-5.123-20.4t5.088-20.125a17.293,17.293,0,0,1,27.649.07q5.159,6.938,5.159,20.055Q256.749,318.529,251.59,325.675Zm-16.561-3.383a4.994,4.994,0,0,0,5.4,0,7.472,7.472,0,0,0,2.175-2.693,17.286,17.286,0,0,0,1.544-5.488,62.491,62.491,0,0,0,.526-8.837,61.146,61.146,0,0,0-.526-8.733,15.988,15.988,0,0,0-1.544-5.351,6.928,6.928,0,0,0-2.175-2.52,5,5,0,0,0-2.7-.724,4.815,4.815,0,0,0-2.666.724,6.818,6.818,0,0,0-2.106,2.52,16.658,16.658,0,0,0-1.508,5.351,60.984,60.984,0,0,0-.527,8.733,62.325,62.325,0,0,0,.527,8.837,18.887,18.887,0,0,0,1.473,5.488A6.923,6.923,0,0,0,235.029,322.292Z" fill="none" stroke="#fff" stroke-miterlimit="10" stroke-width="15"/>
    </g>
    <g id="Group_2703" data-name="Group 2703" transform="translate(0.252 20.85)">
      <path id="Path_9848" data-name="Path 9848" d="M87.48,332.82q-9.334,0-15.369-4.556a3.51,3.51,0,0,1-1.473-2.831,1.112,1.112,0,0,1-.071-.345,4.729,4.729,0,0,1,.983-2.9l1.053-1.312a3.537,3.537,0,0,1,2.6-1.518h.562a4.3,4.3,0,0,1,2.456.759,14.426,14.426,0,0,0,7.93,2.554,10.266,10.266,0,0,0,6-1.553,5.111,5.111,0,0,0,2.21-4.453,6.073,6.073,0,0,0-2.035-4.9q-2.036-1.725-7.509-2.14a4.567,4.567,0,0,1-2.912-1.347,3.958,3.958,0,0,1-1.228-2.934v-.69a3.881,3.881,0,0,1,1.228-2.865,4.9,4.9,0,0,1,2.912-1.415q4.212-.553,6.036-2.244a5.791,5.791,0,0,0,1.824-4.453,5.406,5.406,0,0,0-1.544-4.142,6.433,6.433,0,0,0-4.561-1.45,11.666,11.666,0,0,0-6.246,1.933,4.738,4.738,0,0,1-2.6.759h-.562a4.112,4.112,0,0,1-2.737-1.45l-1.193-1.38a3.727,3.727,0,0,1-.982-2.555v-.483a3.4,3.4,0,0,1,1.614-2.554A24.211,24.211,0,0,1,87.2,278.28q8.421,0,13.369,3.763t4.948,10.735q0,8.077-8.492,11.53a.278.278,0,0,0,0,.483,15.156,15.156,0,0,1,7.4,4.626,12,12,0,0,1,2.772,8.077,13.247,13.247,0,0,1-2.737,8.319,16.3,16.3,0,0,1-7.158,5.281A26.829,26.829,0,0,1,87.48,332.82Z" fill="#b42b1f"/>
      <path id="Path_9849" data-name="Path 9849" d="M120.256,324.052c.032-.254-.08-.38-.338-.38h-.1a5.5,5.5,0,0,1-3.67-1.307,4.745,4.745,0,0,1,.024-7.031,5.739,5.739,0,0,1,3.887-1.354,5.169,5.169,0,0,1,4.443,2.114,9.965,9.965,0,0,1,1.546,5.962,12.746,12.746,0,0,1-2.1,7.269,13.806,13.806,0,0,1-6.061,4.893,2.5,2.5,0,0,1-.917.191,2.275,2.275,0,0,1-1.015-.238,2.5,2.5,0,0,1-1.3-1.425,2.063,2.063,0,0,1-.194-.855,2.379,2.379,0,0,1,.242-1,2.927,2.927,0,0,1,1.352-1.425Q120.015,327.329,120.256,324.052Z" fill="#b42b1f"/>
      <path id="Path_9850" data-name="Path 9850" d="M164.151,325.675a16.913,16.913,0,0,1-27.614,0q-5.124-7.146-5.123-20.4t5.087-20.125a17.294,17.294,0,0,1,27.65.07q5.158,6.938,5.158,20.055Q169.309,318.529,164.151,325.675Zm-16.562-3.383a4.994,4.994,0,0,0,5.4,0,7.451,7.451,0,0,0,2.175-2.693,17.287,17.287,0,0,0,1.544-5.488,62.325,62.325,0,0,0,.527-8.837,60.984,60.984,0,0,0-.527-8.733,15.988,15.988,0,0,0-1.544-5.351,6.909,6.909,0,0,0-2.175-2.52,5,5,0,0,0-2.7-.724,4.813,4.813,0,0,0-2.666.724,6.808,6.808,0,0,0-2.106,2.52,16.63,16.63,0,0,0-1.509,5.351,61.148,61.148,0,0,0-.526,8.733,62.493,62.493,0,0,0,.526,8.837,18.883,18.883,0,0,0,1.474,5.488A6.922,6.922,0,0,0,147.589,322.292Z" fill="#b42b1f"/>
      <path id="Path_9851" data-name="Path 9851" d="M207.871,325.675a16.914,16.914,0,0,1-27.615,0q-5.122-7.146-5.123-20.4t5.088-20.125a17.294,17.294,0,0,1,27.65.07q5.158,6.938,5.158,20.055Q213.029,318.529,207.871,325.675Zm-16.562-3.383a4.994,4.994,0,0,0,5.4,0,7.472,7.472,0,0,0,2.175-2.693,17.287,17.287,0,0,0,1.544-5.488,62.342,62.342,0,0,0,.526-8.837,61,61,0,0,0-.526-8.733,15.988,15.988,0,0,0-1.544-5.351,6.928,6.928,0,0,0-2.175-2.52,5,5,0,0,0-2.7-.724,4.816,4.816,0,0,0-2.667.724,6.816,6.816,0,0,0-2.1,2.52,16.629,16.629,0,0,0-1.509,5.351,61,61,0,0,0-.526,8.733,62.342,62.342,0,0,0,.526,8.837A18.851,18.851,0,0,0,189.2,319.6,6.913,6.913,0,0,0,191.309,322.292Z" fill="#b42b1f"/>
      <path id="Path_9852" data-name="Path 9852" d="M251.59,325.675a16.913,16.913,0,0,1-27.614,0q-5.122-7.146-5.123-20.4t5.088-20.125a17.293,17.293,0,0,1,27.649.07q5.159,6.938,5.159,20.055Q256.749,318.529,251.59,325.675Zm-16.561-3.383a4.994,4.994,0,0,0,5.4,0,7.472,7.472,0,0,0,2.175-2.693,17.286,17.286,0,0,0,1.544-5.488,62.491,62.491,0,0,0,.526-8.837,61.146,61.146,0,0,0-.526-8.733,15.988,15.988,0,0,0-1.544-5.351,6.928,6.928,0,0,0-2.175-2.52,5,5,0,0,0-2.7-.724,4.815,4.815,0,0,0-2.666.724,6.818,6.818,0,0,0-2.106,2.52,16.658,16.658,0,0,0-1.508,5.351,60.984,60.984,0,0,0-.527,8.733,62.325,62.325,0,0,0,.527,8.837,18.887,18.887,0,0,0,1.473,5.488A6.923,6.923,0,0,0,235.029,322.292Z" fill="#b42b1f"/>
    </g>
    <g id="Group_2705" data-name="Group 2705" transform="translate(0.252 20.85)">
      <path id="Path_9853" data-name="Path 9853" d="M295.979,315.782a1.687,1.687,0,0,1,1.247.511,1.666,1.666,0,0,1,.5,1.211v19.94a6.986,6.986,0,0,1-.4,2.642,2.913,2.913,0,0,1-1.439,1.474,10.457,10.457,0,0,1-4.244.789h-.059a1.948,1.948,0,0,1-1.276-.468,2.462,2.462,0,0,1-.832-1.2q-.177-.557-.415-1.11a1.019,1.019,0,0,1-.089-.408,1.04,1.04,0,0,1,.208-.614.957.957,0,0,1,.86-.467h.03q.5.03,2.4.029a.935.935,0,0,0,.623-.16.744.744,0,0,0,.178-.57v-5.926a.208.208,0,0,0-.237-.233h-16.8a.208.208,0,0,0-.238.233V340.6a1.651,1.651,0,0,1-.505,1.226,1.707,1.707,0,0,1-1.246.5h-.92a1.7,1.7,0,0,1-1.246-.5,1.651,1.651,0,0,1-.505-1.226V317.5a1.663,1.663,0,0,1,.505-1.211,1.683,1.683,0,0,1,1.246-.511Zm-19.733,4.291a.208.208,0,0,0-.238.234V326.7a.208.208,0,0,0,.238.233H282c.139,0,.208-.078.208-.233v-6.394c0-.156-.069-.234-.208-.234Zm10.386,6.628c0,.155.069.233.207.233h6.2a.208.208,0,0,0,.237-.233v-6.394a.208.208,0,0,0-.237-.234h-6.2q-.207,0-.207.234Z" fill="none" stroke="#d01" stroke-miterlimit="10" stroke-width="13"/>
    </g>
    <g id="Group_2706" data-name="Group 2706" transform="translate(0.252 20.85)">
      <path id="Path_9854" data-name="Path 9854" d="M295.979,315.782a1.687,1.687,0,0,1,1.247.511,1.666,1.666,0,0,1,.5,1.211v19.94a6.986,6.986,0,0,1-.4,2.642,2.913,2.913,0,0,1-1.439,1.474,10.457,10.457,0,0,1-4.244.789h-.059a1.948,1.948,0,0,1-1.276-.468,2.462,2.462,0,0,1-.832-1.2q-.177-.557-.415-1.11a1.019,1.019,0,0,1-.089-.408,1.04,1.04,0,0,1,.208-.614.957.957,0,0,1,.86-.467h.03q.5.03,2.4.029a.935.935,0,0,0,.623-.16.744.744,0,0,0,.178-.57v-5.926a.208.208,0,0,0-.237-.233h-16.8a.208.208,0,0,0-.238.233V340.6a1.651,1.651,0,0,1-.505,1.226,1.707,1.707,0,0,1-1.246.5h-.92a1.7,1.7,0,0,1-1.246-.5,1.651,1.651,0,0,1-.505-1.226V317.5a1.663,1.663,0,0,1,.505-1.211,1.683,1.683,0,0,1,1.246-.511Zm-19.733,4.291a.208.208,0,0,0-.238.234V326.7a.208.208,0,0,0,.238.233H282c.139,0,.208-.078.208-.233v-6.394c0-.156-.069-.234-.208-.234Zm10.386,6.628c0,.155.069.233.207.233h6.2a.208.208,0,0,0,.237-.233v-6.394a.208.208,0,0,0-.237-.234h-6.2q-.207,0-.207.234Z" fill="none" stroke="#fff" stroke-miterlimit="10" stroke-width="7"/>
    </g>
    <g id="Group_2707" data-name="Group 2707" transform="translate(0.252 20.85)">
      <path id="Path_9855" data-name="Path 9855" d="M295.979,315.782a1.687,1.687,0,0,1,1.247.511,1.666,1.666,0,0,1,.5,1.211v19.94a6.986,6.986,0,0,1-.4,2.642,2.913,2.913,0,0,1-1.439,1.474,10.457,10.457,0,0,1-4.244.789h-.059a1.948,1.948,0,0,1-1.276-.468,2.462,2.462,0,0,1-.832-1.2q-.177-.557-.415-1.11a1.019,1.019,0,0,1-.089-.408,1.04,1.04,0,0,1,.208-.614.957.957,0,0,1,.86-.467h.03q.5.03,2.4.029a.935.935,0,0,0,.623-.16.744.744,0,0,0,.178-.57v-5.926a.208.208,0,0,0-.237-.233h-16.8a.208.208,0,0,0-.238.233V340.6a1.651,1.651,0,0,1-.505,1.226,1.707,1.707,0,0,1-1.246.5h-.92a1.7,1.7,0,0,1-1.246-.5,1.651,1.651,0,0,1-.505-1.226V317.5a1.663,1.663,0,0,1,.505-1.211,1.683,1.683,0,0,1,1.246-.511Zm-19.733,4.291a.208.208,0,0,0-.238.234V326.7a.208.208,0,0,0,.238.233H282c.139,0,.208-.078.208-.233v-6.394c0-.156-.069-.234-.208-.234Zm10.386,6.628c0,.155.069.233.207.233h6.2a.208.208,0,0,0,.237-.233v-6.394a.208.208,0,0,0-.237-.234h-6.2q-.207,0-.207.234Z" fill="#b42b1f"/>
    </g>
    <g id="Group_2714" data-name="Group 2714" transform="translate(0.252 20.85)">
      <path id="Path_9874" data-name="Path 9874" d="M116.665,134.9a1.177,1.177,0,0,1,.15-.916,1.124,1.124,0,0,1,.6-.55.355.355,0,0,1,.117-.025l.828-.244a.969.969,0,0,1,.819.113,1.136,1.136,0,0,1,.443.545,1.162,1.162,0,0,1,.056.2,5.491,5.491,0,0,0,.225.739,1.691,1.691,0,0,0,1.348,1.065,5.431,5.431,0,0,0,2.748-.444,35.327,35.327,0,0,0,5.278-2.39.945.945,0,0,1,.175-.078.819.819,0,0,1,.61.04.924.924,0,0,1,.55.612q.171.541.341,1.083a1.549,1.549,0,0,1,0,.98,1.184,1.184,0,0,1-.577.695,39.526,39.526,0,0,1-5.1,2.221,9.25,9.25,0,0,1-5.158.691,4.028,4.028,0,0,1-2.874-2.55A12.052,12.052,0,0,1,116.665,134.9Zm7.843-13.813a.908.908,0,0,1-.257-.385,1.221,1.221,0,0,1-.056-.3.8.8,0,0,1,.327-.662,1.151,1.151,0,0,1,.422-.243,1.222,1.222,0,0,1,.393-.062,1.15,1.15,0,0,1,.809.295q.4.364.853.795a.914.914,0,0,1,.25.39,1.079,1.079,0,0,1,.043.347.913.913,0,0,1-.355.706c-.156.134-.313.269-.468.4a.544.544,0,0,1-.339.108.507.507,0,0,1-.336-.147.018.018,0,0,0-.013.025l.28.868a1.273,1.273,0,0,1-.054.945,1.249,1.249,0,0,1-.673.658c-1.643.658-3.174,1.252-4.6,1.771q-2.023.737-4.258,1.445a1.179,1.179,0,0,1-.936-.053,1.263,1.263,0,0,1-.649-.689l-.342-.845a1.036,1.036,0,0,1,.039-.891,1.127,1.127,0,0,1,.6-.545l.077-.031c1.273-.4,2.709-.9,4.316-1.489q2.448-.892,5.14-2.015a.082.082,0,0,0,.062-.074.108.108,0,0,0-.029-.087C124.672,121.244,124.589,121.164,124.508,121.091Zm2.182-1.762a.817.817,0,0,1-.271-.383,1.009,1.009,0,0,1-.045-.283.855.855,0,0,1,.334-.676,1.39,1.39,0,0,1,.433-.218,1.322,1.322,0,0,1,1.224.244q.411.364.837.788a.908.908,0,0,1,.244.393.893.893,0,0,1,.032.328.988.988,0,0,1-.343.715,1.317,1.317,0,0,1-.407.207,1.25,1.25,0,0,1-.39.054,1.156,1.156,0,0,1-.767-.338Q127.111,119.708,126.69,119.329Z" fill="#fefefe"/>
      <path id="Path_9875" data-name="Path 9875" d="M143.51,128.22a1.146,1.146,0,0,1,.594.68c.011.053.021.1.03.139a1.187,1.187,0,0,1-.084.765c-.042.1-.084.2-.127.3a.867.867,0,0,1-.615.51l-.018,0a.885.885,0,0,1-.747-.163,1.882,1.882,0,0,1-.187-.144.055.055,0,0,0-.058,0,.049.049,0,0,0-.025.058l.579,2.509a1.228,1.228,0,0,1-.112.9,1,1,0,0,1-.67.512l-.463.111a1.015,1.015,0,0,1-.821-.154,1.208,1.208,0,0,1-.518-.749q-.252-1.013-.505-2.026-.009-.039-.039-.042a.077.077,0,0,0-.061.026,14.133,14.133,0,0,1-.691,1.6.88.88,0,0,1-.57.462.284.284,0,0,1-.095,0,1.047,1.047,0,0,1-.8-.206l-.4-.29a1.061,1.061,0,0,1-.438-.617,1.093,1.093,0,0,1,.109-.89,13.752,13.752,0,0,0,1.557-3.278.071.071,0,0,0-.013-.091.082.082,0,0,0-.078-.032q-.705.178-1.41.364a1.082,1.082,0,0,1-.859-.127,1.177,1.177,0,0,1-.547-.735l-.032-.117a1.17,1.17,0,0,1,.108-.9,1.078,1.078,0,0,1,.689-.551q.97-.255,1.943-.5c.1-.025.139-.083.116-.175-.078-.315-.157-.629-.235-.944-.023-.092-.085-.125-.187-.1q-1.008.252-2.014.518a1.093,1.093,0,0,1-.89-.13,1.185,1.185,0,0,1-.543-.725l-.016-.058a1.17,1.17,0,0,1,.106-.9,1.1,1.1,0,0,1,.716-.559l.309-.081c.1-.027.136-.084.1-.173a6.266,6.266,0,0,0-.369-.7,1.037,1.037,0,0,1-.111-.265.967.967,0,0,1,0-.481.861.861,0,0,1,.435-.574c.012,0,.018-.008.016-.015s-.008-.008-.021,0l-.665.173a1.218,1.218,0,0,1-1.463-.849l-.01-.039a1.132,1.132,0,0,1,.123-.915,1.179,1.179,0,0,1,.733-.551q.93-.245,1.864-.478a.144.144,0,0,0,.12-.2l-.1-.393a1.128,1.128,0,0,1,.144-.913,1.194,1.194,0,0,1,.751-.539l.523-.125a1.181,1.181,0,0,1,.923.137,1.142,1.142,0,0,1,.532.75l.092.395a.143.143,0,0,0,.2.121q.936-.215,1.874-.419a1.176,1.176,0,0,1,1.426.918l.008.04a1.17,1.17,0,0,1-.163.894,1.134,1.134,0,0,1-.753.525l-.374.082.005.02a.556.556,0,0,1,.5.212.629.629,0,0,1,.137.54c-.125.678-.2,1.069-.234,1.172a.108.108,0,0,0,.032.1.1.1,0,0,0,.1.021l.408-.089a1.1,1.1,0,0,1,.89.172,1.17,1.17,0,0,1,.5.754l.013.059a1.194,1.194,0,0,1-.154.892,1.091,1.091,0,0,1-.731.52q-.957.207-1.911.427c-.1.023-.143.081-.121.174l.218.948c.022.092.082.126.184.1q.854-.2,1.707-.383a1.07,1.07,0,0,1,.862.178,1.174,1.174,0,0,1,.506.752l.025.119a1.175,1.175,0,0,1-.153.9,1.082,1.082,0,0,1-.7.505q-.906.2-1.81.406c-.013,0-.019.008-.017.014s.01.015.026.026C141.981,127.49,142.623,127.779,143.51,128.22Zm-4.084-8.845a.091.091,0,0,0-.043-.094.115.115,0,0,0-.087-.021q-1.1.256-2.2.528a.1.1,0,0,0-.063.162c.189.259.365.529.531.809a.772.772,0,0,1,.1.226.713.713,0,0,1-.039.427.883.883,0,0,1-.405.519c-.013,0-.012.01.005.019q1.573-.393,3.154-.756l0-.02a.919.919,0,0,1-.731-.33.9.9,0,0,1-.247-.442.909.909,0,0,1-.015-.33C139.4,119.817,139.42,119.585,139.426,119.375Zm6.974-1.755a.16.16,0,0,0-.1.206l.4,2.131c.017.093.078.13.182.111q2.338-.439,4.685-.808a1.089,1.089,0,0,1,.875.223,1.178,1.178,0,0,1,.457.782l.061.4a1.194,1.194,0,0,1-.2.881,1.078,1.078,0,0,1-.754.476l-.385.061c-.1.017-.146.072-.131.165l1.383,8.587a1.229,1.229,0,0,1-.172.89,1,1,0,0,1-.7.466l-.468.079a1,1,0,0,1-.806-.209,1.212,1.212,0,0,1-.466-.782q-.765-4.281-1.532-8.562c-.017-.092-.076-.13-.178-.112q-.576.1-1.15.212c-.1.019-.144.075-.127.168.632,3.856.45,6.967-.464,9.345a.723.723,0,0,1-.538.483l-.036.008a.968.968,0,0,1-.758-.213c-.16-.1-.322-.215-.486-.332a1.2,1.2,0,0,1-.542-.671,1.1,1.1,0,0,1-.062-.194,1.318,1.318,0,0,1,.04-.693,10.172,10.172,0,0,0,.532-3.751,26.875,26.875,0,0,0-.556-4.305l-1.224-5.937a.826.826,0,0,1,.216-.768.81.81,0,0,1,.48-.3.976.976,0,0,1,.269-.012l.36.032a.523.523,0,0,0,.28-.055,32.908,32.908,0,0,0,3.552-1.971,2.013,2.013,0,0,1,.744-.29,1.589,1.589,0,0,1,.267-.023,1.754,1.754,0,0,1,1,.269q.371.239.738.478a.71.71,0,0,1,.326.5l.021.14a.7.7,0,0,1-.374.633A43.852,43.852,0,0,1,146.4,117.62Z" fill="#fefefe"/>
      <path id="Path_9876" data-name="Path 9876" d="M164.273,124.5a1.429,1.429,0,0,1,.353.846,1.389,1.389,0,0,1-.245.935l-.338.456a.759.759,0,0,1-.57.334l-.093.008a.926.926,0,0,1-.69-.365q-.45-.609-1.079-1.4a.054.054,0,0,0-.069-.023c-.031.01-.045.028-.042.055a12.054,12.054,0,0,1-1.7,4.749.845.845,0,0,1-.6.377l-.091.01a1.04,1.04,0,0,1-.777-.313l-.42-.4a1.108,1.108,0,0,1-.391-.727,1.2,1.2,0,0,1,.192-.842,10.413,10.413,0,0,0,1.308-5.956q0-.143-.15-.126-.633.074-1.266.15a1.065,1.065,0,0,1-.85-.251,1.2,1.2,0,0,1-.435-.792l-.042-.322a1.174,1.174,0,0,1,.221-.887,1.094,1.094,0,0,1,.775-.444q.7-.087,1.4-.166c.091-.011.13-.069.118-.177q-.1-.925-.209-1.853c-.012-.108-.065-.156-.157-.145q-.573.064-1.146.134a1.13,1.13,0,0,1-.865-.251,1.159,1.159,0,0,1-.453-.791l-.031-.241a1.2,1.2,0,0,1,1.032-1.334q.583-.07,1.166-.136a.125.125,0,0,0,.124-.157l-.168-1.491a1.129,1.129,0,0,1,.261-.886,1.186,1.186,0,0,1,.811-.435l.429-.044a1.173,1.173,0,0,1,.893.256,1.147,1.147,0,0,1,.428.814l.144,1.494q.014.141.174.126c.356-.034.711-.067,1.067-.1a1.122,1.122,0,0,1,.875.281,1.161,1.161,0,0,1,.41.81l.02.243a1.179,1.179,0,0,1-.27.866,1.114,1.114,0,0,1-.8.425q-.526.047-1.051.1a.142.142,0,0,0-.143.176q.09.929.179,1.857a.14.14,0,0,0,.171.146q.645-.062,1.291-.117a1.089,1.089,0,0,1,.849.274,1.175,1.175,0,0,1,.4.822l.026.323a1.2,1.2,0,0,1-.261.866,1.066,1.066,0,0,1-.779.421q-.722.063-1.441.132a.077.077,0,0,0-.081.079.11.11,0,0,0,.06.106C162.254,122.433,163.107,123.261,164.273,124.5Zm8.061,2.774.334-.01c.1,0,.17-.078.216-.229a4.308,4.308,0,0,0,.087-.935.7.7,0,0,1,.657-.685.746.746,0,0,1,.321.074,2.761,2.761,0,0,0,.265.117,1.68,1.68,0,0,1,.74.616,1.379,1.379,0,0,1,.214.707,1.413,1.413,0,0,1-.016.224,4.23,4.23,0,0,1-.688,2.078,1.83,1.83,0,0,1-1.431.6l-1.094.033a2.049,2.049,0,0,1-1.845-.616,5.033,5.033,0,0,1-.572-2.51q-.072-1.488-.145-2.977c-.006-.108-.053-.159-.141-.155l-.323.016c-.089.005-.137.062-.144.17a14.075,14.075,0,0,1-.218,1.911,9.194,9.194,0,0,1-.495,1.662,5.587,5.587,0,0,1-.932,1.541,6.794,6.794,0,0,1-1.47,1.282,1.037,1.037,0,0,1-.464.158,1.184,1.184,0,0,1-.368-.031,1.343,1.343,0,0,1-.725-.55c-.082-.1-.165-.2-.248-.305a.921.921,0,0,1-.21-.51,1.5,1.5,0,0,1,0-.224.834.834,0,0,1,.392-.624,4.152,4.152,0,0,0,1.589-1.743,7.258,7.258,0,0,0,.515-2.426c-.007-.094-.048-.139-.124-.133a.891.891,0,0,1-.675-.236.976.976,0,0,1-.329-.687l-.765-10.026a1.14,1.14,0,0,1,.293-.866,1.162,1.162,0,0,1,.822-.415q3.557-.245,7.12-.342a1.152,1.152,0,0,1,.868.334,1.165,1.165,0,0,1,.364.834l.2,9.851a1.2,1.2,0,0,1-.306.858,1.061,1.061,0,0,1-.791.364l-.684.02c-.089,0-.131.058-.127.166q.047,1.47.094,2.938a2.629,2.629,0,0,0,.056.577A.172.172,0,0,0,172.334,127.269ZM167.269,114.1a.143.143,0,0,0-.151.172c.008.142.017.283.025.425,0,.1.062.138.169.132q1.7-.1,3.409-.165c.106,0,.159-.053.155-.148l-.016-.425a.144.144,0,0,0-.167-.157Q168.98,114,167.269,114.1Zm.182,3.1c-.106.006-.155.056-.15.151l.027.445a.142.142,0,0,0,.167.153q1.671-.1,3.345-.162a.141.141,0,0,0,.151-.168l-.016-.446c0-.094-.059-.14-.164-.136Q169.131,117.1,167.451,117.2Zm.18,3.076a.141.141,0,0,0-.145.171l.027.446q.008.141.162.132,1.641-.1,3.282-.159.154-.006.15-.147l-.017-.446c0-.108-.058-.16-.161-.156Q169.279,120.178,167.631,120.276Z" fill="#fefefe"/>
      <path id="Path_9877" data-name="Path 9877" d="M184.683,120.889a1.826,1.826,0,0,1,.2.964,1.849,1.849,0,0,1-.355,1.018l-.123.177a.577.577,0,0,1-.508.261.167.167,0,0,1-.075-.023.605.605,0,0,1-.5-.406c-.068-.206-.161-.459-.278-.762-.011-.027-.024-.037-.037-.031a.034.034,0,0,0-.02.029q-.129,3.5-.26,6.99a1.21,1.21,0,0,1-.35.839,1,1,0,0,1-.767.32l-.291-.009a.994.994,0,0,1-.756-.363,1.234,1.234,0,0,1-.291-.859l.114-5.432c0-.013-.009-.024-.028-.031s-.028,0-.028.01a18.754,18.754,0,0,1-.848,2.012.469.469,0,0,1-.435.3h-.075a.58.58,0,0,1-.464-.37c-.073-.176-.154-.352-.24-.529a2.3,2.3,0,0,1-.22-.974,2.352,2.352,0,0,1,.293-1.093,22.517,22.517,0,0,0,1.934-5.285c.015-.1-.024-.143-.116-.145l-.729-.012a1.11,1.11,0,0,1-.815-.365,1.164,1.164,0,0,1-.339-.844l0-.405a1.15,1.15,0,0,1,.356-.838,1.118,1.118,0,0,1,.835-.345c.314,0,.629.01.943.016.107,0,.162-.044.164-.138l.06-2.859a1.193,1.193,0,0,1,1.237-1.165l.329.009a1.167,1.167,0,0,1,.841.382,1.145,1.145,0,0,1,.328.854q-.054,1.428-.107,2.857a.125.125,0,0,0,.135.147l.562.022a1.124,1.124,0,0,1,.815.391,1.153,1.153,0,0,1,.309.857c-.007.135-.013.27-.02.4a1.171,1.171,0,0,1-.386.824,1.11,1.11,0,0,1-.834.318l-.552-.022a.124.124,0,0,0-.143.137l-.015.385a.482.482,0,0,0,.069.266C183.507,118.843,184.005,119.68,184.683,120.889Zm8.925,1.652a1.216,1.216,0,0,1,.832-.36.856.856,0,0,1,.175,0,1.21,1.21,0,0,1,.665.3l.261.255a.962.962,0,0,1,.306.852.933.933,0,0,1-.387.669q-.867.675-1.625,1.205c-.083.059-.1.126-.04.2a8.425,8.425,0,0,0,1.515,1.641.931.931,0,0,1,.33.692,1.065,1.065,0,0,1-.005.2.967.967,0,0,1-.253.541q-.235.258-.452.518a1.17,1.17,0,0,1-.772.421.633.633,0,0,1-.224.017.836.836,0,0,1-.524-.282,9.537,9.537,0,0,1-1.673-2.432c-.011-.028-.025-.04-.044-.034s-.03.02-.033.048c-.032.343-.065.686-.1,1.029a5.1,5.1,0,0,1-.328,1.517,1.653,1.653,0,0,1-.754.806,3.887,3.887,0,0,1-1.746.323l-.072-.006a1.052,1.052,0,0,1-.705-.357,1.52,1.52,0,0,1-.415-.863,8.576,8.576,0,0,0-.334-1.343q-.045-.146-.162-.072-.613.327-1.07.564a.949.949,0,0,1-.832.035,1.04,1.04,0,0,1-.6-.619c-.055-.138-.11-.276-.166-.414a1.178,1.178,0,0,1-.088-.491,1.322,1.322,0,0,1,.074-.382,1.066,1.066,0,0,1,.592-.641c.588-.255,1.389-.617,2.416-1.077a.928.928,0,0,1,.421-.074.969.969,0,0,1,.371.107.956.956,0,0,1,.478.686l.046.145a1.79,1.79,0,0,1,.022.449,1.54,1.54,0,0,1-.132.519,1.3,1.3,0,0,1-.648.705q-.213.108-.619.343-.037,0-.03.039a.046.046,0,0,0,.044.044q.5.053,1.253.109a.283.283,0,0,0,.339-.3l.507-6.57a.139.139,0,0,0-.141-.173q-1.593-.122-3.188-.211a1.1,1.1,0,0,1-.784-.387,1.176,1.176,0,0,1-.3-.868l0-.041a1.167,1.167,0,0,1,.384-.823,1.09,1.09,0,0,1,.832-.31q1.618.09,3.236.214c.1.008.16-.035.167-.129l.016-.2c.007-.094-.042-.145-.146-.153q-1.219-.093-2.438-.168a1.034,1.034,0,0,1-.749-.369,1.141,1.141,0,0,1,.089-1.578,1.042,1.042,0,0,1,.8-.278q1.236.075,2.471.169c.106.009.163-.034.17-.129l.013-.162c.007-.094-.043-.145-.149-.154q-1.469-.111-2.938-.2a1.087,1.087,0,0,1-.791-.39,1.158,1.158,0,0,1-.288-.847,1.146,1.146,0,0,1,.377-.813,1.091,1.091,0,0,1,.839-.3l.507.03a.1.1,0,0,0,.094-.034.106.106,0,0,0,.016-.1.532.532,0,0,0-.053-.125,1.062,1.062,0,0,1-.074-.451,1,1,0,0,1,.128-.419.912.912,0,0,1,.649-.528l.1-.034a1.563,1.563,0,0,1,.5-.047,1.311,1.311,0,0,1,.5.137,1.238,1.238,0,0,1,.709.683,5.887,5.887,0,0,1,.353.983.209.209,0,0,0,.192.157q1.023.083,2.044.177a.223.223,0,0,0,.236-.121q.222-.406.452-.873a1.249,1.249,0,0,1,.681-.647,1.228,1.228,0,0,1,.652-.117,1.04,1.04,0,0,1,.282.07c.227.072.454.143.68.216a.851.851,0,0,1,.536.569.925.925,0,0,1,.024.329.825.825,0,0,1-.192.427,3.564,3.564,0,0,0-.263.338.084.084,0,0,0-.009.081.064.064,0,0,0,.057.047l.262.029a1.175,1.175,0,0,1,.593,2.089,1.121,1.121,0,0,1-.857.248q-1.425-.16-2.851-.3a.125.125,0,0,0-.153.128l-.015.162a.124.124,0,0,0,.125.154q1.254.12,2.507.259a1.023,1.023,0,0,1,.717.407,1.081,1.081,0,0,1,.225.822,1.1,1.1,0,0,1-.406.749,1.021,1.021,0,0,1-.782.238q-1.236-.136-2.472-.255a.124.124,0,0,0-.151.128l-.019.2a.123.123,0,0,0,.123.154q1.6.153,3.188.336a1.085,1.085,0,0,1,.778.449,1.181,1.181,0,0,1,.229.876l-.005.04a1.187,1.187,0,0,1-.431.805,1.089,1.089,0,0,1-.849.247q-1.569-.18-3.141-.33c-.09-.009-.14.04-.15.148l-.038.4a.79.79,0,0,0,.029.308q.188.669.37,1.156c.042.1.1.111.17.037Q193.157,122.963,193.608,122.541Zm-5.311.146a1.082,1.082,0,0,1,.181.684,1.54,1.54,0,0,1-.035.221,1.226,1.226,0,0,1-.528.734l-.2.109a.923.923,0,0,1-.58.165,1.675,1.675,0,0,1-.244-.036,1.129,1.129,0,0,1-.669-.548q-.189-.336-.437-.695a1.1,1.1,0,0,1-.192-.68.689.689,0,0,1,.028-.161,1,1,0,0,1,.482-.725l.04-.018a1.194,1.194,0,0,1,.745-.2.959.959,0,0,1,.171.031,1.149,1.149,0,0,1,.779.478C188.006,122.273,188.157,122.487,188.3,122.687Z" fill="#fefefe"/>
      <path id="Path_9878" data-name="Path 9878" d="M206.743,113.974a.731.731,0,0,1,.229,0,.867.867,0,0,1,.439.223c.206.168.412.336.616.505a1.512,1.512,0,0,1,.528.842,1.73,1.73,0,0,1-.01.6,1.382,1.382,0,0,1-.135.387c-.942,1.913-1.66,3.334-2.175,4.256a.326.326,0,0,0,.007.29,6.623,6.623,0,0,1,.473,4.15,3.54,3.54,0,0,1-1.508,2.688,2.71,2.71,0,0,1-1.234.273.671.671,0,0,1-.17-.009.341.341,0,0,1-.115,0,.931.931,0,0,1-.614-.415,1.552,1.552,0,0,1-.306-.914,7.438,7.438,0,0,0-.078-.918.017.017,0,0,0-.016-.022c-.013,0-.02,0-.022.016q-.421,2.561-.844,5.121a1.207,1.207,0,0,1-.454.789,1,1,0,0,1-.8.22l-.361-.056a.994.994,0,0,1-.706-.456,1.225,1.225,0,0,1-.182-.888q1.2-8.133,2.4-16.265a1.146,1.146,0,0,1,.468-.792,1.171,1.171,0,0,1,.9-.211q1.784.276,3.563.591A.312.312,0,0,0,206.743,113.974Zm-2.363,2.331a.124.124,0,0,0-.162.116q-.725,4.392-1.447,8.782a.122.122,0,0,0,.109.162l.338.056a.85.85,0,0,0,.554-.07q.344-.187.482-.987a5.243,5.243,0,0,0-.165-2.476,3.593,3.593,0,0,1-.144-1.628,2.776,2.776,0,0,1,.152-.55q.568-1.363,1.235-3.1c.029-.091,0-.144-.1-.16C204.951,116.4,204.666,116.352,204.38,116.305Zm11.318,9.831c-.013,0-.025,0-.036.023a.045.045,0,0,0,0,.051q.453.542.9,1.085a.994.994,0,0,1-.262,1.482q-.885.527-1.715.968a.146.146,0,0,0-.072.212,7.339,7.339,0,0,0,1.206,1.979,1,1,0,0,1,.229.751c-.017.065-.032.124-.046.176a1.1,1.1,0,0,1-.333.541,7.908,7.908,0,0,0-.611.513,1.244,1.244,0,0,1-.813.357.855.855,0,0,1-.259-.023.882.882,0,0,1-.487-.33,9.391,9.391,0,0,1-1.683-3.683,21.428,21.428,0,0,1-.46-5,.169.169,0,0,0-.14-.175l-.719-.155c-.088-.019-.144.025-.166.13l-.931,4.383c-.022.106.012.155.1.146.228.008.577.02,1.048.041a.846.846,0,0,1,.188.021.924.924,0,0,1,.552.372,1.041,1.041,0,0,1,.213.839l-.031.221-.032.139a1.416,1.416,0,0,1-.411.717,1.253,1.253,0,0,1-.842.372c-1.117.029-2.463.068-4.032.134a1.839,1.839,0,0,1-.274-.033,1.109,1.109,0,0,1-.543-.289,1.239,1.239,0,0,1-.408-.819c-.025-.232-.052-.463-.078-.7a1.006,1.006,0,0,1,0-.329.954.954,0,0,1,.238-.471.838.838,0,0,1,.708-.342c.264.008.492.017.68.026a.144.144,0,0,0,.159-.134l2.646-13.633a1.131,1.131,0,0,1,.515-.767,1.176,1.176,0,0,1,.9-.172q3.726.75,7.424,1.67a1.19,1.19,0,0,1,.745.542,1.133,1.133,0,0,1,.137.914q-.954,3.722-1.907,7.443a1.087,1.087,0,0,1-.493.67A1.015,1.015,0,0,1,215.7,126.136Zm-.076-7.487a.125.125,0,0,0-.106-.171q-1.785-.423-3.576-.8a.126.126,0,0,0-.169.109l-.177.833c-.022.106.012.169.105.188q1.779.379,3.551.8c.092.022.15-.019.175-.125C215.491,119.2,215.556,118.925,215.622,118.649Zm-4.431,2.534a.124.124,0,0,0-.165.11l-.2.932a.124.124,0,0,0,.1.168q1.74.371,3.474.78a.123.123,0,0,0,.167-.106q.109-.463.22-.927a.124.124,0,0,0-.1-.17Q212.945,121.557,211.191,121.183Zm4.2,5a.089.089,0,0,0,.02-.078.062.062,0,0,0-.047-.054q-.762-.187-1.525-.368a.117.117,0,0,0-.106.027.082.082,0,0,0-.04.084,10.774,10.774,0,0,0,.132,1.448c.015.1.063.119.144.055Q214.726,126.752,215.386,126.184Z" fill="#fefefe"/>
      <path id="Path_9879" data-name="Path 9879" d="M230.379,133.869a.121.121,0,0,0-.174.088q-.361,1-.722,2c-.037.1-.014.167.068.2a14.374,14.374,0,0,0,1.424.61c1.967.735,3.446,1.316,4.449,1.7l.017.007a.64.64,0,0,1,.4.516.951.951,0,0,1-.058.437.935.935,0,0,1-.168.259q-.277.324-.543.675a1.74,1.74,0,0,1-.8.571,1.25,1.25,0,0,1-.9-.013q-1.789-.717-3.592-1.389a14.039,14.039,0,0,1-3.973-2.112,6.3,6.3,0,0,1-2.054-3.287.085.085,0,0,0-.071-.055.088.088,0,0,0-.078.028,10.866,10.866,0,0,1-2.247,2.019.917.917,0,0,1-.812.136l-.017-.006a1.17,1.17,0,0,1-.68-.561q-.2-.355-.414-.691a.938.938,0,0,1-.113-.813,1.032,1.032,0,0,1,.471-.624,11.4,11.4,0,0,0,3.917-5.011,1.179,1.179,0,0,1,.648-.649,1.03,1.03,0,0,1,.775-.056.343.343,0,0,1,.106.054l.69.283a1.112,1.112,0,0,1,.608.664,1.066,1.066,0,0,1,.015.709,1.091,1.091,0,0,1-.081.186q-.294.588-.6,1.1a.729.729,0,0,0-.069.276,5.522,5.522,0,0,0,1.049,3.082.063.063,0,0,0,.075.015.087.087,0,0,0,.058-.055l2-5.874a.124.124,0,0,0-.085-.179q-1.233-.417-2.471-.814a1.1,1.1,0,0,1-.681-.59,1.181,1.181,0,0,1-.069-.9l.139-.445a1.16,1.16,0,0,1,.579-.71,1.122,1.122,0,0,1,.9-.074q4.1,1.315,8.153,2.853a1.135,1.135,0,0,1,.665.624,1.159,1.159,0,0,1,.011.917l-.169.434a1.177,1.177,0,0,1-.618.663,1.108,1.108,0,0,1-.9.034q-1.184-.448-2.373-.88a.124.124,0,0,0-.178.087l-.62,1.716a.124.124,0,0,0,.08.18q1.853.671,3.691,1.388a1.072,1.072,0,0,1,.634.63,1.189,1.189,0,0,1,0,.9l-.165.414a1.2,1.2,0,0,1-.615.661,1.06,1.06,0,0,1-.881.035Q232.2,134.527,230.379,133.869Zm-4.112-11.111c-.09-.028-.151.01-.183.113q-.207.669-.413,1.336a1.155,1.155,0,0,1-.585.711,1.142,1.142,0,0,1-.89.089l-.532-.159a1.132,1.132,0,0,1-.7-.567,1.169,1.169,0,0,1-.087-.913q.446-1.537.893-3.076a1.143,1.143,0,0,1,.571-.72,1.171,1.171,0,0,1,.924-.086q2.942.876,5.858,1.862c.09.031.154,0,.188-.107l.183-.538a1.12,1.12,0,0,1,.618-.689,1.205,1.205,0,0,1,.928-.045l.827.29a1.2,1.2,0,0,1,.7.614,1.127,1.127,0,0,1,.054.925l-.193.534q-.056.151.081.2,2.928,1.061,5.826,2.233a1.182,1.182,0,0,1,.675.647,1.142,1.142,0,0,1,0,.92l-1.222,2.961a1.17,1.17,0,0,1-.641.657,1.142,1.142,0,0,1-.91,0c-.216-.088-.433-.175-.649-.261a1.146,1.146,0,0,1-.655-.631,1.163,1.163,0,0,1-.007-.917q.255-.652.509-1.3a.143.143,0,0,0-.092-.21Q231.857,124.492,226.267,122.758Z" fill="#fefefe"/>
    </g>
  </g>
</svg>
