<svg xmlns="http://www.w3.org/2000/svg" width="333.425" height="75.925" viewBox="0 0 333.425 75.925">
  <g id="b" transform="translate(14.99 15.01)">
    <g id="c" transform="translate(0.01 -0.01)">
      <g id="Group_3004" data-name="Group 3004">
        <g id="Group_3000" data-name="Group 3000">
          <path id="Path_11750" data-name="Path 11750" d="M18.049,0a2.228,2.228,0,0,1,1.732.826,2.856,2.856,0,0,1,.725,1.961V16.223c0,.253.1.375.292.375H31.583a2.291,2.291,0,0,1,1.732.8,2.822,2.822,0,0,1,.725,1.98V43.04a2.871,2.871,0,0,1-.725,1.98,2.259,2.259,0,0,1-1.732.8H28.822a1.4,1.4,0,0,1-1.029-.469,1.657,1.657,0,0,1-.444-1.182c0-.16-.065-.235-.206-.235H2.468a2.259,2.259,0,0,1-1.732-.8,2.822,2.822,0,0,1-.725-1.98V39.738a2.822,2.822,0,0,1,.725-1.98,2.259,2.259,0,0,1,1.732-.8H27.036c.227,0,.336-.122.336-.375V33.76c0-.253-.108-.375-.336-.375H5.012a2.255,2.255,0,0,1-1.754-.8,2.863,2.863,0,0,1-.715-1.98V29.425a2.863,2.863,0,0,1,.715-1.98,2.255,2.255,0,0,1,1.754-.8H27.036c.227,0,.336-.122.336-.375V24.011c0-.253-.108-.375-.336-.375H3.507a2.259,2.259,0,0,1-1.732-.8,2.822,2.822,0,0,1-.725-1.98V19.395a2.822,2.822,0,0,1,.725-1.98,2.259,2.259,0,0,1,1.732-.8h9.821c.195,0,.292-.122.292-.375V2.777A2.873,2.873,0,0,1,14.346.816,2.228,2.228,0,0,1,16.078-.01h1.96ZM9.69,10.086a3.482,3.482,0,0,1,.162,1.042,3.133,3.133,0,0,1-.206,1.088,2.789,2.789,0,0,1-1.375,1.558l-1.505.657a1.655,1.655,0,0,1-.834.235,1.751,1.751,0,0,1-.92-.281,2.459,2.459,0,0,1-1.256-1.511A49.926,49.926,0,0,0,1.082,6.652,2.532,2.532,0,0,1,.79,5.47a2.7,2.7,0,0,1,.13-.8A2.186,2.186,0,0,1,2.089,3.255l1.083-.469a3.06,3.06,0,0,1,1.169-.235,2.482,2.482,0,0,1,.92.188,2.785,2.785,0,0,1,1.624,1.37A50.9,50.9,0,0,1,9.69,10.1Zm17.432-6.08a2.945,2.945,0,0,1,1.213-1.7,2.467,2.467,0,0,1,1.213-.328,2.366,2.366,0,0,1,.671.094l2.252.7A2.188,2.188,0,0,1,33.8,4.1a2.262,2.262,0,0,1,.206.938,2.162,2.162,0,0,1-.249.995c-1.169,2.731-2.3,5.142-3.389,7.216A2.9,2.9,0,0,1,27.739,14.9a2.938,2.938,0,0,1-1.007-.188l-.877-.328a2.126,2.126,0,0,1-1.3-1.37,2.853,2.853,0,0,1-.162-.938,2.746,2.746,0,0,1,.206-1.042,69.453,69.453,0,0,0,2.512-7.028Z" transform="translate(-0.01 0.01)" fill="#231815"/>
          <path id="Path_11751" data-name="Path 11751" d="M68.008,11.386c0,.213.108.323.336.323H70.3c1.115,0,2.025-.018,2.718-.046h.162a2.148,2.148,0,0,1,1.548.647,2.306,2.306,0,0,1,.747,1.765v2.135a2.524,2.524,0,0,1-.747,1.857,2.221,2.221,0,0,1-1.667.739H68.344c-.227,0-.336.111-.336.323V20.34a49.876,49.876,0,0,1-.476,7.263,25.214,25.214,0,0,1-1.711,6.08,18.077,18.077,0,0,1-3.411,5.249,22.59,22.59,0,0,1-5.435,4.2,3.153,3.153,0,0,1-1.548.416,3.954,3.954,0,0,1-.541-.046,3.392,3.392,0,0,1-1.927-1.072L51,40.392a1.613,1.613,0,0,1-.5-1.164,1.437,1.437,0,0,1,.043-.37,1.663,1.663,0,0,1,.964-1.257,15.944,15.944,0,0,0,7.5-6.154q2.241-3.784,2.23-10.932v-1.4c0-.213-.108-.323-.336-.323H52.546c-.227,0-.336.111-.336.323v5.434l.087,2.735a2.7,2.7,0,0,1-.628,1.811A2.176,2.176,0,0,1,50,29.885h-2.3a2.082,2.082,0,0,1-1.667-.785,2.63,2.63,0,0,1-.628-1.765l.087-2.781V19.12c0-.213-.108-.323-.336-.323H42.4c-.866,0-1.657.018-2.382.046h-.087a2.115,2.115,0,0,1-1.624-.739,2.534,2.534,0,0,1-.758-1.857V13.927a2.279,2.279,0,0,1,.758-1.765,2.036,2.036,0,0,1,1.462-.6,1.2,1.2,0,0,1,.249.046c.747.065,1.548.092,2.382.092h2.761c.227,0,.336-.111.336-.323V7.754l-.087-2.227A2.715,2.715,0,0,1,46,3.808a2.1,2.1,0,0,1,1.667-.785h2.425a2.045,2.045,0,0,1,1.624.785A2.771,2.771,0,0,1,52.3,5.573L52.211,7.8v3.576c0,.213.108.323.336.323h8.359c.227,0,.336-.111.336-.323V7.255L61.2,5.167a2.958,2.958,0,0,1,.585-1.811,2.045,2.045,0,0,1,1.624-.785h2.469a2.045,2.045,0,0,1,1.624.785,2.715,2.715,0,0,1,.585,1.719L68,7.255v4.131Z" transform="translate(3.097 0.214)" fill="#231815"/>
          <path id="Path_11752" data-name="Path 11752" d="M102.285,17.276a.614.614,0,0,0-.292.553V36.4l.13,4.351a2.7,2.7,0,0,1-.585,1.714,1.906,1.906,0,0,1-1.548.783h-3.3a2.019,2.019,0,0,1-1.635-.783,2.619,2.619,0,0,1-.628-1.761l.13-4.3V22.465a.193.193,0,0,0-.087-.184.264.264,0,0,0-.206,0,73.272,73.272,0,0,1-11.326,5.051,2.521,2.521,0,0,1-.92.184,2.643,2.643,0,0,1-1.126-.277A3.457,3.457,0,0,1,79.3,25.756l-1.169-2.268a2.11,2.11,0,0,1-.087-1.807A1.73,1.73,0,0,1,79.3,20.52,56.83,56.83,0,0,0,96.514,12.6a47.871,47.871,0,0,0,9.615-8.711A2.34,2.34,0,0,1,107.8,2.97H108a2.108,2.108,0,0,1,1.505.645l1.916,1.9a2.57,2.57,0,0,1,.758,1.9,2.513,2.513,0,0,1-.715,1.807,74.265,74.265,0,0,1-9.193,8.056Z" transform="translate(1.097 0.246)" fill="#231815"/>
          <path id="Path_11753" data-name="Path 11753" d="M149.01,21.531a2.442,2.442,0,0,1,1.343,1.485,3,3,0,0,1,.206,1.07,2.784,2.784,0,0,1-.206,1.07l-1.083,2.969a2.372,2.372,0,0,1-1.343,1.439,2.1,2.1,0,0,1-.834.184,1.834,1.834,0,0,1-.964-.277Q141.16,26.925,133.883,24a.171.171,0,0,0-.184.018.254.254,0,0,0-.108.212V36.091c0,.8.087,2.268.249,4.4v.277a2.635,2.635,0,0,1-.585,1.669,2.1,2.1,0,0,1-1.667.784h-3.172a2.074,2.074,0,0,1-1.624-.784,2.794,2.794,0,0,1-.541-1.669v-.231c.141-1.7.206-3.181.206-4.445V8.98c0-1.116-.054-2.269-.162-3.477V5.227a2.719,2.719,0,0,1,.541-1.623,1.956,1.956,0,0,1,1.592-.784h3.129a2.112,2.112,0,0,1,1.667.784,2.794,2.794,0,0,1,.541,1.669V5.5c-.108,1.3-.162,2.453-.162,3.477v6.16a.391.391,0,0,0,.292.415,129.158,129.158,0,0,1,15.126,5.976Z" transform="translate(2.076 0.234)" fill="#231815"/>
          <path id="Path_11754" data-name="Path 11754" d="M166.827,2.2a1.256,1.256,0,0,1,.455-.093,1.68,1.68,0,0,1,.964.326l1.418.886a3.382,3.382,0,0,1,1.375,1.687,4.39,4.39,0,0,1,.206,1.361,3.408,3.408,0,0,1-.13.932q-1.754,7.117-2.837,10.581a.807.807,0,0,0,.13.653,16.494,16.494,0,0,1,2.631,9.229c0,3.468-.725,5.593-2.176,6.74a5.836,5.836,0,0,1-2.588,1.128,1.533,1.533,0,0,1-.379.047.783.783,0,0,1-.249.047,2.027,2.027,0,0,1-1.505-.7,3.611,3.611,0,0,1-1.007-1.967,18.452,18.452,0,0,0-.5-2.06c0-.028-.011-.047-.043-.047s-.043.019-.043.047V42.988a2.842,2.842,0,0,1-.725,1.967,2.265,2.265,0,0,1-1.732.792h-.834a2.292,2.292,0,0,1-1.754-.792,2.834,2.834,0,0,1-.715-1.967V5.019a2.834,2.834,0,0,1,.715-1.967,2.261,2.261,0,0,1,1.754-.792h7.352a.658.658,0,0,0,.206-.047ZM162.853,8.43c-.195,0-.292.112-.292.326V29.321c0,.214.1.326.292.326h.747a1.767,1.767,0,0,0,1.169-.373,3.2,3.2,0,0,0,.671-2.433,12.992,12.992,0,0,0-1.256-5.575,8.793,8.793,0,0,1-.877-3.654,6.761,6.761,0,0,1,.13-1.314c.476-2.219.964-4.726,1.462-7.542.032-.214-.054-.326-.249-.326Zm27.621,16.957a.2.2,0,0,0-.065.075.157.157,0,0,0,.022.121L192.9,27.5a2.393,2.393,0,0,1,.249,3.468c-1.061,1.128-2.1,2.172-3.129,3.142a.347.347,0,0,0-.043.513,15.8,15.8,0,0,0,3.681,3.748,2.328,2.328,0,0,1,.92,1.547v.419a2.55,2.55,0,0,1-.422,1.408,17.411,17.411,0,0,0-1.039,1.5,2.852,2.852,0,0,1-1.592,1.268,1.825,1.825,0,0,1-.585.093,2,2,0,0,1-1.256-.466,20.362,20.362,0,0,1-5.6-7.374A48.275,48.275,0,0,1,180.7,25.742a.375.375,0,0,0-.379-.326h-1.592c-.195,0-.292.121-.292.373V36.136q0,.378.292.28c.5-.093,1.267-.233,2.3-.42a2.17,2.17,0,0,1,.422-.047,2.012,2.012,0,0,1,1.375.559,2.435,2.435,0,0,1,.877,1.781l.043.513v.326a3.349,3.349,0,0,1-.541,1.827,2.833,2.833,0,0,1-1.667,1.268q-3.671.937-8.9,2.2a4.364,4.364,0,0,1-.628.047,2.482,2.482,0,0,1-1.332-.419,2.826,2.826,0,0,1-1.256-1.687l-.455-1.547a2.3,2.3,0,0,1-.13-.746,2.264,2.264,0,0,1,.336-1.175,1.914,1.914,0,0,1,1.418-1.081c.585-.093,1.083-.168,1.505-.233a.329.329,0,0,0,.292-.373V5.112a2.754,2.754,0,0,1,.736-1.967,2.265,2.265,0,0,1,1.732-.792h15.462a2.3,2.3,0,0,1,1.732.792,2.8,2.8,0,0,1,.736,1.967V22.861a2.6,2.6,0,0,1-.671,1.781A2.083,2.083,0,0,1,190.475,25.388ZM186.588,8.617c0-.214-.1-.326-.292-.326h-7.568c-.195,0-.292.112-.292.326v1.967c0,.252.1.373.292.373H186.3c.195,0,.292-.121.292-.373Zm-7.85,7.961c-.195,0-.292.112-.292.326v2.2c0,.214.1.326.292.326h7.568c.195,0,.292-.112.292-.326V16.9c0-.214-.1-.326-.292-.326Zm11.12,9.089a.191.191,0,0,0,0-.186c-.032-.065-.065-.093-.13-.093h-3.389a.281.281,0,0,0-.249.336,23.606,23.606,0,0,0,1.007,3.188c.087.214.195.233.336.047a40.775,40.775,0,0,0,2.425-3.281Z" transform="translate(2.088 0.178)" fill="#231815"/>
          <path id="Path_11755" data-name="Path 11755" d="M218.384,32.629c-.195,0-.292.112-.292.328V37.9c0,.253.1.375.292.375a28.684,28.684,0,0,0,3.432.187q6.984,0,10.524-.094h.043a1.426,1.426,0,0,1,1.256.749,2.336,2.336,0,0,1,.249.984,2.136,2.136,0,0,1-.13.7c-.195.628-.379,1.274-.541,1.93a4.085,4.085,0,0,1-1.169,1.93,2.7,2.7,0,0,1-1.884.749h-8.695a28.279,28.279,0,0,1-10.048-1.527,13.724,13.724,0,0,1-6.67-5.761.192.192,0,0,0-.184-.075.232.232,0,0,0-.152.122,24.132,24.132,0,0,1-3.465,6.024,2.053,2.053,0,0,1-1.667.843h-.043a2.651,2.651,0,0,1-1.841-.8c-.444-.44-.888-.862-1.332-1.274a2.221,2.221,0,0,1-.758-1.742,2.45,2.45,0,0,1,.628-1.7q3.93-4.609,5.1-13.743a2.816,2.816,0,0,1,.92-1.883,2.133,2.133,0,0,1,1.548-.656.78.78,0,0,1,.249.047l1.592.141a2.334,2.334,0,0,1,1.667,1.04,2.617,2.617,0,0,1,.5,1.555,2.286,2.286,0,0,1-.043.468c-.141,1-.3,1.958-.5,2.867a1.682,1.682,0,0,0,.043.656,12.38,12.38,0,0,0,4.309,6.024.133.133,0,0,0,.162-.019.222.222,0,0,0,.087-.169v-14.4c0-.215-.1-.328-.292-.328h-5.511a2.225,2.225,0,0,1-1.754-.824,2.891,2.891,0,0,1-.715-1.958V17.266a2.856,2.856,0,0,1,.715-1.977,2.256,2.256,0,0,1,1.754-.8h17.963a2.256,2.256,0,0,1,1.754.8,2.856,2.856,0,0,1,.715,1.977v1.087a2.908,2.908,0,0,1-.715,1.958,2.225,2.225,0,0,1-1.754.824h-5.349c-.195,0-.292.112-.292.328V25.7c0,.215.1.328.292.328h8.446a2.225,2.225,0,0,1,1.754.824,2.891,2.891,0,0,1,.715,1.958v1.03a2.908,2.908,0,0,1-.715,1.958,2.225,2.225,0,0,1-1.754.824h-8.446Zm-15.8-21.415c-.195,0-.292.122-.292.375v3.251a2.822,2.822,0,0,1-.736,1.977,2.26,2.26,0,0,1-1.732.8h-1.169a2.256,2.256,0,0,1-1.754-.8,2.856,2.856,0,0,1-.715-1.977V7.4a2.856,2.856,0,0,1,.715-1.977,2.256,2.256,0,0,1,1.754-.8h12.5c.195,0,.292-.122.292-.375V2.933a2.822,2.822,0,0,1,.736-1.977,2.26,2.26,0,0,1,1.732-.8h1.754a2.292,2.292,0,0,1,1.732.8,2.814,2.814,0,0,1,.725,1.977V4.254c0,.253.1.375.292.375H231.03a2.256,2.256,0,0,1,1.754.8A2.856,2.856,0,0,1,233.5,7.4v7.438a2.856,2.856,0,0,1-.715,1.977,2.256,2.256,0,0,1-1.754.8h-1.462a2.256,2.256,0,0,1-1.754-.8,2.856,2.856,0,0,1-.715-1.977V11.589c0-.253-.108-.375-.336-.375h-24.2Z" transform="translate(2.565 0.023)" fill="#231815"/>
          <path id="Path_11756" data-name="Path 11756" d="M256.863,39.4a5.139,5.139,0,0,1-7.233-7.3,5.178,5.178,0,0,1,7.233,0,5.013,5.013,0,0,1,1.44,3.649A4.955,4.955,0,0,1,256.863,39.4Zm-3.779-11.462a2.61,2.61,0,0,1-1.884-.768,3.046,3.046,0,0,1-.92-1.906l-1.418-12.022L248.7,8.2a2.594,2.594,0,0,1,.65-1.888,2.145,2.145,0,0,1,1.689-.795h4.472a2.13,2.13,0,0,1,1.689.795,2.813,2.813,0,0,1,.693,1.888l-.206,5.04-1.418,12.022a3.046,3.046,0,0,1-.92,1.906,2.548,2.548,0,0,1-1.841.768Z" transform="translate(2.343 0.448)" fill="#231815"/>
          <path id="Path_11757" data-name="Path 11757" d="M296.373,39.4a5.139,5.139,0,0,1-7.233-7.3,5.178,5.178,0,0,1,7.233,0,5.013,5.013,0,0,1,1.44,3.649A4.955,4.955,0,0,1,296.373,39.4Zm-3.779-11.462a2.61,2.61,0,0,1-1.884-.768,3.046,3.046,0,0,1-.92-1.906l-1.418-12.022-.162-5.04a2.594,2.594,0,0,1,.65-1.888,2.145,2.145,0,0,1,1.689-.795h4.472a2.13,2.13,0,0,1,1.689.795A2.813,2.813,0,0,1,297.4,8.2l-.206,5.04-1.418,12.022a3.046,3.046,0,0,1-.92,1.906,2.548,2.548,0,0,1-1.841.768Z" transform="translate(5.612 0.448)" fill="#231815"/>
        </g>
        <g id="Group_3001" data-name="Group 3001">
          <path id="Path_11758" data-name="Path 11758" d="M18.049,0a2.228,2.228,0,0,1,1.732.826,2.856,2.856,0,0,1,.725,1.961V16.223c0,.253.1.375.292.375H31.583a2.291,2.291,0,0,1,1.732.8,2.822,2.822,0,0,1,.725,1.98V43.04a2.871,2.871,0,0,1-.725,1.98,2.259,2.259,0,0,1-1.732.8H28.822a1.4,1.4,0,0,1-1.029-.469,1.657,1.657,0,0,1-.444-1.182c0-.16-.065-.235-.206-.235H2.468a2.259,2.259,0,0,1-1.732-.8,2.822,2.822,0,0,1-.725-1.98V39.738a2.822,2.822,0,0,1,.725-1.98,2.259,2.259,0,0,1,1.732-.8H27.036c.227,0,.336-.122.336-.375V33.76c0-.253-.108-.375-.336-.375H5.012a2.255,2.255,0,0,1-1.754-.8,2.863,2.863,0,0,1-.715-1.98V29.425a2.863,2.863,0,0,1,.715-1.98,2.255,2.255,0,0,1,1.754-.8H27.036c.227,0,.336-.122.336-.375V24.011c0-.253-.108-.375-.336-.375H3.507a2.259,2.259,0,0,1-1.732-.8,2.822,2.822,0,0,1-.725-1.98V19.395a2.822,2.822,0,0,1,.725-1.98,2.259,2.259,0,0,1,1.732-.8h9.821c.195,0,.292-.122.292-.375V2.777A2.873,2.873,0,0,1,14.346.816,2.228,2.228,0,0,1,16.078-.01h1.96ZM9.69,10.086a3.482,3.482,0,0,1,.162,1.042,3.133,3.133,0,0,1-.206,1.088,2.789,2.789,0,0,1-1.375,1.558l-1.505.657a1.655,1.655,0,0,1-.834.235,1.751,1.751,0,0,1-.92-.281,2.459,2.459,0,0,1-1.256-1.511A49.926,49.926,0,0,0,1.082,6.652,2.532,2.532,0,0,1,.79,5.47a2.7,2.7,0,0,1,.13-.8A2.186,2.186,0,0,1,2.089,3.255l1.083-.469a3.06,3.06,0,0,1,1.169-.235,2.482,2.482,0,0,1,.92.188,2.785,2.785,0,0,1,1.624,1.37A50.9,50.9,0,0,1,9.69,10.1Zm17.432-6.08a2.945,2.945,0,0,1,1.213-1.7,2.467,2.467,0,0,1,1.213-.328,2.366,2.366,0,0,1,.671.094l2.252.7A2.188,2.188,0,0,1,33.8,4.1a2.262,2.262,0,0,1,.206.938,2.162,2.162,0,0,1-.249.995c-1.169,2.731-2.3,5.142-3.389,7.216A2.9,2.9,0,0,1,27.739,14.9a2.938,2.938,0,0,1-1.007-.188l-.877-.328a2.126,2.126,0,0,1-1.3-1.37,2.853,2.853,0,0,1-.162-.938,2.746,2.746,0,0,1,.206-1.042,69.453,69.453,0,0,0,2.512-7.028Z" transform="translate(-0.01 0.01)" fill="none" stroke="#b7282c" stroke-linejoin="round" stroke-width="30"/>
          <path id="Path_11759" data-name="Path 11759" d="M68.008,11.386c0,.213.108.323.336.323H70.3c1.115,0,2.025-.018,2.718-.046h.162a2.148,2.148,0,0,1,1.548.647,2.306,2.306,0,0,1,.747,1.765v2.135a2.524,2.524,0,0,1-.747,1.857,2.221,2.221,0,0,1-1.667.739H68.344c-.227,0-.336.111-.336.323V20.34a49.876,49.876,0,0,1-.476,7.263,25.214,25.214,0,0,1-1.711,6.08,18.077,18.077,0,0,1-3.411,5.249,22.59,22.59,0,0,1-5.435,4.2,3.153,3.153,0,0,1-1.548.416,3.954,3.954,0,0,1-.541-.046,3.392,3.392,0,0,1-1.927-1.072L51,40.392a1.613,1.613,0,0,1-.5-1.164,1.437,1.437,0,0,1,.043-.37,1.663,1.663,0,0,1,.964-1.257,15.944,15.944,0,0,0,7.5-6.154q2.241-3.784,2.23-10.932v-1.4c0-.213-.108-.323-.336-.323H52.546c-.227,0-.336.111-.336.323v5.434l.087,2.735a2.7,2.7,0,0,1-.628,1.811A2.176,2.176,0,0,1,50,29.885h-2.3a2.082,2.082,0,0,1-1.667-.785,2.63,2.63,0,0,1-.628-1.765l.087-2.781V19.12c0-.213-.108-.323-.336-.323H42.4c-.866,0-1.657.018-2.382.046h-.087a2.115,2.115,0,0,1-1.624-.739,2.534,2.534,0,0,1-.758-1.857V13.927a2.279,2.279,0,0,1,.758-1.765,2.036,2.036,0,0,1,1.462-.6,1.2,1.2,0,0,1,.249.046c.747.065,1.548.092,2.382.092h2.761c.227,0,.336-.111.336-.323V7.754l-.087-2.227A2.715,2.715,0,0,1,46,3.808a2.1,2.1,0,0,1,1.667-.785h2.425a2.045,2.045,0,0,1,1.624.785A2.771,2.771,0,0,1,52.3,5.573L52.211,7.8v3.576c0,.213.108.323.336.323h8.359c.227,0,.336-.111.336-.323V7.255L61.2,5.167a2.958,2.958,0,0,1,.585-1.811,2.045,2.045,0,0,1,1.624-.785h2.469a2.045,2.045,0,0,1,1.624.785,2.715,2.715,0,0,1,.585,1.719L68,7.255v4.131Z" transform="translate(3.097 0.214)" fill="none" stroke="#b7282c" stroke-linejoin="round" stroke-width="30"/>
          <path id="Path_11760" data-name="Path 11760" d="M102.285,17.276a.614.614,0,0,0-.292.553V36.4l.13,4.351a2.7,2.7,0,0,1-.585,1.714,1.906,1.906,0,0,1-1.548.783h-3.3a2.019,2.019,0,0,1-1.635-.783,2.619,2.619,0,0,1-.628-1.761l.13-4.3V22.465a.193.193,0,0,0-.087-.184.264.264,0,0,0-.206,0,73.272,73.272,0,0,1-11.326,5.051,2.521,2.521,0,0,1-.92.184,2.643,2.643,0,0,1-1.126-.277A3.457,3.457,0,0,1,79.3,25.756l-1.169-2.268a2.11,2.11,0,0,1-.087-1.807A1.73,1.73,0,0,1,79.3,20.52,56.83,56.83,0,0,0,96.514,12.6a47.871,47.871,0,0,0,9.615-8.711A2.34,2.34,0,0,1,107.8,2.97H108a2.108,2.108,0,0,1,1.505.645l1.916,1.9a2.57,2.57,0,0,1,.758,1.9,2.513,2.513,0,0,1-.715,1.807,74.265,74.265,0,0,1-9.193,8.056Z" transform="translate(1.097 0.246)" fill="none" stroke="#b7282c" stroke-linejoin="round" stroke-width="30"/>
          <path id="Path_11761" data-name="Path 11761" d="M149.01,21.531a2.442,2.442,0,0,1,1.343,1.485,3,3,0,0,1,.206,1.07,2.784,2.784,0,0,1-.206,1.07l-1.083,2.969a2.372,2.372,0,0,1-1.343,1.439,2.1,2.1,0,0,1-.834.184,1.834,1.834,0,0,1-.964-.277Q141.16,26.925,133.883,24a.171.171,0,0,0-.184.018.254.254,0,0,0-.108.212V36.091c0,.8.087,2.268.249,4.4v.277a2.635,2.635,0,0,1-.585,1.669,2.1,2.1,0,0,1-1.667.784h-3.172a2.074,2.074,0,0,1-1.624-.784,2.794,2.794,0,0,1-.541-1.669v-.231c.141-1.7.206-3.181.206-4.445V8.98c0-1.116-.054-2.269-.162-3.477V5.227a2.719,2.719,0,0,1,.541-1.623,1.956,1.956,0,0,1,1.592-.784h3.129a2.112,2.112,0,0,1,1.667.784,2.794,2.794,0,0,1,.541,1.669V5.5c-.108,1.3-.162,2.453-.162,3.477v6.16a.391.391,0,0,0,.292.415,129.158,129.158,0,0,1,15.126,5.976Z" transform="translate(2.076 0.234)" fill="none" stroke="#b7282c" stroke-linejoin="round" stroke-width="30"/>
          <path id="Path_11762" data-name="Path 11762" d="M166.827,2.2a1.256,1.256,0,0,1,.455-.093,1.68,1.68,0,0,1,.964.326l1.418.886a3.382,3.382,0,0,1,1.375,1.687,4.39,4.39,0,0,1,.206,1.361,3.408,3.408,0,0,1-.13.932q-1.754,7.117-2.837,10.581a.807.807,0,0,0,.13.653,16.494,16.494,0,0,1,2.631,9.229c0,3.468-.725,5.593-2.176,6.74a5.836,5.836,0,0,1-2.588,1.128,1.533,1.533,0,0,1-.379.047.783.783,0,0,1-.249.047,2.027,2.027,0,0,1-1.505-.7,3.611,3.611,0,0,1-1.007-1.967,18.452,18.452,0,0,0-.5-2.06c0-.028-.011-.047-.043-.047s-.043.019-.043.047V42.988a2.842,2.842,0,0,1-.725,1.967,2.265,2.265,0,0,1-1.732.792h-.834a2.292,2.292,0,0,1-1.754-.792,2.834,2.834,0,0,1-.715-1.967V5.019a2.834,2.834,0,0,1,.715-1.967,2.261,2.261,0,0,1,1.754-.792h7.352a.658.658,0,0,0,.206-.047ZM162.853,8.43c-.195,0-.292.112-.292.326V29.321c0,.214.1.326.292.326h.747a1.767,1.767,0,0,0,1.169-.373,3.2,3.2,0,0,0,.671-2.433,12.992,12.992,0,0,0-1.256-5.575,8.793,8.793,0,0,1-.877-3.654,6.761,6.761,0,0,1,.13-1.314c.476-2.219.964-4.726,1.462-7.542.032-.214-.054-.326-.249-.326Zm27.621,16.957a.2.2,0,0,0-.065.075.157.157,0,0,0,.022.121L192.9,27.5a2.393,2.393,0,0,1,.249,3.468c-1.061,1.128-2.1,2.172-3.129,3.142a.347.347,0,0,0-.043.513,15.8,15.8,0,0,0,3.681,3.748,2.328,2.328,0,0,1,.92,1.547v.419a2.55,2.55,0,0,1-.422,1.408,17.411,17.411,0,0,0-1.039,1.5,2.852,2.852,0,0,1-1.592,1.268,1.825,1.825,0,0,1-.585.093,2,2,0,0,1-1.256-.466,20.362,20.362,0,0,1-5.6-7.374A48.275,48.275,0,0,1,180.7,25.742a.375.375,0,0,0-.379-.326h-1.592c-.195,0-.292.121-.292.373V36.136q0,.378.292.28c.5-.093,1.267-.233,2.3-.42a2.17,2.17,0,0,1,.422-.047,2.012,2.012,0,0,1,1.375.559,2.435,2.435,0,0,1,.877,1.781l.043.513v.326a3.349,3.349,0,0,1-.541,1.827,2.833,2.833,0,0,1-1.667,1.268q-3.671.937-8.9,2.2a4.364,4.364,0,0,1-.628.047,2.482,2.482,0,0,1-1.332-.419,2.826,2.826,0,0,1-1.256-1.687l-.455-1.547a2.3,2.3,0,0,1-.13-.746,2.264,2.264,0,0,1,.336-1.175,1.914,1.914,0,0,1,1.418-1.081c.585-.093,1.083-.168,1.505-.233a.329.329,0,0,0,.292-.373V5.112a2.754,2.754,0,0,1,.736-1.967,2.265,2.265,0,0,1,1.732-.792h15.462a2.3,2.3,0,0,1,1.732.792,2.8,2.8,0,0,1,.736,1.967V22.861a2.6,2.6,0,0,1-.671,1.781A2.083,2.083,0,0,1,190.475,25.388ZM186.588,8.617c0-.214-.1-.326-.292-.326h-7.568c-.195,0-.292.112-.292.326v1.967c0,.252.1.373.292.373H186.3c.195,0,.292-.121.292-.373Zm-7.85,7.961c-.195,0-.292.112-.292.326v2.2c0,.214.1.326.292.326h7.568c.195,0,.292-.112.292-.326V16.9c0-.214-.1-.326-.292-.326Zm11.12,9.089a.191.191,0,0,0,0-.186c-.032-.065-.065-.093-.13-.093h-3.389a.281.281,0,0,0-.249.336,23.606,23.606,0,0,0,1.007,3.188c.087.214.195.233.336.047a40.775,40.775,0,0,0,2.425-3.281Z" transform="translate(2.088 0.178)" fill="none" stroke="#b7282c" stroke-linejoin="round" stroke-width="30"/>
          <path id="Path_11763" data-name="Path 11763" d="M218.384,32.629c-.195,0-.292.112-.292.328V37.9c0,.253.1.375.292.375a28.684,28.684,0,0,0,3.432.187q6.984,0,10.524-.094h.043a1.426,1.426,0,0,1,1.256.749,2.336,2.336,0,0,1,.249.984,2.136,2.136,0,0,1-.13.7c-.195.628-.379,1.274-.541,1.93a4.085,4.085,0,0,1-1.169,1.93,2.7,2.7,0,0,1-1.884.749h-8.695a28.279,28.279,0,0,1-10.048-1.527,13.724,13.724,0,0,1-6.67-5.761.192.192,0,0,0-.184-.075.232.232,0,0,0-.152.122,24.132,24.132,0,0,1-3.465,6.024,2.053,2.053,0,0,1-1.667.843h-.043a2.651,2.651,0,0,1-1.841-.8c-.444-.44-.888-.862-1.332-1.274a2.221,2.221,0,0,1-.758-1.742,2.45,2.45,0,0,1,.628-1.7q3.93-4.609,5.1-13.743a2.816,2.816,0,0,1,.92-1.883,2.133,2.133,0,0,1,1.548-.656.78.78,0,0,1,.249.047l1.592.141a2.334,2.334,0,0,1,1.667,1.04,2.617,2.617,0,0,1,.5,1.555,2.286,2.286,0,0,1-.043.468c-.141,1-.3,1.958-.5,2.867a1.682,1.682,0,0,0,.043.656,12.38,12.38,0,0,0,4.309,6.024.133.133,0,0,0,.162-.019.222.222,0,0,0,.087-.169v-14.4c0-.215-.1-.328-.292-.328h-5.511a2.225,2.225,0,0,1-1.754-.824,2.891,2.891,0,0,1-.715-1.958V17.266a2.856,2.856,0,0,1,.715-1.977,2.256,2.256,0,0,1,1.754-.8h17.963a2.256,2.256,0,0,1,1.754.8,2.856,2.856,0,0,1,.715,1.977v1.087a2.908,2.908,0,0,1-.715,1.958,2.225,2.225,0,0,1-1.754.824h-5.349c-.195,0-.292.112-.292.328V25.7c0,.215.1.328.292.328h8.446a2.225,2.225,0,0,1,1.754.824,2.891,2.891,0,0,1,.715,1.958v1.03a2.908,2.908,0,0,1-.715,1.958,2.225,2.225,0,0,1-1.754.824h-8.446Zm-15.8-21.415c-.195,0-.292.122-.292.375v3.251a2.822,2.822,0,0,1-.736,1.977,2.26,2.26,0,0,1-1.732.8h-1.169a2.256,2.256,0,0,1-1.754-.8,2.856,2.856,0,0,1-.715-1.977V7.4a2.856,2.856,0,0,1,.715-1.977,2.256,2.256,0,0,1,1.754-.8h12.5c.195,0,.292-.122.292-.375V2.933a2.822,2.822,0,0,1,.736-1.977,2.26,2.26,0,0,1,1.732-.8h1.754a2.292,2.292,0,0,1,1.732.8,2.814,2.814,0,0,1,.725,1.977V4.254c0,.253.1.375.292.375H231.03a2.256,2.256,0,0,1,1.754.8A2.856,2.856,0,0,1,233.5,7.4v7.438a2.856,2.856,0,0,1-.715,1.977,2.256,2.256,0,0,1-1.754.8h-1.462a2.256,2.256,0,0,1-1.754-.8,2.856,2.856,0,0,1-.715-1.977V11.589c0-.253-.108-.375-.336-.375h-24.2Z" transform="translate(2.565 0.023)" fill="none" stroke="#b7282c" stroke-linejoin="round" stroke-width="30"/>
          <path id="Path_11764" data-name="Path 11764" d="M256.863,39.4a5.139,5.139,0,0,1-7.233-7.3,5.178,5.178,0,0,1,7.233,0,5.013,5.013,0,0,1,1.44,3.649A4.955,4.955,0,0,1,256.863,39.4Zm-3.779-11.462a2.61,2.61,0,0,1-1.884-.768,3.046,3.046,0,0,1-.92-1.906l-1.418-12.022L248.7,8.2a2.594,2.594,0,0,1,.65-1.888,2.145,2.145,0,0,1,1.689-.795h4.472a2.13,2.13,0,0,1,1.689.795,2.813,2.813,0,0,1,.693,1.888l-.206,5.04-1.418,12.022a3.046,3.046,0,0,1-.92,1.906,2.548,2.548,0,0,1-1.841.768Z" transform="translate(2.343 0.448)" fill="none" stroke="#b7282c" stroke-linejoin="round" stroke-width="30"/>
          <path id="Path_11765" data-name="Path 11765" d="M296.373,39.4a5.139,5.139,0,0,1-7.233-7.3,5.178,5.178,0,0,1,7.233,0,5.013,5.013,0,0,1,1.44,3.649A4.955,4.955,0,0,1,296.373,39.4Zm-3.779-11.462a2.61,2.61,0,0,1-1.884-.768,3.046,3.046,0,0,1-.92-1.906l-1.418-12.022-.162-5.04a2.594,2.594,0,0,1,.65-1.888,2.145,2.145,0,0,1,1.689-.795h4.472a2.13,2.13,0,0,1,1.689.795A2.813,2.813,0,0,1,297.4,8.2l-.206,5.04-1.418,12.022a3.046,3.046,0,0,1-.92,1.906,2.548,2.548,0,0,1-1.841.768Z" transform="translate(5.612 0.448)" fill="none" stroke="#b7282c" stroke-linejoin="round" stroke-width="30"/>
        </g>
        <g id="Group_3002" data-name="Group 3002">
          <path id="Path_11766" data-name="Path 11766" d="M18.049,0a2.228,2.228,0,0,1,1.732.826,2.856,2.856,0,0,1,.725,1.961V16.223c0,.253.1.375.292.375H31.583a2.291,2.291,0,0,1,1.732.8,2.822,2.822,0,0,1,.725,1.98V43.04a2.871,2.871,0,0,1-.725,1.98,2.259,2.259,0,0,1-1.732.8H28.822a1.4,1.4,0,0,1-1.029-.469,1.657,1.657,0,0,1-.444-1.182c0-.16-.065-.235-.206-.235H2.468a2.259,2.259,0,0,1-1.732-.8,2.822,2.822,0,0,1-.725-1.98V39.738a2.822,2.822,0,0,1,.725-1.98,2.259,2.259,0,0,1,1.732-.8H27.036c.227,0,.336-.122.336-.375V33.76c0-.253-.108-.375-.336-.375H5.012a2.255,2.255,0,0,1-1.754-.8,2.863,2.863,0,0,1-.715-1.98V29.425a2.863,2.863,0,0,1,.715-1.98,2.255,2.255,0,0,1,1.754-.8H27.036c.227,0,.336-.122.336-.375V24.011c0-.253-.108-.375-.336-.375H3.507a2.259,2.259,0,0,1-1.732-.8,2.822,2.822,0,0,1-.725-1.98V19.395a2.822,2.822,0,0,1,.725-1.98,2.259,2.259,0,0,1,1.732-.8h9.821c.195,0,.292-.122.292-.375V2.777A2.873,2.873,0,0,1,14.346.816,2.228,2.228,0,0,1,16.078-.01h1.96ZM9.69,10.086a3.482,3.482,0,0,1,.162,1.042,3.133,3.133,0,0,1-.206,1.088,2.789,2.789,0,0,1-1.375,1.558l-1.505.657a1.655,1.655,0,0,1-.834.235,1.751,1.751,0,0,1-.92-.281,2.459,2.459,0,0,1-1.256-1.511A49.926,49.926,0,0,0,1.082,6.652,2.532,2.532,0,0,1,.79,5.47a2.7,2.7,0,0,1,.13-.8A2.186,2.186,0,0,1,2.089,3.255l1.083-.469a3.06,3.06,0,0,1,1.169-.235,2.482,2.482,0,0,1,.92.188,2.785,2.785,0,0,1,1.624,1.37A50.9,50.9,0,0,1,9.69,10.1Zm17.432-6.08a2.945,2.945,0,0,1,1.213-1.7,2.467,2.467,0,0,1,1.213-.328,2.366,2.366,0,0,1,.671.094l2.252.7A2.188,2.188,0,0,1,33.8,4.1a2.262,2.262,0,0,1,.206.938,2.162,2.162,0,0,1-.249.995c-1.169,2.731-2.3,5.142-3.389,7.216A2.9,2.9,0,0,1,27.739,14.9a2.938,2.938,0,0,1-1.007-.188l-.877-.328a2.126,2.126,0,0,1-1.3-1.37,2.853,2.853,0,0,1-.162-.938,2.746,2.746,0,0,1,.206-1.042,69.453,69.453,0,0,0,2.512-7.028Z" transform="translate(-0.01 0.01)" fill="none" stroke="#fff" stroke-linejoin="round" stroke-width="15"/>
          <path id="Path_11767" data-name="Path 11767" d="M68.008,11.386c0,.213.108.323.336.323H70.3c1.115,0,2.025-.018,2.718-.046h.162a2.148,2.148,0,0,1,1.548.647,2.306,2.306,0,0,1,.747,1.765v2.135a2.524,2.524,0,0,1-.747,1.857,2.221,2.221,0,0,1-1.667.739H68.344c-.227,0-.336.111-.336.323V20.34a49.876,49.876,0,0,1-.476,7.263,25.214,25.214,0,0,1-1.711,6.08,18.077,18.077,0,0,1-3.411,5.249,22.59,22.59,0,0,1-5.435,4.2,3.153,3.153,0,0,1-1.548.416,3.954,3.954,0,0,1-.541-.046,3.392,3.392,0,0,1-1.927-1.072L51,40.392a1.613,1.613,0,0,1-.5-1.164,1.437,1.437,0,0,1,.043-.37,1.663,1.663,0,0,1,.964-1.257,15.944,15.944,0,0,0,7.5-6.154q2.241-3.784,2.23-10.932v-1.4c0-.213-.108-.323-.336-.323H52.546c-.227,0-.336.111-.336.323v5.434l.087,2.735a2.7,2.7,0,0,1-.628,1.811A2.176,2.176,0,0,1,50,29.885h-2.3a2.082,2.082,0,0,1-1.667-.785,2.63,2.63,0,0,1-.628-1.765l.087-2.781V19.12c0-.213-.108-.323-.336-.323H42.4c-.866,0-1.657.018-2.382.046h-.087a2.115,2.115,0,0,1-1.624-.739,2.534,2.534,0,0,1-.758-1.857V13.927a2.279,2.279,0,0,1,.758-1.765,2.036,2.036,0,0,1,1.462-.6,1.2,1.2,0,0,1,.249.046c.747.065,1.548.092,2.382.092h2.761c.227,0,.336-.111.336-.323V7.754l-.087-2.227A2.715,2.715,0,0,1,46,3.808a2.1,2.1,0,0,1,1.667-.785h2.425a2.045,2.045,0,0,1,1.624.785A2.771,2.771,0,0,1,52.3,5.573L52.211,7.8v3.576c0,.213.108.323.336.323h8.359c.227,0,.336-.111.336-.323V7.255L61.2,5.167a2.958,2.958,0,0,1,.585-1.811,2.045,2.045,0,0,1,1.624-.785h2.469a2.045,2.045,0,0,1,1.624.785,2.715,2.715,0,0,1,.585,1.719L68,7.255v4.131Z" transform="translate(3.097 0.214)" fill="none" stroke="#fff" stroke-linejoin="round" stroke-width="15"/>
          <path id="Path_11768" data-name="Path 11768" d="M102.285,17.276a.614.614,0,0,0-.292.553V36.4l.13,4.351a2.7,2.7,0,0,1-.585,1.714,1.906,1.906,0,0,1-1.548.783h-3.3a2.019,2.019,0,0,1-1.635-.783,2.619,2.619,0,0,1-.628-1.761l.13-4.3V22.465a.193.193,0,0,0-.087-.184.264.264,0,0,0-.206,0,73.272,73.272,0,0,1-11.326,5.051,2.521,2.521,0,0,1-.92.184,2.643,2.643,0,0,1-1.126-.277A3.457,3.457,0,0,1,79.3,25.756l-1.169-2.268a2.11,2.11,0,0,1-.087-1.807A1.73,1.73,0,0,1,79.3,20.52,56.83,56.83,0,0,0,96.514,12.6a47.871,47.871,0,0,0,9.615-8.711A2.34,2.34,0,0,1,107.8,2.97H108a2.108,2.108,0,0,1,1.505.645l1.916,1.9a2.57,2.57,0,0,1,.758,1.9,2.513,2.513,0,0,1-.715,1.807,74.265,74.265,0,0,1-9.193,8.056Z" transform="translate(1.097 0.246)" fill="none" stroke="#fff" stroke-linejoin="round" stroke-width="15"/>
          <path id="Path_11769" data-name="Path 11769" d="M149.01,21.531a2.442,2.442,0,0,1,1.343,1.485,3,3,0,0,1,.206,1.07,2.784,2.784,0,0,1-.206,1.07l-1.083,2.969a2.372,2.372,0,0,1-1.343,1.439,2.1,2.1,0,0,1-.834.184,1.834,1.834,0,0,1-.964-.277Q141.16,26.925,133.883,24a.171.171,0,0,0-.184.018.254.254,0,0,0-.108.212V36.091c0,.8.087,2.268.249,4.4v.277a2.635,2.635,0,0,1-.585,1.669,2.1,2.1,0,0,1-1.667.784h-3.172a2.074,2.074,0,0,1-1.624-.784,2.794,2.794,0,0,1-.541-1.669v-.231c.141-1.7.206-3.181.206-4.445V8.98c0-1.116-.054-2.269-.162-3.477V5.227a2.719,2.719,0,0,1,.541-1.623,1.956,1.956,0,0,1,1.592-.784h3.129a2.112,2.112,0,0,1,1.667.784,2.794,2.794,0,0,1,.541,1.669V5.5c-.108,1.3-.162,2.453-.162,3.477v6.16a.391.391,0,0,0,.292.415,129.158,129.158,0,0,1,15.126,5.976Z" transform="translate(2.076 0.234)" fill="none" stroke="#fff" stroke-linejoin="round" stroke-width="15"/>
          <path id="Path_11770" data-name="Path 11770" d="M166.827,2.2a1.256,1.256,0,0,1,.455-.093,1.68,1.68,0,0,1,.964.326l1.418.886a3.382,3.382,0,0,1,1.375,1.687,4.39,4.39,0,0,1,.206,1.361,3.408,3.408,0,0,1-.13.932q-1.754,7.117-2.837,10.581a.807.807,0,0,0,.13.653,16.494,16.494,0,0,1,2.631,9.229c0,3.468-.725,5.593-2.176,6.74a5.836,5.836,0,0,1-2.588,1.128,1.533,1.533,0,0,1-.379.047.783.783,0,0,1-.249.047,2.027,2.027,0,0,1-1.505-.7,3.611,3.611,0,0,1-1.007-1.967,18.452,18.452,0,0,0-.5-2.06c0-.028-.011-.047-.043-.047s-.043.019-.043.047V42.988a2.842,2.842,0,0,1-.725,1.967,2.265,2.265,0,0,1-1.732.792h-.834a2.292,2.292,0,0,1-1.754-.792,2.834,2.834,0,0,1-.715-1.967V5.019a2.834,2.834,0,0,1,.715-1.967,2.261,2.261,0,0,1,1.754-.792h7.352a.658.658,0,0,0,.206-.047ZM162.853,8.43c-.195,0-.292.112-.292.326V29.321c0,.214.1.326.292.326h.747a1.767,1.767,0,0,0,1.169-.373,3.2,3.2,0,0,0,.671-2.433,12.992,12.992,0,0,0-1.256-5.575,8.793,8.793,0,0,1-.877-3.654,6.761,6.761,0,0,1,.13-1.314c.476-2.219.964-4.726,1.462-7.542.032-.214-.054-.326-.249-.326Zm27.621,16.957a.2.2,0,0,0-.065.075.157.157,0,0,0,.022.121L192.9,27.5a2.393,2.393,0,0,1,.249,3.468c-1.061,1.128-2.1,2.172-3.129,3.142a.347.347,0,0,0-.043.513,15.8,15.8,0,0,0,3.681,3.748,2.328,2.328,0,0,1,.92,1.547v.419a2.55,2.55,0,0,1-.422,1.408,17.411,17.411,0,0,0-1.039,1.5,2.852,2.852,0,0,1-1.592,1.268,1.825,1.825,0,0,1-.585.093,2,2,0,0,1-1.256-.466,20.362,20.362,0,0,1-5.6-7.374A48.275,48.275,0,0,1,180.7,25.742a.375.375,0,0,0-.379-.326h-1.592c-.195,0-.292.121-.292.373V36.136q0,.378.292.28c.5-.093,1.267-.233,2.3-.42a2.17,2.17,0,0,1,.422-.047,2.012,2.012,0,0,1,1.375.559,2.435,2.435,0,0,1,.877,1.781l.043.513v.326a3.349,3.349,0,0,1-.541,1.827,2.833,2.833,0,0,1-1.667,1.268q-3.671.937-8.9,2.2a4.364,4.364,0,0,1-.628.047,2.482,2.482,0,0,1-1.332-.419,2.826,2.826,0,0,1-1.256-1.687l-.455-1.547a2.3,2.3,0,0,1-.13-.746,2.264,2.264,0,0,1,.336-1.175,1.914,1.914,0,0,1,1.418-1.081c.585-.093,1.083-.168,1.505-.233a.329.329,0,0,0,.292-.373V5.112a2.754,2.754,0,0,1,.736-1.967,2.265,2.265,0,0,1,1.732-.792h15.462a2.3,2.3,0,0,1,1.732.792,2.8,2.8,0,0,1,.736,1.967V22.861a2.6,2.6,0,0,1-.671,1.781A2.083,2.083,0,0,1,190.475,25.388ZM186.588,8.617c0-.214-.1-.326-.292-.326h-7.568c-.195,0-.292.112-.292.326v1.967c0,.252.1.373.292.373H186.3c.195,0,.292-.121.292-.373Zm-7.85,7.961c-.195,0-.292.112-.292.326v2.2c0,.214.1.326.292.326h7.568c.195,0,.292-.112.292-.326V16.9c0-.214-.1-.326-.292-.326Zm11.12,9.089a.191.191,0,0,0,0-.186c-.032-.065-.065-.093-.13-.093h-3.389a.281.281,0,0,0-.249.336,23.606,23.606,0,0,0,1.007,3.188c.087.214.195.233.336.047a40.775,40.775,0,0,0,2.425-3.281Z" transform="translate(2.088 0.178)" fill="none" stroke="#fff" stroke-linejoin="round" stroke-width="15"/>
          <path id="Path_11771" data-name="Path 11771" d="M218.384,32.629c-.195,0-.292.112-.292.328V37.9c0,.253.1.375.292.375a28.684,28.684,0,0,0,3.432.187q6.984,0,10.524-.094h.043a1.426,1.426,0,0,1,1.256.749,2.336,2.336,0,0,1,.249.984,2.136,2.136,0,0,1-.13.7c-.195.628-.379,1.274-.541,1.93a4.085,4.085,0,0,1-1.169,1.93,2.7,2.7,0,0,1-1.884.749h-8.695a28.279,28.279,0,0,1-10.048-1.527,13.724,13.724,0,0,1-6.67-5.761.192.192,0,0,0-.184-.075.232.232,0,0,0-.152.122,24.132,24.132,0,0,1-3.465,6.024,2.053,2.053,0,0,1-1.667.843h-.043a2.651,2.651,0,0,1-1.841-.8c-.444-.44-.888-.862-1.332-1.274a2.221,2.221,0,0,1-.758-1.742,2.45,2.45,0,0,1,.628-1.7q3.93-4.609,5.1-13.743a2.816,2.816,0,0,1,.92-1.883,2.133,2.133,0,0,1,1.548-.656.78.78,0,0,1,.249.047l1.592.141a2.334,2.334,0,0,1,1.667,1.04,2.617,2.617,0,0,1,.5,1.555,2.286,2.286,0,0,1-.043.468c-.141,1-.3,1.958-.5,2.867a1.682,1.682,0,0,0,.043.656,12.38,12.38,0,0,0,4.309,6.024.133.133,0,0,0,.162-.019.222.222,0,0,0,.087-.169v-14.4c0-.215-.1-.328-.292-.328h-5.511a2.225,2.225,0,0,1-1.754-.824,2.891,2.891,0,0,1-.715-1.958V17.266a2.856,2.856,0,0,1,.715-1.977,2.256,2.256,0,0,1,1.754-.8h17.963a2.256,2.256,0,0,1,1.754.8,2.856,2.856,0,0,1,.715,1.977v1.087a2.908,2.908,0,0,1-.715,1.958,2.225,2.225,0,0,1-1.754.824h-5.349c-.195,0-.292.112-.292.328V25.7c0,.215.1.328.292.328h8.446a2.225,2.225,0,0,1,1.754.824,2.891,2.891,0,0,1,.715,1.958v1.03a2.908,2.908,0,0,1-.715,1.958,2.225,2.225,0,0,1-1.754.824h-8.446Zm-15.8-21.415c-.195,0-.292.122-.292.375v3.251a2.822,2.822,0,0,1-.736,1.977,2.26,2.26,0,0,1-1.732.8h-1.169a2.256,2.256,0,0,1-1.754-.8,2.856,2.856,0,0,1-.715-1.977V7.4a2.856,2.856,0,0,1,.715-1.977,2.256,2.256,0,0,1,1.754-.8h12.5c.195,0,.292-.122.292-.375V2.933a2.822,2.822,0,0,1,.736-1.977,2.26,2.26,0,0,1,1.732-.8h1.754a2.292,2.292,0,0,1,1.732.8,2.814,2.814,0,0,1,.725,1.977V4.254c0,.253.1.375.292.375H231.03a2.256,2.256,0,0,1,1.754.8A2.856,2.856,0,0,1,233.5,7.4v7.438a2.856,2.856,0,0,1-.715,1.977,2.256,2.256,0,0,1-1.754.8h-1.462a2.256,2.256,0,0,1-1.754-.8,2.856,2.856,0,0,1-.715-1.977V11.589c0-.253-.108-.375-.336-.375h-24.2Z" transform="translate(2.565 0.023)" fill="none" stroke="#fff" stroke-linejoin="round" stroke-width="15"/>
          <path id="Path_11772" data-name="Path 11772" d="M256.863,39.4a5.139,5.139,0,0,1-7.233-7.3,5.178,5.178,0,0,1,7.233,0,5.013,5.013,0,0,1,1.44,3.649A4.955,4.955,0,0,1,256.863,39.4Zm-3.779-11.462a2.61,2.61,0,0,1-1.884-.768,3.046,3.046,0,0,1-.92-1.906l-1.418-12.022L248.7,8.2a2.594,2.594,0,0,1,.65-1.888,2.145,2.145,0,0,1,1.689-.795h4.472a2.13,2.13,0,0,1,1.689.795,2.813,2.813,0,0,1,.693,1.888l-.206,5.04-1.418,12.022a3.046,3.046,0,0,1-.92,1.906,2.548,2.548,0,0,1-1.841.768Z" transform="translate(2.343 0.448)" fill="none" stroke="#fff" stroke-linejoin="round" stroke-width="15"/>
          <path id="Path_11773" data-name="Path 11773" d="M296.373,39.4a5.139,5.139,0,0,1-7.233-7.3,5.178,5.178,0,0,1,7.233,0,5.013,5.013,0,0,1,1.44,3.649A4.955,4.955,0,0,1,296.373,39.4Zm-3.779-11.462a2.61,2.61,0,0,1-1.884-.768,3.046,3.046,0,0,1-.92-1.906l-1.418-12.022-.162-5.04a2.594,2.594,0,0,1,.65-1.888,2.145,2.145,0,0,1,1.689-.795h4.472a2.13,2.13,0,0,1,1.689.795A2.813,2.813,0,0,1,297.4,8.2l-.206,5.04-1.418,12.022a3.046,3.046,0,0,1-.92,1.906,2.548,2.548,0,0,1-1.841.768Z" transform="translate(5.612 0.448)" fill="none" stroke="#fff" stroke-linejoin="round" stroke-width="15"/>
        </g>
        <g id="Group_3003" data-name="Group 3003">
          <path id="Path_11774" data-name="Path 11774" d="M18.049,0a2.228,2.228,0,0,1,1.732.826,2.856,2.856,0,0,1,.725,1.961V16.223c0,.253.1.375.292.375H31.583a2.291,2.291,0,0,1,1.732.8,2.822,2.822,0,0,1,.725,1.98V43.04a2.871,2.871,0,0,1-.725,1.98,2.259,2.259,0,0,1-1.732.8H28.822a1.4,1.4,0,0,1-1.029-.469,1.657,1.657,0,0,1-.444-1.182c0-.16-.065-.235-.206-.235H2.468a2.259,2.259,0,0,1-1.732-.8,2.822,2.822,0,0,1-.725-1.98V39.738a2.822,2.822,0,0,1,.725-1.98,2.259,2.259,0,0,1,1.732-.8H27.036c.227,0,.336-.122.336-.375V33.76c0-.253-.108-.375-.336-.375H5.012a2.255,2.255,0,0,1-1.754-.8,2.863,2.863,0,0,1-.715-1.98V29.425a2.863,2.863,0,0,1,.715-1.98,2.255,2.255,0,0,1,1.754-.8H27.036c.227,0,.336-.122.336-.375V24.011c0-.253-.108-.375-.336-.375H3.507a2.259,2.259,0,0,1-1.732-.8,2.822,2.822,0,0,1-.725-1.98V19.395a2.822,2.822,0,0,1,.725-1.98,2.259,2.259,0,0,1,1.732-.8h9.821c.195,0,.292-.122.292-.375V2.777A2.873,2.873,0,0,1,14.346.816,2.228,2.228,0,0,1,16.078-.01h1.96ZM9.69,10.086a3.482,3.482,0,0,1,.162,1.042,3.133,3.133,0,0,1-.206,1.088,2.789,2.789,0,0,1-1.375,1.558l-1.505.657a1.655,1.655,0,0,1-.834.235,1.751,1.751,0,0,1-.92-.281,2.459,2.459,0,0,1-1.256-1.511A49.926,49.926,0,0,0,1.082,6.652,2.532,2.532,0,0,1,.79,5.47a2.7,2.7,0,0,1,.13-.8A2.186,2.186,0,0,1,2.089,3.255l1.083-.469a3.06,3.06,0,0,1,1.169-.235,2.482,2.482,0,0,1,.92.188,2.785,2.785,0,0,1,1.624,1.37A50.9,50.9,0,0,1,9.69,10.1Zm17.432-6.08a2.945,2.945,0,0,1,1.213-1.7,2.467,2.467,0,0,1,1.213-.328,2.366,2.366,0,0,1,.671.094l2.252.7A2.188,2.188,0,0,1,33.8,4.1a2.262,2.262,0,0,1,.206.938,2.162,2.162,0,0,1-.249.995c-1.169,2.731-2.3,5.142-3.389,7.216A2.9,2.9,0,0,1,27.739,14.9a2.938,2.938,0,0,1-1.007-.188l-.877-.328a2.126,2.126,0,0,1-1.3-1.37,2.853,2.853,0,0,1-.162-.938,2.746,2.746,0,0,1,.206-1.042,69.453,69.453,0,0,0,2.512-7.028Z" transform="translate(-0.01 0.01)" fill="#b7282c"/>
          <path id="Path_11775" data-name="Path 11775" d="M68.008,11.386c0,.213.108.323.336.323H70.3c1.115,0,2.025-.018,2.718-.046h.162a2.148,2.148,0,0,1,1.548.647,2.306,2.306,0,0,1,.747,1.765v2.135a2.524,2.524,0,0,1-.747,1.857,2.221,2.221,0,0,1-1.667.739H68.344c-.227,0-.336.111-.336.323V20.34a49.876,49.876,0,0,1-.476,7.263,25.214,25.214,0,0,1-1.711,6.08,18.077,18.077,0,0,1-3.411,5.249,22.59,22.59,0,0,1-5.435,4.2,3.153,3.153,0,0,1-1.548.416,3.954,3.954,0,0,1-.541-.046,3.392,3.392,0,0,1-1.927-1.072L51,40.392a1.613,1.613,0,0,1-.5-1.164,1.437,1.437,0,0,1,.043-.37,1.663,1.663,0,0,1,.964-1.257,15.944,15.944,0,0,0,7.5-6.154q2.241-3.784,2.23-10.932v-1.4c0-.213-.108-.323-.336-.323H52.546c-.227,0-.336.111-.336.323v5.434l.087,2.735a2.7,2.7,0,0,1-.628,1.811A2.176,2.176,0,0,1,50,29.885h-2.3a2.082,2.082,0,0,1-1.667-.785,2.63,2.63,0,0,1-.628-1.765l.087-2.781V19.12c0-.213-.108-.323-.336-.323H42.4c-.866,0-1.657.018-2.382.046h-.087a2.115,2.115,0,0,1-1.624-.739,2.534,2.534,0,0,1-.758-1.857V13.927a2.279,2.279,0,0,1,.758-1.765,2.036,2.036,0,0,1,1.462-.6,1.2,1.2,0,0,1,.249.046c.747.065,1.548.092,2.382.092h2.761c.227,0,.336-.111.336-.323V7.754l-.087-2.227A2.715,2.715,0,0,1,46,3.808a2.1,2.1,0,0,1,1.667-.785h2.425a2.045,2.045,0,0,1,1.624.785A2.771,2.771,0,0,1,52.3,5.573L52.211,7.8v3.576c0,.213.108.323.336.323h8.359c.227,0,.336-.111.336-.323V7.255L61.2,5.167a2.958,2.958,0,0,1,.585-1.811,2.045,2.045,0,0,1,1.624-.785h2.469a2.045,2.045,0,0,1,1.624.785,2.715,2.715,0,0,1,.585,1.719L68,7.255v4.131Z" transform="translate(3.097 0.214)" fill="#b7282c"/>
          <path id="Path_11776" data-name="Path 11776" d="M102.285,17.276a.614.614,0,0,0-.292.553V36.4l.13,4.351a2.7,2.7,0,0,1-.585,1.714,1.906,1.906,0,0,1-1.548.783h-3.3a2.019,2.019,0,0,1-1.635-.783,2.619,2.619,0,0,1-.628-1.761l.13-4.3V22.465a.193.193,0,0,0-.087-.184.264.264,0,0,0-.206,0,73.272,73.272,0,0,1-11.326,5.051,2.521,2.521,0,0,1-.92.184,2.643,2.643,0,0,1-1.126-.277A3.457,3.457,0,0,1,79.3,25.756l-1.169-2.268a2.11,2.11,0,0,1-.087-1.807A1.73,1.73,0,0,1,79.3,20.52,56.83,56.83,0,0,0,96.514,12.6a47.871,47.871,0,0,0,9.615-8.711A2.34,2.34,0,0,1,107.8,2.97H108a2.108,2.108,0,0,1,1.505.645l1.916,1.9a2.57,2.57,0,0,1,.758,1.9,2.513,2.513,0,0,1-.715,1.807,74.265,74.265,0,0,1-9.193,8.056Z" transform="translate(1.097 0.246)" fill="#b7282c"/>
          <path id="Path_11777" data-name="Path 11777" d="M149.01,21.531a2.442,2.442,0,0,1,1.343,1.485,3,3,0,0,1,.206,1.07,2.784,2.784,0,0,1-.206,1.07l-1.083,2.969a2.372,2.372,0,0,1-1.343,1.439,2.1,2.1,0,0,1-.834.184,1.834,1.834,0,0,1-.964-.277Q141.16,26.925,133.883,24a.171.171,0,0,0-.184.018.254.254,0,0,0-.108.212V36.091c0,.8.087,2.268.249,4.4v.277a2.635,2.635,0,0,1-.585,1.669,2.1,2.1,0,0,1-1.667.784h-3.172a2.074,2.074,0,0,1-1.624-.784,2.794,2.794,0,0,1-.541-1.669v-.231c.141-1.7.206-3.181.206-4.445V8.98c0-1.116-.054-2.269-.162-3.477V5.227a2.719,2.719,0,0,1,.541-1.623,1.956,1.956,0,0,1,1.592-.784h3.129a2.112,2.112,0,0,1,1.667.784,2.794,2.794,0,0,1,.541,1.669V5.5c-.108,1.3-.162,2.453-.162,3.477v6.16a.391.391,0,0,0,.292.415,129.158,129.158,0,0,1,15.126,5.976Z" transform="translate(2.076 0.234)" fill="#b7282c"/>
          <path id="Path_11778" data-name="Path 11778" d="M166.827,2.2a1.256,1.256,0,0,1,.455-.093,1.68,1.68,0,0,1,.964.326l1.418.886a3.382,3.382,0,0,1,1.375,1.687,4.39,4.39,0,0,1,.206,1.361,3.408,3.408,0,0,1-.13.932q-1.754,7.117-2.837,10.581a.807.807,0,0,0,.13.653,16.494,16.494,0,0,1,2.631,9.229c0,3.468-.725,5.593-2.176,6.74a5.836,5.836,0,0,1-2.588,1.128,1.533,1.533,0,0,1-.379.047.783.783,0,0,1-.249.047,2.027,2.027,0,0,1-1.505-.7,3.611,3.611,0,0,1-1.007-1.967,18.452,18.452,0,0,0-.5-2.06c0-.028-.011-.047-.043-.047s-.043.019-.043.047V42.988a2.842,2.842,0,0,1-.725,1.967,2.265,2.265,0,0,1-1.732.792h-.834a2.292,2.292,0,0,1-1.754-.792,2.834,2.834,0,0,1-.715-1.967V5.019a2.834,2.834,0,0,1,.715-1.967,2.261,2.261,0,0,1,1.754-.792h7.352a.658.658,0,0,0,.206-.047ZM162.853,8.43c-.195,0-.292.112-.292.326V29.321c0,.214.1.326.292.326h.747a1.767,1.767,0,0,0,1.169-.373,3.2,3.2,0,0,0,.671-2.433,12.992,12.992,0,0,0-1.256-5.575,8.793,8.793,0,0,1-.877-3.654,6.761,6.761,0,0,1,.13-1.314c.476-2.219.964-4.726,1.462-7.542.032-.214-.054-.326-.249-.326Zm27.621,16.957a.2.2,0,0,0-.065.075.157.157,0,0,0,.022.121L192.9,27.5a2.393,2.393,0,0,1,.249,3.468c-1.061,1.128-2.1,2.172-3.129,3.142a.347.347,0,0,0-.043.513,15.8,15.8,0,0,0,3.681,3.748,2.328,2.328,0,0,1,.92,1.547v.419a2.55,2.55,0,0,1-.422,1.408,17.411,17.411,0,0,0-1.039,1.5,2.852,2.852,0,0,1-1.592,1.268,1.825,1.825,0,0,1-.585.093,2,2,0,0,1-1.256-.466,20.362,20.362,0,0,1-5.6-7.374A48.275,48.275,0,0,1,180.7,25.742a.375.375,0,0,0-.379-.326h-1.592c-.195,0-.292.121-.292.373V36.136q0,.378.292.28c.5-.093,1.267-.233,2.3-.42a2.17,2.17,0,0,1,.422-.047,2.012,2.012,0,0,1,1.375.559,2.435,2.435,0,0,1,.877,1.781l.043.513v.326a3.349,3.349,0,0,1-.541,1.827,2.833,2.833,0,0,1-1.667,1.268q-3.671.937-8.9,2.2a4.364,4.364,0,0,1-.628.047,2.482,2.482,0,0,1-1.332-.419,2.826,2.826,0,0,1-1.256-1.687l-.455-1.547a2.3,2.3,0,0,1-.13-.746,2.264,2.264,0,0,1,.336-1.175,1.914,1.914,0,0,1,1.418-1.081c.585-.093,1.083-.168,1.505-.233a.329.329,0,0,0,.292-.373V5.112a2.754,2.754,0,0,1,.736-1.967,2.265,2.265,0,0,1,1.732-.792h15.462a2.3,2.3,0,0,1,1.732.792,2.8,2.8,0,0,1,.736,1.967V22.861a2.6,2.6,0,0,1-.671,1.781A2.083,2.083,0,0,1,190.475,25.388ZM186.588,8.617c0-.214-.1-.326-.292-.326h-7.568c-.195,0-.292.112-.292.326v1.967c0,.252.1.373.292.373H186.3c.195,0,.292-.121.292-.373Zm-7.85,7.961c-.195,0-.292.112-.292.326v2.2c0,.214.1.326.292.326h7.568c.195,0,.292-.112.292-.326V16.9c0-.214-.1-.326-.292-.326Zm11.12,9.089a.191.191,0,0,0,0-.186c-.032-.065-.065-.093-.13-.093h-3.389a.281.281,0,0,0-.249.336,23.606,23.606,0,0,0,1.007,3.188c.087.214.195.233.336.047a40.775,40.775,0,0,0,2.425-3.281Z" transform="translate(2.088 0.178)" fill="#b7282c"/>
          <path id="Path_11779" data-name="Path 11779" d="M218.384,32.629c-.195,0-.292.112-.292.328V37.9c0,.253.1.375.292.375a28.684,28.684,0,0,0,3.432.187q6.984,0,10.524-.094h.043a1.426,1.426,0,0,1,1.256.749,2.336,2.336,0,0,1,.249.984,2.136,2.136,0,0,1-.13.7c-.195.628-.379,1.274-.541,1.93a4.085,4.085,0,0,1-1.169,1.93,2.7,2.7,0,0,1-1.884.749h-8.695a28.279,28.279,0,0,1-10.048-1.527,13.724,13.724,0,0,1-6.67-5.761.192.192,0,0,0-.184-.075.232.232,0,0,0-.152.122,24.132,24.132,0,0,1-3.465,6.024,2.053,2.053,0,0,1-1.667.843h-.043a2.651,2.651,0,0,1-1.841-.8c-.444-.44-.888-.862-1.332-1.274a2.221,2.221,0,0,1-.758-1.742,2.45,2.45,0,0,1,.628-1.7q3.93-4.609,5.1-13.743a2.816,2.816,0,0,1,.92-1.883,2.133,2.133,0,0,1,1.548-.656.78.78,0,0,1,.249.047l1.592.141a2.334,2.334,0,0,1,1.667,1.04,2.617,2.617,0,0,1,.5,1.555,2.286,2.286,0,0,1-.043.468c-.141,1-.3,1.958-.5,2.867a1.682,1.682,0,0,0,.043.656,12.38,12.38,0,0,0,4.309,6.024.133.133,0,0,0,.162-.019.222.222,0,0,0,.087-.169v-14.4c0-.215-.1-.328-.292-.328h-5.511a2.225,2.225,0,0,1-1.754-.824,2.891,2.891,0,0,1-.715-1.958V17.266a2.856,2.856,0,0,1,.715-1.977,2.256,2.256,0,0,1,1.754-.8h17.963a2.256,2.256,0,0,1,1.754.8,2.856,2.856,0,0,1,.715,1.977v1.087a2.908,2.908,0,0,1-.715,1.958,2.225,2.225,0,0,1-1.754.824h-5.349c-.195,0-.292.112-.292.328V25.7c0,.215.1.328.292.328h8.446a2.225,2.225,0,0,1,1.754.824,2.891,2.891,0,0,1,.715,1.958v1.03a2.908,2.908,0,0,1-.715,1.958,2.225,2.225,0,0,1-1.754.824h-8.446Zm-15.8-21.415c-.195,0-.292.122-.292.375v3.251a2.822,2.822,0,0,1-.736,1.977,2.26,2.26,0,0,1-1.732.8h-1.169a2.256,2.256,0,0,1-1.754-.8,2.856,2.856,0,0,1-.715-1.977V7.4a2.856,2.856,0,0,1,.715-1.977,2.256,2.256,0,0,1,1.754-.8h12.5c.195,0,.292-.122.292-.375V2.933a2.822,2.822,0,0,1,.736-1.977,2.26,2.26,0,0,1,1.732-.8h1.754a2.292,2.292,0,0,1,1.732.8,2.814,2.814,0,0,1,.725,1.977V4.254c0,.253.1.375.292.375H231.03a2.256,2.256,0,0,1,1.754.8A2.856,2.856,0,0,1,233.5,7.4v7.438a2.856,2.856,0,0,1-.715,1.977,2.256,2.256,0,0,1-1.754.8h-1.462a2.256,2.256,0,0,1-1.754-.8,2.856,2.856,0,0,1-.715-1.977V11.589c0-.253-.108-.375-.336-.375h-24.2Z" transform="translate(2.565 0.023)" fill="#b7282c"/>
          <path id="Path_11780" data-name="Path 11780" d="M256.863,39.4a5.139,5.139,0,0,1-7.233-7.3,5.178,5.178,0,0,1,7.233,0,5.013,5.013,0,0,1,1.44,3.649A4.955,4.955,0,0,1,256.863,39.4Zm-3.779-11.462a2.61,2.61,0,0,1-1.884-.768,3.046,3.046,0,0,1-.92-1.906l-1.418-12.022L248.7,8.2a2.594,2.594,0,0,1,.65-1.888,2.145,2.145,0,0,1,1.689-.795h4.472a2.13,2.13,0,0,1,1.689.795,2.813,2.813,0,0,1,.693,1.888l-.206,5.04-1.418,12.022a3.046,3.046,0,0,1-.92,1.906,2.548,2.548,0,0,1-1.841.768Z" transform="translate(2.343 0.448)" fill="#b7282c"/>
          <path id="Path_11781" data-name="Path 11781" d="M296.373,39.4a5.139,5.139,0,0,1-7.233-7.3,5.178,5.178,0,0,1,7.233,0,5.013,5.013,0,0,1,1.44,3.649A4.955,4.955,0,0,1,296.373,39.4Zm-3.779-11.462a2.61,2.61,0,0,1-1.884-.768,3.046,3.046,0,0,1-.92-1.906l-1.418-12.022-.162-5.04a2.594,2.594,0,0,1,.65-1.888,2.145,2.145,0,0,1,1.689-.795h4.472a2.13,2.13,0,0,1,1.689.795A2.813,2.813,0,0,1,297.4,8.2l-.206,5.04-1.418,12.022a3.046,3.046,0,0,1-.92,1.906,2.548,2.548,0,0,1-1.841.768Z" transform="translate(5.612 0.448)" fill="#b7282c"/>
        </g>
      </g>
    </g>
  </g>
</svg>
