<svg id="Group_3085" data-name="Group 3085" xmlns="http://www.w3.org/2000/svg" xmlns:xlink="http://www.w3.org/1999/xlink" width="332.974" height="64.135" viewBox="0 0 332.974 64.135">
  <defs>
    <clipPath id="clip-path">
      <rect id="Rectangle_1800" data-name="Rectangle 1800" width="332.974" height="64.135" fill="none"/>
    </clipPath>
  </defs>
  <g id="Group_3084" data-name="Group 3084" clip-path="url(#clip-path)">
    <path id="Path_12052" data-name="Path 12052" d="M358.514,50.3a640.622,640.622,0,0,0-263.124,0q-2.835-18.03-5.665-36.062a668.187,668.187,0,0,1,274.45,0q-.759,4.854-1.523,9.7-2.069,13.178-4.142,26.361Z" transform="translate(-60.466 0)" fill="#17499d"/>
    <path id="Path_12053" data-name="Path 12053" d="M920.628,66.188q14.486,3.066,28.9,6.78Q940.574,80.142,931.9,87.55q5.506,10.549,10.7,21.183-13.8-3.565-27.7-6.5" transform="translate(-616.552 -44.604)" fill="#17499d"/>
    <path id="Path_12054" data-name="Path 12054" d="M34.623,102.239q-13.886,2.938-27.7,6.5,5.157-10.815,10.632-21.545Q8.917,79.969,0,72.974q14.407-3.721,28.9-6.787" transform="translate(0 -44.603)" fill="#17499d"/>
    <path id="Path_12055" data-name="Path 12055" d="M107.631,155.689c.308,1.947.61,3.9.918,5.847q2.143-3.472,4.326-6.924" transform="translate(-72.532 -104.193)" fill="#17499d"/>
    <path id="Path_12056" data-name="Path 12056" d="M902.48,156.546c-.307,1.947-.61,3.9-.918,5.847q-2.143-3.472-4.321-6.918" transform="translate(-604.649 -104.774)" fill="#17499d"/>
    <path id="Path_12057" data-name="Path 12057" d="M126.129,73.331q-.062.053-.031.207.317,1.555.635,3.109a1.607,1.607,0,0,0,.3.744.874.874,0,0,0,.56.248,4.71,4.71,0,0,0,1.106-.123,10.109,10.109,0,0,0,2.921-1.062.278.278,0,0,1,.1-.039.388.388,0,0,1,.341.154,1.3,1.3,0,0,1,.32.681l.237,1.219a2.06,2.06,0,0,1,0,.884.687.687,0,0,1-.334.507,18.233,18.233,0,0,1-3.046.866,6.232,6.232,0,0,1-1.8.124,1.979,1.979,0,0,1-1.319-.835,5.06,5.06,0,0,1-.827-2.042l-2.213-10.691-.291-1.248a1.724,1.724,0,0,1-.005-.744q.091-.381.325-.429l.662-.136q.234-.048.468.266a1.722,1.722,0,0,1,.288.685l.236,1.259.65,3.186a.157.157,0,0,0,.038.083.034.034,0,0,0,.052,0,20.793,20.793,0,0,0,2.889-2.692,8.456,8.456,0,0,0,.608-.763.377.377,0,0,1,.227-.185.329.329,0,0,1,.208.039.836.836,0,0,1,.425.5l.384.889a1.857,1.857,0,0,1,.134.415,2.142,2.142,0,0,1,.037.455.99.99,0,0,1-.206.663q-.442.528-.659.752a26.548,26.548,0,0,1-3.407,3.055m3.36-8.87a1.576,1.576,0,0,1,.144.413,2.005,2.005,0,0,1,.034.335.861.861,0,0,1-.169.6.35.35,0,0,1-.2.141.3.3,0,0,1-.208-.039,1,1,0,0,1-.432-.477q-.267-.55-.469-.932a1.573,1.573,0,0,1-.145-.413A2.211,2.211,0,0,1,128,63.79a.739.739,0,0,1,.156-.553.348.348,0,0,1,.421-.123.86.86,0,0,1,.435.437q.22.419.475.911m-.2-1.166a1.407,1.407,0,0,1-.158-.431,1.829,1.829,0,0,1-.033-.275.742.742,0,0,1,.158-.553.349.349,0,0,1,.422-.122.9.9,0,0,1,.445.435q.229.418.47.893a1.647,1.647,0,0,1,.147.433,1.929,1.929,0,0,1,.029.316.969.969,0,0,1-.16.593.4.4,0,0,1-.209.121.362.362,0,0,1-.2-.02.941.941,0,0,1-.417-.461q-.258-.512-.488-.929" transform="translate(-82.709 -41.706)" fill="#fff"/>
    <path id="Path_12058" data-name="Path 12058" d="M152.669,78.838a1.877,1.877,0,0,1-.132-.416,2.221,2.221,0,0,1-.038-.414.924.924,0,0,1,.2-.641l.337-.325a.4.4,0,0,1,.208-.12.409.409,0,0,1,.271.049,1.018,1.018,0,0,1,.462.554q.47,1.095.98,2.362a2.033,2.033,0,0,1,.117.4,1.864,1.864,0,0,1,.027.476,1.034,1.034,0,0,1-.218.663l-.357.369a.335.335,0,0,1-.186.116.392.392,0,0,1-.273-.068,1.134,1.134,0,0,1-.414-.583q-.545-1.38-.986-2.419m5.4-2.515a1.238,1.238,0,0,1,.11-.721.339.339,0,0,1,.225-.2.323.323,0,0,1,.159.011l.709.272a.958.958,0,0,1,.446.5,2.25,2.25,0,0,1,.155.513,3.024,3.024,0,0,1,.042.353q0,.24.018.678a25.122,25.122,0,0,1-.371,5.875,12.714,12.714,0,0,1-2.069,5.151.48.48,0,0,1-.3.216.387.387,0,0,1-.176-.007.911.911,0,0,1-.538-.4l-.643-.841a1.019,1.019,0,0,1-.2-.444.99.99,0,0,1-.017-.2.717.717,0,0,1,.144-.549,8.449,8.449,0,0,0,1.282-1.865,9.278,9.278,0,0,0,.868-2.466,14.234,14.234,0,0,0,.278-2.676,26.357,26.357,0,0,0-.126-3.2m-3.224.917a2.244,2.244,0,0,1-.117-.4,1.95,1.95,0,0,1-.033-.455.94.94,0,0,1,.219-.623l.315-.279a.385.385,0,0,1,.2-.117.41.41,0,0,1,.285.067,1.208,1.208,0,0,1,.447.6q.424,1.044.861,2.165a1.966,1.966,0,0,1,.141.876.976.976,0,0,1-.235.645l-.326.321a.394.394,0,0,1-.181.094.4.4,0,0,1-.283-.068,1.248,1.248,0,0,1-.415-.6q-.44-1.181-.877-2.221" transform="translate(-102.769 -50.786)" fill="#fff"/>
    <path id="Path_12059" data-name="Path 12059" d="M186.433,53.731a1.8,1.8,0,0,1,.152.474,1.846,1.846,0,0,1,.02.376.98.98,0,0,1-.207.653l-.151.165a.109.109,0,0,0-.015.072.08.08,0,0,0,.027.065l.585.5a1.3,1.3,0,0,1,.393.674,2.992,2.992,0,0,1,.074.327,2.611,2.611,0,0,1,.031.574q-.027.344-.03.644a30.309,30.309,0,0,1-.711,6.808,17,17,0,0,1-1.066,3.217,12.939,12.939,0,0,1-1.645,2.681.568.568,0,0,1-.341.219.646.646,0,0,1-.153.007,1,1,0,0,1-.545-.365l-.765-.907a1.1,1.1,0,0,1-.209-.6.659.659,0,0,1,.131-.543,9.082,9.082,0,0,0,1.749-2.334,14.8,14.8,0,0,0,1.068-2.831,14.555,14.555,0,0,0,.437-2.512,17.8,17.8,0,0,0,.1-2.534c0-.106-.033-.154-.087-.145q-1.218.2-2.437.412c-.047.008-.081.054-.1.137a24.261,24.261,0,0,1-1.4,4.322.573.573,0,0,1-.409.392l-.01,0a.6.6,0,0,1-.528-.227l-.567-.56a1.09,1.09,0,0,1-.272-.592,1.19,1.19,0,0,1,.058-.731,15.293,15.293,0,0,0,.713-1.636,14.811,14.811,0,0,0,.511-1.68q.2-.834.31-1.414t.219-1.338a12.523,12.523,0,0,0,.127-1.342,1.3,1.3,0,0,1,.214-.716.413.413,0,0,1,.246-.162.348.348,0,0,1,.194.027l.789.306a.776.776,0,0,1,.379.5,2.458,2.458,0,0,1,.073.307,1.619,1.619,0,0,1,.007.478q-.057.409-.124.94a.153.153,0,0,0,.013.078c.011.025.027.035.047.032l1.6-.269a2.265,2.265,0,0,0,.858-.323c.043-.034.047-.094.012-.182q-.337-.763-.621-1.335a1.576,1.576,0,0,1-.132-.417,2.281,2.281,0,0,1-.028-.3.743.743,0,0,1,.172-.548.348.348,0,0,1,.425-.11.855.855,0,0,1,.421.45q.188.369.4.814m-.113-1.08a1.342,1.342,0,0,1-.142-.416,1.8,1.8,0,0,1-.024-.276.826.826,0,0,1,.171-.567.416.416,0,0,1,.223-.116.362.362,0,0,1,.2.027.9.9,0,0,1,.431.449q.216.424.442.907a1.588,1.588,0,0,1,.131.418,1.647,1.647,0,0,1,.02.316A.994.994,0,0,1,187.6,54a.4.4,0,0,1-.212.114.363.363,0,0,1-.2-.027.937.937,0,0,1-.4-.473q-.242-.519-.462-.963" transform="translate(-120.98 -34.552)" fill="#fff"/>
    <path id="Path_12060" data-name="Path 12060" d="M215.72,57.73q.717,4.874,1.434,9.748l.282,1.851a1.8,1.8,0,0,1-.045.8q-.118.376-.368.413l-.64.1q-.2.03-.383-.242a1.374,1.374,0,0,1-.223-.6q-.023-.156-.083-.147-2.222.334-4.442.684c-.04.006-.054.048-.042.126a1.513,1.513,0,0,1-.034.694q-.1.3-.294.336l-.639.1q-.239.038-.465-.285a1.7,1.7,0,0,1-.3-.751q-.141-.946-.283-1.89-.778-4.845-1.556-9.689-.083-.516-.166-1.031a1.737,1.737,0,0,1,.037-.814q.112-.347.347-.385l.021,0q.382-.041.607-.077,2.92-.463,5.844-.9l.5-.075a.494.494,0,0,1,.462.26,1.7,1.7,0,0,1,.285.765l.139,1.015m-1.538,1.364c-.016-.1-.047-.152-.095-.145q-2.261.339-4.521.7-.071.011-.047.167.576,3.65,1.152,7.3c.016.1.048.152.095.144q2.232-.352,4.465-.687.07-.011.047-.167l-1.1-7.308" transform="translate(-139.798 -37.527)" fill="#fff"/>
    <path id="Path_12061" data-name="Path 12061" d="M239.051,71.193l-.03,0q-.223.032-.429-.256a1.547,1.547,0,0,1-.3-.754l-.221-1.521a1.61,1.61,0,0,1,.069-.807q.12-.316.344-.348l.031,0q.753-.029,1.21-.094,2.765-.393,5.533-.761a4.877,4.877,0,0,0,.674-.149l.04-.005q.214-.028.415.244a1.5,1.5,0,0,1,.283.738q.1.762.2,1.524a1.654,1.654,0,0,1-.078.825q-.123.315-.336.342l-.04.006a5.237,5.237,0,0,0-.686.031q-2.751.366-5.5.757-.526.074-1.184.229" transform="translate(-160.424 -44.811)" fill="#fff"/>
    <path id="Path_12062" data-name="Path 12062" d="M273.677,41.374a1.113,1.113,0,0,1,.081.517.545.545,0,0,1-.153.385.123.123,0,0,0,.011.1l.233.211a1.658,1.658,0,0,1,.384.709,2.643,2.643,0,0,1,.124.978q0,.119,0,.308a1.349,1.349,0,0,1-.012.209q-.022,1.332-.058,2.308t-.209,2.494a21.135,21.135,0,0,1-.449,2.642,14.578,14.578,0,0,1-1.207,3.2,9.995,9.995,0,0,1-1.8,2.484.523.523,0,0,1-.288.135.645.645,0,0,1-.215-.013,1.083,1.083,0,0,1-.507-.473l-.712-1.121a1.162,1.162,0,0,1-.147-.438,1.3,1.3,0,0,1-.007-.218.6.6,0,0,1,.192-.5,8.688,8.688,0,0,0,2.945-4.772,17.412,17.412,0,0,0,.537-5.165c-.005-.105-.036-.154-.09-.148q-2.263.27-4.526.556-.337.043-.751.135l-.031,0a.467.467,0,0,1-.426-.244,1.6,1.6,0,0,1-.285-.758l-.146-1.134a1.485,1.485,0,0,1,.086-.786q.119-.293.334-.321l.052-.007a5.263,5.263,0,0,0,.77-.019q2.32-.293,4.641-.569a2.228,2.228,0,0,0,.458-.094c.013,0,.024-.019.03-.053a.16.16,0,0,0-.005-.089q-.132-.322-.259-.6a1.408,1.408,0,0,1-.125-.442,1.6,1.6,0,0,1-.006-.317.82.82,0,0,1,.2-.579.414.414,0,0,1,.246-.128.4.4,0,0,1,.2.036.887.887,0,0,1,.423.486q.241.548.461,1.1m.077-.862a1.608,1.608,0,0,1-.127-.461,1.522,1.522,0,0,1,0-.3.848.848,0,0,1,.194-.578.413.413,0,0,1,.247-.128.345.345,0,0,1,.216.054.89.89,0,0,1,.422.487q.168.378.351.793a1.593,1.593,0,0,1,.13.778,1.021,1.021,0,0,1-.221.62.359.359,0,0,1-.225.125.337.337,0,0,1-.215-.055.967.967,0,0,1-.4-.509q-.2-.473-.367-.83" transform="translate(-179.358 -26.313)" fill="#fff"/>
    <path id="Path_12063" data-name="Path 12063" d="M305.494,53.256l.714-.072c.127-.013.2-.142.231-.389a12.11,12.11,0,0,0-.041-1.59.8.8,0,0,1,.128-.567.256.256,0,0,1,.172-.116.246.246,0,0,1,.179.062l.306.207a1.272,1.272,0,0,1,.453.57,2.116,2.116,0,0,1,.191.714,1.438,1.438,0,0,1,.007.177,8.963,8.963,0,0,1-.205,2.792,1.139,1.139,0,0,1-1.009.852l-1.092.11a1.272,1.272,0,0,1-1.361-.633,8.061,8.061,0,0,1-.622-2.769l-.555-5.331c-.011-.1-.04-.155-.087-.15l-1.087.114c-.054.006-.076.061-.065.166q.072,1.261.084,2.191t-.072,1.96a10,10,0,0,1-.3,1.816,7.978,7.978,0,0,1-.619,1.563,5.66,5.66,0,0,1-.995,1.378.375.375,0,0,1-.22.124.4.4,0,0,1-.239-.053,1.364,1.364,0,0,1-.441-.585q-.15-.34-.315-.639a1.364,1.364,0,0,1-.145-.48,1.07,1.07,0,0,1,0-.218.822.822,0,0,1,.18-.575,4.332,4.332,0,0,0,.795-1,5.094,5.094,0,0,0,.476-1.093,6.514,6.514,0,0,0,.221-1.293,12.892,12.892,0,0,0,.045-1.373q-.017-.623-.076-1.548c0-.1-.034-.155-.088-.149l-1.737.192q-.244.027-.459-.286a1.743,1.743,0,0,1-.271-.8q-.024-.215-.049-.431a1.745,1.745,0,0,1,.087-.833q.139-.362.385-.39,1.627-.182,3.255-.355c.048-.005.067-.053.057-.145q-.314-2.949-.627-5.9a1.724,1.724,0,0,1,.094-.833q.144-.362.392-.388l.351-.037q.248-.026.464.3a1.736,1.736,0,0,1,.265.795q.306,2.95.612,5.9.014.137.085.13,1.68-.174,3.36-.339.245-.024.457.3a1.748,1.748,0,0,1,.258.8q.021.216.042.432a1.741,1.741,0,0,1-.1.841q-.146.351-.39.375-1,.1-1.992.2c-.048,0-.066.06-.055.164q.27,2.657.539,5.313a2.713,2.713,0,0,0,.128.71q.07.141.3.118m-5.4-11.324a1.882,1.882,0,0,1,.066.9,1.09,1.09,0,0,1-.28.665l-.336.334a.4.4,0,0,1-.187.08.357.357,0,0,1-.246-.072,1.17,1.17,0,0,1-.357-.615q-.355-1.249-.894-2.736a2.121,2.121,0,0,1-.1-.445,2,2,0,0,1,0-.416.922.922,0,0,1,.254-.623l.226-.223a.464.464,0,0,1,.239-.105.414.414,0,0,1,.246.052,1.086,1.086,0,0,1,.437.567q.573,1.444.94,2.634m3.96-3.167a1.3,1.3,0,0,1,.242-.7.411.411,0,0,1,.256-.144.361.361,0,0,1,.2.039l.516.265a.835.835,0,0,1,.376.537,1.828,1.828,0,0,1,.078.368,1.644,1.644,0,0,1-.018.457q-.3,1.752-.546,2.965a1,1,0,0,1-.33.627.405.405,0,0,1-.227.1.444.444,0,0,1-.276-.071l-.221-.136a.889.889,0,0,1-.367-.557,2.056,2.056,0,0,1-.067-.35,1.731,1.731,0,0,1,.013-.477q.238-1.43.368-2.929" transform="translate(-200.49 -25.083)" fill="#fff"/>
    <path id="Path_12064" data-name="Path 12064" d="M333.554,43.938q.027.3.054.609c.009.105.04.142.092.111a4.591,4.591,0,0,1,1.71-.546,2.374,2.374,0,0,1,1.539.394,3.57,3.57,0,0,1,1.2,1.482,6.892,6.892,0,0,1,.608,2.452,8.632,8.632,0,0,1-.264,3.235,3.539,3.539,0,0,1-1.611,2.063,3.474,3.474,0,0,1-.763.3.261.261,0,0,1-.089.027.505.505,0,0,1-.412-.2,1.841,1.841,0,0,1-.379-.739l-.254-.927a1.885,1.885,0,0,1-.044-.273,1.511,1.511,0,0,1,.029-.477q.1-.365.322-.384a2.871,2.871,0,0,0,.674-.2,1.847,1.847,0,0,0,.925-.841,2.561,2.561,0,0,0,.253-1.475,2.34,2.34,0,0,0-.488-1.363,1.177,1.177,0,0,0-1.044-.425,3.886,3.886,0,0,0-1.65.56c-.052.031-.07.092-.055.183q.3,2.862.339,3.353a7.94,7.94,0,0,1-.078,2.767q-.254.784-.855.839a1.772,1.772,0,0,1-1.2-.414,4.1,4.1,0,0,1-1.134-1.378,5.132,5.132,0,0,1-.6-1.992,5.732,5.732,0,0,1,.388-2.63,6.6,6.6,0,0,1,1.423-2.27.272.272,0,0,0,.051-.222q-.053-.47-.138-1.392-.046-.5-.092-1c-.008-.091-.037-.135-.084-.131a2.917,2.917,0,0,1-.376.054q-.593.055-.912.065-.257,0-.465-.342a2.064,2.064,0,0,1-.265-.836l-.056-.589a1.486,1.486,0,0,1,.092-.78q.136-.31.352-.33l.041,0a8.648,8.648,0,0,0,.908-.045l.421-.039c.047-.017.066-.072.058-.164q-.051-.559-.1-1.119-.051-.441-.1-.881a1.623,1.623,0,0,1,.088-.74q.123-.367.37-.39l.516-.047q.237-.021.434.317a1.648,1.648,0,0,1,.2.675c0,.039.007.079.01.118q.02.453.039.788l.046.866a.2.2,0,0,0,.029.1.059.059,0,0,0,.055.035,7.7,7.7,0,0,0,1.1-.492.421.421,0,0,1,.122-.03.367.367,0,0,1,.3.171,1.3,1.3,0,0,1,.256.69q.029.343.059.687a2.239,2.239,0,0,1-.077.907.747.747,0,0,1-.378.518,10.843,10.843,0,0,1-1.169.419c-.054.018-.076.08-.066.184q.023.374.091,1.139m-1.03,7.276a.237.237,0,0,0,.2-.167,1.688,1.688,0,0,0,.017-.645q-.022-.235-.176-1.705a.114.114,0,0,0-.028-.077.026.026,0,0,0-.04,0,2.671,2.671,0,0,0-.6,1.777,1.02,1.02,0,0,0,.242.581q.211.248.383.232m3.709-9.645a1.15,1.15,0,0,1-.354-.642,1.924,1.924,0,0,1-.032-.867l.076-.323a1.01,1.01,0,0,1,.31-.619.352.352,0,0,1,.48.039q.976.769,1.736,1.5a1.386,1.386,0,0,1,.336.7,2,2,0,0,1,.044.293,2.058,2.058,0,0,1-.035.6l-.107.463a.8.8,0,0,1-.316.54.438.438,0,0,1-.131.03.4.4,0,0,1-.321-.152q-.752-.768-1.686-1.56" transform="translate(-222.285 -24.832)" fill="#fff"/>
    <path id="Path_12065" data-name="Path 12065" d="M366.444,34.081c.008.105.035.156.083.152q1.474-.1,2.948-.2.248-.016.449.307a1.73,1.73,0,0,1,.233.815l.636,9.99a1.755,1.755,0,0,1-.125.837q-.156.346-.4.361l-.566.037q-.172.011-.309-.217a1.192,1.192,0,0,1-.158-.543c-.005-.079-.025-.117-.058-.114q-.931.062-1.862.127c-.047,0-.067.057-.06.162q.129,1.848.257,3.7a1.762,1.762,0,0,1-.118.838q-.152.346-.393.363l-.381.027q-.241.017-.441-.3a1.762,1.762,0,0,1-.235-.813q-.134-1.848-.267-3.7-.011-.157-.082-.152l-1.8.133q-.061,0-.052.122a1.405,1.405,0,0,1-.092.659q-.121.286-.312.3l-.434.033c-.161.012-.31-.091-.445-.311a1.764,1.764,0,0,1-.24-.8l-.788-10.118a1.728,1.728,0,0,1,.116-.839c.1-.232.237-.354.4-.367q1.411-.108,2.823-.21c.048,0,.068-.057.061-.162l-.1-1.4a1.733,1.733,0,0,1,.122-.829q.156-.357.4-.375l.394-.028q.248-.018.453.314a1.733,1.733,0,0,1,.238.8l.1,1.4M365.06,37.3q-.012-.157-.083-.152l-1.816.134c-.048,0-.068.058-.06.163q.046.619.093,1.238c.008.105.036.155.083.152q.906-.068,1.811-.134.071,0,.06-.162Zm-1.544,5.646q.012.158.083.152l1.8-.133q.071,0,.06-.162l-.092-1.278q-.011-.157-.083-.152l-1.8.133c-.048,0-.068.058-.06.162q.048.639.1,1.277m5.155-5.9c-.007-.1-.034-.156-.082-.153q-.934.062-1.868.127-.072,0-.061.162l.086,1.239c.008.105.035.156.083.152l1.863-.127c.048,0,.068-.057.061-.162l-.082-1.239m-1.628,5.641c.007.1.035.156.082.152q.925-.064,1.85-.126c.048,0,.068-.057.061-.162q-.043-.639-.085-1.278-.01-.158-.082-.153-.927.062-1.854.126-.071,0-.06.162.044.639.089,1.278" transform="translate(-243.565 -21.273)" fill="#fff"/>
    <path id="Path_12066" data-name="Path 12066" d="M392.193,34.875c0-.052-.006-.1-.008-.138a1.573,1.573,0,0,1,.084-.657q.133-.363.361-.377h.01l.818-.029c.165-.01.307.1.424.33a1.658,1.658,0,0,1,.174.681c0,.039,0,.079.007.118q0,1.066.027,1.874.171,5.044.382,8.623.148,2.519,1.411,2.445c1.205-.068,2.168-1.158,2.9-3.275q.124-.361.348-.373h.02q.2-.01.362.3l.42.867a2.458,2.458,0,0,1,.23.955,2.172,2.172,0,0,1-.119.874,9.649,9.649,0,0,1-.639,1.384,8.31,8.31,0,0,1-.851,1.228,4.019,4.019,0,0,1-1.135.949,3.117,3.117,0,0,1-1.359.4,2.386,2.386,0,0,1-2.211-1.135,7.525,7.525,0,0,1-.993-3.75q-.086-1.4-.266-5.077t-.218-4.31q-.06-.983-.179-1.9" transform="translate(-264.29 -22.692)" fill="#fff"/>
    <path id="Path_12067" data-name="Path 12067" d="M420.623,37.724q.246-.011.439.316a1.738,1.738,0,0,1,.215.819q.11,2.51.219,5.02a.861.861,0,0,0,.052.274,2.257,2.257,0,0,0,2.134,1.607,15.53,15.53,0,0,0,1.558.018,24.269,24.269,0,0,0,2.953-.3h.03q.182-.006.3.286a1.124,1.124,0,0,1,.095.431,1.173,1.173,0,0,1-.022.257q-.048.4-.1.772a2.23,2.23,0,0,1-.244.856q-.19.341-.441.35-1.173.137-2.2.176-.995.037-1.852-.007a3.08,3.08,0,0,1-1.586-.467A3.737,3.737,0,0,1,421,46.663c-.037-.078-.071-.083-.1-.015q-.447.849-.828,1.537a.359.359,0,0,1-.272.21.3.3,0,0,1-.112-.015.694.694,0,0,1-.346-.5q-.133-.468-.267-.934a2.313,2.313,0,0,1-.086-.529,2.92,2.92,0,0,1,.011-.4,1.512,1.512,0,0,1,.259-.723q.391-.511.713-1a.442.442,0,0,0,.05-.239l-.159-3.465c0-.092-.03-.137-.078-.134l-.4.019q-.245.011-.439-.325a1.756,1.756,0,0,1-.217-.808q-.009-.187-.018-.374a1.74,1.74,0,0,1,.139-.835q.163-.343.409-.355l1.361-.062m.211-5.237a1.547,1.547,0,0,1,.2.721.609.609,0,0,1-.006.1,1.606,1.606,0,0,1-.182.8l-.268.465a.452.452,0,0,1-.349.272.167.167,0,0,1-.073-.016q-.239-.028-.42-.4a16.153,16.153,0,0,0-.884-1.478,1.4,1.4,0,0,1-.21-.72,1.323,1.323,0,0,1,.15-.757l.183-.3a.641.641,0,0,1,.46-.357h.021a.552.552,0,0,1,.47.294,15.972,15.972,0,0,1,.91,1.38m2.906,3.173a.991.991,0,0,1,.15-.509.289.289,0,0,1,.3-.159c.014,0,.025-.011.035-.031a.053.053,0,0,0,0-.05q-.08-.726-.14-1.493-.005-.137-.088-.135l-1.1.044q-.258.011-.447-.327a1.783,1.783,0,0,1-.209-.81q-.01-.226-.019-.453a1.776,1.776,0,0,1,.142-.824c.108-.234.248-.355.42-.362q.948-.039,1.895-.074.248-.009.447.328a1.877,1.877,0,0,1,.237.81q.118,1.829.312,3.331t.5,2.93a14.168,14.168,0,0,0,.784,2.556,8.453,8.453,0,0,0,1.093,1.915,1.116,1.116,0,0,1,.226.7,1.247,1.247,0,0,1-.122.615l-.3.641a.8.8,0,0,1-.41.467l-.1,0a.451.451,0,0,1-.361-.2,14.215,14.215,0,0,1-2.012-5.015q-.012-.039-.032-.038c-.014,0-.023.014-.029.04a16.89,16.89,0,0,1-1.57,5.11.473.473,0,0,1-.364.271l-.071,0a.715.715,0,0,1-.442-.4l-.329-.578a1.322,1.322,0,0,1-.18-.643,1.383,1.383,0,0,1,.16-.776,15.619,15.619,0,0,0,1.63-6.891" transform="translate(-282.119 -20.539)" fill="#fff"/>
    <path id="Path_12068" data-name="Path 12068" d="M460.721,41.538a1.6,1.6,0,0,1,.317.744,3.132,3.132,0,0,1,.037.433,2.978,2.978,0,0,1-.043.533q-.123.613-.245,1.226a.64.64,0,0,1-.286.5.371.371,0,0,1-.111.022.337.337,0,0,1-.277-.192q-.157-.234-.281-.429-.062-.077-.09.061a10.659,10.659,0,0,1-1.9,4.392.565.565,0,0,1-.418.245l-.081,0a.717.717,0,0,1-.481-.364l-.418-.641a1.01,1.01,0,0,1-.143-.529l0-.118a.868.868,0,0,1,.2-.576,8.543,8.543,0,0,0,1.911-4.062.233.233,0,0,0-.045-.216,5.564,5.564,0,0,0-2.015-1.337c-.048-.012-.081.028-.1.12q-.7,3.427-.992,4.42a4.375,4.375,0,0,1-.72,1.507,1.3,1.3,0,0,1-1,.51,1.414,1.414,0,0,1-1.253-.9,5.763,5.763,0,0,1-.559-2.576,7.513,7.513,0,0,1,.864-3.988,3.494,3.494,0,0,1,2.481-1.92c.047-.014.081-.061.1-.14q.492-2.5.569-2.813a.187.187,0,0,0-.008-.1c-.011-.026-.027-.039-.047-.038q-.966.082-1.5.156c-.075.015-.171.031-.287.047a.115.115,0,0,1-.061.022c-.138,0-.263-.085-.378-.266a1.494,1.494,0,0,1-.217-.763q-.021-.374-.041-.748a1.529,1.529,0,0,1,.144-.792q.157-.3.384-.306h.031a2.94,2.94,0,0,0,.311.011,14.309,14.309,0,0,0,2.106-.189,1.767,1.767,0,0,0,.236-.065,1.214,1.214,0,0,1,.3-.046.907.907,0,0,1,.775.437l.053.078a1.583,1.583,0,0,1,.222.744c0,.039,0,.079,0,.118a2.325,2.325,0,0,1-.1.751l-.01.02q-.279.992-.832,3.9c-.019.092,0,.145.044.157a6.842,6.842,0,0,1,1.77.969c.048.039.075.012.08-.08,0-.026,0-.053,0-.079q.019-.631.008-1.182a1.742,1.742,0,0,1,.149-.811q.138-.278.334-.282a.112.112,0,0,1,.062.019l.453.091q.247.055.417.427a1.773,1.773,0,0,1,.166.746.378.378,0,0,1-.009.1q-.021,1.222-.095,2.307a.273.273,0,0,0,.055.216q.218.252.457.525m-7.237,2.976q.253-.007.468-.7.243-.795.6-2.441a.126.126,0,0,0-.007-.079c-.011-.026-.026-.032-.046-.019a2.164,2.164,0,0,0-.987,1.022,3.085,3.085,0,0,0-.33,1.478,1.519,1.519,0,0,0,.1.53q.087.215.209.211" transform="translate(-304.419 -21.814)" fill="#fff"/>
    <path id="Path_12069" data-name="Path 12069" d="M484.224,37.3a.361.361,0,0,1-.113.021.4.4,0,0,1-.321-.213,1.387,1.387,0,0,1-.226-.746q-.032-.482-.064-.965c0-.039,0-.079,0-.118a1.687,1.687,0,0,1,.135-.711q.16-.357.408-.38a2.508,2.508,0,0,0,.463-.065c.089-.014.668-.113,1.736-.294s1.982-.337,2.739-.472q1.053-.162,2.438-.3h.031q.238,0,.4.315a1.806,1.806,0,0,1,.186.808q0,.394,0,.788a1.789,1.789,0,0,1-.175.818.56.56,0,0,1-.432.365,4.637,4.637,0,0,0-1.388.219,3.182,3.182,0,0,0-1.466,1.9,8.689,8.689,0,0,0-.6,3.295,5.018,5.018,0,0,0,.718,2.863,3.249,3.249,0,0,0,1.91,1.323c.148.039.264.177.345.413a1.515,1.515,0,0,1,.082.492,1.561,1.561,0,0,1-.03.3q-.1.581-.19,1.163a1.79,1.79,0,0,1-.3.769.475.475,0,0,1-.362.218.4.4,0,0,1-.121-.02,4.384,4.384,0,0,1-1.839-1.184,6.349,6.349,0,0,1-1.326-2.326,10.415,10.415,0,0,1-.531-3.345,13.583,13.583,0,0,1,.35-3.324,10.077,10.077,0,0,1,.864-2.421.086.086,0,0,0,0-.059q-.011-.039-.021-.02a22.533,22.533,0,0,0-3.3.9m5.724,2.026a1.587,1.587,0,0,1-.063-.433,1.376,1.376,0,0,1,.02-.236.739.739,0,0,1,.224-.493.347.347,0,0,1,.225-.1.342.342,0,0,1,.185.059.8.8,0,0,1,.319.473q.164.513.319,1.044a1.653,1.653,0,0,1,.052.414,2.492,2.492,0,0,1-.02.315.872.872,0,0,1-.265.532.333.333,0,0,1-.2.079.34.34,0,0,1-.184-.059.913.913,0,0,1-.3-.512q-.155-.61-.31-1.083m1.207-.928a1.429,1.429,0,0,1-.072-.453,1.244,1.244,0,0,1,.02-.217.826.826,0,0,1,.225-.512.355.355,0,0,1,.236-.1.381.381,0,0,1,.164.039.823.823,0,0,1,.328.453q.174.493.327.985a1.568,1.568,0,0,1,.071.453,1.909,1.909,0,0,1-.021.276.964.964,0,0,1-.246.552.344.344,0,0,1-.225.1.292.292,0,0,1-.174-.059.771.771,0,0,1-.307-.493q-.154-.532-.329-1.024" transform="translate(-325.829 -22.279)" fill="#fff"/>
    <path id="Path_12070" data-name="Path 12070" d="M517.484,36.4q0,.306-.005.611c0,.106.026.145.081.119a4.578,4.578,0,0,1,1.753-.376,2.369,2.369,0,0,1,1.492.542,3.562,3.562,0,0,1,1.054,1.592,6.891,6.891,0,0,1,.367,2.5,8.639,8.639,0,0,1-.578,3.193,3.54,3.54,0,0,1-1.8,1.9,3.443,3.443,0,0,1-.789.227.251.251,0,0,1-.091.019.5.5,0,0,1-.39-.241,1.855,1.855,0,0,1-.3-.772q-.081-.474-.162-.948a1.87,1.87,0,0,1-.018-.276,1.517,1.517,0,0,1,.075-.472q.135-.354.358-.351a2.862,2.862,0,0,0,.69-.13,1.846,1.846,0,0,0,1-.746,2.56,2.56,0,0,0,.395-1.443,2.337,2.337,0,0,0-.352-1.4,1.174,1.174,0,0,0-1-.525,3.879,3.879,0,0,0-1.695.4q-.082.039-.073.177.015,2.878.011,3.37a7.958,7.958,0,0,1-.347,2.746q-.329.756-.932.752a1.772,1.772,0,0,1-1.15-.529,4.1,4.1,0,0,1-.992-1.482,5.134,5.134,0,0,1-.4-2.041,5.741,5.741,0,0,1,.643-2.58,6.6,6.6,0,0,1,1.636-2.12.271.271,0,0,0,.073-.216q-.007-.473,0-1.4,0-.5.006-1.005c0-.092-.023-.138-.071-.138a2.94,2.94,0,0,1-.38.017c-.4,0-.7-.01-.912-.024q-.257-.021-.43-.386a2.073,2.073,0,0,1-.182-.858q0-.3,0-.591a1.488,1.488,0,0,1,.167-.768q.166-.295.382-.294h.041a8.568,8.568,0,0,0,.906.044l.423,0c.048-.013.072-.065.073-.158q0-.562.007-1.123-.007-.444-.015-.887a1.625,1.625,0,0,1,.16-.728c.105-.236.24-.353.407-.352l.518,0q.238,0,.4.358a1.649,1.649,0,0,1,.128.691c0,.039,0,.079,0,.118q-.024.453-.038.788-.02.433-.039.867a.213.213,0,0,0,.019.1.06.06,0,0,0,.051.04,7.685,7.685,0,0,0,1.138-.383.41.41,0,0,1,.124-.018.367.367,0,0,1,.286.2,1.3,1.3,0,0,1,.188.712q0,.345-.008.69a2.226,2.226,0,0,1-.165.895.747.747,0,0,1-.426.478,10.887,10.887,0,0,1-1.2.3c-.055.013-.083.072-.084.177q-.014.374-.021,1.143m-1.732,7.141a.237.237,0,0,0,.219-.146,1.681,1.681,0,0,0,.08-.64q0-.237-.009-1.714a.111.111,0,0,0-.02-.079.027.027,0,0,0-.041,0,2.675,2.675,0,0,0-.771,1.71,1.018,1.018,0,0,0,.185.6q.185.267.357.268m4.628-9.237a1.151,1.151,0,0,1-.29-.674,1.986,1.986,0,0,1-.026-.335,1.95,1.95,0,0,1,.079-.531l.107-.314a1.01,1.01,0,0,1,.369-.586.4.4,0,0,1,.2-.056.391.391,0,0,1,.277.142q.9.861,1.581,1.661a1.39,1.39,0,0,1,.265.734,1.987,1.987,0,0,1,.015.3,2.067,2.067,0,0,1-.092.59l-.152.451a.8.8,0,0,1-.367.506.432.432,0,0,1-.133.018.4.4,0,0,1-.3-.182q-.673-.838-1.524-1.717" transform="translate(-346.167 -19.705)" fill="#fff"/>
    <path id="Path_12071" data-name="Path 12071" d="M546.586,33.451a1.156,1.156,0,0,1,.424-.542.468.468,0,0,1,.217-.054.417.417,0,0,1,.275.125l.222.183a.968.968,0,0,1,.273.618,1.533,1.533,0,0,1,.023.3,1.555,1.555,0,0,1-.105.53q-.3.781-.6,1.464a.682.682,0,0,0-.057.275l-.228,9.732a1.763,1.763,0,0,1-.2.823q-.183.331-.424.325l-.262-.006q-.251-.005-.415-.344a1.81,1.81,0,0,1-.154-.831q.069-3.31.139-6.62c0-.026-.006-.043-.019-.05a.034.034,0,0,0-.041.009q-.138.253-.275.467-.116.195-.259.192a.219.219,0,0,1-.121-.042.711.711,0,0,1-.285-.518q-.093-.475-.186-.93a2.605,2.605,0,0,1-.06-.612,2.944,2.944,0,0,1,.026-.335,1.845,1.845,0,0,1,.271-.783,18.424,18.424,0,0,0,1.813-3.372m-.253-4.46a1.134,1.134,0,0,1,.447-.522.47.47,0,0,1,.219-.054.457.457,0,0,1,.287.125l.325.264a.844.844,0,0,1,.266.6c0,.079.006.158,0,.236a1.26,1.26,0,0,1-.116.51,21.748,21.748,0,0,1-2.091,3.6.39.39,0,0,1-.3.191.276.276,0,0,1-.133-.042.815.815,0,0,1-.339-.519c-.045-.172-.09-.337-.135-.5a2.045,2.045,0,0,1-.081-.613,1.882,1.882,0,0,1,.026-.276,1.681,1.681,0,0,1,.262-.744,13.214,13.214,0,0,0,1.359-2.258m7.208,10.845q.245.008.41.359a1.758,1.758,0,0,1,.15.824c0,.046,0,.092,0,.138a1.756,1.756,0,0,1-.206.821q-.189.329-.432.321l-.679-.022c-.047,0-.073.05-.076.155q-.035,1.083-.071,2.167a7.387,7.387,0,0,1-.171,1.522,1.6,1.6,0,0,1-.459.823,1.617,1.617,0,0,1-1.047.362h-.03A.526.526,0,0,1,550.51,47a2.032,2.032,0,0,1-.268-.816q-.093-.633-.208-1.209c-.018-.092-.047-.106-.089-.042l-.262.328a.417.417,0,0,1-.328.188.373.373,0,0,1-.11-.023.716.716,0,0,1-.381-.484q-.16-.437-.38-.936a1.633,1.633,0,0,1-.114-.673,1.146,1.146,0,0,1,.014-.138,1.252,1.252,0,0,1,.231-.7l.209-.251a.077.077,0,0,0,.007-.049c0-.02-.008-.03-.015-.03l-.659-.017q-.243-.006-.412-.345a1.753,1.753,0,0,1-.157-.832c0-.046,0-.092,0-.138a1.762,1.762,0,0,1,.2-.813c.124-.227.268-.338.431-.334q1.48.037,2.961.082c.047,0,.073-.044.075-.136.005-.171.01-.341.015-.512,0-.105-.019-.158-.067-.16q-1.34-.04-2.68-.074-.255-.006-.42-.346a1.783,1.783,0,0,1-.153-.832c0-.02,0-.039,0-.059a1.79,1.79,0,0,1,.194-.813q.182-.34.438-.334,2.413.062,4.827.143.256.009.418.359a1.788,1.788,0,0,1,.146.823l0,.059a1.788,1.788,0,0,1-.2.821c-.123.219-.27.326-.44.32l-.448-.015q-.071,0-.076.155-.008.256-.017.512,0,.138.067.14l.682.023m-.114-11.026q.249.008.418.359a1.732,1.732,0,0,1,.153.823q-.084,2.452-.167,4.9a1.748,1.748,0,0,1-.207.811q-.191.339-.436.33-2.063-.068-4.126-.122-.256-.007-.421-.356a1.8,1.8,0,0,1-.153-.822q.062-2.453.124-4.905a1.777,1.777,0,0,1,.2-.813q.185-.34.444-.334,2.087.055,4.174.124m-2.316,15.66q.031-1.044.063-2.088c0-.105-.019-.158-.066-.16l-1.642-.047c-.013,0-.024.013-.031.038a.057.057,0,0,0,.008.06q.49,1.018.762,1.736a.823.823,0,0,1,.035.356.641.641,0,0,1-.105.312.041.041,0,0,0,0,.039q.312.029.786.043a.2.2,0,0,0,.149-.074.468.468,0,0,0,.042-.216m1.208-13.034c.048,0,.073-.044.077-.136q.005-.178.011-.354c0-.092-.02-.139-.068-.14q-1.094-.034-2.189-.065-.083,0-.086.136l-.01.354q0,.138.078.14,1.094.03,2.187.065m-.08,2.541q.072,0,.076-.136c0-.125.008-.249.012-.374,0-.092-.02-.139-.068-.14q-1.09-.034-2.18-.065c-.055,0-.083.044-.086.136,0,.125-.007.249-.01.374q0,.138.078.14,1.089.03,2.178.065" transform="translate(-366.921 -19.149)" fill="#fff"/>
    <path id="Path_12072" data-name="Path 12072" d="M582.022,33.235a.42.42,0,0,1,.125-.015.372.372,0,0,1,.281.19,1.251,1.251,0,0,1,.154.717c0,.151-.007.3-.01.453a2.42,2.42,0,0,1-.19.919.806.806,0,0,1-.449.493q-.543.194-1.115.347c-.049.011-.084.063-.109.153q-.394,1.8-.966,3.786T578.57,43.9a.9.9,0,0,1-.406.537.436.436,0,0,1-.174.033.431.431,0,0,1-.3-.149l-.419-.449a1.051,1.051,0,0,1-.23-.66,1.369,1.369,0,0,1-.011-.237,1.632,1.632,0,0,1,.122-.567,45.784,45.784,0,0,0,1.882-5.707.123.123,0,0,0,0-.079c-.009-.027-.021-.041-.035-.041l-.266-.01q-.39-.015-.737-.048a.592.592,0,0,1-.433-.382,1.914,1.914,0,0,1-.179-.864c0-.151,0-.3.007-.453a1.491,1.491,0,0,1,.172-.763q.165-.29.382-.282l.041,0q.462.057.843.071a6.9,6.9,0,0,0,.743-.01q.072-.016.1-.153.163-.979.275-1.962a1.769,1.769,0,0,1,.249-.779.461.461,0,0,1,.383-.24l.062,0,.524.121q.236.049.366.429a1.627,1.627,0,0,1,.079.576,1.686,1.686,0,0,1-.032.255q-.111.646-.23,1.252a.15.15,0,0,0,.006.1c.012.027.026.034.04.022a6.575,6.575,0,0,0,.63-.229m.308,5.122a1.822,1.822,0,0,1,.188-.76q.179-.328.435-.316l.369.017c.164.007.3.129.4.364a1.941,1.941,0,0,1,.141.825q-.005.118-.067,1.634,0,.178-.04,1.931a.271.271,0,0,0,.061.22,7.107,7.107,0,0,1,1.515,1.87,1.649,1.649,0,0,1,.2.819c0,.066,0,.138,0,.217a2.234,2.234,0,0,1-.147.7l-.223.62q-.14.368-.365.416a.184.184,0,0,1-.082.016q-.181-.009-.31-.272-.36-.688-.681-1.2a.032.032,0,0,0-.045,0,.07.07,0,0,0-.028.058q-.254,3.2-2.213,3.114a2.058,2.058,0,0,1-1.69-1.009,4.442,4.442,0,0,1-.569-2.656,5.094,5.094,0,0,1,.736-2.613,1.965,1.965,0,0,1,1.824-.987,2.653,2.653,0,0,1,.456.06c.054.016.079-.023.077-.115q.053-2.779.061-2.956m-.126,5.755q.007-.138-.064-.161a1.949,1.949,0,0,0-.623-.146.74.74,0,0,0-.609.24,1.051,1.051,0,0,0-.253.689,1.4,1.4,0,0,0,.164.8.6.6,0,0,0,.507.318.633.633,0,0,0,.636-.426,3.7,3.7,0,0,0,.241-1.311m3.811-8.5a1.226,1.226,0,0,1,.231.722c0,.092,0,.178,0,.257a1.913,1.913,0,0,1-.135.624l-.246.6a.7.7,0,0,1-.4.453.383.383,0,0,1-.113.014.426.426,0,0,1-.327-.233,17.252,17.252,0,0,0-1.445-1.766,1.117,1.117,0,0,1-.247-.663,2.3,2.3,0,0,1-.007-.3,1.716,1.716,0,0,1,.107-.528l.175-.445a.969.969,0,0,1,.418-.553.552.552,0,0,1,.2-.03.457.457,0,0,1,.283.131q.827.85,1.514,1.713" transform="translate(-388.86 -20.694)" fill="#fff"/>
    <path id="Path_12073" data-name="Path 12073" d="M615.81,40.73a.3.3,0,0,1,.145-.03.4.4,0,0,1,.294.2,1.362,1.362,0,0,1,.208.725q.015.465.03.93a1.417,1.417,0,0,1,0,.237,1.714,1.714,0,0,1-.153.6q-.167.364-.4.408l-.347.086c-.149.037-.237.061-.265.072-.1.02-.39.086-.859.2s-.862.209-1.179.281c-.048.01-.072.068-.072.173q.093,2.454.122,3.285.028.358.063.932a1.911,1.911,0,0,1,0,.277,1.822,1.822,0,0,1-.126.565q-.156.385-.392.45l-.636.178a.283.283,0,0,1-.1.014q-.181-.011-.317-.256a1.464,1.464,0,0,1-.177-.761q.006-.611-.013-.968,0-.316-.109-3.3c0-.092-.03-.133-.084-.123q-1.654.436-2.273.64c-.214.068-.389.117-.526.149a.394.394,0,0,1-.122.013.431.431,0,0,1-.315-.194,1.492,1.492,0,0,1-.215-.742q-.03-.485-.06-.97,0-.1,0-.217a1.7,1.7,0,0,1,.133-.585q.162-.366.409-.393l.578-.127q.155-.031.947-.224t1.342-.318q.072-.016.071-.173-.051-1.237-.1-2.473c-.008-.106-.036-.153-.084-.143q-1.334.338-1.864.487-.229.067-.449.153a.292.292,0,0,1-.145.032.4.4,0,0,1-.3-.193,1.362,1.362,0,0,1-.218-.722q-.024-.524-.047-1.048c0-.079,0-.151,0-.217a1.586,1.586,0,0,1,.145-.6q.162-.347.411-.373a3.036,3.036,0,0,0,.427-.076q.76-.136,1.91-.406c.056-.01.08-.068.072-.174q-.033-.762-.068-1.524-.016-.257-.034-.5a2.277,2.277,0,0,1,0-.3,1.606,1.606,0,0,1,.124-.546q.147-.386.388-.432l.621-.161.093.006a.456.456,0,0,1,.339.237,1.547,1.547,0,0,1,.182.781c0,.2.006.363.012.494q0,.1.05,1.563c.009.093.037.134.086.124q1.038-.253,1.828-.479.252-.063.538-.163a.526.526,0,0,1,.135-.011.434.434,0,0,1,.308.2,1.3,1.3,0,0,1,.2.724q.012.455.023.91a1.9,1.9,0,0,1,0,.2,1.646,1.646,0,0,1-.154.622.685.685,0,0,1-.419.427c-.277.048-.441.077-.489.087l-1.859.457c-.056.01-.079.061-.071.154q.042,1.246.084,2.493c.008.093.036.134.085.124q1.456-.384,2.063-.561a5.786,5.786,0,0,0,.577-.2" transform="translate(-409.685 -21.935)" fill="#fff"/>
    <path id="Path_12074" data-name="Path 12074" d="M643.609,54.339a.809.809,0,0,1-.463.458.346.346,0,0,1-.155.027.49.49,0,0,1-.332-.184l-.281-.318a.991.991,0,0,1-.187-.627,1.3,1.3,0,0,1,0-.158,1.356,1.356,0,0,1,.167-.58,19.742,19.742,0,0,0,1.128-2.285.094.094,0,0,0,0-.069c-.009-.021-.02-.031-.033-.032-.314.082-.948.276-1.9.586-.05.023-.071.081-.064.173.262,3.88.406,6.091.445,6.634q.02.278.057.716a1.77,1.77,0,0,1,0,.336,1.943,1.943,0,0,1-.109.506.814.814,0,0,1-.392.5l-.551.216a.5.5,0,0,1-.132.01.392.392,0,0,1-.288-.2,1.377,1.377,0,0,1-.2-.726q-.006-.455-.041-.813-.046-.616-.191-3.067t-.219-3.582c-.006-.106-.034-.147-.083-.125q-.775.26-1.225.427a.511.511,0,0,1-.134.01.435.435,0,0,1-.313-.2,1.4,1.4,0,0,1-.224-.746l-.037-.654a1.753,1.753,0,0,1,0-.257,1.62,1.62,0,0,1,.129-.544q.169-.363.408-.406l.417-.09q.271-.06.806-.219.073-.014.062-.154-.055-.952-.107-1.529-.014-.238-.047-.5a1.647,1.647,0,0,1-.014-.376,1.8,1.8,0,0,1,.093-.448.69.69,0,0,1,.354-.469l.541-.2a.3.3,0,0,1,.146-.029.4.4,0,0,1,.294.219,1.359,1.359,0,0,1,.2.726c0,.053.005.109.008.169s.006.126.011.2a1.289,1.289,0,0,1,0,.149l.116,1.629c.006.106.034.148.083.125,1.744-.5,2.743-.791,2.99-.878l.021,0a1.011,1.011,0,0,1,.385-.049.836.836,0,0,1,.654.448l.037.042a1.674,1.674,0,0,1,.213.808,2.478,2.478,0,0,1-.005.316,2.27,2.27,0,0,1-.131.6q-.929,2.456-1.923,4.472" transform="translate(-429.849 -30.567)" fill="#fff"/>
    <path id="Path_12075" data-name="Path 12075" d="M664.413,55.878a.459.459,0,0,1-.184.024.512.512,0,0,1-.32-.166,1.537,1.537,0,0,1-.337-.681l-.316-1.312a1.327,1.327,0,0,1-.028-.4,1.258,1.258,0,0,1,.066-.311c.075-.244.185-.387.331-.427a7.925,7.925,0,0,0,3.474-1.994,14.977,14.977,0,0,0,2.441-2.974,22.766,22.766,0,0,0,1.913-3.69q.132-.3.319-.306h.011c.123.012.205.126.246.34q.132.725.263,1.451a3.485,3.485,0,0,1,.038.993,3.193,3.193,0,0,1-.252,1.005,22.765,22.765,0,0,1-1.965,3.455,17.911,17.911,0,0,1-2.386,2.827,9.289,9.289,0,0,1-3.314,2.161m.274-13.247a1.522,1.522,0,0,1-.143-.763.689.689,0,0,1,0-.119,1.471,1.471,0,0,1,.212-.674l.447-.753a.687.687,0,0,1,.468-.376l.083.007a.509.509,0,0,1,.37.289,32.68,32.68,0,0,1,1.562,2.985,1.689,1.689,0,0,1,.111.841,1.856,1.856,0,0,1-.247.809l-.538.842q-.193.319-.437.3a.5.5,0,0,1-.4-.352,32.429,32.429,0,0,0-1.484-3.034" transform="translate(-446.945 -26.92)" fill="#fff"/>
    <path id="Path_12076" data-name="Path 12076" d="M694.819,55.378q-.169.36-.406.375a.069.069,0,0,1-.053.014c-.128-.013-.229-.122-.3-.327q-.258-.679-.519-1.359a1.609,1.609,0,0,1-.088-.761,1.736,1.736,0,0,1,.276-.824q.216-.315.566-.835.194-.3.5-.821t.551-.964q.246-.44.7-1.246t.671-1.2q.621-1.1,1.152-1.109l.041,0q.5.053,1.048,1.161.685,1.441,1.685,4.266c.864,2.435,1.413,4.038,1.667,4.807a2.208,2.208,0,0,1-.206,1.722l-.674,1.093q-.186.3-.4.273l-.03,0c-.153-.03-.262-.168-.33-.414-.615-2.21-1.051-3.718-1.3-4.524q-.357-1.149-.787-2.4t-.641-1.713q-.193-.417-.366-.435h-.01c-.122-.013-.266.138-.428.451-.258.5-.873,1.745-1.833,3.733q-.221.453-.484,1.04m5.84-6.011a4.762,4.762,0,0,1,.421-3.829,1.183,1.183,0,0,1,1.089-.672q.6.067.918.906a4.152,4.152,0,0,1,.192,1.965,4.063,4.063,0,0,1-.625,1.853,1.187,1.187,0,0,1-1.087.661q-.592-.066-.909-.884m.869-2.66a2.043,2.043,0,0,0-.183,1.645c.091.241.221.371.392.391s.326-.079.468-.295a2.039,2.039,0,0,0,.185-1.645q-.136-.362-.392-.391c-.171-.019-.327.079-.469.295" transform="translate(-467.308 -30.231)" fill="#fff"/>
    <path id="Path_12077" data-name="Path 12077" d="M726.508,66.826l-.03,0q-.223-.026-.348-.358a1.545,1.545,0,0,1-.092-.8q.089-.764.178-1.527a1.609,1.609,0,0,1,.274-.762.465.465,0,0,1,.422-.248l.031,0q.734.166,1.193.22,2.771.331,5.54.686a4.873,4.873,0,0,0,.69.029l.04.005c.143.018.256.133.339.342a1.5,1.5,0,0,1,.083.786l-.2,1.524a1.663,1.663,0,0,1-.287.777q-.2.272-.413.244l-.04-.005a5.3,5.3,0,0,0-.671-.146q-2.752-.354-5.508-.682-.526-.063-1.2-.083" transform="translate(-489.266 -42.537)" fill="#fff"/>
    <path id="Path_12078" data-name="Path 12078" d="M755.031,66a.458.458,0,0,1-.185.015.511.511,0,0,1-.312-.181,1.538,1.538,0,0,1-.3-.7q-.126-.663-.252-1.326a1.31,1.31,0,0,1-.008-.4,1.247,1.247,0,0,1,.082-.308c.087-.24.2-.377.352-.41a7.935,7.935,0,0,0,3.572-1.822,14.976,14.976,0,0,0,2.587-2.85,22.746,22.746,0,0,0,2.093-3.591q.147-.3.334-.29l.01,0q.183.027.23.352.1.731.192,1.462a3.478,3.478,0,0,1-.011.994,3.175,3.175,0,0,1-.3.992,22.708,22.708,0,0,1-2.134,3.354A17.9,17.9,0,0,1,758.451,64a9.313,9.313,0,0,1-3.42,2m.921-13.218a1.522,1.522,0,0,1-.105-.77.648.648,0,0,1,.005-.118,1.459,1.459,0,0,1,.245-.663l.484-.73a.689.689,0,0,1,.486-.352l.082.011a.508.508,0,0,1,.355.307,32.7,32.7,0,0,1,1.417,3.059,1.686,1.686,0,0,1,.07.845,1.857,1.857,0,0,1-.287.8l-.579.815c-.139.206-.29.3-.452.276s-.3-.147-.384-.371a32.354,32.354,0,0,0-1.336-3.1" transform="translate(-508.091 -33.795)" fill="#fff"/>
    <path id="Path_12079" data-name="Path 12079" d="M792.157,63.639a1.765,1.765,0,0,1-.308.778q-.231.312-.472.272-1.239-.2-2.478-.4c-.014,0-.025.006-.035.024a.087.087,0,0,0,0,.07,4.428,4.428,0,0,0,2.315,2.469q.183.07.2.431a1.556,1.556,0,0,1-.022.256,1.152,1.152,0,0,1-.12.36c-.108.2-.215.4-.324.606a1.466,1.466,0,0,1-.487.6.457.457,0,0,1-.357.122.345.345,0,0,1-.143-.063,5.037,5.037,0,0,1-1.69-1.678,8.057,8.057,0,0,1-.953-2.574q-.022-.123-.087-.034A7.415,7.415,0,0,1,783.518,68a.417.417,0,0,1-.218.027.44.44,0,0,1-.262-.159,1.446,1.446,0,0,1-.309-.664q-.06-.288-.121-.556a1.026,1.026,0,0,1-.026-.442,1.3,1.3,0,0,1,.052-.212q.115-.361.317-.411A5.692,5.692,0,0,0,785.7,63.87a.052.052,0,0,0,.023-.046c0-.02-.008-.031-.021-.033q-1.085-.167-2.17-.329-.251-.038-.371-.4a1.8,1.8,0,0,1-.051-.834c.009-.065.019-.13.029-.2a1.788,1.788,0,0,1,.293-.793.5.5,0,0,1,.473-.268q1.463.219,2.925.445c.054.008.1-.038.125-.14q.056-.23.134-.6c.016-.1,0-.159-.047-.167q-.924-.143-1.848-.283-.242-.037-.369-.395a2,2,0,0,1,.247-1.637q.228-.3.471-.268.933.142,1.866.286c.047.007.079-.041.1-.145l.087-.565c.014-.091,0-.14-.05-.147q-1.015-.157-2.031-.311-.254-.038-.375-.405a1.786,1.786,0,0,1-.051-.834l.029-.2c.014-.091-.007-.141-.061-.149l-.275-.041q-.255-.038-.377-.405a1.79,1.79,0,0,1-.052-.835l.334-2.242a1.777,1.777,0,0,1,.295-.783q.225-.315.482-.277,1.528.229,3.056.466c.048.007.079-.034.093-.125s.03-.195.045-.292a1.715,1.715,0,0,1,.307-.79.517.517,0,0,1,.478-.265l.37.058q.246.039.374.4a1.715,1.715,0,0,1,.051.846l-.046.292q-.022.136.05.148,1.537.243,3.073.493.256.042.375.41a1.78,1.78,0,0,1,.041.835l-.367,2.236a1.789,1.789,0,0,1-.3.779q-.229.312-.483.27l-.183-.03c-.054-.009-.088.032-.1.123l-.031.194a1.789,1.789,0,0,1-.3.779q-.228.313-.481.271-1.126-.182-2.252-.359c-.047-.007-.078.035-.093.125l-.089.564c-.016.1,0,.159.047.167q1,.158,2.006.32c.162.026.285.159.367.4a2,2,0,0,1-.265,1.634q-.23.3-.472.263-1-.162-2.008-.32c-.047-.007-.082.04-.105.143q-.037.234-.126.6-.024.156.046.167,1.628.257,3.254.522.242.04.364.4a1.745,1.745,0,0,1,.042.846c-.011.065-.022.13-.032.195m-6.328-9.078c-.016.1,0,.16.058.168q1.019.155,2.038.312c.034.005.056-.024.066-.09a1.133,1.133,0,0,1,.193-.508.328.328,0,0,1,.309-.171l.755.118q.163.025.247.258a1.091,1.091,0,0,1,.034.544c-.01.065,0,.1.026.1q1.054.166,2.108.336c.055.009.09-.038.107-.143l.141-.875c.017-.1,0-.16-.057-.169q-2.892-.466-5.787-.9c-.055-.008-.09.04-.105.144l-.133.877" transform="translate(-527.372 -33.606)" fill="#fff"/>
    <path id="Path_12080" data-name="Path 12080" d="M819.751,71.009l1.336.238a.345.345,0,0,0,.351-.117,1.919,1.919,0,0,0,.268-.633,1,1,0,0,1,.325-.542.3.3,0,0,1,.218-.061A.274.274,0,0,1,822.4,70l.086.1a1.271,1.271,0,0,1,.28.672,1.917,1.917,0,0,1-.013.639,1.5,1.5,0,0,1-.066.248,4.365,4.365,0,0,1-.805,1.686,1.153,1.153,0,0,1-1.1.312l-1.619-.289a1.367,1.367,0,0,1-1.215-.934,6.981,6.981,0,0,1,.119-2.72l.544-3.126c.009-.052,0-.067-.023-.044a.178.178,0,0,1-.238-.031.48.48,0,0,1-.1-.328q-.026-.564-.053-1.129c0-.013,0-.017-.013-.012a.033.033,0,0,0-.02.027q-.63,3.471-.942,4.917a8.174,8.174,0,0,1-.547,1.865,2.293,2.293,0,0,1-.421.6.964.964,0,0,1-.449.233,1.061,1.061,0,0,1-.468.04l-.04-.007q-.219-.037-.349-.359a2.347,2.347,0,0,1-.1-.856q.01-.179.01-.358a1.392,1.392,0,0,1,.019-.237,1.336,1.336,0,0,1,.159-.453q.172-.29.372-.257l.03.005q.189.032.343-.262a9.614,9.614,0,0,0,.386-1.543q.261-1.285.814-4.409c.016-.091,0-.14-.047-.148l-.394-.067c-.054-.009-.092.031-.114.12a36.748,36.748,0,0,1-2.337,7.62q-.159.333-.38.316l-.01,0q-.209-.035-.3-.369a3.432,3.432,0,0,0-.149-.464,2.086,2.086,0,0,1-.084-.853q.009-.118.032-.255a2.612,2.612,0,0,1,.186-.628,22.341,22.341,0,0,0,1.3-4.03q.54-2.337,1.176-5.947c.017-.1,0-.16-.055-.169l-.254-.043q-.254-.042-.372-.4a1.767,1.767,0,0,1-.038-.845l.061-.369a1.77,1.77,0,0,1,.307-.778.512.512,0,0,1,.486-.269l.817.137c.047.008.079-.033.094-.124l.272-1.613a1.713,1.713,0,0,1,.317-.786.518.518,0,0,1,.481-.258l.257.043q.246.042.369.4a1.715,1.715,0,0,1,.04.847q-.138.806-.275,1.612c-.016.091,0,.14.048.148l.847.145q.255.044.37.414a1.773,1.773,0,0,1,.034.835l-.023.136c0,.026,0,.043.007.051s.019,0,.03-.025a18.271,18.271,0,0,0,1.28-3,1.433,1.433,0,0,1,.412-.668.432.432,0,0,1,.362-.137.418.418,0,0,1,.12.041l.3.173a.765.765,0,0,1,.279.57,1.721,1.721,0,0,1-.011.538,2.407,2.407,0,0,1-.075.307q-.1.282-.206.564a.154.154,0,0,0-.007.1c.009.028.021.043.034.046q1.19.21,2.379.426.245.044.362.416a1.735,1.735,0,0,1,.032.837l-.06.33a1.741,1.741,0,0,1-.324.772c-.159.2-.321.293-.483.263q-1.469-.266-2.938-.524-.071-.013-.133.1-.35.739-.722,1.374a.11.11,0,0,0-.02.086c0,.034.013.053.026.055l.051.009q.253.045.368.4a1.771,1.771,0,0,1,.029.846l-.055.31a.136.136,0,0,0,.01.092c.014.022.029.022.048,0l.209-.123a.242.242,0,0,0,.105-.182l.25-1.417a1.762,1.762,0,0,1,.317-.784.509.509,0,0,1,.485-.254l.051.009q.244.044.363.405a1.728,1.728,0,0,1,.032.847l-.055.31a.151.151,0,0,0,0,.091c.01.022.022.028.039.017l.342-.219a.907.907,0,0,1,.627-.168.57.57,0,0,1,.287.152l.259.247a.265.265,0,0,1,.075.194.675.675,0,0,1-.034.274l-.014.078q-.825,4.537-.967,5.152a2.191,2.191,0,0,1-.709,1.453.891.891,0,0,1-.382.171.258.258,0,0,1-.094,0c-.114-.021-.2-.117-.268-.289a1.977,1.977,0,0,1-.091-.817c.01-.171.018-.33.023-.476a.323.323,0,0,1,0-.08.676.676,0,0,1,.285-.429.386.386,0,0,0,.088-.2q.033-.134.431-2.345a.1.1,0,0,0-.013-.072c-.013-.022-.027-.028-.044-.018l-.3.186a.3.3,0,0,0-.1.2q-.363,2.027-.725,4.054a1.77,1.77,0,0,1-.319.774q-.236.309-.475.266l-.05-.009q-.25-.045-.36-.414a1.808,1.808,0,0,1-.028-.835q.263-1.484.525-2.969a.1.1,0,0,0-.011-.082.033.033,0,0,0-.046-.008l-.212.143a.244.244,0,0,0-.1.182l-.745,4.231a2.18,2.18,0,0,0-.054.831c.042.114.182.192.422.235m-1.384-6.984a.1.1,0,0,0,0,.09c.013.022.029.022.047,0l.629-.391a.271.271,0,0,0,.108-.2l.294-1.689a.553.553,0,0,0-.007-.262,18.014,18.014,0,0,0-.6-1.724.186.186,0,0,1,.023-.2c0-.006,0-.013,0-.019l-1.474-.252q-.081-.014-.108.142L817,61.011q-.023.136.058.15l1.155.2c.169.029.293.167.372.414a1.669,1.669,0,0,1,.028.835l-.245,1.418" transform="translate(-547.988 -36.226)" fill="#fff"/>
    <path id="Path_12081" data-name="Path 12081" d="M854.89,64.3q-.03.155.041.169,1.465.283,2.929.573.254.05.361.413a1.769,1.769,0,0,1,.011.846l-1.593,8a1.784,1.784,0,0,1-.332.778.5.5,0,0,1-.485.245l-.55-.109q-.18-.035-.257-.3a1.3,1.3,0,0,1-.009-.614c.012-.065,0-.1-.031-.107q-.925-.182-1.852-.361c-.047-.009-.079.032-.1.122l-.922,4.779a1.759,1.759,0,0,1-.33.779q-.237.3-.475.25l-.4-.076q-.238-.045-.349-.408a1.759,1.759,0,0,1-.019-.846q.455-2.391.909-4.782c.017-.09,0-.14-.044-.149q-.917-.175-1.834-.346c-.047-.008-.077.026-.092.1a1.427,1.427,0,0,1-.256.624.4.4,0,0,1-.384.2L848.4,74q-.24-.045-.354-.406a1.746,1.746,0,0,1-.025-.846q.748-4.06,1.5-8.12a1.721,1.721,0,0,1,.328-.781.516.516,0,0,1,.484-.251q1.425.264,2.85.535.071.014.1-.141.2-1.055.4-2.11a1.729,1.729,0,0,1,.332-.769q.243-.3.489-.258l.409.079q.246.047.359.42a1.729,1.729,0,0,1,.024.837L854.89,64.3m-4.837,5.861c-.019.1,0,.16.052.17q.917.171,1.833.346c.047.009.08-.038.1-.142l.648-3.407c.02-.1.006-.159-.041-.168q-.922-.175-1.844-.348-.081-.015-.11.14l-.637,3.409m3.575.679c-.02.1-.007.159.041.169q.921.178,1.841.358c.047.009.081-.038.1-.141q.335-1.7.668-3.4c.02-.1.007-.159-.04-.169l-1.853-.361c-.047-.009-.081.038-.1.141l-.657,3.405" transform="translate(-571.456 -41.006)" fill="#fff"/>
    <path id="Path_12082" data-name="Path 12082" d="M881.189,86.631a.931.931,0,0,1-1.719-.352,3.212,3.212,0,0,1-.027-1.624,3.259,3.259,0,0,1,.66-1.485.927.927,0,0,1,1.728.354,3.256,3.256,0,0,1,.023,1.625,3.207,3.207,0,0,1-.664,1.482m.1-5.059q-.26-.053-.383-.42a1.863,1.863,0,0,1-.055-.856q.351-2.593.7-5.187.2-1.076.395-2.152a1.727,1.727,0,0,1,.321-.769c.157-.2.318-.287.481-.254l1.089.223q.244.05.342.423a1.818,1.818,0,0,1,0,.835l-.494,2.131q-.7,2.522-1.4,5.043a1.866,1.866,0,0,1-.388.765.545.545,0,0,1-.508.237l-.1-.021" transform="translate(-592.595 -48.47)" fill="#fff"/>
  </g>
</svg>
