<svg xmlns="http://www.w3.org/2000/svg" width="150.052" height="165.052" viewBox="0 0 150.052 165.052">
  <g id="キュートながま口財布アイコン" transform="translate(-23.265)">
    <path id="Path_11383" data-name="Path 11383" d="M170.259,99.9a33.114,33.114,0,0,0-5.41-8.533c-1.023-1.2-2.08-2.307-3.153-3.405a4.11,4.11,0,0,0-.922-3.657l.02-.01a3.739,3.739,0,0,1-.222-.977,20.361,20.361,0,0,1-.121-2.428c-.005-2.508.257-6,.257-10.024a54.724,54.724,0,0,0-2.468-17.3,44.22,44.22,0,0,0-12.028-18.627,54.015,54.015,0,0,0-24.545-12.915c-.272-.065-.539-.116-.8-.181A13.973,13.973,0,0,0,98.291,5.4,13.975,13.975,0,0,0,75.715,21.851c-.267.065-.529.116-.8.181A53.962,53.962,0,0,0,50.369,34.947,44.271,44.271,0,0,0,38.336,53.574a54.848,54.848,0,0,0-2.463,17.3c0,4.02.257,7.505.257,10.014a15.45,15.45,0,0,1-.207,2.911,2.079,2.079,0,0,1-.136.494l-.005.01.015.01a4.115,4.115,0,0,0-.917,3.657c-.353.353-.7.715-1.048,1.078a36.277,36.277,0,0,0-7.51,10.86c-1.944,4.533-3.062,10.149-3.057,17.68a38.892,38.892,0,0,0,5.657,20.7c5.541,9,14.814,15.685,26.651,20.113,11.857,4.432,26.353,6.653,42.719,6.653,21.82-.01,40.321-3.934,53.654-11.837a45.054,45.054,0,0,0,15.715-14.93,38.893,38.893,0,0,0,5.657-20.7C173.322,110.053,172.2,104.437,170.259,99.9Zm-61-91.5a5.606,5.606,0,1,1-5.6,5.6A5.618,5.618,0,0,1,109.261,8.4Zm-21.946,0a5.606,5.606,0,1,1-5.6,5.6A5.618,5.618,0,0,1,87.315,8.4Zm64.831,68.916a49,49,0,0,1-5.924-11.132c-3.939-10.275-9.7-17.529-17.7-21.951S110.607,38.18,98.291,38.18,76.058,39.8,68.059,44.235,54.3,55.911,50.36,66.186a49.846,49.846,0,0,1-5.923,11.152c-.081-2.045-.166-4.171-.161-6.468a46.589,46.589,0,0,1,2.05-14.678,35.718,35.718,0,0,1,9.807-15.121,45.505,45.505,0,0,1,20.8-10.88,89.694,89.694,0,0,1,21.362-2.176,89.67,89.67,0,0,1,21.362,2.176,45.532,45.532,0,0,1,20.8,10.88,35.769,35.769,0,0,1,9.807,15.121,46.559,46.559,0,0,1,2.05,14.678C152.313,73.157,152.227,75.283,152.147,77.318Z" fill="#a3dcf7"/>
  </g>
</svg>
